<svg width="34" height="36" viewBox="0 0 34 36" fill="none" xmlns="http://www.w3.org/2000/svg">
<ellipse cx="16.92" cy="18" rx="16.92" ry="18" fill="#FCCEEE"/>
<ellipse cx="17.1398" cy="17.7657" rx="14.0634" ry="14.961" fill="#FAA7E0"/>
<path fill-rule="evenodd" clip-rule="evenodd" d="M19.8117 29.5888C24.8334 28.3089 28.5661 23.5018 28.5661 17.7672C28.5661 11.0537 23.4503 5.61133 17.1396 5.61133C10.8289 5.61133 5.71313 11.0537 5.71313 17.7672C5.71313 23.4989 9.44214 28.3041 14.46 29.5869C14.9156 30.3584 15.7516 31.4163 16.2982 31.869C16.3665 31.9296 16.4443 31.9931 16.4984 32.0373C16.5273 32.0608 16.5494 32.0789 16.5597 32.0881C16.7243 32.201 16.9263 32.2607 17.1432 32.2607C17.3375 32.2607 17.5319 32.2078 17.6888 32.1013C17.798 32.0329 17.9728 31.8758 17.9728 31.8758C18.5498 31.4027 19.3739 30.3324 19.8117 29.5888Z" fill="#EE46BC"/>
<g clip-path="url(#clip0_1974_151278)">
<path d="M19.0443 16.2466V14.7271C19.0443 13.6082 18.1917 12.7012 17.1399 12.7012C16.0881 12.7012 15.2355 13.6082 15.2355 14.7271V16.2466M13.1368 16.9314L12.8511 20.1729C12.7699 21.0946 12.7293 21.5554 12.8731 21.9114C12.9993 22.2241 13.2206 22.4826 13.5015 22.6456C13.8212 22.831 14.2563 22.831 15.1265 22.831H19.1533C20.0235 22.831 20.4585 22.831 20.7783 22.6456C21.0591 22.4826 21.2804 22.2241 21.4067 21.9114C21.5505 21.5554 21.5098 21.0946 21.4286 20.1729L21.143 16.9314C21.0744 16.1531 21.0401 15.764 20.8756 15.4697C20.7307 15.2106 20.5166 15.0032 20.2605 14.874C19.9698 14.7271 19.6024 14.7271 18.8676 14.7271L15.4121 14.7271C14.6773 14.7271 14.3099 14.7271 14.0192 14.8739C13.7632 15.0032 13.5491 15.2106 13.4042 15.4697C13.2397 15.764 13.2054 16.1531 13.1368 16.9314Z" stroke="white" stroke-width="2" stroke-linecap="round" stroke-linejoin="round"/>
</g>
<defs>
<clipPath id="clip0_1974_151278">
<rect width="11.4265" height="12.1558" fill="white" transform="translate(11.4265 11.6875)"/>
</clipPath>
</defs>
</svg>
