<svg width="24" height="24" fill="none" xmlns="http://www.w3.org/2000/svg"><path d="M6.48 2.278c-1.998.366-3.797 1.77-4.742 3.702a6.932 6.932 0 0 0-.052 6.059c.495 1.054 1.341 2.07 3.48 4.181 1.705 1.683 5.253 4.941 5.739 5.269.629.426 1.52.431 2.155.014.195-.127 1.139-.959 2.5-2.201 2.659-2.426 4.572-4.323 5.611-5.56 1.112-1.324 1.65-2.585 1.795-4.208.08-.895-.07-1.982-.395-2.854-.839-2.257-2.709-3.898-4.951-4.346-.55-.11-1.695-.101-2.282.017a6.998 6.998 0 0 0-2.928 1.336c-.228.174-.434.303-.457.288a9.446 9.446 0 0 1-.388-.304c-.82-.659-1.826-1.155-2.785-1.373-.186-.042-.549-.069-1.08-.08-.667-.014-.87-.004-1.22.06m1.72 1.9c.493.074.934.215 1.374.44.508.259.816.492 1.406 1.062.559.54.665.601 1.045.599.311-.001.503-.118.949-.574.637-.65 1.253-1.062 1.981-1.322a3.48 3.48 0 0 1 1.024-.221c1.227-.114 2.459.351 3.464 1.308a4.902 4.902 0 0 1 1.502 2.785c.092.526.056 1.389-.079 1.914-.337 1.301-.855 2.016-3.049 4.206-1.592 1.588-5.516 5.245-5.782 5.387-.074.04-.309-.162-2.114-1.817-1.672-1.534-2.609-2.427-3.841-3.662-1.604-1.608-2.134-2.232-2.513-2.958a4.845 4.845 0 0 1-.043-4.474c.245-.481.495-.829.895-1.246C5.495 4.483 6.845 3.974 8.2 4.178m2.613 3.504c-.461.091-.571.234-1.313 1.718l-.62 1.24h-.175c-.471 0-.807.145-1.022.443-.342.472-.171 1.174.352 1.446.212.11.222.111.962.111.725 0 .754-.003.956-.104.256-.128.336-.231.629-.816l.23-.46.628 1.88c.345 1.034.657 1.937.693 2.006.089.172.354.391.541.448.349.104.711.035.969-.186.135-.116.27-.354.82-1.453l.657-1.315h.316c.267 0 .348-.017.529-.111.523-.272.694-.974.352-1.446-.267-.37-.582-.462-1.48-.434-.875.027-1.021.121-1.418.913a4.414 4.414 0 0 1-.236.438c-.009 0-.302-.858-.65-1.906-.603-1.816-.641-1.914-.803-2.095a.953.953 0 0 0-.917-.317" fill="#667085" fill-rule="evenodd"/></svg>