<svg width="24" height="24" fill="none" xmlns="http://www.w3.org/2000/svg"><path d="M8.664 2.061a.996.996 0 0 0-.519.43c-.052.093-.72 2.046-1.484 4.339L5.273 11H3.562c-1.429 0-1.74.01-1.884.061a.989.989 0 0 0-.379 1.64c.306.306.271.302 2.765.29l2.198-.011.199-.102c.375-.193.356-.147 1.485-3.536C8.514 7.636 8.989 6.24 9 6.24c.011 0 1.16 3.419 2.552 7.597 1.899 5.696 2.562 7.638 2.649 7.758.063.088.202.21.307.272.266.156.661.161.952.011.383-.197.323-.048 1.859-4.656L18.727 13h1.709c1.942 0 1.97-.004 2.265-.299a.984.984 0 0 0-.001-1.403c-.305-.305-.271-.301-2.764-.289l-2.198.011-.199.102c-.375.193-.356.147-1.485 3.536-.568 1.706-1.043 3.102-1.054 3.102-.011 0-1.16-3.421-2.554-7.602-2.076-6.227-2.557-7.632-2.66-7.768-.244-.319-.754-.469-1.122-.329" fill="#667085" fill-rule="evenodd"/></svg>