<svg width="24" height="24" fill="none" xmlns="http://www.w3.org/2000/svg"><path d="M4.692 2.043c-.838.076-1.499.324-2.126.797-.698.527-1.234 1.343-1.424 2.166C1.013 5.568 1 6.094 1 10.699c0 3.874.009 4.664.059 4.946a4.037 4.037 0 0 0 2.993 3.238c.403.103.988.143 1.212.082.234-.064.473-.251.603-.473.097-.165.113-.235.113-.495 0-.268-.014-.326-.121-.499-.219-.354-.37-.423-1.179-.536a1.986 1.986 0 0 1-1.637-1.579c-.055-.306-.059-8.257-.003-9.163.021-.352.066-.743.099-.87.143-.547.662-1.068 1.207-1.21.459-.12 1.523-.139 7.654-.139 6.124 0 7.195.019 7.652.138.554.145 1.067.659 1.209 1.212.114.446.138 1.412.138 5.629 0 4.662.007 4.512-.244 4.984-.15.28-.543.668-.819.808-.252.128-.633.228-.865.228-.811 0-1.305.768-.945 1.469.115.223.368.43.606.495.226.061.808.024 1.209-.079 1.464-.375 2.537-1.445 2.95-2.944l.089-.321V10.6c0-5.564.012-5.297-.263-6.056-.371-1.024-1.365-1.978-2.417-2.317-.649-.21-.311-.201-8.06-.21-3.949-.004-7.345.008-7.548.026m6.948 12.289c-.278.08-.542.226-.693.384-.155.163-3.617 4.32-3.939 4.73-.323.411-.426.668-.424 1.054.003.454.116.728.432 1.044.172.171.315.271.484.34l.24.096h8.52l.24-.096c.169-.069.312-.169.484-.34.317-.318.431-.592.434-1.046.004-.555-.01-.575-2.347-3.376-1.173-1.406-2.12-2.506-2.211-2.569-.33-.227-.862-.324-1.22-.221m1.802 3.958 1.408 1.69-1.425.011c-.784.005-2.065.005-2.846 0l-1.422-.011 1.408-1.69c.774-.93 1.421-1.69 1.438-1.69.017 0 .664.76 1.439 1.69" fill="#667085" fill-rule="evenodd"/></svg>