<svg width="24" height="24" fill="none" xmlns="http://www.w3.org/2000/svg"><path d="M5.237 2.582a5.23 5.23 0 0 0-3.388 2.222c-.205.302-.472.87-.605 1.287a4.546 4.546 0 0 0-.23 1.709c.032.803.184 1.404.527 2.093.774 1.555 2.413 2.672 4.125 2.811l.334.027.001 3.205c0 3.588-.006 3.501.283 4.097.135.28.231.408.511.687.532.529 1.095.766 1.825.769 1.13.004 2.099-.696 2.505-1.809l.095-.26.011-6.139c.011-6.809.024-6.447-.253-7.276a5.14 5.14 0 0 0-3.975-3.421c-.459-.078-1.339-.079-1.766-.002m11.817.001a5.817 5.817 0 0 0-1.434.467c-.517.26-.893.535-1.345.986-.776.774-1.234 1.647-1.444 2.755-.04.211-.051 1.601-.051 6.409v6.14l.111.329c.44 1.299 1.798 2.059 3.093 1.731a2.605 2.605 0 0 0 1.772-1.486c.221-.492.216-.407.233-3.924.011-2.51.026-3.27.063-3.271.21-.003.955-.133 1.248-.218.493-.142 1.25-.523 1.665-.838 1.934-1.465 2.565-4.124 1.49-6.275-.893-1.789-2.661-2.881-4.635-2.864a5.992 5.992 0 0 0-.766.059m1.665 2.018c2.321.655 3.069 3.618 1.335 5.285-.62.596-1.354.874-2.305.874-.502 0-.737.056-1.01.242a1.973 1.973 0 0 0-.613.711l-.106.227-.02 3.58c-.019 3.477-.022 3.584-.099 3.711-.089.147-.347.289-.525.289-.183 0-.463-.162-.555-.32-.08-.138-.081-.203-.093-5.78-.013-5.888-.004-6.254.157-6.745.383-1.169 1.334-1.969 2.575-2.169.258-.042.964.011 1.259.095M7.02 4.632c.366.12.536.201.82.389.626.415 1.025.948 1.285 1.719l.095.28.011 6.023.011 6.023-.091.135a.628.628 0 0 1-1.038.03L8.02 19.1 8 15.5l-.02-3.6-.108-.231c-.188-.401-.669-.802-1.062-.887a5.895 5.895 0 0 0-.66-.04c-.612-.014-1.063-.124-1.51-.369A3.21 3.21 0 0 1 3.1 8.402c-.362-1.419.332-2.93 1.637-3.563.546-.264.829-.321 1.503-.302.397.012.604.037.78.095" fill="#667085" fill-rule="evenodd"/></svg>