<svg width="24" height="24" fill="none" xmlns="http://www.w3.org/2000/svg"><path d="M4.64 2.068c-.152.053-.431.312-1.811 1.687-1.145 1.14-1.657 1.677-1.717 1.801-.416.859.473 1.748 1.332 1.332.124-.06.66-.572 1.801-1.717 1.453-1.459 1.631-1.652 1.69-1.828.129-.389.044-.766-.234-1.044a1.005 1.005 0 0 0-1.061-.231m14.003.001C18.291 2.193 18 2.614 18 3c0 .08.029.234.065.343.059.176.237.369 1.69 1.828 1.141 1.145 1.677 1.657 1.801 1.717.859.416 1.748-.473 1.332-1.332-.06-.124-.572-.66-1.717-1.801-1.459-1.453-1.652-1.631-1.828-1.69a1.032 1.032 0 0 0-.7.004M11.32 4.025c-2.544.233-4.788 1.418-6.333 3.343-1.449 1.806-2.184 4.234-1.945 6.424.165 1.505.815 3.11 1.781 4.397.119.159.217.302.217.318 0 .016-.429.462-.954.991-.828.835-.963.988-1.02 1.159-.13.388-.046.765.233 1.044s.656.363 1.044.233c.171-.057.324-.192 1.159-1.02.529-.525.975-.954.991-.954.016 0 .159.098.318.217C8.342 21.326 10.259 22 12 22c1.738 0 3.661-.675 5.189-1.823.159-.119.302-.217.318-.217.016 0 .462.429.991.954.835.828.988.963 1.159 1.02.388.13.765.046 1.044-.233s.363-.656.233-1.044c-.057-.171-.192-.324-1.02-1.159-.525-.529-.954-.975-.954-.991 0-.016.098-.159.217-.318C20.329 16.655 21 14.739 21 12.986c0-4.423-3.285-8.223-7.68-8.885-.412-.062-1.644-.109-2-.076m1.8 2.07c.477.08.962.209 1.361.363 2.385.921 4.037 2.973 4.444 5.522.066.411.066 1.626.001 2.04-.368 2.321-1.811 4.281-3.886 5.276-1.251.599-2.603.822-3.926.646-3.127-.417-5.537-2.779-6.039-5.922-.066-.413-.066-1.627 0-2.04.407-2.549 2.059-4.601 4.444-5.522.55-.212 1.104-.338 1.921-.434.264-.032 1.34.014 1.68.071m-4.477 5.974C8.291 12.193 8 12.614 8 13c0 .242.119.521.299.701.311.312.157.299 3.701.299s3.39.013 3.701-.299a.984.984 0 0 0 0-1.402c-.312-.312-.154-.299-3.718-.296-2.757.003-3.186.011-3.34.066" fill="#667085" fill-rule="evenodd"/></svg>