<svg width="24" height="24" fill="none" xmlns="http://www.w3.org/2000/svg"><path d="M2.643 2.069a1.066 1.066 0 0 0-.577.591c-.138.405-.051.742.285 1.105l.221.238-.72.729C1.088 5.504 1 5.636 1 6c0 .527.473 1 1 1 .364 0 .495-.088 1.271-.855l.731-.722.719.718c.395.395.719.737.719.761 0 .024-.056.096-.124.161a7.026 7.026 0 0 0-.471.577c-1.557 2.062-2.163 4.566-1.678 6.94.241 1.187.877 2.572 1.656 3.609.119.159.217.302.217.318 0 .016-.429.462-.954.991-.828.835-.963.988-1.02 1.159-.13.388-.046.765.233 1.044s.656.363 1.044.233c.171-.057.324-.192 1.159-1.02.529-.525.975-.954.991-.954.016 0 .159.098.318.217 1.037.779 2.422 1.415 3.609 1.656 2.028.414 4.177.028 6.078-1.091.417-.245 1.249-.857 1.439-1.058.065-.068.136-.124.159-.124.023 0 .564.519 1.203 1.154 1.02 1.015 1.185 1.163 1.358 1.22.389.13.766.046 1.045-.234a.986.986 0 0 0 .185-1.144c-.063-.129-2.503-2.593-9.216-9.301-8.441-8.436-9.146-9.13-9.328-9.19a1.038 1.038 0 0 0-.7.004m16 0C18.291 2.193 18 2.614 18 3c0 .08.029.234.065.343.059.176.237.369 1.69 1.828 1.141 1.145 1.677 1.657 1.801 1.717.859.416 1.748-.473 1.332-1.332-.06-.124-.572-.66-1.717-1.801-1.459-1.453-1.652-1.631-1.828-1.69a1.032 1.032 0 0 0-.7.004M11.32 4.025c-.434.039-1.066.145-1.195.199a.958.958 0 0 0-.504.46.997.997 0 0 0 .352 1.312c.238.147.464.171.897.097.482-.082 1.687-.093 2.15-.018 3.096.497 5.408 2.809 5.905 5.905.075.463.064 1.668-.018 2.15-.074.433-.05.659.097.897.229.37.687.554 1.091.436.641-.186.833-.647.892-2.143.177-4.551-3.138-8.537-7.667-9.219-.412-.062-1.644-.109-2-.076m.479 9.194c4.241 4.241 4.892 4.907 4.84 4.954-.403.373-1.054.813-1.619 1.097-1.953.98-4.189.969-6.181-.03-2.81-1.409-4.34-4.596-3.676-7.66.223-1.03.727-2.06 1.456-2.97.128-.16.243-.29.257-.29.013 0 2.229 2.205 4.923 4.899" fill="#667085" fill-rule="evenodd"/></svg>