<svg width="24" height="24" fill="none" xmlns="http://www.w3.org/2000/svg"><path d="M11.607 1.043c-.095.019-.275.08-.4.137-.125.057-2.043 1.125-4.263 2.372C2.426 6.09 2.507 6.038 2.228 6.611c-.077.159-.16.384-.184.501-.062.299-.061 9.481 0 9.776.08.381.265.708.572 1.012.272.268.457.377 4.424 2.605 2.277 1.279 4.239 2.359 4.36 2.4.302.103.898.103 1.2 0 .121-.041 2.083-1.121 4.36-2.4 3.967-2.228 4.152-2.337 4.424-2.605.307-.304.492-.631.572-1.012.031-.148.044-1.632.044-4.902 0-5.114.009-4.892-.228-5.386a2.152 2.152 0 0 0-.389-.5c-.272-.268-.454-.375-4.323-2.548-2.222-1.247-4.14-2.314-4.263-2.37a1.947 1.947 0 0 0-1.19-.139m4.366 4.222c2.134 1.2 3.912 2.203 3.953 2.228.071.045.074.212.074 4.507v4.461l-.09.056c-.201.127-7.885 4.443-7.91 4.443-.014 0-1.816-1.007-4.003-2.237L4.02 16.486l-.01-4.476L4 7.533l.43-.243c3.707-2.102 7.562-4.245 7.607-4.228.031.011 1.803 1.003 3.936 2.203m-4.16 1.698a.87.87 0 0 0-.519.284c-.29.308-.274.153-.274 2.733 0 2.319 0 2.32.089 2.486.38.711 1.402.711 1.782 0 .089-.166.089-.167.089-2.486 0-2.307-.001-2.321-.087-2.483a1.013 1.013 0 0 0-1.08-.534m-.163 8.141c-.374.138-.651.552-.65.973.002.556.593 1.07 1.131.982.993-.162 1.192-1.462.296-1.926-.175-.09-.57-.105-.777-.029" fill="#667085" fill-rule="evenodd"/></svg>