<svg width="24" height="24" fill="none" xmlns="http://www.w3.org/2000/svg"><path d="M11.604 2.043a2.398 2.398 0 0 0-.814.387c-.233.188-.44.46-.671.882-.363.665-8.314 14.721-8.613 15.227-.352.598-.468.906-.495 1.321-.039.591.157 1.107.585 1.54.297.302.636.486 1.021.557.339.061 18.494.061 18.791-.001a2.05 2.05 0 0 0 1.478-1.306c.071-.21.092-.359.093-.67.001-.491-.083-.762-.405-1.304-.27-.456-8.403-14.833-8.667-15.322-.349-.646-.623-.939-1.087-1.159a1.932 1.932 0 0 0-1.216-.152m.59 2.344c.222.337 8.343 14.69 8.586 15.174.164.325.175.364.111.39-.039.016-4.04.029-8.891.029s-8.852-.013-8.891-.029c-.064-.026-.053-.064.106-.38.237-.472 8.379-14.862 8.595-15.191.094-.142.179-.258.19-.258.011 0 .098.119.194.265m-.577 4.19c-.204.089-.401.29-.502.513l-.095.21-.012 2.015c-.008 1.236.003 2.116.028 2.277.053.34.207.59.462.747.173.107.231.121.502.121s.329-.014.502-.121c.24-.148.402-.399.46-.709.066-.359.03-4.285-.041-4.481a1.093 1.093 0 0 0-.494-.545c-.202-.098-.615-.112-.81-.027m.163 7.939c-.314.081-.608.351-.694.638-.258.864.542 1.601 1.336 1.231.735-.342.745-1.414.017-1.786-.173-.088-.488-.128-.659-.083" fill="#667085" fill-rule="evenodd"/></svg>