<svg width="24" height="24" fill="none" xmlns="http://www.w3.org/2000/svg"><path d="M4.566 3.042c-1.274.169-2.343 1.242-2.523 2.535-.056.4-.056 2.446 0 2.846.089.638.35 1.168.815 1.65.473.492 1.054.79 1.726.886.226.032 1.83.042 5.636.032l5.32-.013.28-.088c1.034-.327 1.828-1.138 2.085-2.13.101-.392.128-2.752.037-3.28-.201-1.165-.999-2.028-2.208-2.389-.217-.064-.626-.07-5.574-.076-2.937-.003-5.454.009-5.594.027M15.4 5.084c.217.099.385.26.487.467.091.186.093.211.093 1.449s-.002 1.263-.093 1.449a.993.993 0 0 1-.487.467c-.126.058-.665.064-5.4.064s-5.274-.006-5.4-.064a.979.979 0 0 1-.48-.456c-.078-.162-.088-.263-.107-1.089-.027-1.188.016-1.711.161-1.929.166-.251.382-.373.72-.405.157-.015 2.554-.025 5.326-.022 4.526.004 5.054.012 5.18.069M4.696 13.042a2.977 2.977 0 0 0-2.623 2.418c-.074.389-.074 2.691 0 3.08.185.985.873 1.84 1.773 2.206.603.245.11.229 7.834.244 4.521.009 7.221-.001 7.508-.026.795-.072 1.396-.342 1.915-.861.507-.506.785-1.109.858-1.86.048-.494.048-1.992 0-2.486-.073-.751-.351-1.354-.858-1.86-.506-.507-1.109-.785-1.86-.858-.464-.045-14.079-.042-14.547.003m14.766 2.045c.167.092.449.404.487.541.04.145.041 2.598 0 2.743-.039.139-.271.399-.463.518l-.146.091H4.647l-.17-.12c-.254-.18-.39-.371-.436-.616-.053-.277-.053-2.208-.001-2.485.064-.336.367-.661.673-.721.081-.016 3.405-.027 7.387-.024 6.687.006 7.249.011 7.362.073" fill="#667085" fill-rule="evenodd"/></svg>