<svg width="24" height="24" fill="none" xmlns="http://www.w3.org/2000/svg"><path d="M2.643 2.069C2.291 2.193 2 2.614 2 3c0 .242.119.521.299.701C2.625 4.027 1.736 4 12 4c10.264 0 9.375.027 9.701-.299a.984.984 0 0 0 0-1.402c-.326-.327.567-.299-9.718-.296-8.192.003-9.182.01-9.34.066m8.997 3.999c-.156.053-.66.541-3.811 3.687-2.629 2.624-3.655 3.674-3.716 3.801a.986.986 0 0 0 .185 1.144c.279.279.655.364 1.045.235.179-.059.445-.312 2.927-2.789L11 9.421v5.863c0 6.585-.023 6.095.299 6.417a.984.984 0 0 0 1.402 0c.322-.322.299.168.299-6.417V9.421l2.73 2.725c2.482 2.477 2.748 2.73 2.927 2.789.39.129.766.044 1.045-.235a.986.986 0 0 0 .185-1.144c-.061-.127-1.087-1.176-3.716-3.801-3.321-3.316-3.648-3.631-3.828-3.69a1.06 1.06 0 0 0-.703.003" fill="#667085" fill-rule="evenodd"/></svg>