<svg width="24" height="24" fill="none" xmlns="http://www.w3.org/2000/svg"><path d="M5.608 2.043c-1.028.133-1.968.844-2.361 1.783-.244.584-.225-.033-.238 7.954-.009 5.102.001 7.38.031 7.615.134 1.018.814 1.937 1.737 2.345.523.232.599.24 2.223.24 1.33 0 1.53-.008 1.76-.073a3.096 3.096 0 0 0 2.147-2.148c.066-.242.072-.73.084-7.559.009-5.292 0-7.388-.033-7.62a2.88 2.88 0 0 0-1.089-1.912 2.917 2.917 0 0 0-1.508-.627c-.393-.048-2.381-.046-2.753.002M8.4 4.089a.957.957 0 0 1 .487.462l.093.189.011 6.97c.007 4.003-.004 7.125-.025 7.334-.043.432-.151.622-.464.815l-.196.121H7.023c-1.262 0-1.286-.001-1.472-.093a.993.993 0 0 1-.467-.487c-.058-.126-.065-.819-.075-7.048-.007-3.799.004-7.097.024-7.329.04-.478.121-.645.414-.848.213-.148.491-.172 1.793-.157.785.01 1.052.026 1.16.071m7.352-.047a2.954 2.954 0 0 0-2.07 1.089c-.379.476-.576.982-.641 1.65-.054.554-.053 9.868.001 10.436.074.783.341 1.373.855 1.886.5.5 1.098.779 1.837.857.473.05 2.059.05 2.532 0 .739-.078 1.337-.357 1.837-.857.507-.506.785-1.109.858-1.86.049-.507.048-9.985-.001-10.493-.072-.737-.356-1.352-.857-1.853-.521-.521-1.11-.785-1.908-.856-.517-.046-1.923-.045-2.443.001m2.773 2.099c.286.201.424.417.454.708.014.138.02 2.555.013 5.371-.014 5.754.018 5.213-.327 5.531-.099.091-.231.18-.293.198-.061.017-.7.031-1.419.031h-1.306l-.17-.12c-.252-.179-.405-.389-.441-.609-.048-.291-.044-10.238.004-10.492.066-.347.355-.649.686-.718.095-.019.726-.032 1.401-.028l1.226.007.172.121" fill="#667085" fill-rule="evenodd"/></svg>