<svg width="24" height="24" fill="none" xmlns="http://www.w3.org/2000/svg"><path d="M11.643 1.069a1.118 1.118 0 0 0-.343.229c-.303.303-.3.276-.3 2.678v2.122L9.77 4.871c-.817-.816-1.28-1.248-1.379-1.289-.184-.077-.589-.08-.765-.007-.351.146-.625.553-.625.925 0 .407.018.428 2.345 2.746C11.653 9.543 11.595 9.494 12 9.494c.405 0 .347.049 2.654-2.248 2.327-2.318 2.345-2.339 2.345-2.746 0-.372-.274-.779-.625-.925-.176-.073-.581-.07-.765.007-.099.041-.562.473-1.379 1.289L13 6.098V3.976c0-2.401.003-2.375-.299-2.677a.998.998 0 0 0-1.058-.23m-9 10C2.291 11.193 2 11.614 2 12c0 .242.119.521.299.701.326.326-.563.299 9.701.299 10.264 0 9.375.027 9.701-.299a.984.984 0 0 0 0-1.402c-.326-.327.567-.299-9.718-.296-8.192.003-9.182.01-9.34.066m8.957 3.514c-.088.038-.927.845-2.274 2.189-2.305 2.298-2.325 2.322-2.325 2.728 0 .388.306.823.664.942.085.029.236.052.335.052.391 0 .415-.019 1.75-1.348L11 17.902v2.122c0 2.401-.003 2.375.299 2.677.18.18.459.299.701.299.242 0 .521-.119.701-.299.302-.302.299-.276.299-2.677v-2.122l1.25 1.244c1.335 1.329 1.359 1.348 1.75 1.348.099 0 .25-.023.335-.052.358-.119.664-.554.664-.942 0-.406-.02-.43-2.325-2.728-1.469-1.465-2.18-2.148-2.283-2.19-.188-.078-.608-.077-.791.001" fill="#667085" fill-rule="evenodd"/></svg>