<svg width="24" height="24" fill="none" xmlns="http://www.w3.org/2000/svg"><path d="M3.24 5.037a1.05 1.05 0 0 0-.488.315c-.445.493-.272 1.265.348 1.554l.2.093h17.4l.2-.093a.994.994 0 0 0 .043-1.799l-.163-.087-8.72-.007c-4.796-.003-8.765.007-8.82.024m0 4a1.05 1.05 0 0 0-.488.315c-.445.493-.272 1.265.348 1.554l.2.093h13.4l.2-.093a.994.994 0 0 0 .043-1.799l-.163-.087-6.72-.007c-3.696-.004-6.765.007-6.82.024m0 4a1.05 1.05 0 0 0-.488.315c-.445.493-.272 1.265.348 1.554l.2.093h17.4l.2-.093a.994.994 0 0 0 .043-1.799l-.163-.087-8.72-.007c-4.796-.003-8.765.007-8.82.024m0 4a1.05 1.05 0 0 0-.488.315c-.445.493-.272 1.265.348 1.554l.2.093h13.4l.2-.093a.994.994 0 0 0 .043-1.799l-.163-.087-6.72-.007c-3.696-.004-6.765.007-6.82.024" fill="#667085" fill-rule="evenodd"/></svg>