<svg width="24" height="24" fill="none" xmlns="http://www.w3.org/2000/svg"><path d="M5.566 2.041c-.832.114-1.66.652-2.115 1.374-.169.267-.33.702-.392 1.059-.088.505-.088 14.547 0 15.052a2.86 2.86 0 0 0 .827 1.588c.448.447.966.717 1.594.829.419.076 2.625.075 3.04 0a2.971 2.971 0 0 0 2.421-2.418c.088-.503.088-14.547 0-15.051A2.914 2.914 0 0 0 9.3 2.315c-.579-.276-.646-.286-2.14-.298-.737-.006-1.454.005-1.594.024m2.886 2.075a.981.981 0 0 1 .464.484c.058.127.064.833.064 7.4s-.006 7.273-.064 7.4a.993.993 0 0 1-.467.487c-.186.091-.211.093-1.449.093s-1.263-.002-1.449-.093a.993.993 0 0 1-.467-.487c-.058-.126-.065-.824-.075-7.11-.007-3.951.004-7.126.025-7.331.042-.416.142-.609.409-.786.221-.146.477-.169 1.76-.157 1.01.009 1.071.014 1.249.1m7.244 1.926a2.974 2.974 0 0 0-2.515 2.008c-.057.171-.12.486-.141.7-.05.514-.05 9.986 0 10.5.072.737.356 1.352.857 1.853.504.505 1.095.776 1.857.855.534.054 1.958.054 2.492 0 .762-.079 1.353-.35 1.857-.855.514-.513.781-1.103.855-1.886.057-.593.057-9.841 0-10.434-.074-.783-.341-1.373-.855-1.886-.501-.501-1.116-.785-1.853-.857-.457-.044-2.087-.043-2.554.002m2.827 2.098c.239.169.401.386.44.587.044.226.044 10.32 0 10.546-.039.201-.201.418-.44.587l-.17.12h-2.706l-.172-.121c-.286-.201-.424-.417-.454-.708-.014-.138-.02-2.558-.013-5.378l.012-5.126.12-.17c.163-.23.387-.403.569-.44.083-.017.712-.028 1.398-.024l1.246.007.17.12" fill="#667085" fill-rule="evenodd"/></svg>