<svg width="24" height="24" fill="none" xmlns="http://www.w3.org/2000/svg"><path d="M6.608 3.043c-1.203.156-2.167 1.009-2.514 2.223-.087.307-.128 2.645-.054 3.148.176 1.207 1.016 2.156 2.207 2.494.238.068.579.072 5.753.072 5.2 0 5.514-.004 5.76-.073 1.043-.292 1.878-1.129 2.144-2.148.1-.383.13-2.749.04-3.265-.11-.643-.371-1.151-.812-1.584-.298-.293-.451-.406-.772-.568a2.673 2.673 0 0 0-.999-.301c-.407-.049-10.37-.048-10.753.002M17.4 5.084a.98.98 0 0 1 .483.462c.083.172.091.253.107 1.149.022 1.227-.018 1.652-.177 1.878-.063.091-.204.22-.311.286l-.196.121h-5.283c-4.756 0-5.297-.006-5.423-.064a.976.976 0 0 1-.481-.458c-.08-.165-.089-.26-.107-1.09a16.413 16.413 0 0 1 .018-1.337c.032-.367.054-.452.147-.587.184-.266.385-.377.737-.407.168-.015 2.565-.025 5.326-.022 4.508.005 5.034.012 5.16.069M4.752 13.042a2.954 2.954 0 0 0-2.07 1.089c-.379.476-.576.982-.641 1.65-.052.53-.051 1.89.001 2.436.074.783.341 1.373.855 1.886.5.5 1.098.779 1.837.857.491.052 14.041.052 14.532 0 .739-.078 1.337-.357 1.837-.857.507-.506.785-1.109.858-1.86.048-.497.048-1.993-.001-2.493-.072-.737-.356-1.352-.857-1.853-.521-.521-1.11-.785-1.908-.856-.537-.048-13.907-.047-14.443.001m14.499 1.994c.22.036.43.189.609.441l.12.17v1.306c0 .719-.014 1.358-.031 1.419-.038.137-.32.449-.487.541-.113.062-.675.068-7.242.079-3.916.007-7.233.001-7.371-.013-.291-.03-.507-.168-.708-.454l-.121-.172-.014-1.168c-.008-.727.003-1.257.03-1.403.068-.369.351-.672.69-.739.218-.043 14.265-.05 14.525-.007" fill="#667085" fill-rule="evenodd"/></svg>