<svg width="24" height="24" fill="none" xmlns="http://www.w3.org/2000/svg"><path d="M2.643 2.069a1.066 1.066 0 0 0-.577.591C2.005 2.839 2 3.592 2 12c0 10.264-.027 9.375.299 9.701a.984.984 0 0 0 1.402 0C4.027 21.375 4 22.264 4 12c0-10.264.027-9.375-.299-9.701a.998.998 0 0 0-1.058-.23M13.64 4.068c-.156.053-.66.541-3.811 3.687-2.629 2.624-3.655 3.674-3.716 3.801a1.013 1.013 0 0 0-.053.77c.066.203.247.392 3.695 3.845 2.624 2.629 3.674 3.655 3.801 3.716a.986.986 0 0 0 1.144-.185c.279-.279.364-.655.235-1.045-.059-.179-.312-.445-2.789-2.927L9.421 13h5.863c6.585 0 6.095.023 6.417-.299a.984.984 0 0 0 0-1.402c-.322-.322.168-.299-6.417-.299H9.421l2.725-2.73c2.477-2.482 2.73-2.748 2.789-2.927.129-.39.044-.766-.234-1.044a1.006 1.006 0 0 0-1.061-.231" fill="#667085" fill-rule="evenodd"/></svg>