<svg width="24" height="24" fill="none" xmlns="http://www.w3.org/2000/svg"><path d="M20.643 2.069a1.066 1.066 0 0 0-.577.591C20.005 2.839 20 3.592 20 12c0 10.264-.027 9.375.299 9.701a.984.984 0 0 0 1.402 0c.326-.326.299.563.299-9.701 0-10.264.027-9.375-.299-9.701a.998.998 0 0 0-1.058-.23m-11 2C9.291 4.193 9 4.614 9 5c0 .08.029.234.065.343.059.179.312.445 2.789 2.927L14.579 11H8.716c-6.585 0-6.095-.023-6.417.299a.984.984 0 0 0 0 1.402c.322.322-.168.299 6.417.299h5.863l-2.725 2.73c-2.477 2.482-2.73 2.748-2.789 2.927-.129.39-.044.766.234 1.044s.654.362 1.044.234c.18-.059.507-.374 3.828-3.69 2.558-2.553 3.655-3.675 3.714-3.795a1.115 1.115 0 0 0-.015-.91c-.079-.151-.985-1.079-3.717-3.805-3.303-3.296-3.63-3.611-3.81-3.67a1.038 1.038 0 0 0-.7.004" fill="#667085" fill-rule="evenodd"/></svg>