<svg width="24" height="24" fill="none" xmlns="http://www.w3.org/2000/svg"><path d="M11.433 1.043c-.426.063-.732.161-1.173.376-1.984.97-2.818 3.34-1.856 5.277a4.076 4.076 0 0 0 2.336 2.018l.24.08.01 6.006.01 6.005-.19-.027c-3.137-.44-5.497-2.061-6.715-4.613a10.314 10.314 0 0 1-.87-2.975L3.202 13h.972c1.123 0 1.254-.025 1.527-.299a.984.984 0 0 0 0-1.402C5.407 11.005 5.371 11 3.5 11s-1.907.005-2.201.299c-.296.295-.35.644-.258 1.641a11.188 11.188 0 0 0 2.31 5.856c.342.443 1.41 1.511 1.853 1.853.57.44 1.298.896 1.935 1.209 3.807 1.875 8.266 1.412 11.657-1.209.443-.342 1.511-1.41 1.853-1.853a11.188 11.188 0 0 0 2.31-5.856c.092-.997.038-1.346-.258-1.641-.294-.294-.33-.299-2.201-.299s-1.907.005-2.201.299a.984.984 0 0 0 0 1.402c.273.274.403.299 1.529.299h.973l-.024.17c-.513 3.703-2.629 6.27-5.989 7.265-.389.116-1.192.288-1.598.344l-.19.026.01-6.005.01-6.006.24-.08a4.174 4.174 0 0 0 1.979-1.433c1.059-1.428 1.003-3.362-.14-4.79-.86-1.075-2.308-1.647-3.666-1.448m.95 2c.578.106 1.157.55 1.41 1.082a2.001 2.001 0 0 1-.354 2.25c-.778.831-2.1.831-2.878 0-.754-.806-.739-2.004.035-2.779.489-.488 1.102-.678 1.787-.553" fill="#667085" fill-rule="evenodd"/></svg>