<svg width="24" height="24" fill="none" xmlns="http://www.w3.org/2000/svg"><path d="M11.34 3.281c-3.828.698-7.122 1.309-7.32 1.358a3.883 3.883 0 0 0-1.741.948c-.686.647-1.083 1.393-1.221 2.293-.08.528-.08 2.708 0 3.241.13.861.536 1.638 1.176 2.247.503.48.952.74 1.459.846.149.032.284.069.298.084.015.015.121 1.344.235 2.954.114 1.611.227 3.027.251 3.148.144.742.8 1.398 1.555 1.556.136.028.82.044 1.9.043 1.364 0 1.737-.012 1.944-.061a2.001 2.001 0 0 0 1.405-1.221c.164-.414.163-.563-.017-2.872-.092-1.191-.158-2.165-.146-2.165.012 0 1.615.29 3.562.645 1.947.355 3.63.645 3.74.645.214-.001 1.208-.321 1.567-.504.521-.267 1.089-.767 1.503-1.324.664-.892 1.237-2.56 1.438-4.182.069-.555.068-2.369-.001-2.92-.162-1.294-.493-2.451-.978-3.42-.367-.735-.793-1.267-1.341-1.679-.434-.325-.694-.464-1.164-.622a4.786 4.786 0 0 1-.537-.211.922.922 0 0 0-.386-.091c-.136-.003-2.908.485-7.181 1.264m7.654.867c.777.369 1.517 1.759 1.824 3.426.386 2.103.113 4.421-.707 6-.367.705-.879 1.234-1.324 1.366-.39.116-.834-.046-1.245-.454-.685-.678-1.189-1.897-1.427-3.454-.104-.679-.127-2.155-.042-2.792.264-1.994.996-3.571 1.881-4.053.377-.205.666-.216 1.04-.039m-3.967.542c-.693 1.592-.964 2.778-1.014 4.45-.054 1.786.24 3.394.89 4.873.077.175.135.322.128.328-.018.016-10.011-1.807-10.405-1.898-.446-.104-.76-.27-1.041-.554a1.838 1.838 0 0 1-.546-1.149c-.049-.465-.049-2.016 0-2.479.091-.86.646-1.47 1.536-1.689.297-.073 10.216-1.905 10.439-1.928.019-.002.025.019.013.046M7.651 15.044c1.272.229 1.393.258 1.408.333.038.186.346 4.512.326 4.566-.02.05-.232.056-1.474.048l-1.45-.011-.03-.2c-.033-.223-.351-4.639-.351-4.877 0-.137.009-.15.09-.131.05.011.716.134 1.481.272" fill="#667085" fill-rule="evenodd"/></svg>