<svg width="24" height="24" fill="none" xmlns="http://www.w3.org/2000/svg"><path d="M17.08 2.064c-.22.058-.71.294-2.229 1.071-1.225.628-2.509 1.115-3.56 1.351-.378.084-.497.088-3.531.114-2.707.023-3.19.036-3.5.094-.87.164-1.502.498-2.121 1.122-.537.541-.857 1.137-1.029 1.919-.087.394-.089.469-.089 2.845-.001 2.417 0 2.443.09 2.752.255.883.861 1.589 1.667 1.944.224.098.604.162.972.163l.25.001v1.916c0 2.098.015 2.282.231 2.795.286.681.891 1.303 1.542 1.586.492.214.676.243 1.507.241.737-.002.797-.008 1.1-.11.506-.17.878-.4 1.239-.765.364-.368.546-.653.705-1.101.174-.492.196-.79.196-2.67V15.59l.25.027c1.209.133 2.528.608 4.574 1.646.75.381 1.479.731 1.62.779.863.294 1.925-.171 2.318-1.015.222-.478.218-.334.218-7.007 0-5.717-.005-6.182-.07-6.459-.098-.421-.245-.697-.513-.961-.496-.489-1.22-.7-1.837-.536m.4 7.996c0 4.79-.01 6.02-.05 6.019-.028 0-.338-.153-.69-.34-1.574-.837-2.41-1.229-3.32-1.559-.683-.247-1.6-.478-2.214-.557-.61-.078-1.84-.083-2.05-.008a.971.971 0 0 0-.545.499l-.111.226-.02 2.503-.02 2.503-.121.196a1.042 1.042 0 0 1-.317.317c-.184.114-.222.122-.675.134-.294.009-.546-.005-.651-.034-.215-.06-.471-.275-.587-.493-.089-.165-.089-.18-.109-2.686-.02-2.498-.021-2.521-.108-2.684a1.22 1.22 0 0 0-.225-.285c-.231-.203-.413-.243-1.205-.268-.668-.02-.733-.029-.93-.125a.834.834 0 0 1-.338-.287c-.111-.161-.131-.233-.164-.587-.048-.512-.01-3.896.048-4.324.061-.441.215-.743.539-1.054.291-.279.561-.419.943-.49.177-.032 1.258-.057 3.38-.077 2.909-.027 3.149-.035 3.55-.111 1.563-.299 2.924-.838 5.21-2.062.396-.212.733-.386.75-.386.016 0 .03 2.709.03 6.02m4.293-2.944c-.212.054-.489.24-.591.396-.183.283-.187.342-.174 2.648.012 2.163.013 2.181.101 2.346.391.731 1.447.706 1.796-.044l.094-.202.001-2.165c0-2.338-.001-2.352-.216-2.633-.196-.258-.691-.427-1.011-.346" fill="#667085" fill-rule="evenodd"/></svg>