<svg width="24" height="24" fill="none" xmlns="http://www.w3.org/2000/svg"><path d="M17.092 1.061c-.239.065-.922.4-1.532.751-1.422.82-2.99 1.485-4.192 1.777l-.428.104-2.54.029c-2.01.022-2.603.041-2.84.088a5.613 5.613 0 0 0-4.08 3.327c-.559 1.31-.63 2.72-.202 4.021.288.878.704 1.565 1.369 2.262.216.226.393.433.393.46 0 .097 1.639 6.867 1.718 7.096.24.694.832 1.376 1.479 1.702.504.255.751.302 1.563.3.696-.001.759-.008 1.06-.109 1.108-.375 1.888-1.299 2.098-2.486.026-.149.042-1.135.042-2.63 0-1.316.013-2.393.03-2.392.1.002.841.177 1.203.284 1.058.314 2.139.791 3.386 1.495 1.297.732 1.741.869 2.319.719.714-.186 1.291-.755 1.459-1.437.065-.266.12-1.105.122-1.864l.001-.622.29-.093a5.516 5.516 0 0 0 1.337-.692 4.6 4.6 0 0 0 .515-6.933 4.627 4.627 0 0 0-1.846-1.144l-.284-.089-.024-1.022c-.037-1.505-.129-1.862-.603-2.339-.509-.512-1.203-.727-1.813-.563m.388 8.399c0 4.705-.012 6.3-.046 6.3-.025 0-.419-.207-.874-.46-2.117-1.175-3.882-1.841-5.31-2.002L11 13.27V5.655l.37-.052c.833-.117 2.126-.505 3.109-.933a24.272 24.272 0 0 0 2.181-1.106c.396-.222.742-.404.77-.404.04 0 .05 1.266.05 6.3M9 9.463v3.664l-1.49-.018c-1.602-.018-1.684-.028-2.286-.256a3.943 3.943 0 0 1-.625-.338c-.751-.502-1.271-1.27-1.507-2.226-.103-.417-.092-1.288.022-1.749a3.589 3.589 0 0 1 2.304-2.546c.465-.16.733-.183 2.252-.189L9 5.8v3.663m10.895-1.941c.86.575 1.246 1.464 1.046 2.408-.12.569-.54 1.144-1.097 1.504a1.758 1.758 0 0 1-.29.166c-.019 0-.034-.963-.034-2.14 0-1.27.015-2.14.037-2.14.02 0 .172.091.338.202M5.78 15.068c.355.105.378.107 1.791.122l1.432.015-.012 2.488c-.011 2.465-.012 2.488-.098 2.649a1.204 1.204 0 0 1-.489.486c-.114.057-.242.072-.624.072-.416 0-.501-.012-.64-.086a1.135 1.135 0 0 1-.478-.502c-.034-.081-.33-1.269-.658-2.64l-.625-2.602c-.015-.06-.012-.11.007-.11.019.001.196.049.394.108" fill="#667085" fill-rule="evenodd"/></svg>