<svg width="24" height="24" fill="none" xmlns="http://www.w3.org/2000/svg"><path d="M5.52 1.725c-.955.11-1.677.462-2.361 1.151-.55.553-.87 1.14-1.047 1.918-.087.383-.088.417-.103 5.106-.015 5.023-.007 5.301.172 5.921.287.99.987 1.857 1.899 2.353.751.408 1.349.505 3.12.506.985.001 1.027.004 1.221.095.248.115.273.144 1.531 1.828.719.963 1.051 1.375 1.171 1.454a1.604 1.604 0 0 0 1.754 0c.12-.079.452-.491 1.171-1.454 1.258-1.684 1.283-1.713 1.531-1.828.194-.091.236-.094 1.221-.095 1.771-.001 2.369-.098 3.12-.506a3.975 3.975 0 0 0 1.899-2.353c.179-.62.187-.898.172-5.921-.015-4.689-.016-4.723-.103-5.106-.177-.778-.497-1.365-1.047-1.918-.703-.707-1.399-1.04-2.416-1.153-.467-.052-12.452-.05-12.905.002m12.94 2.031c.362.072.636.215.905.472.454.433.534.661.597 1.712.062 1.021.028 8.915-.04 9.22-.155.698-.795 1.32-1.483 1.44-.12.021-.786.049-1.479.062-1.483.027-1.736.063-2.26.317-.609.296-.79.479-1.783 1.8-.489.65-.901 1.181-.918 1.181-.016 0-.376-.463-.801-1.03a51.545 51.545 0 0 0-.95-1.241 3.054 3.054 0 0 0-1.628-.943c-.22-.042-.712-.068-1.58-.084-.693-.013-1.359-.041-1.479-.062-.724-.126-1.347-.757-1.489-1.505-.076-.401-.076-9.232 0-9.755.068-.467.19-.727.487-1.036.383-.399.66-.52 1.331-.581.606-.055 12.283-.025 12.57.033m-8.8 2.503c-1.427.261-2.525 1.527-2.609 3.008a3.227 3.227 0 0 0 .637 2.166c.416.567 2.759 2.779 3.282 3.098a1.931 1.931 0 0 0 1.956.063c.449-.24 2.713-2.332 3.258-3.012.311-.388.542-.821.663-1.244.073-.258.09-.42.092-.858.001-.709-.119-1.162-.466-1.752-.171-.292-.749-.87-1.04-1.041-.906-.532-2.08-.496-3.126.094l-.314.177-.351-.239c-.731-.496-1.197-.604-1.982-.46m1.076 1.994a2.3 2.3 0 0 1 .472.341c.309.29.488.374.792.374.304 0 .463-.076.792-.378.367-.337.589-.443.931-.445.326-.002.616.128.892.401.292.287.401.53.401.894 0 .445-.114.65-.69 1.248-.397.412-1.194 1.164-2.098 1.977l-.227.206-.209-.186a36.196 36.196 0 0 1-1.836-1.722c-.87-.87-.972-1.027-.974-1.501-.002-.354.122-.64.396-.913.419-.42.872-.518 1.358-.296" fill="#667085" fill-rule="evenodd"/></svg>