<svg width="24" height="24" fill="none" xmlns="http://www.w3.org/2000/svg"><path d="M3.54 2.04c-1.066.161-2.06.993-2.373 1.986-.154.488-.175.711-.158 1.633.016.824.024.902.123 1.201.144.43.298.685.619 1.025.299.318.608.543.99.721l.256.12.013 4.887c.014 4.779.016 4.895.097 5.247.119.515.285.915.552 1.323.588.903 1.484 1.504 2.568 1.725.329.067.715.072 5.773.072s5.444-.005 5.773-.072a3.927 3.927 0 0 0 1.389-.553 3.963 3.963 0 0 0 1.746-2.568c.059-.292.068-.845.081-5.194l.014-4.867.256-.119c.382-.179.691-.404.99-.722a2.45 2.45 0 0 0 .619-1.025c.1-.3.107-.376.123-1.209.014-.721.004-.951-.05-1.217-.227-1.122-.969-1.933-2.121-2.32l-.28-.094-8.4-.005c-4.62-.003-8.49.008-8.6.025m16.8 2.026c.117.04.263.135.365.237.244.244.295.45.295 1.197 0 .747-.051.953-.295 1.197-.33.33.447.303-8.705.303s-8.375.027-8.705-.303C3.051 6.453 3 6.247 3 5.5c0-.748.051-.953.296-1.198.322-.322-.446-.295 8.687-.299 7.498-.003 8.179.002 8.357.063M19 13.09c0 4.083-.026 5.127-.139 5.561-.142.544-.638 1.05-1.181 1.206-.432.123-1.173.142-5.68.142s-5.248-.019-5.68-.142c-.543-.156-1.039-.662-1.181-1.206C5.026 18.217 5 17.173 5 13.09V9h14v4.09m-9.336-1.027a.993.993 0 0 0-.366 1.637c.303.303.273.3 2.702.3 2.427 0 2.399.003 2.701-.299a.984.984 0 0 0 0-1.402c-.303-.303-.271-.299-2.718-.296-1.773.002-2.191.013-2.319.06" fill="#667085" fill-rule="evenodd"/></svg>