<svg width="24" height="24" fill="none" xmlns="http://www.w3.org/2000/svg"><path d="M11.041 1.045c-1.802.159-3.57.778-5.092 1.782A11.43 11.43 0 0 0 2.842 5.92C.681 9.149.406 13.303 2.12 16.82c.557 1.143 1.168 1.993 2.118 2.942.918.918 2.087 1.772 2.568 1.875a.946.946 0 0 0 .921-.308.946.946 0 0 0 .262-.744c-.041-.398-.198-.605-.689-.908-2.003-1.235-3.483-3.261-4.034-5.52-.185-.759-.243-1.27-.243-2.157 0-1.502.281-2.717.923-4C4.856 6.182 6.182 4.856 8 3.946c1.283-.642 2.498-.923 4-.923 1.502 0 2.717.281 4 .923 1.813.908 3.126 2.219 4.042 4.034.652 1.292.935 2.507.935 4.02 0 1.492-.261 2.64-.896 3.94a9.072 9.072 0 0 1-3.381 3.737c-.349.215-.485.34-.587.538-.432.84.48 1.752 1.333 1.333.821-.403 2.147-1.501 2.932-2.428a10.952 10.952 0 0 0-.558-14.825 10.699 10.699 0 0 0-2.601-1.967 11.058 11.058 0 0 0-6.178-1.283m.599 6.023c-.154.053-.488.369-2.311 2.187-1.516 1.511-2.156 2.176-2.217 2.301a.99.99 0 0 0 .186 1.144c.279.28.656.364 1.045.234.174-.057.342-.21 1.427-1.288L11 10.423v5.861c0 6.585-.023 6.095.299 6.417a.984.984 0 0 0 1.402 0c.322-.322.299.168.299-6.417v-5.861l1.23 1.223c1.085 1.078 1.253 1.231 1.427 1.288.389.13.766.046 1.045-.234a.99.99 0 0 0 .186-1.144c-.061-.125-.701-.79-2.217-2.301-1.924-1.919-2.15-2.131-2.328-2.19a1.053 1.053 0 0 0-.703.003" fill="#667085" fill-rule="evenodd"/></svg>