<svg width="24" height="24" fill="none" xmlns="http://www.w3.org/2000/svg"><path d="M11.041 1.042c-2.647.255-4.977 1.357-6.843 3.233-1.682 1.693-2.712 3.742-3.086 6.145-.073.467-.087.73-.087 1.58 0 .85.014 1.113.087 1.58.378 2.425 1.41 4.467 3.125 6.183 1.204 1.203 2.47 2.013 4.036 2.581a11.016 11.016 0 0 0 10.207-1.458c.732-.536 1.641-1.412 2.165-2.086.34-.438.769-1.081.903-1.354.246-.5.055-1.07-.448-1.338-.212-.113-.656-.119-.86-.012-.226.119-.309.214-.699.804-.952 1.438-2.117 2.465-3.633 3.203-3.003 1.462-6.625 1.111-9.309-.902-1.898-1.423-3.131-3.506-3.505-5.921-.098-.635-.098-1.925 0-2.56.158-1.018.421-1.86.852-2.72C4.856 6.182 6.182 4.856 8 3.946c1.283-.642 2.498-.923 4-.923 1.492 0 2.64.261 3.94.896 1.475.719 2.673 1.778 3.601 3.181.39.59.473.685.699.804.204.107.648.101.86-.012.503-.268.694-.838.448-1.338-.284-.578-.971-1.492-1.647-2.19a10.877 10.877 0 0 0-6.321-3.243c-.647-.096-1.947-.137-2.539-.079m.599 6.026c-.154.053-.488.369-2.311 2.187-1.516 1.511-2.156 2.176-2.217 2.301a1.018 1.018 0 0 0-.052.77c.065.201.198.342 2.195 2.345 1.511 1.516 2.176 2.156 2.301 2.217a.99.99 0 0 0 1.144-.186c.28-.279.364-.656.234-1.045-.057-.174-.21-.342-1.288-1.427L10.423 13h5.861c6.585 0 6.095.023 6.417-.299a.984.984 0 0 0 0-1.402c-.322-.322.168-.299-6.417-.299h-5.861l1.223-1.23c1.078-1.085 1.231-1.253 1.288-1.427.13-.389.045-.766-.233-1.044a1.005 1.005 0 0 0-1.061-.231" fill="#667085" fill-rule="evenodd"/></svg>