<svg width="24" height="24" fill="none" xmlns="http://www.w3.org/2000/svg"><path d="M11.07 1.04a11.057 11.057 0 0 0-5.707 2.19c-.899.671-2.03 1.897-2.658 2.881-1.492 2.338-2.043 5.325-1.488 8.056.158.778.203.897.421 1.115.188.188.475.318.702.318.18 0 .49-.124.647-.258.336-.288.409-.643.26-1.265-.168-.701-.224-1.219-.224-2.077 0-1.491.261-2.638.895-3.94a9.003 9.003 0 0 1 6.342-4.894 9.361 9.361 0 0 1 3.915.094c1.807.449 3.541 1.532 4.715 2.948a9.155 9.155 0 0 1 2.018 4.436c.095.582.095 2.129 0 2.711a8.573 8.573 0 0 1-.828 2.585 8.403 8.403 0 0 1-1.722 2.418 8.532 8.532 0 0 1-2.365 1.7 9.013 9.013 0 0 1-6.051.703 3.073 3.073 0 0 0-.554-.081c-.604.002-1.076.574-.955 1.157.101.481.367.708 1.011.862.91.218 1.45.277 2.536.277 1.095.001 1.548-.046 2.46-.254 2.078-.475 3.789-1.426 5.322-2.96 1.334-1.334 2.189-2.735 2.734-4.482.363-1.164.482-1.98.48-3.3-.001-1.134-.072-1.731-.314-2.674-.38-1.474-1.079-2.916-1.96-4.041-1.782-2.275-4.26-3.717-7.122-4.144-.642-.096-1.895-.136-2.51-.081M8.665 8.059c-.679.242-.877 1.131-.367 1.641.299.299.306.3 2.419.3h1.862l-4.225 4.23c-3.874 3.879-4.23 4.246-4.289 4.427-.128.39-.044.766.234 1.044s.654.362 1.044.234c.181-.059.548-.415 4.427-4.289L14 11.421v1.862c0 2.113.001 2.12.3 2.419.31.31.768.378 1.169.172.216-.112.428-.365.489-.585.027-.097.042-1.263.042-3.332V8.774l-.11-.217c-.123-.241-.366-.45-.601-.515-.097-.027-1.25-.041-3.309-.04-2.583.001-3.188.012-3.315.057" fill="#667085" fill-rule="evenodd"/></svg>