<svg width="24" height="24" fill="none" xmlns="http://www.w3.org/2000/svg"><path d="M17.64 5.068c-.157.053-.844.725-5.41 5.286L7 15.579v-2.862c0-3.228.01-3.109-.299-3.418a.984.984 0 0 0-1.402 0C4.982 9.616 5 9.337 5 14c0 4.663-.018 4.384.299 4.701.317.317.038.299 4.701.299 4.663 0 4.384.018 4.701-.299a.984.984 0 0 0 0-1.402c-.309-.309-.19-.299-3.418-.299H8.421l5.225-5.23c4.805-4.81 5.23-5.246 5.289-5.427.128-.39.044-.766-.234-1.044a1.006 1.006 0 0 0-1.061-.231" fill="#667085" fill-rule="evenodd"/></svg>