<svg width="24" height="24" fill="none" xmlns="http://www.w3.org/2000/svg"><path d="M5.643 5.069a1.118 1.118 0 0 0-.343.229C4.982 5.616 5 5.336 5 10c0 4.663-.018 4.384.299 4.701a.984.984 0 0 0 1.402 0c.309-.309.299-.19.299-3.418V8.421l5.23 5.225c4.81 4.805 5.246 5.23 5.427 5.289.39.128.766.044 1.044-.234s.362-.654.234-1.044c-.059-.181-.484-.617-5.289-5.427L8.421 7h2.862c3.228 0 3.109.01 3.418-.299a.984.984 0 0 0 0-1.402c-.317-.317-.035-.299-4.718-.296-3.663.003-4.184.011-4.34.066" fill="#667085" fill-rule="evenodd"/></svg>