<svg width="24" height="24" fill="none" xmlns="http://www.w3.org/2000/svg"><path d="M11.041 1.045c-1.47.13-2.98.585-4.26 1.283-.985.538-1.77 1.13-2.583 1.947-1.682 1.693-2.712 3.742-3.086 6.145-.073.467-.087.73-.087 1.58 0 .85.014 1.113.087 1.58.378 2.425 1.41 4.467 3.125 6.183 1.716 1.715 3.758 2.747 6.183 3.125.809.126 2.351.126 3.16 0 2.413-.376 4.471-1.417 6.181-3.127.923-.923 1.563-1.811 2.116-2.941a10.92 10.92 0 0 0 0-9.64 11.163 11.163 0 0 0-3.826-4.353 11.032 11.032 0 0 0-7.01-1.782m2.279 2.057a9.023 9.023 0 0 1 5.664 3.218c.816 1.005 1.483 2.358 1.771 3.6.167.718.222 1.229.222 2.08 0 1.511-.264 2.654-.917 3.98-.896 1.818-2.252 3.179-4.067 4.079a8.986 8.986 0 0 1-6.453.597C7.08 19.955 5.103 18.309 3.946 16c-.642-1.283-.923-2.498-.923-4 0-1.502.281-2.717.923-4 .91-1.819 2.235-3.143 4.056-4.055 1.025-.514 2.001-.783 3.338-.921.324-.033 1.573.016 1.98.078m-1.677 3.967C11.291 7.193 11 7.614 11 8c0 .08.03.234.066.343.057.174.21.342 1.288 1.427L13.577 11h-2.861c-3.227 0-3.108-.01-3.417.299a.984.984 0 0 0 0 1.402c.309.309.19.299 3.417.299h2.861l-1.223 1.23c-1.078 1.085-1.231 1.253-1.288 1.427-.13.389-.045.766.233 1.044s.654.363 1.044.234c.178-.059.404-.271 2.328-2.19 1.474-1.47 2.157-2.177 2.214-2.295a1.115 1.115 0 0 0-.015-.91c-.077-.148-.649-.743-2.217-2.305-1.907-1.899-2.132-2.111-2.31-2.17a1.032 1.032 0 0 0-.7.004" fill="#667085" fill-rule="evenodd"/></svg>