<svg width="24" height="24" fill="none" xmlns="http://www.w3.org/2000/svg"><path d="M11.069 1.042A11.015 11.015 0 0 0 2.76 6.025c-.365.558-.907 1.659-1.12 2.275a12.573 12.573 0 0 0-.526 2.106c-.119.767-.129 2.318-.02 3.054.236 1.597.775 3.095 1.569 4.36.825 1.314 2.144 2.643 3.448 3.475 1.271.811 2.824 1.376 4.429 1.612.729.107 2.293.098 3.028-.017.845-.132 1.402-.277 1.589-.413a.99.99 0 0 0 .39-1.077c-.172-.587-.696-.832-1.407-.658-.884.216-2.09.307-2.96.222a9.014 9.014 0 0 1-5.539-2.606A8.438 8.438 0 0 1 3.92 15.94a8.573 8.573 0 0 1-.828-2.585c-.095-.582-.095-2.129 0-2.711.366-2.245 1.501-4.221 3.237-5.636A9.39 9.39 0 0 1 9.825 3.26c.772-.192 1.171-.236 2.155-.238.987-.002 1.397.043 2.2.242a9.3 9.3 0 0 1 3.479 1.739c1.491 1.201 2.623 2.983 3.074 4.837.344 1.412.346 2.746.007 4.3-.078.359-.089.477-.057.639.104.543.662.909 1.191.782a1.08 1.08 0 0 0 .624-.431c.118-.179.27-.78.39-1.55.127-.804.126-2.346 0-3.16-.363-2.332-1.372-4.387-2.959-6.025-.764-.789-1.397-1.297-2.289-1.836-1.91-1.154-4.339-1.715-6.571-1.517M8.665 8.059a1.01 1.01 0 0 0-.555.5L8 8.774v3.183c0 2.069.015 3.235.042 3.332.061.22.273.473.489.585a.978.978 0 0 0 1.172-.179c.297-.306.297-.305.297-2.412v-1.862l4.23 4.225c3.879 3.874 4.246 4.23 4.427 4.289.39.128.766.044 1.044-.234s.362-.654.234-1.044c-.059-.181-.415-.548-4.289-4.427L11.421 10h1.862c2.113 0 2.12-.001 2.419-.3a.987.987 0 0 0 .172-1.169 1.065 1.065 0 0 0-.585-.489c-.097-.027-1.25-.041-3.309-.04-2.583.001-3.188.012-3.315.057" fill="#667085" fill-rule="evenodd"/></svg>