<svg width="24" height="24" fill="none" xmlns="http://www.w3.org/2000/svg"><path d="M13.643 4.069a1.066 1.066 0 0 0-.577.591c-.057.168-.066.408-.066 1.767v1.572l-4.93.01-4.93.011-.229.107a1.67 1.67 0 0 0-.761.748l-.13.263v5.724l.13.263c.156.317.442.598.761.748l.229.107 4.93.011 4.93.01v1.572c0 1.785.005 1.821.297 2.122a.978.978 0 0 0 1.147.192c.127-.061 1.177-1.087 3.801-3.716 3.448-3.453 3.629-3.642 3.695-3.845a1.013 1.013 0 0 0-.053-.77c-.061-.127-1.087-1.176-3.716-3.801-3.321-3.316-3.648-3.631-3.828-3.69a1.038 1.038 0 0 0-.7.004M17.3 14.28l-2.28 2.281-.02-.931c-.02-.928-.02-.93-.131-1.119a1.19 1.19 0 0 0-.243-.289c-.306-.233-.023-.222-5.551-.222H4v-4h5.075c5.528 0 5.245.011 5.551-.222a1.19 1.19 0 0 0 .243-.289l.111-.189.013-.937.012-.937 2.288 2.287L19.58 12l-2.28 2.28" fill="#667085" fill-rule="evenodd"/></svg>