<svg width="24" height="24" fill="none" xmlns="http://www.w3.org/2000/svg"><path d="M11.643 3.069a1.118 1.118 0 0 0-.343.229c-.325.325-.3-.289-.3 7.418v6.862l-2.23-2.224c-2.017-2.011-2.249-2.23-2.427-2.289-.39-.129-.766-.044-1.045.235a.986.986 0 0 0-.185 1.144c.061.127.958 1.047 3.216 3.301 2.855 2.85 3.148 3.131 3.328 3.19.109.036.263.065.343.065.08 0 .234-.029.343-.065.18-.059.473-.34 3.328-3.19 2.258-2.254 3.155-3.174 3.216-3.301a.986.986 0 0 0-.185-1.144c-.279-.279-.655-.364-1.045-.235-.178.059-.41.278-2.427 2.289L13 17.578v-6.862c0-7.705.025-7.093-.299-7.417a.998.998 0 0 0-1.058-.23" fill="#667085" fill-rule="evenodd"/></svg>