<svg width="24" height="24" fill="none" xmlns="http://www.w3.org/2000/svg"><path d="M11.64 4.068c-.156.053-.66.541-3.811 3.687-2.629 2.624-3.655 3.674-3.716 3.801a1.013 1.013 0 0 0-.053.77c.066.203.247.392 3.695 3.845 2.624 2.629 3.674 3.655 3.801 3.716a.986.986 0 0 0 1.144-.185c.279-.279.364-.655.235-1.045-.059-.179-.312-.445-2.789-2.927L7.421 13h5.863c6.585 0 6.095.023 6.417-.299a.984.984 0 0 0 0-1.402c-.322-.322.168-.299-6.417-.299H7.421l2.725-2.73c2.477-2.482 2.73-2.748 2.789-2.927.129-.39.044-.766-.234-1.044a1.006 1.006 0 0 0-1.061-.231" fill="#667085" fill-rule="evenodd"/></svg>