<svg width="24" height="24" fill="none" xmlns="http://www.w3.org/2000/svg"><path d="M11.043 1.041c-2.298.223-4.432 1.112-6.145 2.561A14.294 14.294 0 0 0 3.323 5.24a10.94 10.94 0 0 0-2.31 6.4c-.063 1.834.305 3.543 1.126 5.22 1.537 3.142 4.482 5.352 7.961 5.975 2.614.467 5.474-.088 7.72-1.498 1.314-.825 2.643-2.144 3.475-3.448.811-1.271 1.376-2.824 1.612-4.429.108-.736.098-2.293-.019-3.04-.12-.769-.272-1.371-.39-1.55-.364-.551-1.178-.602-1.6-.1-.228.271-.273.531-.172 1.006.22 1.045.297 1.803.26 2.578-.064 1.331-.341 2.43-.904 3.586a8.737 8.737 0 0 1-1.764 2.461c-1.305 1.301-2.907 2.13-4.798 2.482-.582.108-1.871.149-2.484.079-2.315-.266-4.437-1.394-5.899-3.137a9.117 9.117 0 0 1-2.046-4.474c-.094-.577-.094-2.127.001-2.706A9.05 9.05 0 0 1 5.62 5.662a8.97 8.97 0 0 1 5.066-2.56c1.108-.162 2.372-.107 3.374.147.607.154.994.075 1.282-.262.134-.157.258-.467.258-.647 0-.17-.12-.483-.243-.631-.232-.281-.659-.422-1.797-.591-.626-.093-1.937-.133-2.517-.077m7.617 3.025c-.188.056-.454.314-4.43 4.287L10 12.579v-1.864c0-2.015-.003-2.047-.218-2.329-.128-.167-.439-.339-.672-.371a1.105 1.105 0 0 0-.756.224 1.174 1.174 0 0 0-.25.329L8 8.776v3.222l.001 3.222.094.2c.114.24.263.387.505.497.176.08.247.081 3.36.082 2.07 0 3.232-.014 3.329-.041.22-.061.473-.273.585-.489a.973.973 0 0 0-.404-1.333l-.21-.116-1.918-.011-1.918-.012 4.223-4.228c3.873-3.878 4.229-4.245 4.288-4.426C19.971 5.234 20 5.08 20 5c0-.412-.3-.824-.684-.937-.256-.077-.395-.076-.656.003" fill="#667085" fill-rule="evenodd"/></svg>