<svg width="24" height="24" fill="none" xmlns="http://www.w3.org/2000/svg"><path d="M13.643 5.069C13.291 5.193 13 5.614 13 6c0 .08.029.234.065.343.059.178.278.41 2.289 2.427L17.578 11h-6.862c-7.705 0-7.093-.025-7.417.299a.984.984 0 0 0 0 1.402c.324.324-.288.299 7.417.299h6.862l-2.224 2.23c-2.011 2.017-2.23 2.249-2.289 2.427-.129.39-.044.766.234 1.044s.654.362 1.044.234c.18-.059.473-.34 3.328-3.19 2.196-2.192 3.156-3.176 3.214-3.295a1.115 1.115 0 0 0-.015-.91c-.078-.151-.873-.967-3.217-3.305-2.838-2.831-3.13-3.111-3.31-3.17a1.038 1.038 0 0 0-.7.004" fill="#667085" fill-rule="evenodd"/></svg>