<svg width="24" height="24" fill="none" xmlns="http://www.w3.org/2000/svg"><path d="M11.64 2.068c-.156.053-.659.539-3.793 3.667C5.86 7.718 4.19 9.416 4.135 9.508a.99.99 0 0 0 .17 1.195c.301.292.337.297 2.122.297h1.572l.01 4.93.011 4.93.107.229c.15.319.431.605.748.761l.263.13h5.724l.263-.13a1.67 1.67 0 0 0 .748-.761l.107-.229.011-4.93.01-4.93h1.572c1.785 0 1.821-.005 2.122-.297a.99.99 0 0 0 .17-1.195c-.055-.092-1.725-1.79-3.712-3.773-3.303-3.296-3.63-3.611-3.81-3.67a1.06 1.06 0 0 0-.703.003m2.657 4.649 2.277 2.278-.937.012-.937.013-.189.111a1.038 1.038 0 0 0-.454.539c-.044.122-.054 1.092-.055 5.24L14 20h-4l-.002-5.09c-.001-4.148-.011-5.118-.055-5.24a1.038 1.038 0 0 0-.454-.539L9.3 9.02l-.937-.013-.937-.012 2.277-2.278A187.55 187.55 0 0 1 12 4.44c.011 0 1.045 1.025 2.297 2.277" fill="#667085" fill-rule="evenodd"/></svg>