<svg width="24" height="24" fill="none" xmlns="http://www.w3.org/2000/svg"><path d="M9.64 4.068c-.156.053-.66.541-3.811 3.687-2.629 2.624-3.655 3.674-3.716 3.801a1.013 1.013 0 0 0-.053.77c.066.203.247.392 3.695 3.845 2.624 2.629 3.674 3.655 3.801 3.716a.978.978 0 0 0 1.147-.192c.292-.301.297-.337.297-2.122v-1.572l4.931-.01 4.931-.011.263-.13a1.67 1.67 0 0 0 .748-.761l.107-.229V9.138l-.13-.263a1.67 1.67 0 0 0-.761-.748l-.229-.107-4.93-.011-4.93-.01V6.427c0-1.788-.005-1.821-.3-2.125-.271-.278-.671-.367-1.06-.234m-.509 5.421c.125.213.318.375.539.454.122.044 1.092.054 5.24.055L20 10v4h-5.075c-5.528 0-5.245-.011-5.551.222a1.19 1.19 0 0 0-.243.289c-.111.189-.111.191-.131 1.119l-.02.931L6.7 14.28 4.42 12 6.7 9.72l2.28-2.281.02.931c.02.928.02.93.131 1.119" fill="#667085" fill-rule="evenodd"/></svg>