<svg width="24" height="24" fill="none" xmlns="http://www.w3.org/2000/svg"><path d="M5.692 2.043c-.839.077-1.499.324-2.126.797-.698.526-1.233 1.341-1.424 2.166-.138.595-.147 1.089-.132 7.314.014 5.55.021 6.171.082 6.467.199.969.73 1.824 1.48 2.384.539.402.985.601 1.656.737.33.067.756.072 6.772.072 6.031 0 6.441-.004 6.775-.072 1.635-.333 2.8-1.498 3.133-3.133.068-.334.072-.744.072-6.775 0-7.126.016-6.686-.263-7.456-.371-1.024-1.365-1.978-2.417-2.317-.642-.208-.406-.201-7.06-.209-3.399-.005-6.345.007-6.548.025M17.78 4.04c.352.021.743.066.87.099.555.145 1.069.659 1.21 1.21.119.463.139 1.416.139 6.631.001 5.203-.021 6.26-.136 6.691-.105.393-.455.821-.872 1.065-.415.243-.25.237-6.611.253-5.845.016-6.565.003-7.051-.126-.531-.141-1.048-.668-1.19-1.213-.116-.443-.138-1.526-.138-6.65 0-5.135.022-6.207.139-6.654.103-.394.412-.789.819-1.046.232-.146.577-.223 1.156-.258.761-.046 10.919-.048 11.665-.002M8.667 8.065c-.402.123-.699.584-.658 1.018.038.395.344.776.702.875.093.026.851.042 2.008.042h1.859l-2.224 2.23c-2.011 2.017-2.23 2.249-2.289 2.427-.16.483.016.959.446 1.212.162.095.232.111.489.11.212 0 .341-.022.44-.074.077-.04 1.135-1.066 2.35-2.279L14 11.421v1.864c0 2.02.003 2.054.222 2.341.055.073.186.182.289.243.161.095.233.111.489.111.257 0 .327-.016.492-.113.218-.128.409-.369.469-.591.027-.099.037-1.271.03-3.364L15.98 8.7l-.111-.189a.962.962 0 0 0-.574-.454c-.285-.086-6.346-.079-6.628.008" fill="#667085" fill-rule="evenodd"/></svg>