<svg width="24" height="24" fill="none" xmlns="http://www.w3.org/2000/svg"><path d="M5.692 2.043c-.839.077-1.499.324-2.126.797-.698.526-1.233 1.341-1.424 2.166-.138.595-.147 1.089-.132 7.314.014 5.55.021 6.171.082 6.467.199.969.73 1.824 1.48 2.384.539.402.985.601 1.656.737.33.067.756.072 6.772.072 6.031 0 6.441-.004 6.775-.072 1.635-.333 2.8-1.498 3.133-3.133.068-.334.072-.744.072-6.775 0-7.126.016-6.686-.263-7.456-.371-1.024-1.365-1.978-2.417-2.317-.642-.208-.406-.201-7.06-.209-3.399-.005-6.345.007-6.548.025M17.78 4.04c.352.021.743.066.87.099.555.145 1.069.659 1.21 1.21.119.463.139 1.416.139 6.631.001 5.203-.021 6.26-.136 6.691-.105.393-.455.821-.872 1.065-.415.243-.25.237-6.611.253-5.845.016-6.565.003-7.051-.126-.531-.141-1.048-.668-1.19-1.213-.116-.443-.138-1.526-.138-6.65 0-5.135.022-6.207.139-6.654.103-.394.412-.789.819-1.046.232-.146.577-.223 1.156-.258.761-.046 10.919-.048 11.665-.002M8.673 8.063c-.25.077-.52.343-.607.596a.97.97 0 0 0-.001.684c.059.178.278.41 2.289 2.427L12.578 14h-1.842c-2.11 0-2.142.004-2.434.296a.985.985 0 0 0-.176 1.173c.112.216.365.428.585.489.097.027 1.25.041 3.309.04 2.536-.001 3.19-.012 3.31-.055a.921.921 0 0 0 .537-.493l.113-.23V8.7l-.113-.192c-.396-.674-1.391-.656-1.745.031l-.102.199-.011 1.919-.011 1.919-2.229-2.224C9.62 8.207 9.532 8.125 9.323 8.063c-.262-.076-.403-.076-.65 0" fill="#667085" fill-rule="evenodd"/></svg>