<svg width="24" height="24" fill="none" xmlns="http://www.w3.org/2000/svg"><path d="M12.64 2.068c-.154.053-.488.369-2.311 2.187-1.516 1.511-2.156 2.176-2.217 2.301a1.018 1.018 0 0 0-.052.77c.065.201.198.342 2.195 2.345 1.511 1.516 2.176 2.156 2.301 2.217a.99.99 0 0 0 1.144-.186c.28-.279.364-.656.234-1.045-.057-.174-.21-.342-1.288-1.427L11.423 8h4.361c4.905 0 4.6.019 4.917-.299a.984.984 0 0 0 0-1.402C20.384 5.981 20.689 6 15.784 6h-4.361l1.223-1.23c1.078-1.085 1.231-1.253 1.288-1.427.13-.389.045-.766-.233-1.044a1.005 1.005 0 0 0-1.061-.231m-5 10c-.154.053-.488.369-2.311 2.187-1.516 1.511-2.156 2.176-2.217 2.301a1.018 1.018 0 0 0-.052.77c.065.201.198.342 2.195 2.345 1.511 1.516 2.176 2.156 2.301 2.217a.99.99 0 0 0 1.144-.186c.28-.279.364-.656.234-1.045-.057-.174-.21-.342-1.288-1.427L6.423 18h6.861c7.705 0 7.093.025 7.417-.299a.984.984 0 0 0 0-1.402c-.324-.324.288-.299-7.417-.299H6.423l1.223-1.23c1.078-1.085 1.231-1.253 1.288-1.427.13-.389.045-.766-.233-1.044a1.005 1.005 0 0 0-1.061-.231" fill="#667085" fill-rule="evenodd"/></svg>