<svg width="24" height="24" fill="none" xmlns="http://www.w3.org/2000/svg"><path d="M6.643 6.069C6.291 6.193 6 6.614 6 7c0 .242.119.521.299.701.315.315.072.299 4.418.299h3.862l-4.225 4.23c-3.874 3.879-4.23 4.246-4.289 4.427-.128.39-.044.766.234 1.044s.654.362 1.044.234c.181-.059.548-.415 4.427-4.289L16 9.421v3.862c0 4.346-.016 4.103.299 4.418a.984.984 0 0 0 1.403-.001c.321-.321.301.086.289-5.763L17.98 6.74l-.094-.19a1.094 1.094 0 0 0-.237-.309c-.309-.255.008-.241-5.666-.238-4.569.003-5.183.01-5.34.066" fill="#667085" fill-rule="evenodd"/></svg>