<svg width="24" height="24" fill="none" xmlns="http://www.w3.org/2000/svg"><path d="M9.643 5.069C9.291 5.193 9 5.614 9 6c0 .242.119.521.299.701.309.309.19.299 3.418.299h2.862l-5.225 5.23c-4.805 4.81-5.23 5.246-5.289 5.427-.128.39-.044.766.234 1.044s.654.362 1.044.234c.181-.059.617-.484 5.427-5.289L17 8.421v2.862c0 3.228-.01 3.109.299 3.418a.984.984 0 0 0 1.403-.001c.318-.318.301-.034.289-4.763L18.98 5.74l-.109-.208a1.14 1.14 0 0 0-.243-.309c-.306-.233-.107-.223-4.643-.22-3.665.003-4.186.011-4.342.066" fill="#667085" fill-rule="evenodd"/></svg>