<svg width="24" height="24" fill="none" xmlns="http://www.w3.org/2000/svg"><path d="M5.692 2.043c-.839.077-1.499.324-2.126.797-.698.526-1.233 1.341-1.424 2.166-.138.595-.147 1.089-.132 7.314.014 5.55.021 6.171.082 6.467.199.969.73 1.824 1.48 2.384.539.402.985.601 1.656.737.33.067.756.072 6.772.072 6.031 0 6.441-.004 6.775-.072 1.635-.333 2.8-1.498 3.133-3.133.068-.334.072-.744.072-6.775 0-7.126.016-6.686-.263-7.456-.371-1.024-1.365-1.978-2.417-2.317-.642-.208-.406-.201-7.06-.209-3.399-.005-6.345.007-6.548.025M17.78 4.04c.352.021.743.066.87.099.555.145 1.069.659 1.21 1.21.119.463.139 1.416.139 6.631.001 5.203-.021 6.26-.136 6.691-.105.393-.455.821-.872 1.065-.415.243-.25.237-6.611.253-5.845.016-6.565.003-7.051-.126-.531-.141-1.048-.668-1.19-1.213-.116-.443-.138-1.526-.138-6.65 0-5.135.022-6.207.139-6.654.103-.394.412-.789.819-1.046.232-.146.577-.223 1.156-.258.761-.046 10.919-.048 11.665-.002m-6.113 3.023c-.252.08-.513.339-.601.597-.059.174-.066.497-.066 3.056v2.861l-1.23-1.225c-1.161-1.156-1.242-1.228-1.447-1.288-.27-.079-.375-.08-.633-.003-.385.114-.69.529-.69.939 0 .08.029.234.065.343.059.178.271.403 2.17 2.31 1.173 1.177 2.185 2.16 2.285 2.22.153.091.225.107.48.106.212 0 .341-.022.44-.074.186-.097 4.297-4.197 4.425-4.413a1.06 1.06 0 0 0 .122-.38c.075-.727-.579-1.259-1.291-1.053-.23.067-.268.101-1.466 1.293L13 13.576v-2.858c0-1.845-.015-2.911-.042-3.007-.142-.512-.755-.82-1.291-.648" fill="#667085" fill-rule="evenodd"/></svg>