<svg width="24" height="24" fill="none" xmlns="http://www.w3.org/2000/svg"><path d="M5.692 2.043c-.839.077-1.499.324-2.126.797-.698.526-1.233 1.341-1.424 2.166-.138.595-.147 1.089-.132 7.314.014 5.55.021 6.171.082 6.467.199.969.73 1.824 1.48 2.384.539.402.985.601 1.656.737.33.067.756.072 6.772.072 6.031 0 6.441-.004 6.775-.072 1.635-.333 2.8-1.498 3.133-3.133.068-.334.072-.744.072-6.775 0-7.126.016-6.686-.263-7.456-.371-1.024-1.365-1.978-2.417-2.317-.642-.208-.406-.201-7.06-.209-3.399-.005-6.345.007-6.548.025M17.78 4.04c.352.021.743.066.87.099.555.145 1.069.659 1.21 1.21.119.463.139 1.416.139 6.631.001 5.203-.021 6.26-.136 6.691-.105.393-.455.821-.872 1.065-.415.243-.25.237-6.611.253-5.845.016-6.565.003-7.051-.126-.531-.141-1.048-.668-1.19-1.213-.116-.443-.138-1.526-.138-6.65 0-5.135.022-6.207.139-6.654.103-.394.412-.789.819-1.046.232-.146.577-.223 1.156-.258.761-.046 10.919-.048 11.665-.002m-6.12 3.026c-.185.056-.357.218-2.331 2.187-1.5 1.497-2.156 2.178-2.216 2.301a.998.998 0 0 0 .395 1.313c.165.097.234.113.492.112.213 0 .341-.022.44-.074.077-.041.685-.616 1.35-1.279L11 10.422v2.864c0 3.11-.004 3.043.222 3.34.055.073.186.182.289.243.161.095.233.111.489.111s.328-.016.489-.111c.213-.125.375-.318.454-.539.043-.12.054-.729.055-3.029L13 10.422l1.21 1.204c.666.663 1.273 1.238 1.35 1.279.099.052.227.074.44.074.258.001.327-.015.492-.112.476-.28.646-.899.374-1.359-.055-.092-1.051-1.116-2.213-2.275-2.034-2.027-2.121-2.108-2.33-2.17a.968.968 0 0 0-.663.003" fill="#667085" fill-rule="evenodd"/></svg>