<svg width="24" height="24" fill="none" xmlns="http://www.w3.org/2000/svg"><path d="M6.643 6.069a1.118 1.118 0 0 0-.343.229C5.979 6.619 6 6.216 6 12c0 5.783-.021 5.381.299 5.701a.984.984 0 0 0 1.402 0c.315-.315.299-.072.299-4.418V9.421l4.23 4.225c3.879 3.874 4.246 4.23 4.427 4.289.39.128.766.044 1.044-.234s.362-.654.234-1.044c-.059-.181-.415-.548-4.289-4.427L9.421 8h3.862c4.346 0 4.103.016 4.418-.299a.984.984 0 0 0 0-1.402c-.32-.32.085-.299-5.718-.296-4.569.003-5.183.01-5.34.066" fill="#667085" fill-rule="evenodd"/></svg>