<svg width="24" height="24" fill="none" xmlns="http://www.w3.org/2000/svg"><path d="M11.64 3.068c-.156.053-.603.483-3.311 3.187-2.258 2.253-3.155 3.174-3.216 3.301a.986.986 0 0 0 .185 1.144c.279.279.655.364 1.045.235.178-.059.41-.278 2.427-2.289L11 6.422v6.862c0 7.705-.025 7.093.299 7.417a.984.984 0 0 0 1.402 0c.324-.324.299.288.299-7.417V6.422l2.23 2.224c2.017 2.011 2.249 2.23 2.427 2.289.39.129.766.044 1.045-.235a.986.986 0 0 0 .185-1.144c-.061-.127-.958-1.047-3.216-3.301-2.855-2.85-3.148-3.131-3.328-3.19a1.053 1.053 0 0 0-.703.003" fill="#667085" fill-rule="evenodd"/></svg>