<svg width="24" height="24" fill="none" xmlns="http://www.w3.org/2000/svg"><path d="M5.692 2.043c-.839.077-1.499.324-2.126.797-.698.526-1.233 1.341-1.424 2.166-.138.595-.147 1.089-.132 7.314.014 5.55.021 6.171.082 6.467.199.969.73 1.824 1.48 2.384.539.402.985.601 1.656.737.33.067.756.072 6.772.072 6.031 0 6.441-.004 6.775-.072 1.635-.333 2.8-1.498 3.133-3.133.068-.334.072-.744.072-6.775 0-7.126.016-6.686-.263-7.456-.371-1.024-1.365-1.978-2.417-2.317-.642-.208-.406-.201-7.06-.209-3.399-.005-6.345.007-6.548.025M17.78 4.04c.352.021.743.066.87.099.555.145 1.069.659 1.21 1.21.119.463.139 1.416.139 6.631.001 5.203-.021 6.26-.136 6.691-.105.393-.455.821-.872 1.065-.415.243-.25.237-6.611.253-5.845.016-6.565.003-7.051-.126-.531-.141-1.048-.668-1.19-1.213-.116-.443-.138-1.526-.138-6.65 0-5.135.022-6.207.139-6.654.103-.394.412-.789.819-1.046.232-.146.577-.223 1.156-.258.761-.046 10.919-.048 11.665-.002M8.667 8.063c-.252.08-.513.339-.601.597-.059.174-.066.517-.066 3.342 0 3.42-.006 3.326.222 3.624.055.073.186.182.289.243l.189.111 3.212.011c2.093.007 3.265-.003 3.364-.03.222-.06.463-.251.591-.469.097-.165.113-.235.113-.492 0-.256-.016-.328-.111-.489a1.24 1.24 0 0 0-.248-.293c-.275-.21-.361-.218-2.357-.218h-1.843l2.205-2.21c1.213-1.215 2.236-2.271 2.273-2.345.037-.073.077-.226.089-.34.074-.719-.582-1.251-1.292-1.046-.235.067-.25.082-2.466 2.293L10 12.578v-1.859c0-1.157-.016-1.915-.042-2.008-.142-.512-.755-.82-1.291-.648" fill="#667085" fill-rule="evenodd"/></svg>