<svg width="24" height="24" fill="none" xmlns="http://www.w3.org/2000/svg"><path d="M11.643 1.069a1.118 1.118 0 0 0-.343.229c-.323.323-.3-.168-.3 6.418v5.861l-1.23-1.223c-1.085-1.078-1.253-1.231-1.427-1.288-.389-.13-.766-.046-1.045.234a.99.99 0 0 0-.186 1.144c.061.125.701.79 2.217 2.301 2.003 1.997 2.144 2.13 2.345 2.195.261.084.526.066.77-.052.125-.061.79-.701 2.301-2.217 1.919-1.924 2.131-2.15 2.19-2.328.129-.39.044-.766-.234-1.044s-.655-.363-1.044-.233c-.174.057-.342.21-1.427 1.288L13 13.577V7.716c0-6.585.023-6.095-.299-6.417a.998.998 0 0 0-1.058-.23m-5.13 1.404c-.704.371-1.697 1.151-2.437 1.915a10.961 10.961 0 0 0-2.42 11.339c.568 1.566 1.378 2.832 2.581 4.036 1.716 1.715 3.758 2.747 6.183 3.125.467.073.73.087 1.58.087.85 0 1.113-.014 1.58-.087 2.413-.376 4.471-1.417 6.181-3.127.923-.923 1.563-1.811 2.116-2.941 2.416-4.927.812-10.888-3.754-13.952-.66-.442-.805-.508-1.117-.507-.326.001-.533.088-.73.307-.351.389-.36.952-.021 1.326.047.052.337.261.645.465 1.403.928 2.462 2.126 3.181 3.601.635 1.3.896 2.448.896 3.94 0 1.511-.264 2.654-.917 3.98-.896 1.818-2.252 3.179-4.067 4.079a8.986 8.986 0 0 1-6.453.597C7.08 19.955 5.103 18.309 3.946 16c-.642-1.283-.923-2.498-.923-4 0-1.491.26-2.635.896-3.942.711-1.464 1.78-2.673 3.181-3.599.308-.204.598-.413.645-.465.339-.374.33-.937-.021-1.326-.197-.219-.404-.306-.73-.307a.83.83 0 0 0-.481.112" fill="#667085" fill-rule="evenodd"/></svg>