<svg width="24" height="24" fill="none" xmlns="http://www.w3.org/2000/svg"><path d="M9.64 5.068c-.156.053-.603.483-3.311 3.187-2.258 2.253-3.155 3.174-3.216 3.301a1.013 1.013 0 0 0-.053.77c.066.203.23.375 3.195 3.345 2.253 2.258 3.174 3.155 3.301 3.216a.986.986 0 0 0 1.144-.185c.279-.279.364-.655.235-1.045-.059-.178-.278-.41-2.289-2.427L6.422 13h6.862c7.705 0 7.093.025 7.417-.299a.984.984 0 0 0 0-1.402c-.324-.324.288-.299-7.417-.299H6.422l2.224-2.23c2.011-2.017 2.23-2.249 2.289-2.427A1.004 1.004 0 0 0 9.64 5.068" fill="#667085" fill-rule="evenodd"/></svg>