<svg width="24" height="24" fill="none" xmlns="http://www.w3.org/2000/svg"><path d="M6.643 3.069a1.118 1.118 0 0 0-.343.229c-.325.325-.3-.288-.3 7.418v6.861l-1.23-1.223c-1.085-1.078-1.253-1.231-1.427-1.288-.389-.13-.766-.045-1.044.233s-.363.654-.234 1.044c.059.178.271.404 2.19 2.328 1.511 1.516 2.176 2.156 2.301 2.217.244.118.509.136.77.052.201-.065.342-.198 2.345-2.195 1.516-1.511 2.156-2.176 2.217-2.301a.99.99 0 0 0-.186-1.144c-.279-.28-.656-.364-1.045-.234-.174.057-.342.21-1.427 1.288L8 17.577v-6.861c0-7.705.025-7.093-.299-7.417a.998.998 0 0 0-1.058-.23m10 0a1.118 1.118 0 0 0-.343.229c-.319.319-.3.012-.3 4.918v4.361l-1.23-1.223c-1.085-1.078-1.253-1.231-1.427-1.288-.389-.13-.766-.045-1.044.233s-.363.654-.234 1.044c.059.178.271.404 2.19 2.328 1.511 1.516 2.176 2.156 2.301 2.217.244.118.509.136.77.052.201-.065.342-.198 2.345-2.195 1.516-1.511 2.156-2.176 2.217-2.301a.99.99 0 0 0-.186-1.144c-.279-.28-.656-.364-1.045-.234-.174.057-.342.21-1.427 1.288L18 12.577V8.216c0-4.905.019-4.6-.299-4.917a.998.998 0 0 0-1.058-.23" fill="#667085" fill-rule="evenodd"/></svg>