<svg width="24" height="24" fill="none" xmlns="http://www.w3.org/2000/svg"><path d="M11.643 4.069a1.118 1.118 0 0 0-.343.229c-.323.323-.3-.168-.3 6.418v5.863l-2.73-2.725c-2.482-2.477-2.748-2.73-2.927-2.789-.39-.129-.766-.044-1.044.234s-.362.654-.234 1.044c.059.18.374.507 3.69 3.828 2.625 2.629 3.674 3.655 3.801 3.716.244.119.509.137.77.053.203-.066.392-.247 3.845-3.695 2.629-2.624 3.655-3.674 3.716-3.801a.986.986 0 0 0-.185-1.144c-.279-.279-.655-.364-1.045-.235-.179.059-.445.312-2.927 2.789L13 16.579v-5.863c0-6.585.023-6.095-.299-6.417a.998.998 0 0 0-1.058-.23" fill="#667085" fill-rule="evenodd"/></svg>