<svg width="24" height="24" fill="none" xmlns="http://www.w3.org/2000/svg"><path d="M10.643 2.069C10.291 2.193 10 2.614 10 3c0 .08.03.234.066.343.057.174.21.342 1.288 1.427L12.577 6H8.216c-4.905 0-4.6-.019-4.917.299a.984.984 0 0 0 0 1.402c.317.318.012.299 4.917.299h4.361l-1.223 1.23c-1.078 1.085-1.231 1.253-1.288 1.427-.13.389-.045.766.233 1.044s.654.363 1.044.234c.178-.059.404-.271 2.328-2.19 1.474-1.47 2.157-2.177 2.214-2.295a1.115 1.115 0 0 0-.015-.91c-.077-.148-.649-.743-2.217-2.305-1.907-1.899-2.132-2.111-2.31-2.17a1.032 1.032 0 0 0-.7.004m5 10c-.352.124-.643.545-.643.931 0 .08.03.234.066.343.057.174.21.342 1.288 1.427L17.577 16h-6.861c-7.705 0-7.093-.025-7.417.299a.984.984 0 0 0 0 1.402c.324.324-.288.299 7.417.299h6.861l-1.223 1.23c-1.078 1.085-1.231 1.253-1.288 1.427-.13.389-.046.766.234 1.045a.99.99 0 0 0 1.144.186c.125-.061.79-.701 2.301-2.217 1.997-2.003 2.13-2.144 2.195-2.345a1.018 1.018 0 0 0-.052-.77c-.061-.125-.701-.79-2.217-2.301-1.924-1.919-2.15-2.131-2.328-2.19a1.032 1.032 0 0 0-.7.004" fill="#667085" fill-rule="evenodd"/></svg>