<svg width="24" height="24" fill="none" xmlns="http://www.w3.org/2000/svg"><path d="M11.096 1.041c-2.677.221-5.123 1.386-7.02 3.347-.793.821-1.622 1.989-1.713 2.418a.95.95 0 0 0 .284.9c.222.209.382.272.693.272.48 0 .602-.096 1.119-.878.926-1.401 2.135-2.47 3.599-3.181 1.307-.636 2.451-.896 3.942-.896 1.502 0 2.717.281 4 .923 1.813.908 3.126 2.219 4.042 4.034.652 1.292.935 2.507.935 4.02 0 1.511-.264 2.654-.917 3.98-.896 1.818-2.252 3.179-4.067 4.079a8.959 8.959 0 0 1-6.841.475C7.22 19.892 5.62 18.653 4.459 16.9c-.39-.59-.473-.685-.699-.804-.192-.101-.648-.101-.84 0-.43.225-.651.661-.557 1.098.103.481.957 1.65 1.875 2.568.949.95 1.799 1.561 2.942 2.118a10.958 10.958 0 0 0 8.56.46c1.513-.547 2.841-1.399 4.021-2.579.923-.923 1.563-1.811 2.116-2.941a10.92 10.92 0 0 0 0-9.64 11.163 11.163 0 0 0-3.826-4.353 11.01 11.01 0 0 0-6.955-1.786m.547 6.028C11.291 7.193 11 7.614 11 8c0 .08.03.234.066.343.057.174.21.342 1.288 1.427L13.577 11H7.716c-6.585 0-6.095-.023-6.417.299a.984.984 0 0 0 0 1.402c.322.322-.168.299 6.417.299h5.861l-1.223 1.23c-1.078 1.085-1.231 1.253-1.288 1.427-.13.389-.045.766.233 1.044s.655.363 1.044.234c.178-.059.403-.27 2.309-2.17 2.329-2.323 2.317-2.307 2.32-2.776.003-.442.004-.44-2.319-2.754-1.907-1.899-2.132-2.111-2.31-2.17a1.032 1.032 0 0 0-.7.004" fill="#667085" fill-rule="evenodd"/></svg>