<svg width="24" height="24" fill="none" xmlns="http://www.w3.org/2000/svg"><path d="M5.692 2.043c-.839.077-1.499.324-2.126.797-.698.526-1.233 1.341-1.424 2.166-.138.595-.147 1.089-.132 7.314.014 5.55.021 6.171.082 6.467.199.969.73 1.824 1.48 2.384.539.402.985.601 1.656.737.33.067.756.072 6.772.072 6.031 0 6.441-.004 6.775-.072 1.635-.333 2.8-1.498 3.133-3.133.068-.334.072-.744.072-6.775 0-7.126.016-6.686-.263-7.456-.371-1.024-1.365-1.978-2.417-2.317-.642-.208-.406-.201-7.06-.209-3.399-.005-6.345.007-6.548.025M17.78 4.04c.352.021.743.066.87.099.555.145 1.069.659 1.21 1.21.119.463.139 1.416.139 6.631.001 5.203-.021 6.26-.136 6.691-.105.393-.455.821-.872 1.065-.415.243-.25.237-6.611.253-5.845.016-6.565.003-7.051-.126-.531-.141-1.048-.668-1.19-1.213-.116-.443-.138-1.526-.138-6.65 0-5.135.022-6.207.139-6.654.103-.394.412-.789.819-1.046.232-.146.577-.223 1.156-.258.761-.046 10.919-.048 11.665-.002m-6.12 3.024c-.184.058-.373.235-2.331 2.189-1.517 1.514-2.156 2.178-2.217 2.303-.118.245-.136.51-.052.77.065.201.198.342 2.175 2.327 1.172 1.176 2.185 2.16 2.285 2.22.152.091.226.107.48.107.257 0 .327-.016.492-.113.222-.13.409-.369.473-.603a1.187 1.187 0 0 0-.066-.709c-.037-.074-.61-.679-1.273-1.345L10.422 13l2.879-.002c2.3-.001 2.909-.012 3.029-.055.221-.079.414-.241.539-.454.095-.161.111-.233.111-.489s-.016-.328-.111-.489a1.24 1.24 0 0 0-.248-.293c-.287-.219-.277-.218-3.356-.218h-2.843l1.204-1.21c.663-.665 1.236-1.271 1.273-1.345.091-.18.12-.507.064-.713-.144-.534-.748-.843-1.303-.668" fill="#667085" fill-rule="evenodd"/></svg>