<svg width="24" height="24" fill="none" xmlns="http://www.w3.org/2000/svg"><path d="M6.643 6.069C6.291 6.193 6 6.614 6 7c0 .08.029.234.065.343.059.181.415.548 4.289 4.427L14.579 16h-3.862c-4.346 0-4.103-.016-4.418.299a.984.984 0 0 0 0 1.402c.32.32-.082.299 5.701.299 5.783 0 5.381.021 5.701-.299.32-.32.299.082.299-5.701 0-5.783.021-5.381-.299-5.701A1.055 1.055 0 0 0 17 6c-.242 0-.521.119-.701.299-.315.315-.299.072-.299 4.418v3.862l-4.23-4.225C7.891 6.48 7.524 6.124 7.343 6.065a1.038 1.038 0 0 0-.7.004" fill="#667085" fill-rule="evenodd"/></svg>