<svg width="24" height="24" fill="none" xmlns="http://www.w3.org/2000/svg"><path d="M11.74 1.055c-.785.151-1.399.553-1.941 1.273-.128.169-.702 1.091-1.277 2.048C7.36 6.312 7.337 6.364 7.455 6.767c.085.296.251.511.494.643.269.147.503.175.775.096.368-.108.452-.211 1.239-1.516 1.09-1.809 1.72-2.724 1.945-2.826.167-.076.454-.097.64-.047.224.06.42.287.99 1.143.681 1.024 1.639 2.63 1.553 2.606-1.811-.514-2.088-.558-2.415-.389-.239.123-.346.229-.461.453a.962.962 0 0 0-.078.767c.075.256.301.535.516.637.072.034 1.091.322 2.266.641 1.761.478 2.15.572 2.218.535.046-.025.183-.058.306-.073.307-.037.506-.141.639-.334.062-.09.141-.194.175-.233.076-.085 1.223-4.391 1.223-4.592a1.13 1.13 0 0 0-.262-.67c-.477-.557-1.415-.418-1.699.252-.037.088-.174.569-.304 1.07-.129.5-.244.91-.255.91-.012 0-.352-.554-.758-1.23-1.358-2.265-1.564-2.564-2.014-2.932a3.495 3.495 0 0 0-1.128-.576c-.337-.09-.979-.112-1.32-.047M3.769 9.598c-1.662.453-2.207.618-2.327.7-.265.184-.442.52-.442.841 0 .448.319.88.741 1.003.283.082.312.078 1.415-.222.486-.132.902-.24.924-.24.034 0-.37.681-1.601 2.699-.629 1.031-.879 1.7-.884 2.361-.005.677.14 1.175.507 1.745.416.648 1.015 1.07 1.819 1.285.334.089.376.09 2.699.09 2.636 0 2.492.015 2.793-.287a.963.963 0 0 0 .299-.664 1.062 1.062 0 0 0-.569-1.002c-.159-.085-.213-.087-2.123-.113-2.391-.031-2.876-.079-3.09-.307-.167-.177-.303-.512-.276-.681.04-.254.715-1.543 1.448-2.766.39-.649.729-1.202.754-1.229.035-.038.102.166.284.859.268 1.027.36 1.246.593 1.415.642.465 1.47.138 1.633-.646.045-.216.038-.247-.546-2.459-.372-1.406-.625-2.293-.681-2.382-.193-.306-.481-.475-.819-.479a.598.598 0 0 1-.24-.059.513.513 0 0 0-.12-.056c-.011.001-.997.268-2.191.594m15.43 1.501a1.18 1.18 0 0 0-.605.512c-.106.208-.14.569-.073.773.029.086.334.624.68 1.196 1.19 1.971 1.719 2.982 1.719 3.284a.897.897 0 0 1-.223.572c-.15.178-.207.201-.688.271-.33.048-.923.066-2.569.081l-2.14.019.2-.213c.11-.117.446-.466.746-.775.481-.495.553-.588.61-.778.08-.269.08-.372.001-.639-.131-.441-.635-.769-1.087-.707-.357.049-.496.169-2.185 1.887-1.767 1.798-1.796 1.835-1.799 2.258-.004.42.028.459 1.818 2.282 1.207 1.228 1.696 1.7 1.831 1.767.253.125.674.125.911.001.224-.118.443-.384.515-.626.075-.253.074-.358-.005-.627-.059-.198-.128-.281-.8-.959-.405-.408-.736-.755-.736-.77 0-.015 1.058-.028 2.35-.028 2.534 0 2.804-.018 3.347-.215.4-.145.688-.334 1.045-.685.929-.913 1.18-2.189.673-3.414-.167-.405-.336-.705-1.094-1.946-.322-.528-.737-1.211-.921-1.518-.372-.62-.543-.831-.764-.944a1.12 1.12 0 0 0-.757-.059" fill="#667085" fill-rule="evenodd"/></svg>