<svg width="24" height="24" fill="none" xmlns="http://www.w3.org/2000/svg"><path d="M6.643 6.069a1.118 1.118 0 0 0-.343.229C5.979 6.619 6 6.216 6 12c0 5.783-.021 5.381.299 5.701.32.32-.082.299 5.701.299 5.783 0 5.381.021 5.701-.299a.984.984 0 0 0 0-1.402c-.315-.315-.072-.299-4.418-.299H9.421l4.225-4.23c3.874-3.879 4.23-4.246 4.289-4.427.128-.39.044-.766-.234-1.044s-.654-.362-1.044-.234c-.181.059-.548.415-4.427 4.289L8 14.579v-3.862c0-4.346.016-4.103-.299-4.418a.998.998 0 0 0-1.058-.23" fill="#667085" fill-rule="evenodd"/></svg>