<svg width="24" height="24" fill="none" xmlns="http://www.w3.org/2000/svg"><path d="M9.149 2.043c-.408.098-.831.452-1.014.848l-.115.249-.011 4.93-.01 4.93H6.457c-.952 0-1.606.016-1.709.042a1.062 1.062 0 0 0-.633.505c-.14.284-.135.687.012.933.062.103 1.647 1.717 3.72 3.785 3.303 3.296 3.63 3.611 3.81 3.67.109.036.263.065.343.065.08 0 .234-.029.343-.065.18-.059.507-.374 3.81-3.67 2.073-2.068 3.658-3.682 3.72-3.785.147-.246.152-.649.012-.933a1.062 1.062 0 0 0-.633-.505c-.103-.026-.757-.042-1.709-.042h-1.542l-.01-4.93-.011-4.93-.107-.229a1.67 1.67 0 0 0-.748-.761l-.263-.13-2.781-.007c-1.545-.003-2.848.01-2.932.03m4.853 7.047c.001 4.148.011 5.118.055 5.24.079.221.241.414.454.539.189.111.191.111 1.119.131l.931.02-2.281 2.28L12 19.58 9.72 17.3l-2.281-2.28.931-.02c.928-.02.93-.02 1.119-.131a1.19 1.19 0 0 0 .289-.243c.233-.306.222-.023.222-5.551V4h4l.002 5.09" fill="#667085" fill-rule="evenodd"/></svg>