<svg width="24" height="24" fill="none" xmlns="http://www.w3.org/2000/svg"><path d="M5.643 5.069C5.291 5.193 5 5.614 5 6c0 .08.029.234.065.343.059.181.484.617 5.289 5.427L15.579 17h-2.862c-3.228 0-3.109-.01-3.418.299a.984.984 0 0 0 0 1.402c.317.317.038.299 4.701.299 4.663 0 4.384.018 4.701-.299.317-.317.299-.038.299-4.701 0-4.663.018-4.384-.299-4.701a.984.984 0 0 0-1.402 0c-.309.309-.299.19-.299 3.418v2.862l-5.23-5.225c-4.81-4.805-5.246-5.23-5.427-5.289a1.038 1.038 0 0 0-.7.004" fill="#667085" fill-rule="evenodd"/></svg>