<svg width="24" height="24" fill="none" xmlns="http://www.w3.org/2000/svg"><path d="M11.643 1.069a1.118 1.118 0 0 0-.343.229c-.317.317-.3.072-.3 4.419v3.862L8.27 6.853C6.353 4.94 5.486 4.101 5.36 4.037c-.23-.117-.633-.126-.84-.02-.471.242-.683.714-.542 1.207.068.236.071.239 2.834 3.006L9.579 11H5.716c-4.345 0-4.102-.016-4.417.299a.984.984 0 0 0 0 1.402c.315.315.072.299 4.417.299h3.863l-2.767 2.77c-2.763 2.767-2.766 2.77-2.834 3.006-.111.388-.017.741.268 1.01.286.268.6.344.978.236.236-.068.239-.071 3.006-2.834L11 14.421v3.863c0 4.345-.016 4.102.299 4.417a.984.984 0 0 0 1.402 0c.315-.315.299-.072.299-4.417v-3.863l2.77 2.767c2.767 2.763 2.77 2.766 3.006 2.834.378.108.692.032.978-.236.285-.269.379-.622.268-1.01-.068-.236-.071-.239-2.834-3.006L14.421 13h3.863c4.345 0 4.102.016 4.417-.299a.984.984 0 0 0 0-1.402c-.315-.315-.072-.299-4.417-.299h-3.863l2.767-2.77c2.763-2.767 2.766-2.77 2.834-3.006a.993.993 0 0 0-1.402-1.176c-.103.051-1.127 1.045-2.89 2.806L13 9.58V5.717c0-4.346.016-4.103-.299-4.418a.998.998 0 0 0-1.058-.23" fill="#667085" fill-rule="evenodd"/></svg>