<svg width="24" height="24" fill="none" xmlns="http://www.w3.org/2000/svg"><path d="M11.643 3.069a1.118 1.118 0 0 0-.343.229c-.311.31-.3.19-.3 3.418v2.862L8.77 7.354c-2.017-2.011-2.249-2.23-2.427-2.289-.39-.129-.766-.044-1.044.234s-.363.654-.234 1.044c.059.178.278.41 2.289 2.427L9.578 11H6.716c-3.227 0-3.108-.01-3.417.299a.984.984 0 0 0 0 1.402c.309.309.19.299 3.417.299h2.862l-2.224 2.23c-2.011 2.017-2.23 2.249-2.289 2.427-.129.39-.044.766.234 1.044s.654.363 1.044.234c.178-.059.41-.278 2.427-2.289L11 14.422v2.862c0 3.227-.01 3.108.299 3.417a.984.984 0 0 0 1.402 0c.309-.309.299-.19.299-3.417v-2.862l2.23 2.224c2.017 2.011 2.249 2.23 2.427 2.289.39.129.766.044 1.044-.234s.363-.654.234-1.044c-.059-.178-.278-.41-2.289-2.427L14.422 13h2.862c3.227 0 3.108.01 3.417-.299a.984.984 0 0 0 0-1.402c-.309-.309-.19-.299-3.417-.299h-2.862l2.224-2.23c2.011-2.017 2.23-2.249 2.289-2.427.129-.39.044-.766-.234-1.044s-.654-.363-1.044-.234c-.178.059-.41.278-2.427 2.289L13 9.578V6.716c0-3.227.01-3.108-.299-3.417a.998.998 0 0 0-1.058-.23" fill="#667085" fill-rule="evenodd"/></svg>