<svg width="24" height="24" fill="none" xmlns="http://www.w3.org/2000/svg"><path d="M11.043 1.042c-1.88.181-3.539.762-5.087 1.78-2.63 1.732-4.35 4.43-4.844 7.598-.073.467-.087.73-.087 1.58 0 .85.014 1.113.087 1.58a11.133 11.133 0 0 0 1.722 4.483c1.778 2.669 4.47 4.361 7.706 4.844.725.108 2.282.098 3.04-.019a11.293 11.293 0 0 0 3.28-1.028c.617-.302 1.556-.89 1.86-1.165.472-.425.471-1.102 0-1.506-.223-.19-.386-.241-.716-.222-.267.015-.276.019-.887.429-2.236 1.499-4.793 1.962-7.322 1.326-4.455-1.121-7.368-5.485-6.693-10.029.536-3.609 3.207-6.558 6.716-7.416.818-.2 1.28-.253 2.182-.254.923 0 1.394.057 2.266.277a8.99 8.99 0 0 1 4.524 2.8 9.015 9.015 0 0 1 1.913 3.646c.233.923.274 1.305.276 2.554.001 1.089-.002 1.127-.095 1.36-.199.5-.564.917-.976 1.117-1.11.537-2.327.051-2.792-1.117l-.096-.24-.02-2.863-.02-2.863-.121-.197c-.305-.496-.936-.641-1.407-.325a1.018 1.018 0 0 0-.439.7 1.432 1.432 0 0 1-.032.208c-.005 0-.16-.102-.345-.226a5.374 5.374 0 0 0-1.416-.674c-1.582-.459-3.394.011-4.665 1.21-.642.606-1.168 1.502-1.402 2.39-.119.451-.126.523-.128 1.2-.002.626.01.77.092 1.1.51 2.057 2.084 3.527 4.133 3.86 1.488.241 3.016-.265 4.158-1.377l.355-.345.179.288c.381.611 1.188 1.134 2.126 1.38.505.132 1.359.132 1.864 0a4.028 4.028 0 0 0 2.99-3.131c.08-.386.084-.5.066-1.615-.016-.943-.038-1.316-.104-1.74a11.18 11.18 0 0 0-2.113-5.037c-.398-.533-1.456-1.613-1.971-2.01a11.06 11.06 0 0 0-5.395-2.255c-.563-.076-1.844-.106-2.362-.056m1.737 8.06c1.014.271 1.844 1.106 2.125 2.138.097.359.097 1.161 0 1.52a3.069 3.069 0 0 1-1.604 1.94c-.455.217-.735.277-1.301.277s-.846-.06-1.301-.277a3.077 3.077 0 0 1-1.604-1.94c-.097-.359-.097-1.161 0-1.52a3.042 3.042 0 0 1 2.395-2.198c.286-.052.997-.019 1.29.06" fill="#667085" fill-rule="evenodd"/></svg>