<svg width="24" height="24" fill="none" xmlns="http://www.w3.org/2000/svg"><path d="M4.92 1.845a4.924 4.924 0 0 0-.65.134c-1.213.347-1.996 1.164-2.336 2.441-.096.359-.107.472-.109 1.1-.002.79.067 1.258.314 2.115.348 1.21.918 2.396 1.864 3.875l.314.49-.314.49c-.946 1.479-1.516 2.665-1.864 3.875-.247.857-.316 1.325-.314 2.115.002.628.013.741.109 1.1.56 2.1 2.424 3.01 5.026 2.453 1.459-.312 2.877-.955 4.689-2.125l.35-.225.49.313c1.482.948 2.641 1.505 3.879 1.865.849.246 1.32.316 2.112.314.628-.002.741-.013 1.1-.109 1.327-.354 2.134-1.16 2.486-2.486.095-.358.106-.473.108-1.1.002-.557-.016-.795-.085-1.164-.295-1.565-.953-3.064-2.181-4.966l-.226-.35.226-.35c1.228-1.902 1.886-3.401 2.181-4.966.069-.369.087-.607.085-1.164-.002-.627-.013-.742-.108-1.1-.64-2.411-2.953-3.214-6.151-2.137-1.079.363-2.109.885-3.482 1.763l-.428.274-.552-.349A20.282 20.282 0 0 0 9.54 2.882C7.855 2.06 6.228 1.695 4.92 1.845m1.081 1.996c.757.091 1.772.405 2.519.777.461.231 1.724.99 1.71 1.028-.005.015-.28.241-.61.503C8.077 7.371 7.366 8.08 6.162 9.6c-.27.341-.503.625-.518.631-.036.013-.828-1.312-1.046-1.751-.504-1.013-.849-2.424-.78-3.192.014-.16.063-.411.108-.557.067-.217.122-.306.308-.492.378-.377.922-.5 1.767-.398m13.256.081c.231.071.315.124.507.316.196.196.243.273.321.526.258.833-.033 2.407-.688 3.727-.208.417-1.005 1.754-1.039 1.74a23.742 23.742 0 0 1-.667-.811c-1.155-1.437-1.815-2.09-3.291-3.258-.341-.27-.625-.503-.631-.518-.014-.037 1.32-.832 1.771-1.055.654-.325 1.71-.651 2.42-.749.394-.054.978-.017 1.297.082m-6.941 3.105c1.086.813 2.283 1.87 2.97 2.622.838.918 1.932 2.288 1.897 2.376-.032.084-.949 1.248-1.367 1.735a23.616 23.616 0 0 1-2.056 2.057c-.42.359-1.587 1.285-1.712 1.36-.093.054-1.445-1.015-2.416-1.91-.786-.724-1.727-1.788-2.563-2.898l-.28-.37.353-.464C8.178 10.168 9.11 9.166 10.3 8.136c.427-.369 1.652-1.334 1.696-1.335a3.7 3.7 0 0 1 .32.226m-.762 3.546c-1.075.401-1.394 1.665-.621 2.459.23.237.46.363.788.431.245.051.314.051.563-.001.347-.072.56-.193.803-.452.232-.248.305-.389.375-.727a1.45 1.45 0 0 0-.097-.901c-.113-.255-.423-.57-.704-.713-.206-.106-.293-.125-.601-.137-.236-.009-.41.006-.506.041M6.311 14.58c1.136 1.417 1.688 1.969 3.109 3.11.44.353.8.657.8.675 0 .036-.749.501-1.366.847-1.044.586-2.345.965-3.314.966-.698.001-.976-.088-1.306-.418-.186-.185-.241-.274-.308-.491a3.248 3.248 0 0 1-.108-.557c-.069-.768.276-2.179.78-3.192.216-.434 1.01-1.765 1.045-1.751.014.006.315.371.668.811m12.498-.11c.639 1.069.878 1.591 1.128 2.46.325 1.13.326 2.118.004 2.629a1.367 1.367 0 0 1-.697.529c-.344.118-1.126.127-1.644.019-.718-.151-1.593-.449-2.154-.735-.469-.239-1.691-.977-1.677-1.013.006-.015.371-.317.811-.669 1.398-1.121 2.021-1.746 3.132-3.138.345-.434.638-.79.65-.79.012-.001.213.318.447.708" fill="#667085" fill-rule="evenodd"/></svg>