<svg width="24" height="24" fill="none" xmlns="http://www.w3.org/2000/svg"><path d="M9.54 1.045c-.694.087-1.541.432-2.123.866-.956.712-1.573 1.68-1.845 2.89-.06.27-.068.842-.081 5.939-.015 5.7-.003 6.346.13 7.006a6.55 6.55 0 0 0 2.78 4.155c2.672 1.788 6.226 1.348 8.405-1.041a6.507 6.507 0 0 0 1.573-3.114c.132-.653.144-1.32.133-7.046-.013-6.267.007-5.785-.256-6.097-.362-.431-1.15-.431-1.512 0-.263.312-.242-.215-.264 6.537l-.02 6.12-.107.388c-.406 1.471-1.494 2.64-2.893 3.108-1.694.566-3.488.128-4.708-1.149a4.522 4.522 0 0 1-1.104-1.956l-.108-.391-.011-5.96c-.013-6.663-.029-6.25.272-6.852.644-1.287 2.235-1.804 3.559-1.158.458.224.952.709 1.171 1.15.31.626.289.144.289 6.5 0 3.124-.014 5.729-.031 5.789-.044.159-.264.393-.449.476-.441.201-1.01-.056-1.138-.514-.028-.101-.042-1.803-.044-5.191-.001-4.105-.011-5.068-.055-5.19a.947.947 0 0 0-.468-.529c-.497-.271-1.087-.082-1.369.439l-.086.16V16.9l.094.3c.256.822.763 1.421 1.506 1.781.813.394 1.627.394 2.44 0 .733-.355 1.229-.935 1.506-1.761l.094-.28.011-5.77c.009-4.888.002-5.831-.048-6.16A4.691 4.691 0 0 0 9.54 1.045" fill="#667085" fill-rule="evenodd"/></svg>