<svg width="24" height="24" fill="none" xmlns="http://www.w3.org/2000/svg"><path d="M11.16 1.047c-1.492.14-2.994.726-4.26 1.662-.446.33-1.319 1.197-1.663 1.651a8.67 8.67 0 0 0-1.659 3.98c-.087.588-.087 1.732 0 2.32.258 1.734 1.011 3.328 2.157 4.566l.265.286v3.317c0 3.737-.014 3.559.3 3.873.203.203.504.315.776.289.119-.011 1.048-.362 2.556-.964L12 21.081l2.368.946c1.508.602 2.437.953 2.556.964.272.026.573-.086.776-.289.314-.314.3-.136.3-3.873v-3.317l.265-.286c1.146-1.238 1.899-2.832 2.157-4.566.087-.588.087-1.732 0-2.32a8.662 8.662 0 0 0-1.667-3.989c-.353-.467-1.181-1.284-1.67-1.647a8.473 8.473 0 0 0-5.925-1.657m1.512 1.996a6.226 6.226 0 0 1 2.285.677c1.767.901 2.966 2.472 3.411 4.466.076.343.088.513.088 1.314s-.012.971-.088 1.314c-.586 2.627-2.483 4.504-5.128 5.072-.359.077-.54.09-1.24.09s-.881-.013-1.24-.09c-2.645-.568-4.542-2.445-5.128-5.072-.076-.343-.088-.513-.088-1.314s.012-.971.088-1.314c.444-1.993 1.643-3.565 3.405-4.463a6.406 6.406 0 0 1 3.635-.68M8.521 17.125a9.17 9.17 0 0 0 2.439.802c.395.069 1.685.069 2.08 0a9.17 9.17 0 0 0 2.439-.802c.253-.124.473-.231.49-.238.017-.008.031.809.031 1.814 0 1.589-.008 1.825-.059 1.805l-1.69-.68c-1.783-.718-1.977-.786-2.248-.786-.288.001-.481.068-2.236.777l-1.71.69c-.049.018-.057-.234-.057-1.806 0-1.005.014-1.822.031-1.814.017.007.237.114.49.238" fill="#667085" fill-rule="evenodd"/></svg>