<svg width="24" height="24" fill="none" xmlns="http://www.w3.org/2000/svg"><path d="M11.42 1.023c-.066.009-.291.037-.5.061-.813.093-1.896.442-2.679.864-3.153 1.697-4.816 5.26-4.055 8.689.131.593.285 1.028.577 1.637.42.876.924 1.571 1.7 2.34l.449.446-.455 3.4c-.25 1.87-.455 3.464-.455 3.543-.007.655.69 1.158 1.304.942.087-.031 1.168-.661 2.404-1.4 1.235-.74 2.266-1.345 2.291-1.345.024 0 1.053.604 2.285 1.343 1.233.739 2.314 1.369 2.403 1.4.619.218 1.317-.283 1.309-.94 0-.079-.206-1.673-.456-3.543l-.454-3.4.449-.446c.774-.767 1.277-1.459 1.702-2.34.872-1.807.997-3.814.36-5.76a8.05 8.05 0 0 0-6.379-5.415c-.39-.06-1.561-.11-1.8-.076m1.744 2.094c2.422.483 4.273 2.36 4.738 4.803.101.528.101 1.632 0 2.16-.423 2.224-2.017 4.014-4.143 4.654-.691.208-.967.246-1.779.243-.836-.002-1.192-.058-1.904-.296a5.966 5.966 0 0 1-3.77-3.803c-.221-.681-.282-1.083-.282-1.878 0-1.04.181-1.829.618-2.691.944-1.866 2.641-3.028 4.798-3.285.313-.038 1.353.018 1.724.093M9.916 16.698c.797.229 1.167.279 2.084.279.618 0 .919-.018 1.22-.073a9.957 9.957 0 0 0 1.674-.478c.19-.077.346-.121.346-.097 0 .023.109.861.242 1.862.133 1 .233 1.827.223 1.838-.011.01-.711-.397-1.557-.904-1.56-.937-1.783-1.045-2.148-1.045-.365 0-.588.108-2.148 1.045-.846.507-1.546.914-1.557.904-.01-.011.09-.838.223-1.838.133-1.001.242-1.839.242-1.862 0-.024.156.02.346.097.19.076.555.199.81.272" fill="#667085" fill-rule="evenodd"/></svg>