<svg width="24" height="24" fill="none" xmlns="http://www.w3.org/2000/svg"><path d="M5.641 1.044a2.824 2.824 0 0 0-1.684.786 2.867 2.867 0 0 0-.919 1.787c-.027.205-.038.874-.029 1.785.014 1.398.018 1.47.107 1.738.119.357.292.701.483.958.083.111 1.007 1.272 2.054 2.579l1.902 2.377-.192.243a5.958 5.958 0 0 0-1.31 3.563 5.59 5.59 0 0 0 .585 2.8c.82 1.679 2.304 2.818 4.202 3.225.35.075.544.09 1.16.09.616 0 .81-.015 1.16-.09 1.237-.265 2.224-.794 3.077-1.648a5.8 5.8 0 0 0 1.417-2.28c.236-.71.285-1.038.284-1.897-.002-.628-.017-.83-.09-1.166a6.218 6.218 0 0 0-1.211-2.597l-.192-.243 1.902-2.377a354.648 354.648 0 0 0 2.054-2.579c.199-.268.371-.614.485-.979.092-.294.094-.328.093-1.959l-.002-1.66-.11-.36a3.021 3.021 0 0 0-1.519-1.8c-.69-.341-.138-.316-7.168-.324-3.432-.004-6.375.009-6.539.028m11.731 1.982c.185.018.268.042.26.075-.014.057-5.602 7.256-5.632 7.256-.032 0-5.619-7.2-5.632-7.259-.009-.037.045-.058.18-.068.341-.027 10.543-.03 10.824-.004M7.68 8.074c1.391 1.789 2.513 3.266 2.494 3.282a2.15 2.15 0 0 1-.274.121 5.283 5.283 0 0 0-.493.232c-.139.076-.258.132-.264.125-1.036-1.278-4.021-5.05-4.062-5.134-.044-.089-.063-.316-.073-.879-.016-.86.008-1.144.091-1.056.029.03 1.19 1.519 2.581 3.309m11.312-2.297c-.01.604-.028.833-.073.923-.032.066-.957 1.245-2.055 2.62a2397.384 2397.384 0 0 0-2.003 2.51 4.358 4.358 0 0 1-.404-.187 4.539 4.539 0 0 0-.507-.224c-.061-.015-.12-.044-.132-.063-.012-.019 1.135-1.522 2.549-3.339 2.981-3.833 2.647-3.548 2.625-2.24M12.96 13.12c.462.112 1.143.453 1.55.777 1.483 1.182 1.918 3.357 1.003 5.015-.531.962-1.359 1.621-2.453 1.954-.334.102-.411.11-1.06.11s-.726-.008-1.06-.11c-.738-.224-1.25-.527-1.761-1.042a4.027 4.027 0 0 1-1.068-1.857c-.126-.458-.124-1.449.004-1.927.317-1.183 1.059-2.09 2.145-2.621.671-.328 1.127-.424 1.88-.398.292.01.613.049.82.099" fill="#667085" fill-rule="evenodd"/></svg>