<svg width="24" height="24" fill="none" xmlns="http://www.w3.org/2000/svg"><path d="M9.02 1.059a2.485 2.485 0 0 0-1.273.688c-.306.306-.452.564-.81 1.425-.227.548-.367.834-.435.888-.055.044-.427.214-.828.379-.977.4-1.244.569-1.62 1.021a2.507 2.507 0 0 0-.534 1.843c.044.348.095.5.451 1.357.189.453.283.733.284.84 0 .11-.101.405-.323.94-.377.911-.426 1.096-.422 1.58.006.645.261 1.243.733 1.722.318.322.536.448 1.407.812.403.168.78.337.837.374.065.043.15.179.228.365l.124.298-.42 3.155C6.189 20.481 6 21.955 6 22.023c-.001.639.702 1.135 1.306.922.087-.031 1.168-.661 2.404-1.4 1.235-.74 2.267-1.345 2.292-1.345.025 0 1.051.604 2.28 1.341 1.229.738 2.31 1.368 2.402 1.4.614.217 1.316-.273 1.316-.918 0-.068-.189-1.542-.42-3.276l-.42-3.152.124-.297c.077-.186.163-.325.23-.371.058-.04.403-.195.766-.345.836-.345 1.013-.434 1.26-.634.304-.247.53-.534.699-.888.19-.398.249-.65.251-1.074.002-.431-.052-.645-.339-1.346-.397-.972-.439-1.092-.415-1.208.011-.059.164-.456.338-.88.174-.425.34-.87.367-.99a3.06 3.06 0 0 0 .001-1.084c-.135-.589-.584-1.231-1.091-1.56-.125-.081-.589-.297-1.029-.479-.44-.182-.829-.363-.864-.402-.035-.038-.215-.433-.4-.876-.185-.443-.401-.902-.48-1.021-.483-.729-1.391-1.183-2.249-1.126-.366.025-.736.141-1.649.52-.303.126-.602.225-.682.225-.088.001-.434-.12-.908-.317-1.044-.433-1.477-.513-2.07-.383m1.385 2.264c.89.37 1.128.436 1.583.436.457.001.654-.05 1.432-.368.938-.383 1.001-.404 1.16-.374.23.043.34.203.632.915.337.825.505 1.129.798 1.449.322.352.546.487 1.391.839.926.386.945.396 1.018.539.111.214.075.378-.262 1.197-.58 1.405-.58 1.678.005 3.098.332.808.368.973.257 1.188-.071.138-.162.186-.955.516-.782.324-.964.417-1.204.616-.452.376-.603.614-1.003 1.579-.17.411-.337.79-.371.842-.069.107-.272.205-.421.205-.053 0-.418-.133-.811-.295-1.109-.458-1.042-.441-1.654-.441-.613 0-.546-.017-1.66.444-1.097.455-1.093.457-1.583-.717-.432-1.036-.575-1.261-1.047-1.644-.213-.172-.423-.278-1.174-.589-.793-.33-.884-.378-.955-.516-.111-.215-.075-.38.258-1.19.365-.886.464-1.282.427-1.71-.032-.375-.098-.588-.449-1.446-.311-.757-.346-.926-.236-1.138.071-.138.172-.192.919-.497.756-.309 1.004-.436 1.24-.634.455-.381.604-.616 1-1.577.17-.41.337-.789.372-.843.073-.111.258-.203.413-.205.058-.001.454.143.88.321m2.402 14.197c1.089.451 1.105.455 1.653.455.382.001.531-.016.73-.083.138-.046.25-.07.25-.053 0 .017.064.512.142 1.101.078.588.133 1.078.123 1.089-.011.01-.711-.397-1.557-.904-1.56-.937-1.783-1.045-2.148-1.045-.365 0-.588.108-2.148 1.045-.846.507-1.546.914-1.557.904-.01-.011.045-.501.123-1.089.078-.589.142-1.084.142-1.101 0-.017.112.005.25.048.328.104.785.135 1.131.076.171-.029.598-.178 1.099-.384.451-.184.88-.336.954-.337.078-.001.417.115.813.278" fill="#667085" fill-rule="evenodd"/></svg>