<svg width="24" height="24" fill="none" xmlns="http://www.w3.org/2000/svg"><path d="M3.36 1.041a2.016 2.016 0 0 0-1.651 2.001c0 .445.133.803.57 1.538.105.176.987 1.746 1.96 3.49l1.769 3.17-.211.328c-1.215 1.895-1.535 4.286-.854 6.387.181.559.629 1.451.967 1.923A7.502 7.502 0 0 0 9.59 22.6c1.614.54 3.207.539 4.824-.001 1.159-.388 2.122-1.005 3.007-1.927a6.554 6.554 0 0 0 1.219-1.732c.592-1.185.822-2.309.754-3.681a7.686 7.686 0 0 0-1.259-3.799l-.145-.218 1.793-3.211a430.595 430.595 0 0 1 1.944-3.46c.409-.675.564-1.093.564-1.529 0-.872-.521-1.614-1.354-1.932-.235-.089-.252-.09-2.417-.09-2.159 0-2.183.001-2.441.09-.31.108-.613.304-.848.55-.108.113-.731 1.131-1.689 2.76C12.706 5.839 12.013 7 12 7c-.013 0-.688-1.128-1.499-2.506-.812-1.379-1.544-2.596-1.625-2.705a2.023 2.023 0 0 0-1.296-.752c-.296-.044-3.971-.04-4.22.004M7.31 3.07c.116.116 3.098 5.205 3.073 5.244-.012.02-.09.05-.173.065-.611.114-1.843.668-2.435 1.096l-.326.235-1.723-3.085C3.94 3.427 3.763 3.091 3.85 3.06c.087-.032.572-.044 2-.052 1.279-.007 1.396-.002 1.46.062m12.839-.017c.036.023.023.089-.052.259-.055.125-.876 1.616-1.823 3.313L16.551 9.71l-.326-.235c-.592-.428-1.824-.982-2.435-1.096-.083-.015-.161-.045-.173-.065-.026-.04 2.959-5.129 3.078-5.249.071-.071.151-.074 1.74-.058.916.009 1.688.03 1.714.046m-7.182 7.046c2.243.391 4.068 2.227 4.451 4.477.087.51.088 1.368.002 1.868a5.544 5.544 0 0 1-3.717 4.296 5.275 5.275 0 0 1-1.703.264 5.474 5.474 0 0 1-5.22-3.778 5.038 5.038 0 0 1-.265-1.707c-.002-1.516.534-2.812 1.603-3.882.939-.939 2.05-1.463 3.422-1.612.277-.03 1.066.011 1.427.074M11.8 12.037c-.19.038-.222.057-1.17.69-.9.601-1.033.73-1.107 1.076a.961.961 0 0 0 .957 1.165c.123 0 .29-.028.372-.062l.148-.062v2.144l-.262.025c-.716.067-1.127.652-.929 1.322.065.22.396.551.616.616.231.069 2.919.069 3.15 0 .22-.065.551-.396.616-.616.198-.67-.213-1.255-.929-1.322L13 16.988v-2.067c0-2.305.001-2.299-.269-2.576a1.014 1.014 0 0 0-.931-.308" fill="#667085" fill-rule="evenodd"/></svg>