<svg width="24" height="24" fill="none" xmlns="http://www.w3.org/2000/svg"><path d="M5.62 2.045c-1.535.147-2.834 1.123-3.34 2.51-.253.693-.26.781-.259 3.425.001 2.087.01 2.455.07 2.819.135.811.352 1.371.711 1.827l.2.255L3 15.996c0 1.926.015 3.228.04 3.41a2.972 2.972 0 0 0 2.548 2.553c.371.054 12.456.053 12.826 0a2.982 2.982 0 0 0 2.545-2.539c.023-.167.04-1.548.04-3.411L21 12.878l.195-.249c.361-.461.577-1.018.716-1.849.058-.343.067-.743.068-2.8.001-2.153-.006-2.436-.071-2.752-.263-1.293-1.019-2.266-2.2-2.83-.421-.202-.831-.304-1.418-.356-.575-.05-12.139-.048-12.67.003M18.491 4.09a1.811 1.811 0 0 1 1.413 1.416c.081.435.119 2.969.062 4.074-.066 1.262-.167 1.665-.547 2.18a3.67 3.67 0 0 1-.821.772c-.711.449-.968.467-6.598.467-5.701 0-5.902-.015-6.64-.499a3.006 3.006 0 0 1-1.031-1.16c-.266-.538-.308-1.016-.306-3.48.003-2.206.026-2.484.24-2.849.256-.436.727-.81 1.13-.894.458-.097 1.179-.107 6.927-.099 5.169.008 5.897.016 6.171.072M8.664 9.063a.993.993 0 0 0-.366 1.637c.313.313.156.3 3.702.3 3.544 0 3.39.013 3.701-.299a.984.984 0 0 0 0-1.402c-.312-.312-.154-.299-3.718-.296-2.641.002-3.189.012-3.319.06m-3.358 5.595c.406.141.997.251 1.612.3.334.026 2.259.042 5.082.042s4.748-.016 5.082-.042c.615-.049 1.206-.159 1.612-.3a5.94 5.94 0 0 1 .293-.098c.031 0 .008 3.984-.026 4.39-.033.403-.049.467-.158.626-.179.26-.339.342-.751.386-.198.02-2.841.037-6.052.037-3.211 0-5.854-.017-6.052-.037-.412-.044-.572-.126-.75-.385-.106-.154-.126-.228-.158-.587-.034-.37-.058-4.43-.027-4.43.007 0 .139.044.293.098" fill="#667085" fill-rule="evenodd"/></svg>