<svg width="24" height="24" fill="none" xmlns="http://www.w3.org/2000/svg"><path d="M3.61 4.044c-1.319.155-2.378 1.202-2.569 2.536-.024.174-.039 2.217-.039 5.42s.015 5.246.039 5.42a2.976 2.976 0 0 0 2.539 2.539c.403.057 16.431.055 16.845-.002a2.977 2.977 0 0 0 2.534-2.537c.054-.38.054-10.46 0-10.84-.173-1.215-1.022-2.155-2.246-2.488-.235-.065-.829-.07-8.533-.076-4.554-.004-8.41.009-8.57.028m16.378 1.995c.468.043.649.131.831.407.09.135.111.227.143.607.048.584.048 9.312-.001 9.897-.033.403-.049.467-.158.626-.175.254-.338.34-.73.385-.45.052-15.699.052-16.15 0-.386-.045-.56-.137-.735-.389-.094-.136-.116-.222-.148-.576-.049-.543-.049-9.449 0-9.992.031-.34.056-.445.139-.57.171-.258.362-.356.768-.392.506-.044 15.546-.047 16.041-.003M11.28 8.575a3.579 3.579 0 0 0-2.227 1.552A3.343 3.343 0 0 0 8.51 12c0 .977.353 1.804 1.068 2.5.675.658 1.487.99 2.422.99.961 0 1.764-.337 2.459-1.031.694-.695 1.031-1.498 1.031-2.459 0-1.06-.454-2.018-1.282-2.704-.298-.246-.94-.581-1.308-.681-.315-.086-1.315-.111-1.62-.04m-5.637.494a1.118 1.118 0 0 0-.343.229C4.997 9.601 5 9.572 5 12c0 2.427-.003 2.399.299 2.701a.984.984 0 0 0 1.402 0C7.003 14.399 7 14.427 7 12s.003-2.399-.299-2.701a.998.998 0 0 0-1.058-.23m12 0a1.118 1.118 0 0 0-.343.229c-.303.303-.3.274-.3 2.702 0 2.427-.003 2.399.299 2.701a.984.984 0 0 0 1.402 0c.302-.302.299-.274.299-2.701s.003-2.399-.299-2.701a.998.998 0 0 0-1.058-.23m-4.985 1.588c.302.148.537.383.685.685.107.217.117.275.117.658s-.01.441-.117.658c-.547 1.115-2.139 1.115-2.686 0-.094-.192-.12-.303-.131-.571-.008-.193.007-.41.036-.514.075-.269.324-.626.54-.775.332-.228.512-.279.938-.268.327.009.413.026.618.127" fill="#667085" fill-rule="evenodd"/></svg>