<svg width="24" height="24" fill="none" xmlns="http://www.w3.org/2000/svg"><path d="M3.61 4.044c-1.319.155-2.378 1.202-2.569 2.536-.024.174-.039 2.217-.039 5.42s.015 5.246.039 5.42a2.976 2.976 0 0 0 2.539 2.539c.403.057 16.431.055 16.845-.002a2.977 2.977 0 0 0 2.534-2.537c.054-.38.054-10.46 0-10.84-.173-1.215-1.022-2.155-2.246-2.488-.235-.065-.829-.07-8.533-.076-4.554-.004-8.41.009-8.57.028m16.378 1.995c.468.043.649.131.831.407.09.135.111.227.143.607.048.584.048 9.312-.001 9.897-.033.403-.049.467-.158.626-.175.254-.338.34-.73.385-.45.052-15.699.052-16.15 0-.386-.045-.56-.137-.735-.389-.094-.136-.116-.222-.148-.576-.049-.543-.049-9.449 0-9.992.031-.34.056-.445.139-.57.171-.258.362-.356.768-.392.506-.044 15.546-.047 16.041-.003m-8.345 1.03c-.364.128-.643.545-.643.959 0 .131-.017.18-.07.196-1.019.315-1.671.942-1.874 1.801-.08.342-.056.845.06 1.215.234.744.887 1.399 1.644 1.647.22.073.384.088 1.06.104.88.019.967.04 1.102.261a.447.447 0 0 1-.013.512c-.159.235-.16.235-1.672.235-1.578.001-1.65.012-1.938.3a.984.984 0 0 0 0 1.402c.247.247.442.299 1.128.299.528 0 .573.006.573.073 0 .04.03.16.066.267.126.369.538.66.934.66.541 0 1-.472 1-1.028 0-.131.017-.18.07-.196.302-.093.646-.247.855-.382 1.281-.828 1.436-2.545.329-3.649a2.47 2.47 0 0 0-.981-.615c-.269-.096-.362-.106-1.139-.127-.771-.021-.854-.03-.934-.103-.206-.187-.253-.433-.122-.648.152-.249.174-.252 1.693-.252 1.175 0 1.403-.01 1.569-.066.369-.126.66-.538.66-.934 0-.242-.119-.521-.299-.701-.247-.247-.442-.299-1.128-.299-.528 0-.573-.006-.573-.073 0-.173-.142-.471-.299-.628a.998.998 0 0 0-1.058-.23M5.6 10.555c-.35.115-.731.413-.904.708a1.87 1.87 0 0 0-.158.453 1.034 1.034 0 0 0-.001.56c.072.345.143.485.376.734.243.259.456.38.803.452.499.104.988-.052 1.348-.43.235-.247.331-.428.398-.749.137-.659-.189-1.299-.828-1.628-.178-.091-.274-.112-.574-.121-.198-.006-.405.003-.46.021m12 0c-.35.115-.731.413-.904.708a1.87 1.87 0 0 0-.158.453 1.034 1.034 0 0 0-.001.56c.072.345.143.485.376.734.243.259.456.38.803.452.499.104.988-.052 1.348-.43.235-.247.331-.428.398-.749.137-.659-.189-1.299-.828-1.628-.178-.091-.274-.112-.574-.121-.198-.006-.405.003-.46.021" fill="#667085" fill-rule="evenodd"/></svg>