<svg width="24" height="24" fill="none" xmlns="http://www.w3.org/2000/svg"><path d="M15.96 3.039c-1.555.124-2.827.405-5.32 1.174-2.42.746-3.182.87-4.605.75-.534-.045-.826-.089-2.275-.345-.658-.117-1.032-.123-1.351-.024-.685.213-1.307.937-1.398 1.626-.017.132-.022 3.03-.01 6.44l.021 6.2.116.32c.134.369.373.655.756.905 1.189.774 4.52 1.135 7.126.773 1.148-.16 2.344-.455 4.352-1.075 2.088-.644 2.655-.759 3.748-.759.919 0 1.362.046 2.52.261 1.077.2 1.542.233 1.902.136.701-.19 1.353-.929 1.447-1.641.017-.132.022-3.03.01-6.44l-.021-6.2-.114-.32c-.1-.282-.148-.354-.401-.605-.348-.345-.734-.546-1.446-.75-.535-.154-1.474-.32-2.177-.385-.622-.058-2.362-.082-2.88-.041m2.221 2.003c1.085.07 2.008.228 2.59.443l.232.086-.012 5.884c-.006 3.237-.026 5.916-.045 5.953-.023.047-.066.063-.14.05l-.746-.136c-1.523-.281-2.593-.365-3.675-.287-1.192.086-2.057.28-4.305.964-1.907.581-2.55.74-3.666.909-.585.088-2.501.099-3.194.018-.825-.096-1.57-.25-2.011-.414l-.212-.079.012-5.886c.006-3.238.025-5.916.043-5.951.036-.072.115-.063 1.199.14 1.053.197 1.502.239 2.609.24.884.001 1.124-.012 1.6-.087.778-.124 1.796-.381 3.18-.803 1.509-.461 2.056-.615 2.722-.763 1.303-.291 2.41-.373 3.819-.281m-.538 3.027a1.118 1.118 0 0 0-.343.229c-.303.303-.3.274-.3 2.702 0 2.427-.003 2.399.299 2.701a.984.984 0 0 0 1.402 0c.302-.302.299-.274.299-2.701s.003-2.399-.299-2.701a.998.998 0 0 0-1.058-.23m-6.363.506a3.65 3.65 0 0 0-1.955 1.183A3.383 3.383 0 0 0 8.51 12c0 .967.333 1.76 1.031 2.459.695.694 1.498 1.031 2.459 1.031.961 0 1.764-.337 2.459-1.031.694-.695 1.031-1.498 1.031-2.459 0-1.06-.454-2.018-1.282-2.704-.298-.246-.94-.581-1.308-.681-.315-.086-1.315-.111-1.62-.04m-5.637 1.494a1.118 1.118 0 0 0-.343.229c-.303.303-.3.274-.3 2.702 0 2.427-.003 2.399.299 2.701a.984.984 0 0 0 1.402 0C7.003 15.399 7 15.427 7 13s.003-2.399-.299-2.701a.998.998 0 0 0-1.058-.23m7.015.588c.302.148.537.383.685.685.107.217.117.275.117.658s-.01.441-.117.658c-.547 1.115-2.139 1.115-2.686 0-.094-.192-.12-.303-.131-.571-.008-.193.007-.41.036-.514.075-.269.324-.626.54-.775.332-.228.512-.279.938-.268.327.009.413.026.618.127" fill="#667085" fill-rule="evenodd"/></svg>