<svg width="24" height="24" fill="none" xmlns="http://www.w3.org/2000/svg"><path d="M11.745 2.027c-.063.011-1.97.432-4.237.936-3.196.71-4.179.943-4.377 1.036-.502.234-.925.752-1.068 1.307-.09.351-.093 2.804-.003 3.149.098.374.263.667.521.925.342.342.573.455 1.039.508l.38.043v6.138l-.354.02c-.3.017-.392.04-.596.149-.491.262-.912.827-1.01 1.357-.022.119-.04.759-.04 1.422 0 .946.013 1.256.06 1.438.179.687.623 1.168 1.323 1.435l.237.09 8.2.011c4.947.007 8.295-.004 8.44-.026a2.055 2.055 0 0 0 1.624-1.305c.092-.232.095-.282.108-1.543.014-1.451-.008-1.651-.236-2.078a2.211 2.211 0 0 0-.806-.801c-.204-.109-.296-.132-.596-.149l-.354-.02V9.931l.38-.043c.466-.053.697-.166 1.039-.508a1.95 1.95 0 0 0 .521-.925c.09-.345.087-2.798-.003-3.149-.143-.555-.566-1.073-1.068-1.307-.198-.093-1.183-.326-4.39-1.039-3.923-.872-4.463-.979-4.734-.933M15.9 4.88c2.09.464 3.868.861 3.95.883l.15.04-.001 1.029c0 .578-.017 1.054-.038 1.088-.034.053-.962.06-7.961.06-6.999 0-7.927-.007-7.961-.06-.021-.034-.038-.511-.038-1.089L4 5.802l.11-.029c.526-.137 7.884-1.76 7.93-1.75l3.86.857M8.48 13v3H6v-6h2.48v3m5 0v3h-2.96v-6h2.96v3M18 13v3h-2.48v-6H18v3m1.976 5.063c.04.104.026 1.792-.015 1.857-.034.053-.962.06-7.961.06-6.999 0-7.927-.007-7.961-.06-.041-.065-.055-1.753-.015-1.857C4.046 18.006 4.786 18 12 18s7.954.006 7.976.063" fill="#667085" fill-rule="evenodd"/></svg>