<svg width="24" height="24" fill="none" xmlns="http://www.w3.org/2000/svg"><path d="M15.627 2.042a2.38 2.38 0 0 0-.494.175c-.364.173-.749.54-.905.863-.207.431-.228.6-.228 1.853v1.156l-.13-.03c-.22-.05-3.961-.068-4.22-.021-.57.106-1.189.559-1.422 1.042C8.011 7.532 8 7.641 8 9.387v1.609l-2.21.012-2.21.012-.24.096c-.621.249-1.001.635-1.224 1.244l-.096.26v7.76l.096.26c.227.616.631 1.02 1.244 1.245l.26.095h16.76l.26-.095c.613-.225 1.017-.629 1.244-1.245l.096-.26V3.62l-.095-.26a1.987 1.987 0 0 0-.98-1.127c-.44-.223-.558-.232-2.925-.228-1.188.003-2.247.019-2.353.037m4.32 2.011c.037.038.069 15.515.032 15.777l-.024.17H16.002l-.015-5.89-.016-5.93.016-2.072.015-2.031.089-.037c.111-.045 3.81-.033 3.856.013m-6.01 4.01c.057.056.063.656.063 6V20h-4v-5.937c0-5.344.006-5.944.063-6C10.118 8.008 10.349 8 12 8s1.882.008 1.937.063M8 16.5V20H4.05l-.025-.125c-.042-.212-.029-6.659.014-6.772L4.078 13H8v3.5" fill="#667085" fill-rule="evenodd"/></svg>