<svg width="24" height="24" fill="none" xmlns="http://www.w3.org/2000/svg"><path d="M8.643 2.069a1.066 1.066 0 0 0-.577.591C8.005 2.839 8 3.592 8 12c0 10.264-.027 9.375.299 9.701a.984.984 0 0 0 1.402 0c.326-.326.299.563.299-9.701 0-10.264.027-9.375-.299-9.701a.998.998 0 0 0-1.058-.23m12 0a1.066 1.066 0 0 0-.577.591C20.005 2.839 20 3.592 20 12c0 10.264-.027 9.375.299 9.701a.984.984 0 0 0 1.402 0c.326-.326.299.563.299-9.701 0-10.264.027-9.375-.299-9.701a.998.998 0 0 0-1.058-.23m-18 8a1.118 1.118 0 0 0-.343.229c-.321.321-.3-.082-.3 5.702 0 5.783-.021 5.381.299 5.701a.984.984 0 0 0 1.402 0c.32-.32.299.082.299-5.701 0-5.783.021-5.381-.299-5.701a.998.998 0 0 0-1.058-.23m12 0a1.118 1.118 0 0 0-.343.229c-.321.321-.3-.082-.3 5.702 0 5.783-.021 5.381.299 5.701a.984.984 0 0 0 1.402 0c.32-.32.299.082.299-5.701 0-5.783.021-5.381-.299-5.701a.998.998 0 0 0-1.058-.23" fill="#667085" fill-rule="evenodd"/></svg>