<svg width="24" height="24" fill="none" xmlns="http://www.w3.org/2000/svg"><path d="M2.643 2.069a1.066 1.066 0 0 0-.577.591C2.005 2.839 2 3.592 2 12c0 10.264-.027 9.375.299 9.701a.984.984 0 0 0 1.402 0C4.027 21.375 4 22.264 4 12c0-10.264.027-9.375-.299-9.701a.998.998 0 0 0-1.058-.23m6 5a1.118 1.118 0 0 0-.343.229c-.324.324-.3-.262-.3 7.202 0 7.463-.024 6.878.299 7.201a.984.984 0 0 0 1.402 0c.323-.323.299.262.299-7.201 0-7.463.024-6.878-.299-7.201a.998.998 0 0 0-1.058-.23m6 5a1.118 1.118 0 0 0-.343.229c-.318.318-.3.038-.3 4.702 0 4.663-.018 4.384.299 4.701a.984.984 0 0 0 1.402 0c.317-.317.299-.038.299-4.701 0-4.663.018-4.384-.299-4.701a.998.998 0 0 0-1.058-.23m6 4a1.118 1.118 0 0 0-.343.229c-.303.303-.3.274-.3 2.702 0 2.427-.003 2.399.299 2.701a.984.984 0 0 0 1.402 0c.302-.302.299-.274.299-2.701s.003-2.399-.299-2.701a.998.998 0 0 0-1.058-.23" fill="#667085" fill-rule="evenodd"/></svg>