<svg width="24" height="24" fill="none" xmlns="http://www.w3.org/2000/svg"><path d="M9.576 2.059c-.74.161-1.318.728-1.516 1.486-.046.18-.06.482-.06 1.343V6H5.95c-1.137 0-2.156.018-2.288.039a2.34 2.34 0 0 0-.988.475 2.143 2.143 0 0 0-.559.846l-.095.26v12.76l.095.26c.225.613.629 1.017 1.245 1.244l.26.096h16.76l.26-.095c.613-.225 1.017-.629 1.244-1.245l.096-.26v-8.76l-.096-.26c-.222-.604-.612-1-1.224-1.244l-.24-.096-2.21-.012L16 9.996V6.887c0-2.643-.009-3.145-.06-3.342a2.01 2.01 0 0 0-1.535-1.487c-.372-.079-4.465-.078-4.829.001m4.385 2.021c.023.037.038 3.065.038 7.99L14 20h-4l.001-7.93c0-4.362.013-7.95.03-7.974a.212.212 0 0 1 .089-.067c.033-.013.902-.021 1.931-.016 1.615.006 1.877.015 1.91.067M8 14v6H4.045l-.024-.17c-.014-.093-.019-2.776-.013-5.961.011-5.096.019-5.796.072-5.83.036-.022.844-.038 1.99-.038L8 8v6m11.92-1.961c.053.033.061.512.072 3.83.006 2.085.001 3.868-.013 3.961l-.024.17H16v-8l1.93.001c1.146 0 1.954.016 1.99.038" fill="#667085" fill-rule="evenodd"/></svg>