<svg width="24" height="24" fill="none" xmlns="http://www.w3.org/2000/svg"><path d="M5.1 1.595a.99.99 0 0 0-.505.475c-.092.184-.095.226-.108 1.32l-.013 1.13-1.107.001c-.985.001-1.125.009-1.267.074-.385.175-.592.491-.594.906-.002.47.334.872.815.976.115.024.627.043 1.178.043h.975l.013 1.11.013 1.11.12.22a.988.988 0 0 0 1.759-.017l.121-.237.013-1.09.013-1.09 1.09-.013 1.09-.013.237-.121c.718-.366.731-1.379.022-1.748l-.214-.111H6.52v-.998c0-1.11-.027-1.315-.213-1.591-.249-.369-.799-.522-1.207-.336m7 1c-.385.175-.592.491-.593.905-.001.417.222.742.635.929.146.066.408.073 3.418.095 3.547.026 3.551.026 3.942.255.46.27.772.686.889 1.184.064.275.069.76.069 6.537s-.005 6.262-.069 6.537a1.808 1.808 0 0 1-1.394 1.365c-.445.087-2.02.115-6.497.115-4.517 0-6.044-.028-6.518-.118a2.024 2.024 0 0 1-.439-.148c-.258-.13-.664-.536-.794-.794-.199-.391-.203-.46-.227-3.917-.02-2.993-.027-3.252-.093-3.398-.117-.258-.254-.407-.476-.518a1.013 1.013 0 0 0-1.358.446l-.095.19-.012 2.78c-.013 2.814.017 3.818.128 4.34.126.588.326 1.028.694 1.522a3.787 3.787 0 0 0 2.15 1.439c.674.171 1.334.186 7.58.169 6.27-.016 6.025-.007 6.787-.248 1.175-.373 2.206-1.484 2.513-2.711.163-.652.18-1.313.18-7.051 0-5.752-.017-6.402-.182-7.05-.395-1.559-1.692-2.686-3.318-2.886-.235-.029-1.467-.044-3.56-.043-3.011.001-3.209.005-3.36.074m0 4a.99.99 0 0 0-.505.475l-.095.19v10.48l.12.22a.988.988 0 0 0 1.759-.017l.121-.237.011-5.083c.007-3.546-.003-5.146-.033-5.293-.101-.485-.492-.811-.973-.809-.15 0-.307.029-.405.074m4 4a.99.99 0 0 0-.505.475l-.095.19v6.48l.12.22a.988.988 0 0 0 1.759-.017l.121-.237.011-3.081c.008-2.125-.002-3.146-.033-3.292-.101-.489-.491-.814-.973-.812-.15 0-.307.029-.405.074m-8 2a.99.99 0 0 0-.505.475l-.095.19v4.48l.12.22a.988.988 0 0 0 1.759-.017l.121-.237.012-2.079c.008-1.413-.003-2.146-.033-2.292-.102-.491-.491-.816-.974-.814-.15 0-.307.029-.405.074" fill="#667085" fill-rule="evenodd"/></svg>