<svg width="24" height="24" fill="none" xmlns="http://www.w3.org/2000/svg"><path d="M2.643 2.066a1.074 1.074 0 0 0-.578.6c-.061.183-.066.873-.056 8.517L2.02 19.5l.112.36c.062.198.186.486.277.64.327.555.923 1.068 1.491 1.282.604.227.243.218 9.1.218 8.894 0 8.316.015 8.626-.222a1.19 1.19 0 0 0 .243-.289c.095-.161.111-.233.111-.489s-.016-.328-.111-.489a1.038 1.038 0 0 0-.539-.454c-.123-.044-1.563-.054-8.09-.056-4.618-.001-8.089-.018-8.295-.04-.407-.043-.586-.138-.764-.407-.09-.135-.111-.227-.143-.607-.021-.253-.038-3.855-.039-8.287-.003-8.475.01-7.983-.216-8.279-.245-.321-.745-.459-1.14-.315m17.392 2.565c-.26.135-.45.394-.513.699-.03.147-.04 2.032-.033 6.293l.011 6.083.121.237c.368.722 1.355.732 1.756.017l.123-.22V5.26l-.095-.19a1.01 1.01 0 0 0-1.37-.439m-4.421 2.947a1.178 1.178 0 0 0-.53.541l-.085.199.01 4.731.011 4.731.086.16c.191.352.509.548.893.55.4.002.725-.21.906-.59l.094-.2.001-4.675c0-3.469-.012-4.716-.047-4.833-.062-.205-.328-.504-.531-.597-.195-.088-.624-.097-.808-.017m-4.579 3.053c-.26.135-.45.395-.513.702-.031.146-.041 1.167-.033 3.292l.011 3.081.121.237c.368.722 1.355.732 1.756.017l.123-.22v-6.48l-.095-.19a1.01 1.01 0 0 0-1.37-.439m-4.421 2.947a1.18 1.18 0 0 0-.531.543c-.085.197-.086.234-.075 1.93.012 1.685.014 1.733.098 1.889.191.352.509.548.893.55.4.002.725-.21.906-.59l.094-.2L8 16.025c0-1.17-.014-1.723-.047-1.833-.062-.205-.328-.504-.531-.597-.195-.088-.624-.097-.808-.017" fill="#667085" fill-rule="evenodd"/></svg>