<svg width="24" height="24" fill="none" xmlns="http://www.w3.org/2000/svg"><path d="M5.643 3.069a1.118 1.118 0 0 0-.343.229C4.973 3.624 5 2.855 5 12c0 9.144-.026 8.376.299 8.701a.984.984 0 0 0 1.402 0C7.026 20.376 7 21.144 7 12s.026-8.376-.299-8.701a.998.998 0 0 0-1.058-.23m6 6a1.118 1.118 0 0 0-.343.229c-.321.321-.3-.082-.3 5.702 0 5.783-.021 5.381.299 5.701a.984.984 0 0 0 1.402 0c.32-.32.299.082.299-5.701 0-5.783.021-5.381-.299-5.701a.998.998 0 0 0-1.058-.23m6 6a1.118 1.118 0 0 0-.343.229c-.303.303-.3.274-.3 2.702 0 2.427-.003 2.399.299 2.701a.984.984 0 0 0 1.402 0c.302-.302.299-.274.299-2.701s.003-2.399-.299-2.701a.998.998 0 0 0-1.058-.23" fill="#667085" fill-rule="evenodd"/></svg>