<svg width="24" height="24" fill="none" xmlns="http://www.w3.org/2000/svg"><path d="M2.643 2.066a1.074 1.074 0 0 0-.578.6c-.061.183-.066.873-.056 8.517L2.02 19.5l.112.36c.062.198.186.486.277.64.327.555.923 1.068 1.491 1.282.604.227.243.218 9.1.218 8.894 0 8.316.015 8.626-.222a1.19 1.19 0 0 0 .243-.289c.095-.161.111-.233.111-.489s-.016-.328-.111-.489a1.038 1.038 0 0 0-.539-.454c-.123-.044-1.563-.054-8.09-.056-4.618-.001-8.089-.018-8.295-.04-.407-.043-.586-.138-.764-.407-.09-.135-.111-.227-.143-.607-.021-.253-.038-3.855-.039-8.287-.003-8.475.01-7.983-.216-8.279-.245-.321-.745-.459-1.14-.315m3.971 2.512a1.178 1.178 0 0 0-.53.541l-.085.198.011 6.232.01 6.231.086.16c.191.352.509.548.893.55.4.002.725-.21.906-.59l.094-.2L8 11.525c0-4.619-.012-6.215-.047-6.333-.062-.205-.328-.504-.531-.597-.195-.088-.624-.097-.808-.017m4.421 3.053c-.26.135-.45.394-.513.7-.03.146-.04 1.601-.033 4.792l.011 4.583.121.237c.368.722 1.355.732 1.756.017l.123-.22V8.26l-.095-.19a1.01 1.01 0 0 0-1.37-.439m4.579 2.947a1.175 1.175 0 0 0-.53.542c-.086.199-.086.204-.075 3.43.011 3.225.011 3.23.097 3.39.191.352.509.548.893.55.4.002.725-.21.906-.59l.094-.2.001-3.175c0-2.319-.013-3.218-.047-3.333-.062-.205-.328-.504-.531-.597-.195-.088-.624-.097-.808-.017m4.421 3.053c-.261.136-.45.395-.514.706-.03.145-.041.736-.033 1.793l.012 1.576.121.237c.368.722 1.355.731 1.756.017l.123-.22v-3.48l-.095-.19a1.01 1.01 0 0 0-1.37-.439" fill="#667085" fill-rule="evenodd"/></svg>