<svg width="24" height="24" fill="none" xmlns="http://www.w3.org/2000/svg"><path d="M11.48 3.062c-.55.119-1.15.524-1.433.969-.222.347-.3.654-.292 1.149.004.242.011.488.016.548.008.098-.173.243-2.169 1.733-1.651 1.232-2.198 1.62-2.26 1.604a7.553 7.553 0 0 1-.382-.127c-.396-.141-.952-.176-1.312-.083a1.958 1.958 0 0 0-.952.529 2.325 2.325 0 0 0-.619 2.225c.121.473.292.771.638 1.111.469.462.996.68 1.639.68.431 0 .683-.057 1.072-.243.54-.257.916-.662 1.096-1.18.099-.283.14-.827.088-1.148l-.038-.231 2.199-1.641 2.198-1.642.246.097c.552.219 1.143.266 1.618.129.244-.071.616-.283.789-.45l.083-.08 1.795.67 1.796.669.051.301c.095.565.311.975.688 1.313a2.426 2.426 0 0 0 1.571.596c.414 0 .668-.058 1.068-.243.264-.123.393-.216.621-.446.607-.615.834-1.432.625-2.251a2.308 2.308 0 0 0-1.533-1.639 2.388 2.388 0 0 0-2.249.384l-.242.185-1.786-.665-1.785-.665-.027-.2c-.042-.31-.196-.759-.337-.979-.498-.775-1.532-1.183-2.481-.979m.751 1.898a.46.46 0 0 1 .086.743c-.101.097-.156.117-.317.117s-.216-.02-.317-.117c-.155-.149-.196-.346-.109-.528.074-.154.277-.295.426-.295.055 0 .159.036.231.08m7.591 2.823a.436.436 0 0 1 .265.413c.003.194-.059.308-.22.406-.45.275-.938-.281-.6-.683.171-.203.33-.242.555-.136m-8.255 1.961a1.034 1.034 0 0 0-.307.233c-.231.302-.22.047-.22 5.333 0 3.7.012 4.9.049 5.025.101.344.541.665.911.665.388 0 .822-.327.913-.688.035-.139.047-1.439.047-5.025 0-5.261.01-5.008-.22-5.31-.145-.191-.467-.337-.74-.337a.89.89 0 0 0-.433.104m-7.032.871c.313.131.41.504.191.738-.334.358-.876.09-.814-.403a.484.484 0 0 1 .131-.227c.102-.102.155-.127.328-.158a.597.597 0 0 1 .164.05m14.682 1.96a.922.922 0 0 0-.494.559c-.033.12-.043 1.148-.034 3.689l.011 3.523.121.196c.407.659 1.367.58 1.694-.139.058-.129.065-.498.065-3.643 0-3.967.019-3.734-.321-4.032a.931.931 0 0 0-1.042-.153M3.98 15.414a.988.988 0 0 0-.506.533c-.043.121-.054.584-.054 2.233 0 1.835.008 2.097.065 2.223.327.719 1.287.798 1.694.139l.121-.196.012-2.103c.008-1.487-.002-2.152-.034-2.269-.144-.522-.786-.799-1.298-.56" fill="#667085" fill-rule="evenodd"/></svg>