<svg width="24" height="24" fill="none" xmlns="http://www.w3.org/2000/svg"><path d="M5.1 1.595a.99.99 0 0 0-.505.475l-.095.19-.012 1.897-.012 1.896-.688-.684c-.767-.762-.896-.847-1.288-.847-.573 0-.992.412-.993.978-.001.421.047.48 1.8 2.228C5.034 9.45 5.086 9.491 5.5 9.491c.415 0 .466-.041 2.191-1.763 1.737-1.733 1.801-1.812 1.8-2.22a.97.97 0 0 0-.989-.987c-.395.001-.523.085-1.292.85l-.69.686V4.29c0-1.12-.016-1.84-.043-1.969-.103-.48-.494-.802-.972-.8-.15 0-.307.029-.405.074m7 1c-.385.175-.592.491-.593.905-.001.417.222.742.635.929.146.066.408.073 3.418.095 3.547.026 3.551.026 3.942.255.46.27.772.686.889 1.184.064.275.069.76.069 6.537s-.005 6.262-.069 6.537a1.808 1.808 0 0 1-1.394 1.365c-.445.087-2.02.115-6.497.115-4.517 0-6.044-.028-6.518-.118a2.024 2.024 0 0 1-.439-.148c-.258-.13-.664-.536-.794-.794-.199-.391-.203-.46-.227-3.917-.02-2.993-.027-3.252-.093-3.398-.117-.258-.254-.407-.476-.518a1.013 1.013 0 0 0-1.358.446l-.095.19-.012 2.78c-.013 2.814.017 3.818.128 4.34.126.588.326 1.028.694 1.522a3.787 3.787 0 0 0 2.15 1.439c.674.171 1.334.186 7.58.169 6.27-.016 6.025-.007 6.787-.248 1.175-.373 2.206-1.484 2.513-2.711.163-.652.18-1.313.18-7.051 0-5.752-.017-6.402-.182-7.05-.395-1.559-1.692-2.686-3.318-2.886-.235-.029-1.467-.044-3.56-.043-3.011.001-3.209.005-3.36.074m0 4a.99.99 0 0 0-.505.475l-.095.19v10.48l.12.22a.988.988 0 0 0 1.759-.017l.121-.237.011-5.083c.007-3.546-.003-5.146-.033-5.293-.101-.485-.492-.811-.973-.809-.15 0-.307.029-.405.074m4 4a.99.99 0 0 0-.505.475l-.095.19v6.48l.12.22a.988.988 0 0 0 1.759-.017l.121-.237.011-3.081c.008-2.125-.002-3.146-.033-3.292-.101-.489-.491-.814-.973-.812-.15 0-.307.029-.405.074m-8 2a.99.99 0 0 0-.505.475l-.095.19v4.48l.12.22a.988.988 0 0 0 1.759-.017l.121-.237.012-2.079c.008-1.413-.003-2.146-.033-2.292-.102-.491-.491-.816-.974-.814-.15 0-.307.029-.405.074" fill="#667085" fill-rule="evenodd"/></svg>