<svg width="24" height="24" fill="none" xmlns="http://www.w3.org/2000/svg"><path d="M11.041 1.045c-1.47.13-2.98.585-4.26 1.283-.985.538-1.77 1.13-2.583 1.947-1.682 1.693-2.712 3.742-3.086 6.145-.073.467-.087.73-.087 1.58 0 .85.014 1.113.087 1.58.378 2.425 1.41 4.467 3.125 6.183 1.716 1.715 3.758 2.747 6.183 3.125.809.126 2.351.126 3.16 0 2.413-.376 4.471-1.417 6.181-3.127.923-.923 1.563-1.811 2.116-2.941a10.92 10.92 0 0 0 0-9.64 11.163 11.163 0 0 0-3.826-4.353 11.032 11.032 0 0 0-7.01-1.782m2.279 2.057a9.023 9.023 0 0 1 5.664 3.218c.816 1.005 1.483 2.358 1.771 3.6.167.718.222 1.229.222 2.08 0 1.511-.264 2.654-.917 3.98-.896 1.818-2.252 3.179-4.067 4.079a8.986 8.986 0 0 1-6.453.597C7.08 19.955 5.103 18.309 3.946 16c-.642-1.283-.923-2.498-.923-4 0-1.502.281-2.717.923-4 .91-1.819 2.235-3.143 4.056-4.055 1.025-.514 2.001-.783 3.338-.921.324-.033 1.573.016 1.98.078m-1.677 2.967a1.118 1.118 0 0 0-.343.229c-.321.321-.3-.082-.3 5.702 0 5.783-.021 5.381.299 5.701a.984.984 0 0 0 1.402 0c.32-.32.299.082.299-5.701 0-5.783.021-5.381-.299-5.701a.998.998 0 0 0-1.058-.23m4 4a1.118 1.118 0 0 0-.343.229c-.313.313-.3.157-.3 3.702 0 3.544-.013 3.39.299 3.701.18.18.459.299.701.299.242 0 .521-.119.701-.299.312-.311.299-.157.299-3.701s.013-3.39-.299-3.701a.998.998 0 0 0-1.058-.23m-8 2a1.118 1.118 0 0 0-.343.229c-.303.303-.3.274-.3 2.702 0 2.427-.003 2.399.299 2.701a.984.984 0 0 0 1.402 0C9.003 17.399 9 17.427 9 15s.003-2.399-.299-2.701a.998.998 0 0 0-1.058-.23" fill="#667085" fill-rule="evenodd"/></svg>