<svg width="24" height="24" fill="none" xmlns="http://www.w3.org/2000/svg"><path d="M3.558 2.055c-.52.111-1.109.566-1.33 1.025C1.985 3.585 2 3.008 2 12c0 7.252.007 8.251.061 8.462.194.755.794 1.34 1.531 1.494.3.062 16.516.062 16.816 0 .546-.114 1.135-.562 1.364-1.036.236-.491.228-.316.228-4.92s.008-4.429-.228-4.92c-.232-.481-.844-.937-1.389-1.037-.151-.027-.999-.043-2.31-.043H16V8.888c0-1.204-.022-1.38-.228-1.808-.232-.481-.844-.937-1.389-1.037-.151-.027-.999-.043-2.31-.043H10V4.888c0-1.204-.022-1.38-.228-1.808-.232-.481-.844-.937-1.389-1.037-.342-.062-4.529-.052-4.825.012m4.401 2.022c.028.053.041 2.616.041 8V20H6.024c-1.764 0-1.978-.007-2-.063C4.011 19.902 4 16.324 4 11.985c0-6.083.011-7.9.048-7.937C4.084 4.012 4.574 4 6.007 4c1.848 0 1.912.003 1.952.077m6 4c.028.053.041 1.994.041 6V20h-4V8h1.959c1.895 0 1.96.002 2 .077m6 4c.044.084.06 7.668.016 7.833l-.024.09H16v-8h1.959c1.895 0 1.96.002 2 .077" fill="#667085" fill-rule="evenodd"/></svg>