<svg width="24" height="24" fill="none" xmlns="http://www.w3.org/2000/svg"><path d="M12.24 2.037a1.05 1.05 0 0 0-.488.315.97.97 0 0 0 .062 1.359c.325.299.16.285 3.646.303 3.244.016 3.534.03 3.898.19.492.217.912.719 1.032 1.236.065.279.07.744.07 6.56 0 7.125.023 6.622-.327 7.134-.317.465-.701.7-1.293.793-.491.077-12.176.078-12.68.001-.597-.091-1.088-.413-1.374-.902-.235-.401-.237-.424-.262-3.986-.027-3.621-.01-3.415-.296-3.714-.213-.222-.409-.304-.728-.304-.331 0-.529.088-.748.33-.262.29-.252.143-.25 3.668.001 2.817.009 3.25.069 3.615.14.854.447 1.483 1.018 2.086.709.748 1.471 1.119 2.539 1.236.533.059 12.145.059 12.718.001 1.057-.108 1.841-.478 2.524-1.193.635-.664.94-1.305 1.078-2.265.076-.525.076-12.475 0-13-.1-.694-.314-1.275-.653-1.767a4.835 4.835 0 0 0-1.057-1.036c-.621-.413-1.127-.58-1.978-.656-.532-.047-6.367-.05-6.52-.004m-10 2a1.046 1.046 0 0 0-.488.315c-.445.493-.272 1.265.348 1.554l.2.093h6.4l.2-.093a.994.994 0 0 0 .043-1.799L8.78 4.02l-3.22-.007c-1.771-.004-3.265.007-3.32.024m10 1.998c-.311.102-.589.358-.685.63-.082.231-.082 10.439 0 10.67.127.361.559.664.945.664.386 0 .818-.303.945-.664.082-.231.082-10.439 0-10.67-.07-.199-.295-.448-.499-.552-.175-.089-.547-.13-.706-.078m4 4c-.311.102-.589.358-.685.63-.045.126-.055.744-.055 3.335 0 3.507-.01 3.357.255 3.652a.984.984 0 0 0 1.49 0c.265-.295.255-.145.255-3.652 0-2.591-.01-3.209-.055-3.335-.07-.199-.295-.448-.499-.552-.175-.089-.547-.13-.706-.078m-8 2c-.311.102-.589.358-.685.63-.044.124-.055.591-.055 2.335s.011 2.211.055 2.335c.127.361.559.664.945.664.386 0 .818-.303.945-.664.081-.227.081-4.443 0-4.67-.07-.199-.295-.448-.499-.552-.175-.089-.547-.13-.706-.078" fill="#667085" fill-rule="evenodd"/></svg>