<svg width="24" height="24" fill="none" xmlns="http://www.w3.org/2000/svg"><path d="M4.9 5.026c-.973.077-1.532.256-2.2.707-.581.391-1.181 1.16-1.419 1.818-.262.722-.261.712-.261 4.449 0 3.039.007 3.417.069 3.746.101.532.281.989.556 1.416.595.92 1.488 1.523 2.582 1.746.33.067.734.072 6.273.072s5.943-.005 6.273-.072c.988-.201 1.832-.722 2.398-1.48.402-.539.601-.985.737-1.656.066-.322.072-.641.072-3.772 0-3.139-.006-3.449-.072-3.775-.235-1.153-.871-2.062-1.854-2.648-.551-.329-1.01-.464-1.818-.536-.408-.036-10.894-.05-11.336-.015M15.801 7.04c.341.022.723.066.85.099.554.145 1.068.659 1.209 1.21.104.404.139 1.328.139 3.651 0 2.32-.035 3.247-.138 3.649-.139.543-.637 1.052-1.181 1.208-.438.125-1.172.142-6.18.142s-5.742-.017-6.18-.142c-.543-.156-1.039-.662-1.181-1.206C3.038 15.262 3 14.271 3 12c0-2.274.038-3.262.14-3.652.103-.397.416-.8.811-1.044.239-.148.575-.225 1.142-.261.732-.047 9.982-.049 10.708-.003M9.886 8.043a1.084 1.084 0 0 0-.536.39c-.295.448-1.791 3.211-1.828 3.377a.948.948 0 0 0 .285.896c.291.274.281.272 1.697.294l1.285.02-.259.46c-.605 1.074-.69 1.261-.689 1.51.001.26.104.526.271.704.363.383 1.037.398 1.403.031.173-.174 1.895-3.259 1.964-3.519.081-.304-.036-.677-.286-.912-.291-.274-.281-.272-1.697-.294l-1.285-.02.259-.46c.604-1.072.69-1.261.69-1.51a1.014 1.014 0 0 0-.571-.916c-.152-.078-.525-.105-.703-.051m11.757 2.024a1.082 1.082 0 0 0-.577.593c-.098.288-.098 2.392 0 2.68.138.405.587.692 1.017.651.395-.038.776-.344.875-.702.024-.087.042-.626.042-1.289 0-.663-.018-1.202-.042-1.289-.144-.52-.789-.836-1.315-.644" fill="#667085" fill-rule="evenodd"/></svg>