<svg width="24" height="24" fill="none" xmlns="http://www.w3.org/2000/svg"><path d="M4.692 5.043c-.839.077-1.499.324-2.126.797-.698.526-1.233 1.341-1.424 2.166-.13.563-.148 1.134-.131 4.314.014 2.712.025 3.184.082 3.467.195.964.728 1.823 1.479 2.384.539.402.985.601 1.656.737.329.067.736.072 6.272.072 5.549 0 5.942-.005 6.275-.072 1.635-.333 2.8-1.498 3.133-3.133.066-.326.072-.636.072-3.775 0-3.782.004-3.719-.263-4.456-.371-1.024-1.365-1.978-2.417-2.317-.637-.206-.454-.2-6.56-.209-3.124-.005-5.845.006-6.048.025M15.78 7.04c.352.021.743.066.87.099.555.145 1.069.659 1.21 1.21.104.403.139 1.326.139 3.631.001 2.299-.037 3.32-.136 3.691-.105.393-.455.821-.872 1.065-.411.241-.301.236-6.111.253-5.341.016-6.069.002-6.551-.126-.531-.141-1.048-.668-1.19-1.213-.1-.382-.138-1.399-.138-3.65 0-2.257.038-3.268.139-3.654.103-.394.412-.789.819-1.046.232-.146.577-.223 1.156-.258.759-.045 9.922-.048 10.665-.002M6.24 9.035c-.311.102-.589.358-.685.63-.044.124-.055.591-.055 2.335 0 2.409-.004 2.364.255 2.652.387.429.98.462 1.406.079.349-.313.339-.234.339-2.731 0-1.744-.011-2.211-.055-2.335-.07-.199-.295-.448-.499-.552-.175-.089-.547-.13-.706-.078m15.427 1.028c-.252.08-.513.339-.601.597-.094.276-.098 2.399-.005 2.662.085.241.23.418.45.547.161.095.233.111.489.111s.328-.016.489-.111c.213-.125.375-.318.454-.539.067-.187.08-2.387.015-2.619-.142-.512-.755-.82-1.291-.648" fill="#667085" fill-rule="evenodd"/></svg>