<svg width="24" height="24" fill="none" xmlns="http://www.w3.org/2000/svg"><path d="M4.9 5.026c-.973.077-1.532.256-2.2.707-.581.391-1.181 1.16-1.419 1.818-.262.724-.261.701-.261 4.549v3.48l.094.355c.394 1.49 1.452 2.554 2.93 2.945.28.074.479.093 1.187.11.939.022 1.102-.001 1.368-.194.086-.062.206-.199.268-.304.097-.165.113-.235.113-.492 0-.256-.016-.328-.111-.489-.244-.416-.495-.511-1.344-.511a7.74 7.74 0 0 1-.884-.043c-.682-.11-1.273-.616-1.532-1.31-.083-.222-.086-.292-.1-2.947-.016-2.797.018-3.922.13-4.35.145-.555.656-1.066 1.209-1.21.29-.076 1.267-.14 2.137-.14.893 0 1.136-.09 1.384-.511.095-.161.111-.233.111-.489s-.016-.328-.111-.489a1.19 1.19 0 0 0-.243-.289c-.269-.206-.39-.223-1.521-.215-.575.003-1.117.012-1.205.019m6.34.009a1.086 1.086 0 0 0-.465.292c-.161.171-4.126 6.122-4.205 6.31-.079.19-.076.547.006.743.084.199.274.4.484.514.158.085.192.086 2.35.097 1.205.007 2.19.02 2.19.03 0 .01-.682 1.042-1.515 2.293-1.646 2.469-1.652 2.479-1.564 2.871.054.241.124.368.286.521.394.37.948.387 1.344.039.078-.069 1.073-1.522 2.211-3.229 2.245-3.368 2.207-3.301 2.117-3.701-.054-.241-.124-.368-.286-.521-.306-.287-.172-.273-2.603-.285-1.204-.007-2.19-.02-2.19-.03 0-.01.682-1.042 1.515-2.293 1.646-2.469 1.652-2.479 1.564-2.871a1.448 1.448 0 0 0-.097-.289c-.073-.14-.289-.34-.458-.426-.155-.078-.534-.114-.684-.065m3.403.034C14.291 5.193 14 5.614 14 6c0 .242.119.521.299.701.242.242.446.299 1.078.3 1.163.001 1.545.114 2.027.595.349.35.508.678.558 1.155.049.469.047 5.359-.003 6.089a6.507 6.507 0 0 1-.098.809c-.139.543-.637 1.052-1.181 1.208-.313.089-1.049.142-2.003.142-.959.001-1.112.034-1.378.3a.984.984 0 0 0 .001 1.403c.297.297.387.31 1.894.287 1.434-.023 1.717-.059 2.329-.297.977-.381 1.858-1.288 2.211-2.28.248-.696.246-.656.246-4.472 0-3.256-.005-3.501-.075-3.8a4.027 4.027 0 0 0-1.678-2.457 5.347 5.347 0 0 0-1.167-.537c-.575-.153-2.066-.201-2.417-.077m7 4.998a1.082 1.082 0 0 0-.577.593c-.098.288-.098 2.392 0 2.68.138.405.587.692 1.017.651.395-.038.776-.344.875-.702.024-.087.042-.626.042-1.289 0-.663-.018-1.202-.042-1.289-.144-.52-.789-.836-1.315-.644" fill="#667085" fill-rule="evenodd"/></svg>