<svg width="24" height="24" fill="none" xmlns="http://www.w3.org/2000/svg"><path d="M8.24 1.037a1.046 1.046 0 0 0-.488.315c-.445.493-.272 1.265.348 1.554.161.075.268.093.55.094H9v3.564l-.13.045c-.293.103-1.157.559-1.55.819-2.047 1.355-3.37 3.444-3.743 5.912-.088.584-.087 1.725.001 2.32.317 2.13 1.364 4.006 2.993 5.367a8.467 8.467 0 0 0 10.858 0c1.628-1.36 2.676-3.239 2.993-5.367.088-.591.088-1.734 0-2.32-.368-2.461-1.696-4.558-3.742-5.912-.393-.26-1.257-.716-1.55-.819L15 6.564V3h.35c.282-.001.389-.019.55-.094a.994.994 0 0 0 .043-1.799l-.163-.087-3.72-.007c-2.046-.004-3.765.007-3.82.024m4.769 4.093.011 2.13.106.227c.126.267.384.561.612.693.089.053.297.144.462.203a6.584 6.584 0 0 1 3.958 4.045c.255.76.298 1.059.298 2.072 0 .801-.012.971-.088 1.314-.586 2.626-2.487 4.507-5.128 5.071-.358.077-.542.09-1.24.09s-.882-.013-1.24-.09c-2.641-.564-4.542-2.445-5.128-5.071-.076-.343-.088-.513-.088-1.314s.012-.971.088-1.314c.198-.89.58-1.762 1.079-2.465A7.429 7.429 0 0 1 8.2 9.231c.436-.308 1.163-.694 1.6-.849.165-.059.373-.149.462-.202.228-.132.486-.426.612-.693l.106-.227.011-2.13.012-2.13h1.994l.012 2.13" fill="#667085" fill-rule="evenodd"/></svg>