<svg width="24" height="24" fill="none" xmlns="http://www.w3.org/2000/svg"><path d="M7.655 1.038c-.426.102-.793.406-1.004.833l-.151.305v3.648l.151.305c.25.506.708.831 1.172.831h.18l-.011 2.19c-.012 2.156-.013 2.192-.098 2.35a1.375 1.375 0 0 1-.212.28c-.069.066-1.182 1.002-2.473 2.08-1.515 1.264-2.415 2.044-2.536 2.195-.23.287-.435.671-.557 1.045-.087.267-.092.349-.105 1.712-.015 1.517.006 1.787.156 1.997a.934.934 0 0 1 .118.342c.031.233.037.24.681.883.643.644.65.65.883.681.12.016.272.068.338.116.067.047.2.104.297.126.243.056 14.789.056 15.032 0 .097-.022.23-.079.297-.126a.893.893 0 0 1 .338-.116c.232-.031.234-.033.864-.661.64-.637.669-.675.7-.905a.955.955 0 0 1 .118-.34c.15-.21.172-.483.156-1.979-.016-1.576-.024-1.634-.307-2.21a3.613 3.613 0 0 0-.35-.56c-.126-.156-1.019-.929-2.541-2.2a248.761 248.761 0 0 1-2.473-2.08 1.375 1.375 0 0 1-.212-.28c-.085-.158-.086-.194-.098-2.35l-.011-2.19h.18c.464 0 .922-.325 1.172-.831l.151-.305.013-1.662c.009-1.15-.002-1.735-.034-1.901a1.506 1.506 0 0 0-.67-1.014c-.406-.258-.196-.247-4.826-.243-2.312.002-4.259.018-4.328.034M15.48 4v1H8.52V3h6.96v1m-1.471 5.31.012 2.31.109.32c.144.422.381.84.63 1.113.111.121.933.83 1.825 1.574l1.623 1.353-3.104.01c-1.707.006-4.501.006-6.208 0l-3.104-.01 1.623-1.353c.892-.744 1.714-1.453 1.825-1.574.249-.273.486-.691.63-1.113l.109-.32.012-2.31.013-2.31h3.992l.013 2.31m5.294 8.749a.942.942 0 0 1 .579.485c.081.167.089.238.083.77-.008.726-.042.945-.18 1.182-.128.217-.326.359-.605.432-.3.078-14.064.077-14.369-.002a.946.946 0 0 1-.635-.495c-.096-.189-.109-.268-.134-.827-.04-.897.02-1.144.341-1.389.288-.22-.085-.209 7.6-.212 6.159-.003 7.149.005 7.32.056" fill="#667085" fill-rule="evenodd"/></svg>