<svg width="24" height="24" fill="none" xmlns="http://www.w3.org/2000/svg"><path d="M11.42 1.059c-1.28.237-2.335 1.266-2.667 2.601-.124.498-.121 1.222.006 1.68.049.176.098.356.108.4.015.067-.045.111-.374.274-.568.28-1.009.586-1.392.966a6.068 6.068 0 0 0-1.721 3.3c-.032.187-.076.763-.098 1.28-.045 1.052-.108 1.549-.287 2.28-.221.901-.425 1.373-1.153 2.66a30.42 30.42 0 0 0-.653 1.218c-.229.467-.244.515-.241.767.008.523.199.927.57 1.21.379.288.3.28 2.697.303l2.154.022.109.32c.453 1.329 1.533 2.319 2.818 2.584 1.798.371 3.593-.726 4.226-2.584l.109-.32 2.154-.022c2.397-.023 2.318-.015 2.697-.303.371-.283.562-.687.57-1.21.003-.252-.012-.3-.241-.767a30.42 30.42 0 0 0-.653-1.218c-.728-1.287-.932-1.759-1.153-2.66-.179-.731-.242-1.228-.287-2.28a15.055 15.055 0 0 0-.098-1.28 6.082 6.082 0 0 0-1.712-3.293c-.375-.375-.831-.692-1.401-.973-.329-.163-.389-.207-.374-.274.01-.044.059-.224.108-.4.127-.458.13-1.182.006-1.68-.443-1.782-2.115-2.918-3.827-2.601m1.206 2.101c.279.137.519.382.652.665.111.236.176.591.145.787-.029.182-.204.543-.277.571-.028.011-.202-.017-.388-.062-.551-.133-.838-.142-1.318-.039-.611.131-.599.133-.728-.102a1.032 1.032 0 0 1-.118-.748c.182-.983 1.163-1.5 2.032-1.072m-7.986.685c-.242.072-.806.479-1.16.836-.926.934-1.452 2.176-1.458 3.439-.002.575.049.723.336.969.382.327.888.306 1.246-.05.227-.226.301-.441.331-.959.025-.446.131-.82.35-1.244.243-.469.542-.792 1.069-1.154.34-.234.5-.517.497-.877-.007-.66-.611-1.14-1.211-.96m14.19.003c-.203.054-.525.351-.609.562-.108.269-.091.597.046.865.093.181.17.262.394.416.868.595 1.348 1.412 1.404 2.389.03.518.104.733.331.959.358.356.864.377 1.246.05.287-.246.338-.394.336-.969-.007-1.561-.863-3.162-2.144-4.011-.45-.298-.659-.352-1.004-.261m-5.761 3.269c.984.202 1.766.607 2.458 1.274.559.539.931 1.147 1.109 1.813.106.394.118.508.165 1.536.056 1.231.184 2.072.458 2.997.274.928.517 1.476 1.177 2.663l.323.58-3.38.01c-1.858.006-4.9.006-6.759 0l-3.381-.01.325-.58c.646-1.153.902-1.732 1.177-2.663.277-.938.403-1.772.459-3.037.022-.506.06-1.037.085-1.18.165-.941.776-1.88 1.655-2.54.641-.482 1.573-.832 2.54-.955.315-.04 1.193.011 1.589.092m.338 13.053c-.183.266-.544.584-.797.702-.199.094-.281.108-.611.108-.348 0-.403-.011-.64-.128a2.177 2.177 0 0 1-.765-.682l-.118-.17h3.048l-.117.17" fill="#667085" fill-rule="evenodd"/></svg>