<svg width="24" height="24" fill="none" xmlns="http://www.w3.org/2000/svg"><path d="M11.24 1.045a7.657 7.657 0 0 0-3.48 1.304c-.49.347-1.346 1.203-1.69 1.691-.447.632-.861 1.544-1.072 2.36-.11.425-.163.921-.198 1.844-.056 1.516-.194 2.481-.502 3.525-.285.968-.606 1.631-1.379 2.851a24.709 24.709 0 0 0-.73 1.219l-.198.379.017.341c.02.421.137.7.406.968.259.259.536.386.948.434.457.052 16.819.052 17.276 0 .406-.047.684-.172.943-.424.271-.263.394-.558.412-.98l.014-.342-.198-.381a20.694 20.694 0 0 0-.683-1.146c-.899-1.419-1.204-2.071-1.508-3.228-.263-1.003-.363-1.779-.418-3.244-.02-.548-.064-1.146-.097-1.33-.275-1.515-.956-2.794-2.049-3.846a6.671 6.671 0 0 0-1.748-1.24 7.266 7.266 0 0 0-4.066-.755m-7.665.416c-.609.318-1.304.948-1.703 1.544-.538.806-.807 1.601-.859 2.535-.022.399-.015.459.066.65.166.384.52.619.941.622.288.002.541-.099.737-.295.205-.205.273-.402.318-.919.089-1.026.551-1.778 1.462-2.381.296-.196.379-.275.478-.453a.914.914 0 0 0 .004-.92c-.195-.357-.487-.524-.915-.524-.218 0-.301.022-.529.141m15.831-.037c-.398.199-.619.639-.53 1.055.07.326.208.5.596.749.89.572 1.355 1.336 1.452 2.383.024.253.073.519.112.609.16.363.533.596.944.591.395-.006.73-.206.912-.547.076-.142.088-.226.087-.624-.004-1.674-1.065-3.403-2.568-4.186-.341-.178-.687-.188-1.005-.03m-6.329 1.695c.977.2 1.895.695 2.597 1.398.398.398.687.8.942 1.308.38.758.451 1.103.523 2.558.064 1.293.132 1.916.304 2.779a11.865 11.865 0 0 0 1.676 4.178l.404.64-3.762.01c-2.068.006-5.452.006-7.519 0l-3.759-.01.402-.64a12.016 12.016 0 0 0 1.691-4.26c.157-.794.221-1.388.266-2.46.063-1.528.164-2.037.558-2.82.753-1.498 2.216-2.525 3.928-2.756.441-.059 1.267-.024 1.749.075M9 20.037a1.058 1.058 0 0 0-.698.688c-.077.26-.077.29.001.552.08.271.281.489.741.804 1.746 1.196 4.09 1.22 5.835.059.648-.43.858-.71.858-1.14a.99.99 0 0 0-.912-.988 1.006 1.006 0 0 0-.732.209c-.776.562-1.36.779-2.093.779-.733 0-1.317-.217-2.093-.778-.282-.205-.617-.273-.907-.185" fill="#667085" fill-rule="evenodd"/></svg>