<svg width="24" height="24" fill="none" xmlns="http://www.w3.org/2000/svg"><path d="M11.58 1.024c-1.318.195-2.411 1.061-2.859 2.265a3.516 3.516 0 0 0-.018 2.367c.123.352.265.593.494.838.246.263.452.398.763.498.406.131.587.141 1.225.067 1.245-.143 2.271.018 3.316.52 1.202.579 2.084 1.59 2.384 2.733.062.236.088.514.113 1.188.038 1.019.065 1.126.362 1.393.572.514 1.425.256 1.641-.496.062-.215-.024-1.869-.121-2.327-.223-1.062-.742-2.028-1.536-2.862-.476-.499-.86-.779-1.539-1.124l-.557-.283.093-.292a3.46 3.46 0 0 0-.477-3.008 3.506 3.506 0 0 0-2.724-1.48 5.216 5.216 0 0 0-.56.003M2.664 3.063a1.005 1.005 0 0 0-.533.448c-.095.161-.111.233-.111.489 0 .245.018.331.097.47.067.117.704.709 2.028 1.886l1.93 1.715-.184.294C5.324 9.272 5 10.312 5 11.221c0 1.198-.213 2.454-.584 3.448-.194.518-.336.795-.908 1.771-.264.451-.59 1.027-.724 1.28l-.244.46.003.34c.002.283.021.382.115.589.165.366.525.688.92.823.075.026.979.05 2.375.065l2.253.023.08.24C8.825 21.881 10.342 23 12 23s3.175-1.119 3.714-2.74l.08-.24 1.853-.009 1.853-.009.47.418c.593.528.65.558 1.03.559.258.001.327-.015.492-.112.469-.276.643-.885.384-1.346-.063-.112-2.74-2.516-8.831-7.931C2.42 2.146 3.544 3.13 3.303 3.059c-.243-.072-.435-.071-.639.004m9.951.069c.295.136.546.376.707.677.108.204.136.306.15.559.016.281.007.332-.095.534a1.362 1.362 0 0 1-.142.241c-.016.01-.251-.018-.522-.063-.561-.091-.929-.097-1.607-.027l-.475.05-.045-.102c-.025-.055-.046-.29-.046-.521.001-.382.011-.439.112-.631.212-.405.542-.682.945-.797.278-.079.752-.041 1.018.08m-.083 10.682L17.245 18H4.911l.058-.09c.032-.05.244-.41.47-.802 1.058-1.831 1.458-3.26 1.56-5.578.027-.623.056-.9.116-1.11.088-.307.246-.685.374-.893l.081-.133.125.117c.069.065 2.246 2.001 4.837 4.303m1.028 6.212c0 .08-.36.483-.567.636-.763.562-1.797.391-2.39-.393a1.494 1.494 0 0 1-.163-.243c0-.014.702-.026 1.56-.026.858 0 1.56.012 1.56.026" fill="#667085" fill-rule="evenodd"/></svg>