<svg width="24" height="24" fill="none" xmlns="http://www.w3.org/2000/svg"><path d="M11.22 1.047c-.198.02-.566.082-.817.138-2.607.582-4.668 2.521-5.345 5.027-.168.622-.219 1.047-.258 2.128-.051 1.444-.177 2.331-.483 3.399-.277.966-.607 1.646-1.437 2.961-.692 1.097-.88 1.478-.88 1.783 0 .385.129.719.384.995.281.303.531.426.975.481.468.057 16.814.057 17.282 0 .444-.055.694-.178.975-.481a1.42 1.42 0 0 0 .384-.995c0-.306-.188-.686-.88-1.783-.871-1.38-1.222-2.125-1.496-3.186-.285-1.099-.374-1.763-.424-3.174-.057-1.587-.221-2.342-.737-3.382C17.141 2.295 14.262.74 11.22 1.047m1.86 2.072c2.355.483 4.036 2.522 4.04 4.901.002 1.005.144 2.373.341 3.289.328 1.522.823 2.725 1.674 4.071l.38.6-3.758.01c-2.066.006-5.448.006-7.514 0l-3.758-.01.38-.6c1.05-1.66 1.601-3.21 1.872-5.26.074-.555.143-1.591.143-2.139.001-1.318.533-2.561 1.505-3.518.785-.773 1.803-1.259 2.975-1.422.408-.057 1.245-.019 1.72.078m-4.135 16.94c-.474.169-.767.668-.663 1.131.078.347.259.553.82.931 1.75 1.181 4.094 1.165 5.855-.041.398-.273.619-.494.713-.714.078-.185.079-.544.002-.726a1.064 1.064 0 0 0-.84-.627 1.006 1.006 0 0 0-.739.208c-.776.562-1.36.779-2.093.779-.733 0-1.317-.217-2.093-.778-.306-.222-.639-.278-.962-.163" fill="#667085" fill-rule="evenodd"/></svg>