<svg width="24" height="24" fill="none" xmlns="http://www.w3.org/2000/svg"><path d="M11.12 1.044a6.997 6.997 0 0 0-2.345.673c-1.757.846-3.026 2.276-3.635 4.094-.259.775-.379 1.587-.38 2.569-.002 1.682-.397 3.521-1.039 4.84-.129.264-.465.849-.746 1.3a23.43 23.43 0 0 0-.744 1.271c-.203.395-.231.479-.231.68.001.485.205.916.56 1.183.282.213.407.261.786.305.496.057 16.596.056 17.055-.001.186-.023.415-.078.508-.123.254-.122.554-.413.668-.647.126-.261.197-.69.149-.903-.051-.226-.355-.784-.954-1.746-.589-.949-.784-1.318-1.037-1.966-.358-.914-.592-1.976-.709-3.218-.065-.685-.116-.838-.352-1.061-.223-.209-.383-.272-.694-.273-.235 0-.314.018-.49.116-.415.229-.55.526-.511 1.123.085 1.315.379 2.735.807 3.892.223.605.646 1.453 1.04 2.089.199.319.383.621.409.67l.048.089h-7.406c-6.786 0-7.403-.005-7.381-.064.014-.036.172-.301.352-.59.641-1.032 1.028-1.878 1.35-2.952.381-1.271.538-2.327.601-4.034.037-1.003.09-1.404.247-1.879a5.201 5.201 0 0 1 1.773-2.469c.153-.114.454-.3.669-.412.94-.492 1.863-.665 2.988-.559.516.048.571.047.747-.02.523-.2.772-.723.608-1.276-.073-.245-.369-.525-.637-.601-.449-.128-1.41-.175-2.074-.1m3.52 2.993a1.058 1.058 0 0 0-.698.688c-.077.259-.077.291 0 .55.073.244.279.492.515.618l.163.087 3.257.011c3.678.012 3.509.025 3.824-.29.538-.538.285-1.473-.449-1.659-.195-.049-6.451-.054-6.612-.005m-5.72 16a1.058 1.058 0 0 0-.698.688c-.077.26-.077.29.001.553.182.611 1.409 1.361 2.669 1.631.413.088 1.476.097 1.888.016a5.422 5.422 0 0 0 2.172-.965c.472-.359.588-.547.588-.957 0-.26-.016-.33-.113-.495a1.035 1.035 0 0 0-1.012-.494c-.221.031-.364.104-.694.358a3.323 3.323 0 0 1-1.081.534c-.195.054-.396.072-.8.071-.497-.002-.569-.012-.903-.126a3.285 3.285 0 0 1-1.028-.559c-.333-.256-.685-.347-.989-.255" fill="#667085" fill-rule="evenodd"/></svg>