<svg width="24" height="24" fill="none" xmlns="http://www.w3.org/2000/svg"><path d="M11.353 1.06a3.345 3.345 0 0 0-1.053.349c-1.234.61-1.983 1.777-1.983 3.088 0 .433.033.644.168 1.056.046.138.077.257.069.264a11.02 11.02 0 0 1-.426.197c-.796.357-1.278.685-1.828 1.245a6.027 6.027 0 0 0-1.354 2.103c-.223.603-.308 1.102-.347 2.058-.052 1.24-.173 1.986-.464 2.866-.202.609-.529 1.242-1.173 2.274C2.216 17.756 2 18.18 2 18.452c0 .822.553 1.422 1.394 1.51.19.02 1.303.037 2.473.037L7.994 20l.068.21c.037.116.15.371.251.567.521 1.019 1.471 1.774 2.627 2.088.36.098.466.109 1.06.109.594 0 .7-.011 1.06-.109 1.156-.314 2.106-1.069 2.627-2.088.101-.196.214-.451.251-.567l.068-.21 2.127-.001c2.344 0 2.717-.022 3.013-.172.51-.259.804-.697.843-1.253l.021-.315-.218-.419a31.08 31.08 0 0 0-.813-1.38c-.672-1.087-.91-1.558-1.134-2.243-.279-.85-.392-1.566-.444-2.797-.04-.956-.124-1.455-.347-2.058a5.99 5.99 0 0 0-1.356-2.103c-.556-.565-1.03-.888-1.826-1.245a11.02 11.02 0 0 1-.426-.197c-.008-.007.023-.126.069-.264.254-.777.231-1.512-.074-2.321-.184-.491-.67-1.108-1.153-1.466a3.845 3.845 0 0 0-2.935-.706m1.069 2.002c.445.116.804.397 1.003.787.084.163.113.286.127.537.016.299.008.342-.094.53a1.327 1.327 0 0 1-.161.247c-.035.029-.206.011-.574-.061-.652-.127-.794-.127-1.446 0-.368.072-.539.09-.574.061a1.327 1.327 0 0 1-.161-.247c-.102-.187-.11-.231-.094-.53.013-.234.044-.377.11-.506.348-.684 1.104-1.016 1.864-.818m.238 3.979c1.054.117 1.922.419 2.699.937.716.477 1.239 1.053 1.561 1.717.258.533.32.845.361 1.805.101 2.361.542 3.832 1.72 5.736.223.361.415.68.427.71.017.045-1.192.054-7.428.054-6.654 0-7.446-.006-7.425-.061.013-.033.22-.381.46-.773.664-1.082.944-1.685 1.222-2.636.291-.995.407-1.762.462-3.05.042-.969.095-1.23.363-1.787.325-.675.857-1.255 1.594-1.738.795-.521 1.593-.787 2.784-.929.26-.031.858-.023 1.2.015m.894 13.127C13.112 20.726 12.6 21 12 21c-.6 0-1.112-.274-1.554-.832L10.313 20h3.374l-.133.168" fill="#667085" fill-rule="evenodd"/></svg>