<svg width="24" height="24" fill="none" xmlns="http://www.w3.org/2000/svg"><path d="M11.44 1.024c-1.14.135-1.838.34-2.706.793-1.829.955-3.133 2.6-3.675 4.636-.162.607-.22 1.112-.259 2.247-.058 1.675-.241 2.853-.627 4.019-.263.795-.57 1.429-1.191 2.461-.305.506-.646 1.1-.758 1.32-.202.395-.204.404-.202.76.003.489.109.757.423 1.071.269.269.476.372.859.428.377.054 17.015.054 17.392 0 .383-.056.59-.159.859-.428.314-.314.42-.582.423-1.071.002-.35-.003-.37-.18-.72a33.619 33.619 0 0 0-.758-1.32c-.642-1.07-.947-1.7-1.213-2.5-.389-1.169-.625-2.685-.627-4.02-.001-1.343-.229-2.464-.713-3.511a7.235 7.235 0 0 0-5.367-4.094c-.34-.057-1.416-.103-1.68-.071m1.448 2.157a4.99 4.99 0 0 1 2.763 1.497 4.9 4.9 0 0 1 .929 1.313c.389.786.491 1.262.541 2.529.067 1.743.191 2.736.484 3.9.348 1.379.774 2.391 1.549 3.68l.362.6-3.758.01c-2.067.006-5.449.006-7.516 0l-3.758-.01.362-.6c.795-1.322 1.22-2.344 1.574-3.787.267-1.084.394-2.135.459-3.793.05-1.277.15-1.741.542-2.53a4.78 4.78 0 0 1 .927-1.313c.768-.794 1.706-1.306 2.736-1.494.414-.076 1.376-.077 1.804-.002M9.57 20.98a1.08 1.08 0 0 0-.638.875c-.042.411.19.837.565 1.038.162.087.176.087 2.503.087s2.341 0 2.503-.087c.789-.423.74-1.572-.082-1.915-.203-.085-4.655-.083-4.851.002" fill="#667085" fill-rule="evenodd"/></svg>