<svg width="24" height="24" fill="none" xmlns="http://www.w3.org/2000/svg"><path d="M7.86 1.059c-1.305.243-2.313 1.198-2.708 2.565-.077.266-.092.41-.092.916 0 .508.015.649.093.919.093.323.332.858.482 1.083l.082.121-.359.328c-.537.491-.836.841-1.105 1.298a6.24 6.24 0 0 0-.892 3.216c.002.493.069.959.256 1.755.237 1.013.336 2.144.265 3.011-.059.706-.116.99-.459 2.289-.386 1.46-.449 1.788-.388 2.05.111.483.409.867.82 1.057.468.216.751.17 3.214-.519l.77-.215.169.263c.253.393.906 1.025 1.302 1.259.365.217.972.439 1.37.503 1.258.201 2.652-.354 3.431-1.367.515-.67.8-1.39.889-2.253a5.42 5.42 0 0 1 .05-.4c.006-.004.937-.263 2.07-.576 2.195-.606 2.817-.793 3.146-.947.24-.113.449-.349.606-.684.092-.196.108-.282.106-.571a2.409 2.409 0 0 0-.051-.507c-.065-.222-.358-.568-1.384-1.633A31.125 31.125 0 0 1 18.5 12.9c-.689-.851-1.267-2.03-1.657-3.38a16.398 16.398 0 0 0-.271-.86c-.453-1.223-1.423-2.338-2.642-3.038a5.102 5.102 0 0 0-1.49-.538 53.704 53.704 0 0 1-.5-.103c-.074-.017-.08-.052-.084-.509-.009-1.017-.367-1.839-1.103-2.532-.79-.744-1.866-1.072-2.893-.881m1.128 2.067c.168.063.299.154.476.33.373.374.486.756.37 1.258l-.046.199-.424.025c-.664.038-.823.078-1.344.341-.264.133-.5.242-.525.241-.06 0-.311-.28-.403-.448-.057-.104-.072-.221-.071-.552.001-.383.011-.439.115-.64.141-.271.268-.425.477-.578.363-.268.934-.34 1.375-.176m2.464 3.734a4.96 4.96 0 0 1 1.888.752c.517.348 1.075 1.01 1.321 1.567.053.119.197.554.32.967.262.875.497 1.488.823 2.146.581 1.169 1.085 1.863 2.138 2.943l.618.635-.15.04-5.73 1.588c-7.104 1.972-7.449 2.066-7.469 2.047-.009-.009.084-.392.206-.851.122-.459.257-1.041.3-1.294.259-1.523.18-3.054-.248-4.82-.113-.468-.126-.582-.126-1.14-.001-.749.071-1.063.399-1.745.48-.997 1.292-1.797 2.356-2.321a5.871 5.871 0 0 1 1.522-.511c.436-.076 1.404-.078 1.832-.003m1.33 13.05c-.251.527-.546.811-1.013.975-.18.064-.302.078-.575.066-.303-.013-.384-.034-.64-.162-.367-.184-.645-.411-.548-.448.245-.097 2.897-.802 2.908-.774.007.02-.052.174-.132.343" fill="#667085" fill-rule="evenodd"/></svg>