<svg width="24" height="24" fill="none" xmlns="http://www.w3.org/2000/svg"><path d="M11.12 1.044a6.997 6.997 0 0 0-2.345.673c-1.757.846-3.026 2.276-3.635 4.094-.259.775-.379 1.587-.38 2.569-.002 1.682-.397 3.521-1.039 4.84-.129.264-.465.849-.746 1.3a23.43 23.43 0 0 0-.744 1.271c-.203.395-.231.479-.231.68.001.485.205.916.56 1.183.282.213.407.261.786.305.496.057 16.596.056 17.055-.001.186-.023.415-.078.508-.123.254-.122.554-.413.668-.647.119-.243.187-.666.146-.894-.04-.218-.335-.765-.901-1.674-.8-1.284-1.076-1.873-1.396-2.979-.202-.694-.292-.841-.625-1.011a1.017 1.017 0 0 0-1.367.423c-.143.279-.139.48.024 1.065a11.92 11.92 0 0 0 1.393 3.164c.186.299.359.582.385.63l.047.088h-7.406c-6.786 0-7.403-.005-7.381-.064.014-.036.172-.301.352-.59.641-1.032 1.028-1.878 1.35-2.952.381-1.271.538-2.327.601-4.034.037-1.003.09-1.404.247-1.879a5.201 5.201 0 0 1 1.773-2.469c.153-.114.454-.3.669-.412.94-.492 1.863-.665 2.988-.559.516.048.571.047.747-.02.523-.2.772-.723.608-1.276-.073-.245-.369-.525-.637-.601-.449-.128-1.41-.175-2.074-.1m6.56-.009c-.34.111-.603.372-.698.69-.049.166-.062.424-.062 1.24v1.03l-1.15.013c-1.299.014-1.324.019-1.62.347-.133.147-.27.474-.27.645 0 .171.137.498.27.645.296.328.321.333 1.62.347l1.15.013v1.03c0 1.175.028 1.343.27 1.61.399.443 1.059.468 1.47.057.279-.279.3-.393.3-1.629V6h1.093c1.258 0 1.369-.02 1.649-.3.537-.537.283-1.473-.45-1.658-.097-.024-.615-.042-1.23-.042H18.96V2.927c0-.89-.011-1.106-.066-1.266a1.056 1.056 0 0 0-.51-.557c-.173-.081-.552-.119-.704-.069M8.92 20.037a1.058 1.058 0 0 0-.698.688c-.077.26-.077.29.001.553.182.611 1.409 1.361 2.669 1.631.413.088 1.476.097 1.888.016a5.422 5.422 0 0 0 2.172-.965c.472-.359.588-.547.588-.957 0-.26-.016-.33-.113-.495a1.035 1.035 0 0 0-1.012-.494c-.221.031-.364.104-.694.358a3.323 3.323 0 0 1-1.081.534c-.195.054-.396.072-.8.071-.497-.002-.569-.012-.903-.126a3.285 3.285 0 0 1-1.028-.559c-.333-.256-.685-.347-.989-.255" fill="#667085" fill-rule="evenodd"/></svg>