<svg width="24" height="24" fill="none" xmlns="http://www.w3.org/2000/svg"><path d="M11.44 1.023c-1.27.147-2.361.541-3.287 1.186-.382.266-.538.579-.503 1.008a.989.989 0 0 0 .335.702c.391.343.854.333 1.384-.031.465-.319 1.194-.607 1.81-.714.554-.096 1.514-.057 2.041.084a5.678 5.678 0 0 1 1.524.702c.845.565 1.641 1.634 1.974 2.649.197.603.243.957.282 2.176.065 2.051.252 3.488.643 4.935.116.43.276.665.552.809.639.331 1.377-.091 1.434-.821.014-.191-.009-.357-.103-.728-.328-1.292-.524-2.991-.526-4.552-.001-2.093-.767-3.996-2.167-5.388-1.043-1.037-2.328-1.706-3.733-1.942-.354-.06-1.386-.106-1.66-.075M2.78 2.076c-.628.162-.957.895-.668 1.486.057.116.61.725 1.591 1.752 1.323 1.384 1.501 1.585 1.479 1.671-.096.382-.179 1.141-.2 1.815-.039 1.308-.173 2.315-.443 3.35-.286 1.093-.59 1.776-1.418 3.19-.578.985-.827 1.482-.862 1.713-.064.434.164 1.059.492 1.349.257.226.436.311.757.357.169.025 2.699.04 6.672.04l6.4.001 1.707 1.79c2.219 2.325 2.166 2.273 2.385 2.348.355.121.67.058.952-.19.268-.236.354-.427.355-.789.001-.246-.017-.336-.099-.489-.138-.26-18.221-19.198-18.435-19.307-.178-.091-.492-.132-.665-.087m8.302 10.964 3.49 3.66-2.489.01c-1.369.006-3.595.006-4.947 0l-2.457-.01.305-.52c.168-.286.411-.73.541-.986.812-1.611 1.285-3.602 1.417-5.969l.027-.476.311.316c.171.173 1.882 1.962 3.802 3.975m-1.514 7.984c-.649.323-.761 1.183-.221 1.704.284.275.256.272 2.643.272 1.525 0 2.186-.014 2.298-.047.199-.06.491-.315.597-.523.178-.349.124-.858-.124-1.156a1.174 1.174 0 0 0-.329-.25l-.208-.104H9.776l-.208.104" fill="#667085" fill-rule="evenodd"/></svg>