<svg width="24" height="24" fill="none" xmlns="http://www.w3.org/2000/svg"><path d="M11.44 1.024c-1.094.129-1.779.323-2.599.735-.734.369-1.06.639-1.155.955a1.012 1.012 0 0 0 .648 1.271c.264.087.531.052.819-.11.864-.486 1.192-.624 1.786-.753 1.343-.291 2.719-.022 3.885.759.405.271 1.024.89 1.295 1.295.626.935.879 1.837.881 3.144.003 1.467.205 3.118.547 4.46.161.631.228.786.419.966.281.264.602.344.958.24a.957.957 0 0 0 .612-.514c.137-.273.134-.483-.014-1.044-.325-1.229-.457-2.287-.52-4.168-.045-1.326-.146-1.927-.46-2.741a6.995 6.995 0 0 0-5.422-4.424c-.34-.057-1.416-.103-1.68-.071M2.643 2.069C2.291 2.193 2 2.614 2 3c0 .08.029.234.065.343.059.176.231.363 1.601 1.739l1.536 1.542-.085.398c-.058.275-.095.657-.119 1.238-.073 1.712-.236 2.76-.6 3.86-.293.886-.483 1.27-1.25 2.518-.263.429-.57.958-.683 1.176-.197.383-.205.409-.199.702.008.406.122.701.379.982.261.285.525.413.957.463.205.023 2.831.039 6.657.039h6.319l1.941 1.935c1.747 1.742 1.961 1.941 2.138 2 .39.129.766.044 1.045-.235a.986.986 0 0 0 .185-1.144c-.063-.129-2.503-2.593-9.216-9.301-8.441-8.436-9.146-9.13-9.328-9.19a1.038 1.038 0 0 0-.7.004m9.434 13.921c-1.366.006-3.589.006-4.94 0l-2.457-.01.321-.52c1.205-1.95 1.789-3.935 1.94-6.596l.028-.475 3.795 3.795 3.796 3.796-2.483.01m-3.052 4.069a1.005 1.005 0 0 0-.568 1.367c.238.512 1.348 1.176 2.412 1.443.387.097.503.108 1.131.108s.744-.011 1.131-.108c1.056-.265 2.145-.914 2.404-1.433.419-.841-.494-1.753-1.322-1.321a3.593 3.593 0 0 0-.393.264c-.551.422-1.086.598-1.82.598-.757 0-1.269-.175-1.873-.638-.434-.333-.737-.41-1.102-.28" fill="#667085" fill-rule="evenodd"/></svg>