<svg width="24" height="24" fill="none" xmlns="http://www.w3.org/2000/svg"><path d="M11.243 2.045c-2.184.261-4.138 1.673-5.104 3.687-.49 1.019-.695 2.022-.698 3.408-.003 1.206-.273 2.755-.663 3.806-.226.61-.487 1.121-1.04 2.034-.279.462-.582.992-.672 1.178-.147.304-.163.366-.159.62.007.365.126.681.351.932.267.296.488.397.977.448.569.058 14.958.058 15.526 0 .458-.047.633-.117.896-.359.224-.207.367-.48.424-.811.082-.465.047-.548-.85-2.06-.836-1.41-1.154-2.181-1.408-3.412-.159-.768-.223-1.369-.264-2.461a20.995 20.995 0 0 0-.079-1.3c-.406-2.886-2.57-5.154-5.399-5.659-.431-.076-1.398-.103-1.838-.051m-6.7.292c-.263.098-.797.487-1.143.832-.358.359-.768.941-.955 1.36-.356.794-.54 1.884-.399 2.357.094.311.419.588.766.651.203.037.528-.061.714-.216.23-.189.317-.415.358-.924.079-.986.52-1.741 1.336-2.286.426-.285.572-.559.531-.993-.055-.566-.686-.974-1.208-.781m14.382-.017c-.379.09-.685.499-.685.917 0 .298.147.601.366.753.46.319.694.517.856.722.411.52.6 1.008.654 1.685.041.509.128.735.358.924.186.155.511.253.714.216.347-.063.672-.34.766-.651.14-.47-.045-1.568-.399-2.357-.315-.703-.983-1.488-1.645-1.931-.456-.305-.644-.358-.985-.278m-5.803 1.731a4.65 4.65 0 0 1 3.007 2.409c.406.802.505 1.274.553 2.64.095 2.724.614 4.611 1.813 6.6l.338.56-3.417.01c-1.879.006-4.954.006-6.833 0l-3.416-.01.158-.26c.69-1.137.985-1.743 1.289-2.647.449-1.334.645-2.52.706-4.253.046-1.336.148-1.841.52-2.581a4.681 4.681 0 0 1 3.369-2.542c.466-.088 1.435-.051 1.913.074m-3.408 16.15c-.646.341-.678 1.274-.056 1.658l.196.121h4.292l.196-.121c.642-.397.591-1.332-.09-1.675-.113-.056-.377-.064-2.26-.062-2.026.001-2.139.005-2.278.079" fill="#667085" fill-rule="evenodd"/></svg>