<svg width="24" height="24" fill="none" xmlns="http://www.w3.org/2000/svg"><path d="M9.468 1.061a3.55 3.55 0 0 0-2.861 3.121 3.52 3.52 0 0 0 .565 2.294l.121.177-.257.22c-.955.822-1.486 1.594-1.856 2.698-.387 1.158-.421 2.117-.119 3.389.298 1.26.403 2.263.338 3.234-.047.699-.129 1.112-.452 2.286-.376 1.369-.479 1.867-.43 2.085.132.59.449.959.994 1.156a.963.963 0 0 0 .521.065c.288-.027 1.157-.235 2.574-.618l.867-.234.171.263c.381.582 1.145 1.218 1.786 1.484.565.236.851.291 1.51.294.686.004 1.024-.067 1.605-.335 1.351-.624 2.222-1.954 2.306-3.519l.009-.179 1.82-.489c3.385-.908 3.544-.96 3.85-1.246.111-.104.245-.288.32-.442.116-.236.13-.299.128-.604 0-.188-.024-.418-.052-.513-.066-.224-.403-.609-1.447-1.648-.923-.919-1.137-1.164-1.518-1.742-.516-.782-.905-1.644-1.237-2.743-.25-.829-.281-.913-.484-1.32-.285-.572-.589-.987-1.099-1.496a5.88 5.88 0 0 0-1.563-1.157c-.425-.219-.801-.343-1.398-.46-.242-.048-.47-.096-.506-.106-.057-.016-.067-.084-.069-.449-.004-.705-.165-1.284-.514-1.843a3.624 3.624 0 0 0-2.127-1.569c-.411-.105-1.095-.13-1.496-.054m7.892 1.816a1.03 1.03 0 0 0-.729 1.042c.011.25.184.582.376.722.087.063.279.154.426.202.547.179.964.429 1.328.795.37.371.56.709.821 1.456.236.677 1.106.886 1.633.394.172-.161.304-.471.305-.714 0-.4-.341-1.25-.754-1.874-.238-.36-.946-1.068-1.306-1.306-.808-.534-1.7-.838-2.1-.717m-6.589.303c.278.137.558.425.691.711.108.233.129.552.054.848l-.044.174-.466.027c-.638.037-.891.102-1.404.359-.243.122-.467.221-.499.221-.107 0-.411-.421-.464-.643-.148-.617.139-1.313.669-1.624.289-.169.48-.213.872-.2.301.01.398.031.591.127M2.905 6.779c-.209.074-.373.199-.61.462A5.226 5.226 0 0 0 1.098 9.62c-.143.661-.107 1.704.081 2.328.142.471.511.753.98.751.29-.002.458-.07.675-.273a1 1 0 0 0 .288-.973 3.134 3.134 0 0 1 .7-2.891c.29-.325.376-.514.377-.822a.976.976 0 0 0-.696-.961c-.242-.072-.396-.072-.598 0m10.282.081c1.017.165 1.903.611 2.573 1.297.443.452.706.895.9 1.515.583 1.858.942 2.676 1.641 3.73.393.593.735.999 1.489 1.763l.694.704-.152.041L14 17.618c-7.186 1.938-7.21 1.945-7.23 1.925-.009-.008.093-.427.226-.929a22.09 22.09 0 0 0 .302-1.274c.224-1.329.165-2.894-.162-4.32-.259-1.128-.265-1.171-.244-1.72.032-.806.234-1.401.725-2.138.785-1.179 2.222-2.068 3.723-2.304.451-.071 1.405-.07 1.847.002m1.355 13.079a2.057 2.057 0 0 1-.361.521c-.57.584-1.452.666-2.156.2-.34-.224-.413-.292-.345-.317.033-.012.717-.199 1.52-.415 1.085-.293 1.463-.38 1.473-.341.007.029-.052.187-.131.352" fill="#667085" fill-rule="evenodd"/></svg>