<svg width="24" height="24" fill="none" xmlns="http://www.w3.org/2000/svg"><path d="M10.837 2.038c-.366.038-.549.093-.829.251-.428.241-.78.695-.909 1.173-.085.314-.126 1.933-.066 2.582.053.576.152.844.462 1.254.022.029-.844 1.583-2.436 4.368l-2.47 4.323-.944.022c-.681.017-1.011.041-1.183.088a1.975 1.975 0 0 0-1.37 1.384c-.105.381-.105 2.653 0 3.034a1.977 1.977 0 0 0 1.391 1.391c.22.06.44.071 1.517.071 1.397 0 1.567-.023 1.989-.264.555-.318.971-.988.971-1.563V20h10.08v.152c0 .575.416 1.245.971 1.563.422.241.592.264 1.989.264 1.077 0 1.297-.011 1.517-.071a1.977 1.977 0 0 0 1.391-1.391c.06-.219.07-.443.07-1.517 0-1.074-.01-1.298-.07-1.517a1.977 1.977 0 0 0-1.37-1.384c-.172-.047-.502-.071-1.183-.088l-.944-.022-2.47-4.323c-1.592-2.785-2.458-4.339-2.436-4.368.315-.417.41-.679.462-1.275.059-.666.017-2.247-.066-2.561a1.978 1.978 0 0 0-1.363-1.364c-.185-.051-.478-.068-1.318-.079-.594-.007-1.216.001-1.383.019M13 5v1h-2V4h2v1m2.056 7.328c1.594 2.789 2.461 4.345 2.439 4.374-.274.363-.409.68-.443 1.044l-.024.254H6.972l-.024-.254c-.034-.364-.169-.681-.443-1.044-.022-.029.845-1.585 2.439-4.374L11.417 8h1.166l2.473 4.328M5 19v1H3v-2h2v1m16 0v1h-2v-2h2v1" fill-rule="evenodd" fill="#000"/></svg>