<svg width="24" height="24" fill="none" xmlns="http://www.w3.org/2000/svg"><path d="M10.558 4.055a1.949 1.949 0 0 0-.961.544c-.354.351-.479.613-.507 1.06L9.069 6H6.814C5.508 6 4.56 5.985 4.56 5.964c0-.02-.128-.173-.284-.34-.614-.658-1.331-.792-2.151-.403a1.756 1.756 0 0 0-.54.391C.802 6.413.808 7.608 1.6 8.4c.652.652 1.622.786 2.302.319.173-.12.658-.624.658-.685 0-.019.432-.034.961-.034h.961l-.271.235A8.877 8.877 0 0 0 3.7 11.823a10.544 10.544 0 0 0-.499 1.903l-.048.345-.408.015c-.353.013-.438.031-.646.134-.308.153-.732.571-.871.86C1.019 15.515 1 15.675 1 17c0 .968.013 1.273.061 1.462.194.755.794 1.34 1.531 1.494.283.059 2.533.059 2.816 0 .369-.077.709-.266.995-.552.282-.283.436-.554.536-.942.089-.346.089-2.578 0-2.924a1.869 1.869 0 0 0-.536-.938c-.335-.332-.567-.447-.95-.472-.161-.01-.293-.036-.293-.057 0-.021.037-.221.081-.445A6.848 6.848 0 0 1 8.069 9.33c.37-.252 1.005-.61 1.084-.61.026 0 .047.039.047.086 0 .244.518.794.932.989.393.185.574.205 1.868.205s1.475-.02 1.868-.205c.414-.195.932-.745.932-.989 0-.047.021-.086.047-.086.079 0 .714.358 1.084.61a6.851 6.851 0 0 1 2.828 4.296c.044.224.081.424.081.445 0 .021-.132.047-.293.057-.383.025-.615.14-.95.472a1.869 1.869 0 0 0-.536.938c-.089.346-.089 2.578 0 2.924.194.755.794 1.34 1.531 1.494.283.059 2.533.059 2.816 0 .546-.114 1.135-.562 1.364-1.036.209-.435.228-.595.228-1.92s-.019-1.485-.228-1.92c-.141-.292-.563-.708-.872-.859-.205-.1-.298-.119-.644-.133l-.404-.017-.069-.425c-.345-2.147-1.373-4.005-2.994-5.411L17.518 8h.961c.529 0 .961.015.961.034 0 .061.485.565.658.685.68.467 1.65.333 2.302-.319.792-.792.798-1.987.015-2.788a1.756 1.756 0 0 0-.54-.391c-.82-.389-1.537-.255-2.151.403-.156.167-.284.32-.284.34 0 .021-.948.036-2.254.036h-2.255l-.021-.341c-.028-.446-.153-.709-.507-1.06a1.952 1.952 0 0 0-1.02-.556c-.328-.059-2.536-.051-2.825.012m2.401 2.022c.044.083.058 1.676.016 1.833l-.024.09H12c-.831 0-.955-.008-.976-.063-.048-.127-.027-1.838.024-1.889.035-.035.304-.048.959-.048.859 0 .913.004.952.077m-8 10c.044.083.058 1.676.016 1.833l-.024.09H4c-.831 0-.955-.008-.976-.063-.048-.127-.027-1.838.024-1.889.035-.035.304-.048.959-.048.859 0 .913.004.952.077m16 0c.044.083.058 1.676.016 1.833l-.024.09H20c-.831 0-.955-.008-.976-.063-.048-.127-.027-1.838.024-1.889.035-.035.304-.048.959-.048.859 0 .913.004.952.077" fill="#667085" fill-rule="evenodd"/></svg>