<svg width="24" height="24" fill="none" xmlns="http://www.w3.org/2000/svg"><path d="M10.558 1.055a1.949 1.949 0 0 0-.961.544c-.36.357-.481.615-.507 1.078l-.021.356-.344.129a9.468 9.468 0 0 0-5.563 5.562l-.128.345-.354.022c-.461.03-.726.155-1.083.508a1.88 1.88 0 0 0-.536.939c-.089.346-.089 2.578 0 2.924.1.389.254.659.536.941.36.36.618.481 1.08.507l.356.021.129.344a9.445 9.445 0 0 0 5.563 5.563l.344.129.021.356c.026.461.147.72.507 1.081.286.286.626.475.995.552.283.059 2.533.059 2.816 0 .369-.077.709-.266.995-.552.36-.361.481-.62.507-1.081l.021-.356.344-.129a9.445 9.445 0 0 0 5.563-5.563l.129-.344.356-.021c.462-.026.72-.147 1.08-.507.282-.282.436-.552.536-.941.089-.346.089-2.578 0-2.924a1.88 1.88 0 0 0-.536-.939c-.357-.353-.622-.478-1.083-.508l-.354-.022-.128-.345c-.637-1.71-1.723-3.158-3.218-4.291-.609-.461-1.569-.982-2.345-1.271l-.344-.129-.021-.356c-.026-.463-.147-.721-.507-1.078a1.952 1.952 0 0 0-1.02-.556c-.328-.059-2.536-.051-2.825.012m2.401 2.022c.044.083.058 1.676.016 1.833l-.024.09H12c-.831 0-.955-.008-.976-.063-.048-.127-.027-1.838.024-1.889.035-.035.304-.048.959-.048.859 0 .913.004.952.077m-3.831 2.4c.016.271.038.349.155.544a2.13 2.13 0 0 0 1.309.935c.283.059 2.533.059 2.816 0 .369-.077.709-.266.995-.552.334-.336.45-.572.471-.954.008-.16.023-.29.034-.29.062 0 .937.478 1.214.663a7.524 7.524 0 0 1 2.192 2.267c.147.241.526.964.526 1.004 0 .008-.132.024-.293.034-.383.025-.615.14-.95.472a1.869 1.869 0 0 0-.536.938c-.089.346-.089 2.578 0 2.924.136.529.47.985.918 1.255.195.117.273.139.544.155.174.01.317.025.317.034 0 .04-.379.763-.526 1.004a7.634 7.634 0 0 1-2.254 2.313c-.28.182-1.089.617-1.149.617-.012 0-.029-.13-.037-.29-.021-.383-.138-.619-.471-.951a1.952 1.952 0 0 0-1.02-.556c-.311-.056-2.455-.056-2.766 0-.514.094-1.056.474-1.334.936-.117.195-.139.273-.155.544-.01.174-.028.317-.039.317-.06 0-.871-.436-1.149-.617a7.634 7.634 0 0 1-2.254-2.313c-.147-.241-.526-.964-.526-1.004 0-.009.143-.024.317-.034.271-.016.349-.038.544-.155.286-.172.62-.529.754-.805C6.98 13.488 7 13.322 7 12c0-1.325-.019-1.485-.228-1.92-.131-.272-.561-.706-.829-.837a1.3 1.3 0 0 0-.49-.115 1.464 1.464 0 0 1-.293-.034c0-.04.379-.763.525-1.003a7.485 7.485 0 0 1 2.162-2.247c.27-.184 1.171-.681 1.238-.683.014-.001.033.142.043.316m-4.169 5.6c.044.083.058 1.676.016 1.833l-.024.09H4c-.831 0-.955-.008-.976-.063-.048-.127-.027-1.838.024-1.889.035-.035.304-.048.959-.048.859 0 .913.004.952.077m16 0c.044.083.058 1.676.016 1.833l-.024.09H20c-.831 0-.955-.008-.976-.063-.048-.127-.027-1.838.024-1.889.035-.035.304-.048.959-.048.859 0 .913.004.952.077m-8 8c.044.083.058 1.676.016 1.833l-.024.09H12c-.831 0-.955-.008-.976-.063-.048-.127-.027-1.838.024-1.889.035-.035.304-.048.959-.048.859 0 .913.004.952.077" fill="#667085" fill-rule="evenodd"/></svg>