<svg width="24" height="24" fill="none" xmlns="http://www.w3.org/2000/svg"><path d="M11.643 1.066c-.097.036-.251.14-.343.232-.309.309-.3.215-.3 3.202 0 2.986-.009 2.894.299 3.201.479.479 1.291.35 1.587-.251.092-.187.094-.215.114-1.745l.02-1.555 1.69 1.408c.929.775 1.69 1.424 1.69 1.442 0 .018-.468.424-1.041.9-.734.612-1.07.919-1.142 1.042-.198.337-.165.789.08 1.111.269.353.847.478 1.224.265.1-.057.877-.683 1.727-1.391C18.985 7.478 18.98 7.484 18.98 7c0-.508.17-.341-3.293-3.229-1.709-1.424-3.174-2.623-3.256-2.664a1.16 1.16 0 0 0-.788-.041m-9 1.003C2.291 2.193 2 2.614 2 3c0 .08.029.234.065.343.059.181.414.547 4.258 4.397l4.193 4.2-2.655 2.21c-2.881 2.399-2.81 2.33-2.852 2.772C4.956 17.477 5.437 18 6 18c.35 0 .426-.055 2.744-1.987l2.236-1.863.02 4.055c.016 3.235.031 4.079.073 4.175.149.339.461.571.82.608.435.045.393.074 3.055-2.145l2.441-2.034 1.496 1.496c1.035 1.036 1.549 1.523 1.671 1.582.858.418 1.749-.473 1.331-1.331-.063-.129-2.503-2.593-9.216-9.301-8.441-8.436-9.146-9.13-9.328-9.19a1.038 1.038 0 0 0-.7.004m11.852 13.846 1.475 1.475-1.435 1.197c-.789.658-1.457 1.21-1.485 1.227-.04.025-.05-.52-.05-2.672 0-1.486.005-2.702.01-2.702.006 0 .674.664 1.485 1.475" fill="#667085" fill-rule="evenodd"/></svg>