<svg width="24" height="24" fill="none" xmlns="http://www.w3.org/2000/svg"><path d="M8.67 1.055a1.054 1.054 0 0 0-.539.456L8.02 1.7 8 5.775l-.02 4.074-2.237-1.863C3.425 6.056 3.348 6 3 6c-.563 0-1.044.523-.991 1.078.042.443-.023.379 2.795 2.731C6.232 11 7.4 11.988 7.4 12.003c0 .015-1.169 1.003-2.597 2.194-2.817 2.349-2.752 2.286-2.794 2.725C1.956 17.477 2.437 18 3 18c.35 0 .426-.055 2.744-1.987L7.98 14.15 8 18.225l.02 4.075.111.189a.987.987 0 0 0 1.197.449c.139-.047.911-.669 3.277-2.641 1.702-1.419 3.144-2.646 3.203-2.728a1 1 0 0 0 0-1.136c-.059-.08-1.255-1.103-2.658-2.272-1.402-1.17-2.55-2.142-2.55-2.16 0-.018 1.157-.998 2.57-2.177 1.413-1.18 2.611-2.208 2.661-2.285a1.003 1.003 0 0 0-.023-1.106c-.135-.183-6.197-5.24-6.394-5.333-.196-.093-.558-.115-.744-.045m3.103 4.561C12.668 6.362 13.4 6.985 13.4 7c0 .024-3.135 2.655-3.327 2.792C10.003 9.843 10 9.747 10 7s.003-2.843.073-2.792c.04.028.805.662 1.7 1.408m2.892 5.443c-.737.262-.895 1.262-.273 1.73a.995.995 0 0 0 1.595-.901 1.002 1.002 0 0 0-1.322-.829m3 0c-.812.289-.894 1.435-.13 1.828a1.016 1.016 0 0 0 1.332-.395c.097-.165.113-.235.113-.492 0-.256-.016-.328-.111-.489a1.013 1.013 0 0 0-1.204-.452m3 0c-.812.289-.894 1.435-.13 1.828.651.335 1.465-.158 1.465-.887 0-.671-.703-1.167-1.335-.941m-8.892 4.557c.895.746 1.627 1.369 1.627 1.384 0 .024-3.135 2.655-3.327 2.792-.07.051-.073-.045-.073-2.792s.003-2.843.073-2.792c.04.028.805.662 1.7 1.408" fill="#667085" fill-rule="evenodd"/></svg>