<svg width="24" height="24" fill="none" xmlns="http://www.w3.org/2000/svg"><path d="M11.659 1.061c-.232.086-.438.27-.545.489l-.094.19L11 5.795l-.02 4.055-2.236-1.863C6.426 6.055 6.35 6 6 6c-.563 0-1.044.523-.991 1.078.042.441-.023.377 2.794 2.725C9.231 10.993 10.4 11.982 10.4 12c0 .018-1.169 1.007-2.597 2.197-2.817 2.348-2.752 2.284-2.794 2.725C4.956 17.477 5.437 18 6 18c.35 0 .426-.055 2.744-1.987l2.236-1.863.02 4.056.02 4.056.102.199a.988.988 0 0 0 1.304.435c.085-.043 1.549-1.24 3.254-2.662 2.396-1.997 3.123-2.624 3.2-2.759.082-.144.1-.228.1-.475 0-.247-.018-.331-.1-.475-.077-.134-.699-.674-2.69-2.333-1.425-1.187-2.59-2.174-2.59-2.192 0-.018 1.165-1.005 2.59-2.192 1.991-1.659 2.613-2.199 2.69-2.333.082-.144.1-.228.1-.475 0-.247-.018-.331-.1-.475-.077-.135-.804-.762-3.2-2.759-1.705-1.422-3.167-2.618-3.249-2.659-.2-.1-.568-.122-.772-.046m3.091 4.531c.908.756 1.65 1.39 1.65 1.408 0 .029-3.222 2.736-3.35 2.814C13.01 9.838 13 9.265 13 7s.01-2.838.05-2.814c.028.017.793.649 1.7 1.406m0 10c.908.756 1.65 1.39 1.65 1.408 0 .029-3.222 2.736-3.35 2.814-.04.024-.05-.549-.05-2.814s.01-2.838.05-2.814c.028.017.793.649 1.7 1.406" fill="#667085" fill-rule="evenodd"/></svg>