<svg width="24" height="24" fill="none" xmlns="http://www.w3.org/2000/svg"><path d="M7.732 1.056c-.24.078-.471.275-.579.495l-.093.189-.02 4.055-.02 4.055-2.236-1.863C2.489 6.074 2.387 6 2.06 6c-.582 0-1.065.515-1.011 1.078.042.441-.023.377 2.794 2.725C5.271 10.993 6.44 11.982 6.44 12c0 .018-1.169 1.007-2.597 2.197-2.817 2.348-2.752 2.284-2.794 2.725-.053.555.428 1.078.991 1.078.357 0 .429-.052 2.749-1.985l2.231-1.858.02 4.052.02 4.051.094.19a.988.988 0 0 0 1.219.486c.276-.094 6.402-5.202 6.547-5.459.082-.145.1-.231.1-.477 0-.247-.018-.331-.1-.475-.077-.134-.699-.674-2.69-2.333-1.424-1.187-2.59-2.172-2.59-2.189 0-.016 1.161-.998 2.58-2.18 2.032-1.693 2.604-2.19 2.69-2.337.094-.158.11-.231.11-.486 0-.247-.018-.331-.1-.475-.077-.135-.804-.762-3.2-2.759-1.705-1.422-3.166-2.618-3.247-2.658a1.135 1.135 0 0 0-.741-.052m3.058 4.536c.907.756 1.65 1.39 1.65 1.408 0 .029-3.222 2.736-3.35 2.814-.04.024-.05-.549-.05-2.814s.01-2.838.05-2.814c.027.017.793.649 1.7 1.406m8.937.032a.934.934 0 0 0-.527.872c0 .285.033.363.358.864.588.903 1.024 1.949 1.216 2.92.132.665.161.972.161 1.72 0 1.723-.437 3.197-1.377 4.64-.328.505-.358.578-.358.878 0 .756.864 1.235 1.509.837.254-.158.716-.84 1.134-1.675a10.39 10.39 0 0 0 0-9.36c-.256-.512-.652-1.162-.871-1.431a1.016 1.016 0 0 0-1.245-.265m-3.07 2.313a1.2 1.2 0 0 0-.496.461c-.192.376-.156.665.146 1.163.423.699.627 1.298.691 2.033.088 1.02-.13 1.919-.691 2.845-.235.388-.297.606-.248.869.07.374.355.687.723.794.537.156.96-.11 1.393-.879.367-.65.628-1.386.768-2.163.099-.547.099-1.573 0-2.12-.24-1.338-.935-2.737-1.482-2.985-.193-.088-.623-.097-.804-.018m-5.867 7.655c.907.756 1.65 1.39 1.65 1.408 0 .029-3.222 2.736-3.35 2.814-.04.024-.05-.549-.05-2.814s.01-2.838.05-2.814c.027.017.793.649 1.7 1.406" fill="#667085" fill-rule="evenodd"/></svg>