<svg width="24" height="24" fill="none" xmlns="http://www.w3.org/2000/svg"><path d="M3.425 3.059c-.671.239-.882 1.118-.393 1.635.235.247.366.284 1.078.299l.65.014V19h-.57c-.649 0-.799.031-1.039.212-.577.434-.497 1.333.149 1.682l.16.086h6.7c7.281 0 6.881.012 7.615-.226a5.019 5.019 0 0 0 3.201-3.154c.511-1.529.276-3.13-.646-4.41-.305-.424-.87-.96-1.337-1.27l-.387-.256.23-.246C19.781 10.408 20.24 9.29 20.24 8c0-.57-.078-1.043-.264-1.6-.6-1.796-2.237-3.126-4.135-3.358-.221-.028-2.41-.041-6.3-.04-4.964.001-5.987.011-6.116.057M8.24 12v7H6.76V5h1.48v7m7.839-6.886c1.004.306 1.731 1.033 2.047 2.046.079.252.094.386.094.84 0 .454-.015.588-.094.84-.313 1.004-1.014 1.711-2.026 2.044-.28.092-.283.092-3.07.106l-2.79.014V4.996l2.77.014c2.751.013 2.772.014 3.069.104m1 8c1.005.307 1.731 1.033 2.047 2.046.079.252.094.386.094.84 0 .454-.015.588-.094.84-.313 1.004-1.013 1.71-2.026 2.044l-.28.093-3.29.013-3.29.013v-6.006l3.27.013 3.27.012.299.092" fill="#667085" fill-rule="evenodd"/></svg>