<svg width="24" height="24" fill="none" xmlns="http://www.w3.org/2000/svg"><path d="M5.9 2.025c-.991.083-1.531.257-2.2.708-.578.389-1.181 1.16-1.417 1.811-.279.77-.263.33-.263 7.456 0 6.02.004 6.442.072 6.773.223 1.094.826 1.987 1.746 2.582.418.269.858.445 1.389.553.331.068.753.072 6.773.072s6.442-.004 6.773-.072c1.094-.223 1.987-.826 2.582-1.746.269-.418.445-.858.553-1.389.068-.331.072-.753.072-6.773s-.004-6.442-.072-6.773c-.289-1.42-1.291-2.57-2.618-3.005-.611-.2-.432-.195-7.05-.203a802.572 802.572 0 0 0-6.34.006M17.801 4.04c.341.022.723.066.85.099.553.144 1.065.656 1.209 1.209.118.452.14 1.48.14 6.652 0 5.167-.022 6.2-.139 6.651-.142.544-.638 1.05-1.181 1.206-.442.126-1.17.142-6.68.142s-6.238-.016-6.68-.142c-.543-.156-1.039-.662-1.181-1.206C4.022 18.2 4 17.167 4 12c0-5.172.022-6.2.14-6.652.103-.397.416-.8.811-1.044.239-.148.575-.225 1.142-.261.734-.047 10.98-.05 11.708-.003M8.24 6.036c-.306.097-.589.356-.685.629-.082.231-.082 10.439 0 10.67.077.217.309.461.545.571l.2.093 3.006.001c3.276 0 3.289-.001 3.914-.231 1.062-.391 1.89-1.317 2.178-2.436.336-1.301-.173-2.694-1.292-3.539-.179-.136-.322-.26-.317-.277.005-.016.056-.099.114-.184.184-.269.373-.68.48-1.041.237-.806.088-1.801-.39-2.6a4.074 4.074 0 0 0-.43-.54 3.488 3.488 0 0 0-1.631-1.021l-.352-.109-2.62-.009c-1.441-.004-2.665.006-2.72.023m5.367 2.09c.303.143.553.38.717.684.131.241.136.266.136.69 0 .424-.005.449-.136.69a1.58 1.58 0 0 1-.717.684l-.227.106-1.93.012-1.93.012V7.996l1.93.012 1.93.012.227.106m1 5c.303.143.553.38.717.684.131.241.136.266.136.69 0 .424-.005.449-.136.69a1.58 1.58 0 0 1-.717.684l-.227.106-2.43.011-2.43.012v-3.006l2.43.012 2.43.011.227.106" fill="#667085" fill-rule="evenodd"/></svg>