<svg width="24" height="24" fill="none" xmlns="http://www.w3.org/2000/svg"><path d="M5.24 3.037c-.302.092-.589.354-.685.628-.082.231-.082 16.439 0 16.67.077.217.309.461.545.571l.2.093h4.8c4.058.001 4.857-.009 5.167-.059 2.439-.395 4.226-2.488 4.22-4.94a4.203 4.203 0 0 0-.247-1.526 4.915 4.915 0 0 0-1.184-1.894c-.295-.295-.814-.697-1.066-.825l-.156-.08.279-.294c.911-.958 1.38-2.118 1.377-3.401-.007-2.516-1.896-4.633-4.409-4.939-.396-.048-8.684-.052-8.841-.004m9.08 2.077a3.075 3.075 0 0 1 2.032 1.955c.094.281.104.37.105.931.001.576-.007.643-.11.94a2.99 2.99 0 0 1-.763 1.201c-.35.347-.724.57-1.244.745l-.28.094-3.77.011-3.77.012V4.997l3.75.013 3.75.012.3.092m1 8a3.077 3.077 0 0 1 2.032 1.955c.094.281.104.37.105.931.001.576-.007.643-.11.94a2.99 2.99 0 0 1-.763 1.201c-.35.347-.723.57-1.244.745l-.28.094-4.27.011-4.27.011v-6.004l4.25.012 4.25.012.3.092" fill="#667085" fill-rule="evenodd"/></svg>