<svg width="24" height="24" fill="none" xmlns="http://www.w3.org/2000/svg"><path d="M3.61 3.042A2.972 2.972 0 0 0 1.041 5.58c-.054.381-.054 12.459 0 12.84a2.976 2.976 0 0 0 2.539 2.539c.403.057 16.431.055 16.845-.002a2.977 2.977 0 0 0 2.534-2.537c.054-.381.054-12.459 0-12.84-.178-1.248-1.091-2.226-2.339-2.506-.187-.042-.757-.054-2.56-.053-1.988.001-2.386.011-2.782.07-.61.092-.982.198-1.418.406-.605.288-1.067.694-1.591 1.401-.131.177-.252.322-.269.322-.017 0-.138-.145-.269-.322-.829-1.118-1.611-1.592-2.971-1.802-.34-.053-.841-.067-2.64-.077-1.221-.007-2.35.003-2.51.023m4.031 1.997c1.16.062 1.511.142 1.988.453.5.325.938.852 1.121 1.348.222.601.248 1.352.249 7.21L11 19H7.63c-1.91 0-3.516-.017-3.707-.039-.386-.045-.56-.137-.735-.389-.094-.136-.116-.222-.148-.576-.049-.547-.049-11.445 0-11.992.031-.34.056-.445.139-.57.171-.258.362-.356.768-.392.507-.045 2.869-.047 3.694-.003m12.347 0c.468.043.649.131.831.407.09.135.111.227.143.607.048.585.048 11.311-.001 11.897-.033.403-.049.467-.158.626-.175.254-.338.34-.73.385-.186.022-1.818.039-3.703.039H13l.001-4.97c.001-5.79.027-6.553.24-7.174.165-.479.627-1.037 1.13-1.364.463-.302.861-.397 1.889-.451.828-.043 3.258-.044 3.728-.002" fill="#667085" fill-rule="evenodd"/></svg>