<svg width="24" height="24" fill="none" xmlns="http://www.w3.org/2000/svg"><path d="M7.9 2.025c-.784.067-1.215.171-1.68.405a3.917 3.917 0 0 0-1.561 1.387 3.899 3.899 0 0 0-.552 1.323c-.084.358-.084.41-.097 8.176-.014 8.786-.039 8.057.288 8.384.27.27.666.366 1.009.244.087-.03 1.628-.895 3.425-1.922L12 18.154l3.268 1.868c1.797 1.027 3.338 1.892 3.425 1.922a.977.977 0 0 0 1.009-.244c.326-.326.302.4.287-8.363-.015-8.623.003-8.032-.27-8.787-.373-1.031-1.364-1.983-2.419-2.323-.619-.2-.595-.199-5.06-.208a356.123 356.123 0 0 0-4.34.006m7.901 2.015c.341.022.723.066.85.099.554.145 1.065.655 1.21 1.209.124.477.143 1.566.131 7.776l-.012 6.145-2.76-1.581c-1.891-1.083-2.832-1.601-2.99-1.644-.209-.057-.251-.057-.46 0-.158.043-1.099.561-2.99 1.644l-2.76 1.581-.012-6.145c-.012-6.21.007-7.299.131-7.776.104-.398.417-.8.812-1.044.239-.148.575-.225 1.142-.261.726-.046 6.991-.049 7.708-.003M9.047 6.624c-.476.237-.683.833-.45 1.296.059.117.424.515 1.036 1.13l.946.949-.945.951c-.606.609-.978 1.015-1.036 1.13-.173.341-.099.812.177 1.114.264.29.793.387 1.145.208.115-.058.521-.43 1.13-1.036l.951-.945.949.946c.615.612 1.013.977 1.13 1.036.622.313 1.404-.174 1.411-.879.003-.413-.076-.524-1.122-1.574l-.947-.95.945-.95c1.03-1.036 1.121-1.159 1.123-1.527.003-.573-.422-1.004-.988-1.002-.413.001-.505.067-1.552 1.11l-.95.947-.95-.947c-.679-.677-1.001-.97-1.13-1.028a1.056 1.056 0 0 0-.873.021" fill="#667085" fill-rule="evenodd"/></svg>