<svg width="24" height="24" fill="none" xmlns="http://www.w3.org/2000/svg"><path d="M7.9 2.025c-.784.067-1.215.171-1.68.405a3.917 3.917 0 0 0-1.561 1.387 3.899 3.899 0 0 0-.552 1.323c-.084.358-.084.41-.097 8.176-.014 8.786-.039 8.057.288 8.384.27.27.666.366 1.009.244.087-.03 1.628-.895 3.425-1.922L12 18.154l3.268 1.868c1.797 1.027 3.338 1.892 3.425 1.922a.977.977 0 0 0 1.009-.244c.326-.326.302.4.287-8.363-.015-8.623.003-8.032-.27-8.787-.373-1.031-1.364-1.983-2.419-2.323-.619-.2-.595-.199-5.06-.208a356.123 356.123 0 0 0-4.34.006m7.901 2.015c.341.022.723.066.85.099.554.145 1.065.655 1.21 1.209.124.477.143 1.566.131 7.776l-.012 6.145-2.76-1.581c-1.891-1.083-2.832-1.601-2.99-1.644-.209-.057-.251-.057-.46 0-.158.043-1.099.561-2.99 1.644l-2.76 1.581-.012-6.145c-.012-6.21.007-7.299.131-7.776.104-.398.417-.8.812-1.044.239-.148.575-.225 1.142-.261.726-.046 6.991-.049 7.708-.003M8.667 9.065c-.402.123-.699.584-.658 1.018.038.395.344.776.702.875.097.027 1.25.042 3.292.042 3.541 0 3.387.013 3.698-.299a.984.984 0 0 0-.004-1.406c-.305-.305-.179-.295-3.714-.292-2.642.002-3.153.012-3.316.062" fill="#667085" fill-rule="evenodd"/></svg>