<svg width="24" height="24" fill="none" xmlns="http://www.w3.org/2000/svg"><path d="M3.632 2.042A2.957 2.957 0 0 0 1.041 4.58c-.025.176-.039 2.385-.039 5.92s.014 5.744.039 5.92c.124.869.599 1.61 1.349 2.103.248.162.521.276 1.01.419.055.016 1.18.043 2.5.059 2.658.034 2.719.039 3.246.299.619.304.872.564 1.637 1.68.316.461.663.865.732.852a.948.948 0 0 1 .205.081c.226.107.334.107.56 0a.715.715 0 0 1 .216-.077c.075.017.324-.275.693-.816.785-1.149 1.04-1.413 1.665-1.72.527-.26.588-.265 3.246-.299 1.32-.016 2.445-.043 2.5-.059.489-.143.762-.257 1.01-.419a2.987 2.987 0 0 0 1.349-2.103c.056-.393.055-11.433-.001-11.836a2.926 2.926 0 0 0-.847-1.696c-.296-.292-.392-.361-.766-.553-.581-.298-.659-.307-2.78-.325-2.548-.022-3.488.043-4.236.293-.832.278-1.422.735-2.06 1.595-.131.177-.252.322-.268.322-.016 0-.145-.152-.285-.339-.972-1.29-1.814-1.716-3.639-1.84-.67-.046-4.05-.045-4.445.001M8.3 4.08c.815.089 1.247.276 1.749.755.493.469.729.91.831 1.547.095.59.118 1.903.119 6.726L11 18.117l-.298-.214a5.351 5.351 0 0 0-1.32-.661c-.652-.198-.827-.211-3.282-.242-1.501-.019-2.367-.044-2.454-.073a.986.986 0 0 1-.484-.383c-.062-.102-.095-.247-.122-.551-.048-.536-.049-10.446-.001-10.981.031-.336.056-.436.142-.567.178-.268.375-.369.795-.407.497-.044 3.828-.012 4.324.042m11.647-.042c.511.043.684.123.872.408.09.135.111.227.143.607.048.586.048 10.312-.001 10.899-.028.347-.057.485-.123.591a.978.978 0 0 1-.484.384c-.087.029-.953.054-2.454.073-2.455.031-2.63.044-3.282.242-.39.119-.969.409-1.32.661l-.298.214.001-5.029c.001-5.901.027-6.645.249-7.248.181-.49.619-1.019 1.112-1.342.464-.304.89-.404 1.934-.456.891-.044 3.137-.046 3.651-.004" fill="#667085" fill-rule="evenodd"/></svg>