<svg width="24" height="24" fill="none" xmlns="http://www.w3.org/2000/svg"><path d="M6.9 1.025c-.767.064-1.216.171-1.672.399-1.116.557-1.829 1.471-2.121 2.716-.084.358-.084.398-.096 7.56-.01 6.166-.003 7.272.048 7.7.097.818.233 1.221.607 1.795.564.865 1.424 1.455 2.474 1.698.354.082.451.084 6.14.097 3.787.009 5.886 0 6.088-.027 1.29-.171 2.291-1.086 2.542-2.323.053-.261.064-1.363.079-8.498.012-5.731.004-8.294-.026-8.52-.167-1.247-1.01-2.194-2.25-2.53-.233-.063-.704-.069-5.953-.074-3.135-.003-5.772 0-5.86.007m11.088 2.014c.468.043.649.131.831.407.09.135.111.227.143.607.02.246.037 2.809.037 5.697L19 15h-6.11c-3.962 0-6.201.015-6.37.041a3.875 3.875 0 0 0-1.12.372l-.37.18c-.045.021-.035-9.758.011-10.433.022-.318.066-.683.099-.811.101-.396.415-.801.811-1.045.239-.148.575-.225 1.142-.261.697-.045 10.406-.048 10.895-.004m1.011 15.211c0 .688-.017 1.452-.038 1.7-.033.403-.049.467-.158.626-.175.254-.338.34-.73.385-.45.052-10.423.05-11.053-.002-.76-.063-1.082-.189-1.445-.567-.346-.36-.381-.454-.419-1.138-.031-.553-.027-.635.044-.866.204-.659.795-1.225 1.407-1.345.095-.019 2.922-.036 6.283-.039L19 17l-.001 1.25" fill="#667085" fill-rule="evenodd"/></svg>