<svg width="24" height="24" fill="none" xmlns="http://www.w3.org/2000/svg"><path d="M2.576 2.059c-.677.148-1.213.625-1.461 1.301l-.095.26v3.8l.108.27c.137.342.294.571.551.802.238.214.497.348.671.348h.124l.019 4.71c.012 3.077.034 4.806.062 4.986.143.914.449 1.561 1.032 2.182.706.751 1.487 1.128 2.573 1.241.511.053 11.169.053 11.68 0 1.086-.113 1.867-.49 2.573-1.241.583-.621.889-1.269 1.032-2.182.028-.18.049-1.922.062-4.986l.019-4.71h.124c.174 0 .433-.134.671-.348a1.98 1.98 0 0 0 .551-.802l.108-.27v-3.8l-.095-.26c-.251-.685-.785-1.155-1.48-1.302-.383-.082-18.455-.08-18.829.001m18.371 1.994c.039.04.069 2.53.033 2.777l-.025.17H3.05l-.025-.125c-.032-.158-.032-2.625 0-2.743.013-.048.053-.096.089-.105.124-.033 17.799-.007 17.833.026m-1.479 9.577c-.012 3.369-.029 4.695-.064 4.868-.102.51-.508 1.033-.978 1.26-.463.223-.43.222-6.426.222s-5.963.001-6.426-.222c-.47-.227-.876-.75-.978-1.26-.035-.174-.052-1.489-.064-4.868L4.517 9H19.484l-.016 4.63M8.505 10.564c-.263.063-.698.317-.919.539a2 2 0 0 0-.524.941c-.087.369-.087 2.543 0 2.912a2.038 2.038 0 0 0 1.398 1.471c.225.068.452.073 3.54.073s3.315-.005 3.54-.073a2.038 2.038 0 0 0 1.398-1.471c.087-.369.087-2.543 0-2.912-.138-.589-.514-1.049-1.09-1.334l-.342-.17-3.423-.007c-1.978-.003-3.488.01-3.578.031m6.47 2.046c.039.147.027 1.765-.014 1.83-.033.052-.406.06-2.961.06-2.555 0-2.928-.008-2.961-.06-.041-.065-.055-1.753-.015-1.857.022-.057.322-.063 2.976-.063h2.951l.024.09" fill="#667085" fill-rule="evenodd"/></svg>