<svg width="24" height="24" fill="none" xmlns="http://www.w3.org/2000/svg"><path d="M4.854 3.057a2.789 2.789 0 0 0-.897.305c-.853.427-1.458 1.181-1.728 2.154-.08.289-.084.417-.099 2.624l-.016 2.32-.49.5C1.106 11.488 1 11.665 1 12c0 .335.106.512.624 1.04l.49.5.016 2.32c.015 2.207.019 2.335.099 2.624.354 1.278 1.317 2.194 2.579 2.453.783.16 1.251.003 1.521-.509.12-.229.122-.624.004-.849-.188-.356-.461-.525-.936-.579-.544-.062-.885-.277-1.11-.7l-.107-.2-.02-2.6-.02-2.6-.094-.18a2.574 2.574 0 0 0-.358-.449l-.263-.269.261-.271c.144-.149.305-.352.358-.451l.096-.18.02-2.6.02-2.6.107-.203a1.271 1.271 0 0 1 1.039-.681c.522-.048.806-.215 1.003-.588.12-.229.122-.624.004-.849-.259-.491-.742-.662-1.479-.522m13.414-.002c-.269.101-.445.246-.568.469a.96.96 0 0 0-.003.946c.194.352.407.476.919.535.174.02.393.07.485.111.235.104.486.342.612.581l.107.203.02 2.6.02 2.6.094.18c.052.099.213.301.358.449l.264.269-.284.292c-.466.481-.428.212-.452 3.21l-.02 2.6-.107.2c-.225.424-.566.638-1.114.7-.415.047-.688.189-.847.439-.227.358-.242.685-.046 1.045.211.387.544.541 1.089.503 1.369-.094 2.557-1.062 2.94-2.393.118-.409.144-.951.144-3.011l.001-2.037.493-.503c.521-.531.627-.708.627-1.043 0-.335-.106-.512-.627-1.043l-.493-.503V8.397c-.001-2.057-.026-2.576-.146-2.996a3.304 3.304 0 0 0-2.974-2.383c-.239-.014-.385-.003-.492.037m-6.625 4.014a1.066 1.066 0 0 0-.577.591c-.057.168-.066.408-.066 1.767V11H9.427c-1.789 0-1.836.006-2.128.299a.984.984 0 0 0 0 1.402c.292.293.339.299 2.128.299H11v1.573c0 1.789.006 1.836.299 2.128a.984.984 0 0 0 1.402 0c.293-.292.299-.339.299-2.128V13h1.573c1.789 0 1.836-.006 2.128-.299a.984.984 0 0 0 0-1.402c-.292-.293-.339-.299-2.128-.299H13V9.427c0-1.789-.006-1.836-.299-2.128a.998.998 0 0 0-1.058-.23" fill="#667085" fill-rule="evenodd"/></svg>