<svg width="24" height="24" fill="none" xmlns="http://www.w3.org/2000/svg"><path d="M10.481 2.045c-1.405.163-2.665 1.14-3.194 2.478-.16.405-.207.655-.207 1.099V6H5.529c-.854 0-1.703.019-1.89.042-1.366.171-2.405 1.186-2.598 2.538-.054.38-.054 10.46 0 10.84.152 1.064.884 1.995 1.859 2.362.604.227.243.218 9.1.218s8.496.009 9.1-.218c.975-.368 1.71-1.303 1.858-2.366.056-.402.056-10.444.001-10.836-.193-1.352-1.232-2.367-2.598-2.538C20.175 6.019 19.326 6 18.476 6H16.93l-.02-.49c-.015-.36-.044-.559-.109-.75a3.939 3.939 0 0 0-.96-1.563 3.73 3.73 0 0 0-1.176-.817 3.424 3.424 0 0 0-1.205-.339c-.427-.048-2.552-.045-2.979.004m2.79 1.994c.458.052.792.217 1.133.557.339.34.498.663.537 1.094l.028.31H9.031l.028-.31c.039-.431.198-.754.537-1.094.322-.321.687-.509 1.077-.554.389-.046 2.211-.048 2.598-.003M7 14v6l-1.35-.001c-1.997-.001-2.185-.033-2.452-.422-.106-.154-.126-.228-.158-.587-.049-.538-.048-9.447 0-9.986.043-.475.126-.647.397-.827.211-.14.532-.164 2.213-.171L7 8v6m8 0v6H9V8h6v6m4.996-5.96c.474.043.647.126.825.395.086.13.108.226.14.609.049.589.049 9.316.001 9.903-.042.506-.121.678-.4.872-.215.149-.593.179-2.212.18L17 20V8l1.29.001c.71.001 1.477.019 1.706.039" fill="#667085" fill-rule="evenodd"/></svg>