<svg width="24" height="24" fill="none" xmlns="http://www.w3.org/2000/svg"><path d="M4.9 2.025c-.989.083-1.531.257-2.2.708-.578.389-1.181 1.16-1.417 1.811-.279.77-.263.33-.263 7.456 0 6.02.004 6.442.072 6.773.223 1.094.826 1.987 1.746 2.582.418.269.858.445 1.389.553.332.068.791.072 7.773.072 6.982 0 7.441-.004 7.773-.072 1.094-.223 1.987-.826 2.582-1.746.269-.418.445-.858.553-1.389.068-.331.072-.753.072-6.773s-.004-6.442-.072-6.773c-.289-1.42-1.291-2.57-2.618-3.005-.618-.202-.343-.195-8.05-.203a1071.16 1071.16 0 0 0-7.34.006M18.801 4.04c.341.022.724.067.851.1.553.144 1.065.656 1.209 1.209.072.279.139 1.261.139 2.061V8H3v-.59c0-.802.067-1.782.14-2.062.103-.397.416-.8.811-1.044.239-.148.575-.225 1.142-.261.736-.047 12.976-.05 13.708-.003M21 13.59c0 3.606-.029 4.636-.139 5.061-.142.544-.638 1.05-1.181 1.206-.45.128-1.166.142-7.68.142-6.514 0-7.23-.014-7.68-.142-.543-.156-1.039-.662-1.181-1.206C3.029 18.226 3 17.196 3 13.59V10h18v3.59" fill="#667085" fill-rule="evenodd"/></svg>