<svg width="24" height="24" fill="none" xmlns="http://www.w3.org/2000/svg"><path d="M19.139 1.197a3.452 3.452 0 0 0-1.437.603c-.281.211-10.141 9.34-10.682 9.891-.615.627-.854 1.115-.924 1.894l-.027.295H5.62c-.736 0-1.395.147-1.991.443-.914.455-1.537 1.102-1.824 1.895-.225.623-.248.87-.24 2.582.008 1.708-.01 1.883-.247 2.467-.207.511-.168.874.128 1.195.3.325.35.334 2.001.363 1.872.032 2.653-.031 3.54-.288.799-.232 1.346-.545 1.876-1.074.827-.826 1.257-1.914 1.257-3.18v-.391l.336-.024c.723-.051 1.286-.342 1.93-.996.571-.581 9.549-10.285 9.762-10.552.718-.901.869-2.251.371-3.316-.388-.827-1.193-1.501-2.065-1.727-.348-.09-1.005-.13-1.315-.08m.916 2.045c.622.232.937.992.661 1.595-.08.175-.833 1.011-3.937 4.367l-3.839 4.15-1.15-1.147c-.633-.631-1.146-1.157-1.14-1.17.019-.045 8.173-7.579 8.3-7.67a1.205 1.205 0 0 1 1.105-.125M10.38 13.64l1.199 1.2-.479.48c-.39.392-.514.492-.674.545a1.024 1.024 0 0 1-.733-.051c-.211-.1-1.441-1.339-1.535-1.547a1.161 1.161 0 0 1-.016-.778c.061-.149.918-1.049.998-1.049.022 0 .58.54 1.24 1.2m-4.165 2.22c.874.185 1.659.942 1.885 1.818.085.331.085.914-.001 1.247-.142.551-.531 1.102-.987 1.397-.582.376-1.791.571-3.116.5l-.542-.029.035-.187c.019-.102.05-.915.067-1.806.038-1.937.033-1.915.442-2.32.564-.56 1.399-.794 2.217-.62" fill="#667085" fill-rule="evenodd"/></svg>