<svg width="24" height="24" fill="none" xmlns="http://www.w3.org/2000/svg"><path d="M4.68 1.026c-.582.095-1.208.553-1.457 1.066-.236.487-.228.256-.213 5.555.014 4.756.016 4.86.098 5.213.264 1.137.901 2.02 1.867 2.588.667.392 1.225.51 2.552.541l.947.022.016 1.985c.016 1.878.021 2.002.103 2.317.483 1.85 2.275 2.99 4.107 2.612a3.535 3.535 0 0 0 2.579-2.214c.209-.564.213-.604.23-2.715l.017-1.985.947-.022c1.327-.031 1.885-.149 2.552-.541.966-.568 1.603-1.451 1.867-2.588.082-.353.084-.457.098-5.213.012-4.303.006-4.88-.049-5.1-.172-.679-.604-1.162-1.281-1.431l-.24-.096-7.32-.005a911.69 911.69 0 0 0-7.42.011m14.257 2.037c.056.056.063.383.063 3V9H5V6.042c0-2.775.004-2.961.07-2.999.047-.027 2.347-.041 6.937-.042 6.191-.001 6.873.005 6.93.062m-.017 8.311c0 .697-.075 1.387-.172 1.583-.121.246-.456.597-.72.756-.455.274-.291.266-6.028.266-5.737 0-5.573.008-6.028-.266-.265-.16-.61-.521-.725-.76-.092-.19-.167-.899-.167-1.579V11h13.84v.374m-5.449 6.596-.011 1.97-.136.25a1.58 1.58 0 0 1-.717.684c-.196.091-.279.106-.607.106-.328 0-.411-.015-.607-.106a1.62 1.62 0 0 1-.727-.693l-.126-.241-.011-1.97-.012-1.97h2.966l-.012 1.97" fill="#667085" fill-rule="evenodd"/></svg>