<svg width="24" height="24" fill="none" xmlns="http://www.w3.org/2000/svg"><path d="M6.68 1.026c-.583.096-1.208.553-1.457 1.066-.236.487-.228.256-.213 5.555.014 4.756.016 4.86.098 5.213.222.956.664 1.67 1.401 2.262.546.439.985.622 1.878.782l.087.016.016 2.03c.016 1.926.021 2.047.103 2.363.483 1.85 2.275 2.99 4.107 2.612a3.535 3.535 0 0 0 2.579-2.214c.21-.566.213-.599.23-2.761l.017-2.03.087-.017c.048-.01.202-.038.342-.063.789-.142 1.553-.602 2.108-1.27.423-.511.668-1.016.829-1.71.082-.353.084-.457.098-5.213.012-4.303.006-4.88-.049-5.1-.172-.679-.604-1.162-1.281-1.431l-.24-.096-5.32-.005c-2.926-.003-5.365.002-5.42.011m10.257 2.037c.056.056.063.383.063 3V9H7V6.042c0-2.775.004-2.961.07-2.999.046-.027 1.706-.041 4.937-.042 4.373-.001 4.874.005 4.93.062m-.017 8.311c0 .697-.075 1.387-.172 1.583-.121.246-.456.597-.72.756-.433.26-.509.265-4.028.265-3.519 0-3.595-.005-4.028-.265-.265-.16-.61-.521-.725-.76-.092-.19-.167-.899-.167-1.579V11h9.84v.374m-3.449 6.596-.011 1.97-.136.25a1.58 1.58 0 0 1-.717.684c-.196.091-.279.106-.607.106-.328 0-.411-.015-.607-.106a1.62 1.62 0 0 1-.727-.693l-.126-.241-.011-1.97-.012-1.97h2.966l-.012 1.97" fill="#667085" fill-rule="evenodd"/></svg>