<svg width="24" height="24" fill="none" xmlns="http://www.w3.org/2000/svg"><path d="M4.632 2.041A2.958 2.958 0 0 0 2.041 4.58c-.025.178-.04 3.034-.04 7.844L2 19.987l-.221.05c-.47.105-.759.478-.759.982 0 .235.018.312.111.47.125.213.318.375.539.454.124.044 1.926.054 10.31.055 6.881.001 10.208-.012 10.309-.04.571-.158.868-.876.589-1.419a.98.98 0 0 0-.657-.502l-.221-.05v-3.55c0-2.259-.015-3.661-.042-3.853a3.018 3.018 0 0 0-.414-1.16c-.175-.28-.575-.711-.806-.868a3.956 3.956 0 0 0-.973-.447c-.295-.082-.395-.086-3.035-.1L14 9.995V7.44c0-2.69-.014-2.951-.182-3.445-.174-.512-.651-1.147-1.08-1.439a3.993 3.993 0 0 0-.973-.447c-.299-.084-.366-.086-3.585-.093-1.804-.004-3.4.007-3.548.025m6.315 1.997c.511.043.684.123.872.408.09.135.111.227.143.607.021.252.037 3.609.037 7.697L12 20H4l.001-7.29c.001-4.103.018-7.468.038-7.698.043-.469.131-.649.41-.833.133-.088.229-.113.527-.138.533-.044 5.447-.046 5.971-.003M6.24 6.037c-.307.095-.592.358-.682.628-.073.216-.066.49.017.708.086.225.391.512.616.579.111.034.654.048 1.834.048 1.671-.001 1.676-.001 1.875-.094a.994.994 0 0 0 .043-1.799c-.16-.085-.2-.087-1.883-.094-.946-.004-1.765.006-1.82.024m0 4c-.307.095-.592.358-.682.628-.073.216-.066.49.017.708.086.225.391.512.616.579.111.034.654.048 1.834.048 1.671-.001 1.676-.001 1.875-.094a.994.994 0 0 0 .043-1.799c-.16-.085-.2-.087-1.883-.094-.946-.004-1.765.006-1.82.024m12.707 2.001c.511.043.684.123.872.408.162.244.18.672.18 4.304L20 20h-6v-8l2.25.001c1.238 0 2.451.017 2.697.037M6.24 14.037c-.307.095-.592.358-.682.628-.073.216-.066.49.017.708.086.225.391.512.616.579.111.034.654.048 1.834.048 1.671-.001 1.676-.001 1.875-.094a.994.994 0 0 0 .043-1.799c-.16-.085-.2-.087-1.883-.094-.946-.004-1.765.006-1.82.024" fill="#667085" fill-rule="evenodd"/></svg>