<svg width="24" height="24" fill="none" xmlns="http://www.w3.org/2000/svg"><path d="M4.61 2.044c-1.319.155-2.378 1.202-2.569 2.536-.054.382-.054 14.458 0 14.84a2.976 2.976 0 0 0 2.539 2.539c.403.057 14.432.055 14.845-.002a2.977 2.977 0 0 0 2.534-2.537c.025-.178.039-2.888.039-7.42s-.014-7.242-.039-7.42c-.173-1.215-1.023-2.156-2.246-2.488-.235-.064-.782-.07-7.533-.076-4.004-.004-7.41.009-7.57.028m14.378 1.995c.468.043.649.131.831.407.09.135.111.227.143.607.051.614.047 2.041-.005 2.33-.098.537-.519 1.119-.989 1.37-.812.432-1.793.278-2.407-.378C16.21 7.999 16 7.488 16 7.007c0-.358-.279-.774-.61-.906a1.185 1.185 0 0 0-.78 0c-.331.132-.61.548-.61.906 0 .481-.21.992-.561 1.368-.778.831-2.1.831-2.878 0C10.21 7.999 10 7.488 10 7.007c0-.358-.279-.774-.61-.906a1.185 1.185 0 0 0-.78 0c-.331.132-.61.548-.61.906 0 .481-.21.992-.561 1.368-.614.656-1.595.81-2.407.378-.47-.251-.891-.833-.989-1.37-.052-.289-.054-1.806-.003-2.379.031-.34.056-.445.139-.57.171-.258.362-.356.768-.392.505-.044 13.547-.047 14.041-.003M9.3 9.875c.52.494 1.113.831 1.78 1.011.489.133 1.351.133 1.84 0a4.11 4.11 0 0 0 1.785-1.016L15 9.59l.295.28c1.255 1.192 2.896 1.454 4.365.695l.31-.158c.044-.02.036 8.01-.009 8.543-.033.403-.049.467-.158.626-.269.39-.458.423-2.433.424H16v-2.612c0-2.839 0-2.833-.228-3.308-.232-.481-.844-.937-1.389-1.037-.323-.059-4.443-.059-4.766 0-.545.1-1.157.556-1.389 1.037C8 14.555 8 14.549 8 17.388V20H6.63c-1.973-.001-2.169-.035-2.442-.428-.094-.136-.116-.222-.148-.576-.044-.492-.054-8.609-.01-8.589l.31.158c1.465.757 3.127.494 4.356-.689.156-.151.291-.274.299-.275.009 0 .146.123.305.274m4.659 5.202c.027.051.041.907.041 2.5V20h-4v-2.452c0-1.854.012-2.464.048-2.5.036-.036.526-.048 1.959-.048 1.848 0 1.912.003 1.952.077" fill="#667085" fill-rule="evenodd"/></svg>