<svg width="24" height="24" fill="none" xmlns="http://www.w3.org/2000/svg"><path d="M9.121 2.044a2.699 2.699 0 0 0-1.001.299c-.727.382-1.301 1.084-1.5 1.837-.114.433-.137 1.009-.139 3.427L6.48 9.995l-1.45.013c-1.417.014-1.456.016-1.69.109-.677.268-1.105.744-1.279 1.421-.053.207-.061.789-.061 4.344v4.105l-.221.05c-.47.105-.759.478-.759.982 0 .235.018.312.111.47.125.213.318.375.539.454.124.044 1.926.054 10.31.055 6.881.001 10.208-.012 10.309-.04.571-.158.868-.876.589-1.419a.98.98 0 0 0-.657-.502l-.221-.05v-4.105c0-3.555-.008-4.137-.061-4.344-.174-.677-.602-1.153-1.279-1.421-.234-.093-.273-.095-1.69-.109l-1.45-.013V7.627c0-2.993-.03-3.334-.344-3.972a2.996 2.996 0 0 0-1.356-1.337c-.592-.294-.545-.291-3.64-.301-1.518-.005-2.895.007-3.059.027m5.696 2.028c.338.092.571.366.624.732.022.149.038 3.366.038 7.726L15.48 20H8.518l.011-7.65c.008-5.783.023-7.676.058-7.756.069-.153.286-.388.425-.46.067-.035.285-.077.485-.095.539-.047 5.129-.018 5.32.033m-4.15 1.993a.998.998 0 0 0 .003 1.878c.187.067 2.387.08 2.619.015.358-.099.664-.48.702-.875.042-.444-.256-.896-.675-1.02-.297-.089-2.36-.087-2.649.002m0 4a.998.998 0 0 0 .003 1.878c.187.067 2.387.08 2.619.015.358-.099.664-.48.702-.875.042-.444-.256-.896-.675-1.02-.297-.089-2.36-.087-2.649.002M6.48 16v4H4v-3.958c0-3.727.004-3.96.07-3.999.043-.025.52-.041 1.24-.042L6.48 12v4m13.457-3.937c.056.056.063.474.063 4V20h-2.48v-8h1.177c1.017 0 1.186.009 1.24.063m-9.27 2.002a.998.998 0 0 0 .003 1.878c.187.067 2.387.08 2.619.015.358-.099.664-.48.702-.875.042-.444-.256-.896-.675-1.02-.297-.089-2.36-.087-2.649.002" fill="#667085" fill-rule="evenodd"/></svg>