<svg width="24" height="24" fill="none" xmlns="http://www.w3.org/2000/svg"><path d="M6.632 2.041A2.96 2.96 0 0 0 4.041 4.58c-.025.178-.04 3.036-.04 7.85L4 20h-.553c-.691 0-.904.055-1.145.296a.998.998 0 0 0 .368 1.647c.124.044 1.762.054 9.31.055 6.192.001 9.208-.012 9.309-.04.22-.061.473-.273.585-.489a.985.985 0 0 0-.176-1.173c-.241-.241-.454-.296-1.145-.296H20v-7.557c0-5.054-.014-7.657-.042-7.859a3.018 3.018 0 0 0-.414-1.16c-.175-.28-.575-.711-.806-.868a3.998 3.998 0 0 0-.973-.448l-.305-.087-5.28-.006c-2.904-.003-5.4.008-5.548.026m10.315 1.997c.38.032.472.053.607.143.285.188.365.361.408.872.021.252.037 3.609.037 7.697L18 20h-2v-2.612c0-2.214-.009-2.647-.061-2.85-.177-.688-.619-1.173-1.299-1.422l-.26-.096H9.62l-.26.096c-.68.249-1.122.734-1.299 1.422-.052.203-.061.636-.061 2.85V20H6l.001-7.29c.001-4.103.018-7.468.038-7.698.043-.469.131-.649.41-.833.133-.088.229-.113.527-.138.533-.043 9.445-.046 9.971-.003M8.996 6.596a1.5 1.5 0 0 0-.916.958c-.139.44-.081.864.171 1.261.567.893 1.931.893 2.498 0 .252-.397.31-.821.171-1.261a1.493 1.493 0 0 0-.927-.96c-.257-.098-.745-.097-.997.002m5 0a1.5 1.5 0 0 0-.916.958c-.139.44-.081.864.171 1.261.567.893 1.931.893 2.498 0 .252-.397.31-.821.171-1.261a1.493 1.493 0 0 0-.927-.96c-.257-.098-.745-.097-.997.002m-.059 8.467c.056.056.063.338.063 2.5V20h-4v-2.458c0-2.299.005-2.461.07-2.499.045-.026.744-.041 1.937-.042 1.645-.001 1.875.006 1.93.062" fill="#667085" fill-rule="evenodd"/></svg>