<svg width="24" height="24" fill="none" xmlns="http://www.w3.org/2000/svg"><path d="M11.521 1.626c-.23.081-8.013 4.94-8.209 5.126a.977.977 0 0 0 .048 1.459c.311.266-.264.249 8.64.249 6.735 0 8.132-.009 8.288-.055.545-.158.855-.799.634-1.311a1.226 1.226 0 0 0-.234-.342c-.204-.193-7.991-5.05-8.224-5.128-.237-.081-.709-.08-.943.002m2.673 3.378c1.202.751 2.212 1.39 2.245 1.42.05.048-.596.056-4.438.056-3.424 0-4.486-.011-4.45-.047.043-.043 4.412-2.788 4.443-2.791.008-.001.998.612 2.2 1.362M5.578 9.555c-.211.096-.475.4-.534.615-.035.126-.044 1.253-.036 4.37l.012 4.2.088.164c.102.19.33.403.518.481.169.071.579.071.748 0a1.21 1.21 0 0 0 .518-.481l.088-.164.012-4.2c.008-3.117-.001-4.244-.036-4.37-.059-.215-.323-.519-.534-.615A1.073 1.073 0 0 0 6 9.482c-.167 0-.318.026-.422.073m4 0c-.211.096-.475.4-.534.615-.035.126-.044 1.253-.036 4.37l.012 4.2.088.164c.102.19.33.403.518.481.169.071.579.071.748 0a1.21 1.21 0 0 0 .518-.481l.088-.164.012-4.2c.008-3.117-.001-4.244-.036-4.37-.059-.215-.323-.519-.534-.615A1.073 1.073 0 0 0 10 9.482c-.167 0-.318.026-.422.073m4 0c-.211.096-.475.4-.534.615-.035.126-.044 1.253-.036 4.37l.012 4.2.088.164c.102.19.33.403.518.481.169.071.579.071.748 0a1.21 1.21 0 0 0 .518-.481l.088-.164.012-4.2c.008-3.117-.001-4.244-.036-4.37-.059-.215-.323-.519-.534-.615A1.073 1.073 0 0 0 14 9.482c-.167 0-.318.026-.422.073m4 0c-.211.096-.475.4-.534.615-.035.126-.044 1.253-.036 4.37l.012 4.2.088.164c.102.19.33.403.518.481.169.071.579.071.748 0a1.21 1.21 0 0 0 .518-.481l.088-.164.012-4.2c.008-3.117-.001-4.244-.036-4.37-.059-.215-.323-.519-.534-.615A1.073 1.073 0 0 0 18 9.482c-.167 0-.318.026-.422.073m-15 11c-.215.098-.475.4-.538.626-.134.476.123.998.597 1.214.131.059.938.065 9.363.065 8.425 0 9.232-.006 9.363-.065.474-.216.731-.738.597-1.214-.063-.226-.323-.528-.538-.626-.156-.07-.526-.073-9.422-.073s-9.266.003-9.422.073" fill="#667085" fill-rule="evenodd"/></svg>