<svg width="24" height="24" fill="none" xmlns="http://www.w3.org/2000/svg"><path d="M5.632 2.041A2.96 2.96 0 0 0 3.041 4.58c-.025.178-.04 3.036-.04 7.85L3 20h-.553c-.691 0-.904.055-1.145.296a.998.998 0 0 0 .368 1.647c.124.044 1.926.054 10.31.055 6.881.001 10.208-.012 10.309-.04.22-.061.473-.273.585-.489a.985.985 0 0 0-.176-1.173c-.241-.241-.454-.296-1.145-.296H21v-7.557c0-5.054-.014-7.657-.042-7.859a3.018 3.018 0 0 0-.414-1.16c-.175-.28-.575-.711-.806-.868a4.018 4.018 0 0 0-.973-.448l-.305-.087-6.28-.006c-3.454-.003-6.4.009-6.548.026m12.315 1.997c.511.043.684.123.872.408.09.135.111.227.143.607.021.252.037 3.609.037 7.697L19 20H5l.001-7.29c.001-4.103.018-7.468.038-7.698.043-.469.131-.649.41-.833.133-.088.229-.113.527-.138.534-.044 11.443-.046 11.971-.003M7.24 6.037c-.304.093-.592.357-.682.628-.073.216-.066.49.017.708.09.234.397.518.633.583.124.035.615.045 1.752.036 1.531-.012 1.585-.015 1.74-.098a1.01 1.01 0 0 0 .539-.897c.002-.42-.315-.845-.71-.955-.173-.048-3.133-.052-3.289-.005m6.185.021a1.03 1.03 0 0 0-.619 1.268c.061.2.279.453.488.565.162.087.202.089 1.766.101 1.802.013 1.807.012 2.126-.281.499-.461.376-1.272-.243-1.604-.159-.085-.205-.087-1.763-.096-1.29-.007-1.63.002-1.755.047M7.24 10.037c-.304.093-.592.357-.682.628-.073.216-.066.49.017.708.09.234.397.518.633.583.124.035.615.045 1.752.036 1.531-.012 1.585-.015 1.74-.098a1.01 1.01 0 0 0 .539-.897c.002-.42-.315-.845-.71-.955-.173-.048-3.133-.052-3.289-.005m6.185.021a1.03 1.03 0 0 0-.619 1.268c.061.2.279.453.488.565.162.087.202.089 1.766.101 1.802.013 1.807.012 2.126-.281.499-.461.376-1.272-.243-1.604-.159-.085-.205-.087-1.763-.096-1.29-.007-1.63.002-1.755.047M7.24 14.037c-.304.093-.592.357-.682.628-.073.216-.066.49.017.708.09.234.397.518.633.583.124.035.615.045 1.752.036 1.531-.012 1.585-.015 1.74-.098a1.01 1.01 0 0 0 .539-.897c.002-.42-.315-.845-.71-.955-.173-.048-3.133-.052-3.289-.005m6.185.021a1.03 1.03 0 0 0-.619 1.268c.061.2.279.453.488.565.162.087.202.089 1.766.101 1.802.013 1.807.012 2.126-.281.499-.461.376-1.272-.243-1.604-.159-.085-.205-.087-1.763-.096-1.29-.007-1.63.002-1.755.047" fill="#667085" fill-rule="evenodd"/></svg>