<svg width="24" height="24" fill="none" xmlns="http://www.w3.org/2000/svg"><path d="M7.76 2.026c-.542.056-.987.206-1.4.474a2.979 2.979 0 0 0-1.319 2.08c-.025.178-.04 3.036-.04 7.85L5 20h-.553c-.691 0-.904.055-1.145.296a.985.985 0 0 0-.176 1.173c.112.216.365.428.585.489.207.058 16.371.058 16.578 0 .22-.061.473-.273.585-.489a.985.985 0 0 0-.176-1.173c-.241-.241-.454-.296-1.145-.296H19v-7.557c0-5.054-.014-7.657-.042-7.859a2.923 2.923 0 0 0-.845-1.694 2.882 2.882 0 0 0-1.345-.781c-.307-.087-.326-.087-4.588-.092-2.354-.003-4.343.001-4.42.009m8.187 2.012c.38.032.472.053.607.143.285.188.365.361.408.872.021.252.037 3.609.037 7.697L17 20H7l.001-7.29c.001-4.103.018-7.468.038-7.698.043-.469.131-.649.41-.833.133-.088.229-.113.527-.138.533-.044 7.446-.046 7.971-.003M9.24 6.037c-.193.06-.347.159-.488.315-.445.493-.272 1.265.348 1.554l.2.093h5.4l.2-.093a.994.994 0 0 0 .043-1.799c-.162-.087-.172-.087-2.883-.094-1.496-.004-2.765.007-2.82.024m0 4c-.193.06-.347.159-.488.315-.445.493-.272 1.265.348 1.554l.2.093h5.4l.2-.093a.994.994 0 0 0 .043-1.799c-.162-.087-.172-.087-2.883-.094-1.496-.004-2.765.007-2.82.024m0 4c-.193.06-.347.159-.488.315-.445.493-.272 1.265.348 1.554l.2.093h5.4l.2-.093a.994.994 0 0 0 .043-1.799c-.162-.087-.172-.087-2.883-.094-1.496-.004-2.765.007-2.82.024" fill="#667085" fill-rule="evenodd"/></svg>