<svg width="24" height="24" fill="none" xmlns="http://www.w3.org/2000/svg"><path d="M5.84 1.026c-1.012.077-1.744.358-2.435.935-.552.461-1.039 1.21-1.202 1.848-.181.708-.183.774-.183 6.851 0 6.391-.014 6.03.264 6.798.24.664.835 1.368 1.524 1.801l.188.119.012 1.241.012 1.241.112.24c.147.315.455.624.764.767l.244.113h3.24l.22-.104c.448-.213.775-.627.876-1.108.024-.117.044-.562.044-.99V20h4.952l.014.912.014.912.151.306c.173.349.408.584.749.746l.22.104h3.24l.244-.113c.309-.143.617-.452.764-.767l.112-.24.012-1.241.012-1.241.188-.119c.692-.435 1.284-1.137 1.527-1.808.273-.754.261-.45.261-6.811 0-6.056-.002-6.123-.183-6.831-.278-1.086-1.273-2.146-2.391-2.545-.699-.25-.342-.238-7.166-.245-3.421-.004-6.301 0-6.4.007M17.87 3.04c.856.059 1.093.138 1.484.496.287.263.446.542.446.782v.202H4.2v-.206c0-.246.136-.485.432-.763.385-.359.659-.458 1.417-.509.681-.046 11.155-.047 11.821-.002m2.106 3.543c.013.035.024 1.043.024 2.24V11H4V8.823c0-1.197.011-2.205.024-2.24.022-.057.762-.063 7.976-.063s7.954.006 7.976.063M20 14.09c0 1.255-.053 2.231-.139 2.561-.141.541-.642 1.052-1.181 1.205-.452.128-1.219.144-6.696.143-5.442-.001-6.23-.018-6.663-.142-.545-.157-1.04-.662-1.182-1.206C4.053 16.321 4 15.345 4 14.09V13h16v1.09m-13.987.55a.953.953 0 0 0-.51.865c0 .299.18.635.428.802.283.19.521.223 1.464.205.912-.018 1.027-.043 1.279-.284a.981.981 0 0 0 .05-1.4c-.263-.293-.328-.306-1.484-.307H6.22l-.207.119m9.587-.056c-.333.144-.599.551-.599.916 0 .374.265.771.619.926.131.057.311.073.985.086.535.01.903 0 1.049-.031.678-.141 1.035-.836.733-1.429-.105-.206-.251-.344-.495-.467-.183-.093-2.079-.094-2.292-.001M6.89 20h.59v1H6v-1.05l.15.024a8 8 0 0 0 .74.026m11.11.48V21h-1.48v-.998l.65-.012c.357-.007.69-.016.74-.021.089-.009.09-.004.09.511" fill="#667085" fill-rule="evenodd"/></svg>