<svg width="24" height="24" fill="none" xmlns="http://www.w3.org/2000/svg"><path d="M5.9 2.025c-.991.083-1.531.257-2.2.708-.578.389-1.181 1.16-1.417 1.811-.279.77-.263.33-.263 7.456 0 6.02.004 6.442.072 6.773.223 1.094.826 1.987 1.746 2.582.418.269.858.445 1.389.553.331.068.753.072 6.773.072s6.442-.004 6.773-.072c1.094-.223 1.987-.826 2.582-1.746.269-.418.445-.858.553-1.389.068-.331.072-.753.072-6.773s-.004-6.442-.072-6.773c-.289-1.42-1.291-2.57-2.618-3.005-.611-.2-.432-.195-7.05-.203a802.572 802.572 0 0 0-6.34.006M17.801 4.04c.341.022.723.066.85.099.553.144 1.065.656 1.209 1.209.118.452.14 1.48.14 6.652 0 5.167-.022 6.2-.139 6.651-.142.544-.638 1.05-1.181 1.206-.442.126-1.17.142-6.68.142s-6.238-.016-6.68-.142c-.543-.156-1.039-.662-1.181-1.206C4.022 18.2 4 17.167 4 12c0-5.172.022-6.2.14-6.652.103-.397.416-.8.811-1.044.239-.148.575-.225 1.142-.261.734-.047 10.98-.05 11.708-.003M8.122 5.581a1.007 1.007 0 0 0-.511.471c-.101.195-.109.248-.124.838l-.015.63h-.597c-.641 0-.766.027-1.023.224-.451.343-.452 1.172-.003 1.509.3.224.374.243 1.017.26l.606.015.016.606c.014.563.023.621.123.814a.984.984 0 0 0 1.345.431c.216-.118.335-.245.468-.499.059-.113.076-.258.089-.746l.015-.606.606-.015c.488-.013.633-.03.746-.089.254-.133.381-.252.499-.468.28-.515.048-1.142-.51-1.375-.109-.046-.298-.061-.748-.061H9.52v-.51c-.001-.643-.022-.763-.175-1.019-.182-.303-.432-.447-.801-.461-.191-.007-.329.009-.422.051m8.936.038c-.272.136-11.324 11.188-11.461 11.461-.319.634.181 1.409.911 1.411.442.001.163.261 6.221-5.8 6.057-6.06 5.763-5.744 5.762-6.19a.972.972 0 0 0-.991-.981.883.883 0 0 0-.442.099m-3.936 8.964c-.547.237-.774.847-.509 1.365.106.207.244.337.507.477.132.071.269.075 2.38.075h2.24l.215-.119c.506-.28.687-.852.424-1.337a.961.961 0 0 0-.51-.463c-.217-.09-4.538-.089-4.747.002" fill="#667085" fill-rule="evenodd"/></svg>