<svg width="24" height="24" fill="none" xmlns="http://www.w3.org/2000/svg"><path d="M7.664 1.063a1.005 1.005 0 0 0-.533.448c-.107.182-.111.212-.124.839-.01.46-.028.65-.06.651-.532.006-1.652.097-1.944.157-1.195.249-2.292 1.216-2.725 2.401-.273.747-.258.328-.258 7.441 0 6.02.004 6.442.072 6.773.108.531.284.971.553 1.389a3.926 3.926 0 0 0 2.609 1.749c.33.062.718.069 3.946.069h3.58l.163-.087a1 1 0 0 0 0-1.786c-.163-.087-.167-.087-3.623-.11-3.486-.024-3.713-.034-4.116-.175-.321-.114-.687-.427-.9-.772-.275-.444-.304-.963-.304-5.46V11h16v.35c.001.282.019.389.094.55.305.653 1.141.801 1.617.286.308-.335.297-.213.278-3.109-.015-2.416-.021-2.599-.098-2.937a3.844 3.844 0 0 0-.55-1.323c-.55-.845-1.433-1.469-2.344-1.659-.293-.061-1.418-.152-1.947-.157C17.012 3 17 2.858 17 2.427c0-.687-.051-.881-.3-1.129a1 1 0 0 0-1.488.095C15.031 1.63 15 1.781 15 2.43V3H9v-.573c0-.686-.052-.881-.299-1.128a.996.996 0 0 0-1.037-.236M15 5.573c0 .686.052.881.299 1.128a.984.984 0 0 0 1.402 0c.244-.243.299-.445.299-1.088V5.08l.39.001c.737.002 1.361.069 1.561.168.414.206.798.67.909 1.099.073.28.14 1.26.14 2.062V9H4v-.59c0-.802.067-1.782.14-2.062.111-.429.495-.893.909-1.099.2-.099.824-.166 1.561-.168L7 5.08v.533c0 .643.055.845.299 1.088a.984.984 0 0 0 1.402 0C8.948 6.454 9 6.259 9 5.573V5h6v.573m2.664 8.49a1.005 1.005 0 0 0-.533.448l-.111.189-.012 1.15-.013 1.15h-1.072c-.858 0-1.108.012-1.245.061a.989.989 0 0 0-.38 1.639c.279.279.393.3 1.629.3H17v1.073c0 1.235.021 1.35.299 1.628a.984.984 0 0 0 1.402 0c.278-.278.299-.393.299-1.628V19h1.073c1.235 0 1.35-.021 1.628-.299a.984.984 0 0 0 0-1.402c-.278-.278-.393-.299-1.628-.299H19v-1.073c0-1.235-.021-1.35-.299-1.628a.996.996 0 0 0-1.037-.236" fill="#667085" fill-rule="evenodd"/></svg>