<svg width="24" height="24" fill="none" xmlns="http://www.w3.org/2000/svg"><path d="M7.664 1.063a1.005 1.005 0 0 0-.533.448c-.107.182-.111.212-.124.839-.01.46-.028.65-.06.651-.532.006-1.652.097-1.944.157-1.195.249-2.292 1.216-2.725 2.401-.273.747-.258.328-.258 7.441 0 6.02.004 6.442.072 6.773.108.531.284.971.553 1.389a3.96 3.96 0 0 0 2.568 1.745c.284.057.761.068 3.62.082 3.723.017 3.55.03 3.867-.287a.984.984 0 0 0 .001-1.403c-.309-.309-.195-.299-3.378-.3-2.847 0-3.6-.027-4.003-.142-.543-.156-1.039-.662-1.181-1.206C4.029 19.226 4 18.196 4 14.59V11h16v.85c.001.806.006.86.094 1.05.305.653 1.141.801 1.617.286.31-.337.296-.152.279-3.608-.015-2.93-.02-3.095-.098-3.438a3.877 3.877 0 0 0-.551-1.323c-.55-.845-1.433-1.469-2.344-1.659-.293-.061-1.418-.152-1.947-.157C17.012 3 17 2.858 17 2.427c0-.687-.051-.881-.3-1.129a1 1 0 0 0-1.488.095C15.031 1.63 15 1.781 15 2.43V3H9v-.573c0-.686-.052-.881-.299-1.128a.996.996 0 0 0-1.037-.236M15 5.573c0 .686.052.881.299 1.128a.984.984 0 0 0 1.402 0c.244-.243.299-.445.299-1.088V5.08l.39.001c.737.002 1.361.069 1.561.168.414.206.798.67.909 1.099.073.28.14 1.26.14 2.062V9H4v-.59c0-.802.067-1.782.14-2.062.111-.429.495-.893.909-1.099.2-.099.824-.166 1.561-.168L7 5.08v.533c0 .643.055.845.299 1.088a.984.984 0 0 0 1.402 0C8.948 6.454 9 6.259 9 5.573V5h6v.573m5.6 10.01c-.088.038-.866.786-2.101 2.019-1.078 1.077-1.978 1.958-2 1.958-.022 0-.346-.307-.719-.683-.374-.375-.752-.721-.84-.769-.224-.12-.655-.12-.883 0-.34.18-.551.521-.551.892 0 .387.026.422 1.249 1.653.63.634 1.217 1.192 1.305 1.239.224.12.656.12.88-.001.202-.108 4.867-4.78 4.961-4.967.115-.231.123-.554.019-.795a1.153 1.153 0 0 0-.543-.553c-.175-.073-.599-.069-.777.007" fill="#667085" fill-rule="evenodd"/></svg>