<svg width="24" height="24" fill="none" xmlns="http://www.w3.org/2000/svg"><path d="M7.664 1.063a1.005 1.005 0 0 0-.533.448c-.107.182-.111.212-.124.839-.01.46-.028.65-.06.651-.532.006-1.652.097-1.944.157-1.28.266-2.457 1.377-2.799 2.642-.185.684-.184.664-.184 7.32 0 5.905.005 6.322.072 6.653.108.531.284.971.553 1.389a3.926 3.926 0 0 0 2.609 1.749c.338.064.862.069 6.746.069s6.408-.005 6.746-.069c1.613-.306 2.831-1.509 3.162-3.124.06-.295.068-.904.082-6.227.015-5.99-.001-6.866-.132-7.505-.285-1.393-1.489-2.612-2.861-2.897-.293-.061-1.418-.152-1.947-.157C17.012 3 17 2.858 17 2.427c0-.687-.051-.881-.3-1.129a1 1 0 0 0-1.488.095C15.031 1.63 15 1.781 15 2.43V3H9v-.573c0-.686-.052-.881-.299-1.128a.996.996 0 0 0-1.037-.236M15 5.073c0 .173.142.471.3.629a.963.963 0 0 0 1.419-.047c.142-.162.241-.365.241-.494 0-.076.024-.081.43-.08.742.001 1.358.067 1.562.169.245.122.553.405.714.656.122.192.134.24.159.651l.027.443H4.148l.027-.443c.025-.411.037-.459.159-.651.161-.251.469-.534.714-.656.204-.102.82-.168 1.562-.169.406-.001.43.004.43.08 0 .129.099.332.241.494a.963.963 0 0 0 1.419.047c.158-.158.3-.456.3-.629C9 5.003 9.124 5 12 5s3 .003 3 .073m5 8.517c0 4.58-.024 5.619-.139 6.061-.142.544-.638 1.05-1.181 1.206-.442.126-1.17.142-6.68.142s-6.238-.016-6.68-.142c-.543-.156-1.039-.662-1.181-1.206C4.024 19.209 4 18.17 4 13.59V9h16v4.59M9.627 10.584c-.639.115-1.22.443-1.713.967a3.077 3.077 0 0 0-.71 1.189c-.338 1.017-.204 2.03.386 2.911.339.507 1.43 1.582 2.99 2.947.623.545.749.623 1.137.704.326.068.64.028.943-.12.278-.136 1.819-1.498 2.762-2.44.814-.814 1.115-1.206 1.313-1.708a3.361 3.361 0 0 0-.014-2.517c-.347-.855-1.178-1.602-2.021-1.819-.322-.082-1.003-.083-1.36 0-.446.103-.948.311-1.229.509l-.108.077-.315-.221c-.74-.518-1.224-.631-2.061-.479m1.117 2.018c.102.049.298.195.435.323.308.288.528.393.821.393.295 0 .522-.109.819-.394.351-.337.532-.422.901-.422.25 0 .335.018.514.111.284.149.55.422.674.693.088.193.099.263.084.53-.027.461-.133.627-.873 1.364-.663.662-2.059 1.94-2.118 1.94-.062 0-1.355-1.178-2.064-1.88-.817-.81-.938-1-.936-1.476.002-.718.639-1.335 1.328-1.288.127.009.313.057.415.106" fill="#667085" fill-rule="evenodd"/></svg>