<svg width="24" height="24" fill="none" xmlns="http://www.w3.org/2000/svg"><path d="M7.664 1.063a1.005 1.005 0 0 0-.533.448c-.107.182-.111.212-.124.839-.01.46-.028.65-.06.651-.532.006-1.652.097-1.944.157-1.195.249-2.292 1.216-2.725 2.401-.273.747-.258.328-.258 7.441 0 6.02.004 6.442.072 6.773.108.531.284.971.553 1.389a3.926 3.926 0 0 0 2.609 1.749c.338.064.862.069 6.746.069s6.408-.005 6.746-.069a3.926 3.926 0 0 0 3.165-3.165c.064-.338.069-.863.069-6.766 0-6.001-.004-6.422-.072-6.753a3.927 3.927 0 0 0-.553-1.389c-.558-.861-1.438-1.489-2.358-1.68-.293-.061-1.418-.152-1.947-.157C17.012 3 17 2.858 17 2.427c0-.687-.051-.881-.3-1.129a1 1 0 0 0-1.488.095C15.031 1.63 15 1.781 15 2.43V3H9v-.573c0-.686-.052-.881-.299-1.128a.996.996 0 0 0-1.037-.236M15 5.573c0 .686.052.881.299 1.128a.984.984 0 0 0 1.402 0c.244-.243.299-.445.299-1.088V5.08l.39.001c.737.002 1.361.069 1.561.168.414.206.798.67.909 1.099.073.28.14 1.26.14 2.062V9H4v-.59c0-.802.067-1.782.14-2.062.111-.429.495-.893.909-1.099.2-.099.824-.166 1.561-.168L7 5.08v.533c0 .643.055.845.299 1.088a.984.984 0 0 0 1.402 0C8.948 6.454 9 6.259 9 5.573V5h6v.573m5 9.017c0 3.606-.029 4.636-.139 5.061-.142.544-.638 1.05-1.181 1.206-.442.126-1.17.142-6.68.142s-6.238-.016-6.68-.142c-.543-.156-1.039-.662-1.181-1.206C4.029 19.226 4 18.196 4 14.59V11h16v3.59" fill="#667085" fill-rule="evenodd"/></svg>