<svg width="24" height="24" fill="none" xmlns="http://www.w3.org/2000/svg"><path d="M7.664 1.063a1.005 1.005 0 0 0-.533.448c-.107.182-.111.212-.124.839-.01.46-.028.65-.06.651-.532.006-1.652.097-1.944.157-1.28.266-2.457 1.377-2.799 2.642-.185.684-.184.664-.184 7.32 0 5.905.005 6.322.072 6.653.108.531.284.971.553 1.389a3.926 3.926 0 0 0 2.609 1.749c.338.064.862.069 6.746.069s6.408-.005 6.746-.069c1.613-.306 2.831-1.509 3.162-3.124.06-.295.068-.904.082-6.227.015-5.99-.001-6.866-.132-7.505-.285-1.393-1.489-2.612-2.861-2.897-.293-.061-1.418-.152-1.947-.157C17.012 3 17 2.858 17 2.427c0-.687-.051-.881-.3-1.129a1 1 0 0 0-1.488.095C15.031 1.63 15 1.781 15 2.43V3H9v-.573c0-.686-.052-.881-.299-1.128a.996.996 0 0 0-1.037-.236M15 5.073c0 .173.142.471.3.629a.963.963 0 0 0 1.419-.047c.142-.162.241-.365.241-.494 0-.076.024-.081.43-.08.742.001 1.358.067 1.562.169.245.122.553.405.714.656.122.192.134.24.159.651l.027.443H4.148l.027-.443c.025-.411.037-.459.159-.651.161-.251.469-.534.714-.656.204-.102.82-.168 1.562-.169.406-.001.43.004.43.08 0 .129.099.332.241.494a.963.963 0 0 0 1.419.047c.158-.158.3-.456.3-.629C9 5.003 9.124 5 12 5s3 .003 3 .073m5 8.517c0 4.58-.024 5.619-.139 6.061-.142.544-.638 1.05-1.181 1.206-.442.126-1.17.142-6.68.142s-6.238-.016-6.68-.142c-.543-.156-1.039-.662-1.181-1.206C4.024 19.209 4 18.17 4 13.59V9h16v4.59m-11.336.473a.993.993 0 0 0-.366 1.637c.313.313.156.3 3.702.3 3.544 0 3.39.013 3.701-.299a.984.984 0 0 0 0-1.402c-.312-.312-.154-.299-3.718-.296-2.641.002-3.189.012-3.319.06" fill="#667085" fill-rule="evenodd"/></svg>