<svg width="24" height="24" fill="none" xmlns="http://www.w3.org/2000/svg"><path d="M8.69 1.6c-.495.13-.98.41-1.348.779-.421.421-.553.647-.842 1.437a1.091 1.091 0 0 1-.531.589c-.163.079-.275.093-.947.119-.649.024-.814.044-1.114.133-1.379.408-2.39 1.452-2.8 2.896l-.087.307-.013 5.26c-.013 5.49-.005 5.82.157 6.46.346 1.358 1.559 2.517 2.929 2.798.607.124 1.504.14 7.906.14 6.399 0 7.301-.016 7.902-.14.679-.14 1.276-.458 1.823-.972a3.788 3.788 0 0 0 1.162-2.047l.093-.419V7.9l-.088-.329c-.208-.774-.584-1.423-1.119-1.933a4.008 4.008 0 0 0-1.681-.981c-.299-.089-.466-.109-1.112-.134-.633-.024-.79-.042-.94-.11a1.11 1.11 0 0 1-.54-.597c-.289-.79-.421-1.016-.842-1.437a2.39 2.39 0 0 0-.689-.512c-.695-.359-.56-.347-3.985-.345-2.82.002-3.022.007-3.294.078m6.295 2.002c.223.108.426.338.515.582.284.779.419 1.012.82 1.417.653.66 1.38.919 2.585.919.541 0 .851.083 1.215.326.41.274.705.711.823 1.22.054.235.06.873.046 5.39-.011 3.745-.029 5.205-.064 5.424a1.84 1.84 0 0 1-.499 1.008c-.448.456-.731.541-1.983.593-1.123.047-11.763.047-12.886 0-1.252-.052-1.535-.137-1.983-.593a1.84 1.84 0 0 1-.499-1.008c-.035-.219-.053-1.679-.064-5.424-.014-4.517-.008-5.155.046-5.39.118-.509.413-.946.823-1.22.364-.243.674-.326 1.215-.326 1.205 0 1.932-.259 2.585-.919.401-.405.536-.638.82-1.417.088-.242.289-.471.512-.581.165-.082.211-.083 2.985-.083 2.763 0 2.821.002 2.988.082M11.64 8.024c-1.553.174-2.776.856-3.651 2.035a4.961 4.961 0 0 0-.694 4.568c.396 1.162 1.309 2.216 2.408 2.782a4.93 4.93 0 0 0 4.594 0c1.984-1.021 3.065-3.344 2.562-5.505-.447-1.921-2.019-3.439-3.936-3.801-.321-.06-1.049-.106-1.283-.079m1.3 2.11c.453.147.789.357 1.163.726.371.365.615.75.769 1.209.094.281.104.37.105.931.001.576-.007.643-.11.94-.16.46-.397.836-.744 1.183a3.021 3.021 0 0 1-1.183.744c-.297.103-.365.111-.94.111s-.643-.008-.94-.111a3.021 3.021 0 0 1-1.183-.744 3.021 3.021 0 0 1-.744-1.183c-.103-.297-.111-.364-.11-.94.001-.561.011-.65.105-.931a3.066 3.066 0 0 1 2.212-2.012c.393-.091 1.204-.052 1.6.077" fill="#667085" fill-rule="evenodd"/></svg>