<svg width="24" height="24" fill="none" xmlns="http://www.w3.org/2000/svg"><path d="M7.695 1.599a3.8 3.8 0 0 0-.606.236c-.752.379-1.257.99-1.547 1.873-.207.633-.363.751-1.067.81-.652.055-1.066.176-1.572.459a3.922 3.922 0 0 0-1.419 1.401 4.464 4.464 0 0 0-.441 1.262c-.059.361-.059 10.7 0 11.232.117 1.07.492 1.838 1.239 2.541.537.505 1.144.828 1.812.965.607.124 1.504.14 7.906.14 6.399 0 7.301-.016 7.902-.14.679-.14 1.276-.458 1.823-.972a3.818 3.818 0 0 0 1.16-2.027l.091-.399.014-5.52c.009-3.804 0-5.606-.03-5.797a3.751 3.751 0 0 0-2.759-3.048 5.253 5.253 0 0 0-.676-.097c-.704-.059-.86-.177-1.067-.81-.29-.883-.795-1.494-1.547-1.872-.66-.332-.408-.316-4.927-.314-3.775.002-4.02.007-4.289.077m8.239 1.976c.184.077.417.291.503.461.04.079.113.27.162.424.169.521.347.811.741 1.205.564.564 1.034.763 2.004.848.342.03.495.063.67.146.475.225.839.686.946 1.2.065.314.033 10.602-.035 11.021a1.84 1.84 0 0 1-.499 1.008c-.448.456-.731.541-1.983.593-1.123.047-11.763.047-12.886 0-1.252-.052-1.535-.137-1.983-.593a1.84 1.84 0 0 1-.499-1.008c-.068-.419-.1-10.707-.035-11.021.107-.514.471-.975.946-1.2.175-.083.328-.116.67-.146.602-.053.902-.126 1.303-.32.279-.135.404-.229.701-.529.391-.393.575-.692.741-1.204.126-.393.212-.548.384-.699.286-.251.045-.238 4.206-.239 3.146-.002 3.835.008 3.943.053m-4.472 3.467c-2.183.246-3.975 1.684-4.658 3.738-.956 2.875.597 5.953 3.49 6.921.57.191 1.066.269 1.706.269.878 0 1.68-.188 2.446-.573a5.47 5.47 0 0 0 2.75-6.617 5.495 5.495 0 0 0-3.526-3.495c-.697-.223-1.552-.317-2.208-.243m1.25 2.016c.66.139 1.208.429 1.699.897.501.478.815 1.005.995 1.665.124.457.124 1.303 0 1.76a3.53 3.53 0 0 1-1.016 1.686c-.654.62-1.456.934-2.39.934-.934 0-1.736-.314-2.39-.934a3.53 3.53 0 0 1-1.016-1.686c-.124-.457-.124-1.303 0-1.76.18-.66.494-1.187.995-1.665a3.445 3.445 0 0 1 1.67-.894c.331-.073 1.113-.074 1.453-.003" fill="#667085" fill-rule="evenodd"/></svg>