<svg width="24" height="24" fill="none" xmlns="http://www.w3.org/2000/svg"><path d="M4.9 2.025c-.989.083-1.531.257-2.2.708-.578.389-1.181 1.16-1.417 1.811-.279.77-.263.33-.263 7.456 0 6.02.004 6.442.072 6.773.223 1.094.826 1.987 1.746 2.582.418.269.858.445 1.389.553.332.068.791.072 7.773.072 6.982 0 7.441-.004 7.773-.072 1.094-.223 1.987-.826 2.582-1.746.269-.418.445-.858.553-1.389.068-.331.072-.753.072-6.773s-.004-6.442-.072-6.773c-.289-1.42-1.291-2.57-2.618-3.005-.618-.202-.343-.195-8.05-.203a1071.16 1071.16 0 0 0-7.34.006M18.801 4.04c.341.022.724.067.851.1.553.144 1.065.656 1.209 1.209C20.978 5.8 21 6.833 21 12s-.022 6.2-.139 6.651c-.142.544-.638 1.05-1.181 1.206-.45.128-1.166.142-7.68.142-6.514 0-7.23-.014-7.68-.142-.543-.156-1.039-.662-1.181-1.206C3.022 18.2 3 17.167 3 12c0-5.172.022-6.2.14-6.652.103-.397.416-.8.811-1.044.239-.148.575-.225 1.142-.261.736-.047 12.976-.05 13.708-.003M11.5 7.044a5.033 5.033 0 0 0-3.498 1.999 4.962 4.962 0 0 0 0 5.914c1.654 2.214 4.762 2.68 6.955 1.041 1.977-1.477 2.586-4.099 1.459-6.282a4.98 4.98 0 0 0-2.161-2.145 4.813 4.813 0 0 0-1.815-.531c-.426-.043-.488-.043-.94.004m1.44 2.092c.455.154.834.391 1.183.741.347.347.584.723.744 1.183.103.297.111.365.111.94s-.008.643-.111.94c-.16.46-.397.836-.744 1.183a3.021 3.021 0 0 1-1.183.744c-.297.103-.365.111-.94.111s-.643-.008-.94-.111a3.021 3.021 0 0 1-1.183-.744 3.021 3.021 0 0 1-.744-1.183c-.103-.297-.111-.365-.111-.94s.008-.643.111-.94a3.07 3.07 0 0 1 2.202-2.003c.163-.037.418-.051.765-.042.437.011.571.031.84.121" fill="#667085" fill-rule="evenodd"/></svg>