<svg width="24" height="24" fill="none" xmlns="http://www.w3.org/2000/svg"><path d="M11.74 1.12c-.11.017-.344.068-.52.113-.176.045-.599.13-.94.188-2.077.355-3.624.974-4.994 1.998-2.187 1.635-3.637 4.12-4.052 6.949-.1.68-.12 2.052-.04 2.692a11.56 11.56 0 0 0 1.879 5.053c.374.552.349.508.407.727.035.134.105.236.274.4.125.121.286.313.358.426.146.23.771.802 1.308 1.197 2.015 1.485 4.657 2.219 7.26 2.016.363-.029.705-.046.76-.039.055.007.219.014.365.015.232.002.292-.014.473-.126.125-.078.367-.169.613-.232 2.932-.743 5.012-2.233 6.45-4.619.489-.811 1.061-2.119 1.064-2.434.001-.101.053-.382.115-.624.806-3.156.183-6.356-1.772-9.108a13.06 13.06 0 0 1-.526-.812 3.192 3.192 0 0 0-.573-.734c-1.206-1.185-2.895-2.161-4.574-2.643-1.053-.302-2.698-.501-3.335-.403m2.334 2.361c1.546.316 3.011 1.039 4.06 2.002.151.138.32.324.376.412l.101.161-.023.742c-.018.58-.046.851-.127 1.242a8.248 8.248 0 0 1-1.226 2.922l-.331.495-.055-.338a5.763 5.763 0 0 0-.187-.739 4.492 4.492 0 0 1-.179-.82c-.237-2.128-1.164-4.184-2.574-5.708a21.102 21.102 0 0 1-.368-.405l-.079-.093.099.021.513.106m-3.519.156c.542.326.955.641 1.413 1.079.497.475.815.856 1.185 1.419.235.358.687 1.191.687 1.267 0 .016-.082.005-.182-.025-.1-.03-.38-.082-.621-.116-.327-.045-.502-.093-.685-.185-.876-.442-2.104-.792-3.212-.915-.575-.063-1.792-.053-2.377.02-.421.052-.679.102-1.514.288-.083.019-.072-.011.111-.314.528-.876 1.976-1.851 3.5-2.356.412-.137 1.191-.349 1.304-.355.035-.002.211.085.391.193M8.553 8.124c.213.025.401.058.418.073.017.016-.057.077-.165.136-.221.12-.427.331-.568.582-.068.12-.211.253-.491.453a10.126 10.126 0 0 0-3.926 5.566c-.056.195-.101.38-.101.41 0 .031-.017.056-.038.056-.055 0-.314-.825-.422-1.345-.282-1.356-.216-2.869.189-4.349.098-.359.094-.356.811-.732.777-.407 1.83-.752 2.582-.846a9.308 9.308 0 0 1 1.711-.004M20.619 9.42c.2.662.304 1.333.33 2.143.032 1.002-.056 1.766-.317 2.767l-.122.47-.349.199c-1.352.774-3.045 1.163-4.544 1.045a5.307 5.307 0 0 1-.569-.062c-.01-.011.039-.052.111-.091.292-.161.441-.299.602-.56.129-.207.229-.313.415-.436 1.483-.985 2.797-2.562 3.545-4.253.206-.466.509-1.336.599-1.717l.051-.216.057.136c.031.074.117.333.191.575m-7.759-.218c1.619.505 2.512 2.156 2.035 3.762-.263.889-1.035 1.67-1.955 1.979a3.106 3.106 0 0 1-1.581.063 2.985 2.985 0 0 1-2.022-1.626 2.664 2.664 0 0 1-.296-1.3c0-.511.082-.869.296-1.3.43-.865 1.148-1.426 2.103-1.641.366-.082 1.052-.052 1.42.063m-5.445 4.695c.057.161.119.464.144.703.224 2.14 1.212 4.277 2.691 5.824.218.228.334.376.294.376-.101 0-.803-.155-1.193-.264-.803-.223-1.639-.581-2.263-.968-.67-.416-1.339-.977-1.535-1.286-.107-.169-.113-.201-.113-.64.001-1.559.486-3.116 1.389-4.459l.31-.461.088.446c.048.245.132.573.188.729m3.264 2.961c.144.029.369.066.501.082.154.018.391.097.66.219.639.29 1.13.462 1.764.617.932.228 1.409.282 2.436.279.976-.003 1.623-.076 2.417-.275.219-.054.402-.094.407-.089.005.005-.079.155-.187.334-.422.697-1.506 1.523-2.657 2.024-.53.231-1.423.525-1.872.617l-.328.066-.32-.189c-1.275-.755-2.382-1.951-3.061-3.304a10.244 10.244 0 0 1-.239-.497c0-.011.049-.001.109.021.06.023.227.066.37.095" fill="#667085" fill-rule="evenodd"/></svg>