<svg width="24" height="24" fill="none" xmlns="http://www.w3.org/2000/svg"><path d="M18.617 1.577a1.156 1.156 0 0 0-.523.523c-.091.194-.093.232-.094 1.31v1.11h-1.121c-1.232 0-1.266.005-1.538.245a.987.987 0 0 0-.016 1.463c.272.258.338.27 1.565.285l1.11.013v1.087c.001 1.055.004 1.093.094 1.287.051.11.166.265.254.345.497.448 1.268.277 1.558-.345.09-.194.093-.232.094-1.287V6.526l1.11-.013c1.227-.015 1.293-.027 1.565-.285a.987.987 0 0 0-.016-1.463c-.272-.24-.306-.245-1.538-.245H20V3.41c-.001-1.078-.003-1.116-.094-1.31a1.146 1.146 0 0 0-.532-.525c-.166-.07-.596-.069-.757.002M5.54 2.564c-.762.078-1.294.227-1.862.522-1.132.588-2.023 1.63-2.392 2.797-.272.859-.266.714-.266 6.617 0 5.906-.006 5.763.267 6.617.385 1.203 1.294 2.253 2.455 2.836.669.335 1.289.467 2.463.527 1.008.051 10.582.051 11.59 0 .858-.044 1.329-.112 1.819-.266 1.494-.468 2.764-1.801 3.168-3.324.182-.689.191-.847.208-4.001.018-3.409.029-3.272-.288-3.589a.984.984 0 0 0-1.403-.001c-.304.303-.299.26-.299 2.818-.001 3.336-.061 4.179-.339 4.743-.363.737-1.085 1.33-1.801 1.479-.726.152-1.124.161-6.86.161-5.736 0-6.134-.009-6.86-.161-.693-.144-1.4-.711-1.783-1.431-.315-.59-.356-1.335-.356-6.408s.041-5.818.356-6.408c.385-.722 1.086-1.281 1.795-1.43.554-.117 1.318-.142 4.312-.142 2.017 0 3.079-.014 3.215-.043.658-.142 1.005-.84.708-1.425a1.059 1.059 0 0 0-.239-.308c-.307-.235-.12-.224-3.857-.219-1.887.003-3.575.02-3.751.039m5.564 5.02C9.3 7.91 7.78 9.261 7.224 11.033c-.998 3.18 1.425 6.456 4.776 6.456 2.749 0 5-2.246 5-4.989 0-2.401-1.77-4.506-4.135-4.918-.441-.077-1.329-.076-1.761.002m1.827 2.067a3.036 3.036 0 0 1 1.955 2.049c.128.452.128 1.148 0 1.6a2.808 2.808 0 0 1-.766 1.3c-.386.386-.721.598-1.172.741-.826.262-1.747.169-2.468-.25-.389-.226-.903-.76-1.107-1.151-.26-.496-.35-.867-.35-1.44.001-.582.065-.857.322-1.37a2.97 2.97 0 0 1 1.99-1.553c.395-.09 1.208-.052 1.596.074" fill="#667085" fill-rule="evenodd"/></svg>