<svg width="24" height="24" fill="none" xmlns="http://www.w3.org/2000/svg"><path d="M1.643 1.069C1.291 1.193 1 1.614 1 2c0 .08.029.234.065.343.06.182.823.956 10.19 10.328 7.451 7.455 10.171 10.153 10.301 10.216.661.322 1.444-.159 1.444-.887 0-.329-.109-.514-.589-1.005l-.455-.466.199-.262c.259-.343.441-.656.594-1.027.262-.632.251-.368.251-6.254 0-5.87.01-5.61-.246-6.339-.396-1.122-1.332-2.038-2.486-2.431-.41-.14-.933-.216-1.491-.216-.589 0-.8-.061-1.039-.3a1.028 1.028 0 0 1-.259-.443c-.223-.67-.442-1.022-.9-1.451a2.579 2.579 0 0 0-.674-.467c-.681-.334-.495-.319-3.905-.319-3.411 0-3.223-.015-3.907.32a2.546 2.546 0 0 0-.689.484c-.391.368-.623.73-.83 1.296-.18.492-.358.706-.674.814-.43.146-.312.231-1.919-1.369-1.282-1.275-1.463-1.441-1.638-1.5a1.032 1.032 0 0 0-.7.004m13.233 1.994c.333.098.511.307.698.817.199.545.43.913.793 1.263.355.343.739.574 1.193.718.297.095.436.112 1.1.138.616.025.804.046.994.114.677.242 1.187.84 1.305 1.527.031.184.041 1.797.033 5.5l-.012 5.24-.09.22c-.049.121-.14.296-.202.388l-.112.169-2.129-2.13-2.13-2.13.197-.418c.445-.945.579-1.806.426-2.746a5.039 5.039 0 0 0-3.372-3.972c-1.211-.406-2.479-.311-3.649.274l-.309.155-1.313-1.313c-.723-.723-1.305-1.321-1.295-1.33.01-.008.117-.078.238-.155.61-.388.994-.897 1.24-1.648.113-.346.34-.591.627-.679.297-.092 5.462-.094 5.769-.002M1.614 6.578a1.18 1.18 0 0 0-.531.543l-.086.2.014 5.57c.013 5.013.021 5.602.081 5.896a3.967 3.967 0 0 0 3.048 3.106c.354.082.454.084 5.94.097 6.255.015 5.762.037 6.106-.279.499-.461.376-1.272-.243-1.604l-.163-.087-5.46-.022c-5.573-.023-5.69-.026-6.116-.176-.475-.168-.935-.674-1.065-1.171C3.023 18.204 3 17.166 3 12.24L2.999 7.3l-.093-.2a1.146 1.146 0 0 0-.532-.525c-.167-.07-.596-.068-.76.003m11.317 3.074c.451.145.84.391 1.21.764.533.539.832 1.24.837 1.964.002.336-.008.378-.139.63l-.14.27-1.739-1.745c-.957-.959-1.722-1.751-1.7-1.759a9.16 9.16 0 0 0 .28-.136c.23-.114.258-.119.66-.104.305.012.505.043.731.116m-5.314 1.925a1.156 1.156 0 0 0-.523.523c-.253.543.035 1.978.582 2.898.888 1.495 2.502 2.463 4.156 2.491.44.008.618-.048.843-.261a.985.985 0 0 0-.038-1.481c-.205-.176-.323-.212-.863-.266-.806-.079-1.342-.329-1.894-.881-.538-.538-.812-1.153-.866-1.94a1.966 1.966 0 0 0-.104-.55 1.145 1.145 0 0 0-.533-.534c-.169-.07-.598-.07-.76.001" fill="#667085" fill-rule="evenodd"/></svg>