<svg width="24" height="24" fill="none" xmlns="http://www.w3.org/2000/svg"><path d="M7.006 3.042c-.335.045-.598.133-.986.332-.451.231-.981.76-1.211 1.209-.098.192-.415 1.066-.774 2.14-.334 1-.614 1.825-.622 1.834-.008.01-.264-.105-.57-.254-.343-.168-.626-.28-.739-.293a1.017 1.017 0 0 0-.971.498c-.097.165-.113.235-.113.492 0 .256.016.328.111.489.139.236.264.33.788.592l.419.209-.199.162c-.484.396-.68.634-.818.99a5.948 5.948 0 0 0-.215.718c-.083.368-.085.471-.086 3.34 0 2.785.004 2.977.076 3.24a3.045 3.045 0 0 0 1.743 2.025c.481.201.825.245 1.792.226.811-.016.891-.024 1.194-.124.889-.293 1.613-1.087 1.891-2.074l.071-.253h8.426l.071.253c.278.987 1.002 1.781 1.891 2.074.303.1.383.108 1.194.124.703.014.931.004 1.2-.05a3.001 3.001 0 0 0 2.371-2.366c.058-.288.063-.653.049-3.2-.017-3.204-.014-3.168-.31-3.933-.138-.356-.334-.594-.818-.99l-.199-.162.419-.209c.519-.26.649-.356.781-.58.311-.532.043-1.247-.54-1.44-.334-.111-.524-.072-1.162.241-.307.15-.565.265-.573.255-.008-.009-.288-.834-.622-1.834-.368-1.1-.674-1.944-.775-2.14-.126-.244-.255-.411-.528-.686-.306-.308-.42-.392-.742-.55-.718-.352-.234-.324-5.76-.332-2.695-.003-5.014.009-5.154.027m9.687 1.996c.326.042.545.176.69.423.076.13 1.217 3.446 1.217 3.537 0 .012-2.97.022-6.6.022-4.936 0-6.6-.012-6.6-.046 0-.102 1.056-3.173 1.174-3.411.161-.328.363-.481.693-.523.332-.042 9.098-.045 9.426-.002m2.108 6.002c.341.022.724.067.851.1.553.144 1.065.656 1.209 1.209.101.388.139 1.378.139 3.614 0 2.444.001 2.438-.296 2.735-.271.271-.447.311-1.294.295-.64-.012-.726-.022-.875-.101-.327-.175-.486-.445-.535-.905a2.7 2.7 0 0 0-.096-.497 1.521 1.521 0 0 0-.896-.889c-.207-.08-.296-.081-5.008-.081s-4.801.001-5.008.081c-.42.159-.754.491-.896.889a2.7 2.7 0 0 0-.096.497c-.049.46-.208.73-.535.905-.149.079-.235.089-.875.101-.847.016-1.023-.024-1.294-.295-.297-.297-.296-.286-.295-2.775 0-2.252.036-3.173.139-3.574.101-.396.415-.801.811-1.045.239-.148.575-.225 1.142-.261.736-.047 12.976-.05 13.708-.003M4.643 12.069C4.291 12.193 4 12.614 4 13c0 .242.119.521.299.701.294.294.33.299 2.201.299s1.907-.005 2.201-.299a.984.984 0 0 0 0-1.402c-.295-.295-.328-.299-2.218-.296-1.398.003-1.691.013-1.84.066m11 0c-.352.124-.643.545-.643.931 0 .242.119.521.299.701.294.294.33.299 2.201.299s1.907-.005 2.201-.299a.984.984 0 0 0 0-1.402c-.295-.295-.328-.299-2.218-.296-1.398.003-1.691.013-1.84.066" fill="#667085" fill-rule="evenodd"/></svg>