<svg width="24" height="24" fill="none" xmlns="http://www.w3.org/2000/svg"><path d="M6.76 2.026c-.54.055-.987.206-1.4.474a2.979 2.979 0 0 0-1.319 2.08c-.021.154-.04.986-.04 1.85L4 8h-.5c-.457 0-.5-.006-.5-.073 0-.173-.142-.471-.299-.628a.984.984 0 0 0-1.402 0C1.045 7.553 1 7.734 1 8.5c0 .718.039.903.241 1.149.198.24.431.328.934.351l.435.02-.195.14c-.296.211-.756.663-.891.874-.157.245-.312.657-.416 1.106-.079.346-.083.493-.098 3.689-.012 2.843-.006 3.38.046 3.681.198 1.146.984 2.024 2.131 2.378.25.078.39.086 1.663.102 1.521.019 1.753-.003 2.269-.213a3.103 3.103 0 0 0 1.656-1.654c.115-.282.225-.762.225-.981V19h6v.142c0 .218.11.699.223.979.296.727.928 1.36 1.654 1.654.486.198.735.225 2.071.224 1.388-.001 1.632-.025 2.125-.21a2.7 2.7 0 0 0 1.041-.675c.305-.306.494-.586.65-.964.238-.577.242-.652.226-4.321-.015-3.196-.019-3.343-.098-3.689-.103-.447-.258-.861-.413-1.102-.133-.207-.551-.618-.872-.859l-.212-.159.432-.02c.501-.023.734-.111.932-.351.202-.246.241-.431.241-1.149 0-.766-.045-.947-.299-1.201a.984.984 0 0 0-1.402 0c-.157.157-.299.455-.299.628 0 .067-.043.073-.5.073H20l-.001-1.57c0-.864-.019-1.696-.04-1.85-.173-1.215-1.024-2.158-2.246-2.488-.232-.063-.685-.069-5.533-.074-2.904-.004-5.343 0-5.42.008m10.187 2.012c.511.043.684.123.872.408.15.226.18.686.18 2.804L18 9H6l.001-1.79c.002-2.121.03-2.555.181-2.773.183-.264.378-.361.794-.396.533-.043 9.445-.046 9.971-.003m1.854 7.002c.341.022.724.067.851.1.553.144 1.064.655 1.209 1.21.111.423.146 1.555.132 4.27l-.013 2.64-.093.189a.98.98 0 0 1-.487.465c-.181.081-2.402.121-2.67.049a1.055 1.055 0 0 1-.608-.502c-.091-.177-.104-.261-.124-.76-.02-.504-.033-.586-.135-.81-.138-.305-.449-.611-.773-.763l-.23-.108H8.14l-.23.108c-.324.152-.635.458-.773.763-.102.224-.115.306-.135.81-.02.499-.033.583-.124.76-.119.23-.37.438-.608.502-.268.072-2.489.032-2.67-.049a.98.98 0 0 1-.487-.465l-.093-.189-.013-2.64c-.014-2.718.021-3.848.132-4.272.104-.398.417-.8.812-1.044.239-.148.575-.225 1.142-.261.736-.047 12.976-.05 13.708-.003M5.67 12.041c-.751.189-1.285.967-1.151 1.674.114.603.491 1.037 1.051 1.211a1.483 1.483 0 0 0 1.793-.824 1.479 1.479 0 0 0-.741-1.947c-.282-.132-.689-.181-.952-.114m12 0c-.751.189-1.285.967-1.151 1.674.114.603.491 1.037 1.051 1.211a1.483 1.483 0 0 0 1.793-.824 1.479 1.479 0 0 0-.741-1.947c-.282-.132-.689-.181-.952-.114" fill="#667085" fill-rule="evenodd"/></svg>