<svg width="24" height="24" fill="none" xmlns="http://www.w3.org/2000/svg"><path d="M4.299.995c-1.053.259-1.907 1.097-2.206 2.165-.069.247-.073.625-.073 7.76v7.5l.094.3a3.058 3.058 0 0 0 2.126 2.081c.25.072.44.09 1.14.107l.84.021 1.002.994c1.092 1.084 1.2 1.163 1.596 1.163.421 0 .49-.053 1.883-1.447.703-.704 1.297-1.279 1.319-1.279.022 0 .616.578 1.32 1.284 1.39 1.395 1.452 1.443 1.853 1.441.397-.002.466-.052 1.567-1.145l1.02-1.012.84-.02c.701-.017.89-.035 1.14-.107 1.05-.303 1.794-1.036 2.13-2.096l.09-.285v-7.5c0-7.135-.004-7.513-.073-7.76a3.072 3.072 0 0 0-1.644-1.959C19.631.9 20.219.92 11.972.923 5.105.926 4.56.931 4.299.995m15.092 1.987c.188.078.391.271.503.478l.086.16.011 7.18c.008 5.055-.001 7.232-.032 7.356-.094.383-.42.67-.846.746-.137.024-.151.017-.214-.108-.037-.074-.705-.773-1.483-1.555L16 15.819l-.041-.34c-.169-1.381-.994-2.555-2.217-3.158-.63-.311-.952-.381-1.742-.381-.776 0-1.103.069-1.706.361-1.263.611-2.084 1.771-2.258 3.191l-.045.368-1.355 1.36-1.356 1.36v.351l-.26-.021c-.51-.041-.872-.32-.979-.754-.031-.124-.04-2.301-.032-7.356l.011-7.18.086-.16c.048-.088.147-.218.22-.288.281-.269-.327-.249 7.665-.25 6.463-.002 7.268.005 7.4.06M8.645 4.975c-.344.124-.644.543-.645.9 0 .292.082.489.299.711.34.349.173.334 3.701.334 3.53 0 3.361.015 3.702-.335.236-.242.322-.477.286-.783-.045-.381-.326-.735-.662-.836-.227-.067-6.492-.06-6.681.009M6.712 8.453a1.06 1.06 0 0 0-.596.492c-.142.289-.136.687.015.944.125.213.318.375.539.454.222.079 10.438.079 10.66 0 .221-.079.414-.241.539-.454.151-.256.157-.655.016-.942a1.062 1.062 0 0 0-.633-.505c-.249-.063-10.34-.052-10.54.011m5.827 5.529c.94.244 1.575 1.217 1.434 2.197a2.004 2.004 0 0 1-1.688 1.703c-1.076.167-2.1-.606-2.258-1.703-.14-.97.49-1.946 1.416-2.195a2.612 2.612 0 0 1 1.096-.002m3.431 4.648.63.631-.71.709-.711.71-.652-.653-.652-.653.264-.171c.35-.226.683-.539.963-.904a8.31 8.31 0 0 1 .234-.299c.003 0 .288.284.634.63m-7.069-.325c.249.33.679.733.988.924l.236.145-.652.653-.652.653-.7-.7-.7-.7.619-.62c.34-.341.629-.62.641-.62.011 0 .111.119.22.265" fill="#667085" fill-rule="evenodd"/></svg>