<svg width="24" height="24" fill="none" xmlns="http://www.w3.org/2000/svg"><path d="M4.42 1.065c-.342.071-.838.303-1.161.543-.534.396-.952 1.039-1.165 1.792-.071.249-.074.62-.074 8.6 0 7.98.003 8.351.074 8.6.315 1.112 1.039 1.914 2.046 2.268l.32.112h15.08l.32-.112c1.028-.361 1.779-1.215 2.065-2.348.046-.184.055-1.579.055-8.52 0-9.03.015-8.419-.226-9.033a3.065 3.065 0 0 0-1.574-1.691c-.616-.293-.107-.276-8.208-.273-6.213.003-7.313.012-7.552.062m14.835 1.979c.21.058.515.352.631.607l.094.209v8.12c0 7.89-.002 8.126-.076 8.318-.094.244-.351.53-.564.627-.153.07-.472.073-7.34.073s-7.187-.003-7.34-.073c-.213-.097-.47-.383-.564-.627-.074-.192-.076-.428-.076-8.318V3.86l.092-.204c.114-.25.384-.523.592-.597.131-.047 1.309-.056 7.276-.057 4.971-.001 7.167.011 7.275.042M9.94 4.561c-1.175.213-2.105 1.146-2.367 2.374-.154.722.067 1.695.52 2.285.485.633 3.089 3.004 3.502 3.19.237.106.59.104.815-.005.313-.152 2.196-1.81 2.992-2.635.66-.684.892-1.083 1.02-1.755.276-1.443-.59-2.908-1.962-3.32-.169-.05-.371-.072-.68-.071-.531 0-.931.099-1.445.357l-.343.172-.334-.218c-.514-.335-.647-.382-1.114-.398a3.692 3.692 0 0 0-.604.024m.908 2.016c.082.039.266.174.408.3.274.242.462.323.744.323.287 0 .474-.082.744-.326.306-.278.439-.351.694-.381.361-.043.798.228.985.61.09.184.104.253.084.423-.037.306-.164.48-.833 1.135-.614.602-1.616 1.499-1.673 1.499-.089 0-1.807-1.574-2.18-1.997-.355-.403-.422-.705-.237-1.076.247-.497.813-.725 1.264-.51m-4.205 7.492C6.291 14.193 6 14.614 6 15c0 .242.119.521.299.701.32.32-.082.299 5.701.299 5.783 0 5.381.021 5.701-.299a.984.984 0 0 0 0-1.402c-.32-.32.085-.299-5.718-.296-4.569.003-5.183.01-5.34.066m1.974 3.508c-.346.15-.616.556-.616.923 0 .386.303.818.664.945.126.045.744.055 3.335.055s3.209-.01 3.335-.055c.361-.127.664-.559.664-.945 0-.372-.274-.779-.625-.925-.192-.08-6.573-.079-6.757.002" fill="#667085" fill-rule="evenodd"/></svg>