<svg width="24" height="24" fill="none" xmlns="http://www.w3.org/2000/svg"><path d="M15.24 1.035c-.34.111-.603.372-.698.69-.085.287-.089 1.773-.005 2.05.258.858 1.422.979 1.832.19l.111-.214V2.79c0-.613-.017-1.017-.046-1.116-.061-.202-.281-.455-.485-.56-.177-.09-.549-.132-.709-.079m-4.84.086a10.987 10.987 0 0 0-5.425 2.425A13.56 13.56 0 0 0 3.44 5.098c-1.343 1.655-2.205 3.79-2.398 5.942-.063.692-.052 1.046.041 1.41.045.178.071.368.058.421a.254.254 0 0 0 .032.184c.031.048.07.186.085.306.318 2.497 1.516 4.896 3.307 6.619 1.661 1.598 3.644 2.568 5.983 2.928.682.105 2.3.094 3.032-.02 2.41-.376 4.479-1.422 6.183-3.125a10.2 10.2 0 0 0 2.079-2.903 10.707 10.707 0 0 0 1.035-3.32c.105-.729.059-.96-.244-1.246-.222-.209-.382-.272-.693-.272-.319 0-.515.083-.728.304-.18.189-.235.347-.311.894A8.996 8.996 0 0 1 11.963 21a8.805 8.805 0 0 1-3.783-.882c-1.949-.951-3.52-2.663-4.356-4.747-.175-.437-.363-1.009-.337-1.028.007-.006.238.024.513.065 1.48.223 3.478-.007 5.28-.608 1.934-.645 3.589-1.641 5.21-3.135l.51-.47v1.013c.001.978.004 1.019.095 1.214a.992.992 0 0 0 1.217.521 1.11 1.11 0 0 0 .59-.525c.074-.15.079-.266.09-2.258.009-1.474-.001-2.146-.032-2.254-.059-.2-.313-.473-.529-.569a1.152 1.152 0 0 1-.3-.206L16.001 7h-2.07c-1.303 0-2.126.016-2.22.042C11.318 7.151 11 7.58 11 8c0 .42.318.849.711.958.082.023.491.042.909.044l.76.002-.28.26c-1.794 1.671-4.06 2.768-6.428 3.114-.677.099-1.688.144-2.212.099-.513-.045-1.374-.177-1.414-.218-.05-.051-.016-1.083.051-1.539a8.74 8.74 0 0 1 .801-2.625 8.973 8.973 0 0 1 6.962-5.017c.452-.058.705-.165.88-.369a.983.983 0 0 0-.066-1.377c-.282-.27-.575-.318-1.274-.211m9.66 1.485c-.252.129-1.41 1.294-1.524 1.534-.378.793.384 1.637 1.229 1.359.19-.062.293-.148.883-.735.746-.742.83-.87.83-1.264 0-.4-.218-.742-.577-.905-.225-.102-.631-.097-.841.011m-.025 5.025c-.709.369-.696 1.382.022 1.748l.237.121h.943c1.055 0 1.151-.017 1.415-.255.451-.407.455-1.087.007-1.48-.269-.237-.317-.245-1.413-.245h-.997l-.214.111" fill="#667085" fill-rule="evenodd"/></svg>