<svg width="24" height="24" fill="none" xmlns="http://www.w3.org/2000/svg"><path d="M14.786 1.063a.99.99 0 0 0-.388.255c-.299.299-.326.437-.311 1.591.012.864.021.967.097 1.131.303.656 1.121.829 1.645.348.326-.299.349-.39.364-1.457.015-1.03-.014-1.222-.225-1.514-.242-.333-.761-.489-1.182-.354M5.017 2.081c-.984.068-1.649.301-2.358.828a3.85 3.85 0 0 0-.972 1.047c-.381.583-.562 1.132-.645 1.958-.056.557-.057 12.622-.001 13.213.106 1.127.533 2.034 1.286 2.736.713.664 1.51 1.002 2.589 1.099.307.028 2.64.037 6.884.027 6.977-.015 6.649-.005 7.333-.232 1.173-.39 2.169-1.389 2.568-2.575.215-.642.229-.854.248-3.828.013-1.992.006-2.807-.028-2.97a1.067 1.067 0 0 0-.521-.721c-.188-.105-.261-.123-.5-.123-.235 0-.314.02-.494.119a1.358 1.358 0 0 0-.331.26c-.233.281-.235.309-.235 2.918 0 2.387-.034 3.275-.139 3.677-.155.595-.785 1.166-1.421 1.287-.479.092-1.908.116-6.78.117-6.285.001-6.896-.025-7.375-.304a2.61 2.61 0 0 1-.739-.745c-.221-.381-.236-.542-.255-2.762l-.018-2.034.414.034c.869.07 1.942.009 2.993-.17 2.83-.483 5.486-1.832 7.627-3.873l.447-.426.013 1.071c.015 1.18.022 1.219.278 1.51.397.452 1.153.452 1.55 0 .275-.312.264-.21.277-2.619.009-1.588-.001-2.226-.035-2.35-.064-.229-.314-.504-.568-.625a1.29 1.29 0 0 1-.326-.222l-.118-.123H13.52c-2.496 0-2.45-.006-2.781.334a1.012 1.012 0 0 0-.204 1.166.96.96 0 0 0 .525.507c.181.083.277.093 1.019.112l.82.021-.4.356c-1.961 1.748-4.088 2.756-6.658 3.154-.434.068-.735.085-1.521.087-.539.002-1.03-.011-1.092-.028l-.112-.032.016-3.528c.012-2.603.029-3.587.065-3.749.16-.713.791-1.312 1.523-1.445.176-.032 1.179-.055 3.1-.071 2.783-.024 2.844-.026 3.02-.109.402-.188.668-.632.627-1.044-.025-.251-.197-.585-.366-.711-.342-.256-.141-.24-3.021-.245-1.441-.002-2.819.009-3.063.026m15.139.515c-.261.053-.488.23-1.124.872-.713.719-.81.872-.808 1.275a1.03 1.03 0 0 0 1.036 1.024c.39 0 .469-.052 1.248-.821.819-.807.902-.93.902-1.333a.961.961 0 0 0-.337-.754 1.048 1.048 0 0 0-.917-.263m-.099 5.275c-.774.274-.97 1.203-.37 1.754.285.261.361.275 1.493.275h1l.228-.112a1.028 1.028 0 0 0 .026-1.849l-.214-.119-.98-.01c-.857-.009-1.005-.002-1.183.061" fill="#667085" fill-rule="evenodd"/></svg>