<svg width="24" height="24" fill="none" xmlns="http://www.w3.org/2000/svg"><path d="M3.61 1.043C2.29 1.2 1.232 2.246 1.041 3.58c-.024.174-.039 2.217-.039 5.42s.015 5.246.039 5.42a2.976 2.976 0 0 0 2.539 2.539c.154.021.986.04 1.85.04L7 17l.001 1.57c0 .863.019 1.696.04 1.85a2.976 2.976 0 0 0 2.539 2.539c.4.056 10.434.055 10.845-.002a2.977 2.977 0 0 0 2.534-2.537c.054-.38.054-10.46 0-10.84-.174-1.215-1.037-2.171-2.246-2.485-.21-.055-.548-.069-1.983-.084L17 6.993l-.001-1.567c0-.861-.019-1.692-.04-1.846-.173-1.215-1.024-2.158-2.246-2.488-.232-.063-.688-.069-5.533-.076-2.904-.004-5.41.008-5.57.027m10.378 1.996c.468.043.649.131.831.407.143.215.18.686.18 2.304L15 7h-2.49c-1.432.001-2.641.018-2.846.041-1.376.158-2.429 1.177-2.623 2.539-.023.162-.04 1.36-.04 2.85L7 15H5.63c-1.973-.001-2.169-.035-2.442-.428-.094-.136-.116-.222-.148-.576-.049-.543-.049-9.449 0-9.992.031-.34.056-.445.139-.57.171-.258.362-.356.768-.392.502-.044 9.55-.047 10.041-.003m6 6c.468.043.649.131.831.407.09.135.111.227.143.607.048.584.048 9.312-.001 9.897-.033.403-.049.467-.158.626-.175.254-.338.34-.73.385-.445.051-9.704.051-10.15 0-.386-.045-.56-.137-.735-.389-.094-.136-.116-.222-.148-.576-.049-.543-.049-9.449 0-9.992.031-.34.056-.445.139-.57.171-.258.362-.356.768-.392.502-.044 9.55-.047 10.041-.003m-1.908 2.564c-.136.061-.653.553-2.129 2.027l-1.949 1.947-.731-.722c-.619-.612-.761-.733-.928-.789-.388-.13-.765-.046-1.044.233-.279.278-.363.655-.233 1.044.057.173.203.336 1.189 1.328.771.775 1.179 1.158 1.3 1.216.245.119.51.137.771.053.202-.065.35-.206 2.586-2.435 2.578-2.572 2.58-2.574 2.579-2.997a.97.97 0 0 0-.989-.987c-.156 0-.306.03-.422.082" fill="#667085" fill-rule="evenodd"/></svg>