<svg width="24" height="24" fill="none" xmlns="http://www.w3.org/2000/svg"><path d="M8.226 1.039c-.84.153-1.593.638-2.042 1.316-.174.262-.233.391-.777 1.697-.281.673-.41.896-.588 1.012a10.51 10.51 0 0 1-.767.343c-1.306.544-1.435.603-1.699.778-.568.377-1.022.998-1.239 1.695-.077.249-.093.388-.093.82 0 .635.019.704.583 2.06.545 1.311.545 1.17-.015 2.52-.551 1.33-.566 1.383-.567 2-.001.404.017.561.09.818A3.123 3.123 0 0 0 2.9 18.111c.154.067.595.251.98.41.845.348.909.379 1.054.514.15.139.172.184.649 1.335.25.603.483 1.099.595 1.268a3.2 3.2 0 0 0 1.702 1.248c.249.077.388.093.82.093.636 0 .71-.021 2.061-.584 1.305-.543 1.173-.543 2.478 0 1.351.563 1.425.584 2.061.584.432 0 .571-.016.82-.093a3.15 3.15 0 0 0 1.991-1.786c.067-.154.251-.595.41-.98.348-.845.379-.909.514-1.054.138-.149.164-.161 1.338-.652.584-.245 1.119-.496 1.274-.599.569-.378 1.022-.998 1.239-1.695.078-.25.093-.387.093-.82-.001-.639-.012-.679-.568-2.02-.563-1.356-.563-1.204 0-2.56.556-1.341.567-1.381.568-2.02 0-.433-.015-.57-.093-.82a2.892 2.892 0 0 0-.784-1.302c-.427-.426-.603-.526-1.836-1.036-.993-.41-1.094-.46-1.231-.608-.135-.145-.166-.209-.514-1.054a85.12 85.12 0 0 0-.41-.98A3.127 3.127 0 0 0 16.1 1.114c-.415-.118-1.145-.126-1.54-.018-.143.039-.719.262-1.28.495-1.358.564-1.205.564-2.56 0-.561-.233-1.128-.453-1.26-.488-.289-.078-.966-.113-1.234-.064M10 3.453c1.266.522 1.407.562 2 .562s.734-.04 2-.566c.958-.398 1.037-.424 1.3-.426.236-.002.313.016.49.114.116.064.256.176.312.25.056.073.273.545.481 1.049.52 1.253.639 1.465 1.077 1.908.441.446.588.529 1.85 1.051.533.22 1.03.446 1.103.503.074.056.186.196.25.312.098.177.116.254.114.49-.001.263-.027.342-.426 1.3-.525 1.262-.566 1.405-.566 2s.041.738.566 2c.399.958.425 1.037.426 1.3.002.238-.015.312-.116.495a1.187 1.187 0 0 1-.242.308c-.067.052-.581.285-1.141.518-1.094.455-1.255.536-1.604.808-.512.4-.698.702-1.257 2.054-.34.822-.461 1.073-.576 1.191-.22.226-.413.306-.741.305-.265 0-.335-.023-1.307-.43-.565-.236-1.15-.458-1.3-.493-.355-.084-1.03-.085-1.384-.001-.149.035-.734.256-1.3.491-1.132.47-1.3.51-1.645.395-.394-.13-.494-.279-.982-1.458-.562-1.356-.743-1.654-1.256-2.054-.348-.271-.511-.353-1.596-.805-.556-.231-1.071-.466-1.144-.522a1.196 1.196 0 0 1-.249-.312c-.098-.177-.116-.254-.114-.49.001-.263.027-.342.426-1.3.525-1.262.566-1.405.566-2s-.041-.739-.566-2c-.398-.957-.424-1.037-.426-1.3-.002-.238.015-.312.116-.495.066-.118.174-.257.242-.308.067-.052.581-.285 1.141-.518a21.43 21.43 0 0 0 1.198-.527c.329-.19.669-.489.892-.782.274-.362.302-.418.771-1.558.416-1.008.514-1.186.728-1.319.464-.287.617-.265 1.889.26m5.08 5.15c-.136.061-.653.553-2.129 2.027l-1.949 1.947-.731-.722c-.619-.612-.761-.733-.928-.789-.388-.13-.765-.046-1.044.233-.279.278-.363.655-.233 1.044.057.173.203.336 1.189 1.328.771.775 1.179 1.158 1.3 1.216.245.119.51.137.771.053.202-.065.35-.206 2.586-2.435 2.606-2.6 2.583-2.572 2.579-3.025a.978.978 0 0 0-.622-.899c-.207-.086-.571-.077-.789.022" fill="#667085" fill-rule="evenodd"/></svg>