<svg width="24" height="24" fill="none" xmlns="http://www.w3.org/2000/svg"><path d="M5.17 2.044c-1.062.095-1.873.483-2.576 1.231-.574.61-.881 1.238-1.024 2.09-.064.382-.07.909-.07 6.635 0 6.868-.008 6.621.252 7.376.397 1.151 1.493 2.161 2.668 2.458.632.16.898.166 7.08.166s6.448-.006 7.08-.166c1.174-.297 2.27-1.303 2.664-2.447.245-.71.253-.839.254-4.367.002-3.525.012-3.378-.25-3.668-.219-.242-.417-.33-.748-.33-.319 0-.515.082-.728.304-.286.299-.269.093-.296 3.714-.02 2.796-.032 3.298-.087 3.529-.173.723-.761 1.239-1.549 1.359-.504.077-12.189.076-12.68-.001-.592-.093-.976-.328-1.293-.793-.35-.512-.327-.009-.327-7.134 0-5.816.005-6.281.07-6.56.12-.517.54-1.019 1.032-1.236.389-.171.543-.176 5.958-.2l5.18-.024.163-.087a1 1 0 0 0 0-1.786l-.163-.087-5.12-.005c-2.816-.002-5.286.01-5.49.029m16.07.991a1.715 1.715 0 0 0-.22.096c-.066.035-2.226 2.171-4.8 4.746-2.574 2.576-4.698 4.683-4.72 4.683-.022 0-.571-.532-1.22-1.183-.649-.65-1.252-1.221-1.34-1.269-.224-.12-.655-.12-.883 0-.34.18-.551.521-.551.892 0 .399-.011.385 1.749 2.154 1.78 1.79 1.847 1.845 2.245 1.845.425 0 .2.21 5.746-5.345C22.775 4.116 22.494 4.418 22.494 4c0-.371-.213-.716-.548-.887-.175-.089-.547-.13-.706-.078" fill="#667085" fill-rule="evenodd"/></svg>