<svg width="24" height="24" fill="none" xmlns="http://www.w3.org/2000/svg"><path d="M11.3 1.027c-2.121.176-3.893.791-5.54 1.924a10.14 10.14 0 0 0-1.415 1.168C2.592 5.816 1.498 7.947 1.112 10.42c-.128.815-.127 2.349.002 3.174a11.153 11.153 0 0 0 2.492 5.512c.152.179.507.55.789.823 1.672 1.62 3.747 2.626 6.145 2.978.755.11 2.297.1 3.06-.021a11.147 11.147 0 0 0 4.461-1.719c.746-.496 1.218-.89 1.863-1.556 1.599-1.652 2.6-3.689 2.962-6.031.104-.673.152-2.48.074-2.761a.962.962 0 0 0-.483-.599c-.554-.305-1.277-.007-1.429.588-.025.095-.053.604-.063 1.132-.034 1.67-.27 2.703-.926 4.04a8.965 8.965 0 0 1-8.359 5.007 8.726 8.726 0 0 1-3.64-.905c-2.691-1.314-4.5-3.794-4.966-6.808-.098-.629-.097-1.921 0-2.553.506-3.264 2.617-5.92 5.646-7.104 1.048-.41 2.054-.593 3.26-.593 1.227-.001 2.187.178 3.309.615.644.251.739.268 1.027.184a.996.996 0 0 0 .502-1.593c-.283-.342-1.696-.844-2.998-1.067-.811-.138-1.847-.194-2.54-.136m10.36 2.039c-.188.056-.478.338-4.929 4.786l-4.73 4.726-1.19-1.184c-.778-.774-1.253-1.216-1.371-1.277-.245-.125-.632-.127-.868-.005-.509.264-.713.864-.458 1.353.046.088.779.851 1.693 1.763 1.745 1.74 1.782 1.77 2.193 1.771.449.001.187.243 5.745-5.325 4.711-4.719 5.131-5.15 5.19-5.331C22.971 4.234 23 4.08 23 4c0-.412-.3-.824-.684-.937-.256-.077-.395-.076-.656.003" fill="#667085" fill-rule="evenodd"/></svg>