<svg width="24" height="24" fill="none" xmlns="http://www.w3.org/2000/svg"><path d="M6.48 2.278c-1.998.366-3.797 1.77-4.742 3.702a6.938 6.938 0 0 0-.052 6.059c.27.575.69 1.191 1.297 1.901.604.707 2.899 3.014 4.177 4.2 1.533 1.422 3.514 3.193 3.745 3.349.629.426 1.52.431 2.155.014.111-.072.57-.461 1.02-.865 4.277-3.828 6.875-6.431 7.747-7.762a7.27 7.27 0 0 0 1.011-2.426c.204-.99.197-1.95-.023-2.927-.587-2.618-2.652-4.681-5.195-5.189-.55-.11-1.695-.101-2.282.017a6.998 6.998 0 0 0-2.928 1.336c-.228.174-.434.303-.457.288a9.446 9.446 0 0 1-.388-.304c-.818-.658-1.772-1.133-2.725-1.357-.514-.121-1.787-.14-2.36-.036m1.72 1.9c.493.074.934.215 1.374.44.508.259.816.492 1.406 1.062.559.54.665.601 1.045.599.311-.001.503-.118.949-.574.637-.65 1.253-1.062 1.981-1.322a3.48 3.48 0 0 1 1.024-.221c1.227-.114 2.459.351 3.464 1.308a4.902 4.902 0 0 1 1.502 2.785c.092.526.056 1.389-.079 1.914-.264 1.02-.664 1.684-1.694 2.811-.535.586-2.563 2.598-3.573 3.545-1.544 1.447-3.444 3.173-3.562 3.237-.076.04-.302-.154-2.116-1.817-1.672-1.534-2.609-2.427-3.841-3.662-1.604-1.608-2.134-2.232-2.513-2.958a4.845 4.845 0 0 1-.043-4.474c.733-1.439 2.184-2.523 3.596-2.686.454-.052.664-.05 1.08.013m7.16 3.49c-.328.053-.356.078-2.37 2.086l-1.989 1.984-.711-.707c-.775-.77-.919-.869-1.281-.87a.998.998 0 0 0-.949 1.324c.065.198.161.306 1.215 1.359.734.734 1.202 1.171 1.305 1.219.215.101.625.1.84-.001.107-.05.935-.847 2.512-2.418 2.577-2.569 2.562-2.552 2.56-2.998a.914.914 0 0 0-.249-.656 1.056 1.056 0 0 0-.883-.322" fill="#667085" fill-rule="evenodd"/></svg>