<svg width="24" height="24" fill="none" xmlns="http://www.w3.org/2000/svg"><path d="M4.692 2.043c-1.35.123-2.46.8-3.115 1.902C1.112 4.726 1 5.342 1 7.119c0 1.113.019 1.241.222 1.507.055.073.186.182.289.243.161.095.233.111.489.111s.328-.016.489-.111c.103-.061.236-.173.294-.25.185-.242.213-.388.216-1.099.002-.894.067-1.89.14-2.17.143-.547.662-1.068 1.207-1.21.459-.12 1.523-.139 7.654-.139 6.124 0 7.195.019 7.652.138.554.145 1.067.659 1.209 1.212.118.46.138 1.42.138 6.629.001 5.203-.021 6.26-.136 6.691-.105.393-.455.821-.872 1.065-.371.217-.562.231-3.531.259l-2.72.025-.19.094c-.494.243-.684.85-.424 1.355.114.221.368.43.599.492.112.03 1.025.039 2.968.028 2.664-.014 2.825-.019 3.167-.098.691-.158 1.199-.405 1.71-.828.692-.575 1.148-1.354 1.338-2.288.068-.334.072-.744.072-6.775 0-7.126.016-6.686-.263-7.456-.371-1.024-1.365-1.978-2.417-2.317-.649-.21-.311-.201-8.06-.21-3.949-.004-7.345.008-7.548.026M1.82 11.078a1.027 1.027 0 0 0-.728.558c-.104.209-.096.653.016.864.181.342.459.501 1.012.579a8.08 8.08 0 0 1 4.537 2.264 7.711 7.711 0 0 1 1.48 2.054c.398.785.629 1.506.777 2.426.043.266.115.557.16.645.275.539 1.004.692 1.499.315.074-.056.187-.197.251-.313.103-.187.115-.245.11-.53-.006-.357-.149-1.104-.332-1.741-.679-2.364-2.277-4.448-4.402-5.742-1.091-.664-2.47-1.165-3.68-1.337-.484-.068-.532-.071-.7-.042m-.175 4.097c-.504.182-.776.806-.565 1.296.123.287.374.508.667.59.984.273 1.519.561 2.077 1.116a4.2 4.2 0 0 1 1.057 1.867c.107.42.156.511.375.704a.943.943 0 0 0 1.288 0 .894.894 0 0 0 .336-.568c.036-.159.027-.251-.056-.596a5.94 5.94 0 0 0-3.004-3.867c-.893-.475-1.761-.692-2.175-.542m.022 3.888c-.369.117-.667.538-.667.939 0 .702.749 1.194 1.393.917.792-.34.813-1.423.036-1.825-.175-.09-.533-.105-.762-.031" fill="#667085" fill-rule="evenodd"/></svg>