<svg width="24" height="24" fill="none" xmlns="http://www.w3.org/2000/svg"><path d="M4.692 2.043c-.838.076-1.499.324-2.126.797-.698.526-1.233 1.341-1.424 2.166-.138.595-.147 1.089-.132 7.314.014 5.55.021 6.171.082 6.467.199.969.73 1.824 1.48 2.384.539.402.985.601 1.656.737.331.068.794.072 7.772.072 6.995 0 7.44-.004 7.775-.072 1.635-.333 2.8-1.498 3.133-3.133.068-.334.072-.744.072-6.775 0-7.126.016-6.686-.263-7.456-.371-1.024-1.365-1.978-2.417-2.317-.649-.21-.311-.201-8.06-.21-3.949-.004-7.345.008-7.548.026m3.07 1.987c.001.016-.129.691-.29 1.5L7.181 7H3.068l.026-.716c.015-.394.047-.821.07-.949.069-.373.373-.768.795-1.035.357-.225.907-.284 2.731-.294.589-.003 1.071.008 1.072.024m7 0c.001.016-.129.691-.29 1.5L14.181 7h-2.47C9.719 7 9.24 6.99 9.24 6.948c0-.062.552-2.827.579-2.898.014-.039.547-.05 2.48-.05 1.353 0 2.462.014 2.463.03m4.018.01c.352.021.744.066.872.099.429.113.893.496 1.099.91.099.2.166.824.168 1.561l.001.39h-2.34c-1.884 0-2.34-.01-2.34-.052 0-.062.552-2.827.579-2.898.023-.062 1.021-.068 1.961-.01M21 13.11c0 4.081-.027 5.147-.137 5.561-.105.393-.455.821-.872 1.065-.421.246-.147.237-7.611.254-6.854.015-7.559.004-8.051-.127-.531-.141-1.048-.668-1.19-1.213-.112-.428-.138-1.497-.139-5.58V9h18v4.11" fill="#667085" fill-rule="evenodd"/></svg>