<svg width="24" height="24" fill="none" xmlns="http://www.w3.org/2000/svg"><path d="M8.576 1.059c-.556.121-1.121.553-1.357 1.039-.096.196-.119.302-.132.605l-.016.367-.526.021c-.419.016-.582.04-.805.119-1.334.47-2.262 1.479-2.626 2.855l-.094.355v6.5c0 6.097.004 6.522.072 6.853.108.531.284.971.553 1.389a3.926 3.926 0 0 0 2.609 1.749c.336.063.81.069 5.746.069s5.41-.006 5.746-.069a3.926 3.926 0 0 0 3.165-3.165c.064-.338.069-.867.069-6.846V6.42l-.094-.355c-.364-1.376-1.292-2.385-2.626-2.855-.223-.079-.386-.103-.805-.119l-.526-.021-.017-.365c-.022-.469-.146-.744-.49-1.09a2.029 2.029 0 0 0-1.017-.557c-.377-.08-6.461-.079-6.829.001m6.385 2.021c.041.065.055 1.753.015 1.857C14.954 4.994 14.654 5 12 5s-2.954-.006-2.976-.063C9.011 4.902 9 4.469 9 3.975c0-.893 0-.898.09-.934.052-.021 1.298-.033 2.961-.029 2.504.007 2.877.016 2.91.068M7.093 5.368c.034.431.16.691.504 1.035.276.276.56.441.928.539.319.085 6.631.085 6.95 0 .368-.098.652-.263.928-.539.344-.344.47-.604.504-1.035l.025-.328.124.001c.84.005 1.498.472 1.828 1.299l.096.24.012 5.72c.013 5.791-.006 6.874-.131 7.35-.143.546-.637 1.05-1.182 1.207-.423.121-1.217.141-5.679.141s-5.256-.02-5.679-.141c-.545-.157-1.039-.661-1.182-1.207-.125-.476-.144-1.558-.131-7.35l.013-5.72.086-.227c.306-.804.963-1.287 1.777-1.308l.184-.005.025.328m7.987 6.235c-.136.061-.653.553-2.129 2.027l-1.949 1.947-.731-.724c-.667-.661-.75-.73-.948-.789-.271-.08-.374-.08-.639-.001C8.3 14.176 8 14.588 8 15c0 .08.03.234.066.343.057.173.203.336 1.189 1.328.771.775 1.179 1.158 1.3 1.216.245.119.51.137.771.053.202-.065.35-.205 2.581-2.431 1.664-1.661 2.399-2.42 2.474-2.558a.98.98 0 0 0-.428-1.327 1.06 1.06 0 0 0-.873-.021" fill="#667085" fill-rule="evenodd"/></svg>