<svg width="24" height="24" fill="none" xmlns="http://www.w3.org/2000/svg"><path d="M8.68 1.026a2.19 2.19 0 0 0-1.168.65c-.299.331-.406.591-.425 1.027l-.016.367-.526.021c-.394.015-.589.042-.783.108A4.058 4.058 0 0 0 3.094 6.14c-.071.305-.074.624-.074 6.8 0 6.089.004 6.501.072 6.835.201.986.708 1.808 1.472 2.383.638.481 1.276.719 2.149.801.575.055 9.999.055 10.574 0 .235-.022.596-.083.802-.135 1.328-.337 2.462-1.496 2.769-2.83.139-.605.147-1.044.134-7.374l-.013-6.24-.094-.336c-.334-1.197-1.048-2.082-2.107-2.615-.505-.254-.745-.316-1.323-.338l-.526-.021-.016-.367c-.013-.299-.037-.41-.126-.593-.215-.438-.611-.788-1.127-.994l-.24-.096-3.32-.005c-1.826-.003-3.365.002-3.42.011m6.257 2.037c.053.053.063.193.062.91 0 .466-.011.888-.024.937l-.024.09H12c-2.654 0-2.954-.006-2.976-.063C9.011 4.902 9 4.471 9 3.979c0-.81.007-.899.07-.936.046-.026 1.064-.041 2.937-.042 2.554-.001 2.874.006 2.93.062M7.093 5.368c.034.431.16.691.504 1.036.286.286.626.475.995.552.295.061 6.521.061 6.816 0a2.12 2.12 0 0 0 1.274-.879c.143-.223.236-.556.237-.847l.001-.19h.175c.798 0 1.491.503 1.794 1.303l.09.237.013 5.72c.013 5.803-.006 6.873-.132 7.354-.111.424-.505.894-.924 1.104-.447.223-.392.221-5.936.221-5.558 0-5.487.003-5.945-.226-.414-.205-.804-.675-.915-1.098a6.702 6.702 0 0 1-.1-.854c-.05-.789-.052-11.573-.002-12.05.05-.477.209-.806.558-1.154.389-.387.737-.539 1.268-.552l.204-.005.025.328" fill="#667085" fill-rule="evenodd"/></svg>