<svg width="24" height="24" fill="none" xmlns="http://www.w3.org/2000/svg"><path d="M8.576 1.059c-.556.121-1.121.553-1.357 1.039-.096.196-.119.302-.132.605l-.016.367-.526.021c-.419.016-.582.04-.805.119-1.334.47-2.262 1.479-2.626 2.855l-.094.355v6.5c0 6.097.004 6.522.072 6.853.108.531.284.971.553 1.389a3.926 3.926 0 0 0 2.609 1.749c.336.063.81.069 5.746.069s5.41-.006 5.746-.069a3.926 3.926 0 0 0 3.165-3.165c.064-.338.069-.867.069-6.846V6.42l-.094-.355c-.364-1.376-1.292-2.385-2.626-2.855-.223-.079-.386-.103-.805-.119l-.526-.021-.017-.365c-.022-.469-.146-.744-.49-1.09a2.029 2.029 0 0 0-1.017-.557c-.377-.08-6.461-.079-6.829.001m6.385 2.021c.041.065.055 1.753.015 1.857C14.954 4.994 14.654 5 12 5s-2.954-.006-2.976-.063C9.011 4.902 9 4.469 9 3.975c0-.893 0-.898.09-.934.052-.021 1.298-.033 2.961-.029 2.504.007 2.877.016 2.91.068M7.093 5.368c.034.431.16.691.504 1.035.276.276.56.441.928.539.319.085 6.631.085 6.95 0 .368-.098.652-.263.928-.539.344-.344.47-.604.504-1.035l.025-.328.124.001c.84.005 1.498.472 1.828 1.299l.096.24.012 5.72c.013 5.791-.006 6.874-.131 7.35-.143.546-.637 1.05-1.182 1.207-.423.121-1.217.141-5.679.141s-5.256-.02-5.679-.141c-.545-.157-1.039-.661-1.182-1.207-.125-.476-.144-1.558-.131-7.35l.013-5.72.086-.227c.306-.804.963-1.287 1.777-1.308l.184-.005.025.328m4.574 4.697c-.252.077-.512.335-.601.595-.058.17-.066.428-.066 2.055v1.86l-.73-.723c-.666-.66-.749-.729-.947-.788-.271-.08-.374-.08-.639-.001-.417.123-.717.576-.675 1.015.036.376.109.463 1.82 2.167 1.519 1.514 1.646 1.63 1.845 1.695.26.084.525.066.77-.052.124-.06.66-.572 1.801-1.717 1.453-1.459 1.631-1.652 1.69-1.828.036-.109.065-.263.065-.343 0-.412-.3-.824-.684-.937-.265-.079-.368-.079-.639.001-.198.059-.281.128-.947.788l-.73.723v-1.86c0-2.114 0-2.118-.303-2.42-.269-.27-.635-.351-1.03-.23" fill="#667085" fill-rule="evenodd"/></svg>