<svg width="24" height="24" fill="none" xmlns="http://www.w3.org/2000/svg"><path d="M8.576 1.059c-.556.121-1.121.553-1.357 1.039-.096.196-.119.302-.132.605l-.016.367-.526.021c-.419.016-.582.04-.805.119-1.334.47-2.262 1.479-2.626 2.855l-.094.355v6.5c0 6.097.004 6.522.072 6.853.108.531.284.971.553 1.389a3.926 3.926 0 0 0 2.609 1.749c.336.063.81.069 5.746.069s5.41-.006 5.746-.069a3.926 3.926 0 0 0 3.165-3.165c.064-.338.069-.867.069-6.846V6.42l-.094-.355c-.364-1.376-1.292-2.385-2.626-2.855-.223-.079-.386-.103-.805-.119l-.526-.021-.017-.365c-.022-.469-.146-.744-.49-1.09a2.029 2.029 0 0 0-1.017-.557c-.377-.08-6.461-.079-6.829.001m6.385 2.021c.041.065.055 1.753.015 1.857C14.954 4.994 14.654 5 12 5s-2.954-.006-2.976-.063C9.011 4.902 9 4.469 9 3.975c0-.893 0-.898.09-.934.052-.021 1.298-.033 2.961-.029 2.504.007 2.877.016 2.91.068M7.093 5.368c.034.431.16.691.504 1.035.276.276.56.441.928.539.319.085 6.631.085 6.95 0 .368-.098.652-.263.928-.539.344-.344.47-.604.504-1.035l.025-.328.124.001c.84.005 1.498.472 1.828 1.299l.096.24.012 5.72c.013 5.791-.006 6.874-.131 7.35-.143.546-.637 1.05-1.182 1.207-.423.121-1.217.141-5.679.141s-5.256-.02-5.679-.141c-.545-.157-1.039-.661-1.182-1.207-.125-.476-.144-1.558-.131-7.35l.013-5.72.086-.227c.306-.804.963-1.287 1.777-1.308l.184-.005.025.328m2.147 5.667c-.452.148-.731.515-.732.965-.002.387.076.493 1.108 1.52.519.517.944.958.944.98 0 .022-.425.463-.944.98-.677.673-.968.991-1.027 1.12a1.077 1.077 0 0 0-.013.78c.149.351.55.62.924.619.368-.001.486-.088 1.53-1.13l.97-.968.97.968c1.044 1.042 1.162 1.129 1.53 1.13.374.001.775-.268.924-.619a1.077 1.077 0 0 0-.013-.78c-.059-.129-.35-.447-1.027-1.12-.519-.517-.944-.958-.944-.98 0-.022.425-.463.944-.98 1.032-1.027 1.11-1.133 1.108-1.52a.993.993 0 0 0-.552-.892c-.211-.113-.656-.119-.86-.013-.077.04-.577.507-1.11 1.039l-.97.965-.97-.965c-.533-.532-1.031-.997-1.106-1.034-.156-.078-.535-.114-.684-.065" fill="#667085" fill-rule="evenodd"/></svg>