<svg width="24" height="24" fill="none" xmlns="http://www.w3.org/2000/svg"><path d="M10.44 2.027A10.047 10.047 0 0 0 2.2 7.56c-.477.95-.785 1.944-.967 3.12-.071.456-.071 2.184 0 2.64.355 2.29 1.284 4.158 2.846 5.722.792.793 1.526 1.336 2.458 1.821 2.213 1.151 4.687 1.433 7.121.813 1.881-.479 3.731-1.612 4.982-3.052.489-.563.585-.82.462-1.242-.126-.435-.489-.702-.954-.702-.371 0-.591.123-.924.518-1.854 2.197-4.82 3.215-7.682 2.638-3.4-.687-5.982-3.535-6.341-6.996A7.99 7.99 0 0 1 6.72 5.339a8.015 8.015 0 0 1 6.9-.934c2.01.665 3.639 2.106 4.578 4.05.373.771.605 1.493.721 2.245l.062.395c.018.106-.001.095-.266-.155-.35-.33-.532-.418-.865-.419a.96.96 0 0 0-.951.695c-.074.251-.074.319.005.587.06.204.131.285 1.209 1.368 1.25 1.256 1.337 1.322 1.729 1.322.419 0 .536-.087 1.746-1.302 1.194-1.2 1.25-1.276 1.25-1.691 0-.565-.414-.977-.983-.979-.301-.001-.487.073-.717.285-.201.185-.189.198-.257-.286a10.342 10.342 0 0 0-.145-.76c-.746-3.213-2.96-5.832-5.964-7.058-1.296-.528-2.907-.779-4.332-.675m.385 4.029a1.029 1.029 0 0 0-.555.503l-.11.215v2.723l.001 2.723.094.2c.052.11.147.247.21.305.22.202 3.25 2.19 3.402 2.232a.983.983 0 0 0 1.156-.487.954.954 0 0 0-.006-.95c-.118-.211-.176-.256-1.49-1.137l-1.367-.918V9.183c0-1.371-.016-2.34-.04-2.424a1.467 1.467 0 0 0-.152-.32c-.216-.341-.764-.524-1.143-.383" fill="#667085" fill-rule="evenodd"/></svg>