<svg width="24" height="24" fill="none" xmlns="http://www.w3.org/2000/svg"><path d="M9.643 1.069C9.291 1.193 9 1.614 9 2c0 .242.119.521.299.701.247.247.442.299 1.128.299H11v1.196l-.13.022-.501.083C8.4 4.628 6.416 5.689 5.04 7.149c-2.149 2.282-2.99 5.381-2.298 8.464a9.585 9.585 0 0 0 1.637 3.541c1.522 2.037 3.723 3.355 6.262 3.752.642.101 2.076.101 2.718 0a9.558 9.558 0 0 0 5.013-2.377c2.561-2.317 3.665-5.853 2.869-9.189-.535-2.239-1.934-4.237-3.88-5.538-1.124-.752-2.462-1.29-3.73-1.501l-.501-.083-.13-.022V3h.573c.686 0 .881-.052 1.128-.299a.984.984 0 0 0 0-1.402c-.303-.303-.271-.299-2.718-.296-1.851.003-2.188.012-2.34.066M4.737 3.203c-.102.05-.502.422-1.063.988-.971.981-.994 1.015-.994 1.436 0 .701.802 1.181 1.43.857.083-.042.556-.488 1.053-.991.966-.977.997-1.022.997-1.418-.001-.347-.287-.759-.626-.9-.194-.081-.601-.067-.797.028m13.703 0a.997.997 0 0 0-.492.457c-.12.224-.119.657 0 .88.105.195 1.78 1.866 1.961 1.957.494.246 1.148-.02 1.35-.549.085-.222.07-.577-.033-.791-.038-.079-.478-.548-.977-1.043-.981-.97-1.016-.995-1.434-.993-.109 0-.274.037-.375.082m-5.714 2.839c1.296.131 2.607.618 3.631 1.349a9.262 9.262 0 0 1 1.441 1.347 7.632 7.632 0 0 1 1.465 2.907 7.966 7.966 0 0 1 0 3.71c-.621 2.456-2.504 4.483-4.883 5.257-.873.285-1.403.366-2.38.366-.977 0-1.507-.081-2.38-.366-2.38-.775-4.261-2.8-4.883-5.257a7.966 7.966 0 0 1 0-3.71 7.632 7.632 0 0 1 1.465-2.907 9.262 9.262 0 0 1 1.441-1.347 7.627 7.627 0 0 1 5.083-1.349m-1.112 2.536a1.173 1.173 0 0 0-.53.543c-.086.198-.086.224-.075 2.429.011 2.199.012 2.232.097 2.39.048.088.147.216.22.285.19.177 2.729 1.685 2.928 1.739.347.093.736-.03.994-.316a.969.969 0 0 0 .01-1.285c-.078-.086-.567-.408-1.194-.785l-1.061-.638-.002-1.82-.002-1.82-.093-.2a1.146 1.146 0 0 0-.532-.525c-.167-.07-.596-.068-.76.003" fill="#667085" fill-rule="evenodd"/></svg>