<svg width="24" height="24" fill="none" xmlns="http://www.w3.org/2000/svg"><path d="M11.3 1.024c-.746.075-1.025.113-1.46.2-4.132.822-7.47 3.999-8.504 8.096-.248.979-.311 1.527-.311 2.68 0 .85.014 1.113.087 1.58A11.182 11.182 0 0 0 3.36 18.8c.35.453 1.285 1.397 1.76 1.778a11.082 11.082 0 0 0 5.793 2.368c.954.101 1.274.041 1.566-.291a.916.916 0 0 0 .251-.654.94.94 0 0 0-.262-.675c-.222-.231-.393-.293-.926-.331-1.514-.109-2.818-.494-4.022-1.187-2.406-1.384-3.992-3.723-4.426-6.528-.097-.633-.098-1.923 0-2.56a8.775 8.775 0 0 1 .824-2.66A8.826 8.826 0 0 1 8.06 3.918c1.302-.634 2.449-.895 3.94-.895s2.638.261 3.94.895a8.842 8.842 0 0 1 4.141 4.14c.612 1.257.864 2.333.903 3.842.025.978.052 1.1.3 1.348.548.548 1.442.313 1.66-.436.057-.197.064-.352.043-1.052-.024-.839-.077-1.307-.229-2.042a11.127 11.127 0 0 0-1.221-3.188c-1.753-3-4.705-4.974-8.119-5.431-.46-.061-1.788-.109-2.118-.075m.367 4.041c-.252.077-.512.335-.601.595C11.007 5.834 11 6.177 11 9s.007 3.166.066 3.34c.127.373.22.432 2.396 1.513 1.258.626 2.059 1.001 2.162 1.015.096.012.255-.005.381-.042.751-.218.976-1.158.401-1.676-.11-.099-.722-.428-1.786-.96L13 11.38V8.617c0-3.121.01-3.009-.303-3.322-.269-.27-.635-.351-1.03-.23M20.6 15.583c-.088.038-.866.786-2.101 2.019-1.078 1.077-1.978 1.958-2 1.958-.022 0-.346-.307-.719-.683-.374-.375-.752-.721-.84-.769-.223-.12-.656-.12-.88 0a.993.993 0 0 0-.552.892c-.002.399.058.477 1.337 1.743C16.093 21.979 16.122 22 16.5 22c.399 0 .307.08 2.908-2.514 2.684-2.676 2.622-2.602 2.581-3.047a1.039 1.039 0 0 0-.615-.864c-.173-.072-.597-.068-.774.008" fill="#667085" fill-rule="evenodd"/></svg>