<svg width="24" height="24" fill="none" xmlns="http://www.w3.org/2000/svg"><path d="M13.608 2.561a9.504 9.504 0 0 0-8.309 7.1c-.174.679-.279 1.384-.243 1.628.038.254.238.54.481.69.174.107.232.121.503.121s.329-.014.503-.121c.28-.172.439-.426.493-.788.153-1.005.344-1.663.705-2.422.909-1.911 2.671-3.397 4.692-3.954a7.45 7.45 0 0 1 3.467-.092c1.341.289 2.775 1.073 3.716 2.031l.235.24-.163-.022a1.015 1.015 0 0 0-1.147.854c-.058.387.202.86.559 1.017.257.114 3 .837 3.173.837a.973.973 0 0 0 .864-.532c.057-.114.277-.856.488-1.648.416-1.565.431-1.677.262-2.005a1.009 1.009 0 0 0-1.287-.452c-.35.159-.478.337-.625.873-.051.184-.1.342-.108.351-.009.008-.085-.071-.169-.176a12.445 12.445 0 0 0-.576-.625c-1.553-1.598-3.481-2.582-5.611-2.864-.454-.06-1.476-.082-1.903-.041m.572 4.006a1.095 1.095 0 0 0-.562.479l-.118.214-.011 2.415c-.013 2.664-.012 2.68.232 2.975.158.19 2.768 1.763 3.049 1.837.15.039.239.039.42.001.766-.16 1.068-1.115.52-1.648-.094-.091-.629-.439-1.19-.775l-1.02-.609-.02-2.118c-.014-1.505-.034-2.149-.067-2.224a1.217 1.217 0 0 0-.468-.482c-.191-.097-.59-.131-.765-.065m8.429 5.401c-.165.056-.472.322-.554.482-.035.067-.098.339-.14.606-.182 1.138-.51 2.037-1.079 2.954-.283.456-.521.756-.975 1.225-2.017 2.086-4.926 2.778-7.661 1.824-.746-.261-1.605-.733-2.18-1.199-.356-.289-.812-.702-.832-.754-.012-.032.071-.046.267-.048.34-.001.546-.093.754-.336.421-.491.243-1.28-.348-1.546-.257-.116-2.977-.816-3.168-.815a1.006 1.006 0 0 0-.852.519C5.733 15.092 5 17.876 5 18.076c0 .256.075.463.234.65.369.43 1.026.468 1.425.083.171-.166.26-.344.363-.729.039-.143.082-.274.097-.291.014-.016.118.083.231.222.319.393 1.163 1.194 1.604 1.523a9.8 9.8 0 0 0 4.406 1.851c.638.1 1.962.1 2.599.001a9.45 9.45 0 0 0 7.634-6.666c.221-.747.386-1.69.342-1.962a1.132 1.132 0 0 0-.47-.696c-.159-.097-.245-.122-.46-.129a1.468 1.468 0 0 0-.396.035" fill="#667085" fill-rule="evenodd"/></svg>