<svg width="24" height="24" fill="none" xmlns="http://www.w3.org/2000/svg"><path d="M11.041 1.045c-1.47.13-2.98.585-4.26 1.283-.985.538-1.77 1.13-2.583 1.947-1.682 1.693-2.712 3.742-3.086 6.145-.073.467-.087.73-.087 1.58 0 .85.014 1.113.087 1.58.378 2.425 1.41 4.467 3.125 6.183 1.455 1.454 3.123 2.407 5.083 2.901 1.118.283 2.537.4 3.6.299.627-.06.755-.093.967-.255a.996.996 0 0 0 .001-1.577c-.262-.197-.429-.227-.974-.175-3.36.319-6.55-1.187-8.406-3.969a9.615 9.615 0 0 1-1.263-2.907c-.167-.718-.222-1.229-.222-2.08 0-1.502.281-2.717.923-4C4.856 6.182 6.182 4.856 8 3.946c1.283-.642 2.498-.923 4-.923 1.502 0 2.717.281 4 .923 1.813.908 3.126 2.219 4.042 4.034a8.905 8.905 0 0 1 .919 4.771c-.063.767-.036.894.257 1.194.427.439 1.027.428 1.437-.027.201-.225.249-.372.305-.952.22-2.27-.387-4.803-1.621-6.766-.829-1.318-2.019-2.539-3.287-3.371a11.01 11.01 0 0 0-7.011-1.784m.602 4.024a1.118 1.118 0 0 0-.343.229c-.313.313-.3.157-.3 3.702 0 3.508-.01 3.381.275 3.679.113.119.583.371 2.15 1.153 1.319.659 2.067 1.011 2.186 1.029.247.037.569-.062.775-.238a.999.999 0 0 0 .043-1.466c-.095-.091-.699-.414-1.786-.957L13 11.381V8.618c0-3.117.01-3.01-.299-3.319a.998.998 0 0 0-1.058-.23m7 10a1.066 1.066 0 0 0-.577.591c-.055.162-.066.373-.066 1.267V18h-1.073c-1.235 0-1.35.021-1.628.299a.984.984 0 0 0 0 1.402c.278.278.393.299 1.628.299H18v1.073c0 1.235.021 1.35.299 1.628a.984.984 0 0 0 1.402 0c.278-.278.299-.393.299-1.628V20h1.073c1.235 0 1.35-.021 1.628-.299a.984.984 0 0 0 0-1.402c-.278-.278-.393-.299-1.628-.299H20v-1.073c0-1.235-.021-1.35-.299-1.628a.998.998 0 0 0-1.058-.23" fill="#667085" fill-rule="evenodd"/></svg>