<svg width="24" height="24" fill="none" xmlns="http://www.w3.org/2000/svg"><path d="M10.44 2.027A10.047 10.047 0 0 0 2.2 7.56c-.477.95-.785 1.944-.967 3.12-.071.456-.071 2.184 0 2.64.355 2.29 1.284 4.158 2.846 5.722.792.793 1.526 1.336 2.458 1.821a9.76 9.76 0 0 0 4.283 1.124c3.375.118 6.483-1.495 8.394-4.357a10.579 10.579 0 0 0 1.49-3.45c.038-.154.074-.287.082-.297.007-.009.13.095.271.232.303.29.482.376.783.377a.98.98 0 0 0 .998-.992c0-.419-.054-.491-1.27-1.708-1.222-1.222-1.287-1.27-1.719-1.271-.414-.002-.502.064-1.755 1.326-1.099 1.105-1.128 1.139-1.196 1.373-.059.201-.063.275-.025.457.116.553.639.917 1.153.802.228-.051.308-.092.526-.268l.172-.139-.028.114c-.139.573-.657 1.688-1.074 2.31-1.809 2.699-4.908 3.98-8.08 3.34-3.4-.687-5.982-3.535-6.341-6.996A7.973 7.973 0 0 1 7.58 4.846a8.02 8.02 0 0 1 7.699.306c1.035.624 1.867 1.431 2.581 2.504.359.539.52.68.86.75a.997.997 0 0 0 1.139-.698c.12-.412.015-.692-.559-1.494a10.043 10.043 0 0 0-3.82-3.223 10.17 10.17 0 0 0-5.04-.964m.385 4.029a1.029 1.029 0 0 0-.555.503l-.11.215v2.723l.001 2.723.094.2c.052.11.147.247.21.305.22.202 3.25 2.19 3.402 2.232a.983.983 0 0 0 1.156-.487.954.954 0 0 0-.006-.95c-.118-.211-.176-.256-1.49-1.137l-1.367-.918V9.183c0-1.371-.016-2.34-.04-2.424a1.467 1.467 0 0 0-.152-.32c-.216-.341-.764-.524-1.143-.383" fill="#667085" fill-rule="evenodd"/></svg>