<svg width="24" height="24" fill="none" xmlns="http://www.w3.org/2000/svg"><path d="M11.041 1.045c-1.47.13-2.98.585-4.26 1.283-.985.538-1.77 1.13-2.583 1.947-1.682 1.693-2.712 3.742-3.086 6.145-.073.467-.087.73-.087 1.58 0 .85.014 1.113.087 1.58.378 2.425 1.41 4.467 3.125 6.183 2.037 2.036 4.582 3.136 7.463 3.224.891.027 1.497-.023 1.73-.142.373-.19.551-.484.548-.905-.002-.436-.194-.724-.606-.907-.152-.068-.238-.072-.94-.048-1.138.039-2.037-.07-3.016-.367-2.427-.736-4.33-2.342-5.47-4.618-.642-1.283-.923-2.498-.923-4 0-1.502.281-2.717.923-4C4.856 6.182 6.182 4.856 8 3.946c1.283-.642 2.498-.923 4-.923 1.502 0 2.717.281 4 .923 2.678 1.341 4.422 3.743 4.905 6.754.054.337.071.693.073 1.52.003 1.025.007 1.088.089 1.24.17.318.446.496.819.53.205.018.265.006.488-.104a.966.966 0 0 0 .532-.61c.084-.243.117-1.485.058-2.153-.236-2.647-1.308-4.975-3.144-6.828a10.699 10.699 0 0 0-2.601-1.967 11.058 11.058 0 0 0-6.178-1.283m.602 4.024a1.118 1.118 0 0 0-.343.229c-.313.313-.3.157-.3 3.702 0 3.508-.01 3.381.275 3.679.113.119.583.371 2.15 1.153 1.319.659 2.067 1.011 2.186 1.029.247.037.569-.062.775-.238a.999.999 0 0 0 .043-1.466c-.095-.091-.699-.414-1.786-.957L13 11.381V8.618c0-3.117.01-3.01-.299-3.319a.998.998 0 0 0-1.058-.23m4.597 10.968c-.193.06-.347.159-.488.315-.445.493-.272 1.265.348 1.554.197.092.218.093 1.599.094h1.4l-1.745 1.75c-1.867 1.872-1.848 1.849-1.848 2.25 0 .371.209.71.551.893.162.087.176.087 2.883.098 3.053.013 2.914.025 3.246-.28.499-.461.376-1.272-.243-1.604-.157-.084-.212-.087-1.6-.099l-1.437-.012 1.742-1.748c1.864-1.87 1.846-1.848 1.846-2.248 0-.371-.209-.71-.551-.893-.162-.087-.172-.087-2.883-.094-1.496-.004-2.765.007-2.82.024" fill="#667085" fill-rule="evenodd"/></svg>