<svg width="24" height="24" fill="none" xmlns="http://www.w3.org/2000/svg"><path d="M2.643 2.069c-.531.187-.786.849-.53 1.375.06.124.664.754 2.04 2.13l1.954 1.953-.25.495a7.37 7.37 0 0 0-.361.832l-.11.337-.323.088a5.75 5.75 0 0 0-2.632 1.596c-.671.715-1.111 1.574-1.336 2.607-.103.474-.104 1.561-.002 2.037.248 1.151.737 2.066 1.529 2.859.779.778 1.639 1.244 2.818 1.527.28.067.691.073 6.24.086 5.472.014 5.972.009 6.352-.054l.413-.069 1.007 1c.878.871 1.033 1.009 1.205 1.066.389.13.765.046 1.045-.234a.986.986 0 0 0 .185-1.144c-.063-.129-2.503-2.593-9.216-9.301-8.441-8.436-9.146-9.13-9.328-9.19a1.038 1.038 0 0 0-.7.004m8.797 1.957c-1.069.105-1.412.245-1.626.664a.978.978 0 0 0 .421 1.326c.277.138.42.152.801.076.481-.096 1.466-.095 1.924.002a4.98 4.98 0 0 1 2.469 1.28 5 5 0 0 1 1.428 2.473c.15.606.199.718.39.901.173.166.341.233.732.292 1.204.182 2.172.892 2.682 1.97.379.8.432 1.726.149 2.609-.167.523-.127.851.142 1.149.219.242.417.33.748.33.543 0 .819-.25 1.037-.94.505-1.594.264-3.291-.66-4.639a5.542 5.542 0 0 0-2.856-2.141 4.017 4.017 0 0 0-.468-.138c-.037 0-.11-.158-.209-.45-.886-2.628-3.167-4.477-5.858-4.748a7.496 7.496 0 0 0-1.246-.016m.66 9.494L16.58 18h-5.203c-3.459 0-5.282-.014-5.44-.042a3.526 3.526 0 0 1-1.939-1.023 3.445 3.445 0 0 1-.884-1.555c-.124-.457-.124-1.303 0-1.76.377-1.389 1.476-2.364 2.907-2.58.391-.059.559-.126.732-.292.17-.162.236-.291.334-.644.073-.263.456-1.064.51-1.064.013 0 2.039 2.016 4.503 4.48" fill="#667085" fill-rule="evenodd"/></svg>