<svg width="24" height="24" fill="none" xmlns="http://www.w3.org/2000/svg"><path d="M11.241 1.046c-2.621.274-4.908 2.148-5.783 4.74l-.15.444-.21.047c-.27.06-.731.238-1.101.424a5.469 5.469 0 0 0-2.56 2.695c-.721 1.674-.537 3.591.494 5.153.466.704 1.302 1.478 1.77 1.638.66.224 1.368-.348 1.29-1.043-.036-.317-.171-.525-.505-.78-.719-.55-1.152-1.175-1.372-1.984-.069-.257-.086-.43-.086-.88s.017-.623.086-.88c.378-1.389 1.476-2.364 2.907-2.58.391-.059.559-.126.732-.292.19-.182.245-.306.374-.846.244-1.019.697-1.814 1.438-2.523.685-.655 1.503-1.08 2.475-1.285.47-.099 1.45-.099 1.92 0a4.98 4.98 0 0 1 2.469 1.28 5 5 0 0 1 1.428 2.473c.15.606.199.718.39.901.173.166.341.233.732.292 1.695.255 2.904 1.574 3.007 3.28.071 1.174-.46 2.274-1.469 3.042-.225.171-.333.285-.398.42-.312.644.079 1.374.775 1.446.425.044.846-.2 1.514-.875 1.447-1.462 1.958-3.626 1.313-5.553-.445-1.327-1.446-2.459-2.759-3.119-.316-.159-1.09-.441-1.209-.441-.037 0-.11-.158-.209-.45-1.058-3.139-4.051-5.083-7.303-4.744M8.748 12.055c-.261.098-.445.246-.555.449-.059.108-.743 1.789-1.52 3.736-1.32 3.307-1.413 3.556-1.411 3.78.005.56.423.962.998.958.421-.002.705-.18.889-.558.044-.088.711-1.744 1.485-3.681 1.251-3.133 1.406-3.545 1.406-3.74a1.016 1.016 0 0 0-.571-.905c-.171-.088-.536-.108-.721-.039m8 0c-.261.098-.445.246-.555.449-.058.108-.742 1.789-1.52 3.736-1.32 3.307-1.413 3.556-1.411 3.78.005.56.423.962.998.958.421-.002.705-.18.889-.558.044-.088.711-1.744 1.485-3.681 1.251-3.133 1.406-3.545 1.406-3.74a1.016 1.016 0 0 0-.571-.905c-.171-.088-.536-.108-.721-.039m-4.799 2a1.084 1.084 0 0 0-.502.363c-.047.068-.737 1.744-1.533 3.723-1.38 3.429-1.449 3.611-1.45 3.859-.005 1.061 1.417 1.377 1.885.42.044-.088.711-1.744 1.485-3.681 1.251-3.133 1.406-3.545 1.406-3.74a1.016 1.016 0 0 0-.571-.905c-.17-.088-.536-.108-.72-.039" fill="#667085" fill-rule="evenodd"/></svg>