<svg width="24" height="24" fill="none" xmlns="http://www.w3.org/2000/svg"><path d="M10.869 3.583c-2.614.395-4.836 2.05-5.988 4.463-.363.761-.669 1.836-.741 2.6l-.028.299-.272.127c-.873.406-1.746 1.218-2.217 2.059a4.912 4.912 0 0 0-.399 3.835c.55 1.754 1.947 3.017 3.806 3.441l.39.089 5.98.015c4.077.009 6.14 0 6.483-.029 1.443-.125 2.629-.691 3.611-1.723a5.41 5.41 0 0 0 1.12-5.732c-.472-1.186-1.359-2.169-2.531-2.806l-.296-.161-.11-.44c-.671-2.705-2.628-4.854-5.206-5.716-.819-.273-1.298-.349-2.311-.366-.655-.01-1.006.002-1.291.045m2.051 1.996a5.972 5.972 0 0 1 2.5.995c.445.301 1.165 1.012 1.478 1.461a6.201 6.201 0 0 1 1.018 2.515c.127.754.264.945.854 1.192.631.264 1.113.624 1.481 1.106.892 1.17.987 2.718.243 3.961-.209.35-.681.861-.98 1.063-.321.217-.746.41-1.147.521l-.387.106-5.92.013c-3.876.008-6.053-.003-6.306-.03-.793-.084-1.329-.337-1.874-.882-.539-.539-.816-1.161-.864-1.94-.053-.856.243-1.631.864-2.261.363-.369.664-.555 1.225-.759.715-.26.85-.451.9-1.28.039-.643.088-.977.217-1.46C6.79 7.761 8.64 6.035 10.8 5.627l.44-.08c.26-.042 1.334-.021 1.68.032" fill="#667085" fill-rule="evenodd"/></svg>