<svg width="24" height="24" fill="none" xmlns="http://www.w3.org/2000/svg"><path d="M11.26 1.547c-.959.12-1.972.524-2.819 1.125-.46.326-1.134.988-1.475 1.448-.138.187-.275.369-.303.404-.034.042-.146.071-.327.087-.917.078-2.015.494-2.834 1.075A7.027 7.027 0 0 0 2.086 7.1a5.925 5.925 0 0 0-.906 4.842 5.91 5.91 0 0 0 1.601 2.798 5.934 5.934 0 0 0 3.759 1.739c.66.055 10.819.054 11.4-.001 1.407-.132 2.588-.703 3.554-1.719.93-.977 1.436-2.184 1.491-3.559a5.228 5.228 0 0 0-1.564-3.981 5.507 5.507 0 0 0-2.972-1.553l-.487-.089-.195-.398c-.962-1.966-2.803-3.325-4.9-3.616-.29-.04-1.332-.05-1.607-.016m1.82 2.087c.431.116.597.18.999.388 1.048.541 1.835 1.479 2.217 2.642.125.38.3.608.567.737.147.072.292.095.75.122.671.039 1.017.126 1.508.38 2.067 1.067 2.511 3.867.879 5.537-.475.486-.954.765-1.633.953l-.387.107h-5.72c-6.193 0-5.841.012-6.564-.224-1.736-.566-2.868-2.352-2.663-4.201.14-1.256.787-2.291 1.862-2.974.551-.351 1.144-.532 1.9-.58.473-.03.562-.047.76-.149a.838.838 0 0 0 .368-.333l.379-.576c.628-.953 1.714-1.666 2.871-1.886.426-.081 1.514-.049 1.907.057M4.617 17.577c-.346.15-.616.556-.616.923 0 .386.303.818.664.945.118.042.438.055 1.335.055s1.217-.013 1.335-.055c.361-.127.664-.559.664-.945 0-.372-.274-.779-.625-.925-.188-.078-2.576-.077-2.757.002m5 0c-.346.15-.616.556-.616.923 0 .386.303.818.664.945.128.045.973.055 4.835.055s4.707-.01 4.835-.055c.361-.127.664-.559.664-.945 0-.372-.274-.779-.625-.925-.193-.081-9.572-.079-9.757.002m-4 3c-.346.15-.616.556-.616.923 0 .386.303.818.664.945.23.081 7.44.081 7.67 0 .361-.127.664-.559.664-.945 0-.372-.274-.779-.625-.925-.192-.08-7.572-.079-7.757.002m10 0c-.346.15-.616.556-.616.923 0 .386.303.818.664.945.118.042.438.055 1.335.055s1.217-.013 1.335-.055c.361-.127.664-.559.664-.945 0-.372-.274-.779-.625-.925-.188-.078-2.576-.077-2.757.002" fill="#667085" fill-rule="evenodd"/></svg>