<svg width="24" height="24" fill="none" xmlns="http://www.w3.org/2000/svg"><path d="M11.26 1.545a8.376 8.376 0 0 0-1.255.303c-1.206.425-2.378 1.328-3.158 2.432-.221.312-.229.319-.407.32-.271.001-.865.126-1.324.279-1.574.523-2.803 1.592-3.519 3.061-.974 1.999-.751 4.273.603 6.15.255.353.924 1.009 1.306 1.28a6.153 6.153 0 0 0 3.014 1.109c.63.055 10.832.055 11.42-.001 1.407-.132 2.588-.703 3.554-1.719.93-.977 1.436-2.184 1.491-3.559a5.228 5.228 0 0 0-1.564-3.981 5.54 5.54 0 0 0-3.029-1.562l-.427-.069-.185-.384a6.103 6.103 0 0 0-1.218-1.738c-.9-.932-1.918-1.509-3.202-1.814-.357-.084-.537-.101-1.2-.112a12.904 12.904 0 0 0-.9.005m1.82 2.089c.431.116.597.18.999.388 1.046.54 1.832 1.477 2.217 2.642.126.383.301.609.572.74.154.074.285.096.73.118.625.032.928.102 1.396.321 1.865.871 2.563 3.182 1.5 4.968a3.626 3.626 0 0 1-1.702 1.443c-.648.259-.313.246-6.572.246-6.148 0-5.801.012-6.522-.223-1.742-.568-2.87-2.35-2.664-4.205.134-1.208.751-2.231 1.742-2.891.631-.419 1.198-.604 2.019-.659.681-.045.904-.141 1.128-.483l.373-.568c.631-.958 1.718-1.674 2.877-1.894.426-.081 1.514-.049 1.907.057M7.667 18.065a.925.925 0 0 0-.363.229c-.152.152-.223.305-.72 1.547-.603 1.506-.645 1.667-.523 1.986a.994.994 0 0 0 1.836.096c.218-.438 1.078-2.676 1.094-2.848.042-.436-.26-.889-.675-1.012a.94.94 0 0 0-.649.002m4 0a.925.925 0 0 0-.363.229c-.152.152-.223.305-.72 1.547-.603 1.506-.645 1.667-.523 1.986a.994.994 0 0 0 1.836.096c.218-.438 1.078-2.676 1.094-2.848.042-.436-.26-.889-.675-1.012a.94.94 0 0 0-.649.002m4 0a.925.925 0 0 0-.363.229c-.152.152-.223.305-.72 1.547-.603 1.506-.645 1.667-.523 1.986a.994.994 0 0 0 1.836.096c.218-.438 1.078-2.676 1.094-2.848.042-.436-.26-.889-.675-1.012a.94.94 0 0 0-.649.002" fill="#667085" fill-rule="evenodd"/></svg>