<svg width="24" height="24" fill="none" xmlns="http://www.w3.org/2000/svg"><path d="M11.493 1.282c-1.785.146-3.427 1.103-4.594 2.676-.256.346-.272.359-.452.382-.744.096-1.187.207-1.763.445a5.86 5.86 0 0 0-1.986 1.352c-.808.816-1.334 1.797-1.586 2.955-.127.582-.127 1.747-.001 2.318.271 1.226.804 2.216 1.651 3.066.849.851 1.881 1.404 3.119 1.671.32.069.681.073 6.379.073h6.04l.422-.107a5.567 5.567 0 0 0 1.237-.452c1.927-.971 3.118-2.983 3.029-5.121a5.094 5.094 0 0 0-.528-2.12 5.558 5.558 0 0 0-2.186-2.343c-.589-.345-1.452-.64-2.049-.701l-.252-.026-.197-.403c-.781-1.606-2.148-2.821-3.781-3.364a5.902 5.902 0 0 0-1.455-.301c-.476-.045-.5-.045-1.047 0m1.287 2.044c1.571.257 2.932 1.414 3.462 2.944.167.483.305.696.542.834.169.099.245.115.712.144.642.041 1.105.147 1.524.35 1.828.886 2.514 3.116 1.508 4.902-.46.818-1.204 1.38-2.188 1.653-.219.061-.753.067-6.12.067H6.34L6 14.127a4.89 4.89 0 0 1-1.334-.622 4.643 4.643 0 0 1-1.016-1.073c-1.026-1.572-.802-3.696.529-5.015.719-.713 1.604-1.095 2.683-1.158.727-.042.885-.139 1.257-.773A4.46 4.46 0 0 1 12.2 3.268c.187.01.448.036.58.058m-5 13.95c-.493.127-.819.579-.768 1.064.067.649.678 1.042 1.323.851.22-.065.551-.396.616-.616.145-.488-.035-.954-.457-1.183-.211-.116-.523-.166-.714-.116m8 0c-.493.127-.819.579-.768 1.064.067.649.678 1.042 1.323.851.22-.065.551-.396.616-.616.145-.488-.035-.954-.457-1.183-.211-.116-.523-.166-.714-.116m-4.18.567c-.754.342-.804 1.379-.084 1.771a.942.942 0 0 0 .768.092.99.99 0 0 0 .482-1.592 1.022 1.022 0 0 0-1.166-.271m-3.82 2.433c-.493.127-.819.579-.768 1.064.067.649.678 1.042 1.323.851.22-.065.551-.396.616-.616.145-.488-.035-.954-.457-1.183-.211-.116-.523-.166-.714-.116m8 0c-.493.127-.819.579-.768 1.064.067.649.678 1.042 1.323.851.22-.065.551-.396.616-.616.145-.488-.035-.954-.457-1.183-.211-.116-.523-.166-.714-.116m-4.18.567c-.754.342-.804 1.379-.084 1.771a.942.942 0 0 0 .768.092.99.99 0 0 0 .482-1.592 1.022 1.022 0 0 0-1.166-.271" fill="#667085" fill-rule="evenodd"/></svg>