<svg width="24" height="24" fill="none" xmlns="http://www.w3.org/2000/svg"><path d="M11.27 1.046c-.719.082-1.597.38-2.286.776-.743.428-1.567 1.176-2.097 1.906l-.25.343-.268.028C5 4.24 3.75 4.845 2.737 5.857c-.877.877-1.369 1.795-1.642 3.063-.11.509-.101 1.714.018 2.251.28 1.273.844 2.282 1.773 3.169.825.789 1.801 1.299 2.965 1.551l.409.089h5.96c5.621 0 5.979-.004 6.299-.073 1.153-.249 2.066-.737 2.859-1.529.792-.793 1.281-1.708 1.529-2.859.101-.473.102-1.562 0-2.039a5.368 5.368 0 0 0-1.569-2.837c-.821-.79-1.825-1.304-2.878-1.47a15.9 15.9 0 0 1-.445-.075c-.025-.007-.138-.2-.251-.429-.877-1.788-2.47-3.067-4.364-3.506a6.52 6.52 0 0 0-2.13-.117m1.29 1.995a4.616 4.616 0 0 1 2.735 1.403A4.8 4.8 0 0 1 16.3 6.16c.1.311.154.406.326.572.198.193.417.257.974.282.983.045 1.782.398 2.422 1.071.299.314.461.549.639.925.238.503.311.852.311 1.49 0 .45-.017.623-.086.88a3.52 3.52 0 0 1-2.853 2.579c-.213.033-1.855.042-5.993.033l-5.7-.013-.32-.092c-.774-.224-1.312-.535-1.842-1.065a3.863 3.863 0 0 1-1.066-1.891c-.124-.499-.124-1.363 0-1.862a3.863 3.863 0 0 1 1.066-1.891c.741-.741 1.55-1.092 2.706-1.172.716-.05.881-.153 1.235-.766a4.495 4.495 0 0 1 4.441-2.199M7.617 17.577a1.156 1.156 0 0 0-.523.523c-.092.198-.093.217-.094 1.623 0 1.623.01 1.689.299 1.978a.984.984 0 0 0 1.402 0c.289-.289.299-.355.299-1.978-.001-1.406-.002-1.425-.094-1.623a1.146 1.146 0 0 0-.532-.525c-.166-.07-.596-.069-.757.002m8 0a1.156 1.156 0 0 0-.523.523c-.092.198-.093.217-.094 1.623 0 1.623.01 1.689.299 1.978a.984.984 0 0 0 1.402 0c.289-.289.299-.355.299-1.978-.001-1.406-.002-1.425-.094-1.623a1.146 1.146 0 0 0-.532-.525c-.166-.07-.596-.069-.757.002m-4 1a1.156 1.156 0 0 0-.523.523c-.092.198-.093.217-.094 1.623 0 1.623.01 1.689.299 1.978a.984.984 0 0 0 1.402 0c.289-.289.299-.355.299-1.978-.001-1.406-.002-1.425-.094-1.623a1.146 1.146 0 0 0-.532-.525c-.166-.07-.596-.069-.757.002" fill="#667085" fill-rule="evenodd"/></svg>