<svg width="24" height="24" fill="none" xmlns="http://www.w3.org/2000/svg"><path d="M10.154.813c-.32.12-.56.412-.635.772-.029.139-.041.545-.032 1.107.012.836.019.899.107 1.078.2.408.662.645 1.083.557.414-.087.72-.388.804-.792.029-.139.041-.545.032-1.107-.012-.798-.022-.906-.097-1.068a1.158 1.158 0 0 0-.47-.507c-.168-.087-.607-.109-.792-.04M3.92 3.163a.992.992 0 0 0-.54 1.242c.063.192.148.292.795.94.648.647.748.732.94.795.833.272 1.597-.551 1.242-1.34-.116-.26-1.346-1.495-1.617-1.624a1.002 1.002 0 0 0-.82-.013m12.34.012c-.296.14-1.586 1.459-1.652 1.69-.151.52.064 1.023.53 1.24a.99.99 0 0 0 .765.029c.168-.056.303-.172.922-.79.647-.647.732-.747.795-.939.276-.845-.565-1.606-1.36-1.23M9.981 5.283c-1.165.126-2.159.607-3.005 1.453-.566.567-.933 1.138-1.19 1.855-.261.724-.357 1.707-.201 2.049.173.38.507.598.915.598a.923.923 0 0 0 .697-.282c.204-.203.281-.419.324-.906.057-.654.232-1.134.591-1.619.854-1.156 2.588-1.516 3.848-.799.468.267.759.552 1.14 1.121.265.395.515.547.9.546.797-.001 1.24-.812.838-1.531-.321-.573-.992-1.295-1.538-1.654-.993-.655-2.188-.953-3.319-.831M1.78 9.276c-.492.126-.819.579-.768 1.064.038.377.242.66.588.817.166.075.259.081 1.2.081s1.034-.006 1.2-.081c.781-.354.797-1.396.028-1.807-.16-.086-.217-.09-1.148-.097-.539-.005-1.034.006-1.1.023m15.4 0c-.492.126-.819.579-.768 1.064.038.377.242.66.588.817.166.075.259.081 1.2.081s1.034-.006 1.2-.081c.781-.354.797-1.396.028-1.807-.16-.086-.217-.09-1.148-.097-.539-.005-1.034.006-1.1.023m-5.709 1.007a6.472 6.472 0 0 0-1.488.334c-.444.168-1.1.527-1.473.808a7.232 7.232 0 0 0-1.446 1.543l-.277.421-.143-.034a3.096 3.096 0 0 0-1.097-.074 4.931 4.931 0 0 0-2.313.821 4.985 4.985 0 0 0-1.971 5.732A5.036 5.036 0 0 0 4.4 22.976c.832.278.432.264 7.6.264 7.168 0 6.768.014 7.6-.264 1.667-.557 2.92-1.976 3.303-3.742.099-.457.117-1.258.039-1.734-.375-2.283-2.204-4.002-4.489-4.219a3.096 3.096 0 0 0-1.097.074l-.143.034-.277-.421a7.316 7.316 0 0 0-1.447-1.546c-.428-.324-1.338-.783-1.829-.923a6.218 6.218 0 0 0-2.189-.216m1.369 2.064a4.04 4.04 0 0 1 2.28 1.405c.121.154.347.529.502.833.323.634.46.774.84.859.207.046.259.041.671-.062.362-.092.531-.113.887-.11.856.005 1.477.263 2.085.868.321.319.39.414.568.782.744 1.534.141 3.299-1.373 4.019-.673.32-.162.299-7.3.299s-6.627.021-7.3-.299c-.997-.474-1.611-1.392-1.686-2.521-.035-.529.058-.972.313-1.498.178-.368.247-.463.568-.782.608-.605 1.229-.863 2.085-.868.356-.003.525.018.887.11.412.103.464.108.671.062.378-.085.52-.228.823-.831.3-.597.502-.885.876-1.246.948-.915 2.264-1.287 3.603-1.02" fill="#667085" fill-rule="evenodd"/></svg>