<svg width="24" height="24" fill="none" xmlns="http://www.w3.org/2000/svg"><path d="M11.241 4.046C8.625 4.319 6.329 6.2 5.458 8.785l-.15.445-.21.047c-.399.089-1.146.414-1.555.675-1.67 1.07-2.614 2.848-2.532 4.768a5.409 5.409 0 0 0 1.611 3.658c.793.792 1.706 1.28 2.859 1.529.32.069.685.073 6.519.073s6.199-.004 6.519-.073c1.153-.249 2.066-.737 2.859-1.529.792-.793 1.281-1.708 1.529-2.859.102-.476.101-1.563-.002-2.037-.369-1.696-1.397-3.024-2.943-3.801-.316-.159-1.09-.441-1.209-.441-.037 0-.11-.158-.209-.45-1.059-3.142-4.048-5.084-7.303-4.744M12.98 6.1a4.96 4.96 0 0 1 2.449 1.274 5 5 0 0 1 1.428 2.473c.15.606.199.718.39.901.173.166.341.233.732.292.823.124 1.493.467 2.043 1.045.428.45.701.934.864 1.535.124.457.124 1.303 0 1.76a3.445 3.445 0 0 1-.884 1.555 3.526 3.526 0 0 1-1.939 1.023c-.159.028-2.168.042-6.063.042-3.895 0-5.904-.014-6.063-.042a3.526 3.526 0 0 1-1.939-1.023 3.445 3.445 0 0 1-.884-1.555c-.124-.457-.124-1.303 0-1.76.378-1.389 1.476-2.364 2.907-2.58.391-.059.559-.126.732-.292.19-.182.245-.306.374-.846.239-.998.692-1.802 1.4-2.485.362-.35.532-.481.931-.717a5.173 5.173 0 0 1 1.887-.657c.38-.053 1.25-.023 1.635.057" fill="#667085" fill-rule="evenodd"/></svg>