<svg width="24" height="24" fill="none" xmlns="http://www.w3.org/2000/svg"><path d="M8.345 3.582c-3.312.451-6.118 2.893-7.021 6.112a8.387 8.387 0 0 0 0 4.612c.815 2.903 3.188 5.208 6.111 5.934 1.029.257.94.252 5.122.27 3.872.016 4.544-.001 5.189-.131 3.83-.773 6.154-4.731 4.926-8.391a6.5 6.5 0 0 0-3.192-3.723c-.723-.375-1.6-.634-2.322-.686-.496-.035-.488-.031-.685-.328-1.336-2.008-3.583-3.391-5.992-3.689-.461-.057-1.653-.046-2.136.02m2.115 1.999c1.993.3 3.637 1.425 4.684 3.204.374.636.495.698 1.436.738.529.023.766.052 1.068.13a4.517 4.517 0 0 1 3.175 3.101c.285.982.2 2.164-.223 3.106-.301.672-.944 1.442-1.541 1.847a5.005 5.005 0 0 1-1.819.738c-.241.044-1.085.055-4.32.055-3.966 0-4.026-.001-4.502-.088-2.077-.378-3.76-1.615-4.695-3.45a6.515 6.515 0 0 1 .506-6.77C5.258 6.756 6.91 5.779 8.7 5.547c.325-.042 1.394-.021 1.76.034" fill="#667085" fill-rule="evenodd"/></svg>