<svg width="24" height="24" fill="none" xmlns="http://www.w3.org/2000/svg"><path d="M16.32 2.045c-2.093.239-3.956 1.687-4.756 3.694-.169.426-.364 1.11-.364 1.28 0 .081-.035.096-.37.16-1.537.294-2.986 1.231-3.946 2.553l-.247.339-.268.028c-1.369.141-2.619.746-3.632 1.758-.877.877-1.369 1.795-1.642 3.063-.11.509-.101 1.714.018 2.251.28 1.273.844 2.282 1.773 3.169.825.789 1.801 1.299 2.965 1.551l.409.089h5.96c6.613 0 6.125.018 7.002-.263 2.123-.68 3.659-2.703 3.767-4.961.076-1.575-.587-3.122-1.809-4.224l-.275-.249.378-.391c1.215-1.258 1.779-2.636 1.706-4.168-.109-2.298-1.528-4.325-3.675-5.251-.886-.382-2.002-.542-2.994-.428M18 4.134c.736.19 1.304.517 1.841 1.061a3.89 3.89 0 0 1 1.047 1.874c.124.499.124 1.325-.001 1.826a4.051 4.051 0 0 1-1.465 2.204l-.296.228-.334-.084a5.785 5.785 0 0 0-.573-.113l-.239-.03-.183-.365a6.733 6.733 0 0 0-.859-1.335 6.485 6.485 0 0 0-3.354-2.106 7.307 7.307 0 0 1-.413-.111c-.028-.026.17-.629.287-.876.589-1.24 1.666-2.063 2.962-2.265.401-.063 1.15-.019 1.58.092m-5.44 4.907a4.616 4.616 0 0 1 2.735 1.403A4.8 4.8 0 0 1 16.3 12.16c.1.311.154.406.326.572.198.193.417.257.974.282.983.045 1.782.398 2.422 1.071.299.314.461.549.639.925.238.503.311.852.311 1.49 0 .45-.017.623-.086.88a3.52 3.52 0 0 1-2.853 2.579c-.213.033-1.855.042-5.993.033l-5.7-.013-.32-.092c-.774-.224-1.312-.535-1.842-1.065a3.863 3.863 0 0 1-1.066-1.891c-.124-.499-.124-1.363 0-1.862a3.863 3.863 0 0 1 1.066-1.891c.741-.741 1.55-1.092 2.706-1.172.716-.05.881-.153 1.235-.766a4.495 4.495 0 0 1 4.441-2.199" fill="#667085" fill-rule="evenodd"/></svg>