<svg width="24" height="24" fill="none" xmlns="http://www.w3.org/2000/svg"><path d="M11.06 1.563c-.989.133-1.969.514-2.884 1.121-.615.408-1.447 1.244-1.867 1.877a7.933 7.933 0 0 0-.867 1.768l-.128.39-.167.042c-.905.228-1.875.779-2.549 1.448C.924 9.871.53 12.351 1.601 14.48a5.332 5.332 0 0 0 1.096 1.471c.687.66 1.076.86 1.488.768.253-.057.378-.128.542-.31a.942.942 0 0 0 .261-.75c-.034-.335-.159-.516-.596-.867-.65-.522-1.077-1.162-1.277-1.912-.118-.444-.129-1.231-.022-1.677.321-1.339 1.41-2.386 2.729-2.623.934-.168 1.127-.331 1.282-1.08a5 5 0 0 1 4.044-3.92c.439-.077 1.265-.077 1.704 0a4.972 4.972 0 0 1 3.118 1.893c.474.63.78 1.304.929 2.047.08.401.208.641.422.796.167.121.3.162.857.263 1.322.241 2.408 1.285 2.729 2.624.107.446.096 1.233-.022 1.677-.2.75-.627 1.39-1.277 1.912-.437.351-.562.532-.596.867a.942.942 0 0 0 .261.75c.164.182.289.253.542.31.412.092.801-.108 1.488-.768 2.305-2.214 2.247-5.857-.126-7.954a5.884 5.884 0 0 0-2.324-1.236l-.167-.042-.128-.39a7.89 7.89 0 0 0-.867-1.768c-.427-.643-1.249-1.466-1.892-1.892a6.982 6.982 0 0 0-2.432-1.032c-.445-.096-1.82-.14-2.307-.074M7.617 14.577c-.509.221-.751.837-.522 1.323.18.379.504.591.905.592a.98.98 0 0 0 .998-.992c0-.4-.218-.742-.577-.905-.193-.088-.623-.097-.804-.018m8 0c-.509.221-.751.837-.522 1.323.18.379.504.591.905.592a.98.98 0 0 0 .998-.992c0-.572-.415-.979-.998-.978a1.252 1.252 0 0 0-.383.055m-4 2c-.509.221-.751.837-.522 1.323.18.379.504.591.905.592a.98.98 0 0 0 .998-.992c0-.572-.415-.979-.998-.978a1.252 1.252 0 0 0-.383.055m-4 2c-.509.221-.751.837-.522 1.323.18.379.504.591.905.592a.98.98 0 0 0 .998-.992c0-.4-.218-.742-.577-.905-.193-.088-.623-.097-.804-.018m8 0c-.509.221-.751.837-.522 1.323.18.379.504.591.905.592a.98.98 0 0 0 .998-.992c0-.572-.415-.979-.998-.978a1.252 1.252 0 0 0-.383.055m-4 2c-.509.221-.751.837-.522 1.323.18.379.504.591.905.592a.98.98 0 0 0 .998-.992c0-.4-.218-.742-.577-.905-.193-.088-.623-.097-.804-.018" fill="#667085" fill-rule="evenodd"/></svg>