<svg width="24" height="24" fill="none" xmlns="http://www.w3.org/2000/svg"><path d="M11.241 1.046c-2.621.274-4.908 2.148-5.783 4.74l-.15.444-.21.047c-.399.089-1.146.414-1.555.675-2.135 1.367-3.044 3.874-2.265 6.246a5.262 5.262 0 0 0 1.341 2.182c.632.631 1.497 1.163 2.151 1.325.24.059.277.059.495-.004.186-.054.277-.111.437-.276.236-.242.322-.477.286-.783-.05-.422-.274-.674-.802-.902a3.269 3.269 0 0 1-1.054-.676 3.496 3.496 0 0 1-1.018-1.684c-.069-.257-.086-.43-.086-.88s.017-.623.086-.88c.378-1.389 1.476-2.364 2.907-2.58.391-.059.559-.126.732-.292.19-.182.245-.306.374-.846.244-1.019.697-1.814 1.438-2.523.685-.655 1.503-1.08 2.475-1.285.47-.099 1.45-.099 1.92 0a4.98 4.98 0 0 1 2.469 1.28 5 5 0 0 1 1.428 2.473c.15.606.199.718.39.901.173.166.341.233.732.292.823.124 1.493.467 2.043 1.045.428.45.701.934.864 1.535.123.456.124 1.303 0 1.76a3.554 3.554 0 0 1-1.043 1.708c-.314.289-.583.46-1.029.652-.397.172-.598.338-.718.596-.181.387-.109.769.203 1.091.159.163.25.22.436.274.218.063.255.063.495.004.654-.162 1.519-.694 2.151-1.325.786-.783 1.283-1.715 1.526-2.86.102-.478.101-1.566-.002-2.038-.369-1.696-1.397-3.024-2.943-3.801-.316-.159-1.09-.441-1.209-.441-.037 0-.11-.158-.209-.45-1.058-3.139-4.051-5.083-7.303-4.744m1.427 8.015a1.412 1.412 0 0 0-.273.143c-.145.103-4.254 6.246-4.339 6.486a.992.992 0 0 0 .494 1.196l.19.094 2.19.02 2.19.02-1.504 2.255c-.827 1.241-1.529 2.327-1.56 2.415-.267.758.5 1.519 1.262 1.251.092-.033.222-.098.288-.145.144-.103 4.253-6.248 4.338-6.486a.992.992 0 0 0-.494-1.196l-.19-.094-2.19-.02-2.19-.02 1.504-2.255c.827-1.241 1.529-2.327 1.56-2.415.268-.762-.515-1.528-1.276-1.249" fill="#667085" fill-rule="evenodd"/></svg>