<svg width="24" height="24" fill="none" xmlns="http://www.w3.org/2000/svg"><path d="M9.68 1.04c-4.489.468-7.843 4.309-7.666 8.78.029.725.135 1.404.256 1.64.359.698 1.369.716 1.74.03.153-.281.167-.433.086-.898-.087-.495-.1-1.617-.023-2.072.324-1.935 1.406-3.564 3.031-4.563 1.898-1.168 4.316-1.264 6.34-.254.897.448 1.882 1.324 2.448 2.178.492.744.815 1.521.971 2.342.038.196.092.447.121.558.133.506.703.828 1.204.679.454-.135.732-.496.732-.953 0-.547-.304-1.669-.682-2.518-1.146-2.57-3.627-4.449-6.459-4.888-.487-.076-1.636-.109-2.099-.061m1.561 8.006a6.887 6.887 0 0 0-2.792.96c-1.061.649-2.037 1.696-2.571 2.757l-.159.317h-.163c-.233 0-.904.143-1.245.266-1.428.512-2.573 1.675-3.047 3.094a4.958 4.958 0 0 0 .653 4.431A5.19 5.19 0 0 0 4.78 22.85l.48.13h6.46c6.105 0 6.479-.004 6.799-.073 1.153-.249 2.066-.737 2.859-1.529.792-.793 1.281-1.708 1.529-2.859.101-.474.102-1.562 0-2.039-.233-1.094-.684-1.959-1.425-2.733a5.213 5.213 0 0 0-1.542-1.144c-.713-.352-1.5-.563-2.102-.563h-.228l-.28-.35a9.172 9.172 0 0 0-1.378-1.341 6.57 6.57 0 0 0-4.711-1.303m1.36 1.996a5.2 5.2 0 0 1 2.223.839c.433.29 1.029.896 1.335 1.359.461.696.509.723 1.321.765.368.019.697.06.9.113a3.498 3.498 0 0 1 2.281 1.892c.238.503.311.852.311 1.49s-.073.987-.311 1.49a3.511 3.511 0 0 1-2.628 1.969c-.213.033-1.97.042-6.433.032-5.774-.012-6.154-.017-6.38-.085-1.052-.315-1.845-1.116-2.125-2.146-.097-.359-.097-1.161 0-1.52.23-.843.831-1.57 1.604-1.94.415-.198.732-.266 1.381-.297.417-.019.614-.045.703-.092.209-.112.41-.355.519-.629.564-1.42 1.608-2.46 2.99-2.98a7.19 7.19 0 0 1 1.188-.275 5.933 5.933 0 0 1 1.121.015" fill="#667085" fill-rule="evenodd"/></svg>