<svg width="24" height="24" fill="none" xmlns="http://www.w3.org/2000/svg"><path d="M14.94 1.107c-.273.06-.899.289-1.244.454-1.306.626-2.474 1.799-3.069 3.08a6.5 6.5 0 0 0-.613 2.441c-.028.558.014.831.229 1.467.152.448.151.491-.008.491-.228 0-1.094.195-1.513.341-1.695.59-3.037 1.757-3.903 3.392l-.221.417-.309.11a5.08 5.08 0 0 0-2.479 1.953 4.667 4.667 0 0 0-.797 2.907 4.918 4.918 0 0 0 1.006 2.766 5.017 5.017 0 0 0 2.478 1.751c.794.254.549.246 7.474.233l6.289-.012.421-.105c1.082-.269 1.957-.753 2.692-1.488 1.429-1.428 1.958-3.444 1.408-5.365-.138-.484-.521-1.243-.838-1.665-.339-.449-.964-1.038-1.395-1.315-.189-.121-.344-.23-.345-.243-.002-.013.074-.079.167-.146.77-.556 1.532-1.456 1.967-2.325.216-.431.456-1.119.49-1.403a.994.994 0 0 0-.484-.944c-.238-.139-.498-.163-.885-.081-2.321.492-4.629-.886-5.276-3.151a4.652 4.652 0 0 1-.08-2.187c.08-.411.056-.667-.081-.903a1.027 1.027 0 0 0-1.081-.47m-10.27.868a1.054 1.054 0 0 0-.539.456c-.107.182-.111.212-.124.839l-.014.65-.586.002c-.385.001-.639.02-.737.055a.998.998 0 0 0-.372 1.643c.248.249.442.3 1.129.3H4v.573c0 .686.052.881.299 1.128a.984.984 0 0 0 1.402 0C5.948 7.374 6 7.179 6 6.493V5.92h.573c.687 0 .881-.051 1.129-.3a.998.998 0 0 0-.372-1.643c-.098-.035-.353-.054-.74-.055L6 3.92l-.002-.59c-.002-.637-.034-.792-.215-1.029-.237-.311-.751-.462-1.113-.326m9.45 2.131c0 .233.155.927.307 1.374.177.521.449 1.068.776 1.562.339.51 1.165 1.336 1.675 1.675.891.591 1.947.985 2.872 1.071.137.013.25.033.25.045 0 .064-.485.64-.772.914-.715.687-1.525 1.077-2.4 1.156l-.288.026-.35-.422c-.951-1.146-2.118-1.933-3.401-2.294l-.387-.108-.124-.343c-.215-.595-.255-.814-.251-1.402.002-.417.022-.613.088-.86a4.49 4.49 0 0 1 .603-1.273c.314-.452 1.267-1.346 1.37-1.282.017.011.032.083.032.161m-2.14 6.914a5.37 5.37 0 0 1 1.9.81c.456.32 1.028.935 1.376 1.479.346.54.533.706.847.754.191.028.251.022.817-.082a3.429 3.429 0 0 1 2.062.273c.402.192.627.348.952.661.461.447.779.989.952 1.625.124.457.124 1.303 0 1.76-.33 1.215-1.197 2.102-2.434 2.49l-.352.11-6.16.012c-4.364.008-6.235-.002-6.418-.033a3.028 3.028 0 0 1-2.427-2.199c-.097-.357-.098-1.163-.001-1.513a3.02 3.02 0 0 1 2.221-2.165c.417-.101.496-.136.68-.302.111-.1.198-.238.286-.452.542-1.318 1.343-2.221 2.468-2.785a5.256 5.256 0 0 1 1.462-.481c.458-.074 1.318-.056 1.769.038" fill="#667085" fill-rule="evenodd"/></svg>