<svg width="24" height="24" fill="none" xmlns="http://www.w3.org/2000/svg"><path d="M11.571 1.242a2.127 2.127 0 0 0-.358.117c-.104.046-2.26 1.428-4.791 3.072C1.518 7.616 1.447 7.666 1.228 8.12.996 8.602 1 8.535 1 12c0 3.457-.003 3.401.224 3.87.229.473.186.442 5.113 3.645 2.536 1.648 4.685 3.035 4.776 3.081.52.266 1.251.267 1.767.004.087-.044 2.224-1.422 4.749-3.062 4.91-3.188 4.916-3.192 5.145-3.664.23-.474.226-.413.226-3.874 0-3.465.004-3.398-.228-3.88-.219-.453-.296-.508-5.112-3.637-2.486-1.616-4.637-2.997-4.78-3.071a2.03 2.03 0 0 0-1.309-.17M11 6.15v2.31L9.216 9.62c-.981.638-1.797 1.165-1.814 1.171-.038.015-2.968-1.89-3.291-2.138l-.233-.179L7.429 6.16c1.953-1.272 3.556-2.315 3.561-2.317.005-.001.01 1.037.01 2.307m6.411.561 2.711 1.763-.233.179c-.323.248-3.253 2.153-3.291 2.138-.017-.006-.833-.533-1.814-1.171L13 8.46V3.843l.85.553 3.561 2.315m-4.027 4.379c.755.49 1.374.899 1.374.91.002.031-2.708 1.78-2.758 1.78-.05 0-2.76-1.749-2.758-1.78.001-.019 2.721-1.796 2.753-1.799.008 0 .633.4 1.389.889m-9.031.13c.641.418 1.162.772 1.157.787-.01.027-2.461 1.633-2.493 1.633-.009 0-.017-.739-.017-1.641v-1.642l.093.052c.052.028.619.393 1.26.811m16.633 2.408c-.018.018-2.482-1.582-2.496-1.621-.005-.015.553-.393 1.24-.839l1.25-.813.01 1.629c.006.896.004 1.635-.004 1.644m-11.773.752 1.786 1.16v2.309l.001 2.31-.39-.253c-1.019-.66-6.712-4.359-6.724-4.369-.045-.037 3.455-2.353 3.516-2.327.014.005.829.532 1.811 1.17m8.9-.213c1.339.869 2.032 1.344 2.001 1.37-.012.01-5.705 3.709-6.724 4.369l-.39.253.001-2.31V15.54l1.79-1.166c.984-.642 1.813-1.16 1.842-1.15.029.009.695.433 1.48.943" fill="#667085" fill-rule="evenodd"/></svg>