<svg width="24" height="24" fill="none" xmlns="http://www.w3.org/2000/svg"><path d="M5.9 2.025c-.991.083-1.531.257-2.2.708-.578.389-1.181 1.16-1.417 1.811-.279.77-.263.33-.263 7.456 0 6.02.004 6.442.072 6.773.223 1.094.826 1.987 1.746 2.582.418.269.858.445 1.389.553.331.068.753.072 6.773.072s6.442-.004 6.773-.072c1.094-.223 1.987-.826 2.582-1.746.269-.418.445-.858.553-1.389.068-.331.072-.753.072-6.773s-.004-6.442-.072-6.773c-.289-1.42-1.291-2.57-2.618-3.005-.611-.2-.432-.195-7.05-.203a802.572 802.572 0 0 0-6.34.006M17.801 4.04c.341.022.723.066.85.099.553.144 1.065.656 1.209 1.209.118.452.14 1.48.14 6.652 0 5.167-.022 6.2-.139 6.651-.142.544-.638 1.05-1.181 1.206-.442.126-1.17.142-6.68.142s-6.238-.016-6.68-.142c-.543-.156-1.039-.662-1.181-1.206C4.022 18.2 4 17.167 4 12c0-5.172.022-6.2.14-6.652.103-.397.416-.8.811-1.044.239-.148.575-.225 1.142-.261.734-.047 10.98-.05 11.708-.003M9.24 8.035c-.244.08-.429.249-1.985 1.812-1.76 1.768-1.749 1.754-1.749 2.153s-.011.385 1.749 2.154c1.78 1.79 1.847 1.845 2.245 1.845.388 0 .823-.306.942-.664.029-.085.052-.236.052-.335 0-.391-.019-.415-1.348-1.75L7.902 12l1.244-1.25c1.329-1.335 1.348-1.359 1.348-1.75 0-.371-.213-.716-.548-.887-.175-.089-.547-.13-.706-.078m5 0a1.074 1.074 0 0 0-.488.317.923.923 0 0 0-.246.648c0 .391.019.415 1.348 1.75L16.098 12l-1.244 1.25c-1.329 1.335-1.348 1.359-1.348 1.75 0 .099.023.25.052.335.119.358.554.664.942.664.398 0 .465-.055 2.245-1.845 1.76-1.769 1.749-1.755 1.749-2.154s.011-.385-1.749-2.153c-.957-.961-1.711-1.687-1.802-1.734-.171-.089-.544-.13-.703-.078" fill="#667085" fill-rule="evenodd"/></svg>