<svg width="24" height="24" fill="none" xmlns="http://www.w3.org/2000/svg"><path d="M5.9 2.025c-.991.083-1.531.257-2.2.708-.578.389-1.181 1.16-1.417 1.811-.279.77-.263.33-.263 7.456 0 6.02.004 6.442.072 6.773.223 1.094.826 1.987 1.746 2.582.418.269.858.445 1.389.553.331.068.753.072 6.773.072s6.442-.004 6.773-.072c1.094-.223 1.987-.826 2.582-1.746.269-.418.445-.858.553-1.389.068-.331.072-.753.072-6.773s-.004-6.442-.072-6.773c-.289-1.42-1.291-2.57-2.618-3.005-.611-.2-.432-.195-7.05-.203a802.572 802.572 0 0 0-6.34.006M17.801 4.04c.341.022.723.066.85.099.553.144 1.065.656 1.209 1.209.118.452.14 1.48.14 6.652 0 5.167-.022 6.2-.139 6.651-.142.544-.638 1.05-1.181 1.206-.442.126-1.17.142-6.68.142s-6.238-.016-6.68-.142c-.543-.156-1.039-.662-1.181-1.206C4.022 18.2 4 17.167 4 12c0-5.172.022-6.2.14-6.652.103-.397.416-.8.811-1.044.239-.148.575-.225 1.142-.261.734-.047 10.98-.05 11.708-.003M9.64 6.068c-.152.053-.431.312-1.811 1.687-1.145 1.14-1.657 1.677-1.717 1.801-.118.245-.136.51-.052.77.065.199.181.326 1.695 1.845 1.14 1.145 1.677 1.657 1.801 1.717a.99.99 0 0 0 1.144-.186c.28-.279.364-.656.234-1.045-.057-.174-.21-.342-1.288-1.427L8.423 10l1.223-1.23c1.078-1.085 1.231-1.253 1.288-1.427.13-.389.045-.766-.233-1.044a1.005 1.005 0 0 0-1.061-.231m4.003 4.001c-.352.124-.643.545-.643.931 0 .08.03.234.066.343.057.174.21.342 1.288 1.427L15.577 14l-1.223 1.23c-1.078 1.085-1.231 1.253-1.288 1.427-.13.389-.046.766.234 1.045a.99.99 0 0 0 1.144.186c.124-.06.661-.572 1.801-1.717 1.514-1.519 1.63-1.646 1.695-1.845.084-.26.066-.525-.052-.77-.06-.124-.572-.66-1.717-1.801-1.459-1.453-1.652-1.631-1.828-1.69a1.032 1.032 0 0 0-.7.004" fill="#667085" fill-rule="evenodd"/></svg>