<svg width="24" height="24" fill="none" xmlns="http://www.w3.org/2000/svg"><path d="M4.9 2.025c-.989.083-1.531.257-2.2.708-.578.389-1.181 1.16-1.417 1.811-.279.77-.263.33-.263 7.456 0 6.02.004 6.442.072 6.773.223 1.094.826 1.987 1.746 2.582.418.269.858.445 1.389.553.332.068.791.072 7.773.072 6.982 0 7.441-.004 7.773-.072 1.094-.223 1.987-.826 2.582-1.746.269-.418.445-.858.553-1.389.068-.331.072-.753.072-6.773s-.004-6.442-.072-6.773c-.289-1.42-1.291-2.57-2.618-3.005-.618-.202-.343-.195-8.05-.203a1071.16 1071.16 0 0 0-7.34.006M18.801 4.04c.341.022.724.067.851.1.553.144 1.065.656 1.209 1.209.072.279.139 1.261.139 2.061V8H3v-.59c0-.802.067-1.782.14-2.062.103-.397.416-.8.811-1.044.239-.148.575-.225 1.142-.261.736-.047 12.976-.05 13.708-.003M21 13.59c0 3.606-.029 4.636-.139 5.061-.142.544-.638 1.05-1.181 1.206-.45.128-1.166.142-7.68.142-6.514 0-7.23-.014-7.68-.142-.543-.156-1.039-.662-1.181-1.206C3.029 18.226 3 17.196 3 13.59V10h18v3.59M9.6 11.583c-.086.037-.682.6-1.534 1.449C6.553 14.537 6.507 14.596 6.507 15c0 .405.045.461 1.579 1.985 1.511 1.502 1.52 1.509 1.914 1.509.701 0 1.199-.746.917-1.374-.058-.13-.35-.45-1.048-1.15L8.901 15l.968-.97c1.042-1.044 1.129-1.162 1.13-1.53.001-.372-.274-.778-.625-.925-.173-.072-.598-.068-.774.008m4.017-.006c-.346.15-.617.556-.616.923.001.368.088.486 1.13 1.53l.968.97-.968.97c-1.042 1.044-1.129 1.162-1.13 1.53-.001.387.306.823.664.942.198.066.471.067.675 0 .223-.072 2.947-2.77 3.071-3.042a1.028 1.028 0 0 0 0-.8c-.109-.239-2.797-2.925-3.02-3.018-.181-.076-.606-.078-.774-.005" fill="#667085" fill-rule="evenodd"/></svg>