<svg width="24" height="24" fill="none" xmlns="http://www.w3.org/2000/svg"><path d="M13.67 2.057a1.02 1.02 0 0 0-.526.434c-.075.131-.548 2.198-2.121 9.279C9.911 16.78 9 20.941 9 21.015c0 .324.208.676.499.847.462.27 1.091.107 1.357-.353.075-.131.549-2.202 2.124-9.289 2.214-9.963 2.096-9.354 1.882-9.721a1.014 1.014 0 0 0-1.192-.442M6.64 6.068c-.155.053-.545.426-2.811 2.687-1.887 1.882-2.655 2.675-2.716 2.801a1.013 1.013 0 0 0-.053.77c.066.202.214.359 2.695 2.845 1.882 1.887 2.675 2.655 2.801 2.716a.986.986 0 0 0 1.144-.185c.279-.279.364-.655.235-1.045-.059-.178-.278-.41-2.289-2.427L3.422 12l2.224-2.23c2.011-2.017 2.23-2.249 2.289-2.427A1.004 1.004 0 0 0 6.64 6.068m10.003.001C16.291 6.193 16 6.614 16 7c0 .08.029.234.065.343.059.178.278.41 2.289 2.427L20.578 12l-2.224 2.23c-2.011 2.017-2.23 2.249-2.289 2.427-.129.39-.044.766.235 1.045a.986.986 0 0 0 1.144.185c.126-.061.919-.829 2.801-2.716 2.481-2.486 2.629-2.643 2.695-2.845a1.013 1.013 0 0 0-.053-.77c-.061-.126-.829-.919-2.716-2.801-2.39-2.384-2.649-2.631-2.828-2.69a1.032 1.032 0 0 0-.7.004" fill="#667085" fill-rule="evenodd"/></svg>