<svg width="24" height="24" fill="none" xmlns="http://www.w3.org/2000/svg"><path d="M11.041 1.045c-1.47.13-2.98.585-4.26 1.283-.985.538-1.77 1.13-2.583 1.947-1.682 1.693-2.712 3.742-3.086 6.145-.073.467-.087.73-.087 1.58 0 .85.014 1.113.087 1.58.378 2.425 1.41 4.467 3.125 6.183 1.716 1.715 3.758 2.747 6.183 3.125.809.126 2.351.126 3.16 0 2.413-.376 4.471-1.417 6.181-3.127.923-.923 1.563-1.811 2.116-2.941a10.92 10.92 0 0 0 0-9.64 11.163 11.163 0 0 0-3.826-4.353 11.032 11.032 0 0 0-7.01-1.782m2.279 2.057a9.023 9.023 0 0 1 5.664 3.218c.816 1.005 1.483 2.358 1.771 3.6.167.718.222 1.229.222 2.08 0 1.511-.264 2.654-.917 3.98-.896 1.818-2.252 3.179-4.067 4.079a8.986 8.986 0 0 1-6.453.597C7.08 19.955 5.103 18.309 3.946 16c-.642-1.283-.923-2.498-.923-4 0-1.502.281-2.717.923-4 .91-1.819 2.235-3.143 4.056-4.055 1.025-.514 2.001-.783 3.338-.921.324-.033 1.573.016 1.98.078m-.661 2.962a.986.986 0 0 0-.536.47C12.036 6.713 10 16.774 10 17.022c0 .505.484.978 1 .978.354 0 .729-.228.877-.534C11.964 17.287 14 7.226 14 6.978a1.06 1.06 0 0 0-.299-.679.998.998 0 0 0-1.042-.235M8.24 8.035c-.244.08-.429.249-1.985 1.812-1.76 1.768-1.749 1.754-1.749 2.153s-.011.385 1.749 2.154c1.78 1.79 1.847 1.845 2.245 1.845.388 0 .823-.306.942-.664.029-.085.052-.236.052-.335 0-.391-.019-.415-1.348-1.75L6.902 12l1.244-1.25C9.475 9.415 9.494 9.391 9.494 9c0-.371-.213-.716-.548-.887-.175-.089-.547-.13-.706-.078m7 0a1.074 1.074 0 0 0-.488.317.923.923 0 0 0-.246.648c0 .391.019.415 1.348 1.75L17.098 12l-1.244 1.25c-1.329 1.335-1.348 1.359-1.348 1.75 0 .099.023.25.052.335.119.358.554.664.942.664.398 0 .465-.055 2.245-1.845 1.76-1.769 1.749-1.755 1.749-2.154s.011-.385-1.749-2.153c-.957-.961-1.711-1.687-1.802-1.734-.171-.089-.544-.13-.703-.078" fill="#667085" fill-rule="evenodd"/></svg>