<svg width="24" height="24" fill="none" xmlns="http://www.w3.org/2000/svg"><path d="M14.2 1.042a7.769 7.769 0 0 0-4.654 2.195c-1.074 1.045-1.742 2.167-2.16 3.624-.117.409-.151.483-.232.508-1.267.396-1.877.668-2.657 1.186C.7 11.078-.135 16.17 2.645 19.849c.321.425 1.081 1.185 1.506 1.506A8.034 8.034 0 0 0 9 22.999c2.58 0 4.972-1.297 6.447-3.496.507-.755.787-1.384 1.184-2.657.025-.081.099-.115.508-.232a8.031 8.031 0 0 0 2.697-1.325c.407-.304 1.155-1.034 1.464-1.429 1.654-2.116 2.13-4.808 1.299-7.346a8.05 8.05 0 0 0-6.379-5.415c-.495-.076-1.565-.107-2.02-.057m1.964 2.075c2.422.483 4.275 2.362 4.738 4.803.099.52.101 1.593.004 2.12a6.077 6.077 0 0 1-1.043 2.4c-.337.45-.994 1.081-1.454 1.393-.358.244-1.157.655-1.375.708-.104.025-.106.021-.133-.228-.152-1.421-.575-2.605-1.336-3.738a7.909 7.909 0 0 0-5.737-3.45c-.193-.02-.363-.046-.376-.059-.065-.065.356-.933.701-1.448.95-1.412 2.385-2.32 4.047-2.561.499-.072 1.45-.043 1.964.06m-6 6c2.422.483 4.273 2.36 4.738 4.803.101.528.101 1.632 0 2.16-.423 2.224-2.017 4.014-4.143 4.654-.691.208-.967.246-1.779.243-.836-.002-1.192-.058-1.904-.296a5.966 5.966 0 0 1-3.77-3.803c-.221-.681-.282-1.083-.282-1.878 0-1.01.173-1.791.582-2.627.921-1.886 2.658-3.089 4.834-3.349.313-.038 1.353.018 1.724.093" fill="#667085" fill-rule="evenodd"/></svg>