<svg width="24" height="24" fill="none" xmlns="http://www.w3.org/2000/svg"><path d="M6.34 2.045c-1.729.121-3.346.575-4.263 1.197-.309.21-.449.383-.573.709-.059.154-.145.313-.19.354-.045.041-.13.156-.188.255l-.106.18-.01 6.238c-.01 5.621-.005 6.26.053 6.46.196.679.749 1.253 1.598 1.66 1.119.536 2.998.903 4.615.902.36-.001.454-.015.624-.094.62-.29.793-1.061.348-1.554-.258-.286-.377-.322-1.176-.357-1.762-.077-3.22-.419-3.906-.915L3 16.959v-1.756l.13.075c.307.177 1.41.461 2.25.579.596.084 1.382.143 1.896.143.36-.001.454-.015.624-.094.62-.29.793-1.061.348-1.554-.258-.286-.377-.322-1.176-.357-1.762-.077-3.22-.419-3.906-.915L3 12.959V11.248l.21.081c.949.366 2.311.608 3.718.658.626.023.73.017.898-.047.669-.256.887-1.074.422-1.588-.258-.286-.377-.322-1.178-.357-1.794-.078-3.244-.425-3.94-.942L3 8.956V7.203l.13.075c.463.267 1.948.583 3.206.682 2.055.161 4.624-.177 5.648-.742l.244-.135.113.119c.471.491 1.26.339 1.564-.302.091-.192.094-.236.095-1.123 0-1.052-.027-1.194-.28-1.457a1.404 1.404 0 0 1-.257-.432c-.149-.39-.409-.62-1.086-.96-1.394-.7-3.743-1.043-6.037-.883M8.464 4.04c.957.075 1.721.211 2.376.424.425.138 1.041.439 1.069.522.019.058-.372.294-.709.426-1.574.62-4.204.765-6.22.344-.737-.154-1.534-.451-1.82-.678-.099-.078-.099-.08-.02-.142.044-.034.215-.131.38-.214 1.065-.539 3.128-.824 4.944-.682M15.1 8.565c-1.733.162-3.232.608-4.082 1.215-.296.211-.367.305-.514.676-.06.154-.154.312-.211.357a.925.925 0 0 0-.198.284l-.094.203L10 15.263c0 4.365-.013 4.132.25 4.628.149.281.537.681.878.906 2.012 1.326 6.579 1.606 9.511.582 1.305-.456 2.046-1.08 2.297-1.936.057-.193.064-.668.063-4.18-.001-3.879-.002-3.967-.081-4.14a1.633 1.633 0 0 0-.239-.349c-.087-.095-.159-.195-.159-.223 0-.028-.052-.16-.115-.294-.145-.306-.441-.54-1.065-.842-.932-.45-2.049-.721-3.52-.855-.516-.047-2.201-.044-2.72.005m2.811 2.016c1.271.133 2.354.442 2.901.828.105.075.108.084.047.152-.036.04-.195.136-.352.214-.939.462-2.356.714-4.007.714-1.651 0-3.068-.252-4.007-.714-.157-.078-.316-.174-.352-.214-.061-.068-.058-.078.056-.159.518-.368 1.618-.685 2.843-.819.7-.076 2.149-.077 2.871-.002m-5.743 3.217c.159.094.941.323 1.492.436 1.685.347 3.995.347 5.68 0 .551-.113 1.333-.342 1.492-.436a.98.98 0 0 1 .15-.078c.01 0 .018.331.018.736v.737l-.126.106c-.406.341-1.421.666-2.654.848-.689.102-2.751.102-3.44 0-1.233-.182-2.248-.507-2.654-.848L12 15.193v-.737c0-.405.008-.736.018-.736a.98.98 0 0 1 .15.078m-.027 3.736c.206.142 1.229.411 2.059.544 1.462.232 3.418.217 4.84-.039.763-.138 1.637-.38 1.819-.505a.305.305 0 0 1 .111-.054c.017 0 .027.337.021.75l-.011.75-.22.148c-1.22.819-4.439 1.117-6.78.628-.759-.158-1.46-.42-1.814-.676L12 18.959v-.739c0-.407.014-.74.031-.74a.31.31 0 0 1 .11.054" fill="#667085" fill-rule="evenodd"/></svg>