<svg width="24" height="24" fill="none" xmlns="http://www.w3.org/2000/svg"><path d="M10.96 1.023c-1.709.114-2.811.28-3.964.598-2.228.613-3.62 1.631-3.936 2.877C3.008 4.707 3 5.657 3 12c0 8.057-.02 7.459.27 8.038.286.572 1.025 1.228 1.848 1.641 1.231.617 2.895 1.036 4.962 1.249.667.068 3.173.068 3.84 0 2.068-.213 3.749-.638 4.982-1.259.806-.406 1.545-1.065 1.828-1.631.29-.579.27.013.27-7.976V4.86l-.139-.413c-.192-.57-.355-.858-.679-1.2-1.023-1.079-3.257-1.864-6.112-2.148-.577-.057-2.636-.107-3.11-.076m2.221 2.018c1.973.128 3.575.48 4.719 1.039.473.231.919.561 1.036.768l.084.148-.079.148c-.322.598-1.924 1.273-3.786 1.594-1.152.199-1.676.239-3.155.239-1.479 0-2.003-.04-3.155-.239-1.86-.321-3.463-.996-3.785-1.592-.078-.145-.078-.147 0-.292.186-.345 1.054-.854 1.96-1.149 1.692-.551 4.021-.802 6.161-.664m-7.734 4.73c.821.498 2.481.923 4.433 1.136.938.102 3.302.102 4.24 0 1.952-.213 3.612-.638 4.433-1.136.228-.138.422-.251.431-.251.009 0 .016.508.016 1.129v1.13l-.275.265c-1.304 1.253-5.518 1.937-9.101 1.477-2.054-.264-3.65-.806-4.349-1.477L5 9.779v-1.13c0-.621.007-1.129.016-1.129.009 0 .203.113.431.251m.253 4.814c.132.07.438.194.68.274 3.261 1.079 7.979 1.079 11.24 0 .453-.15.751-.293 1.15-.552l.23-.149v1.103c0 1.243.004 1.223-.303 1.493-.71.625-2.238 1.146-4.117 1.403-.899.123-1.531.163-2.58.163-1.049 0-1.681-.04-2.58-.163-1.879-.257-3.407-.778-4.117-1.403-.307-.27-.303-.25-.303-1.493v-1.103l.23.149c.126.082.338.207.47.278m-.1 4.603c.718.416 2.431.84 4.2 1.04.888.101 3.512.101 4.4 0 1.308-.148 2.356-.363 3.36-.69.48-.157.737-.279 1.29-.615l.15-.091v2.229l-.098.145c-.401.589-1.946 1.221-3.747 1.532-1.152.199-1.676.239-3.155.239-1.479 0-2.003-.04-3.155-.239-1.801-.311-3.346-.943-3.747-1.532L5 19.061v-2.229l.15.091c.082.05.285.169.45.265" fill="#667085" fill-rule="evenodd"/></svg>