<svg width="24" height="24" fill="none" xmlns="http://www.w3.org/2000/svg"><path d="M6.1 1.565c-1.733.162-3.232.608-4.082 1.215-.297.212-.368.305-.515.68-.06.154-.161.334-.224.4a1.297 1.297 0 0 0-.196.3c-.081.179-.081.227-.082 7.123-.001 7.663-.019 7.101.249 7.608.149.281.537.681.878.906 1.127.743 3.184 1.204 5.368 1.203 1.73-.002 3.216-.289 4.456-.862l.308-.142.118.152c.242.31.892.947 1.214 1.19 2.029 1.528 4.778 1.541 6.902.032.382-.271 1.051-.927 1.306-1.28.852-1.182 1.25-2.471 1.189-3.85-.097-2.152-1.297-4.027-3.241-5.061-.78-.415-1.543-.614-2.492-.647-1.039-.037-1.706.112-2.696.601-.275.136-.513.253-.53.26-.017.008-.03-1.569-.03-3.503 0-3.95.017-3.714-.302-4.088-.098-.115-.178-.23-.178-.255 0-.026-.052-.156-.115-.29-.145-.306-.441-.54-1.065-.842-.932-.45-2.049-.721-3.52-.855-.516-.047-2.201-.044-2.72.005m2.811 2.016c1.271.133 2.354.442 2.901.828.105.075.108.084.047.152-.036.04-.195.136-.352.214-.939.462-2.356.714-4.007.714-1.651 0-3.068-.252-4.007-.714-.157-.078-.316-.174-.352-.214-.061-.068-.058-.078.056-.159.518-.368 1.618-.685 2.843-.819.7-.076 2.149-.077 2.871-.002M3.168 6.798c.159.094.941.323 1.492.436 1.685.347 3.995.347 5.68 0 .551-.113 1.333-.342 1.492-.436a.98.98 0 0 1 .15-.078c.01 0 .018.504.018 1.12v1.119l-.166.121c-.5.362-1.438.648-2.714.827-.709.1-2.528.099-3.26-.001-1.212-.166-2.201-.469-2.694-.826L3 8.959V7.84c0-.616.008-1.12.018-1.12a.98.98 0 0 1 .15.078m.472 4.675c1.939.611 4.704.7 6.88.221.55-.121 1.17-.313 1.35-.416l.13-.075v1.043c0 .993-.004 1.05-.086 1.196-.253.451-1.976.926-3.767 1.039-1.959.123-4.308-.321-5.057-.957-.089-.076-.09-.085-.09-1.199v-1.122l.13.075a3.7 3.7 0 0 0 .51.195m14.446 1.18a3.75 3.75 0 0 1 1.138.528c2.487 1.655 2.314 5.393-.315 6.839-.577.316-1.204.469-1.929.467-.425-.001-.593-.02-.92-.104-1.167-.3-2.061-1.028-2.614-2.127-.45-.895-.555-1.815-.306-2.676.327-1.127 1.12-2.118 2.11-2.638.642-.337 1.047-.425 1.87-.406.526.011.672.029.966.117M3.168 15.798c.159.094.941.323 1.492.436 1.821.375 4.118.344 5.872-.079.282-.068.518-.117.525-.109.007.008-.007.127-.03.266-.057.333.009.848.187 1.466l.135.471-.217.096c-.5.221-1.456.463-2.312.583-.562.08-2.279.067-2.94-.021-1.218-.162-2.216-.467-2.714-.827L3 17.959V16.84c0-.616.008-1.12.018-1.12a.98.98 0 0 1 .15.078" fill="#667085" fill-rule="evenodd"/></svg>