<svg width="24" height="24" fill="none" xmlns="http://www.w3.org/2000/svg"><path d="M6.34 2.045c-1.729.121-3.346.575-4.263 1.197-.309.21-.449.383-.573.709-.059.154-.145.313-.19.354-.045.041-.13.156-.188.255l-.106.18-.01 6.238c-.012 6.89-.029 6.407.24 6.913.149.281.537.681.878.906 1.181.778 3.453 1.26 5.612 1.19.747-.024 1.16-.075 2.035-.25.283-.057.529-.089.546-.07.018.018.089.181.158.361.104.271.162.361.338.522 1.461 1.335 5.78 1.863 8.928 1.092 1.85-.454 2.889-1.17 3.191-2.199.057-.193.064-.689.063-4.42-.001-4.113-.002-4.207-.081-4.379a1.445 1.445 0 0 0-.213-.323 1.699 1.699 0 0 1-.24-.427c-.151-.396-.408-.624-1.088-.966-.972-.488-2.377-.8-4.027-.896-1.021-.059-1.568-.017-2.62.202l-.73.153V6.618c0-1.976 0-1.979-.274-2.276a1.575 1.575 0 0 1-.26-.446c-.152-.399-.408-.626-1.089-.968-1.394-.7-3.743-1.043-6.037-.883M8.464 4.04c.957.075 1.721.211 2.376.424.425.138 1.041.439 1.069.522.019.058-.372.294-.709.426-1.574.62-4.204.765-6.22.344-.737-.154-1.534-.451-1.82-.678-.099-.078-.099-.08-.02-.142.044-.034.215-.131.38-.214 1.065-.539 3.128-.824 4.944-.682M3.64 7.473c1.939.611 4.704.7 6.88.221.551-.122 1.17-.313 1.351-.417l.131-.075-.011.807-.011.807-.54.27c-.322.162-.581.32-.642.391-.085.101-.169.137-.52.222-.879.213-1.516.277-2.758.278-.878.001-1.26-.016-1.66-.071-1.215-.167-2.201-.469-2.694-.826L3 8.959V7.203l.13.075a3.7 3.7 0 0 0 .51.195m13.824 2.567c.957.075 1.721.211 2.376.424.425.138 1.041.439 1.069.522.019.058-.372.294-.709.426-1.043.411-2.531.621-4.076.575-1.406-.041-2.533-.243-3.415-.612-.256-.107-.629-.326-.629-.37 0-.057.833-.44 1.22-.561.641-.2 1.452-.339 2.44-.418a14.95 14.95 0 0 1 1.724.014M3.64 11.473c1.046.329 2.45.527 3.747.527.649 0 1.113-.049 1.94-.203.345-.064.638-.117.65-.117.013 0 .023.449.023.997 0 .915-.006.999-.07 1.019-.193.059-1.22.227-1.637.268-.569.056-1.793.025-2.453-.063-1.182-.157-2.181-.464-2.674-.821L3 12.959v-1.756l.13.075a3.7 3.7 0 0 0 .51.195m9 2c1.939.611 4.704.7 6.88.221.55-.121 1.17-.313 1.35-.416l.13-.075v1.756l-.166.121c-.5.362-1.438.648-2.714.827-.709.1-2.528.099-3.26-.001-1.212-.166-2.201-.469-2.694-.826L12 14.959v-1.756l.13.075c.072.041.301.129.51.195m-9 2c1.046.329 2.45.527 3.747.527.649 0 1.113-.049 1.94-.203.345-.064.638-.117.65-.117.013 0 .023.449.023.997 0 .915-.006.999-.07 1.019-.193.059-1.22.227-1.637.268-.569.056-1.793.025-2.453-.063-1.182-.157-2.181-.464-2.674-.821L3 16.959v-1.756l.13.075a3.7 3.7 0 0 0 .51.195m9 2c1.939.611 4.704.7 6.88.221.55-.121 1.17-.313 1.35-.416l.13-.075v1.756l-.166.121c-.5.362-1.438.648-2.714.827-.709.1-2.528.099-3.26-.001-1.212-.166-2.201-.469-2.694-.826L12 18.959v-1.756l.13.075c.072.041.301.129.51.195" fill="#667085" fill-rule="evenodd"/></svg>