<svg width="24" height="24" fill="none" xmlns="http://www.w3.org/2000/svg"><path d="M5.643 1.069a1.066 1.066 0 0 0-.577.591c-.143.421-.052.746.319 1.139l.253.269-.34.048a4.83 4.83 0 0 0-1.518.483c-1.474.725-2.46 2.045-2.718 3.641-.125.768-.06 1.164.237 1.461A.984.984 0 0 0 2.702 8.7c.2-.2.281-.429.315-.884.074-.996.651-1.799 1.637-2.275.201-.097.416-.189.476-.203l.111-.027-.107.205c-.454.876.428 1.799 1.311 1.371.121-.058.53-.441 1.3-1.216 1.029-1.035 1.13-1.149 1.194-1.345.085-.26.067-.525-.052-.771-.058-.121-.441-.529-1.216-1.3-.992-.986-1.155-1.132-1.328-1.189a1.026 1.026 0 0 0-.7.003m9.617-.028a7.044 7.044 0 0 0-4.201 2.018C9.943 4.174 9.268 5.549 9.056 7.14c-.087.649-.058 1.119.1 1.657.067.23.114.427.102.438-.011.011-.211-.03-.445-.09-.552-.143-.847-.166-1.434-.108-1.681.164-3.146.85-4.32 2.022-3.591 3.587-2.288 9.649 2.469 11.486 4.175 1.612 8.817-1.178 9.414-5.659.09-.679.076-1.03-.066-1.617-.069-.283-.117-.521-.108-.531.01-.009.205.039.435.106.717.211 1.535.19 2.529-.064a7.057 7.057 0 0 0 5.051-5.062c1.001-3.963-1.587-7.915-5.643-8.619-.44-.076-1.446-.107-1.88-.058M16.98 3.1c1.017.21 1.807.637 2.545 1.375.989.989 1.453 2.114 1.453 3.525s-.464 2.536-1.453 3.525c-.626.626-1.264 1.015-2.053 1.25-.605.181-.783.205-1.492.201-.602-.003-.726-.016-1.079-.11a8.166 8.166 0 0 1-.667-.208c-.263-.101-.273-.11-.529-.49a7.09 7.09 0 0 0-1.912-1.898l-.344-.227-.123-.338c-.406-1.123-.426-2.204-.06-3.305a5.057 5.057 0 0 1 2.229-2.729 5.32 5.32 0 0 1 1.85-.628c.38-.053 1.25-.023 1.635.057m-8 8c1.017.21 1.807.637 2.545 1.375.989.989 1.453 2.114 1.453 3.525s-.464 2.536-1.453 3.525c-.626.626-1.264 1.015-2.053 1.25-.59.176-.788.204-1.472.204-.684 0-.882-.028-1.472-.204-.789-.235-1.427-.624-2.053-1.25-.991-.991-1.453-2.112-1.453-3.525 0-.666.057-1.039.243-1.6a5.06 5.06 0 0 1 2.23-2.729 5.32 5.32 0 0 1 1.85-.628c.38-.053 1.25-.023 1.635.057m12.663 3.969c-.242.085-.497.35-.574.595a2.862 2.862 0 0 0-.086.52c-.056.761-.403 1.401-1.038 1.912-.234.189-.842.508-1.075.566l-.111.027.107-.205c.454-.876-.428-1.799-1.311-1.371-.121.058-.529.441-1.3 1.216-.986.992-1.132 1.155-1.189 1.328a.976.976 0 0 0 0 .686c.057.173.203.336 1.189 1.328 1.181 1.188 1.303 1.285 1.667 1.32.425.041.875-.248 1.012-.651.143-.421.052-.746-.319-1.14l-.255-.27.245-.027a5.486 5.486 0 0 0 1.895-.631c1.32-.774 2.2-2.042 2.438-3.512.125-.768.06-1.164-.237-1.461a.998.998 0 0 0-1.058-.23" fill="#667085" fill-rule="evenodd"/></svg>