<svg width="24" height="24" fill="none" xmlns="http://www.w3.org/2000/svg"><path d="M5.643 1.069a1.066 1.066 0 0 0-.577.591c-.143.421-.052.746.319 1.139l.253.269-.34.048a4.83 4.83 0 0 0-1.518.483c-1.474.725-2.46 2.045-2.718 3.641-.125.768-.06 1.164.237 1.461A.984.984 0 0 0 2.702 8.7c.2-.2.281-.429.315-.884.074-.996.651-1.799 1.637-2.275.201-.097.416-.189.476-.203l.111-.027-.107.205c-.454.876.428 1.799 1.311 1.371.121-.058.53-.441 1.3-1.216 1.029-1.035 1.13-1.149 1.194-1.345.085-.26.067-.525-.052-.771-.058-.121-.441-.529-1.216-1.3-.992-.986-1.155-1.132-1.328-1.189a1.026 1.026 0 0 0-.7.003m9.797-.045c-1.129.133-1.848.343-2.675.778a7.013 7.013 0 0 0-3.424 4.05c-.155.475-.18.778-.083 1.009.223.535.852.786 1.355.542.292-.141.45-.358.59-.812a5.051 5.051 0 0 1 3.837-3.497c.47-.099 1.45-.099 1.92 0a5.126 5.126 0 0 1 1.812.743c.34.222.932.771 1.183 1.097a5.056 5.056 0 0 1 1.014 3.536 4.744 4.744 0 0 1-.488 1.715c-.622 1.272-1.65 2.154-3.026 2.595-.319.103-.49.182-.606.282-.564.482-.408 1.389.29 1.68.231.097.534.072 1.009-.083 3.517-1.151 5.538-4.803 4.635-8.377-.677-2.674-2.887-4.705-5.643-5.183-.352-.061-1.422-.108-1.7-.075M7.26 9.041c-2.151.244-4.104 1.476-5.214 3.289-2.3 3.758-.642 8.623 3.482 10.215 4.175 1.612 8.817-1.178 9.414-5.659.491-3.692-2.078-7.141-5.802-7.787-.44-.076-1.446-.107-1.88-.058M8.98 11.1c1.017.21 1.807.637 2.545 1.375.989.989 1.453 2.114 1.453 3.525s-.464 2.536-1.453 3.525c-.626.626-1.264 1.015-2.053 1.25-.59.176-.788.204-1.472.204-.684 0-.882-.028-1.472-.204-.789-.235-1.427-.624-2.053-1.25-.991-.991-1.453-2.112-1.453-3.525 0-.666.057-1.039.243-1.6a5.06 5.06 0 0 1 2.23-2.729 5.32 5.32 0 0 1 1.85-.628c.38-.053 1.25-.023 1.635.057m12.663 3.969c-.242.085-.497.35-.574.595a2.862 2.862 0 0 0-.086.52c-.056.761-.403 1.401-1.038 1.912-.234.189-.842.508-1.075.566l-.111.027.107-.205c.454-.876-.428-1.799-1.311-1.371-.121.058-.529.441-1.3 1.216-.986.992-1.132 1.155-1.189 1.328a.976.976 0 0 0 0 .686c.057.173.203.336 1.189 1.328 1.181 1.188 1.303 1.285 1.667 1.32.425.041.875-.248 1.012-.651.143-.421.052-.746-.319-1.14l-.255-.27.245-.027a5.486 5.486 0 0 0 1.895-.631c1.32-.774 2.2-2.042 2.438-3.512.125-.768.06-1.164-.237-1.461a.998.998 0 0 0-1.058-.23" fill="#667085" fill-rule="evenodd"/></svg>