<svg width="24" height="24" fill="none" xmlns="http://www.w3.org/2000/svg"><path d="M14.2 1.042a8.084 8.084 0 0 0-4.194 1.717c-.706.565-.9.832-.9 1.241 0 .698.748 1.201 1.367.92.096-.044.334-.217.529-.386.869-.751 1.735-1.184 2.838-1.418.564-.12 1.668-.129 2.24-.019 2.478.477 4.353 2.353 4.822 4.823.097.51.101 1.594.008 2.1a6.032 6.032 0 0 1-1.433 2.96c-.479.537-.582.893-.383 1.32.173.37.514.593.91.595.315.001.519-.108.843-.447 1.357-1.423 2.152-3.436 2.152-5.448 0-3.921-2.901-7.302-6.779-7.901-.495-.076-1.565-.107-2.02-.057M8.42 7.023c-.066.009-.291.037-.5.061-.524.06-1.35.277-1.889.497-3.933 1.605-5.941 5.901-4.63 9.905a8.147 8.147 0 0 0 3.41 4.324c2.797 1.738 6.372 1.555 9.049-.464.411-.31 1.176-1.075 1.486-1.486 1.83-2.426 2.166-5.575.884-8.266a8.04 8.04 0 0 0-6.01-4.495c-.39-.06-1.561-.11-1.8-.076m1.744 2.094c2.422.483 4.273 2.36 4.738 4.803.101.528.101 1.632 0 2.16-.423 2.224-2.017 4.014-4.143 4.654-.691.208-.967.246-1.779.243-.836-.002-1.192-.058-1.904-.296a5.966 5.966 0 0 1-3.77-3.803c-.221-.681-.282-1.083-.282-1.878 0-1.01.173-1.791.582-2.627.921-1.886 2.658-3.089 4.834-3.349.313-.038 1.353.018 1.724.093m-1.489 1.942c-.186.069-1.781 1.135-1.923 1.286-.325.346-.325.964 0 1.31.252.269.747.382 1.074.245.079-.033.151-.06.159-.06.008 0 .015.603.015 1.34v1.34h-.361c-.539 0-.832.152-1.026.532-.205.401-.097.951.236 1.201.342.256.267.246 1.971.26.858.007 1.653.001 1.766-.013.56-.068.994-.619.908-1.151-.04-.245-.249-.551-.471-.688-.18-.111-.231-.122-.61-.135L10 16.513v-2.33c0-2.636.006-2.579-.303-2.888a1.005 1.005 0 0 0-1.022-.236" fill="#667085" fill-rule="evenodd"/></svg>