<svg width="24" height="24" fill="none" xmlns="http://www.w3.org/2000/svg"><path d="M10.816 1.056a4.44 4.44 0 0 0-2.481 1.279 4.352 4.352 0 0 0-1.082 1.717c-.842 2.411.585 5.097 3.072 5.782.96.265 1.542.216 2.501-.209.18-.08.333-.145.34-.145.008 0 .14.118.294.262 1.42 1.327 3.335 1.622 5.04.777.476-.236.772-.451 1.189-.864a4.577 4.577 0 0 0 1.18-2.044c.095-.353.105-.462.106-1.111.001-.656-.008-.755-.105-1.111-.285-1.053-.978-2.032-1.84-2.602a4.1 4.1 0 0 0-1.07-.537c-.509-.178-.838-.23-1.44-.228-.617.001-.968.064-1.526.274l-.368.138-.263-.24c-.552-.502-1.303-.921-1.927-1.075a4.92 4.92 0 0 0-1.62-.063m1.087 1.986c.278.05.812.303 1.031.49l.155.131-.23.318a5.116 5.116 0 0 0-.725 1.526c-.147.56-.154 1.251-.018 1.733.149.527.151.518-.176.647-.322.126-.55.139-.96.053a2.53 2.53 0 0 1-1.822-1.596 2.747 2.747 0 0 1-.016-1.647c.381-1.145 1.583-1.865 2.761-1.655m5.129 1.022c.932.192 1.718.965 1.908 1.876.171.82-.044 1.646-.584 2.235-.303.33-.608.531-1.027.675-1.754.605-3.521-.819-3.291-2.651.106-.851.593-1.553 1.327-1.916a2.438 2.438 0 0 1 1.667-.219M2.56 12.056c-.736.163-1.343.784-1.502 1.539-.084.396-.083 7.419.001 7.816a2.027 2.027 0 0 0 1.486 1.529c.289.075 2.523.087 2.863.015.358-.076.678-.246.963-.513.352-.329.505-.631.538-1.06l.023-.31 1.104.018 1.104.019 1.24.308c2.304.573 2.226.558 3.02.557l.7-.001 1.66-.328c1.968-.389 2.052-.408 2.44-.547.887-.318 1.306-.615 2.519-1.783 1.815-1.748 1.974-1.936 2.167-2.555.137-.437.129-1.053-.019-1.503a2.554 2.554 0 0 0-1.627-1.623c-.329-.105-.985-.143-1.33-.076-.419.082-.841.314-1.665.918a15.46 15.46 0 0 1-.816.576c-.022.004-.062-.118-.089-.273a2.521 2.521 0 0 0-1.302-1.798c-.293-.153-.665-.258-2.338-.657-2.266-.541-2.708-.479-5.77.811a21.52 21.52 0 0 1-1.05.425c-.022 0-.04-.085-.04-.19-.001-.249-.155-.518-.468-.815a1.855 1.855 0 0 0-.901-.495c-.325-.076-2.571-.08-2.911-.004M4.98 17.5v3.48l-.967.011-.966.01-.026-.29c-.037-.416-.008-6.601.032-6.662.025-.039.249-.048.98-.04l.947.011v3.48m7.2-3.459c.33.047 2.742.624 2.929.701.21.086.291.264.291.643 0 .268-.014.342-.084.43-.166.212-.237.225-1.207.225-.671 0-.944.015-1.092.059-.528.157-.811.71-.653 1.277.058.21.402.551.621.615.116.035.597.049 1.64.049 2.188-.001 2.103.03 4.171-1.486 1.319-.967 1.384-1.009 1.583-1.026.244-.02.413.052.538.228a.55.55 0 0 1 .031.513c-.095.17-2.446 2.416-2.722 2.6-.464.309-.749.393-2.586.761-1.616.325-1.727.341-2.24.344l-.54.002-1.5-.372c-2.044-.506-1.92-.487-3.23-.512L7 19.07v-3.376l1.51-.634c2.361-.99 2.872-1.132 3.67-1.019" fill="#667085" fill-rule="evenodd"/></svg>