<svg width="24" height="24" fill="none" xmlns="http://www.w3.org/2000/svg"><path d="M11.26 1.041a7.044 7.044 0 0 0-4.201 2.018C5.943 4.174 5.268 5.548 5.056 7.14a4.436 4.436 0 0 0 .121 1.914c.081.305.142.56.135.566-.006.006-.194.102-.416.213-2.401 1.2-3.9 3.581-3.895 6.186.007 3.915 3.316 7.118 7.199 6.967.347-.013.735-.055.966-.104.797-.169 1.667-.536 2.415-1.019l.385-.249.327.216a9.33 9.33 0 0 0 1.741.847 6.604 6.604 0 0 0 3.698.103 7.06 7.06 0 0 0 5.048-5.048c.327-1.277.274-2.725-.143-3.916a7.098 7.098 0 0 0-1.964-2.929 8.174 8.174 0 0 0-1.569-1.054c-.222-.111-.41-.207-.416-.213a5.84 5.84 0 0 1 .135-.566c.238-.896.225-1.736-.043-2.786-.683-2.669-2.891-4.692-5.64-5.169-.44-.076-1.446-.107-1.88-.058M12.98 3.1c1.017.21 1.807.637 2.545 1.375.989.989 1.453 2.114 1.453 3.525s-.464 2.536-1.453 3.525c-.751.751-1.52 1.161-2.625 1.401-.317.069-1.483.069-1.8 0-1.105-.24-1.874-.65-2.625-1.401C7.484 10.534 7.022 9.413 7.022 8c0-.666.057-1.039.243-1.6a5.06 5.06 0 0 1 2.23-2.729 5.32 5.32 0 0 1 1.85-.628c.38-.053 1.25-.023 1.635.057m-6.801 8.562c.387.659 1.271 1.599 1.984 2.107a6.798 6.798 0 0 0 3.475 1.216c.395.021.51.012.797-.062.184-.048.339-.082.344-.075.005.007.053.183.105.392.219.867.075 1.971-.382 2.933-.468.987-1.411 1.917-2.399 2.367-.702.32-1.271.439-2.103.439-.684 0-.882-.028-1.472-.204-.789-.235-1.427-.624-2.053-1.25-.742-.742-1.161-1.519-1.381-2.565-.099-.468-.098-1.451.001-1.912a4.966 4.966 0 0 1 2.109-3.119c.205-.139.781-.449.834-.449.019 0 .082.082.141.182m12.244.045c1.319.732 2.176 1.908 2.503 3.433.078.367.067 1.407-.02 1.82-.219 1.041-.642 1.827-1.381 2.565-.626.626-1.264 1.015-2.053 1.25-.58.173-.79.203-1.432.204-.655 0-.893-.038-1.47-.235-.352-.12-1.053-.466-1.078-.531-.01-.026.052-.143.138-.26a7.39 7.39 0 0 0 1.256-2.777c.068-.312.086-.536.088-1.056.002-.622-.005-.687-.126-1.133a9.022 9.022 0 0 1-.128-.506c0-.018.122-.09.27-.16.963-.45 2.015-1.413 2.721-2.49.264-.402.223-.395.712-.124" fill="#667085" fill-rule="evenodd"/></svg>