<svg width="24" height="24" fill="none" xmlns="http://www.w3.org/2000/svg"><path d="M4.656 2.039a2.882 2.882 0 0 0-1.676.769 2.9 2.9 0 0 0-.939 1.832c-.031.238-.041 2.508-.033 7.6l.012 7.26.112.36a3.006 3.006 0 0 0 2.455 2.102c.187.028.913.038 2.1.027 1.551-.013 1.851-.025 2.072-.084a3.076 3.076 0 0 0 2.15-2.166c.067-.263.071-.706.071-7.739 0-7.183-.003-7.47-.075-7.74-.293-1.087-1.096-1.88-2.192-2.165-.213-.056-.531-.068-2.013-.077-.968-.006-1.888.004-2.044.021m11.164 0c-.466.042-.807.133-1.168.311a2.928 2.928 0 0 0-1.304 1.302c-.185.37-.26.662-.308 1.208-.055.618-.052 13.69.003 14.32.072.822.327 1.396.854 1.923.51.511 1.087.775 1.863.855.529.054 2.951.054 3.48 0 .796-.082 1.33-.328 1.86-.858s.776-1.064.858-1.86c.058-.563.058-13.918 0-14.48-.052-.504-.179-.916-.395-1.28a2.951 2.951 0 0 0-1.941-1.386c-.328-.07-3.186-.111-3.802-.055M7.93 4.04c.401.033.494.055.627.143.274.181.358.348.402.8.052.532.052 13.503 0 14.035-.044.452-.13.629-.391.802-.224.148-.57.178-2.068.178-1.85 0-2.036-.034-2.301-.419-.108-.157-.123-.221-.159-.647-.052-.63-.052-13.232 0-13.862.033-.401.055-.494.143-.627.179-.271.366-.363.81-.4.562-.046 2.389-.048 2.937-.003m11.44.02c.152.041.445.308.535.489.073.146.075.39.075 7.391 0 3.982-.014 7.305-.031 7.385-.038.18-.295.479-.498.58-.141.07-.271.075-1.951.075-1.68 0-1.81-.005-1.951-.075-.179-.089-.447-.38-.492-.535-.05-.172-.068-14.13-.019-14.506.031-.233.069-.351.143-.449.17-.223.349-.334.604-.372.273-.042 3.422-.027 3.585.017" fill="#667085" fill-rule="evenodd"/></svg>