<svg width="24" height="24" fill="none" xmlns="http://www.w3.org/2000/svg"><path d="M5.433 2.043c-.426.063-.732.161-1.173.376A3.883 3.883 0 0 0 2.418 4.26c-.308.628-.396 1.013-.396 1.74 0 .727.088 1.112.396 1.74A3.89 3.89 0 0 0 4.26 9.582c.737.362.899.389 2.43.408l1.31.016v3.987l-1.31.018c-1.532.02-1.7.049-2.43.407a3.89 3.89 0 0 0-1.842 1.842c-.308.628-.396 1.013-.396 1.74 0 .727.088 1.112.396 1.74a3.89 3.89 0 0 0 1.842 1.842 3.67 3.67 0 0 0 1.58.406c1.972.093 3.72-1.315 4.097-3.303.048-.257.063-.604.063-1.509V16h3.994l.016 1.31c.019 1.531.046 1.693.408 2.43a3.885 3.885 0 0 0 1.842 1.842 3.67 3.67 0 0 0 1.58.406c1.972.093 3.72-1.315 4.097-3.303.364-1.921-.849-3.899-2.759-4.498-.494-.155-.85-.187-2.061-.187H16v-4h1.176c1.524 0 1.877-.061 2.664-.464 1.525-.78 2.411-2.564 2.097-4.221-.435-2.293-2.641-3.731-4.897-3.194a4.51 4.51 0 0 0-.78.297 3.885 3.885 0 0 0-1.842 1.842c-.362.737-.389.899-.408 2.43L13.994 8H10V6.824c0-1.524-.061-1.877-.464-2.664-.758-1.482-2.457-2.358-4.103-2.117m.95 2c.768.141 1.433.806 1.574 1.574.024.133.043.713.043 1.31V8l-1.11-.001c-1.235 0-1.45-.029-1.858-.246a2.186 2.186 0 0 1-.471-.378c-.754-.806-.739-2.004.035-2.779.489-.488 1.102-.678 1.787-.553m12 0c.802.147 1.456.829 1.584 1.652.158 1.019-.5 2.01-1.491 2.243-.196.047-.517.061-1.366.061L16 8V6.927c0-.597.019-1.177.043-1.31a1.93 1.93 0 0 1 .553-1.021c.489-.488 1.102-.678 1.787-.553M14 12v2h-4v-4h4v2m-6 5.073c0 .597-.019 1.177-.043 1.31-.098.537-.519 1.119-.989 1.37-.812.432-1.793.278-2.407-.378a2.001 2.001 0 0 1-.354-2.25c.245-.515.83-.974 1.373-1.078.11-.021.7-.04 1.31-.043L8 16v1.073m10.383-1.03c.578.106 1.157.55 1.41 1.082a2.001 2.001 0 0 1-.354 2.25c-.614.656-1.595.81-2.407.378-.47-.251-.891-.833-.989-1.37-.024-.133-.043-.713-.043-1.31V16h1.073c.597 0 1.177.019 1.31.043" fill="#667085" fill-rule="evenodd"/></svg>