<svg width="24" height="24" fill="none" xmlns="http://www.w3.org/2000/svg"><path d="M11.26 1.025c-1.206.107-2.309.356-3.269.739C3.645 3.495.852 7.736 1.013 12.36c.136 3.913 2.267 7.366 5.736 9.296 3.274 1.821 7.48 1.775 10.721-.119.991-.579 2.277-1.619 2.495-2.016.042-.077.212-.294.377-.481 1.234-1.396 2.174-3.363 2.496-5.22.107-.615.173-1.385.15-1.74-.214-3.282-1.091-5.512-2.983-7.586-1.678-1.839-4.16-3.073-6.705-3.334a29.45 29.45 0 0 1-.76-.088 8.11 8.11 0 0 0-1.28-.047M11 3.673c0 .578.062.791.299 1.028a.984.984 0 0 0 1.402 0c.237-.237.299-.45.299-1.029v-.473l.17.024c1.5.215 2.838.748 4.041 1.608l.31.223-.36.367c-.407.415-.493.575-.495.921-.003.565.423.99.994.991.329.001.525-.107.942-.519l.343-.337.223.311c.358.501.503.746.793 1.34.4.819.677 1.738.816 2.702l.024.17h-.473c-.579 0-.792.062-1.029.299a.984.984 0 0 0 0 1.402c.237.237.45.299 1.029.299h.473l-.024.17a9.024 9.024 0 0 1-1.608 4.041l-.223.31-.343-.335c-.428-.418-.592-.506-.942-.506-.586 0-.995.404-.992.98.001.343.091.51.497.924l.356.363-.351.251a9.035 9.035 0 0 1-3.981 1.581l-.19.026v-.475c0-.581-.062-.794-.299-1.031a.984.984 0 0 0-1.402 0c-.237.237-.299.45-.299 1.031v.475l-.19-.026c-.997-.138-2.178-.517-2.996-.962-.309-.167-1.048-.645-1.244-.805l-.091-.073.324-.32c.402-.397.531-.629.53-.959-.001-.579-.409-.98-.994-.98-.35 0-.514.088-.942.506l-.343.335-.223-.31a7.661 7.661 0 0 1-.792-1.339 9.154 9.154 0 0 1-.816-2.702L3.199 13h.473c.579 0 .792-.062 1.029-.299a.984.984 0 0 0 0-1.402c-.237-.237-.45-.299-1.03-.299h-.475l.021-.13c.198-1.229.413-1.932.87-2.846.26-.519.406-.761.744-1.235l.223-.31.363.356c.413.405.58.495.923.496a.964.964 0 0 0 .994-.989c-.001-.332-.108-.527-.52-.944l-.337-.343.311-.223a8.787 8.787 0 0 1 3.672-1.548c.242-.043.462-.079.49-.081.037-.002.05.117.05.47m.64 3.393c-.152.054-.507.39-2.311 2.189-1.516 1.511-2.156 2.176-2.217 2.301a1.018 1.018 0 0 0-.052.77c.065.201.198.342 2.195 2.345 1.511 1.516 2.176 2.156 2.301 2.217.244.118.509.136.77.052.201-.065.342-.198 2.345-2.195 1.516-1.511 2.156-2.176 2.217-2.301.118-.244.136-.509.052-.77-.065-.201-.198-.342-2.195-2.345-1.535-1.54-2.175-2.155-2.304-2.218a1.14 1.14 0 0 0-.801-.045m1.66 3.654L14.58 12l-1.29 1.29L12 14.58l-1.29-1.29L9.42 12l1.28-1.28A60.031 60.031 0 0 1 12 9.44c.011 0 .596.576 1.3 1.28" fill="#667085" fill-rule="evenodd"/></svg>