<svg width="24" height="24" fill="none" xmlns="http://www.w3.org/2000/svg"><path d="M11.54 1.026c-2.33.1-4.571.943-6.42 2.414-1.717 1.366-3.052 3.37-3.674 5.52-.289.994-.415 1.92-.415 3.04 0 1.789.339 3.248 1.13 4.86a10.85 10.85 0 0 0 4.979 4.979c.739.362 1.226.55 1.929.743 1.023.28 1.829.386 2.931.386 1.783 0 3.254-.341 4.86-1.129a10.963 10.963 0 0 0 5.758-7.049c.263-1.016.35-1.71.35-2.79 0-1.783-.341-3.254-1.129-4.86a10.981 10.981 0 0 0-6.799-5.694 11.647 11.647 0 0 0-3.5-.42m-.532 2.644c.025.839.12 1.06.533 1.233.213.09.705.09.918 0 .413-.173.508-.394.533-1.235l.019-.631.184.025a9.304 9.304 0 0 1 4.151 1.681l.303.224-.439.446c-.497.506-.581.64-.581.926 0 .256.105.464.358.707.325.312.563.388.898.289.179-.053.277-.129.679-.522l.47-.46.224.302a9.305 9.305 0 0 1 1.68 4.15l.025.184-.631.02c-.669.02-.85.062-1.047.243-.331.304-.35 1.118-.033 1.463.186.203.397.257 1.08.277l.631.019-.025.184a9.304 9.304 0 0 1-1.681 4.151l-.224.303-.446-.439c-.506-.498-.64-.581-.927-.581-.248 0-.421.083-.673.325-.253.243-.358.451-.358.707 0 .286.084.42.581.926l.439.446-.303.224a9.304 9.304 0 0 1-4.151 1.681l-.184.025-.019-.631c-.025-.841-.12-1.062-.533-1.235-.213-.09-.705-.09-.918 0-.413.173-.508.394-.533 1.235l-.019.631-.184-.025a9.305 9.305 0 0 1-4.15-1.68l-.302-.224.46-.47c.393-.402.469-.5.522-.679.101-.342.008-.614-.322-.931-.252-.242-.425-.325-.673-.325-.287 0-.421.083-.927.581l-.446.439-.224-.303a9.304 9.304 0 0 1-1.681-4.151l-.025-.184.631-.019c.841-.025 1.062-.12 1.235-.533.09-.213.09-.705 0-.918-.173-.413-.394-.508-1.235-.533l-.631-.019.025-.184a9.305 9.305 0 0 1 1.68-4.15l.224-.302.471.46c.412.404.497.469.687.523.348.1.627-.003.948-.352.29-.315.359-.543.263-.869-.053-.179-.129-.277-.522-.679l-.46-.47.302-.224A9.43 9.43 0 0 1 9.78 3.26c.276-.07 1.019-.21 1.145-.217.056-.003.067.079.083.627m.652 3.376c-.24.123-4.478 4.361-4.603 4.603A.89.89 0 0 0 6.96 12a.89.89 0 0 0 .097.351c.131.254 4.366 4.483 4.611 4.605a.899.899 0 0 0 .332.084c.09 0 .239-.038.332-.084.245-.122 4.48-4.351 4.611-4.605A.89.89 0 0 0 17.04 12a.89.89 0 0 0-.097-.351c-.131-.254-4.366-4.483-4.611-4.605a.747.747 0 0 0-.672.002m1.66 3.654 1.3 1.3-1.31 1.31L12 14.62l-1.31-1.31L9.38 12l1.3-1.3c.715-.715 1.309-1.3 1.32-1.3.011 0 .605.585 1.32 1.3" fill-rule="evenodd" fill="#000"/></svg>