<svg width="24" height="24" fill="none" xmlns="http://www.w3.org/2000/svg"><path d="M11.643 1.069a1.066 1.066 0 0 0-.577.591c-.051.151-.066.346-.066.871 0 .653-.003.677-.084.698-.046.012-.23.093-.409.18-1.793.867-2.504 2.882-1.627 4.618.087.172.23.403.318.513.089.11.18.237.204.282.038.071-.216.528-1.882 3.4a364.226 364.226 0 0 1-1.955 3.348c-.029.03-1.029-.614-1.365-.88a7.212 7.212 0 0 1-.42-.375c-.29-.28-.458-.355-.789-.354-.321.001-.527.094-.736.331-.271.308-.329.69-.159 1.048.169.355 1.018 1.193 1.894 1.869.226.175.41.332.41.35 0 .019-.53.948-1.179 2.064-.863 1.488-1.185 2.077-1.204 2.204a.998.998 0 0 0 1.304 1.113.946.946 0 0 0 .375-.239c.104-.106.579-.887 1.299-2.134.625-1.082 1.156-1.967 1.182-1.967.025 0 .18.065.344.144 2.484 1.195 5.362 1.551 8.009.992.944-.199 2.133-.598 2.923-.98.178-.086.344-.156.369-.156.026 0 .558.885 1.183 1.967.72 1.247 1.195 2.028 1.299 2.134a.993.993 0 0 0 1.197.161c.403-.237.599-.758.444-1.182-.028-.077-.567-1.028-1.198-2.113S19.6 17.578 19.6 17.56c0-.019.185-.176.41-.351.876-.676 1.725-1.514 1.894-1.869.17-.358.112-.74-.159-1.048-.209-.237-.415-.33-.736-.331-.331-.001-.499.074-.789.354a7.212 7.212 0 0 1-.42.375c-.336.266-1.336.91-1.365.88-.016-.016-.896-1.523-1.955-3.348-1.668-2.874-1.92-3.329-1.882-3.4.024-.045.115-.172.204-.282.088-.11.231-.341.318-.513.877-1.736.166-3.751-1.627-4.618a4.132 4.132 0 0 0-.409-.18c-.081-.021-.084-.045-.084-.698 0-.799-.043-.976-.299-1.232a.998.998 0 0 0-1.058-.23m.972 4.063c.294.135.545.375.709.678.131.241.136.266.136.69 0 .424-.005.449-.136.69a1.573 1.573 0 0 1-.717.683c-.196.091-.28.106-.607.106-.327 0-.411-.015-.607-.106a1.573 1.573 0 0 1-.717-.683c-.131-.241-.136-.266-.136-.69 0-.404.009-.457.111-.651.214-.405.543-.682.946-.797.278-.079.752-.041 1.018.08M11.52 9.92c.377.099.582.099.958.001a2.37 2.37 0 0 1 .307-.069c.004.004.911 1.565 2.016 3.468l2.023 3.486c.02.034-.732.364-1.284.563-.57.205-1.514.444-2.12.536-.674.103-2.166.103-2.84 0a12.355 12.355 0 0 1-2.989-.884c-.415-.182-.428-.192-.38-.279.049-.09 4.006-6.903 4.008-6.901l.301.079" fill="#667085" fill-rule="evenodd"/></svg>