<svg width="24" height="24" fill="none" xmlns="http://www.w3.org/2000/svg"><path d="M11.041 1.045c-1.47.13-2.98.585-4.26 1.283-.985.538-1.77 1.13-2.583 1.947-1.682 1.693-2.712 3.742-3.086 6.145-.073.467-.087.73-.087 1.58 0 .85.014 1.113.087 1.58.378 2.425 1.41 4.467 3.125 6.183 1.716 1.715 3.758 2.747 6.183 3.125.809.126 2.351.126 3.16 0 2.413-.376 4.471-1.417 6.181-3.127.923-.923 1.563-1.811 2.116-2.941a10.92 10.92 0 0 0 0-9.64 11.163 11.163 0 0 0-3.826-4.353 11.032 11.032 0 0 0-7.01-1.782m2.279 2.057a9.023 9.023 0 0 1 5.664 3.218c.816 1.005 1.483 2.358 1.771 3.6.167.718.222 1.229.222 2.08 0 1.511-.264 2.654-.917 3.98-.896 1.818-2.252 3.179-4.067 4.079a8.986 8.986 0 0 1-6.453.597C7.08 19.955 5.103 18.309 3.946 16c-.642-1.283-.923-2.498-.923-4 0-1.502.281-2.717.923-4 .91-1.819 2.235-3.143 4.056-4.055 1.025-.514 2.001-.783 3.338-.921.324-.033 1.573.016 1.98.078m1.66 4.056c-.636.177-5.318 1.765-5.476 1.857a1.57 1.57 0 0 0-.537.573c-.042.084-.479 1.358-.971 2.832l-.895 2.68-.001.38c0 .339.012.404.115.606.142.28.417.554.705.701.197.101.261.113.6.112l.38-.002 2.724-.909c1.664-.556 2.792-.953 2.9-1.022a1.51 1.51 0 0 0 .51-.557c.042-.082.477-1.355.969-2.829l.894-2.68.002-.38c.001-.34-.011-.403-.114-.606a1.685 1.685 0 0 0-.705-.699c-.294-.146-.704-.168-1.1-.057m-.303 2.192c-.002.017-.303.921-.67 2.01l-.667 1.98-1.997.669a74.546 74.546 0 0 1-2.01.658c-.006-.007.289-.911.658-2.01l.669-1.997 1.98-.667c1.089-.367 1.993-.668 2.01-.67a.023.023 0 0 1 .027.027" fill="#667085" fill-rule="evenodd"/></svg>