<svg width="24" height="24" fill="none" xmlns="http://www.w3.org/2000/svg"><path d="M11.041 1.045c-1.47.13-2.98.585-4.26 1.283-.985.538-1.77 1.13-2.583 1.947-1.682 1.693-2.712 3.742-3.086 6.145-.073.467-.087.73-.087 1.58 0 .85.014 1.113.087 1.58.378 2.425 1.41 4.467 3.125 6.183 1.455 1.454 3.123 2.407 5.083 2.901 1.41.356 3.106.43 4.448.195.364-.064.482-.121.68-.326a.964.964 0 0 0 .162-1.136c-.217-.427-.577-.585-1.176-.516a8.777 8.777 0 0 1-.384.039c-.04 0-.05-1.811-.05-8.922V3.076l.13.021c.632.098.965.049 1.245-.183.306-.253.436-.779.283-1.145a1.232 1.232 0 0 0-.438-.489c-.336-.208-2.052-.335-3.179-.235m6.408 1.812c-.64.207-.907.952-.536 1.497.059.087.313.317.565.512a9.767 9.767 0 0 1 1.676 1.681c.4.518.579.657.915.712.513.084 1.053-.349 1.118-.897.035-.292-.066-.529-.435-1.02-.621-.827-2.045-2.168-2.568-2.419a1.08 1.08 0 0 0-.735-.066M11 12.002v8.803l-.19-.027a9.562 9.562 0 0 1-4.385-1.83c-.449-.341-1.1-.98-1.478-1.448-2.512-3.118-2.593-7.567-.196-10.75A9.082 9.082 0 0 1 9.54 3.496c.394-.112 1.199-.279 1.41-.293.04-.002.05 1.782.05 8.799m10.408-2.618a.957.957 0 0 0-.514.612c-.058.199-.058.253.011.72.052.355.074.735.074 1.284s-.022.929-.074 1.284c-.069.467-.069.521-.011.72a.977.977 0 0 0 .957.716c.127 0 .298-.028.38-.062.172-.071.429-.306.515-.471.126-.241.254-1.339.254-2.187 0-.85-.127-1.944-.255-2.19-.078-.152-.358-.403-.528-.474-.221-.092-.57-.072-.809.048m-1.628 7.454c-.223.107-.281.164-.663.659a9.858 9.858 0 0 1-1.672 1.663c-.513.396-.643.567-.707.927-.072.41.271.919.714 1.057.455.141.778-.007 1.656-.761.712-.612 1.486-1.454 1.879-2.045.19-.286.244-.574.16-.858a.973.973 0 0 0-.967-.719.98.98 0 0 0-.4.077" fill="#667085" fill-rule="evenodd"/></svg>