<svg width="24" height="24" fill="none" xmlns="http://www.w3.org/2000/svg"><path d="M7.24 2.036a1.064 1.064 0 0 0-.488.316c-.431.477-.282 1.226.305 1.541l.163.087 4.9.026c2.695.015 4.954.036 5.02.049.066.012.269.042.45.066.434.057.709.155 1.039.371.345.224.655.534.879.879.216.33.314.605.371 1.039.024.181.054.384.066.45.013.066.034 2.325.049 5.02l.026 4.9.087.163c.332.619 1.143.742 1.604.243.316-.343.294.082.279-5.546-.015-5.492-.009-5.345-.255-6.193-.417-1.44-1.746-2.766-3.192-3.185-.82-.238-.746-.235-6.203-.247-2.75-.006-5.045.004-5.1.021m-2.7 3.512c-1.14.162-2.107 1.021-2.431 2.16l-.089.312-.011 5.52c-.009 3.741.001 5.625.03 5.846.178 1.36 1.199 2.378 2.581 2.573.229.032 1.894.042 5.84.033l5.52-.013.306-.087c.903-.256 1.641-.906 1.981-1.742.243-.598.233-.322.233-6.39 0-6.27.019-5.884-.319-6.58A3.001 3.001 0 0 0 16.3 5.612c-.225-.067-.607-.072-5.94-.076-3.135-.003-5.754.003-5.82.012m11.171 2.008c.28.04.516.209.647.463l.102.199v5.541c0 5.314-.003 5.547-.074 5.69a1.099 1.099 0 0 1-.533.477c-.195.065-10.241.1-10.867.038-.45-.045-.621-.132-.805-.41-.092-.139-.111-.225-.145-.652-.057-.705-.025-10.511.034-10.719a.876.876 0 0 1 .696-.622c.275-.04 10.665-.045 10.945-.005" fill="#667085" fill-rule="evenodd"/></svg>