<svg width="24" height="24" fill="none" xmlns="http://www.w3.org/2000/svg"><path d="M9.61 1.043C8.29 1.2 7.232 2.246 7.041 3.58c-.021.154-.04.986-.04 1.85L7 7H5.51c-.82.001-1.65.019-1.846.041-1.376.158-2.429 1.177-2.623 2.539-.054.38-.054 10.46 0 10.84a2.976 2.976 0 0 0 2.539 2.539c.4.056 10.434.055 10.845-.002a2.977 2.977 0 0 0 2.534-2.537c.021-.154.04-.987.04-1.85L17 17h1.557c.896 0 1.689-.018 1.868-.043a2.977 2.977 0 0 0 2.534-2.537c.024-.174.039-2.217.039-5.42s-.015-5.246-.039-5.42c-.173-1.215-1.024-2.158-2.246-2.488-.232-.063-.688-.069-5.533-.076-2.904-.004-5.41.008-5.57.027m10.378 1.996c.468.043.649.131.831.407.09.135.111.227.143.607.048.584.048 9.312-.001 9.897-.033.403-.049.467-.158.626-.175.254-.338.34-.73.385-.445.051-9.704.051-10.15 0-.386-.045-.56-.137-.735-.389-.094-.136-.116-.222-.148-.576-.049-.543-.049-9.449 0-9.992.031-.34.056-.445.139-.57.171-.258.362-.356.768-.392.502-.044 9.55-.047 10.041-.003M7.001 11.57c0 1.49.017 2.688.04 2.85a2.976 2.976 0 0 0 2.539 2.539c.162.023 1.36.04 2.85.04L15 17l-.001 1.25c0 .688-.017 1.452-.038 1.7-.033.403-.049.467-.158.626-.175.254-.338.34-.73.385-.445.051-9.704.051-10.15 0-.386-.045-.56-.137-.735-.389-.094-.136-.116-.222-.148-.576-.049-.543-.049-9.449 0-9.992.043-.475.126-.647.397-.827.211-.14.532-.164 2.213-.171L7 9l.001 2.57" fill="#667085" fill-rule="evenodd"/></svg>