<svg width="24" height="24" fill="none" xmlns="http://www.w3.org/2000/svg"><path d="M3.61 1.043C2.29 1.2 1.232 2.246 1.041 3.58c-.024.173-.04 2.062-.04 4.945-.001 5.111-.004 5.046.235 5.626.156.377.345.657.65.963.315.314.608.509.992.658.442.172.812.225 1.585.227.806.001.981-.041 1.238-.298a.984.984 0 0 0-.001-1.403c-.244-.244-.427-.289-1.264-.309-.787-.018-.966-.067-1.181-.322-.25-.296-.234.01-.247-4.767-.013-4.767.001-5.208.171-5.466.056-.084.171-.199.255-.255.258-.17.699-.184 5.466-.171l4.36.012.189.093a.954.954 0 0 1 .458.478c.036.086.063.377.078.84.015.47.043.775.084.905.116.369.53.664.931.664.396 0 .808-.291.934-.66.087-.257.092-1.381.007-1.866A2.914 2.914 0 0 0 14.3 1.315c-.66-.315-.231-.292-5.6-.3-2.64-.003-4.93.009-5.09.028m7 7C9.29 8.2 8.232 9.246 8.041 10.58c-.053.379-.053 9.461 0 9.84a2.976 2.976 0 0 0 2.539 2.539c.399.056 9.435.055 9.845-.002a2.977 2.977 0 0 0 2.534-2.537c.024-.173.039-2.05.039-4.92s-.015-4.747-.039-4.92c-.173-1.215-1.025-2.158-2.246-2.488-.231-.062-.664-.069-5.033-.076-2.629-.004-4.91.008-5.07.027m9.378 1.996c.468.043.649.131.831.407.09.135.111.227.143.607.048.584.048 8.312-.001 8.897-.033.403-.049.467-.158.626-.175.254-.338.34-.73.385-.443.051-8.706.051-9.15 0-.386-.045-.56-.137-.735-.389-.094-.136-.116-.222-.148-.576-.049-.542-.049-8.45 0-8.992.031-.347.055-.442.142-.567.185-.266.364-.359.765-.395.503-.044 8.55-.047 9.041-.003" fill="#667085" fill-rule="evenodd"/></svg>