<svg width="24" height="24" fill="none" xmlns="http://www.w3.org/2000/svg"><path d="M9.646 1.043c-1.127.125-2.114.908-2.459 1.95-.206.624-.245 1.624-.076 1.951.099.193.326.402.525.485.192.08.547.076.754-.008.211-.086.499-.399.562-.612.027-.087.048-.246.048-.354 0-.107.018-.344.039-.525.043-.375.175-.618.416-.767.145-.089.562-.16.96-.162.334-.002.525-.07.746-.27.525-.472.415-1.291-.218-1.622-.191-.099-.741-.127-1.297-.066m3.997.026C13.291 1.193 13 1.614 13 2c0 .396.291.808.66.934.276.094 2.399.098 2.662.005a.986.986 0 0 0 .547-.45c.095-.161.111-.233.111-.489s-.016-.328-.111-.489a1.038 1.038 0 0 0-.539-.454c-.233-.083-2.445-.073-2.687.012m5.597-.032a1.05 1.05 0 0 0-.488.315.965.965 0 0 0 .014 1.31c.226.245.445.323.994.353.597.032.73.073.941.284.211.211.252.344.284.941.029.533.103.754.327.972a.987.987 0 0 0 1.362.016c.273-.262.306-.378.302-1.048-.004-.635-.057-.952-.228-1.376-.288-.713-.995-1.367-1.748-1.619-.446-.149-1.473-.235-1.76-.148M3.586 7.045c-1.328.171-2.37 1.224-2.548 2.575-.028.214-.038 2.064-.03 5.6l.012 5.28.112.36c.143.458.372.846.705 1.196.468.49.986.765 1.669.884.516.09 10.472.09 10.988 0 1.333-.232 2.292-1.228 2.468-2.56.028-.215.037-2.059.029-5.6-.012-4.975-.017-5.295-.086-5.54-.342-1.212-1.303-2.042-2.544-2.198-.417-.052-10.367-.049-10.775.003m18.057.021a1.087 1.087 0 0 0-.577.594c-.098.288-.098 2.392 0 2.68.138.405.587.692 1.017.651.395-.038.776-.344.875-.702.065-.232.052-2.432-.015-2.619a1.021 1.021 0 0 0-1.3-.604M13.996 9.04c.698.063.901.266.964.964.049.543.049 9.449 0 9.992-.032.354-.054.44-.148.576-.179.259-.35.346-.757.389-.465.049-9.644.049-10.11 0-.407-.043-.586-.138-.764-.407-.09-.135-.111-.227-.143-.607-.048-.584-.048-9.312.001-9.897.033-.403.049-.467.158-.626.182-.264.342-.345.753-.382.507-.045 9.549-.047 10.046-.002m7.582 3.555c-.215.098-.476.401-.53.615a4.187 4.187 0 0 0-.066.591c-.03.552-.07.679-.279.894-.214.22-.354.262-1.001.301-.535.033-.701.092-.93.33a.94.94 0 0 0-.262.675.916.916 0 0 0 .251.654c.28.319.678.4 1.514.309.743-.08 1.335-.35 1.821-.831.632-.623.905-1.37.904-2.472-.001-.294-.018-.398-.094-.561a1.146 1.146 0 0 0-.532-.525c-.189-.079-.6-.068-.796.02" fill="#667085" fill-rule="evenodd"/></svg>