<svg width="24" height="24" fill="none" xmlns="http://www.w3.org/2000/svg"><path d="M7.64 3.068c-.155.053-.545.426-2.811 2.687C2.942 7.637 2.174 8.43 2.113 8.556A.986.986 0 0 0 2.298 9.7c.279.279.655.364 1.045.235.177-.059.376-.244 1.927-1.789L7 6.422v3.419c.001 4.081.042 4.958.28 5.979.568 2.43 2.641 4.443 5.092 4.942.952.194 1.227.207 5.098.226 4.127.021 3.908.036 4.23-.286a.984.984 0 0 0 .001-1.403c-.31-.31-.185-.299-3.458-.3-5.153-.001-5.9-.094-7.071-.884-.84-.567-1.614-1.585-1.849-2.433-.096-.347-.189-.944-.246-1.582-.025-.276-.052-2.014-.064-4.08l-.02-3.6 1.734 1.725c1.553 1.545 1.754 1.731 1.93 1.79.39.129.766.044 1.045-.235a.986.986 0 0 0 .185-1.144c-.061-.126-.829-.919-2.716-2.801-2.39-2.384-2.649-2.631-2.828-2.69a1.053 1.053 0 0 0-.703.003" fill="#667085" fill-rule="evenodd"/></svg>