<svg width="24" height="24" fill="none" xmlns="http://www.w3.org/2000/svg"><path d="M3.643 3.069a1.118 1.118 0 0 0-.343.229c-.304.304-.3.267-.3 2.759.001 3.348.087 4.326.482 5.443.566 1.601 1.873 3.035 3.448 3.779.724.342 1.333.504 2.366.628.432.052 1.201.066 4.4.081l3.876.018-1.721 1.727c-1.542 1.548-1.727 1.747-1.786 1.924-.129.389-.044.766.234 1.044s.654.363 1.044.234c.179-.059.438-.306 2.828-2.69 1.835-1.831 2.656-2.677 2.714-2.795.117-.241.117-.649.001-.891-.064-.134-.77-.863-2.716-2.805-2.389-2.383-2.648-2.63-2.827-2.689-.39-.129-.766-.044-1.044.234s-.363.655-.234 1.044c.059.177.244.376 1.789 1.927L17.578 14l-3.119-.001c-5.394-.001-6.105-.087-7.287-.884-.84-.567-1.614-1.585-1.849-2.433-.225-.814-.283-1.646-.308-4.462-.024-2.663-.02-2.627-.313-2.92a.999.999 0 0 0-1.059-.231" fill="#667085" fill-rule="evenodd"/></svg>