<svg width="24" height="24" fill="none" xmlns="http://www.w3.org/2000/svg"><path d="M14.643 3.069C14.291 3.193 14 3.614 14 4c0 .08.029.234.065.343.059.177.244.376 1.786 1.923l1.719 1.727-3.795.019c-2.445.012-3.952.035-4.235.065-1.439.15-2.292.408-3.211.969-1.307.8-2.361 2.077-2.847 3.454-.395 1.117-.481 2.095-.482 5.443 0 2.491-.004 2.455.299 2.758a.984.984 0 0 0 1.403-.001c.293-.293.289-.257.313-2.92.025-2.816.083-3.648.308-4.462.234-.844 1.009-1.866 1.84-2.426.621-.419 1.067-.591 1.848-.71.845-.129 1.427-.148 4.969-.168l3.6-.021-1.725 1.734c-1.545 1.552-1.731 1.754-1.79 1.93-.129.389-.044.766.234 1.044s.654.363 1.044.234c.179-.059.438-.306 2.828-2.69 1.835-1.831 2.656-2.677 2.714-2.795.117-.241.117-.649.001-.891-.064-.134-.77-.863-2.716-2.805-2.389-2.383-2.648-2.63-2.827-2.689a1.032 1.032 0 0 0-.7.004" fill="#667085" fill-rule="evenodd"/></svg>