<svg width="24" height="24" fill="none" xmlns="http://www.w3.org/2000/svg"><path d="M2.667 3.063C2.299 3.18 2 3.6 2 4c0 .242.119.521.3.702.303.303.144.29 3.92.313 3.766.022 4.369.053 5.298.269 1.416.329 2.869 1.782 3.198 3.198.219.941.247 1.522.27 5.518l.021 3.58-1.734-1.726c-1.658-1.652-1.742-1.73-1.95-1.79-.272-.08-.374-.08-.639-.001-.561.166-.837.834-.571 1.381.061.126.829.919 2.716 2.801 2.486 2.481 2.643 2.629 2.845 2.695.261.084.526.066.77-.053.126-.061.919-.829 2.801-2.716 2.384-2.39 2.631-2.649 2.69-2.828.036-.109.065-.263.065-.343 0-.412-.3-.824-.684-.937-.265-.079-.367-.079-.639.001-.208.06-.291.137-1.947 1.789L17 17.578v-3.419c-.001-4.081-.042-4.958-.28-5.979-.428-1.832-1.712-3.445-3.486-4.379-.715-.376-1.565-.598-2.774-.724-.283-.03-1.717-.051-4.02-.061-3.134-.013-3.604-.007-3.773.047" fill="#667085" fill-rule="evenodd"/></svg>