<svg width="24" height="24" fill="none" xmlns="http://www.w3.org/2000/svg"><path d="M14.2 3.042c-1.478.07-2.504.287-3.328.702-1.82.917-3.155 2.565-3.592 4.436-.238 1.021-.279 1.898-.28 5.979v3.419l-1.73-1.725c-1.656-1.652-1.739-1.729-1.947-1.789-.272-.08-.374-.08-.639-.001-.561.166-.837.834-.571 1.381.061.126.829.919 2.716 2.801 2.39 2.384 2.649 2.631 2.828 2.69a.987.987 0 0 0 .686 0c.179-.059.438-.306 2.828-2.69 1.887-1.882 2.655-2.675 2.716-2.801.266-.547-.01-1.215-.571-1.381-.265-.079-.367-.079-.639.001-.208.06-.292.138-1.95 1.79L8.993 17.58l.02-3.6c.012-2.066.039-3.804.064-4.08.057-.638.15-1.235.246-1.582.234-.844 1.009-1.866 1.84-2.426.621-.419 1.067-.591 1.848-.71.832-.127 1.433-.148 4.749-.167 3.798-.023 3.637-.01 3.94-.313a.983.983 0 0 0-.003-1.407c-.306-.306-.176-.296-3.734-.289-1.729.004-3.422.02-3.763.036" fill="#667085" fill-rule="evenodd"/></svg>