<svg width="24" height="24" fill="none" xmlns="http://www.w3.org/2000/svg"><path d="M8.64 3.068c-.155.053-.545.426-2.811 2.687C3.942 7.637 3.174 8.43 3.113 8.556a1.013 1.013 0 0 0-.053.77c.066.202.214.359 2.695 2.845 1.882 1.887 2.675 2.655 2.801 2.716a.986.986 0 0 0 1.144-.185c.279-.279.364-.655.235-1.045-.059-.176-.245-.378-1.79-1.93L6.42 9.993l3.6.021c2.053.011 3.806.038 4.08.063 1.081.097 1.672.227 2.173.48.929.469 1.754 1.306 2.19 2.223.411.865.491 1.629.522 5.02.024 2.64.021 2.608.313 2.9a.984.984 0 0 0 1.403.001c.303-.303.299-.267.299-2.758-.001-2.814-.06-3.819-.28-4.763-.428-1.832-1.712-3.445-3.486-4.379-.715-.376-1.563-.598-2.774-.724-.283-.03-1.79-.053-4.235-.065L6.43 7.993l1.719-1.727C9.691 4.719 9.876 4.52 9.935 4.343A1.004 1.004 0 0 0 8.64 3.068" fill="#667085" fill-rule="evenodd"/></svg>