<svg width="24" height="24" fill="none" xmlns="http://www.w3.org/2000/svg"><path d="M19.643 3.069a1.126 1.126 0 0 0-.344.23c-.294.294-.29.26-.314 2.901-.031 3.387-.111 4.156-.522 5.02-.56 1.175-1.716 2.174-2.87 2.479-.931.246-2.007.3-6.052.3L6.422 14l1.724-1.73c1.545-1.551 1.73-1.75 1.789-1.927.129-.39.044-.766-.235-1.045a.986.986 0 0 0-1.144-.185c-.126.061-.919.829-2.801 2.716-2.481 2.486-2.629 2.643-2.695 2.845-.084.261-.066.526.053.77.061.126.829.919 2.716 2.801 2.39 2.384 2.649 2.631 2.828 2.69.39.129.766.044 1.044-.234s.363-.655.234-1.044c-.059-.177-.244-.376-1.786-1.924l-1.721-1.727 3.876-.018c4.118-.019 4.361-.029 5.326-.226 2.448-.499 4.523-2.513 5.09-4.942.22-.944.279-1.949.28-4.763 0-2.491.004-2.455-.299-2.758a.998.998 0 0 0-1.058-.23" fill="#667085" fill-rule="evenodd"/></svg>