<svg width="24" height="24" fill="none" xmlns="http://www.w3.org/2000/svg"><path d="M15.64 3.068c-.155.053-.545.426-2.811 2.687-1.887 1.882-2.655 2.675-2.716 2.801a.986.986 0 0 0 .185 1.144c.279.279.655.364 1.045.235.176-.059.378-.245 1.93-1.79l1.734-1.725-.021 3.58c-.023 3.996-.051 4.577-.27 5.518-.323 1.392-1.713 2.808-3.123 3.181-.919.243-2.017.3-5.836.3-3.273.001-3.148-.01-3.458.3a.984.984 0 0 0 .001 1.403c.322.322.103.307 4.23.286 3.872-.019 4.146-.031 5.1-.226 1.433-.292 2.739-1.086 3.723-2.262.867-1.036 1.313-2.063 1.504-3.46.117-.854.142-1.769.143-5.199V6.422l1.73 1.724c1.551 1.545 1.75 1.73 1.927 1.789.39.129.766.044 1.045-.235a.986.986 0 0 0 .185-1.144c-.061-.126-.829-.919-2.716-2.801-2.39-2.384-2.649-2.631-2.828-2.69a1.053 1.053 0 0 0-.703.003" fill="#667085" fill-rule="evenodd"/></svg>