<svg width="24" height="24" fill="none" xmlns="http://www.w3.org/2000/svg"><path d="M8.643 1.069a1.066 1.066 0 0 0-.577.591C8.011 1.822 8 2.034 8 2.941v1.086l-.437.047c-.777.085-1.264.256-1.863.658-.584.39-1.198 1.186-1.425 1.843-.114.331-.234.984-.235 1.275V8H2.947c-1.257 0-1.369.02-1.648.299a.984.984 0 0 0 0 1.402c.278.278.393.299 1.628.299H4v3H2.927c-1.235 0-1.35.021-1.628.299a.984.984 0 0 0 0 1.402c.278.278.393.299 1.628.299H4v.29c0 .457.076 1.334.144 1.667.248 1.209 1.264 2.366 2.431 2.768.331.114.984.234 1.275.235H8v1.093c0 1.257.02 1.369.299 1.648a.984.984 0 0 0 1.402 0c.278-.278.299-.393.299-1.628V20h4v1.073c0 1.235.021 1.35.299 1.628a.984.984 0 0 0 1.402 0c.278-.278.299-.392.299-1.642v-1.087l.33-.028a6.37 6.37 0 0 0 .63-.089c1.39-.285 2.61-1.506 2.896-2.898.068-.333.144-1.21.144-1.667V15h1.073c1.235 0 1.35-.021 1.628-.299a.984.984 0 0 0 0-1.402c-.278-.278-.393-.299-1.628-.299H20v-3h1.073c1.235 0 1.35-.021 1.628-.299a.984.984 0 0 0 0-1.402C22.422 8.02 22.31 8 21.053 8H19.96v-.15c-.001-.291-.121-.944-.235-1.275-.374-1.086-1.46-2.098-2.553-2.377a6.487 6.487 0 0 0-.735-.124L16 4.027V2.941c0-.907-.011-1.119-.066-1.281C15.808 1.291 15.396 1 15 1s-.808.291-.934.66c-.055.162-.066.373-.066 1.267V4h-4V2.927c0-1.235-.021-1.35-.299-1.628a.998.998 0 0 0-1.058-.23m7.158 4.971c.341.022.723.066.85.099.553.144 1.065.656 1.209 1.209.109.418.14 1.432.14 4.652 0 3.216-.031 4.234-.139 4.651-.142.544-.638 1.05-1.181 1.206-.416.119-1.173.142-4.68.142-3.507 0-4.264-.023-4.68-.142-.543-.156-1.039-.662-1.181-1.206C6.031 16.234 6 15.216 6 12c0-3.22.031-4.234.14-4.652.103-.397.416-.8.811-1.044.239-.148.575-.225 1.142-.261.726-.046 6.991-.049 7.708-.003" fill="#667085" fill-rule="evenodd"/></svg>