<svg width="24" height="24" fill="none" xmlns="http://www.w3.org/2000/svg"><path d="M8.643 1.069a1.118 1.118 0 0 0-.343.229c-.248.248-.3.442-.3 1.129 0 .315-.005.574-.01.575l-.81.039c-1.227.058-1.759.205-2.468.683-.765.516-1.387 1.435-1.568 2.319C3.076 6.376 3 7.253 3 7.71V8h-.573c-.686 0-.881.052-1.128.299a.984.984 0 0 0 0 1.402c.247.247.442.299 1.128.299H3v3h-.573c-.686 0-.881.052-1.128.299a.984.984 0 0 0 0 1.402c.247.247.442.299 1.123.299h.568l.021 1.25c.023 1.373.062 1.669.297 2.273.442 1.137 1.563 2.093 2.735 2.333.333.068 1.21.144 1.667.144H8v.573c0 .686.052.881.299 1.128a.984.984 0 0 0 1.402 0c.247-.247.299-.442.299-1.128V21h4v.573c0 .686.052.881.299 1.128a.984.984 0 0 0 1.402 0c.247-.247.299-.442.299-1.128V21h.29c.457 0 1.334-.076 1.667-.144.935-.192 1.827-.818 2.384-1.673.27-.413.437-.816.548-1.323.066-.3.082-.568.1-1.61L21.01 15h.568c.681 0 .876-.052 1.123-.299a.984.984 0 0 0 0-1.402c-.247-.247-.442-.299-1.128-.299H21v-3h.573c.686 0 .881-.052 1.128-.299a.984.984 0 0 0 0-1.402C22.454 8.052 22.259 8 21.573 8H21v-.29c0-.457-.076-1.334-.144-1.667-.283-1.38-1.491-2.599-2.859-2.885-.236-.05-.676-.093-1.177-.117l-.81-.039a8.777 8.777 0 0 1-.01-.575c0-.686-.052-.881-.299-1.128A1.055 1.055 0 0 0 15 1c-.242 0-.521.119-.701.299-.247.247-.299.442-.299 1.128V3h-4v-.573c0-.686-.052-.881-.299-1.128a.998.998 0 0 0-1.058-.23m8.158 3.971c.341.022.723.066.85.099.553.144 1.065.656 1.209 1.209.114.437.14 1.474.14 5.652 0 4.173-.026 5.216-.139 5.651-.142.544-.638 1.05-1.181 1.206-.432.123-1.173.142-5.68.142s-5.248-.019-5.68-.142c-.543-.156-1.039-.662-1.181-1.206C5.026 17.216 5 16.173 5 12c0-4.178.026-5.215.14-5.652.103-.397.416-.8.811-1.044.239-.148.575-.225 1.142-.261.73-.047 8.984-.049 9.708-.003M9.558 8.055c-.52.111-1.109.566-1.33 1.025C8.003 9.548 8 9.585 8 12c0 1.865.01 2.262.061 2.462.194.755.794 1.34 1.531 1.494.292.061 4.524.061 4.816 0 .546-.114 1.135-.562 1.364-1.036.225-.468.228-.505.228-2.92s-.003-2.452-.228-2.92c-.232-.481-.844-.937-1.389-1.037-.342-.062-4.529-.052-4.825.012m4.401 2.022c.044.084.059 3.67.016 3.833l-.024.09H12c-1.743 0-1.954-.007-1.976-.063-.013-.035-.024-.913-.024-1.952 0-1.416.012-1.901.048-1.937.036-.036.526-.048 1.959-.048 1.848 0 1.912.003 1.952.077" fill="#667085" fill-rule="evenodd"/></svg>