<svg width="24" height="24" fill="none" xmlns="http://www.w3.org/2000/svg"><path d="M3.632 3.041A2.96 2.96 0 0 0 1.041 5.58c-.024.174-.039 2.217-.039 5.42s.015 5.246.039 5.42a2.976 2.976 0 0 0 2.539 2.539c.154.021.694.04 1.2.04.88 0 .929-.004 1.12-.093.62-.29.793-1.061.348-1.554-.28-.309-.343-.325-1.468-.357-.55-.016-1.06-.048-1.134-.071a.955.955 0 0 1-.484-.38c-.137-.222-.159-.743-.161-3.754L3 10h18l-.001 2.75c0 3.005-.024 3.572-.161 3.793a.951.951 0 0 1-.484.381c-.074.023-.584.055-1.134.071-.911.026-1.015.036-1.163.114-.633.332-.743 1.15-.218 1.622.106.096.264.195.352.221.196.059 1.827.064 2.229.007a2.976 2.976 0 0 0 2.539-2.539c.055-.392.055-10.434-.001-10.836a3.018 3.018 0 0 0-.414-1.16c-.175-.28-.575-.711-.806-.868a4.059 4.059 0 0 0-.973-.449l-.305-.087-8.28-.005c-4.554-.003-8.4.009-8.548.026m16.315 1.997c.511.043.684.123.872.408.09.135.111.227.143.607.02.246.037.785.037 1.197L21 8H3l.001-.79c.002-1.122.047-1.564.18-1.765.179-.27.374-.369.795-.404.536-.044 15.44-.047 15.971-.003m-8.28 7.027c-.252.077-.512.335-.601.595-.058.172-.066.463-.066 2.555v2.36l-.73-.723c-.666-.66-.749-.729-.947-.788-.271-.08-.374-.08-.639-.001C8.3 16.176 8 16.588 8 17c0 .08.029.234.065.343.059.176.237.369 1.67 1.81.883.887 1.686 1.661 1.785 1.72.152.091.226.107.48.107s.328-.016.48-.107c.099-.059.902-.833 1.785-1.72 1.433-1.441 1.611-1.634 1.67-1.81.036-.109.065-.263.065-.343 0-.412-.3-.824-.684-.937-.265-.079-.368-.079-.639.001-.198.059-.281.128-.947.788l-.73.723v-2.36c0-2.672.006-2.611-.303-2.92-.269-.27-.635-.351-1.03-.23" fill="#667085" fill-rule="evenodd"/></svg>