<svg width="24" height="24" fill="none" xmlns="http://www.w3.org/2000/svg"><path d="M3.425 2.824a2.954 2.954 0 0 0-2.2 1.795c-.228.569-.225.492-.224 6.116 0 3.253.016 5.268.041 5.444a2.995 2.995 0 0 0 2.032 2.416c.473.155.935.17 4.646.157l3.54-.012.162-.087c.379-.203.559-.498.556-.913-.002-.41-.172-.691-.538-.885-.133-.071-.333-.076-3.86-.099-2.427-.015-3.773-.038-3.872-.066a.94.94 0 0 1-.636-.614c-.033-.097-.051-1.033-.062-3.226l-.016-3.09H20.981l.05.21a.99.99 0 0 0 1.679.468c.283-.289.27-.158.27-2.778 0-2.118-.007-2.388-.07-2.633a3.01 3.01 0 0 0-2.098-2.158L20.5 2.78l-8.38-.007c-7.118-.005-8.427.002-8.695.051M20.458 4.88c.232.117.413.328.467.545.021.085.049.646.062 1.245l.025 1.09H2.988l.024-1.09c.014-.599.042-1.16.063-1.245a.972.972 0 0 1 .404-.522c.072-.042.241-.089.376-.105.135-.015 3.881-.026 8.325-.023l8.08.005.198.1m-2.418 6.905a3.515 3.515 0 0 0-.854.31c-.455.258-.912.723-1.126 1.145-.232.457-.273.657-.297 1.42l-.023.72-.282.02a.941.941 0 0 0-.515.16c-.425.256-.746.701-.883 1.225-.086.331-.086 2.561 0 2.926a2.034 2.034 0 0 0 1.417 1.465c.19.056.572.064 3.023.064 3.083 0 2.986.007 3.468-.248.278-.148.665-.541.807-.822.199-.393.224-.604.224-1.932.001-1.326-.016-1.472-.229-1.91-.131-.268-.473-.629-.747-.789a1.002 1.002 0 0 0-.48-.137l-.283-.022-.025-.72c-.027-.8-.076-1.012-.345-1.5-.187-.34-.71-.863-1.05-1.05-.434-.239-.721-.316-1.24-.331a5.088 5.088 0 0 0-.56.006m.772 2.04c.348.176.428.354.428.953v.462h-1.48v-.462c0-.594.078-.771.42-.951.157-.083.47-.084.632-.002m2.149 3.495c.041.065.053 1.683.014 1.83l-.024.09H16.042l-.023-.09c-.012-.049-.017-.486-.01-.97l.011-.88.14-.026c.077-.014 1.18-.023 2.451-.02 2.007.005 2.317.014 2.35.066" fill="#667085" fill-rule="evenodd"/></svg>