<svg width="24" height="24" fill="none" xmlns="http://www.w3.org/2000/svg"><path d="M3.632 3.041a2.853 2.853 0 0 0-.99.3c-.354.182-.455.254-.735.526a2.955 2.955 0 0 0-.866 1.713c-.024.174-.039 2.217-.039 5.42s.015 5.246.039 5.42a2.972 2.972 0 0 0 2.539 2.539c.426.06 8.025.055 8.229-.007.088-.026.246-.125.352-.221.525-.472.416-1.284-.218-1.624l-.163-.087-4-.022c-2.885-.016-4.037-.035-4.134-.068a1.008 1.008 0 0 1-.484-.386c-.137-.222-.159-.743-.161-3.754L3 10h17.991l.027.179c.036.243.24.533.479.68.174.107.232.121.5.121.259 0 .33-.016.492-.111a1.19 1.19 0 0 0 .289-.243c.221-.29.222-.297.222-2.608 0-2.25-.017-2.54-.182-3.023-.174-.512-.651-1.147-1.08-1.439a4.059 4.059 0 0 0-.973-.449l-.305-.087-8.28-.005c-4.554-.003-8.4.009-8.548.026m16.315 1.997c.511.043.684.123.872.408.09.135.111.227.143.607.02.246.037.785.037 1.197L21 8H3l.001-.79c.002-1.122.047-1.564.18-1.765.179-.27.374-.369.795-.404.536-.044 15.44-.047 15.971-.003m-2.553 7.025c-.338.061-2.583.845-2.884 1.007a1.08 1.08 0 0 0-.293.237c-.218.286-.224.347-.208 2.1l.015 1.613.108.352c.185.6.495 1.142.962 1.682.482.556 1.434 1.29 2.246 1.731.34.184.377.195.66.195.283 0 .32-.011.659-.195a8.7 8.7 0 0 0 2.006-1.487c.601-.603.984-1.217 1.203-1.927l.108-.351.015-1.613c.016-1.753.01-1.814-.208-2.1-.153-.2-.368-.298-1.674-.763-1.543-.549-1.946-.621-2.715-.481m1.766 2.265.82.293V16.74l-.144.3c-.183.38-.447.73-.788 1.043-.299.274-.946.717-1.048.717-.125 0-.821-.497-1.145-.818-.375-.371-.653-.78-.773-1.135-.077-.23-.083-.324-.073-1.237l.011-.988.7-.253c1.291-.466 1.255-.465 2.44-.041" fill="#667085" fill-rule="evenodd"/></svg>