<svg width="24" height="24" fill="none" xmlns="http://www.w3.org/2000/svg"><path d="M10.643 2.069a1.066 1.066 0 0 0-.577.591c-.138.405-.051.742.283 1.103l.22.237H7.294c-1.965.001-3.416.017-3.63.041-1.376.158-2.429 1.177-2.623 2.539-.054.38-.054 10.46 0 10.84a2.976 2.976 0 0 0 2.539 2.539c.154.021 1.019.04 1.923.04 1.867.001 1.904-.004 2.198-.298a.984.984 0 0 0 0-1.402C7.412 18.01 7.348 18 5.703 18c-2.053-.001-2.241-.033-2.515-.428-.166-.24-.185-.625-.187-3.782L3 11h18l-.001 2.75c0 1.513-.017 2.952-.038 3.2-.033.403-.049.467-.158.626-.175.254-.338.34-.73.385-.185.021-1.739.039-3.487.039h-3.155l.22-.237c.334-.361.421-.698.283-1.103a1.011 1.011 0 0 0-1.012-.651c-.364.035-.486.132-1.667 1.32-.986.992-1.132 1.155-1.189 1.328a.976.976 0 0 0 0 .686c.057.173.203.336 1.189 1.328 1.181 1.188 1.303 1.285 1.667 1.32.425.041.875-.248 1.012-.651.138-.405.051-.742-.283-1.103l-.22-.237h3.342c2.173 0 3.45-.015 3.652-.043a2.977 2.977 0 0 0 2.534-2.537c.024-.174.039-2.217.039-5.42s-.015-5.246-.039-5.42c-.174-1.215-1.036-2.17-2.246-2.485-.211-.056-.549-.069-2.042-.084-2.044-.021-2.066-.018-2.371.287a.984.984 0 0 0-.001 1.403c.287.287.362.299 1.918.3 1.691.002 2.118.035 2.338.18.284.188.364.361.407.872.02.246.037.785.037 1.197L21 9H3l.001-.79c.002-1.093.05-1.582.172-1.767.18-.272.363-.361.831-.403.229-.02 1.799-.038 3.49-.039L10.569 6l-.22.237c-.443.479-.463 1.051-.05 1.464.278.279.655.363 1.044.233.173-.057.334-.202 1.309-1.17 1.245-1.236 1.317-1.333 1.32-1.775.002-.418-.072-.516-1.319-1.753-.975-.968-1.137-1.113-1.31-1.17a1.026 1.026 0 0 0-.7.003" fill="#667085" fill-rule="evenodd"/></svg>