<svg width="24" height="24" fill="none" xmlns="http://www.w3.org/2000/svg"><path d="M3.632 3.041A2.96 2.96 0 0 0 1.041 5.58c-.024.174-.039 2.217-.039 5.42s.015 5.246.039 5.42a2.976 2.976 0 0 0 2.539 2.539c.389.055 8.509.055 8.709-.001.22-.061.473-.273.585-.489a.985.985 0 0 0-.176-1.173c-.31-.311-.088-.296-4.515-.296-2.266 0-4.065-.017-4.26-.039-.386-.045-.58-.148-.744-.395-.156-.236-.176-.668-.178-3.776L3 10h18l.002.59c.001.387.02.642.055.74.079.221.241.414.454.539.161.095.233.111.489.111s.328-.016.489-.111a1.19 1.19 0 0 0 .289-.243c.225-.295.222-.251.222-3.108 0-2.771-.013-3.028-.182-3.523-.174-.512-.651-1.147-1.08-1.439a4.059 4.059 0 0 0-.973-.449l-.305-.087-8.28-.005c-4.554-.003-8.4.009-8.548.026m16.315 1.997c.511.043.684.123.872.408.09.135.111.227.143.607.02.246.037.785.037 1.197L21 8H3l.001-.79c.002-1.122.047-1.564.18-1.765.179-.27.374-.369.795-.404.536-.044 15.44-.047 15.971-.003m-1.28 8.027c-.252.077-.512.335-.601.595-.058.17-.066.428-.066 2.055v1.86l-.73-.723c-.666-.66-.749-.729-.947-.788-.271-.08-.374-.08-.639-.001-.384.113-.684.525-.684.937 0 .08.029.234.065.343.059.176.237.369 1.67 1.81.883.887 1.686 1.661 1.785 1.72.152.091.226.107.48.107s.328-.016.48-.107c.099-.059.902-.833 1.785-1.72 1.433-1.441 1.611-1.634 1.67-1.81.036-.109.065-.263.065-.343 0-.412-.3-.824-.684-.937-.265-.079-.368-.079-.639.001-.198.059-.281.128-.947.788l-.73.723v-1.86c0-2.114 0-2.118-.303-2.42-.269-.27-.635-.351-1.03-.23" fill="#667085" fill-rule="evenodd"/></svg>