<svg width="24" height="24" fill="none" xmlns="http://www.w3.org/2000/svg"><path d="M3.54 3.548c-1.139.161-2.107 1.021-2.431 2.16l-.088.312-.012 5.317c-.012 5.778-.014 5.722.208 6.271.38.941 1.164 1.598 2.176 1.823.279.063.69.069 4.547.069 4.672 0 4.413.014 4.712-.255.451-.407.455-1.087.007-1.48-.294-.259-.06-.245-4.128-.246-3.626-.001-4.708-.027-4.951-.119-.144-.054-.365-.258-.445-.412-.107-.203-.132-.904-.134-3.698L3 10.52h18v.59c.001.534.01.609.094.79.305.653 1.141.801 1.617.286.307-.334.294-.181.28-3.346-.013-2.761-.015-2.826-.101-3.132a3.064 3.064 0 0 0-2.071-2.093c-.228-.07-.642-.073-8.699-.078-4.653-.003-8.514.002-8.58.011m16.656 2.011c.368.053.645.29.729.624.021.086.049.647.063 1.247l.024 1.09H2.988l.024-1.09c.014-.6.042-1.161.063-1.247a.86.86 0 0 1 .691-.622c.31-.045 16.119-.047 16.43-.002m1.404 9.024c-.087.038-.79.709-1.87 1.788l-1.729 1.727-.731-.727c-.454-.452-.787-.751-.879-.789-.184-.077-.589-.08-.765-.007-.514.215-.763.836-.53 1.325.139.292 2.333 2.468 2.564 2.542.204.066.476.066.68.001.232-.075 4.422-4.245 4.564-4.543.233-.489-.016-1.11-.53-1.325-.173-.072-.597-.068-.774.008" fill="#667085" fill-rule="evenodd"/></svg>