<svg width="24" height="24" fill="none" xmlns="http://www.w3.org/2000/svg"><path d="M3.632 3.041a2.853 2.853 0 0 0-.99.3c-.354.182-.455.254-.735.526a2.955 2.955 0 0 0-.866 1.713c-.024.174-.039 2.217-.039 5.42s.015 5.246.039 5.42a2.976 2.976 0 0 0 2.539 2.539c.388.055 7.51.054 7.709-.001.22-.061.473-.273.585-.489a.985.985 0 0 0-.176-1.173c-.308-.308-.145-.296-4.015-.296-1.944 0-3.568-.017-3.76-.039-.386-.045-.58-.148-.744-.395-.156-.236-.176-.668-.178-3.776L3 10h9.57c6.469 0 9.618-.014 9.719-.042.223-.062.474-.274.589-.497l.102-.199.012-1.661c.007-1.022-.005-1.786-.031-1.987a3.007 3.007 0 0 0-.417-1.19c-.175-.28-.575-.711-.806-.868a4.059 4.059 0 0 0-.973-.449l-.305-.087-8.28-.005c-4.554-.003-8.4.009-8.548.026m16.315 1.997c.511.043.684.123.872.408.09.135.111.227.143.607.02.246.037.785.037 1.197L21 8H3l.001-.79c.002-1.122.047-1.564.18-1.765.179-.27.374-.369.795-.404.536-.044 15.44-.047 15.971-.003m-.059 6.643c-.627.164-.57.115-3.214 2.756-2.248 2.246-2.434 2.442-2.55 2.69-.097.206-.184.561-.385 1.566-.233 1.162-.256 1.32-.219 1.488.055.245.124.372.287.525a.96.96 0 0 0 .608.28c.299.028 2.633-.45 2.965-.607.21-.1.536-.409 2.615-2.477 1.495-1.487 2.432-2.45 2.53-2.599.5-.759.498-1.844-.005-2.609a2.424 2.424 0 0 0-2.632-1.013m.887 2.025c.125.125.164.251.127.404-.018.074-.739.821-2.214 2.295L16.5 18.59l-.337.065c-.185.035-.345.056-.355.046-.01-.01.013-.178.051-.374l.069-.357 2.188-2.185 2.187-2.185h.183c.145 0 .205.022.289.106" fill="#667085" fill-rule="evenodd"/></svg>