<svg width="24" height="24" fill="none" xmlns="http://www.w3.org/2000/svg"><path d="M3.61 4.044c-1.319.155-2.378 1.202-2.569 2.536-.024.174-.039 2.217-.039 5.42s.015 5.246.039 5.42a2.976 2.976 0 0 0 2.539 2.539c.403.057 16.431.055 16.845-.002a2.977 2.977 0 0 0 2.534-2.537c.054-.38.054-10.46 0-10.84-.173-1.215-1.022-2.155-2.246-2.488-.235-.065-.829-.07-8.533-.076-4.554-.004-8.41.009-8.57.028m16.378 1.995c.468.043.649.131.831.407.09.135.111.227.143.607.02.246.037.785.037 1.197L21 9H3l.001-.79c.002-1.113.049-1.581.178-1.776.171-.258.362-.356.768-.392.506-.044 15.546-.047 16.041-.003m1.011 7.711c0 1.513-.017 2.952-.038 3.2-.033.403-.049.467-.158.626-.175.254-.338.34-.73.385-.45.052-15.699.052-16.15 0-.386-.045-.56-.137-.735-.389-.166-.24-.185-.625-.187-3.782L3 11h18l-.001 2.75m-15.356-.681C5.291 13.193 5 13.614 5 14c0 .242.119.521.299.701.307.308.215.299 3.201.299s2.894.009 3.201-.299c.18-.18.299-.459.299-.701 0-.242-.119-.521-.299-.701-.308-.308-.213-.299-3.218-.296-2.304.003-2.687.012-2.84.066" fill="#667085" fill-rule="evenodd"/></svg>