<svg width="24" height="24" fill="none" xmlns="http://www.w3.org/2000/svg"><path d="M3.54 2.548c-1.139.161-2.107 1.021-2.431 2.16l-.088.312-.012 5.317c-.012 5.778-.014 5.722.208 6.271.38.941 1.164 1.598 2.176 1.823.277.062.65.069 3.827.069h3.52l.2-.106c.233-.123.34-.232.45-.454.122-.247.143-.436.073-.675-.087-.3-.258-.515-.507-.64l-.212-.105-2.962-.001c-2.926-.001-3.968-.03-4.202-.119-.144-.054-.365-.258-.445-.412-.107-.203-.132-.904-.134-3.698L3 9.52h18v.59c.001.534.01.609.094.79.305.653 1.141.801 1.617.286.307-.334.294-.181.28-3.346-.013-2.761-.015-2.826-.101-3.132a3.064 3.064 0 0 0-2.071-2.093c-.228-.07-.642-.073-8.699-.078-4.653-.003-8.514.002-8.58.011m16.656 2.011c.368.053.645.29.729.624.021.086.049.647.063 1.247l.024 1.09H2.988l.024-1.09c.014-.6.042-1.161.063-1.247a.86.86 0 0 1 .691-.622c.31-.045 16.119-.047 16.43-.002m-2.798 7.485c-1.007.13-2.107.726-2.779 1.506-1.006 1.167-1.352 2.655-.959 4.123.534 1.994 2.441 3.406 4.48 3.315.679-.031 1.263-.209 1.94-.593l.26-.148.58.571c.618.609.725.676 1.08.676.701 0 1.199-.746.917-1.374-.053-.119-.264-.364-.622-.724l-.542-.544.185-.341c.444-.822.623-1.627.54-2.426-.263-2.545-2.554-4.368-5.08-4.041m1.114 2.019c.766.155 1.38.639 1.727 1.357.187.388.241.635.24 1.092 0 .422-.077.766-.244 1.098-.928 1.846-3.542 1.846-4.47 0-.169-.335-.244-.677-.244-1.11 0-.447.079-.793.26-1.137.264-.501.628-.86 1.118-1.1a2.47 2.47 0 0 1 1.613-.2" fill="#667085" fill-rule="evenodd"/></svg>