<svg width="24" height="24" fill="none" xmlns="http://www.w3.org/2000/svg"><path d="M3.632 3.041A2.96 2.96 0 0 0 1.041 5.58c-.024.174-.039 2.217-.039 5.42s.015 5.246.039 5.42a2.976 2.976 0 0 0 2.539 2.539c.389.055 8.509.055 8.709-.001.22-.061.473-.273.585-.489a.985.985 0 0 0-.176-1.173c-.31-.311-.088-.296-4.515-.296-2.266 0-4.065-.017-4.26-.039-.386-.045-.58-.148-.744-.395-.156-.236-.176-.668-.178-3.776L3 10h18l.002.59c.001.387.02.642.055.74.079.221.241.414.454.539.161.095.233.111.489.111s.328-.016.489-.111a1.19 1.19 0 0 0 .289-.243c.225-.295.222-.251.222-3.108 0-2.771-.013-3.028-.182-3.523-.174-.512-.651-1.147-1.08-1.439a4.059 4.059 0 0 0-.973-.449l-.305-.087-8.28-.005c-4.554-.003-8.4.009-8.548.026m16.315 1.997c.511.043.684.123.872.408.09.135.111.227.143.607.02.246.037.785.037 1.197L21 8H3l.001-.79c.002-1.122.047-1.564.18-1.765.179-.27.374-.369.795-.404.536-.044 15.44-.047 15.971-.003m-3.707 8.997c-.452.148-.731.515-.732.965-.002.387.076.493 1.108 1.52.519.517.944.958.944.98 0 .022-.425.463-.944.98-1.033 1.028-1.11 1.134-1.108 1.52a.928.928 0 0 0 .332.733c.21.188.414.267.685.266.34-.002.475-.103 1.504-1.13l.97-.967 1.01 1.002c1.083 1.073 1.115 1.097 1.516 1.096.349-.001.755-.281.899-.62a1.077 1.077 0 0 0-.013-.78c-.059-.129-.35-.447-1.027-1.12-.519-.517-.944-.958-.944-.98 0-.022.425-.463.944-.98 1.032-1.027 1.11-1.133 1.108-1.52a.993.993 0 0 0-.552-.892c-.211-.113-.656-.119-.86-.013-.077.04-.577.507-1.11 1.039l-.97.965-.97-.965c-.533-.532-1.031-.997-1.106-1.034-.156-.078-.535-.114-.684-.065" fill="#667085" fill-rule="evenodd"/></svg>