<svg width="24" height="24" fill="none" xmlns="http://www.w3.org/2000/svg"><path d="M3.632 3.041A2.96 2.96 0 0 0 1.041 5.58c-.024.174-.039 2.217-.039 5.42s.015 5.246.039 5.42a2.976 2.976 0 0 0 2.539 2.539c.154.021.694.04 1.2.04.88 0 .929-.004 1.12-.093.62-.29.793-1.061.348-1.554-.28-.309-.343-.325-1.468-.357-.55-.016-1.06-.048-1.134-.071a.955.955 0 0 1-.484-.38c-.137-.222-.159-.743-.161-3.754L3 10h18l-.001 2.75c0 3.005-.024 3.572-.161 3.793a.951.951 0 0 1-.484.381c-.074.023-.584.055-1.134.071-.911.026-1.015.036-1.163.114-.633.332-.743 1.15-.218 1.622.106.096.264.195.352.221.196.059 1.827.064 2.229.007a2.976 2.976 0 0 0 2.539-2.539c.055-.392.055-10.434-.001-10.836a3.018 3.018 0 0 0-.414-1.16c-.175-.28-.575-.711-.806-.868a4.059 4.059 0 0 0-.973-.449l-.305-.087-8.28-.005c-4.554-.003-8.4.009-8.548.026m16.315 1.997c.511.043.684.123.872.408.09.135.111.227.143.607.02.246.037.785.037 1.197L21 8H3l.001-.79c.002-1.122.047-1.564.18-1.765.179-.27.374-.369.795-.404.536-.044 15.44-.047 15.971-.003m-8.287 7.026c-.182.057-.344.207-1.831 1.689-1.131 1.128-1.657 1.68-1.716 1.801a.998.998 0 0 0 .395 1.313c.165.097.234.113.492.112.213 0 .34-.022.44-.075.077-.04.46-.39.85-.777l.71-.704.002 2.378c.001 1.883.013 2.41.055 2.529.079.221.241.414.454.539.161.095.233.111.489.111s.328-.016.489-.111a1.19 1.19 0 0 0 .289-.243c.223-.293.222-.276.222-2.84v-2.363l.71.704c.391.387.773.737.85.777.1.053.227.075.44.075.257.001.327-.015.489-.11.431-.253.606-.729.446-1.212-.059-.176-.237-.369-1.69-1.828-1.097-1.101-1.68-1.658-1.793-1.713a1.146 1.146 0 0 0-.792-.052" fill="#667085" fill-rule="evenodd"/></svg>