<svg width="24" height="24" fill="none" xmlns="http://www.w3.org/2000/svg"><path d="M3.632 3.041A2.96 2.96 0 0 0 1.041 5.58c-.024.174-.039 2.217-.039 5.42s.015 5.246.039 5.42a2.976 2.976 0 0 0 2.539 2.539c.389.055 8.509.055 8.709-.001.22-.061.473-.273.585-.489a.985.985 0 0 0-.176-1.173c-.31-.311-.088-.296-4.515-.296-2.266 0-4.065-.017-4.26-.039-.386-.045-.58-.148-.744-.395-.156-.236-.176-.668-.178-3.776L3 10h18l.002.59c.001.387.02.642.055.74.079.221.241.414.454.539.161.095.233.111.489.111s.328-.016.489-.111a1.19 1.19 0 0 0 .289-.243c.225-.295.222-.251.222-3.108 0-2.771-.013-3.028-.182-3.523-.174-.512-.651-1.147-1.08-1.439a4.059 4.059 0 0 0-.973-.449l-.305-.087-8.28-.005c-4.554-.003-8.4.009-8.548.026m16.315 1.997c.511.043.684.123.872.408.09.135.111.227.143.607.02.246.037.785.037 1.197L21 8H3l.001-.79c.002-1.122.047-1.564.18-1.765.179-.27.374-.369.795-.404.536-.044 15.44-.047 15.971-.003m-1.287 8.026c-.182.057-.344.207-1.831 1.689-1.131 1.128-1.657 1.68-1.716 1.801a.998.998 0 0 0 .395 1.313c.165.097.234.113.492.112.213 0 .34-.022.44-.075.077-.04.459-.39.85-.777l.71-.704.002 1.878c.001 1.465.013 1.912.055 2.029.079.221.241.414.454.539.161.095.233.111.489.111s.328-.016.489-.111a1.19 1.19 0 0 0 .289-.243c.219-.287.222-.321.222-2.34v-1.863l.71.704c.391.387.773.737.85.777.1.053.227.075.44.075.257.001.327-.015.489-.11.431-.253.606-.729.446-1.212-.059-.176-.237-.369-1.69-1.828-1.097-1.101-1.68-1.658-1.793-1.713a1.146 1.146 0 0 0-.792-.052" fill="#667085" fill-rule="evenodd"/></svg>