<svg width="24" height="24" fill="none" xmlns="http://www.w3.org/2000/svg"><path d="M5.643 1.069a1.066 1.066 0 0 0-.577.591C5.009 1.828 5 2.068 5 3.427V5H3.427c-1.789 0-1.836.006-2.128.299a.984.984 0 0 0 0 1.402c.292.293.339.299 2.128.299H5l.001 4.57c0 2.819.016 4.677.04 4.85a2.976 2.976 0 0 0 2.539 2.539c.173.024 2.031.04 4.85.04L17 19v1.573c0 1.789.006 1.836.299 2.128a.984.984 0 0 0 1.402 0c.293-.292.299-.339.299-2.128V19h1.573c1.789 0 1.836-.006 2.128-.299a.984.984 0 0 0 0-1.402c-.292-.293-.339-.299-2.128-.299H19l-.001-4.57c0-2.819-.016-4.677-.04-4.85-.173-1.215-1.025-2.158-2.246-2.488-.23-.062-.674-.069-4.983-.082L7 4.997V3.426c0-1.788-.007-1.835-.299-2.127a.998.998 0 0 0-1.058-.23m10.345 5.97c.468.043.649.131.831.407.09.135.111.227.143.607.02.246.037 2.359.037 4.697L17 17h-4.37c-2.554 0-4.51-.017-4.707-.039-.386-.045-.56-.137-.735-.389-.094-.136-.116-.222-.148-.576-.02-.229-.038-2.346-.039-4.706L7 7l4.29.001c2.36.001 4.474.018 4.698.038" fill="#667085" fill-rule="evenodd"/></svg>