<svg width="24" height="24" fill="none" xmlns="http://www.w3.org/2000/svg"><path d="M5.643 1.069a1.066 1.066 0 0 0-.577.591C5.009 1.828 5 2.068 5 3.427V5H3.427c-1.789 0-1.836.006-2.128.299a.984.984 0 0 0 0 1.402c.292.293.339.299 2.128.299H5l.001 4.57c0 2.819.016 4.677.04 4.85a2.976 2.976 0 0 0 2.539 2.539c.173.024 2.031.04 4.85.04L17 19v1.573c0 1.789.006 1.836.299 2.128a.984.984 0 0 0 1.402 0c.293-.292.299-.339.299-2.128V19h1.573c1.789 0 1.836-.006 2.128-.299a.984.984 0 0 0 0-1.402c-.324-.324.298-.299-7.498-.299-4.211 0-7.075-.016-7.28-.039-.386-.045-.56-.137-.735-.389-.094-.136-.116-.222-.148-.576-.021-.239-.038-3.342-.039-7.279-.001-7.706.024-7.095-.3-7.418a.998.998 0 0 0-1.058-.23m4 3.999C9.29 5.195 9 5.614 9 6c0 .242.119.521.299.701.309.309.19.299 3.418.3 1.575.001 3.047.018 3.271.038.468.043.649.131.831.407.159.24.18.677.18 3.877.001 3.183-.009 3.069.3 3.378a.984.984 0 0 0 1.402 0c.312-.311.299-.157.298-3.698 0-1.871-.017-3.256-.04-3.423-.174-1.215-1.028-2.162-2.246-2.487-.226-.061-.602-.069-3.573-.078-2.948-.01-3.34-.004-3.497.053" fill="#667085" fill-rule="evenodd"/></svg>