<svg width="24" height="24" fill="none" xmlns="http://www.w3.org/2000/svg"><path d="M6.899 1.757c-.538.277-1.318.787-1.802 1.177-2.185 1.761-3.579 4.231-4.001 7.086-.149 1.007-.096 2.838.095 3.268.204.463.721.693 1.218.544.209-.062.526-.35.605-.55.086-.213.09-.36.028-1.06a8.975 8.975 0 0 1 .744-4.4c.805-1.815 2.323-3.425 4.058-4.303.397-.201.547-.332.661-.577a1.01 1.01 0 0 0-.183-1.134c-.193-.193-.35-.259-.663-.279-.28-.018-.283-.017-.76.228m9.135-.181c-.533.19-.784.8-.552 1.34.105.243.273.4.61.569 3.208 1.605 5.188 5.161 4.866 8.737-.03.329-.052.657-.049.729.009.227.097.418.28.615a.985.985 0 0 0 1.621-.28c.193-.435.243-2.287.089-3.286-.35-2.284-1.233-4.187-2.712-5.846a11.11 11.11 0 0 0-3.077-2.392c-.418-.215-.495-.242-.7-.24a1.401 1.401 0 0 0-.376.054M11.12 5.06a6.083 6.083 0 0 0-2.08.666c-1.897.978-3.162 2.756-3.483 4.894-.061.411-.061 1.348 0 1.76.106.706.413 1.64.726 2.202a7 7 0 0 0 2.318 2.445 6.52 6.52 0 0 0 3.929.941c1.598-.145 2.911-.762 4.052-1.905.703-.705 1.096-1.29 1.437-2.141a6.138 6.138 0 0 0 .472-2.422c0-.62-.047-1.002-.196-1.599-.565-2.274-2.409-4.117-4.704-4.703a6.906 6.906 0 0 0-2.471-.138m1.5 1.982a4.366 4.366 0 0 1 2.46 1.186 4.486 4.486 0 0 1 1.269 2.114c.103.372.11.447.109 1.158-.002.697-.011.793-.11 1.159a4.512 4.512 0 0 1-5.468 3.195c-1.539-.384-2.809-1.641-3.228-3.195-.098-.363-.107-.466-.11-1.139-.003-.938.086-1.341.458-2.081.466-.926 1.372-1.751 2.329-2.12a4.597 4.597 0 0 1 2.291-.277m-6.9 11.641c-.39.177-.578.468-.578.897 0 .461.145.659.798 1.089a11.068 11.068 0 0 0 4.815 1.752c.647.076 1.843.076 2.49 0 1.727-.202 3.371-.8 4.815-1.752.653-.43.798-.628.798-1.089 0-.327-.09-.534-.317-.734-.223-.196-.4-.254-.722-.239-.279.014-.288.018-.82.365C15.44 19.99 13.817 20.48 12 20.48a8.44 8.44 0 0 1-2.186-.261 9.058 9.058 0 0 1-2.756-1.209c-.265-.174-.542-.338-.616-.363a1.094 1.094 0 0 0-.722.036" fill="#667085" fill-rule="evenodd"/></svg>