<svg width="24" height="24" fill="none" xmlns="http://www.w3.org/2000/svg"><path d="M1.643 1.069C1.291 1.193 1 1.614 1 2c0 .08.03.234.066.343.057.173.203.336 1.189 1.328.771.775 1.179 1.158 1.3 1.216a.993.993 0 0 0 1.332-1.332c-.058-.121-.441-.529-1.216-1.3-.992-.986-1.155-1.132-1.328-1.189a1.026 1.026 0 0 0-.7.003m6 0a1.066 1.066 0 0 0-.577.591C7.012 1.819 7 2.022 7 2.777c.001.883.005.932.094 1.123.051.11.166.265.254.345.497.448 1.268.277 1.558-.345.089-.191.093-.24.094-1.123 0-1.07-.028-1.207-.299-1.478a.998.998 0 0 0-1.058-.23m8 0a1.118 1.118 0 0 0-.343.229c-.303.303-.3.274-.3 2.702 0 2.427-.003 2.399.299 2.701a.984.984 0 0 0 1.402 0C17.003 6.399 17 6.427 17 4s.003-2.399-.299-2.701a.998.998 0 0 0-1.058-.23m5.997-.001c-.149.052-.373.255-1.311 1.187-.775.77-1.158 1.179-1.216 1.3a.993.993 0 0 0 1.332 1.332c.121-.058.529-.441 1.3-1.216.986-.992 1.132-1.155 1.189-1.328.13-.389.046-.766-.233-1.044a1.005 1.005 0 0 0-1.061-.231M1.643 7.069C1.291 7.193 1 7.614 1 8c0 .242.119.521.299.701C1.601 9.003 1.573 9 4 9s2.399.003 2.701-.299C6.881 8.521 7 8.242 7 8c0-.242-.119-.521-.299-.701-.303-.303-.271-.299-2.718-.296-1.851.003-2.188.012-2.34.066m9.697-.023c-.974.124-2.006.617-2.756 1.318a5.236 5.236 0 0 0-1.431 2.416c-.121.456-.127.517-.127 1.22s.006.764.127 1.22a5.088 5.088 0 0 0 3.633 3.629c.449.118.513.125 1.214.125s.765-.007 1.214-.125a5.248 5.248 0 0 0 2.231-1.239c.642-.606 1.168-1.502 1.402-2.39.121-.456.127-.517.127-1.22s-.006-.764-.127-1.22a5.037 5.037 0 0 0-5.507-3.734m8.9-.009a1.05 1.05 0 0 0-.488.315c-.445.493-.272 1.265.348 1.554.191.089.24.093 1.123.094 1.07 0 1.207-.028 1.478-.299a.984.984 0 0 0 0-1.402c-.271-.271-.41-.3-1.458-.296-.497.002-.948.018-1.003.034m-7.46 2.065c1.014.271 1.844 1.106 2.125 2.138.097.359.097 1.161 0 1.52a3.069 3.069 0 0 1-1.604 1.94c-.455.217-.735.277-1.301.277s-.846-.06-1.301-.277a3.069 3.069 0 0 1-1.604-1.94c-.097-.359-.097-1.161 0-1.52a3.042 3.042 0 0 1 2.395-2.198c.286-.052.997-.019 1.29.06M1.643 15.067C1.289 15.195 1 15.614 1 16c0 .396.291.808.66.934.159.054.362.066 1.117.066.883-.001.932-.005 1.123-.094a.994.994 0 0 0 .043-1.799c-.153-.082-.221-.087-1.143-.095-.81-.007-1.011.003-1.157.055m16 .001c-.353.126-.643.546-.643.932 0 .242.119.521.299.701.299.299.299.299 2.478.299l1.923-.001.2-.093a.994.994 0 0 0 .043-1.799c-.161-.086-.193-.087-2.143-.095-1.715-.006-2.004.001-2.157.056m-10 2.001a1.118 1.118 0 0 0-.343.229c-.303.303-.3.274-.3 2.702 0 2.427-.003 2.399.299 2.701a.984.984 0 0 0 1.402 0C9.003 22.399 9 22.427 9 20s.003-2.399-.299-2.701a.998.998 0 0 0-1.058-.23M3.64 19.068c-.149.052-.373.255-1.311 1.187-.775.77-1.158 1.179-1.216 1.3a.993.993 0 0 0 1.332 1.332c.121-.058.529-.441 1.3-1.216.986-.992 1.132-1.155 1.189-1.328.13-.389.046-.766-.233-1.044a1.005 1.005 0 0 0-1.061-.231m16.003.001c-.352.124-.643.545-.643.931 0 .08.03.234.066.343.057.173.203.336 1.189 1.328.771.775 1.179 1.158 1.3 1.216a.993.993 0 0 0 1.332-1.332c-.058-.121-.441-.529-1.216-1.3-.992-.986-1.155-1.132-1.328-1.189a1.026 1.026 0 0 0-.7.003m-4.026.508a1.156 1.156 0 0 0-.523.523c-.089.191-.093.241-.094 1.123 0 1.07.028 1.207.299 1.478a.984.984 0 0 0 1.402 0c.271-.271.299-.408.299-1.478-.001-.882-.005-.932-.094-1.123a1.146 1.146 0 0 0-.532-.525c-.166-.07-.596-.069-.757.002" fill="#667085" fill-rule="evenodd"/></svg>