<svg width="24" height="24" fill="none" xmlns="http://www.w3.org/2000/svg"><path d="M6.899 1.757c-.538.277-1.318.787-1.802 1.177-2.185 1.761-3.579 4.231-4.001 7.086-.149 1.007-.096 2.838.095 3.268.204.463.721.693 1.218.544.209-.062.526-.35.605-.55.086-.213.09-.36.028-1.06a8.975 8.975 0 0 1 .744-4.4c.805-1.815 2.323-3.425 4.058-4.303.397-.201.547-.332.661-.577a1.01 1.01 0 0 0-.183-1.134c-.193-.193-.35-.259-.663-.279-.28-.018-.283-.017-.76.228m9.135-.181c-.533.19-.784.8-.552 1.34.105.243.273.4.61.569 3.208 1.605 5.188 5.161 4.866 8.737-.03.329-.052.657-.049.729.009.227.097.418.28.615a.985.985 0 0 0 1.621-.28c.193-.435.243-2.287.089-3.286-.35-2.284-1.233-4.187-2.712-5.846a11.11 11.11 0 0 0-3.077-2.392c-.418-.215-.495-.242-.7-.24a1.401 1.401 0 0 0-.376.054m-4.537 3.215a1.83 1.83 0 0 0-.4.218c-.108.08-1.415 1.367-2.903 2.858-2.102 2.107-2.728 2.758-2.805 2.913-.215.437-.234.824-.064 1.289.08.219.232.379 2.947 3.099C11.548 18.45 11.319 18.26 12 18.26s.452.19 3.728-3.092c2.715-2.72 2.867-2.88 2.947-3.099.17-.464.151-.851-.064-1.289-.077-.156-.71-.811-2.905-3.005-3.186-3.184-2.992-3.022-3.644-3.044-.273-.01-.412.005-.565.06M14.3 9.2l2.28 2.28-2.29 2.29L12 16.06l-2.29-2.29-2.29-2.29L9.7 9.2A187.994 187.994 0 0 1 12 6.92c.011 0 1.046 1.026 2.3 2.28m-8.58 9.483c-.39.177-.578.468-.578.897 0 .461.145.659.798 1.089a11.068 11.068 0 0 0 4.815 1.752c.647.076 1.843.076 2.49 0 1.727-.202 3.371-.8 4.815-1.752.653-.43.798-.628.798-1.089 0-.311-.083-.517-.284-.708-.254-.24-.694-.338-1.016-.225-.074.025-.351.189-.616.363a9.175 9.175 0 0 1-3.782 1.407c-.629.081-1.691.081-2.326-.001a9.191 9.191 0 0 1-3.776-1.406c-.265-.174-.542-.338-.616-.363a1.094 1.094 0 0 0-.722.036" fill="#667085" fill-rule="evenodd"/></svg>