<svg width="24" height="24" fill="none" xmlns="http://www.w3.org/2000/svg"><path d="M11.571 1.119c-.093.02-.249.072-.346.114-.252.112-1.981 1.077-2.131 1.19a1.02 1.02 0 0 0-.23.304.99.99 0 0 0 .897 1.441c.268 0 .279-.005 1.436-.648L12 3.073l.803.447c1.157.643 1.168.648 1.436.648a.99.99 0 0 0 .897-1.441 1.02 1.02 0 0 0-.23-.304c-.192-.145-1.935-1.106-2.201-1.215-.263-.107-.838-.152-1.134-.089M4.92 4.736c-.203.08-1.708.929-1.92 1.083a2.392 2.392 0 0 1-.384.219 1.302 1.302 0 0 0-.355.241c-.144.147-.148.159-.103.295.038.116.036.159-.013.234-.121.189-.15.551-.137 1.732.013 1.279.018 1.308.282 1.578a.907.907 0 0 0 .71.296.907.907 0 0 0 .71-.296c.23-.236.269-.364.283-.95l.013-.531.347.189c.58.317.644.342.889.342a.99.99 0 0 0 .893-1.444c-.117-.234-.238-.334-.729-.604-.377-.207-.387-.174.142-.463.495-.27.692-.548.692-.977a.995.995 0 0 0-.533-.887c-.205-.104-.595-.133-.787-.057m13.56-.019a.992.992 0 0 0-.72.963c0 .429.197.707.692.977.529.289.519.256.142.463-.491.27-.612.37-.729.604a.99.99 0 0 0 .893 1.444c.245 0 .309-.025.889-.342l.347-.189.013.531c.014.586.053.714.283.95a.907.907 0 0 0 .71.296.907.907 0 0 0 .71-.296c.272-.279.27-.26.273-1.898.004-1.698 0-1.728-.257-1.819-.091-.032-.176-.09-.188-.128-.051-.16-.462-.445-1.381-.956-.538-.299-1.038-.565-1.113-.59a1.1 1.1 0 0 0-.564-.01m-9 5c-.7.213-.959 1.076-.483 1.609.101.113.412.309 1.063.67l.92.511.02 1.097c.022 1.206.03 1.248.29 1.514a.907.907 0 0 0 .71.296.907.907 0 0 0 .71-.296c.26-.266.268-.308.29-1.514l.02-1.097.92-.511c.979-.544 1.163-.689 1.253-.988.191-.639-.203-1.249-.852-1.316a.99.99 0 0 0-.365.029c-.086.028-.555.274-1.043.545-.488.272-.908.494-.933.494-.025 0-.445-.222-.933-.493-.488-.271-.948-.514-1.023-.54a1.1 1.1 0 0 0-.564-.01M2.6 13.523a1.013 1.013 0 0 0-.494.457c-.082.152-.087.219-.098 1.353-.014 1.334.003 1.478.221 1.913.237.475.46.657 1.532 1.251 1.22.676 1.209.671 1.481.671a.99.99 0 0 0 .893-1.444c-.132-.264-.198-.311-1.266-.902l-.864-.479-.013-1.101c-.011-1.04-.017-1.111-.098-1.262A1.007 1.007 0 0 0 3 13.442c-.136 0-.289.031-.4.081m18 0a1.013 1.013 0 0 0-.494.457c-.081.151-.087.222-.098 1.251l-.013 1.091-.147.094c-.082.052-.481.279-.888.504-.903.498-.965.544-1.096.807a.99.99 0 0 0 .894 1.441c.272 0 .261.005 1.481-.671 1.072-.594 1.295-.776 1.532-1.251.218-.435.235-.579.221-1.913-.011-1.134-.016-1.201-.098-1.353a1.007 1.007 0 0 0-.894-.538c-.136 0-.289.031-.4.081m-9 5a.997.997 0 0 0-.492.457c-.072.134-.088.245-.101.69-.008.292-.025.53-.037.53-.013 0-.196-.096-.407-.214-.486-.271-.641-.322-.904-.294-.647.066-1.043.677-.853 1.314.09.299.264.44 1.146.929.456.254.933.507 1.06.563.126.056.32.164.43.24.349.24.767.24 1.116 0 .11-.076.304-.184.43-.24a22.04 22.04 0 0 0 1.06-.563c.882-.489 1.056-.63 1.146-.929.19-.637-.206-1.248-.853-1.314-.263-.028-.418.023-.904.294a4.927 4.927 0 0 1-.407.214c-.012 0-.029-.238-.037-.53-.013-.445-.029-.556-.101-.69a1.001 1.001 0 0 0-.892-.538c-.136 0-.289.031-.4.081" fill="#667085" fill-rule="evenodd"/></svg>