<svg width="24" height="24" fill="none" xmlns="http://www.w3.org/2000/svg"><path d="M11.509 1.201c-.221.056-.154.02-4.546 2.452-3.609 2-4.086 2.274-4.324 2.496a1.935 1.935 0 0 0-.578.953c-.089.344-.092 9.44-.002 9.776.106.398.282.695.574.967.245.229.693.488 4.39 2.541 2.264 1.258 4.229 2.324 4.366 2.37.358.121.899.116 1.251-.012.143-.051 2.105-1.119 4.36-2.372 3.657-2.033 4.129-2.306 4.371-2.532.298-.277.504-.64.585-1.032.062-.297.062-9.319 0-9.616a1.964 1.964 0 0 0-.588-1.036c-.248-.231-.674-.477-4.371-2.524-2.253-1.248-4.187-2.309-4.297-2.357-.157-.07-.291-.091-.62-.1a3.03 3.03 0 0 0-.571.026m4 3.891C17.384 6.131 18.918 6.989 18.918 7c.002.036-6.853 3.82-6.919 3.82-.066 0-6.919-3.784-6.917-3.82.001-.051 6.904-3.838 6.958-3.818.033.013 1.594.872 3.469 1.91m-8.005 5.559 3.476 1.931.01 3.849c.006 2.117.002 3.849-.007 3.849-.028 0-6.876-3.802-6.933-3.849-.039-.032-.05-.856-.05-3.876 0-2.109.006-3.835.014-3.835s1.578.869 3.49 1.931M20 12.555c0 3.02-.011 3.844-.05 3.876-.058.047-6.905 3.849-6.932 3.849-.01 0-.014-1.732-.008-3.849l.01-3.849 3.46-1.927a349.217 349.217 0 0 1 3.49-1.931c.017-.002.03 1.722.03 3.831" fill="#667085" fill-rule="evenodd"/></svg>