<svg width="24" height="24" fill="none" xmlns="http://www.w3.org/2000/svg"><path d="M11.509 1.201c-.221.056-.154.02-4.546 2.452-3.609 2-4.086 2.274-4.324 2.496a1.935 1.935 0 0 0-.578.953c-.089.344-.092 9.44-.002 9.776.106.398.282.695.574.967.245.229.693.488 4.39 2.541 2.264 1.258 4.229 2.324 4.366 2.37.358.121.899.116 1.251-.012.143-.051 2.105-1.119 4.36-2.372 3.657-2.033 4.129-2.306 4.371-2.532.298-.277.504-.64.585-1.032.062-.297.062-9.319 0-9.616a1.964 1.964 0 0 0-.588-1.036c-.248-.231-.674-.477-4.371-2.524-2.253-1.248-4.187-2.309-4.297-2.357-.157-.07-.291-.091-.62-.1a3.03 3.03 0 0 0-.571.026M11 7.003c0 1.936-.015 3.278-.036 3.27-.095-.035-5.883-3.256-5.882-3.273 0-.021 5.838-3.269 5.888-3.276.017-.002.03 1.473.03 3.279m4.992-1.643c1.609.891 2.926 1.629 2.926 1.64 0 .017-5.787 3.238-5.882 3.273C13.015 10.281 13 8.936 13 7c0-1.808.015-3.281.033-3.273.018.007 1.35.742 2.959 1.633m-9.108 4.944c1.571.872 2.898 1.612 2.95 1.644.09.057-.013.119-2.82 1.679-1.603.891-2.937 1.63-2.964 1.641-.04.016-.05-.652-.05-3.264 0-1.806.006-3.284.014-3.284s1.3.713 2.87 1.584M20 12.004c0 2.612-.01 3.28-.05 3.264-.028-.011-1.362-.75-2.965-1.641-2.51-1.396-2.904-1.627-2.84-1.667a750.19 750.19 0 0 1 5.825-3.236c.017-.002.03 1.474.03 3.28m-9 4.999c0 1.936-.015 3.278-.036 3.27-.095-.035-5.883-3.256-5.882-3.273 0-.021 5.838-3.269 5.888-3.276.017-.002.03 1.473.03 3.279m4.992-1.643c1.609.891 2.926 1.629 2.926 1.64 0 .017-5.787 3.238-5.882 3.273C13.015 20.281 13 18.936 13 17c0-1.808.015-3.281.033-3.273.018.007 1.35.742 2.959 1.633" fill="#667085" fill-rule="evenodd"/></svg>