<svg width="24" height="24" fill="none" xmlns="http://www.w3.org/2000/svg"><path d="M7.971 2.06c-.562.123-.545.109-3.174 2.737-2.049 2.049-2.442 2.461-2.549 2.667-.263.508-.25.122-.238 7.084l.01 6.312.107.229c.15.319.431.605.748.761l.263.13 6.313.01c6.963.012 6.577.025 7.085-.238.206-.107.618-.5 2.667-2.549s2.442-2.461 2.549-2.667c.263-.508.25-.122.238-7.084l-.01-6.312-.107-.229a1.665 1.665 0 0 0-.749-.762l-.264-.129-6.32-.007c-5.206-.006-6.364.002-6.569.047M17.08 5.5 15.58 7H9V4h9.58l-1.5 1.5M7 6.22V7H5.421l.779-.78c.429-.429.784-.78.79-.78.005 0 .01.351.01.78m13 4V15h-3V8.42l1.49-1.49c.819-.819 1.494-1.49 1.5-1.49.005 0 .01 2.151.01 4.78M7 12.29v3.29l-1.5 1.5-1.5 1.5V9h3v3.29m8-.29v3H9V9h6v3m0 6.5V20H5.42l1.5-1.5 1.5-1.5H15v1.5m3.56-1.49c0 .006-.351.361-.78.79l-.78.779V17h.78c.429 0 .78.005.78.01" fill="#667085" fill-rule="evenodd"/></svg>