<svg width="24" height="24" fill="none" xmlns="http://www.w3.org/2000/svg"><path d="M7.971 2.06c-.562.123-.545.109-3.174 2.737-2.049 2.049-2.442 2.461-2.549 2.667-.263.508-.25.122-.238 7.084l.01 6.312.107.229c.15.319.431.605.748.761l.263.13 6.313.01c6.963.012 6.577.025 7.085-.238.206-.107.618-.5 2.667-2.549s2.442-2.461 2.549-2.667c.263-.508.25-.122.238-7.084l-.01-6.312-.107-.229a1.665 1.665 0 0 0-.749-.762l-.264-.129-6.32-.007c-5.206-.006-6.364.002-6.569.047M17.08 5.5 15.58 7H5.42l1.5-1.5L8.42 4h10.16l-1.5 1.5m1.42 11.58-1.5 1.5V8.42l1.49-1.49 1.49-1.49.01 5.07.01 5.07-1.5 1.5M15 14.5V20H4V9h11v5.5" fill="#667085" fill-rule="evenodd"/></svg>