<svg width="24" height="24" fill="none" xmlns="http://www.w3.org/2000/svg"><path d="M11.041 1.045c-1.47.13-2.98.585-4.26 1.283-.985.538-1.77 1.13-2.583 1.947-1.682 1.693-2.712 3.742-3.086 6.145-.073.467-.087.73-.087 1.58 0 .85.014 1.113.087 1.58.378 2.425 1.41 4.467 3.125 6.183 1.716 1.715 3.758 2.747 6.183 3.125.809.126 2.351.126 3.16 0 2.413-.376 4.471-1.417 6.181-3.127.923-.923 1.563-1.811 2.116-2.941a10.92 10.92 0 0 0 0-9.64 11.163 11.163 0 0 0-3.826-4.353 11.032 11.032 0 0 0-7.01-1.782m2.279 2.057a9.023 9.023 0 0 1 5.664 3.218c.816 1.005 1.483 2.358 1.771 3.6.167.718.222 1.229.222 2.08 0 1.511-.264 2.654-.917 3.98-.896 1.818-2.252 3.179-4.067 4.079a8.986 8.986 0 0 1-6.453.597C7.08 19.955 5.103 18.309 3.946 16c-.642-1.283-.923-2.498-.923-4 0-1.502.281-2.717.923-4 .91-1.819 2.235-3.143 4.056-4.055 1.025-.514 2.001-.783 3.338-.921.324-.033 1.573.016 1.98.078m-1.296 2.42c-.871.098-1.575.406-2.137.935-.546.514-.873 1.221-.971 2.103-.08.717.077 1.465.486 2.315.131.272.238.528.238.57 0 .069-.036.075-.441.075-.494 0-.621.036-.858.245a.987.987 0 0 0-.016 1.463c.215.204.402.263.905.283.326.014.45.033.45.07 0 .104-.212.776-.384 1.215a13.842 13.842 0 0 1-.998 1.964c-.251.388-.316.58-.285.847.043.364.322.722.652.838.229.081 6.441.081 6.67 0 .361-.127.664-.559.664-.945 0-.372-.274-.779-.625-.925-.106-.044-.549-.055-2.293-.055-1.191 0-2.161-.016-2.161-.035 0-.019.081-.206.181-.416.289-.611.576-1.57.717-2.396l.025-.148 1.188-.012c1.315-.015 1.369-.024 1.644-.285.495-.47.402-1.229-.195-1.601-.135-.084-.191-.088-1.46-.107l-1.319-.02-.131-.5a5.623 5.623 0 0 0-.381-1.02l-.249-.52v-.52c0-.443.012-.547.084-.7.115-.25.309-.431.616-.577.25-.118.281-.123.78-.122.375.001.592.022.78.074.312.087.749.296 1.01.483.423.303.916.268 1.275-.092.255-.256.351-.553.283-.878-.058-.28-.202-.491-.495-.728-.843-.678-2.072-1.011-3.249-.878" fill="#667085" fill-rule="evenodd"/></svg>