<svg width="24" height="24" fill="none" xmlns="http://www.w3.org/2000/svg"><path d="M11.041 1.045c-1.47.13-2.98.585-4.26 1.283-.985.538-1.77 1.13-2.583 1.947-1.682 1.693-2.712 3.742-3.086 6.145-.073.467-.087.73-.087 1.58 0 .85.014 1.113.087 1.58.378 2.425 1.41 4.467 3.125 6.183 1.716 1.715 3.758 2.747 6.183 3.125.809.126 2.351.126 3.16 0 2.413-.376 4.471-1.417 6.181-3.127.923-.923 1.563-1.811 2.116-2.941a10.92 10.92 0 0 0 0-9.64 11.163 11.163 0 0 0-3.826-4.353 11.032 11.032 0 0 0-7.01-1.782m2.279 2.057a9.023 9.023 0 0 1 5.664 3.218c.816 1.005 1.483 2.358 1.771 3.6.167.718.222 1.229.222 2.08 0 1.511-.264 2.654-.917 3.98-.896 1.818-2.252 3.179-4.067 4.079a8.986 8.986 0 0 1-6.453.597C7.08 19.955 5.103 18.309 3.946 16c-.642-1.283-.923-2.498-.923-4 0-1.502.281-2.717.923-4 .91-1.819 2.235-3.143 4.056-4.055 1.025-.514 2.001-.783 3.338-.921.324-.033 1.573.016 1.98.078m-1.703 1.475a1.156 1.156 0 0 0-.523.523c-.075.16-.093.268-.094.545v.345l-.29.028A3.547 3.547 0 0 0 8.169 7.46c-.698.945-.856 2.173-.426 3.306.325.856 1.097 1.637 1.954 1.976.563.223.624.23 2.203.255l1.48.023.227.106c.303.143.553.38.717.684.131.241.136.266.136.69 0 .424-.005.449-.136.69a1.58 1.58 0 0 1-.717.684l-.227.106-1.351.012c-1.494.014-1.605.001-1.956-.231-.347-.231-.494-.525-.588-1.176-.08-.553-.414-.872-.941-.898-.25-.012-.31 0-.504.101-.422.22-.595.631-.52 1.236a3.34 3.34 0 0 0 1.58 2.477c.48.3 1.141.499 1.658.499H11v.35c.001.42.098.669.348.895.497.448 1.268.277 1.558-.345.075-.161.093-.268.094-.55V18h.156c.426 0 1.193-.233 1.624-.494 1.454-.878 2.083-2.648 1.499-4.217-.385-1.034-1.24-1.819-2.347-2.155-.346-.105-.377-.107-1.832-.13l-1.48-.024-.227-.106a1.58 1.58 0 0 1-.717-.684c-.131-.241-.136-.266-.136-.69 0-.424.005-.449.136-.69a1.58 1.58 0 0 1 .717-.684l.227-.106h2.88l.226.106c.447.21.699.581.759 1.119.06.53.214.798.562.971.445.222.993.088 1.26-.307.176-.262.224-.519.173-.933-.203-1.633-1.485-2.846-3.13-2.963L13 5.988v-.344c-.001-.276-.019-.384-.094-.544a1.146 1.146 0 0 0-.532-.525c-.166-.07-.596-.069-.757.002" fill="#667085" fill-rule="evenodd"/></svg>