<svg width="24" height="24" fill="none" xmlns="http://www.w3.org/2000/svg"><path d="M11.041 1.045c-1.47.13-2.98.585-4.26 1.283-.985.538-1.77 1.13-2.583 1.947-1.682 1.693-2.712 3.742-3.086 6.145-.073.467-.087.73-.087 1.58 0 .85.014 1.113.087 1.58.378 2.425 1.41 4.467 3.125 6.183 1.716 1.715 3.758 2.747 6.183 3.125.809.126 2.351.126 3.16 0 2.413-.376 4.471-1.417 6.181-3.127.923-.923 1.563-1.811 2.116-2.941a10.92 10.92 0 0 0 0-9.64 11.163 11.163 0 0 0-3.826-4.353 11.032 11.032 0 0 0-7.01-1.782m2.279 2.057a9.023 9.023 0 0 1 5.664 3.218c.816 1.005 1.483 2.358 1.771 3.6.167.718.222 1.229.222 2.08 0 1.511-.264 2.654-.917 3.98-.896 1.818-2.252 3.179-4.067 4.079a8.986 8.986 0 0 1-6.453.597C7.08 19.955 5.103 18.309 3.946 16c-.642-1.283-.923-2.498-.923-4 0-1.502.281-2.717.923-4 .91-1.819 2.235-3.143 4.056-4.055 1.025-.514 2.001-.783 3.338-.921.324-.033 1.573.016 1.98.078m-1.56.923c-.369.142-.345.116-3.237 3.533C6.964 9.4 5.66 10.963 5.625 11.03a1.61 1.61 0 0 0-.105.311c-.086.382.151.852.525 1.042.113.057 1.432.662 2.93 1.343 2.882 1.312 2.96 1.341 3.289 1.233.16-.052 5.318-2.388 5.69-2.576.376-.191.608-.649.526-1.044a1.331 1.331 0 0 0-.131-.347c-.049-.08-1.353-1.64-2.898-3.465-3.084-3.645-2.935-3.491-3.41-3.514a1.098 1.098 0 0 0-.281.012m2.1 4.717a419.897 419.897 0 0 1 1.928 2.289l.089.111-1.913.869c-1.052.478-1.936.869-1.964.869-.028 0-.911-.391-1.963-.868l-1.912-.869.068-.09c.139-.186 3.788-4.488 3.807-4.489.011 0 .848.98 1.86 2.178m-7.738 5.839a1 1 0 0 0-.613.919c0 .277.154.612.349.761.082.063 1.43.697 2.995 1.409 3.049 1.388 3.082 1.401 3.433 1.281.355-.121 5.682-2.566 5.839-2.679.352-.255.464-.788.256-1.213-.184-.377-.516-.561-.955-.531-.22.016-.515.14-2.81 1.185-1.41.642-2.588 1.167-2.616 1.167-.028 0-1.206-.525-2.616-1.168-2.483-1.131-2.573-1.168-2.844-1.18-.191-.009-.324.007-.418.049" fill="#667085" fill-rule="evenodd"/></svg>