<svg width="24" height="24" fill="none" xmlns="http://www.w3.org/2000/svg"><path d="M11.041 1.045c-1.47.13-2.98.585-4.26 1.283-.985.538-1.77 1.13-2.583 1.947-1.682 1.693-2.712 3.742-3.086 6.145-.073.467-.087.73-.087 1.58 0 .85.014 1.113.087 1.58.378 2.425 1.41 4.467 3.125 6.183 1.716 1.715 3.758 2.747 6.183 3.125.809.126 2.351.126 3.16 0 2.413-.376 4.471-1.417 6.181-3.127.923-.923 1.563-1.811 2.116-2.941a10.92 10.92 0 0 0 0-9.64 11.163 11.163 0 0 0-3.826-4.353 11.032 11.032 0 0 0-7.01-1.782m2.279 2.057a9.023 9.023 0 0 1 5.664 3.218c.816 1.005 1.483 2.358 1.771 3.6.167.718.222 1.229.222 2.08 0 1.511-.264 2.654-.917 3.98-.896 1.818-2.252 3.179-4.067 4.079a8.986 8.986 0 0 1-6.453.597C7.08 19.955 5.103 18.309 3.946 16c-.642-1.283-.923-2.498-.923-4 0-1.502.281-2.717.923-4 .91-1.819 2.235-3.143 4.056-4.055 1.025-.514 2.001-.783 3.338-.921.324-.033 1.573.016 1.98.078m-1.84 2.922c-1.084.132-1.932.439-2.8 1.011-.693.457-1.509 1.372-1.95 2.185l-.151.28-.46.02c-.38.017-.483.035-.599.107-.466.291-.641.815-.425 1.273.163.344.424.535.819.6l.173.028-.032.146c-.041.185-.041.458.002.676l.033.17h-.166c-.652 0-1.116.773-.829 1.38.203.427.482.582 1.097.611l.412.02.115.227c.254.504.615.982 1.118 1.482.888.883 1.806 1.385 3.015 1.648.582.127 1.747.127 2.318.001 1.062-.235 2.085-.74 2.758-1.363.296-.274.39-.463.391-.786.001-.736-.701-1.201-1.388-.918a2.434 2.434 0 0 0-.408.278 3.96 3.96 0 0 1-3.168.841c-.793-.138-1.435-.473-2.07-1.081l-.335-.32 1.135-.021c1.252-.022 1.319-.034 1.59-.291.495-.47.402-1.229-.195-1.601-.136-.085-.183-.088-1.759-.107l-1.619-.02-.057-.247a.89.89 0 0 1-.006-.488l.051-.241 1.565-.012c1.733-.013 1.735-.014 2.02-.284a.987.987 0 0 0-.016-1.463c-.273-.24-.304-.245-1.558-.245-.627 0-1.141-.015-1.141-.033 0-.063.62-.633.875-.805a4.357 4.357 0 0 1 1.27-.57c.524-.13 1.363-.122 1.9.019a4.275 4.275 0 0 1 1.595.832c.359.295.642.369 1.004.263a.973.973 0 0 0 .715-.966c-.001-.327-.097-.517-.399-.79-.708-.641-1.727-1.14-2.753-1.349-.399-.081-1.363-.136-1.687-.097" fill="#667085" fill-rule="evenodd"/></svg>