<svg width="24" height="24" fill="none" xmlns="http://www.w3.org/2000/svg"><path d="M5.047 2.624a.976.976 0 0 0-.462 1.256c.046.1 1.236 1.601 2.688 3.388a335.536 335.536 0 0 1 2.607 3.23c0 .012-.928.022-2.061.022-2.26 0-2.192-.007-2.478.245a.987.987 0 0 0-.016 1.463c.298.283.167.271 3.065.283l2.61.012V14.52H8.879c-2.325 0-2.251-.007-2.538.245a.987.987 0 0 0-.016 1.463c.294.278.225.271 2.565.284l2.11.011v2.089l.001 2.088.093.2c.051.11.166.265.254.345.497.448 1.268.277 1.558-.345l.093-.2.001-2.088v-2.089l2.11-.011c2.34-.013 2.271-.006 2.565-.284a.987.987 0 0 0-.016-1.463c-.287-.252-.213-.245-2.538-.245H13V12.523l2.61-.012c2.898-.012 2.767 0 3.065-.283a.987.987 0 0 0-.016-1.463c-.286-.252-.218-.245-2.478-.245-1.133 0-2.061-.01-2.061-.022 0-.011 1.173-1.465 2.607-3.23 1.485-1.828 2.64-3.285 2.685-3.387.369-.832-.54-1.668-1.365-1.257-.193.096-.425.37-3.114 3.68C13.335 8.271 12.015 9.88 12 9.88c-.015 0-1.335-1.609-2.933-3.576-2.689-3.31-2.921-3.584-3.114-3.68a1.004 1.004 0 0 0-.906 0" fill="#667085" fill-rule="evenodd"/></svg>