<svg width="24" height="24" fill="none" xmlns="http://www.w3.org/2000/svg"><path d="M11.643 1.069a1.118 1.118 0 0 0-.343.229c-.248.248-.3.442-.3 1.129V3h-.631c-1.059 0-1.732.127-2.445.463A5.078 5.078 0 0 0 5.153 6.78c-.121.456-.127.517-.127 1.22 0 .701.007.765.125 1.214a5.248 5.248 0 0 0 1.239 2.231c.608.644 1.506 1.17 2.39 1.4.447.117.539.127 1.35.145l.87.02v5.998l-.77-.019c-.848-.021-1.05-.06-1.531-.289a2.976 2.976 0 0 1-1.684-2.511c-.031-.458-.112-.688-.313-.889a.983.983 0 0 0-1.404 0c-.249.249-.316.487-.285 1.017.068 1.196.661 2.462 1.542 3.293a5.205 5.205 0 0 0 2.231 1.237c.44.115.536.125 1.344.143l.87.02v.568c0 .681.052.876.299 1.123a.984.984 0 0 0 1.402 0c.247-.247.299-.442.299-1.123v-.568l.87-.02c.808-.018.904-.028 1.344-.143a5.205 5.205 0 0 0 2.231-1.237c.642-.606 1.168-1.502 1.402-2.39.121-.456.127-.517.127-1.22s-.006-.764-.127-1.22c-.528-2.001-2.22-3.49-4.246-3.738a10.34 10.34 0 0 0-.97-.042H13V4.991l.77.02c.849.023 1.056.062 1.534.291a2.976 2.976 0 0 1 1.681 2.509c.031.458.112.688.313.889a.983.983 0 0 0 1.404 0c.249-.249.316-.487.285-1.017-.069-1.211-.667-2.475-1.571-3.319a5.082 5.082 0 0 0-2.824-1.323A10.462 10.462 0 0 0 13.631 3H13v-.573c0-.686-.052-.881-.299-1.128a.998.998 0 0 0-1.058-.23M11 8.004v3.004l-.77-.019c-.848-.021-1.05-.06-1.531-.289a3.066 3.066 0 0 1-1.604-1.94c-.097-.359-.097-1.161 0-1.52.264-.969 1.009-1.769 1.935-2.077.375-.125.607-.153 1.32-.158L11 5v3.004m3.78 5.095a3.076 3.076 0 0 1 2.125 2.141c.097.359.097 1.161 0 1.52a3.066 3.066 0 0 1-1.604 1.94c-.481.229-.683.268-1.531.289l-.77.019V12.991l.77.02c.543.015.841.041 1.01.088" fill="#667085" fill-rule="evenodd"/></svg>