<svg width="24" height="24" fill="none" xmlns="http://www.w3.org/2000/svg"><path d="M11.041 1.045c-1.47.13-2.98.585-4.26 1.283-.985.538-1.77 1.13-2.583 1.947-1.682 1.693-2.712 3.742-3.086 6.145-.073.467-.087.73-.087 1.58 0 .85.014 1.113.087 1.58.378 2.425 1.41 4.467 3.125 6.183 1.716 1.715 3.758 2.747 6.183 3.125.809.126 2.351.126 3.16 0 2.413-.376 4.471-1.417 6.181-3.127.923-.923 1.563-1.811 2.116-2.941a10.92 10.92 0 0 0 0-9.64 11.163 11.163 0 0 0-3.826-4.353 11.032 11.032 0 0 0-7.01-1.782m2.279 2.057a9.023 9.023 0 0 1 5.664 3.218c.816 1.005 1.483 2.358 1.771 3.6.167.718.222 1.229.222 2.08 0 1.511-.264 2.654-.917 3.98-.896 1.818-2.252 3.179-4.067 4.079a8.986 8.986 0 0 1-6.453.597C7.08 19.955 5.103 18.309 3.946 16c-.642-1.283-.923-2.498-.923-4 0-1.502.281-2.717.923-4 .91-1.819 2.235-3.143 4.056-4.055 1.025-.514 2.001-.783 3.338-.921.324-.033 1.573.016 1.98.078m-4.198 2.48a1.016 1.016 0 0 0-.513.47L8.5 6.26l-.012 2.13-.011 2.13h-.36c-.406 0-.549.045-.776.245a.966.966 0 0 0-.246 1.135c.194.408.482.579 1.035.611l.35.02v1.229l-.35.001c-.265.001-.394.021-.53.082a.966.966 0 0 0-.589.818.965.965 0 0 0 .519.961c.177.097.267.117.577.131l.367.016.013.986c.013.985.013.985.122 1.193a1 1 0 0 0 .891.546c.377 0 .688-.19.881-.539l.119-.215.013-.988.013-.988 1.367-.012c1.328-.012 1.372-.015 1.535-.102.389-.208.602-.584.56-.99a.963.963 0 0 0-.588-.817c-.17-.077-.258-.081-1.53-.082l-1.35-.001v-1.234l1.97-.017c2.133-.018 2.204-.024 2.776-.253a3.311 3.311 0 0 0 1.193-.797c.694-.695 1.031-1.498 1.031-2.459a3.439 3.439 0 0 0-1.95-3.123c-.716-.352-.524-.334-3.58-.345-2.341-.009-2.718-.002-2.838.05m5.536 2.075c.302.148.537.383.685.685.107.217.117.275.117.658s-.01.441-.117.658c-.22.449-.62.74-1.13.823-.128.021-1.011.039-1.963.039h-1.73V7.518l1.95.011 1.95.011.238.117" fill="#667085" fill-rule="evenodd"/></svg>