<svg width="24" height="24" fill="none" xmlns="http://www.w3.org/2000/svg"><path d="M11.041 1.045c-1.47.13-2.98.585-4.26 1.283-.985.538-1.77 1.13-2.583 1.947-1.682 1.693-2.712 3.742-3.086 6.145-.073.467-.087.73-.087 1.58 0 .85.014 1.113.087 1.58.378 2.425 1.41 4.467 3.125 6.183 1.716 1.715 3.758 2.747 6.183 3.125.809.126 2.351.126 3.16 0 2.413-.376 4.471-1.417 6.181-3.127.923-.923 1.563-1.811 2.116-2.941a10.92 10.92 0 0 0 0-9.64 11.163 11.163 0 0 0-3.826-4.353 11.032 11.032 0 0 0-7.01-1.782m2.279 2.057a9.023 9.023 0 0 1 5.664 3.218c.816 1.005 1.483 2.358 1.771 3.6.167.718.222 1.229.222 2.08 0 1.511-.264 2.654-.917 3.98-.896 1.818-2.252 3.179-4.067 4.079a8.986 8.986 0 0 1-6.453.597C7.08 19.955 5.103 18.309 3.946 16c-.642-1.283-.923-2.498-.923-4 0-1.502.281-2.717.923-4 .91-1.819 2.235-3.143 4.056-4.055 1.025-.514 2.001-.783 3.338-.921.324-.033 1.573.016 1.98.078M7.664 6.061a1.02 1.02 0 0 0-.533.45c-.148.252-.16.706-.025.935.048.08.7.913 1.451 1.85L9.921 11H8.888c-1.192 0-1.313.023-1.589.299a.984.984 0 0 0 0 1.402c.292.293.339.299 2.128.299H11v.996l-1.39.012c-1.339.012-1.396.015-1.553.099a.994.994 0 0 0 .043 1.799c.197.092.22.093 1.55.094H11v1.073c0 1.235.021 1.35.299 1.628a.984.984 0 0 0 1.402 0c.278-.278.299-.393.299-1.628V16h1.35c1.33-.001 1.353-.002 1.55-.094a.994.994 0 0 0 .043-1.799c-.157-.084-.214-.087-1.553-.099L13 13.996V13h1.573c1.789 0 1.836-.006 2.128-.299a.984.984 0 0 0 0-1.402c-.276-.276-.397-.299-1.588-.299h-1.034l1.401-1.75c1.522-1.902 1.55-1.946 1.508-2.357-.072-.696-.802-1.086-1.449-.773-.166.081-.378.329-1.847 2.166-.913 1.141-1.674 2.074-1.692 2.074-.018 0-.779-.933-1.692-2.074-1.49-1.862-1.679-2.084-1.853-2.168-.237-.115-.575-.139-.791-.057" fill="#667085" fill-rule="evenodd"/></svg>