<svg width="24" height="24" fill="none" xmlns="http://www.w3.org/2000/svg"><path d="M11.76 1.076a9.718 9.718 0 0 1-.31.125c-.096.036-1.184 1.234-4.16 4.583-2.216 2.493-4.039 4.566-4.05 4.605-.011.039-.07.145-.131.235-.101.148-.108.182-.075.331a.698.698 0 0 1 .018.245c-.013.049.032.149.124.274.079.108.144.212.144.231 0 .019.113.093.25.163.197.102 1.093.339 4.261 1.13 2.206.551 4.074 1.002 4.151 1.002.237 0 8.292-2.032 8.497-2.144.207-.112.413-.388.478-.64.054-.207-.002-.529-.126-.731-.082-.134-7.991-9.06-8.163-9.214-.247-.219-.645-.305-.908-.195m-.79 7.129c-.032.032-4.021 1.038-4.04 1.018-.006-.006.902-1.039 2.019-2.296l2.031-2.285.01 1.766c.006.972-.003 1.781-.02 1.797m4.165-1.165a217.607 217.607 0 0 1 1.93 2.187c-.003.004-.919-.221-2.036-.499L13 8.221V4.662l.098.099c.055.054.971 1.08 2.037 2.279m-1.265 3.466c1.029.256 1.883.476 1.899.49.016.014-.826.239-1.87.499L12 11.969l-1.9-.474c-1.045-.261-1.9-.484-1.9-.495 0-.02 3.642-.948 3.75-.956.028-.002.892.206 1.92.462m-8.63 3.531c-.341.104-.605.37-.703.708-.056.192-.059.262-.019.44.026.116.09.274.142.351.052.077 1.587 1.748 3.411 3.712 2.369 2.552 3.36 3.593 3.47 3.645.324.153.752.124 1.015-.07.065-.048 1.606-1.688 3.425-3.645 2.446-2.632 3.332-3.61 3.403-3.758.234-.49.029-1.065-.471-1.324-.29-.15-.313-.146-3.706.639l-3.212.742-3.201-.738c-1.76-.407-3.257-.737-3.327-.736-.07.002-.172.018-.227.034m4.98 3.087c.858.199 1.65.364 1.76.365.121.002.858-.15 1.857-.383a64.591 64.591 0 0 1 1.667-.376c.012.013-3.477 3.783-3.505 3.787-.021.003-3.274-3.486-3.433-3.684l-.095-.117.095.023 1.654.385" fill="#667085" fill-rule="evenodd"/></svg>