<svg width="24" height="24" fill="none" xmlns="http://www.w3.org/2000/svg"><path d="M8.948 1.055c-.268.1-.445.246-.569.469-.116.21-.119.233-.133.846L8.233 3H6.686c-.888 0-1.606.017-1.687.04-.628.174-.93.871-.622 1.43.236.428.484.53 1.288.53h.575v14h-.55c-.302 0-.614.018-.691.04-.628.174-.93.871-.622 1.43.064.116.176.256.249.312.277.211.339.218 2.036.218h1.571l.013.63c.014.609.018.637.13.84a.988.988 0 0 0 1.781-.07c.07-.155.081-.263.082-.79l.001-.61H12.233l.013.63c.014.609.018.637.13.84a.988.988 0 0 0 1.781-.07c.07-.155.081-.263.082-.79l.001-.61h.45c1.542-.001 2.996-.686 3.931-1.853a4.98 4.98 0 0 0 1.107-2.697c.18-1.724-.685-3.499-2.198-4.505-.225-.15-.41-.284-.41-.296 0-.013.123-.15.272-.306a4.81 4.81 0 0 0 .815-5.56c-.68-1.33-2.036-2.333-3.524-2.608a9.986 9.986 0 0 1-.393-.078c-.037-.011-.05-.18-.05-.669 0-.634-.003-.66-.11-.871a1.035 1.035 0 0 0-.622-.52c-.382-.103-.871.079-1.076.402-.165.26-.192.4-.192 1.011V3h-2v-.61c-.001-.556-.009-.628-.095-.812a1.042 1.042 0 0 0-.476-.484c-.171-.088-.536-.108-.721-.039m5.378 4.007c.228.043.466.126.752.265.368.178.463.247.782.568.415.417.647.812.784 1.334.113.427.113 1.112.002 1.536-.235.896-.899 1.661-1.735 2.001-.569.232-.603.234-3.769.234H8.24V5h2.876c2.428 0 2.927.01 3.21.062m1 8c.228.043.466.126.752.265.368.178.463.247.782.568.415.417.647.812.784 1.334.113.427.113 1.112.002 1.536-.235.896-.899 1.661-1.735 2.001-.577.235-.555.234-4.269.234H8.24v-6h3.376c2.88 0 3.424.009 3.71.062" fill="#667085" fill-rule="evenodd"/></svg>