<svg width="24" height="24" fill="none" xmlns="http://www.w3.org/2000/svg"><path d="M11.5 2.523c-1.952.116-3.457 1.047-4.163 2.575-.313.678-.482 1.581-.443 2.362.051.997.315 1.766 1.035 3.005.165.283.354.623.421.755.149.299.394.95.431 1.15l.028.15H6.256l-.212.105c-.25.125-.42.34-.508.642-.151.52.196 1.085.744 1.21.1.023.7.041 1.352.042l1.172.001-.027.15c-.293 1.633-1.294 3.441-2.673 4.83-.269.271-.467.506-.514.613a1.004 1.004 0 0 0 .479 1.292l.191.095H12c6.352 0 5.854.021 6.169-.255.512-.45.397-1.315-.216-1.621l-.209-.104h-4.472c-2.46 0-4.472-.009-4.472-.02 0-.011.107-.163.237-.339.851-1.148 1.463-2.652 1.707-4.191l.072-.45h2.124c2.475 0 2.43.005 2.762-.335.236-.242.322-.477.286-.784a.988.988 0 0 0-.528-.775c-.157-.084-.201-.086-2.393-.106l-2.233-.02-.154-.6c-.235-.917-.464-1.476-.956-2.333a24.126 24.126 0 0 1-.444-.807c-.397-.787-.487-1.566-.276-2.392.282-1.113 1.209-1.768 2.596-1.836 1.099-.053 2.395.322 3.118.903.336.27.609.356.922.291a.971.971 0 0 0 .793-.912c.024-.368-.059-.554-.376-.851-.85-.795-2.233-1.36-3.489-1.426a30.054 30.054 0 0 1-.508-.03 6.19 6.19 0 0 0-.56.016" fill="#667085" fill-rule="evenodd"/></svg>