<svg width="24" height="24" fill="none" xmlns="http://www.w3.org/2000/svg"><path d="M5.643 2.069C5.291 2.193 5 2.614 5 3c0 .242.119.521.299.701.295.295.324.299 2.258.299 2.218.001 2.618.048 3.343.399.937.452 1.552 1.22 1.856 2.317l.079.284h-3.49c-3.93 0-3.732-.015-4.046.299a.984.984 0 0 0 0 1.402c.314.314.116.299 4.046.299h3.49l-.08.289c-.41 1.478-1.443 2.405-2.955 2.649-.301.049-.751.062-2.163.062-2.024 0-2.041.002-2.339.3a.982.982 0 0 0-.174 1.161c.14.266 8.689 8.31 8.976 8.444a.907.907 0 0 0 .8 0c.381-.181.591-.504.592-.91.002-.446.119-.323-3.57-3.795l-3.377-3.18.617-.025c1.26-.052 2.248-.337 3.164-.912 1.286-.808 2.088-2.006 2.413-3.603.033-.165.07-.341.082-.39l.021-.09h1.652c1.877 0 1.913-.005 2.207-.299a.984.984 0 0 0 0-1.402c-.294-.294-.33-.299-2.207-.299h-1.652l-.021-.09a87.18 87.18 0 0 1-.099-.45c-.171-.788-.542-1.646-.939-2.17L13.564 4h2.291c2.589 0 2.542.005 2.846-.299a.984.984 0 0 0 0-1.402c-.323-.323.205-.299-6.718-.296-5.475.003-6.183.01-6.34.066" fill="#667085" fill-rule="evenodd"/></svg>