<svg width="24" height="24" fill="none" xmlns="http://www.w3.org/2000/svg"><path d="M7.617 2.577a1.156 1.156 0 0 0-.523.523l-.093.2L7 6.91v3.61h-.621c-.688 0-.786.023-1.038.245a.987.987 0 0 0-.016 1.463c.238.225.389.266 1.065.284l.61.017v1.991h-.621c-.688 0-.786.023-1.038.245a.987.987 0 0 0-.016 1.463c.238.225.389.266 1.065.284l.61.017v2.085l.001 2.086.093.2a.988.988 0 0 0 1.812 0l.093-.2L9 18.612v-2.089l2.11-.011c2.34-.013 2.271-.006 2.565-.284a.987.987 0 0 0-.016-1.463c-.287-.252-.213-.245-2.538-.245H9v-1.995l2.79-.016c2.693-.015 2.803-.019 3.18-.103 2.114-.475 3.66-2.096 3.972-4.166.401-2.659-1.427-5.196-4.077-5.658-.494-.086-7.052-.091-7.248-.005m7.314 2.069A3.058 3.058 0 0 1 16.886 6.7c.128.452.128 1.148 0 1.6a2.808 2.808 0 0 1-.766 1.3c-.535.535-1.071.792-1.831.879-.196.023-1.435.04-2.819.041H9V4.517l2.81.011 2.81.012.311.106" fill="#667085" fill-rule="evenodd"/></svg>