<svg width="24" height="24" fill="none" xmlns="http://www.w3.org/2000/svg"><path d="M11.041 1.045c-1.47.13-2.98.585-4.26 1.283-.985.538-1.77 1.13-2.583 1.947-1.682 1.693-2.712 3.742-3.086 6.145-.073.467-.087.73-.087 1.58 0 .85.014 1.113.087 1.58.378 2.425 1.41 4.467 3.125 6.183 1.716 1.715 3.758 2.747 6.183 3.125.809.126 2.351.126 3.16 0 2.413-.376 4.471-1.417 6.181-3.127.923-.923 1.563-1.811 2.116-2.941a10.92 10.92 0 0 0 0-9.64 11.163 11.163 0 0 0-3.826-4.353 11.032 11.032 0 0 0-7.01-1.782m2.279 2.057a9.023 9.023 0 0 1 5.664 3.218c.816 1.005 1.483 2.358 1.771 3.6.167.718.222 1.229.222 2.08 0 1.511-.264 2.654-.917 3.98-.896 1.818-2.252 3.179-4.067 4.079a8.986 8.986 0 0 1-6.453.597C7.08 19.955 5.103 18.309 3.946 16c-.642-1.283-.923-2.498-.923-4 0-1.502.281-2.717.923-4 .91-1.819 2.235-3.143 4.056-4.055 1.025-.514 2.001-.783 3.338-.921.324-.033 1.573.016 1.98.078M9.643 5.069a1.066 1.066 0 0 0-.577.591c-.041.12-.066.322-.066.527v.333h-.621c-.688 0-.786.023-1.038.245A.966.966 0 0 0 7.095 7.9c.194.408.482.579 1.035.611l.35.02V15.52h-.361c-.408 0-.551.045-.778.245a.987.987 0 0 0-.016 1.463c.238.225.389.266 1.065.284l.61.017v.308c0 .401.087.652.299.864a.984.984 0 0 0 1.402 0c.213-.213.299-.462.299-.868v-.313h1v.313c0 .406.086.655.299.868a.984.984 0 0 0 1.402 0c.212-.212.299-.463.299-.863v-.308l.368-.028c.725-.057 1.33-.282 1.869-.694.871-.666 1.373-1.834 1.241-2.889-.091-.721-.366-1.284-.897-1.833l-.325-.336.21-.32c.681-1.034.702-2.286.058-3.332a3.694 3.694 0 0 0-1.114-1.092c-.314-.184-.88-.384-1.2-.426L14 6.552v-.349c0-.444-.079-.685-.299-.904a.984.984 0 0 0-1.402 0c-.217.217-.299.461-.299.888v.333h-1v-.333c0-.427-.082-.671-.299-.888a.998.998 0 0 0-1.058-.23m4.67 3.574c.264.132.437.311.577.597.127.259.124.74-.005 1.029a1.33 1.33 0 0 1-.699.645c-.221.083-.288.086-1.948.086H10.52V8.52H14.067l.246.123m.424 4.448c.268.121.489.333.62.596a.94.94 0 0 1 .123.532c0 .411-.089.636-.357.904-.383.383-.309.372-2.613.388l-1.99.013v-2.527l2.03.011c1.841.011 2.045.019 2.187.083" fill="#667085" fill-rule="evenodd"/></svg>