<svg width="24" height="24" fill="none" xmlns="http://www.w3.org/2000/svg"><path d="M13.56 2.546c-.493.06-1.207.201-1.612.318-2.803.806-5.1 2.935-6.191 5.736l-.148.38-.934.02c-.878.019-.947.026-1.125.114-.601.296-.73 1.108-.251 1.587.256.256.433.299 1.228.299.37 0 .673.014.673.032 0 .018-.045.202-.099.41-.124.473-.124.643 0 1.116.054.208.099.392.099.41 0 .018-.303.032-.673.032-.795 0-.972.043-1.228.299-.479.479-.35 1.291.251 1.587.178.088.247.095 1.125.114l.934.02.148.38c.216.554.435 1.005.722 1.48 1.847 3.069 5.146 4.83 8.614 4.598a9.394 9.394 0 0 0 4.667-1.577c.947-.634 1.188-.896 1.231-1.343.054-.556-.429-1.078-.997-1.078-.213 0-.493.131-.813.379-1.251.975-2.587 1.494-4.171 1.621-2.936.235-5.833-1.416-7.173-4.086L7.639 15h3.254c3.664 0 3.496.013 3.808-.299a.984.984 0 0 0 0-1.402c-.313-.313-.118-.299-4.025-.299H7.207l-.104-.433c-.128-.536-.128-.598 0-1.134L7.207 11h3.469c3.907 0 3.712.014 4.025-.299a.984.984 0 0 0 0-1.402C14.389 8.987 14.557 9 10.893 9H7.639l.196-.39a7.434 7.434 0 0 1 5.775-4.052c.511-.063 1.728-.029 2.23.062a7.646 7.646 0 0 1 3.287 1.484c.205.162.453.321.55.355.845.291 1.599-.581 1.206-1.394-.244-.503-2.039-1.623-3.263-2.035-1.085-.366-1.743-.474-2.98-.49a19.117 19.117 0 0 0-1.08.006" fill="#667085" fill-rule="evenodd"/></svg>