<svg width="24" height="24" fill="none" xmlns="http://www.w3.org/2000/svg"><path d="M11.041 1.045c-1.47.13-2.98.585-4.26 1.283-.985.538-1.77 1.13-2.583 1.947-1.682 1.693-2.712 3.742-3.086 6.145-.073.467-.087.73-.087 1.58 0 .85.014 1.113.087 1.58.378 2.425 1.41 4.467 3.125 6.183 1.716 1.715 3.758 2.747 6.183 3.125.809.126 2.351.126 3.16 0 2.413-.376 4.471-1.417 6.181-3.127.923-.923 1.563-1.811 2.116-2.941a10.92 10.92 0 0 0 0-9.64 11.163 11.163 0 0 0-3.826-4.353 11.032 11.032 0 0 0-7.01-1.782m2.279 2.057a9.023 9.023 0 0 1 5.664 3.218c.816 1.005 1.483 2.358 1.771 3.6.167.718.222 1.229.222 2.08 0 1.511-.264 2.654-.917 3.98-.896 1.818-2.252 3.179-4.067 4.079a8.986 8.986 0 0 1-6.453.597C7.08 19.955 5.103 18.309 3.946 16c-.642-1.283-.923-2.498-.923-4 0-1.502.281-2.717.923-4 .91-1.819 2.235-3.143 4.056-4.055 1.025-.514 2.001-.783 3.338-.921.324-.033 1.573.016 1.98.078M8.122 5.583c-.547.237-.774.847-.509 1.365.106.207.245.338.507.477.124.065.276.076 1.32.097 1.271.025 1.359.038 1.757.268.231.133.512.393.592.548.035.067.094.243.13.391l.067.268-1.883.012c-1.847.011-1.886.013-2.046.098a.994.994 0 0 0 .043 1.799l.2.093 1.843.001h1.844l-.067.27a2.36 2.36 0 0 1-.132.395c-.093.18-.454.491-.702.606-.423.195-.565.214-1.706.235-.594.011-1.137.038-1.207.059-.553.17-.82.834-.554 1.377.1.203.287.365 2.954 2.547 1.566 1.282 2.916 2.365 3.001 2.407.671.333 1.489-.23 1.417-.974-.041-.433-.049-.44-1.945-1.989-.96-.785-1.803-1.476-1.873-1.536l-.127-.109.347-.108c1.455-.45 2.24-1.251 2.665-2.717a3.62 3.62 0 0 0 .102-.407c0-.046.14-.056.77-.056.722-.001.782-.007.97-.094a.994.994 0 0 0 .043-1.799c-.149-.08-.232-.088-.968-.1l-.804-.013-.087-.327a4.997 4.997 0 0 0-.282-.734l-.195-.407 1.067-.013c.949-.012 1.081-.021 1.206-.088.257-.137.381-.254.499-.469.28-.515.048-1.142-.51-1.375-.128-.053-.616-.061-3.878-.059-3.225.001-3.75.009-3.869.061" fill="#667085" fill-rule="evenodd"/></svg>