<svg width="24" height="24" fill="none" xmlns="http://www.w3.org/2000/svg"><path d="M10.5 1.043c-2.622.148-4.929.65-6.421 1.397-1.125.563-1.831 1.292-2.018 2.084-.052.223-.06 1.181-.06 7.476 0 8-.017 7.469.264 8.005.796 1.514 3.48 2.547 7.595 2.923.746.068 3.534.068 4.28 0 2.201-.201 3.935-.573 5.291-1.134 1.407-.582 2.295-1.405 2.509-2.326.053-.232.059-1.13.05-7.496-.009-6.584-.016-7.245-.075-7.372a4.732 4.732 0 0 1-.135-.34c-.11-.319-.37-.73-.617-.977C19.617 1.737 15.086.785 10.5 1.043m2.82 1.998c1.414.079 2.773.269 3.84.538.781.197 1.23.355 1.833.646.421.204.582.305.77.488.13.127.237.256.237.287 0 .131-.462.504-.9.727-1.184.601-2.782.979-5.08 1.201-.689.067-3.351.067-4.04 0-1.797-.174-3.185-.45-4.3-.855-.394-.143-.978-.427-1.218-.592C4.271 5.35 4 5.063 4 4.992c0-.027.107-.152.237-.279.415-.403 1.397-.83 2.618-1.138 1.794-.452 4.264-.656 6.465-.534M4.437 7.657c.603.341 1.124.525 2.203.78.907.214 1.983.378 3.22.491.755.069 3.532.068 4.3-.002 1.442-.131 2.725-.349 3.815-.647.73-.2 1.094-.343 1.588-.622.21-.12.394-.217.41-.217.015 0 .027 1.035.027 2.301v2.301l-.166.18c-.937 1.016-4.291 1.777-7.834 1.777-3.543 0-6.897-.761-7.834-1.777L4 12.042V9.741c0-1.266.012-2.301.027-2.301.016 0 .2.097.41.217m.065 7.038c1.043.58 2.906 1.009 5.358 1.233.342.031 1.174.051 2.14.051.966 0 1.798-.02 2.14-.051 2.452-.224 4.315-.653 5.358-1.233.252-.14.469-.255.48-.255.012 0 .022 1.035.022 2.301v2.301l-.166.18c-.937 1.016-4.291 1.777-7.834 1.777-3.543 0-6.897-.761-7.834-1.777L4 19.042v-2.301c0-1.266.01-2.301.022-2.301.011 0 .228.115.48.255" fill="#667085" fill-rule="evenodd"/></svg>