<svg width="24" height="24" fill="none" xmlns="http://www.w3.org/2000/svg"><path d="M10.5 1.043c-2.622.148-4.929.65-6.421 1.397-1.125.563-1.831 1.292-2.018 2.084-.052.223-.06 1.181-.06 7.476 0 8-.017 7.469.264 8.005.796 1.514 3.48 2.547 7.595 2.923.746.068 3.534.068 4.28 0 2.201-.201 3.935-.573 5.291-1.134 1.407-.582 2.295-1.405 2.509-2.326.053-.232.059-1.13.05-7.496-.009-6.584-.016-7.245-.075-7.372a4.732 4.732 0 0 1-.135-.34c-.11-.319-.37-.73-.617-.977C19.617 1.737 15.086.785 10.5 1.043m2.82 1.998c1.414.079 2.773.269 3.84.538.781.197 1.23.355 1.833.646.421.204.582.305.77.488.13.127.237.256.237.287 0 .131-.462.504-.9.727-1.184.601-2.782.979-5.08 1.201-.689.067-3.351.067-4.04 0-1.797-.174-3.185-.45-4.3-.855-.394-.143-.978-.427-1.218-.592C4.271 5.35 4 5.063 4 4.992c0-.027.107-.152.237-.279.415-.403 1.397-.83 2.618-1.138 1.794-.452 4.264-.656 6.465-.534M4.437 7.657c.603.341 1.124.525 2.203.78.907.214 1.983.378 3.22.491.755.069 3.532.068 4.3-.002 1.442-.131 2.725-.349 3.815-.647.73-.2 1.094-.343 1.588-.622.21-.12.394-.217.41-.217.015 0 .027.518.027 1.151 0 1.026-.008 1.162-.069 1.25-.244.348-1.029.782-1.952 1.077-3.333 1.068-8.624 1.068-11.958 0-.922-.295-1.708-.729-1.952-1.077C4.008 9.753 4 9.617 4 8.591c0-.633.012-1.151.027-1.151.016 0 .2.097.41.217m.069 4.76c1.041.58 2.928 1.015 5.334 1.23.774.07 3.546.07 4.32 0 2.401-.215 4.296-.652 5.338-1.232.252-.14.469-.255.48-.255.012 0 .022.518.022 1.151 0 1.374.035 1.271-.572 1.674-.949.632-2.834 1.127-5.188 1.362-.99.099-3.49.099-4.48 0-2.482-.248-4.463-.795-5.375-1.483-.402-.304-.384-.233-.385-1.554 0-.632.01-1.15.022-1.15.011 0 .229.116.484.257m-.071 4.682c.487.276.746.381 1.433.582 1.005.294 2.318.527 3.752.666 1.022.099 3.738.099 4.76 0 1.434-.139 2.747-.372 3.752-.666.687-.201.946-.306 1.433-.582.213-.12.398-.219.411-.219.013 0 .024.486.024 1.081v1.081l-.166.18c-.937 1.016-4.291 1.777-7.834 1.777-3.543 0-6.897-.761-7.834-1.777L4 19.042v-1.081c0-.595.011-1.081.024-1.081.013 0 .198.099.411.219" fill="#667085" fill-rule="evenodd"/></svg>