<svg width="24" height="24" fill="none" xmlns="http://www.w3.org/2000/svg"><path d="M2.091 1.057a1.568 1.568 0 0 0-.946.823l-.125.26v4.72l.124.26c.157.33.406.579.736.736l.26.124h4.72l.26-.125c.332-.159.578-.406.736-.735l.124-.26V2.14l-.124-.26a1.537 1.537 0 0 0-.735-.732l-.259-.128-2.301-.008c-1.824-.006-2.336.003-2.47.045M6 4.5V6H3V3h3v1.5m4.617-.924c-.347.153-.616.557-.616.924 0 .373.263.768.619.928.15.068.437.073 4.661.092l4.501.02.199.102c.267.138.41.349.462.683.025.161.037.993.029 2.141-.013 2.068.003 1.935-.267 2.228-.224.242-.349.273-1.203.303-.882.031-.984.06-1.25.355-.445.493-.272 1.264.348 1.554.187.087.248.093.92.092 1.026-.001 1.459-.095 2.049-.444.321-.189.808-.682 1.002-1.014.391-.667.449-1.09.449-3.28 0-1.653-.036-2.229-.165-2.648a2.955 2.955 0 0 0-1.495-1.773c-.647-.32-.24-.297-5.46-.307-3.846-.008-4.682 0-4.783.044m-.825 4.949c-.422.045-.863.342-1.095.736-.214.365-.221.468-.209 2.846.012 2.146.014 2.198.099 2.405.168.41.491.733.901.901.209.086.242.087 2.512.087h2.3l.24-.096c.174-.07.312-.169.504-.36.191-.192.29-.33.36-.504l.096-.24V12c0-2.27-.001-2.303-.087-2.512a1.61 1.61 0 0 0-.893-.892c-.191-.072-.337-.078-2.352-.087-1.181-.005-2.251.002-2.376.016m3.688 3.495v1.5h-2.96v-3h2.96v1.5m-9.418-.977a2.97 2.97 0 0 0-2.398 2c-.147.44-.184.982-.184 2.697 0 1.653.036 2.229.165 2.648a2.964 2.964 0 0 0 1.973 1.969c.491.151 1.07.168 5.442.155 3.906-.011 4.17-.016 4.32-.084.356-.16.619-.555.619-.928 0-.391-.326-.844-.677-.941-.087-.024-1.829-.045-4.502-.055-2.567-.009-4.439-.031-4.552-.053a.915.915 0 0 1-.626-.47l-.102-.199v-2.061c0-2.048.001-2.062.087-2.201.048-.077.138-.189.2-.248.209-.2.363-.235 1.127-.257.808-.023.97-.063 1.232-.304.499-.461.376-1.272-.243-1.604-.149-.079-.227-.088-.903-.094a9.702 9.702 0 0 0-.978.03M17.1 16.055a1.624 1.624 0 0 0-.965.836l-.115.249v4.72l.113.244c.143.309.452.617.767.764l.24.112h4.72l.24-.112c.315-.147.624-.455.767-.764l.113-.244v-4.72l-.115-.249a1.71 1.71 0 0 0-.775-.763l-.23-.108-2.3-.008c-1.778-.006-2.336.004-2.46.043M21 19.5V21h-3v-3h3v1.5" fill="#667085" fill-rule="evenodd"/></svg>