<svg width="24" height="24" fill="none" xmlns="http://www.w3.org/2000/svg"><path d="M18.46 1.064c-.789.176-1.582.875-1.946 1.717l-.094.218-.5.001c-1.62.003-2.401.181-3.22.733-.558.375-1.146 1.113-1.392 1.744-.27.694-.279.789-.297 3.273L10.994 11l-1.707-.001H7.58l-.094-.218c-.379-.874-1.169-1.554-2.004-1.723-.612-.124-1.191-.032-1.842.29-.508.252-1.02.75-1.268 1.232-.277.538-.352.841-.352 1.42s.075.882.352 1.42c.23.447.761.978 1.208 1.208.533.274.843.352 1.4.352.421 0 .52-.014.807-.112a2.773 2.773 0 0 0 1.11-.754c.231-.254.543-.74.632-.984l.047-.13h3.418l.017 2.25c.018 2.484.027 2.579.297 3.273.372.955 1.318 1.875 2.262 2.2.531.183.963.241 1.954.266l.904.022.045.125c.093.254.415.75.657 1.01.313.335.728.61 1.113.736.247.081.377.097.777.098.557 0 .867-.078 1.4-.352.447-.23.978-.761 1.208-1.208.277-.538.352-.841.352-1.42s-.075-.882-.352-1.42c-.248-.482-.76-.98-1.268-1.232-.451-.223-.74-.304-1.2-.334a2.533 2.533 0 0 0-1.852.667c-.269.247-.662.79-.807 1.115l-.078.176-.882-.025c-.993-.027-1.334-.083-1.616-.264-.384-.247-.684-.641-.786-1.032-.094-.363-.139-1.343-.139-3.061V13h3.424l.047.13c.181.496.718 1.158 1.192 1.469.435.285.774.38 1.357.381.557 0 .867-.078 1.4-.352.447-.23.978-.761 1.208-1.208.277-.538.352-.841.352-1.42s-.075-.882-.352-1.42c-.248-.482-.76-.98-1.268-1.232-.651-.322-1.23-.414-1.842-.29-.835.169-1.625.849-2.004 1.723l-.094.218h-1.71L13 11V9.41c0-1.721.045-2.698.14-3.062.076-.293.27-.598.527-.828.412-.37.651-.428 1.914-.467l.841-.025.079.176c.123.273.443.744.669.983.266.281.653.535 1.03.676.267.099.355.112.8.114.579.003.878-.07 1.42-.349.447-.23.978-.761 1.208-1.208.277-.538.352-.841.352-1.42s-.075-.882-.352-1.42c-.248-.482-.76-.98-1.268-1.232a4.324 4.324 0 0 0-.62-.251c-.358-.093-.946-.108-1.28-.033m1.04 2.074c.672.394.652 1.389-.035 1.753-.246.13-.701.125-.943-.011-.749-.42-.659-1.524.148-1.825.229-.086.607-.048.83.083m-14 8c.672.394.652 1.389-.035 1.753-.246.13-.701.125-.943-.011-.749-.42-.659-1.524.148-1.825.229-.086.607-.048.83.083m14 0c.672.394.652 1.389-.035 1.753-.246.13-.701.125-.943-.011-.749-.42-.659-1.524.148-1.825.229-.086.607-.048.83.083m0 8c.672.394.652 1.389-.035 1.753-.246.13-.701.125-.943-.011-.749-.42-.659-1.524.148-1.825.229-.086.607-.048.83.083" fill="#667085" fill-rule="evenodd"/></svg>