<svg width="24" height="24" fill="none" xmlns="http://www.w3.org/2000/svg"><path d="M4.566 1.043c-.315.041-.591.13-.926.299-.321.162-.474.275-.772.568a2.813 2.813 0 0 0-.809 1.564c-.083.475-.083 2.579 0 3.054.063.363.221.791.389 1.055.284.446.751.868 1.212 1.095.637.313.412.296 4.07.312l3.27.013v2.99l-2.21.019c-2.306.02-2.536.036-3.09.215-.801.258-1.57.861-2.055 1.611-.463.717-.599 1.292-.634 2.689l-.022.906-.165.063c-.245.094-.761.437-1.006.67a3.473 3.473 0 0 0-.398.47c-.708 1.037-.489 2.552.508 3.509 1.644 1.579 4.267.867 4.958-1.345.079-.251.094-.382.091-.8-.002-.445-.015-.533-.114-.8-.266-.712-.891-1.352-1.651-1.688l-.184-.081.025-.846c.039-1.268.097-1.506.467-1.918.23-.257.535-.451.828-.527.364-.095 1.341-.14 3.062-.14H11V17.429l-.17.065c-.25.096-.764.437-1.012.672a3.473 3.473 0 0 0-.398.47c-.708 1.037-.489 2.552.508 3.509 1.644 1.579 4.267.867 4.958-1.345.079-.251.093-.381.09-.8-.003-.433-.017-.539-.108-.792a2.865 2.865 0 0 0-.683-1.04c-.25-.236-.764-.577-1.015-.674l-.17-.065V14h1.59c1.721 0 2.698.045 3.062.14.293.076.598.27.828.527.369.411.425.642.466 1.938l.026.826-.184.081c-.521.231-1.077.689-1.365 1.126-.708 1.071-.495 2.547.505 3.507 1.644 1.579 4.267.867 4.958-1.345.079-.251.093-.381.09-.8-.003-.433-.017-.539-.108-.792a2.865 2.865 0 0 0-.683-1.04c-.248-.234-.763-.577-1.009-.672l-.165-.063-.022-.906c-.035-1.397-.171-1.972-.634-2.689-.485-.75-1.254-1.353-2.055-1.611-.554-.179-.784-.195-3.09-.215L13 11.993v-2.99l3.27-.013c3.658-.016 3.433.001 4.07-.312a3.199 3.199 0 0 0 1.209-1.093c.169-.267.33-.702.392-1.059.083-.473.083-2.579 0-3.051-.2-1.145-1.018-2.031-2.201-2.383-.226-.067-.663-.071-7.58-.077-4.037-.003-7.454.009-7.594.028M19.4 3.084c.217.099.385.26.487.467.091.186.093.211.093 1.449s-.002 1.263-.093 1.449a.993.993 0 0 1-.487.467c-.127.058-.833.064-7.4.064s-7.273-.006-7.4-.064a.986.986 0 0 1-.483-.461c-.081-.169-.09-.256-.107-1.109-.024-1.189.019-1.686.165-1.905.165-.25.382-.372.719-.403.157-.015 3.454-.025 7.326-.023 6.359.005 7.054.011 7.18.069M4.5 19.138c.672.394.652 1.389-.035 1.753-.231.122-.698.123-.925.002-.356-.19-.518-.469-.519-.893-.001-.257.015-.327.11-.489a.954.954 0 0 1 .937-.496.904.904 0 0 1 .432.123m8 0c.672.394.652 1.389-.035 1.753-.231.122-.698.123-.925.002-.356-.19-.518-.469-.519-.893-.001-.257.015-.327.11-.489a.954.954 0 0 1 .937-.496.904.904 0 0 1 .432.123m8 0c.672.394.652 1.389-.035 1.753-.231.122-.698.123-.925.002-.356-.19-.518-.469-.519-.893-.001-.257.015-.327.11-.489a.954.954 0 0 1 .937-.496.904.904 0 0 1 .432.123" fill="#667085" fill-rule="evenodd"/></svg>