<svg width="24" height="24" fill="none" xmlns="http://www.w3.org/2000/svg"><path d="M10.5 1.043c-2.622.148-4.929.65-6.421 1.397-1.125.563-1.831 1.292-2.018 2.084-.09.382-.09 6.57 0 6.952.364 1.542 2.54 2.711 5.959 3.203.763.109 1.682.197 2.39.228l.59.025v1.244l-.001 1.244-.232.108a2.68 2.68 0 0 0-1.214 1.195l-.133.272-3.283.002c-3.697.003-3.526-.01-3.838.302a.984.984 0 0 0 0 1.402c.312.312.14.299 3.84.299h3.285l.047.13c.181.496.718 1.158 1.192 1.469.43.281.776.38 1.337.38.4 0 .503-.014.787-.112a2.76 2.76 0 0 0 1.11-.753c.231-.254.543-.74.632-.984l.047-.13h3.285c3.7 0 3.528.013 3.84-.299a.984.984 0 0 0 0-1.402c-.312-.312-.141-.299-3.838-.302l-3.283-.002-.133-.272a2.68 2.68 0 0 0-1.214-1.195l-.232-.108L13 16.176v-1.244l.59-.025a26.533 26.533 0 0 0 2.39-.228c3.419-.492 5.595-1.661 5.959-3.203.051-.217.06-.741.06-3.416.001-1.829-.015-3.211-.036-3.28-.222-.719-.454-1.151-.803-1.5C19.617 1.737 15.081.785 10.5 1.043m2.82 1.998c1.414.079 2.773.269 3.84.538.781.197 1.23.355 1.833.646.421.204.582.305.77.488.13.127.237.256.237.287 0 .131-.462.504-.9.727-1.184.601-2.782.979-5.08 1.201-.689.067-3.351.067-4.04 0-1.797-.174-3.185-.45-4.3-.855-.394-.143-.978-.427-1.218-.592C4.271 5.35 4 5.063 4 4.992c0-.027.107-.152.237-.279.415-.403 1.397-.83 2.618-1.138 1.794-.452 4.264-.656 6.465-.534M4.437 7.657c.603.341 1.124.525 2.203.78.907.214 1.983.378 3.22.491.755.069 3.532.068 4.3-.002 1.442-.131 2.725-.349 3.815-.647.73-.2 1.094-.343 1.588-.622.21-.12.394-.217.41-.217.015 0 .027.81.027 1.801v1.801l-.166.18c-.937 1.016-4.291 1.777-7.834 1.777-3.543 0-6.897-.761-7.834-1.777L4 11.042V9.241c0-.991.012-1.801.027-1.801.016 0 .2.097.41.217M12.5 19.138c.672.394.652 1.389-.035 1.753-.246.13-.701.125-.943-.011-.749-.42-.659-1.524.148-1.825.229-.086.607-.048.83.083" fill="#667085" fill-rule="evenodd"/></svg>