<svg width="24" height="24" fill="none" xmlns="http://www.w3.org/2000/svg"><path d="M2.185 1.044c-.244.058-.613.273-.77.447-.079.088-.2.278-.269.424l-.126.265v3.64l.126.265c.175.37.368.568.727.745l.303.15h3.648l.303-.15c.359-.177.552-.375.727-.745l.126-.265V2.18l-.126-.265c-.175-.37-.368-.568-.727-.745l-.303-.15-1.742-.007c-.972-.004-1.811.01-1.897.031M5 4v1H3V3h2v1m5.185 1.044c-.244.058-.613.273-.77.447-.079.088-.2.278-.269.424l-.126.265v3.64l.126.265c.175.37.368.568.727.745l.303.15h3.648l.303-.15c.359-.177.552-.375.727-.745l.126-.265V6.18l-.126-.265c-.175-.37-.368-.568-.727-.745l-.303-.15-1.742-.007c-.972-.004-1.811.01-1.897.031M13 8v1h-2V7h2v1m5.1 1.055a1.627 1.627 0 0 0-.965.836l-.115.249-.012 1.428-.012 1.428-1.428.012-1.428.012-.23.108a1.71 1.71 0 0 0-.775.763l-.115.249-.012 1.428-.012 1.428-1.428.012-1.428.012-.23.108a1.71 1.71 0 0 0-.775.763l-.115.249v3.72l.112.24c.147.315.455.624.764.767l.244.113h11.72l.244-.113c.309-.143.617-.452.764-.767l.112-.24V10.14l-.115-.249a1.71 1.71 0 0 0-.775-.763l-.23-.108-1.8-.008c-1.375-.006-1.838.004-1.96.043M3.185 11.044c-.244.058-.613.273-.77.447-.079.088-.2.278-.269.424l-.126.265v3.64l.126.265c.175.37.368.568.727.745l.303.15h3.648l.303-.15c.359-.177.552-.375.727-.745l.126-.265v-3.64l-.126-.265c-.175-.37-.368-.568-.727-.745l-.303-.15-1.742-.007c-.972-.004-1.811.01-1.897.031M21 16v5H11v-1.996l1.43-.012 1.43-.012.244-.113c.309-.143.617-.452.764-.767l.112-.24.012-1.428.012-1.428 1.428-.012 1.428-.012.24-.112c.315-.147.624-.455.767-.764l.113-.244.012-1.43.012-1.43H21v5M6 14v1H4v-2h2v1" fill="#667085" fill-rule="evenodd"/></svg>