<svg width="24" height="24" fill="none" xmlns="http://www.w3.org/2000/svg"><path d="M4.44 1.06c-.611.123-1.099.39-1.561.856A2.924 2.924 0 0 0 2.114 3.2c-.078.247-.094.388-.094.8 0 .579.075.882.352 1.42.23.447.761.978 1.208 1.208.533.274.843.352 1.4.352.421 0 .52-.014.807-.112a2.773 2.773 0 0 0 1.11-.754c.231-.254.543-.74.632-.984L7.576 5H10.997l.013 6.25c.013 6.169.014 6.255.097 6.61.119.515.285.914.551 1.323.443.684 1.204 1.297 1.912 1.54.531.183.963.241 1.954.266l.904.022.045.125c.093.254.415.75.657 1.01.313.335.728.61 1.113.736.247.081.377.097.777.098.557 0 .867-.078 1.4-.352.447-.23.978-.761 1.208-1.208.277-.538.352-.841.352-1.42s-.075-.882-.352-1.42c-.248-.482-.76-.98-1.268-1.232-.451-.223-.74-.304-1.2-.334a2.533 2.533 0 0 0-1.852.667c-.269.247-.662.79-.807 1.115l-.078.176-.882-.025c-.993-.027-1.334-.083-1.616-.264-.384-.247-.684-.641-.786-1.032-.094-.363-.139-1.343-.139-3.061V13h3.424l.047.13c.181.496.718 1.158 1.192 1.469.435.285.774.38 1.357.381.557 0 .867-.078 1.4-.352.447-.23.978-.761 1.208-1.208.277-.538.352-.841.352-1.42s-.075-.882-.352-1.42c-.248-.482-.76-.98-1.268-1.232-.651-.322-1.23-.414-1.842-.29-.835.169-1.625.849-2.004 1.723l-.094.218h-1.71L13 11V5h3.424l.047.13c.181.496.718 1.158 1.192 1.469.435.285.774.38 1.357.381.557 0 .867-.078 1.4-.352.447-.23.978-.761 1.208-1.208.277-.538.352-.841.352-1.42s-.075-.882-.352-1.42c-.248-.482-.76-.98-1.268-1.232-.651-.322-1.23-.414-1.842-.29-.835.169-1.625.849-2.004 1.723l-.094.218H7.58l-.094-.218C6.935 1.509 5.694.808 4.44 1.06M5.5 3.138c.672.394.652 1.389-.035 1.753-.246.13-.701.125-.943-.011-.749-.42-.659-1.524.148-1.825.229-.086.607-.048.83.083m14 0c.672.394.652 1.389-.035 1.753-.246.13-.701.125-.943-.011-.749-.42-.659-1.524.148-1.825.229-.086.607-.048.83.083m0 8c.672.394.652 1.389-.035 1.753-.246.13-.701.125-.943-.011-.749-.42-.659-1.524.148-1.825.229-.086.607-.048.83.083m0 8c.672.394.652 1.389-.035 1.753-.246.13-.701.125-.943-.011-.749-.42-.659-1.524.148-1.825.229-.086.607-.048.83.083" fill="#667085" fill-rule="evenodd"/></svg>