<svg width="24" height="24" fill="none" xmlns="http://www.w3.org/2000/svg"><path d="M8.52 3.025c-.7.103-1.325.409-1.772.867-.269.277-5.308 6.998-5.418 7.228-.123.256-.21.62-.21.88s.087.624.21.88c.117.245 5.174 6.982 5.44 7.248.409.41.934.689 1.518.809.272.055.919.063 5.432.063 5.128 0 5.574-.01 6.154-.143 1.337-.305 2.534-1.491 2.843-2.817.153-.654.163-1.03.163-6.04s-.01-5.386-.163-6.04c-.173-.743-.696-1.553-1.328-2.059-.651-.521-1.323-.777-2.257-.859-.435-.038-10.358-.054-10.612-.017m10.72 2.051c.625.102 1.155.486 1.399 1.012.215.466.221.613.221 5.912 0 5.279-.006 5.45-.217 5.9-.207.444-.637.824-1.081.956-.441.131-1.248.148-6.162.136l-4.82-.012-.192-.113c-.167-.098-.506-.532-2.71-3.47C4.293 13.551 3.16 12.022 3.16 12c0-.022 1.132-1.549 2.516-3.394 2.604-3.472 2.63-3.503 2.961-3.57.259-.053 10.266-.015 10.603.04m-8.695 2.98c-.539.201-.813.831-.582 1.344.059.133.399.499 1.288 1.39L12.46 12l-1.209 1.21C9.94 14.523 9.882 14.599 9.881 15c-.001.686.661 1.156 1.324.94.198-.065.312-.167 1.445-1.294l1.231-1.224 1.209 1.205c.666.662 1.271 1.235 1.345 1.272.52.262 1.22-.035 1.384-.589.077-.259.077-.363-.003-.633-.061-.205-.135-.287-1.288-1.447L15.304 12l1.224-1.23c1.153-1.16 1.227-1.242 1.288-1.447.079-.27.08-.374.004-.631-.069-.233-.282-.475-.522-.593-.213-.104-.662-.106-.858-.004-.077.041-.684.616-1.35 1.278l-1.209 1.205-1.211-1.202c-.765-.76-1.267-1.229-1.365-1.273-.21-.097-.567-.119-.76-.047" fill="#667085" fill-rule="evenodd"/></svg>