<svg width="24" height="24" fill="none" xmlns="http://www.w3.org/2000/svg"><path d="M6.891 1.038a1.697 1.697 0 0 0-.715.41c-.091.095-1.204 1.42-2.474 2.945-1.605 1.928-2.34 2.84-2.409 2.991a1.48 1.48 0 0 0-.054 1.056c.048.143.135.323.194.4a837.87 837.87 0 0 0 4.87 5.38c3.167 3.483 4.817 5.269 4.921 5.326.219.121.557.214.776.214.219 0 .557-.093.776-.214.104-.057 1.757-1.846 4.928-5.333 2.624-2.886 4.824-5.32 4.889-5.41.265-.366.314-.982.112-1.423-.067-.146-.83-1.093-2.407-2.987a241.977 241.977 0 0 0-2.474-2.945 1.77 1.77 0 0 0-.424-.3l-.26-.128-5.06-.006c-2.783-.004-5.118.007-5.189.024M8.59 3.05l-.667 2L7.273 7h-3.12l.074-.097c.04-.054.784-.953 1.653-1.999l1.58-1.902.574-.001c.443-.001.57.01.556.049m5.333 1.9.667 2c.015.04-.52.05-2.59.05s-2.605-.01-2.59-.05l.667-2 .65-1.95h2.546l.65 1.95m4.217-.028c.88 1.057 1.625 1.956 1.655 1.999.054.078.037.079-1.507.079h-1.561l-.65-1.95-.667-2c-.014-.039.113-.05.556-.049l.574.001 1.6 1.92M7.32 9.013c0 .007.486 1.288 1.08 2.847a158.875 158.875 0 0 1 1.069 2.845c-.011.01-4.676-5.105-5.042-5.528L4.274 9h1.523c.838 0 1.523.006 1.523.013m7.044.477c-.104.27-.674 1.763-1.267 3.32-.592 1.556-1.086 2.83-1.097 2.83-.011 0-.589-1.494-1.284-3.32L9.451 9h5.102l-.189.49m5.209-.313c-.366.423-5.031 5.538-5.042 5.528-.006-.007.475-1.287 1.069-2.845.594-1.559 1.08-2.84 1.08-2.847 0-.007.685-.013 1.523-.013h1.523l-.153.177M4.667 21.065a.998.998 0 0 0 .003 1.878c.123.044 1.434.054 7.313.055 8.043.002 7.394.027 7.718-.297a.984.984 0 0 0-.004-1.406c-.318-.318.285-.295-7.714-.292-6.178.002-7.149.01-7.316.062" fill="#667085" fill-rule="evenodd"/></svg>