<svg width="24" height="24" fill="none" xmlns="http://www.w3.org/2000/svg"><path d="M6.758 2.222a1.604 1.604 0 0 0-.388.207c-.284.209-4.939 5.785-5.085 6.091-.092.192-.105.271-.105.62 0 .35.013.428.105.62.123.256 9.535 11.578 9.8 11.788.513.407 1.308.403 1.848-.009.099-.076.218-.19.263-.253.045-.064 2.182-2.634 4.748-5.711 3.206-3.846 4.698-5.664 4.771-5.815.092-.192.105-.27.105-.62s-.013-.428-.105-.62c-.151-.314-4.756-5.839-5.06-6.07-.407-.309-.033-.29-5.672-.287-4.213.002-5.073.012-5.225.059M8.59 4.21l-.667 2-.65 1.95H5.717c-.856 0-1.557-.011-1.557-.024 0-.013.741-.913 1.646-2L7.453 4.16h.578c.445 0 .573.011.559.05m5.357 1.93c.359 1.078.653 1.973.653 1.99 0 .016-1.17.03-2.6.03-1.43 0-2.6-.014-2.6-.03 0-.025 1.232-3.745 1.299-3.921.015-.039.298-.048 1.307-.04l1.287.011.654 1.96m4.247-.004a114.59 114.59 0 0 1 1.646 2c0 .013-.701.024-1.557.024h-1.556l-.65-1.95-.667-2c-.014-.039.114-.05.559-.05h.578l1.647 1.976M8.407 13.35c.609 1.754 1.102 3.195 1.095 3.201-.007.007-1.134-1.334-2.504-2.979a2351.896 2351.896 0 0 0-2.67-3.202l-.178-.21 1.575.001H7.3l1.107 3.189m4.897.507c-.706 2.033-1.296 3.685-1.311 3.67-.031-.03-2.553-7.272-2.553-7.33 0-.022 1.026-.037 2.574-.037h2.573l-1.283 3.697m6.368-3.487c-.098.116-1.299 1.556-2.67 3.202-1.37 1.645-2.497 2.986-2.504 2.979-.007-.006.486-1.447 1.095-3.201l1.107-3.189h1.575l1.575-.001-.178.21" fill="#667085" fill-rule="evenodd"/></svg>