<svg width="24" height="24" fill="none" xmlns="http://www.w3.org/2000/svg"><path d="M5.692 2.043c-.839.077-1.499.324-2.126.797-.698.526-1.233 1.341-1.424 2.166-.138.595-.147 1.089-.132 7.314.014 5.55.021 6.171.082 6.467.199.969.73 1.824 1.48 2.384.539.402.985.601 1.656.737.33.067.756.072 6.772.072 6.031 0 6.441-.004 6.775-.072 1.635-.333 2.8-1.498 3.133-3.133.068-.334.072-.744.072-6.775 0-7.126.016-6.686-.263-7.456-.371-1.024-1.365-1.978-2.417-2.317-.642-.208-.406-.201-7.06-.209-3.399-.005-6.345.007-6.548.025M17.78 4.04c.352.021.743.066.87.099.555.145 1.069.659 1.21 1.21.119.463.139 1.416.139 6.631.001 5.203-.021 6.26-.136 6.691-.105.393-.455.821-.872 1.065-.415.243-.25.237-6.611.253-5.845.016-6.565.003-7.051-.126-.531-.141-1.048-.668-1.19-1.213-.116-.443-.138-1.526-.138-6.65 0-5.135.022-6.207.139-6.654.103-.394.412-.789.819-1.046.232-.146.577-.223 1.156-.258.761-.046 10.919-.048 11.665-.002M7.209 6.642a1.23 1.23 0 0 0-.629 1.519c.101.305.473.675.775.771.468.149.92.038 1.268-.309.522-.523.496-1.293-.061-1.794-.245-.22-.488-.309-.843-.309a.93.93 0 0 0-.51.122m8.594-.053c-.267.094-.611.453-.722.751-.303.818.368 1.711 1.239 1.65.318-.023.57-.137.799-.361.616-.604.452-1.597-.328-1.987a.9.9 0 0 0-.527-.119 1.8 1.8 0 0 0-.461.066m-4.205 3.983a1.365 1.365 0 0 0-.798.844c-.074.232-.032.644.091.886.308.608 1.062.866 1.653.566.257-.13.549-.452.632-.695a1.288 1.288 0 0 0-.621-1.537c-.216-.111-.738-.146-.957-.064M7.42 15.053a1.17 1.17 0 0 0-.592.387 1.17 1.17 0 0 0-.191 1.339c.389.791 1.384.961 1.992.34a1.232 1.232 0 0 0-.354-1.992c-.231-.111-.636-.146-.855-.074m8.522-.01c-.39.097-.772.471-.888.871-.259.891.583 1.775 1.473 1.547.641-.164 1.075-.809.951-1.412a1.148 1.148 0 0 0-.365-.677 1.293 1.293 0 0 0-1.171-.329" fill="#667085" fill-rule="evenodd"/></svg>