<svg width="24" height="24" fill="none" xmlns="http://www.w3.org/2000/svg"><path d="M11.041 1.045c-1.47.13-2.98.585-4.26 1.283-.985.538-1.77 1.13-2.583 1.947-1.682 1.693-2.712 3.742-3.086 6.145-.073.467-.087.73-.087 1.58 0 .85.014 1.113.087 1.58.378 2.425 1.41 4.467 3.125 6.183 1.716 1.715 3.758 2.747 6.183 3.125.809.126 2.351.126 3.16 0 2.413-.376 4.471-1.417 6.181-3.127.923-.923 1.563-1.811 2.116-2.941a10.92 10.92 0 0 0 0-9.64 11.163 11.163 0 0 0-3.826-4.353 11.032 11.032 0 0 0-7.01-1.782m2.279 2.057a9.023 9.023 0 0 1 5.664 3.218c.816 1.005 1.483 2.358 1.771 3.6.167.718.222 1.229.222 2.08 0 1.511-.264 2.654-.917 3.98-.896 1.818-2.252 3.179-4.067 4.079a8.986 8.986 0 0 1-6.453.597C7.08 19.955 5.103 18.309 3.946 16c-.642-1.283-.923-2.498-.923-4 0-1.502.281-2.717.923-4 .91-1.819 2.235-3.143 4.056-4.055 1.025-.514 2.001-.783 3.338-.921.324-.033 1.573.016 1.98.078m-1.64 4.922c-.545.062-.99.192-1.46.425C9.112 9 8.335 10.033 8.076 11.3c-.063.309-.063 1.091 0 1.4.341 1.666 1.558 2.883 3.224 3.224.132.027.447.049.7.049 1.089 0 2.02-.389 2.802-1.171s1.171-1.713 1.171-2.802-.389-2.02-1.171-2.802A3.856 3.856 0 0 0 12.8 8.101c-.284-.06-.898-.102-1.12-.077m1.049 2.093c.492.189.958.654 1.157 1.154.078.195.091.303.091.729s-.013.534-.091.729a2.183 2.183 0 0 1-1.157 1.157c-.195.078-.303.091-.729.091s-.534-.013-.729-.091c-.501-.199-.966-.666-1.153-1.157-.108-.284-.147-.855-.08-1.178.142-.684.722-1.298 1.406-1.49.316-.089.984-.059 1.285.056" fill="#667085" fill-rule="evenodd"/></svg>