<svg width="24" height="24" fill="none" xmlns="http://www.w3.org/2000/svg"><path d="M11.041 1.045c-1.47.13-2.98.585-4.26 1.283-.985.538-1.77 1.13-2.583 1.947-1.682 1.693-2.712 3.742-3.086 6.145-.073.467-.087.73-.087 1.58 0 .85.014 1.113.087 1.58.378 2.425 1.41 4.467 3.125 6.183 1.716 1.715 3.758 2.747 6.183 3.125.809.126 2.351.126 3.16 0 2.413-.376 4.471-1.417 6.181-3.127.923-.923 1.563-1.811 2.116-2.941a10.92 10.92 0 0 0 0-9.64 11.163 11.163 0 0 0-3.826-4.353 11.032 11.032 0 0 0-7.01-1.782m2.279 2.057a9.023 9.023 0 0 1 5.664 3.218c.816 1.005 1.483 2.358 1.771 3.6.167.718.222 1.229.222 2.08 0 1.511-.264 2.654-.917 3.98-.896 1.818-2.252 3.179-4.067 4.079a8.986 8.986 0 0 1-6.453.597C7.08 19.955 5.103 18.309 3.946 16c-.642-1.283-.923-2.498-.923-4 0-1.502.281-2.717.923-4 .91-1.819 2.235-3.143 4.056-4.055 1.025-.514 2.001-.783 3.338-.921.324-.033 1.573.016 1.98.078m1.35 1.633c-.68.253-.885 1.11-.389 1.622.086.088.288.227.448.307 1.646.829 2.853 2.463 3.173 4.295.033.188.07.53.082.761.03.543.102.768.314.98a.984.984 0 0 0 1.403.001c.292-.292.353-.654.257-1.533A8.23 8.23 0 0 0 18.326 7.1c-.277-.362-.943-1.035-1.326-1.338a7.206 7.206 0 0 0-1.26-.827c-.355-.188-.466-.227-.673-.241a1.062 1.062 0 0 0-.397.041m-3.237 3.308a4.22 4.22 0 0 0-1.941.856 4.272 4.272 0 0 0-1.38 2.161c-.128.513-.128 1.367 0 1.88.2.801.739 1.645 1.38 2.161.401.323 1.078.665 1.548.781 2.23.55 4.462-.908 4.897-3.197.314-1.657-.57-3.437-2.097-4.222a4.013 4.013 0 0 0-2.407-.42m.95 2c.578.106 1.157.55 1.41 1.082a2.001 2.001 0 0 1-.354 2.25c-.778.831-2.1.831-2.878 0-.754-.806-.739-2.004.035-2.779.489-.488 1.102-.678 1.787-.553m-7.74 1.026a1.066 1.066 0 0 0-.577.591c-.077.225-.084.614-.024 1.172a8.182 8.182 0 0 0 1.749 4.212c.517.64 1.441 1.441 2.087 1.809.502.285 1.108.123 1.376-.369.192-.353.178-.731-.041-1.052-.056-.082-.271-.262-.487-.407-1.634-1.101-2.605-2.788-2.708-4.705-.032-.583-.1-.804-.316-1.02a.999.999 0 0 0-1.059-.231" fill="#667085" fill-rule="evenodd"/></svg>