<svg width="24" height="24" fill="none" xmlns="http://www.w3.org/2000/svg"><path d="M2.643 2.069a1.066 1.066 0 0 0-.577.591C2.005 2.839 2 3.592 2 12c0 10.264-.027 9.375.299 9.701a.984.984 0 0 0 1.402 0C4.027 21.375 4 22.264 4 12c0-10.264.027-9.375-.299-9.701a.998.998 0 0 0-1.058-.23m18 0a1.066 1.066 0 0 0-.577.591C20.005 2.839 20 3.592 20 12c0 10.264-.027 9.375.299 9.701a.984.984 0 0 0 1.402 0c.326-.326.299.563.299-9.701 0-10.264.027-9.375-.299-9.701a.998.998 0 0 0-1.058-.23M10.566 4.041c-.832.114-1.66.652-2.115 1.374-.169.267-.33.702-.392 1.059-.088.502-.088 10.55 0 11.052a2.86 2.86 0 0 0 .827 1.588c.448.447.966.717 1.594.829.417.075 2.623.075 3.04 0a2.964 2.964 0 0 0 2.421-2.417c.088-.502.088-10.55 0-11.052A2.914 2.914 0 0 0 14.3 4.315c-.579-.276-.646-.286-2.14-.298-.737-.006-1.454.005-1.594.024m2.888 2.076a.98.98 0 0 1 .462.483c.058.126.064.665.064 5.4s-.006 5.274-.064 5.4a.993.993 0 0 1-.467.487c-.186.091-.211.093-1.449.093s-1.263-.002-1.449-.093a.993.993 0 0 1-.467-.487c-.057-.125-.065-.654-.076-5.073-.006-2.713.005-5.111.025-5.329.041-.457.133-.641.411-.825.22-.146.49-.169 1.781-.156.987.01 1.055.016 1.229.1" fill="#667085" fill-rule="evenodd"/></svg>