<svg width="24" height="24" fill="none" xmlns="http://www.w3.org/2000/svg"><path d="M2.643 2.069C2.291 2.193 2 2.614 2 3c0 .242.119.521.299.701C2.625 4.027 1.736 4 12 4c10.264 0 9.375.027 9.701-.299a.984.984 0 0 0 0-1.402c-.326-.327.567-.299-9.718-.296-8.192.003-9.182.01-9.34.066m3.923 5.973c-.826.11-1.659.65-2.115 1.373-.169.267-.33.702-.392 1.059-.083.473-.083 2.579 0 3.052a2.86 2.86 0 0 0 .827 1.588c.448.447.966.717 1.594.829.441.079 10.599.079 11.04 0a2.964 2.964 0 0 0 2.421-2.417c.083-.473.083-2.579 0-3.052A2.914 2.914 0 0 0 18.3 8.315c-.664-.317-.164-.293-6.14-.3-2.937-.003-5.454.009-5.594.027M17.4 10.084c.217.099.385.26.487.467.091.186.093.211.093 1.449s-.002 1.263-.093 1.449a.993.993 0 0 1-.487.467c-.126.058-.665.064-5.4.064s-5.274-.006-5.4-.064a.986.986 0 0 1-.483-.461c-.081-.169-.09-.256-.107-1.109-.024-1.189.019-1.686.165-1.905.165-.25.382-.372.719-.404.157-.015 2.554-.025 5.326-.022 4.526.004 5.054.012 5.18.069M2.643 20.069C2.291 20.193 2 20.614 2 21c0 .242.119.521.299.701.326.326-.563.299 9.701.299 10.264 0 9.375.027 9.701-.299a.984.984 0 0 0 0-1.402c-.326-.327.567-.299-9.718-.296-8.192.003-9.182.01-9.34.066" fill="#667085" fill-rule="evenodd"/></svg>