<svg width="24" height="24" fill="none" xmlns="http://www.w3.org/2000/svg"><path d="M2.643 2.067a1.082 1.082 0 0 0-.577.593c-.091.267-.096 2.316-.007 2.825.122.7.375 1.183.868 1.657.48.463 1.009.723 1.659.817.173.025 2.913.04 7.419.04 7.797.001 7.517.009 8.112-.226.797-.314 1.509-1.09 1.736-1.893.035-.121.082-.373.105-.559.053-.427.055-2.373.002-2.562a1.04 1.04 0 0 0-.869-.745.974.974 0 0 0-.974.53c-.102.201-.104.22-.131 1.38-.03 1.278-.049 1.449-.185 1.646-.167.244-.363.349-.73.391-.444.051-13.699.051-14.144 0-.392-.045-.555-.131-.73-.385-.109-.159-.125-.223-.158-.626A20.235 20.235 0 0 1 4 3.68c0-.451-.019-.887-.042-.969-.144-.52-.789-.836-1.315-.644m0 8.999a1.087 1.087 0 0 0-.577.594c-.357 1.048.984 1.822 1.703.982a1.005 1.005 0 0 0-.302-1.529 1.192 1.192 0 0 0-.824-.047m4.597-.031a1.074 1.074 0 0 0-.488.317.97.97 0 0 0 .062 1.359c.659.607 1.68.175 1.68-.711a.949.949 0 0 0-.551-.888c-.172-.088-.545-.129-.703-.077m4.43.02a1.054 1.054 0 0 0-.539.456c-.095.162-.111.233-.111.492 0 .268.014.326.121.5a.999.999 0 1 0 1.631-1.145c-.248-.295-.753-.434-1.102-.303m4.57-.02a1.056 1.056 0 0 0-.702.707c-.107.369-.001.718.302.991.608.546 1.504.21 1.661-.623.064-.342-.2-.816-.555-.997-.175-.089-.547-.13-.706-.078m4.425.024c-.812.289-.894 1.435-.13 1.828.651.335 1.465-.158 1.465-.887 0-.671-.703-1.167-1.335-.941M4.632 16.041c-.69.082-1.237.348-1.745.849-.457.45-.71.947-.828 1.625-.089.509-.084 2.558.007 2.825.138.405.587.692 1.017.651.395-.038.776-.344.875-.702.023-.082.042-.518.042-.969a21 21 0 0 1 .038-1.267c.043-.511.123-.684.408-.872.135-.09.227-.111.626-.145.71-.06 14.066-.028 14.244.034.322.113.549.36.608.66.019.094.044.683.058 1.31.026 1.249.046 1.373.269 1.627.337.383.944.435 1.362.116.074-.056.187-.197.251-.313l.116-.21.013-1.08c.018-1.534-.043-1.969-.366-2.6-.125-.244-.249-.406-.525-.682-.409-.408-.794-.637-1.331-.789l-.311-.088-7.28-.006c-4.004-.003-7.4.009-7.548.026" fill="#667085" fill-rule="evenodd"/></svg>