<svg width="24" height="24" fill="none" xmlns="http://www.w3.org/2000/svg"><path d="M11.041 1.045c-1.47.13-2.98.585-4.26 1.283-.985.538-1.77 1.13-2.583 1.947-1.682 1.693-2.712 3.742-3.086 6.145-.073.467-.087.73-.087 1.58 0 .85.014 1.113.087 1.58.378 2.425 1.41 4.467 3.125 6.183 1.716 1.715 3.758 2.747 6.183 3.125.809.126 2.351.126 3.16 0 2.413-.376 4.471-1.417 6.181-3.127.923-.923 1.563-1.811 2.116-2.941a10.92 10.92 0 0 0 0-9.64 11.163 11.163 0 0 0-3.826-4.353 11.032 11.032 0 0 0-7.01-1.782m2.279 2.057a9.023 9.023 0 0 1 5.664 3.218c.816 1.005 1.483 2.358 1.771 3.6.167.718.222 1.229.222 2.08 0 1.511-.264 2.654-.917 3.98-.896 1.818-2.252 3.179-4.067 4.079a8.986 8.986 0 0 1-6.453.597C7.08 19.955 5.103 18.309 3.946 16c-.642-1.283-.923-2.498-.923-4 0-1.502.281-2.717.923-4 .91-1.819 2.235-3.143 4.056-4.055 1.025-.514 2.001-.783 3.338-.921.324-.033 1.573.016 1.98.078M11.6 6.555c-.35.115-.731.413-.904.708a1.87 1.87 0 0 0-.158.453 1.034 1.034 0 0 0-.001.56c.072.345.143.485.376.734.243.259.456.38.803.452.499.104.988-.052 1.348-.43.235-.247.331-.428.398-.749.137-.659-.189-1.299-.828-1.628-.178-.091-.274-.112-.574-.121-.198-.006-.405.003-.46.021m-4.957 4.514C6.291 11.193 6 11.614 6 12c0 .242.119.521.299.701.32.32-.082.299 5.701.299 5.783 0 5.381.021 5.701-.299a.984.984 0 0 0 0-1.402c-.32-.32.085-.299-5.718-.296-4.569.003-5.183.01-5.34.066m4.957 3.486c-.35.115-.731.413-.904.708a1.87 1.87 0 0 0-.158.453 1.034 1.034 0 0 0-.001.56c.072.345.143.485.376.734.243.259.456.38.803.452.499.104.988-.052 1.348-.43.235-.247.331-.428.398-.749.137-.659-.189-1.299-.828-1.628-.178-.091-.274-.112-.574-.121-.198-.006-.405.003-.46.021" fill="#667085" fill-rule="evenodd"/></svg>