<svg width="24" height="24" fill="none" xmlns="http://www.w3.org/2000/svg"><path d="M11.44 3.057a2.93 2.93 0 0 0-1.561.859A2.924 2.924 0 0 0 9.114 5.2c-.078.247-.094.388-.094.8 0 .579.075.882.352 1.42.23.447.761.978 1.208 1.208.538.277.841.352 1.42.352s.882-.075 1.42-.352c.447-.23.978-.761 1.208-1.208.277-.538.352-.841.352-1.42s-.075-.882-.352-1.42c-.248-.482-.76-.98-1.268-1.232a4.324 4.324 0 0 0-.62-.251c-.336-.087-.981-.107-1.3-.04m1.06 2.081c.672.394.652 1.389-.035 1.753-.246.13-.701.125-.943-.011-.749-.42-.659-1.524.148-1.825.229-.086.607-.048.83.083m-8.857 5.931C3.291 11.193 3 11.614 3 12c0 .242.119.521.299.701.325.325-.443.299 8.701.299s8.376.026 8.701-.299a.984.984 0 0 0 0-1.402c-.325-.326.446-.299-8.718-.296-7.286.003-8.182.01-8.34.066m7.797 3.988a2.93 2.93 0 0 0-1.561.859 2.924 2.924 0 0 0-.765 1.284c-.078.247-.094.388-.094.8 0 .579.075.882.352 1.42.23.447.761.978 1.208 1.208.538.277.841.352 1.42.352s.882-.075 1.42-.352c.447-.23.978-.761 1.208-1.208.277-.538.352-.841.352-1.42s-.075-.882-.352-1.42c-.248-.482-.76-.98-1.268-1.232a4.324 4.324 0 0 0-.62-.251c-.336-.087-.981-.107-1.3-.04m1.06 2.081c.672.394.652 1.389-.035 1.753-.246.13-.701.125-.943-.011-.749-.42-.659-1.524.148-1.825.229-.086.607-.048.83.083" fill="#667085" fill-rule="evenodd"/></svg>