<svg width="24" height="24" fill="none" xmlns="http://www.w3.org/2000/svg"><path d="M11.602 4.044c-.337.066-.755.299-1.017.568-.783.801-.777 1.996.015 2.788.798.798 2.002.798 2.8 0 .792-.792.798-1.987.015-2.788a2 2 0 0 0-1.813-.568m-7.959 7.025C3.291 11.193 3 11.614 3 12c0 .242.119.521.299.701.325.325-.443.299 8.701.299s8.376.026 8.701-.299a.984.984 0 0 0 0-1.402c-.325-.326.446-.299-8.718-.296-7.286.003-8.182.01-8.34.066m7.959 4.975c-.337.066-.755.299-1.017.568-.783.801-.777 1.996.015 2.788.798.798 2.002.798 2.8 0 .792-.792.798-1.987.015-2.788a2 2 0 0 0-1.813-.568" fill="#667085" fill-rule="evenodd"/></svg>