<svg width="24" height="24" fill="none" xmlns="http://www.w3.org/2000/svg"><path d="M3.88 2.583c-.796.208-1.469.839-1.746 1.637-.097.278-.111.38-.111.78s.014.502.111.78c.141.406.37.76.674 1.041.486.45 1.036.667 1.692.667 1.183 0 2.16-.791 2.439-1.975.296-1.255-.551-2.607-1.837-2.933-.299-.075-.929-.074-1.222.003m5.763 1.486C9.291 4.193 9 4.614 9 5c0 .242.119.521.299.701C9.62 6.022 9.157 6 15.5 6s5.88.022 6.201-.299c.18-.18.299-.459.299-.701 0-.242-.119-.521-.299-.701-.321-.322.145-.299-6.218-.296-5.022.003-5.683.01-5.84.066m-4.855.529c.178.109.249.347.169.572-.077.22-.217.317-.457.317-.24 0-.38-.097-.457-.317-.121-.341.096-.65.457-.65.088 0 .217.035.288.078M3.88 9.583c-.796.208-1.469.839-1.746 1.637-.097.278-.111.38-.111.78s.014.502.111.78c.141.406.37.76.674 1.041.486.45 1.036.667 1.692.667 1.183 0 2.16-.791 2.439-1.975.296-1.255-.551-2.607-1.837-2.933-.299-.075-.929-.074-1.222.003m5.763 1.486C9.291 11.193 9 11.614 9 12c0 .242.119.521.299.701.321.321-.142.299 6.201.299s5.88.022 6.201-.299c.18-.18.299-.459.299-.701 0-.242-.119-.521-.299-.701-.321-.322.145-.299-6.218-.296-5.022.003-5.683.01-5.84.066m-4.855.529c.178.109.249.347.169.572-.077.22-.217.317-.457.317-.24 0-.38-.097-.457-.317-.121-.341.096-.65.457-.65.088 0 .217.035.288.078m-.908 4.985c-.796.208-1.469.839-1.746 1.637-.097.278-.111.38-.111.78s.014.502.111.78c.141.406.37.76.674 1.041.486.45 1.036.667 1.692.667 1.183 0 2.16-.791 2.439-1.975.296-1.255-.551-2.607-1.837-2.933-.299-.075-.929-.074-1.222.003m5.763 1.486C9.291 18.193 9 18.614 9 19c0 .242.119.521.299.701.321.321-.142.299 6.201.299s5.88.022 6.201-.299c.18-.18.299-.459.299-.701 0-.242-.119-.521-.299-.701-.321-.322.145-.299-6.218-.296-5.022.003-5.683.01-5.84.066m-4.855.529c.178.109.249.347.169.572-.077.22-.217.317-.457.317-.24 0-.38-.097-.457-.317-.121-.341.096-.65.457-.65.088 0 .217.035.288.078" fill="#667085" fill-rule="evenodd"/></svg>