<svg width="24" height="24" fill="none" xmlns="http://www.w3.org/2000/svg"><path d="M4.72 3.043A2.016 2.016 0 0 0 3.097 4.46c-.144.504-.055 1.148.22 1.575A1.99 1.99 0 0 0 5 6.971a1.99 1.99 0 0 0 1.683-.936c.382-.595.382-1.475 0-2.07a2.54 2.54 0 0 0-.723-.694 2.071 2.071 0 0 0-1.24-.228m6.882.001c-.337.066-.755.299-1.017.568-.783.801-.777 1.996.015 2.788.798.798 2.002.798 2.8 0 .792-.792.798-1.987.015-2.788a2 2 0 0 0-1.813-.568m7.118-.001a2.016 2.016 0 0 0-1.623 1.417c-.144.504-.055 1.148.22 1.575A1.99 1.99 0 0 0 19 6.971a1.99 1.99 0 0 0 1.683-.936c.382-.595.382-1.475 0-2.07a2.54 2.54 0 0 0-.723-.694 2.071 2.071 0 0 0-1.24-.228m-14 7a2.016 2.016 0 0 0-1.623 1.417c-.144.504-.055 1.148.22 1.575A1.99 1.99 0 0 0 5 13.971a1.99 1.99 0 0 0 1.683-.936c.382-.595.382-1.475 0-2.07a2.54 2.54 0 0 0-.723-.694 2.071 2.071 0 0 0-1.24-.228m7 0a2.016 2.016 0 0 0-1.623 1.417c-.144.504-.055 1.148.22 1.575a1.99 1.99 0 0 0 1.683.936 1.99 1.99 0 0 0 1.683-.936c.382-.595.382-1.475 0-2.07a2.54 2.54 0 0 0-.723-.694 2.071 2.071 0 0 0-1.24-.228m7 0a2.016 2.016 0 0 0-1.623 1.417c-.144.504-.055 1.148.22 1.575a1.99 1.99 0 0 0 1.683.936 1.99 1.99 0 0 0 1.683-.936c.382-.595.382-1.475 0-2.07a2.54 2.54 0 0 0-.723-.694 2.071 2.071 0 0 0-1.24-.228m-14 7a2.016 2.016 0 0 0-1.623 1.417c-.144.504-.055 1.148.22 1.575A1.99 1.99 0 0 0 5 20.971a1.99 1.99 0 0 0 1.683-.936c.382-.595.382-1.475 0-2.07a2.54 2.54 0 0 0-.723-.694 2.071 2.071 0 0 0-1.24-.228m7 0a2.016 2.016 0 0 0-1.623 1.417c-.144.504-.055 1.148.22 1.575a1.99 1.99 0 0 0 1.683.936 1.99 1.99 0 0 0 1.683-.936c.382-.595.382-1.475 0-2.07a2.54 2.54 0 0 0-.723-.694 2.071 2.071 0 0 0-1.24-.228m7 0a2.016 2.016 0 0 0-1.623 1.417c-.144.504-.055 1.148.22 1.575a1.99 1.99 0 0 0 1.683.936 1.99 1.99 0 0 0 1.683-.936c.382-.595.382-1.475 0-2.07a2.54 2.54 0 0 0-.723-.694 2.071 2.071 0 0 0-1.24-.228" fill="#667085" fill-rule="evenodd"/></svg>