<svg width="24" height="24" fill="none" xmlns="http://www.w3.org/2000/svg"><path d="M8.62 1.36c-.498.045-.938.186-1.575.502C4.376 3.19 2.323 5.635 1.461 8.516.93 10.29.859 12.293 1.264 14.06A10.943 10.943 0 0 0 4.2 19.399a10.69 10.69 0 0 0 2.936 2.12c1.195.586 2.312.919 3.644 1.086.587.074 1.973.063 2.577-.019 2.518-.346 4.688-1.419 6.443-3.186a10.965 10.965 0 0 0 3.058-5.963c.162-.959.179-2.361.041-3.277-.365-2.421-1.443-4.582-3.12-6.259-.68-.681-1.662-1.431-2.319-1.774a1 1 0 0 0-1.408.578c-.121.354.015.835.298 1.054.06.047.326.226.59.399 2.154 1.407 3.559 3.612 3.966 6.222.097.617.097 1.955.001 2.574-.308 1.978-1.178 3.712-2.55 5.082-1.384 1.382-3.12 2.247-5.117 2.55-.629.095-1.851.095-2.48 0-1.999-.304-3.731-1.167-5.117-2.55C2.951 15.349 2.239 11.23 3.877 7.82c.941-1.958 2.259-3.272 4.348-4.335.288-.147.355-.165.6-.164.371.001.576.053.955.241.428.212.801.523.952.792.251.447.241.269.257 4.786l.014 4.12-1.212-1.208C8.476 10.74 8.4 10.682 8 10.682a1 1 0 0 0-.892.538c-.114.215-.12.653-.012.88.11.23 4.221 4.34 4.464 4.463.249.126.631.126.88 0 .243-.123 4.354-4.233 4.464-4.463.108-.227.102-.665-.012-.88a1 1 0 0 0-.892-.538c-.4 0-.476.058-1.788 1.368l-1.209 1.206-.015-4.198c-.017-4.484-.011-4.356-.228-5.03-.258-.803-.738-1.42-1.48-1.907-.703-.461-1.253-.692-1.767-.74-.504-.048-.578-.05-.893-.021" fill="#667085" fill-rule="evenodd"/></svg>