<svg width="24" height="24" fill="none" xmlns="http://www.w3.org/2000/svg"><path d="M11.643 2.069a1.118 1.118 0 0 0-.343.229c-.323.323-.3-.168-.3 6.418v5.862l-2.23-2.224c-2.017-2.011-2.249-2.23-2.427-2.289-.39-.129-.766-.044-1.045.235a.986.986 0 0 0-.185 1.144c.061.127.958 1.047 3.216 3.301 2.855 2.85 3.148 3.131 3.328 3.19a.987.987 0 0 0 .686 0c.18-.059.473-.34 3.328-3.19 2.258-2.254 3.155-3.174 3.216-3.301a.986.986 0 0 0-.185-1.144c-.279-.279-.655-.364-1.045-.235-.178.059-.41.278-2.427 2.289L13 14.578V8.716c0-6.585.023-6.095-.299-6.417a.998.998 0 0 0-1.058-.23m-9 18C2.291 20.193 2 20.614 2 21c0 .242.119.521.299.701.326.326-.563.299 9.701.299 10.264 0 9.375.027 9.701-.299a.984.984 0 0 0 0-1.402c-.326-.327.567-.299-9.718-.296-8.192.003-9.182.01-9.34.066" fill="#667085" fill-rule="evenodd"/></svg>