<svg width="24" height="24" fill="none" xmlns="http://www.w3.org/2000/svg"><path d="M11.64 1.065c-.147.052-.347.231-1.101.989-2.494 2.507-4.733 5.07-5.788 6.626-.681 1.003-1.007 1.635-1.292 2.5a8.958 8.958 0 0 0 1.311 8.165c.371.498 1.102 1.264 1.57 1.643a9.236 9.236 0 0 0 4.36 1.921c.61.096 1.99.096 2.6 0a9.13 9.13 0 0 0 4.08-1.705c.514-.38 1.444-1.31 1.824-1.824a8.963 8.963 0 0 0 1.612-7.176c-.413-2.071-1.465-3.739-4.49-7.117-1.606-1.793-3.604-3.84-3.88-3.974a1.145 1.145 0 0 0-.806-.048m.706 2.725c.819.778 2.417 2.516 3.411 3.71 1.775 2.133 2.55 3.286 2.883 4.289.571 1.724.436 3.7-.362 5.297-.894 1.786-2.375 3.044-4.254 3.611-.742.225-1.144.28-2.024.28-.88 0-1.282-.055-2.024-.28-1.879-.567-3.36-1.825-4.254-3.611-.926-1.852-.949-4.266-.057-6.026.661-1.303 2.664-3.811 5.031-6.3.614-.646 1.26-1.28 1.302-1.28.012 0 .169.14.348.31" fill="#667085" fill-rule="evenodd"/></svg>