<svg width="24" height="24" fill="none" xmlns="http://www.w3.org/2000/svg"><path d="M11.617 1.577c-.168.073-.408.289-.484.437-.035.067-.132.384-.215.704A10.056 10.056 0 0 1 9.478 5.9c-.589.882-1.22 1.57-2.218 2.418-1.222 1.037-1.964 1.95-2.52 3.102-.48.994-.685 1.793-.727 2.84-.127 3.116 1.688 6.092 4.547 7.456a7.989 7.989 0 0 0 9.08-1.556c1.577-1.576 2.436-3.734 2.347-5.9-.044-1.081-.272-1.943-.785-2.96-.563-1.117-1.335-2.039-2.582-3.087-1.794-1.506-2.975-3.341-3.538-5.495-.083-.32-.18-.637-.215-.704-.08-.156-.309-.357-.493-.434-.177-.074-.591-.076-.757-.003m.528 3.893c.063.148.265.539.447.867.818 1.471 1.62 2.463 2.788 3.449 1.638 1.382 2.401 2.617 2.583 4.179.131 1.133-.163 2.484-.769 3.527A6.124 6.124 0 0 1 14.7 19.85a5.955 5.955 0 0 1-5.4 0 6.01 6.01 0 0 1-3.187-4.219c-.116-.587-.125-1.555-.02-2.082.143-.716.479-1.476.941-2.127.3-.423.993-1.138 1.586-1.637 1.166-.982 1.977-1.986 2.791-3.456.185-.333.386-.724.447-.867.061-.144.125-.262.142-.262.017 0 .083.121.145.27" fill="#667085" fill-rule="evenodd"/></svg>