<svg width="24" height="24" fill="none" xmlns="http://www.w3.org/2000/svg"><path d="M13.6 1.584a1.114 1.114 0 0 0-.479.456c-.039.077-.12.336-.18.576-.179.719-.603 1.853-.837 2.238-.529.871-.616 1.15-.484 1.547.129.387.533.679.94.679.228 0 .512-.116.683-.278.175-.167.362-.546.553-1.122.127-.385.185-.513.217-.479.01.011.109.208.22.439.833 1.731 1.817 3.02 3.187 4.173 1.436 1.209 2.219 2.386 2.487 3.736.085.431.096 1.455.02 1.891-.237 1.354-.805 2.438-1.773 3.387-1.205 1.179-2.966 1.811-4.616 1.656-1.363-.128-2.539-.642-3.538-1.545-.434-.392-.603-.471-.96-.451-.656.037-1.082.628-.903 1.253.061.211.109.279.396.563 1.522 1.505 3.908 2.366 6.044 2.182 2.254-.195 4.164-1.176 5.576-2.865 1.378-1.648 2.064-3.941 1.789-5.98a6.728 6.728 0 0 0-.68-2.22c-.572-1.172-1.307-2.074-2.562-3.142-.997-.849-1.6-1.511-2.196-2.41-.694-1.049-1.149-2.059-1.425-3.168-.071-.286-.161-.583-.201-.66a1.088 1.088 0 0 0-.487-.458c-.188-.079-.608-.078-.791.002M6.617 3.857c-.285.124-.615.551-.617.798 0 .135-.272.89-.442 1.231-.372.746-.823 1.308-1.563 1.949-.733.634-1.196 1.219-1.538 1.942a4.445 4.445 0 0 0-.445 2.18 5.042 5.042 0 0 0 4.079 4.727c1.084.211 2.383-.003 3.327-.549 2.352-1.36 3.252-4.247 2.038-6.533-.362-.681-.73-1.116-1.704-2.013-.839-.773-1.409-1.674-1.674-2.649-.188-.69-.314-.894-.653-1.058-.2-.096-.615-.11-.808-.025M7.2 7.711c.384.572.806 1.027 1.617 1.746.853.756 1.233 1.556 1.169 2.463-.059.82-.383 1.49-1 2.066-.897.839-2.206 1.013-3.346.446-.463-.23-1.022-.782-1.267-1.252-.403-.77-.478-1.69-.196-2.389.219-.542.541-.926 1.5-1.79a6.722 6.722 0 0 0 1.094-1.247A2.4 2.4 0 0 1 7 7.443c.011 0 .101.12.2.268" fill="#667085" fill-rule="evenodd"/></svg>