<svg width="24" height="24" fill="none" xmlns="http://www.w3.org/2000/svg"><path d="M18.611 1.123a3.987 3.987 0 0 0-1.035.281c-.644.268-.769.377-3.206 2.809l-2.289 2.284-.491-.483c-.35-.345-.536-.499-.65-.537-.658-.219-1.34.246-1.34.915 0 .371.081.511.601 1.029l.479.477-3.354 3.361c-1.964 1.969-3.462 3.502-3.615 3.701-1.034 1.344-1.794 2.997-2.271 4.94-.321 1.309-.413 2.143-.265 2.42.103.195.296.392.485.493.22.119.633.109 1.4-.031 2.381-.438 4.405-1.281 5.98-2.493.199-.153 1.732-1.651 3.701-3.615l3.361-3.354.478.48c.389.39.515.492.673.544a1 1 0 0 0 1.313-.744c.039-.185.035-.258-.024-.46-.064-.22-.11-.281-.554-.73l-.485-.491 2.282-2.289c1.662-1.668 2.331-2.366 2.463-2.57.736-1.131.863-2.38.366-3.611-.634-1.573-2.309-2.547-4.003-2.326m.928 2.018c.328.086.578.232.833.487.579.578.706 1.372.339 2.112-.102.205-.443.565-2.375 2.5l-2.255 2.26-1.291-1.29-1.29-1.29 2.239-2.239c2.375-2.375 2.434-2.427 2.921-2.545.28-.069.603-.067.879.005m-8.248 12.14c-2.471 2.465-3.479 3.444-3.716 3.611-.748.527-1.528.908-2.55 1.246-.703.233-1.532.448-1.572.408-.038-.037.252-1.134.456-1.726.305-.888.833-1.91 1.317-2.552.102-.137 1.691-1.756 3.53-3.598l3.343-3.35 1.291 1.29 1.291 1.29-3.39 3.381" fill="#667085" fill-rule="evenodd"/></svg>