<svg width="24" height="24" fill="none" xmlns="http://www.w3.org/2000/svg"><path d="M4.789 1.043a.892.892 0 0 0-.494.284c-.385.41-2.122 3.687-2.648 4.993-.248.617-.455 1.299-.547 1.8-.082.45-.095 1.238-.024 1.58.343 1.668 1.558 2.883 3.224 3.224.132.027.447.049.7.049 1.089 0 2.02-.389 2.802-1.171.789-.789 1.174-1.719 1.17-2.822-.004-.78-.196-1.606-.619-2.66-.516-1.284-2.262-4.579-2.648-4.995a1.01 1.01 0 0 0-.916-.282m10.9.016c-.372.116-.442.208-1.397 1.855a81.984 81.984 0 0 0-2.888 5.437c-2.178 4.549-2.77 7.091-2.184 9.381a7.05 7.05 0 0 0 5.062 5.051c3.443.87 6.974-.972 8.263-4.31.952-2.465.434-5.153-1.955-10.133-1.221-2.545-3.509-6.676-3.916-7.068a.99.99 0 0 0-.985-.213M5.312 4.56c.529.937 1.181 2.447 1.514 3.505.138.438.15.513.15.955.001.406-.013.515-.09.709a2.183 2.183 0 0 1-1.157 1.157c-.195.078-.303.091-.729.091s-.534-.013-.729-.091c-.501-.199-.967-.667-1.153-1.157-.109-.29-.145-.802-.08-1.137.113-.577.567-1.803 1.075-2.903.265-.575.843-1.648.887-1.648.011 0 .152.234.312.519m11.175.311c1.798 3.04 3.463 6.705 4.155 9.143.26.918.334 1.366.335 2.026.001 1.367-.474 2.507-1.452 3.485-.751.751-1.52 1.161-2.625 1.401-.317.069-1.483.069-1.8 0-1.105-.24-1.874-.65-2.625-1.401-.742-.742-1.161-1.521-1.381-2.565-.105-.502-.097-1.366.018-1.946.243-1.222.887-3.066 1.751-5.014.35-.789 1.38-2.866 1.835-3.7.394-.724 1.272-2.218 1.302-2.218.011 0 .23.355.487.789" fill="#667085" fill-rule="evenodd"/></svg>