<svg width="24" height="24" fill="none" xmlns="http://www.w3.org/2000/svg"><path d="M19.249 1.021a3.48 3.48 0 0 0-1.032.439c-.273.176-10.344 10.205-10.645 10.6a3.46 3.46 0 0 0-.56 1.174c-.061.261-.071.503-.072 1.646 0 .999.013 1.377.052 1.487a1 1 0 0 0 .515.579l.233.114 1.38-.003c1.155-.002 1.425-.013 1.653-.07a3.923 3.923 0 0 0 1.054-.468c.239-.161 10.213-10.11 10.535-10.509a2.96 2.96 0 0 0 .682-1.95c0-1.142-.548-2.107-1.524-2.685-.486-.287-.842-.383-1.48-.399-.37-.009-.619.005-.791.045m1.167 2.025c.228.115.413.299.535.534.147.284.147.678-.001.96-.079.152-1.337 1.43-5.217 5.304-4.587 4.578-5.131 5.109-5.287 5.153-.096.027-.47.059-.83.072l-.656.023.001-.716c.001-.631.01-.737.081-.896.064-.141 1.188-1.287 5.15-5.253 3.102-3.105 5.13-5.105 5.228-5.157.318-.167.691-.176.996-.024m-16.155.097a3.882 3.882 0 0 0-3.138 2.781C.94 6.603.94 6.599.94 13.1c0 6.777-.008 6.535.244 7.299.358 1.083 1.302 2.03 2.398 2.408.756.261.517.253 7.298.253 6.601 0 6.561.001 7.28-.206 1.16-.335 2.181-1.334 2.552-2.494.119-.372.164-.633.208-1.2.055-.713.052-6.061-.004-6.32a1.01 1.01 0 0 0-.498-.649c-.162-.089-.249-.109-.478-.11-.44-.001-.738.2-.931.627-.063.138-.071.441-.092 3.392-.016 2.402-.035 3.302-.073 3.478-.075.348-.222.607-.506.892a1.653 1.653 0 0 1-.901.492c-.422.083-2.225.115-6.497.115-4.669 0-6.104-.03-6.568-.136a1.79 1.79 0 0 1-1.323-1.347c-.064-.271-.069-.775-.069-6.534 0-6.947-.014-6.58.269-7.051.157-.261.492-.578.748-.708.375-.189.467-.195 3.903-.218 3.559-.025 3.352-.01 3.688-.267.147-.112.307-.397.347-.62.068-.371-.157-.807-.517-1.005l-.198-.109-3.3.003c-2.611.002-3.375.014-3.659.058" fill="#667085" fill-rule="evenodd"/></svg>