<svg width="24" height="24" fill="none" xmlns="http://www.w3.org/2000/svg"><path d="M17.539 2.477a3.256 3.256 0 0 0-1.439.616c-.132.1-3.228 3.176-6.881 6.834-6.914 6.927-6.775 6.781-7 7.342-.191.475-.219.751-.219 2.142 0 1.481.014 1.565.299 1.85.284.285.373.299 1.818.299 1.328-.001 1.612-.025 2.055-.179.669-.232.31.107 7.382-6.956 3.594-3.589 6.648-6.657 6.787-6.817.3-.347.541-.793.666-1.23.127-.449.128-1.185.001-1.63-.306-1.074-1.12-1.894-2.169-2.186-.333-.093-.986-.136-1.3-.085m.844 2.03c.274.093.582.408.675.688.089.268.07.601-.049.846-.065.133-1.78 1.871-6.698 6.784-6.095 6.09-6.626 6.61-6.808 6.67-.149.049-.356.065-.854.065h-.657l.015-.73c.013-.655.024-.746.101-.89.052-.096 2.746-2.817 6.699-6.766 5.788-5.781 6.635-6.613 6.793-6.666.241-.082.543-.083.783-.001m2.328 13.09c-.219.071-.38.207-.82.693-.673.743-.929.974-1.239 1.121-.247.117-.307.129-.652.129-.343 0-.406-.012-.646-.126-.177-.084-.384-.236-.62-.455-.458-.427-.711-.612-1.118-.82-.555-.283-.89-.357-1.616-.357-.53 0-.668.014-.952.094-.855.242-1.822.945-1.988 1.445a.99.99 0 0 0 .94 1.317c.288 0 .511-.104.804-.375.129-.12.356-.277.504-.35.254-.125.295-.133.692-.133.398 0 .437.008.694.134.187.092.394.249.66.5.599.566 1.076.845 1.769 1.034.468.127 1.304.127 1.777-.002.434-.118 1.066-.437 1.386-.701.357-.295 1.471-1.505 1.59-1.728a.976.976 0 0 0-.808-1.441 1.33 1.33 0 0 0-.357.021" fill="#667085" fill-rule="evenodd"/></svg>