<svg width="24" height="24" fill="none" xmlns="http://www.w3.org/2000/svg"><path d="M17.972 1.439a4.19 4.19 0 0 0-1.262.544c-.228.148-1.779 1.676-7.222 7.113-3.813 3.808-7.015 7.032-7.115 7.164a3.02 3.02 0 0 0-.491.96c-.114.367-.575 4.408-.527 4.62.098.43.369.698.806.796.239.054 4.215-.392 4.619-.518a3.02 3.02 0 0 0 .96-.491c.132-.1 3.356-3.302 7.164-7.114 5.515-5.522 6.963-6.993 7.118-7.23.24-.368.47-.922.559-1.343.087-.416.088-1.141.001-1.55a3.828 3.828 0 0 0-2.072-2.663c-.538-.263-.863-.335-1.59-.351-.505-.011-.681 0-.948.063m1.259 1.941c.74.175 1.293.766 1.417 1.517.054.327.003.676-.151 1.031-.104.239-.467.609-7.052 7.201-5.652 5.657-6.976 6.963-7.125 7.027-.135.058-.531.118-1.494.226-.721.08-1.32.138-1.33.128-.01-.011.047-.611.127-1.334.105-.958.166-1.365.222-1.498.063-.147 1.381-1.484 7.026-7.123 6.565-6.558 6.963-6.948 7.198-7.051.43-.186.75-.221 1.162-.124" fill="#667085" fill-rule="evenodd"/></svg>