<svg width="24" height="24" fill="none" xmlns="http://www.w3.org/2000/svg"><path d="M17.972 1.439a4.19 4.19 0 0 0-1.262.544c-.228.148-1.779 1.676-7.222 7.113-3.813 3.808-7.015 7.032-7.115 7.164a3.02 3.02 0 0 0-.491.96c-.114.367-.575 4.408-.527 4.62.098.43.369.698.806.796.239.054 4.215-.392 4.619-.518a3.02 3.02 0 0 0 .96-.491c.132-.1 3.356-3.302 7.164-7.114 5.515-5.522 6.963-6.993 7.118-7.23.24-.368.47-.922.559-1.343.087-.416.088-1.141.001-1.55a3.828 3.828 0 0 0-2.072-2.663c-.538-.263-.863-.335-1.59-.351-.505-.011-.681 0-.948.063m1.259 1.941c.74.175 1.293.766 1.417 1.517.057.34 0 .697-.168 1.056-.112.24-.253.396-1.382 1.527l-1.257 1.26-1.29-1.291-1.291-1.29 1.26-1.257c1.127-1.124 1.288-1.27 1.524-1.381.432-.202.762-.241 1.187-.141m-4.091 5.5 1.28 1.28-4.959 4.959c-4.007 4.007-4.994 4.974-5.141 5.037-.135.058-.533.118-1.494.226-.721.08-1.32.138-1.33.127-.037-.037.267-2.614.329-2.789.055-.155.755-.871 5.029-5.15A853.05 853.05 0 0 1 13.84 7.6c.011 0 .596.576 1.3 1.28" fill="#667085" fill-rule="evenodd"/></svg>