<svg width="24" height="24" fill="none" xmlns="http://www.w3.org/2000/svg"><path d="M17.539 2.477a3.256 3.256 0 0 0-1.439.616c-.132.1-3.228 3.176-6.881 6.834-6.914 6.927-6.775 6.781-7 7.342-.191.475-.219.751-.219 2.142 0 1.481.014 1.565.299 1.85.284.285.373.299 1.818.299 1.328-.001 1.612-.025 2.055-.179.669-.232.31.107 7.382-6.956 3.594-3.589 6.648-6.657 6.787-6.817.3-.347.541-.793.666-1.23.127-.449.128-1.185.001-1.63-.306-1.074-1.12-1.894-2.169-2.186-.333-.093-.986-.136-1.3-.085m.844 2.03c.274.093.582.408.675.688.089.268.07.601-.049.846-.065.133-1.78 1.871-6.698 6.784-6.095 6.09-6.626 6.61-6.808 6.67-.149.049-.356.065-.854.065h-.657l.015-.73c.013-.655.024-.746.101-.89.052-.096 2.746-2.817 6.699-6.766 5.788-5.781 6.635-6.613 6.793-6.666.241-.082.543-.083.783-.001m-6.713 15.11a.998.998 0 0 0-.372 1.643c.32.32-.022.3 5.202.3s4.882.02 5.202-.3a.998.998 0 0 0-.372-1.643c-.222-.079-9.438-.079-9.66 0" fill="#667085" fill-rule="evenodd"/></svg>