<svg width="24" height="24" fill="none" xmlns="http://www.w3.org/2000/svg"><path d="M11.18 3.025c-1.909.154-3.342.534-4.88 1.295-2.447 1.21-4.157 3.052-4.904 5.283a7.53 7.53 0 0 0 .03 4.89c1.117 3.209 4.381 5.668 8.394 6.325 4.901.801 9.813-1.164 12.043-4.818a7.622 7.622 0 0 0 .711-6.493c-.415-1.191-1.067-2.204-2.052-3.188-.871-.869-1.675-1.437-2.862-2.02a12.257 12.257 0 0 0-4.081-1.2c-.503-.061-1.994-.107-2.399-.074m1.72 2.017a12.98 12.98 0 0 1 1.865.299c3.214.815 5.556 2.954 6.122 5.591.124.58.124 1.556 0 2.136-.592 2.758-3.108 4.95-6.527 5.685-.849.183-1.292.225-2.38.223-.866-.001-1.134-.016-1.6-.088-2.275-.354-4.102-1.228-5.48-2.623-.952-.964-1.529-1.996-1.787-3.197-.124-.58-.124-1.556 0-2.136.517-2.409 2.529-4.425 5.358-5.367a11.435 11.435 0 0 1 4.429-.523" fill="#667085" fill-rule="evenodd"/></svg>