<svg width="24" height="24" fill="none" xmlns="http://www.w3.org/2000/svg"><path d="M15.16 1.715c-.644.141-1.169.411-1.76.907-.165.139-2.742 2.697-5.726 5.685-3.805 3.81-5.498 5.533-5.67 5.767a3.816 3.816 0 0 0-.751 2.126c-.038.708.144 1.495.476 2.06.298.509.511.747 1.927 2.165 1.153 1.153 1.451 1.431 1.669 1.55a3.1 3.1 0 0 0 1.295.388c.278.026 3.044.036 7.52.029 6.719-.011 7.088-.016 7.24-.084.471-.212.719-.747.573-1.236-.062-.205-.328-.504-.531-.597-.154-.07-.381-.073-4.572-.074-2.426-.001-4.41-.014-4.41-.03 0-.017 2.094-2.127 4.654-4.69 2.56-2.564 4.735-4.769 4.833-4.901.599-.801.869-1.652.82-2.58a3.816 3.816 0 0 0-.751-2.126c-.297-.405-3.243-3.362-3.656-3.668-.366-.272-.92-.546-1.32-.651-.463-.122-1.392-.142-1.86-.04m1.316 1.968c.218.047.548.243.864.515.437.375 1.588 1.498 2.184 2.131.962 1.022 1.119 1.251 1.202 1.752.036.219.036.358.001.584-.053.34-.144.538-.398.869-.19.248-1.35 1.478-1.965 2.086l-.365.359L15.22 9.2c-1.529-1.529-2.78-2.798-2.78-2.82 0-.023.302-.34.67-.705 1.456-1.443 1.969-1.873 2.358-1.978.238-.064.742-.071 1.008-.014M13.79 10.57c1.523 1.523 2.77 2.788 2.77 2.811 0 .023-1.534 1.573-3.41 3.445-3.025 3.019-3.433 3.412-3.61 3.479-.182.068-.325.075-1.56.075-1.3 0-1.368-.004-1.54-.084-.223-.105-.819-.669-1.827-1.729-1.109-1.167-1.253-1.37-1.339-1.888-.057-.346-.002-.788.131-1.05.124-.242.394-.584.83-1.046.471-.5 6.737-6.783 6.765-6.783.011 0 1.266 1.246 2.79 2.77" fill="#667085" fill-rule="evenodd"/></svg>