<svg width="24" height="24" fill="none" xmlns="http://www.w3.org/2000/svg"><path d="M2.643 2.069a1.118 1.118 0 0 0-.343.229c-.309.309-.3.215-.3 3.202 0 2.986-.009 2.894.299 3.201a.984.984 0 0 0 1.402 0C3.988 8.414 4 8.339 4 6.784V5.422l1.73 1.724c1.551 1.545 1.75 1.73 1.927 1.789.389.129.766.044 1.044-.234s.363-.655.234-1.044c-.059-.177-.244-.376-1.789-1.927L5.422 4h1.362c1.555 0 1.63-.012 1.917-.299a.984.984 0 0 0 0-1.402c-.308-.308-.213-.299-3.218-.296-2.304.003-2.687.012-2.84.066m13 0C15.291 2.193 15 2.614 15 3c0 .396.291.808.66.934.166.056.393.066 1.556.066h1.362l-1.724 1.73c-1.545 1.551-1.73 1.75-1.789 1.927-.129.389-.044.766.234 1.044s.655.363 1.044.234c.177-.059.376-.244 1.927-1.789L20 5.422v1.362c0 1.555.012 1.63.299 1.917a.984.984 0 0 0 1.402 0c.308-.307.299-.215.299-3.201s.009-2.894-.299-3.201c-.308-.308-.213-.299-3.218-.296-2.304.003-2.687.012-2.84.066m-13 13a1.118 1.118 0 0 0-.343.229c-.309.309-.3.215-.3 3.202 0 2.986-.009 2.894.299 3.201.307.308.215.299 3.201.299s2.894.009 3.201-.299a.984.984 0 0 0 0-1.402C8.414 20.012 8.339 20 6.784 20H5.422l1.724-1.73c1.545-1.551 1.73-1.75 1.789-1.927.129-.389.044-.766-.234-1.044s-.655-.363-1.044-.234c-.177.059-.376.244-1.927 1.789L4 18.578v-1.362c0-1.555-.012-1.63-.299-1.917a.998.998 0 0 0-1.058-.23m13 0c-.352.124-.643.545-.643.931 0 .08.029.234.065.343.059.177.244.376 1.789 1.927L18.578 20h-1.362c-1.555 0-1.63.012-1.917.299a.984.984 0 0 0 0 1.402c.307.308.215.299 3.201.299s2.894.009 3.201-.299c.308-.307.299-.215.299-3.201s.009-2.894-.299-3.201a.984.984 0 0 0-1.402 0c-.287.287-.299.362-.299 1.917v1.362l-1.73-1.724c-1.551-1.545-1.75-1.73-1.927-1.789a1.032 1.032 0 0 0-.7.004" fill="#667085" fill-rule="evenodd"/></svg>