<svg width="24" height="24" fill="none" xmlns="http://www.w3.org/2000/svg"><path d="M14.643 2.069a1.118 1.118 0 0 0-.343.229c-.48.48-.352 1.292.25 1.588.189.094.198.094 2.1.114l1.91.02-7.28 7.28L4 18.58v-1.863c0-2.112-.001-2.12-.299-2.418a.984.984 0 0 0-1.402 0C1.987 14.61 2 14.456 2 18s-.013 3.39.299 3.701C2.61 22.013 2.456 22 6 22s3.39.013 3.701-.299c.479-.479.35-1.291-.251-1.587-.189-.094-.198-.094-2.1-.114l-1.91-.02 7.28-7.28L20 5.42v1.863c0 2.112.001 2.12.299 2.418a.984.984 0 0 0 1.402 0C22.013 9.39 22 9.544 22 6s.013-3.39-.299-3.701c-.312-.312-.154-.299-3.718-.296-2.757.003-3.186.011-3.34.066" fill="#667085" fill-rule="evenodd"/></svg>