<svg width="24" height="24" fill="none" xmlns="http://www.w3.org/2000/svg"><path d="M14.643 2.069C14.291 2.193 14 2.614 14 3c0 .242.119.521.299.701.298.298.306.299 2.417.299h1.862l-2.224 2.23c-2.011 2.017-2.23 2.249-2.289 2.427-.129.39-.044.766.234 1.044s.654.363 1.044.234c.178-.059.41-.278 2.427-2.289L20 5.422v1.862c0 2.111.001 2.119.299 2.417a.984.984 0 0 0 1.402 0C22.013 9.39 22 9.544 22 6s.013-3.39-.299-3.701c-.312-.312-.154-.299-3.718-.296-2.757.003-3.186.011-3.34.066m-9.033.975c-1.317.153-2.378 1.202-2.569 2.536-.022.158-.04 1.217-.04 2.423-.001 2.424-.004 2.396.298 2.698a.984.984 0 0 0 1.402 0c.298-.298.299-.306.3-2.418.002-2.194.029-2.627.181-2.846.057-.083.172-.198.255-.255.219-.152.652-.179 2.846-.181 2.112-.001 2.12-.002 2.418-.3.18-.18.299-.459.299-.701 0-.242-.119-.521-.299-.701-.303-.303-.275-.3-2.678-.294-1.168.003-2.253.021-2.413.039m14.033 10.025a1.066 1.066 0 0 0-.577.591c-.058.169-.066.426-.067 2.017 0 1.003-.017 2.025-.038 2.273-.033.403-.049.467-.158.626-.175.254-.338.34-.73.385-.183.021-1.207.039-2.276.039-2.201 0-2.199 0-2.498.299-.18.18-.299.459-.299.701 0 .242.119.521.299.701.302.302.275.299 2.685.299 1.306 0 2.25-.017 2.441-.043a2.977 2.977 0 0 0 2.534-2.537c.022-.158.04-1.217.04-2.423.001-2.424.004-2.396-.298-2.698a.998.998 0 0 0-1.058-.23m-17 1a1.118 1.118 0 0 0-.343.229c-.313.313-.3.157-.3 3.702 0 3.544-.013 3.39.299 3.701.311.312.157.299 3.701.299s3.39.013 3.701-.299a.984.984 0 0 0 0-1.402C9.403 20.001 9.395 20 7.284 20H5.422l2.224-2.23c2.011-2.017 2.23-2.249 2.289-2.427.129-.39.044-.766-.234-1.044s-.654-.363-1.044-.234c-.178.059-.41.278-2.427 2.289L4 18.578v-1.862c0-2.111-.001-2.119-.299-2.417a.998.998 0 0 0-1.058-.23" fill="#667085" fill-rule="evenodd"/></svg>