<svg width="24" height="24" fill="none" xmlns="http://www.w3.org/2000/svg"><path d="M2.643 2.069a1.118 1.118 0 0 0-.343.229C1.987 2.611 2 2.455 2 6c0 3.544-.013 3.39.299 3.701a.984.984 0 0 0 1.402 0C3.999 9.403 4 9.395 4 7.284V5.422l2.23 2.224c2.017 2.011 2.249 2.23 2.427 2.289.39.129.766.044 1.044-.234s.363-.654.234-1.044c-.059-.178-.278-.41-2.289-2.427L5.422 4h1.862c2.111 0 2.119-.001 2.417-.299a.984.984 0 0 0 0-1.402c-.312-.312-.154-.299-3.718-.296-2.757.003-3.186.011-3.34.066m12 0C14.291 2.193 14 2.614 14 3c0 .242.119.521.299.701.298.298.306.299 2.417.299h1.862l-2.224 2.23c-2.011 2.017-2.23 2.249-2.289 2.427-.129.39-.044.766.234 1.044s.654.363 1.044.234c.178-.059.41-.278 2.427-2.289L20 5.422v1.862c0 2.111.001 2.119.299 2.417a.984.984 0 0 0 1.402 0C22.013 9.39 22 9.544 22 6s.013-3.39-.299-3.701c-.312-.312-.154-.299-3.718-.296-2.757.003-3.186.011-3.34.066m-12 12a1.118 1.118 0 0 0-.343.229c-.313.313-.3.157-.3 3.702 0 3.544-.013 3.39.299 3.701.311.312.157.299 3.701.299s3.39.013 3.701-.299a.984.984 0 0 0 0-1.402C9.403 20.001 9.395 20 7.284 20H5.422l2.224-2.23c2.011-2.017 2.23-2.249 2.289-2.427.129-.39.044-.766-.234-1.044s-.654-.363-1.044-.234c-.178.059-.41.278-2.427 2.289L4 18.578v-1.862c0-2.111-.001-2.119-.299-2.417a.998.998 0 0 0-1.058-.23m12 0c-.352.124-.643.545-.643.931 0 .08.029.234.065.343.059.178.278.41 2.289 2.427L18.578 20h-1.862c-2.111 0-2.119.001-2.417.299-.18.18-.299.459-.299.701 0 .242.119.521.299.701.311.312.157.299 3.701.299s3.39.013 3.701-.299c.312-.311.299-.157.299-3.701s.013-3.39-.299-3.701A1.055 1.055 0 0 0 21 14c-.242 0-.521.119-.701.299-.298.298-.299.306-.299 2.417v1.862l-2.23-2.224c-2.017-2.011-2.249-2.23-2.427-2.289a1.032 1.032 0 0 0-.7.004" fill="#667085" fill-rule="evenodd"/></svg>