<svg width="24" height="24" fill="none" xmlns="http://www.w3.org/2000/svg"><path d="M14.643 2.069C14.291 2.193 14 2.614 14 3c0 .242.119.521.299.701.298.298.306.299 2.417.299h1.863l-2.725 2.73c-2.477 2.482-2.73 2.748-2.789 2.927-.129.39-.044.766.234 1.044s.654.363 1.044.234c.179-.059.445-.312 2.927-2.789L20 5.421v1.863c0 2.111.001 2.119.299 2.417a.984.984 0 0 0 1.402 0C22.013 9.39 22 9.544 22 6s.013-3.39-.299-3.701c-.312-.312-.154-.299-3.718-.296-2.757.003-3.186.011-3.34.066M9.64 13.068c-.155.053-.557.437-2.91 2.786L4 18.579v-1.863c0-2.111-.001-2.119-.299-2.417a.984.984 0 0 0-1.402 0C1.987 14.61 2 14.456 2 18s-.013 3.39.299 3.701C2.61 22.013 2.456 22 6 22s3.39.013 3.701-.299a.984.984 0 0 0 0-1.402C9.403 20.001 9.395 20 7.284 20H5.421l2.725-2.73c2.477-2.482 2.73-2.748 2.789-2.927a1.004 1.004 0 0 0-1.295-1.275" fill="#667085" fill-rule="evenodd"/></svg>