<svg width="24" height="24" fill="none" xmlns="http://www.w3.org/2000/svg"><path d="M5.692 2.044c-.835.074-1.498.323-2.126.796-.698.527-1.234 1.343-1.424 2.166C2.028 5.505 2 6.111 2 8.119c0 2.201.002 2.218.222 2.507.055.073.186.182.289.243.161.095.233.111.489.111s.328-.016.489-.111c.103-.061.236-.173.294-.25.209-.274.213-.313.216-2.099.002-1.807.046-2.812.14-3.17.143-.547.662-1.068 1.207-1.21.362-.095 1.361-.139 3.174-.141 1.786-.003 1.825-.007 2.099-.216.077-.058.189-.191.25-.294.095-.161.111-.233.111-.489s-.016-.328-.111-.489a1.24 1.24 0 0 0-.248-.293c-.279-.213-.344-.218-2.537-.212-1.113.003-2.189.02-2.392.038m8.975.021c-.402.123-.699.584-.658 1.018.038.395.344.776.702.875.093.026.851.042 2.008.042h1.859l-2.224 2.23c-2.011 2.017-2.23 2.249-2.289 2.427-.16.483.016.959.446 1.212.162.095.232.111.489.11.212 0 .341-.022.44-.074.077-.04 1.135-1.066 2.35-2.279L20 5.421v1.864c0 2.02.003 2.054.222 2.341.055.073.186.182.289.243.161.095.233.111.489.111.257 0 .327-.016.492-.113.218-.128.409-.369.469-.591.027-.099.037-1.271.03-3.364L21.98 2.7l-.111-.189a.962.962 0 0 0-.574-.454c-.285-.086-6.346-.079-6.628.008m6 10.998c-.252.08-.513.339-.601.597-.057.169-.066.416-.066 1.877 0 1.781-.044 2.787-.137 3.134-.105.393-.455.821-.872 1.065-.356.208-.606.23-3.031.258l-2.22.026-.19.094c-.494.243-.684.85-.424 1.355.115.222.368.43.601.493.113.03.87.039 2.468.027 2.148-.015 2.329-.022 2.665-.098.912-.208 1.643-.647 2.203-1.321.424-.512.671-1.021.828-1.71.076-.336.083-.517.098-2.665.012-1.598.003-2.355-.027-2.468-.142-.526-.751-.838-1.295-.664m-18 1c-.252.08-.513.339-.601.597-.059.174-.066.517-.066 3.342 0 3.42-.006 3.326.222 3.624.055.073.186.182.289.243l.189.111 3.212.011c2.093.007 3.265-.003 3.364-.03.222-.06.463-.251.591-.469.097-.165.113-.235.113-.492 0-.256-.016-.328-.111-.489a1.24 1.24 0 0 0-.248-.293C9.346 20.008 9.26 20 7.264 20H5.421l2.205-2.21c1.213-1.215 2.236-2.271 2.273-2.345.037-.073.077-.226.089-.34.074-.719-.582-1.251-1.292-1.046-.235.067-.25.082-2.466 2.293L4 18.578v-1.859c0-1.157-.016-1.915-.042-2.008-.142-.512-.755-.82-1.291-.648" fill="#667085" fill-rule="evenodd"/></svg>