<svg width="24" height="24" fill="none" xmlns="http://www.w3.org/2000/svg"><path d="M2.664 2.063a1.005 1.005 0 0 0-.533.448c-.095.162-.111.232-.11.489 0 .212.022.341.074.44.04.077.769.838 1.619 1.692L5.26 6.684l-.14.124C3.737 8.03 2.932 8.885 2.054 10.065c-.688.925-.899 1.378-.899 1.935 0 .548.178.937.912 1.99 1.526 2.189 3.425 3.911 5.405 4.901 1.412.706 2.719 1.047 4.208 1.096a8.123 8.123 0 0 0 2.08-.17c.884-.176 2.129-.646 2.953-1.113.178-.101.338-.184.355-.184.016 0 .786.754 1.711 1.675 1.505 1.499 1.702 1.681 1.878 1.74.39.129.766.044 1.045-.235a.986.986 0 0 0 .185-1.144c-.063-.129-2.503-2.593-9.216-9.301-8.441-8.436-9.146-9.13-9.328-9.19a1.02 1.02 0 0 0-.679-.002m8.456 1.979c-.519.049-.733.1-.917.216a.93.93 0 0 0-.417.587.987.987 0 0 0 .571 1.167c.162.071.222.075.661.043.675-.049 1.619-.039 2.021.021a9.784 9.784 0 0 1 1.656.429c2.11.801 4.213 2.602 5.813 4.981l.347.514-.385.57c-.212.313-.55.777-.752 1.03-.431.539-.49.658-.492.982-.004.745.758 1.21 1.438.878.176-.086.279-.185.558-.533.431-.537.964-1.286 1.244-1.748.508-.837.511-1.516.011-2.341-1.096-1.806-2.794-3.661-4.382-4.788-1.533-1.087-3.122-1.73-4.875-1.971-.438-.06-1.637-.082-2.1-.037M7.645 9.065l.945.945-.195.408c-.377.79-.48 1.55-.316 2.341.333 1.614 1.548 2.832 3.148 3.158.853.174 1.609.063 2.456-.36l.304-.151.809.81.809.81-.437.205c-1.2.563-2.296.804-3.445.757-.907-.037-1.605-.184-2.504-.529-2.091-.802-4.17-2.606-5.772-5.01l-.3-.451.276-.409c.603-.894 1.623-2.061 2.442-2.794.743-.665.753-.673.795-.674.022 0 .465.424.985.944m4.603 4.841c-.175.108-.367.117-.724.032a1.873 1.873 0 0 1-.961-.562 1.908 1.908 0 0 1-.532-1.087c-.046-.322-.045-.337.05-.511l.098-.179 1.108 1.108 1.109 1.108-.148.091" fill="#667085" fill-rule="evenodd"/></svg>