<svg width="24" height="24" fill="none" xmlns="http://www.w3.org/2000/svg"><path d="M11.1 4.042c-1.591.165-3.072.673-4.489 1.54-1.772 1.086-3.489 2.813-4.85 4.878-.485.737-.615 1.07-.61 1.56.005.528.194.934.916 1.97 1.549 2.222 3.462 3.946 5.473 4.933 1.025.503 1.87.778 2.96.964.44.075.671.089 1.5.089s1.06-.014 1.5-.089c1.865-.319 3.59-1.111 5.2-2.391.603-.479 1.954-1.842 2.464-2.484a20.721 20.721 0 0 0 1.313-1.85c.496-.819.496-1.505 0-2.324a17.302 17.302 0 0 0-2.49-3.152c-2.063-2.088-4.24-3.252-6.747-3.605-.423-.06-1.711-.083-2.14-.039m2.08 2.057c.198.035.54.111.76.168 2.347.612 4.735 2.511 6.57 5.223l.345.51-.345.51c-1.82 2.69-4.126 4.538-6.498 5.207-.762.215-1.11.26-2.012.26-1.109 0-1.736-.118-2.8-.525-2.032-.778-4.086-2.547-5.669-4.882L3.144 12l.387-.57c1.68-2.477 3.865-4.292 6.049-5.021a9.596 9.596 0 0 1 1.622-.366c.459-.052 1.538-.021 1.978.056m-1.5 1.925c-.545.062-.99.192-1.46.425-1.11.552-1.884 1.582-2.144 2.851-.063.309-.063 1.091 0 1.4.26 1.27 1.033 2.298 2.144 2.851a3.632 3.632 0 0 0 1.8.42c.706-.003 1.214-.132 1.846-.468 1.005-.535 1.705-1.433 1.998-2.563a4.036 4.036 0 0 0 0-1.88c-.293-1.13-.993-2.028-1.998-2.563a3.842 3.842 0 0 0-1.066-.396c-.284-.06-.898-.102-1.12-.077m1.049 2.093c.492.189.958.654 1.157 1.154.078.195.091.303.091.729s-.013.534-.091.729a2.183 2.183 0 0 1-1.157 1.157c-.195.078-.303.091-.729.091s-.534-.013-.729-.091a2.17 2.17 0 0 1-1.155-1.157c-.134-.344-.153-.954-.041-1.322a2.034 2.034 0 0 1 1.369-1.346c.316-.089.984-.059 1.285.056" fill="#667085" fill-rule="evenodd"/></svg>