<svg width="24" height="24" fill="none" xmlns="http://www.w3.org/2000/svg"><path d="M5.692 2.043c-.839.077-1.499.324-2.126.797-.698.526-1.233 1.341-1.424 2.166-.138.595-.147 1.089-.132 7.314.014 5.55.021 6.171.082 6.467.199.969.73 1.824 1.48 2.384.539.402.985.601 1.656.737.33.067.756.072 6.772.072 6.031 0 6.441-.004 6.775-.072 1.635-.333 2.8-1.498 3.133-3.133.068-.334.072-.744.072-6.775 0-7.126.016-6.686-.263-7.456-.371-1.024-1.365-1.978-2.417-2.317-.642-.208-.406-.201-7.06-.209-3.399-.005-6.345.007-6.548.025M17.78 4.04c.352.021.743.066.87.099.555.145 1.069.659 1.21 1.21.119.463.139 1.416.139 6.631.001 5.203-.021 6.26-.136 6.691-.105.393-.455.821-.872 1.065-.415.243-.25.237-6.611.253-5.845.016-6.565.003-7.051-.126-.531-.141-1.048-.668-1.19-1.213-.116-.443-.138-1.526-.138-6.65 0-5.135.022-6.207.139-6.654.103-.394.412-.789.819-1.046.232-.146.577-.223 1.156-.258.761-.046 10.919-.048 11.665-.002M7.24 7.035a1.1 1.1 0 0 0-.666.585c-.057.131-.073.311-.086.985-.01.535 0 .903.031 1.049.201.972 1.45 1.154 1.887.276.091-.184.094-.222.094-1.15 0-.711-.014-1-.055-1.115-.07-.199-.295-.448-.499-.552-.175-.089-.547-.13-.706-.078m5 0a1.114 1.114 0 0 0-.668.585c-.065.144-.074.337-.092 1.9-.018 1.551-.027 1.75-.088 1.836-.094.133-.273.243-.395.244-.231 0-.524.125-.694.295a.994.994 0 0 0 .201 1.57c.361.211 1.007.159 1.608-.129.412-.197.895-.671 1.1-1.079.286-.569.287-.586.288-2.617 0-1.44-.011-1.852-.055-1.975-.07-.199-.295-.448-.499-.552-.175-.089-.547-.13-.706-.078m4 0a1.1 1.1 0 0 0-.666.585c-.057.131-.073.311-.086.985-.01.535 0 .903.031 1.049.201.972 1.45 1.154 1.887.276.091-.184.094-.222.094-1.15 0-.711-.014-1-.055-1.115-.07-.199-.295-.448-.499-.552-.175-.089-.547-.13-.706-.078m-7.8 7.2c-.313.102-.592.361-.682.63-.073.216-.066.49.017.707.134.351 1.006 1.064 1.725 1.409.894.431 2.028.639 2.94.54 1.275-.138 2.337-.599 3.257-1.413.379-.336.483-.531.483-.908 0-.256-.016-.328-.111-.489a.986.986 0 0 0-.547-.45c-.386-.136-.721-.043-1.108.307-.67.608-1.429.931-2.294.979-.925.051-1.81-.265-2.54-.906a3.13 3.13 0 0 0-.437-.328c-.171-.089-.543-.13-.703-.078" fill="#667085" fill-rule="evenodd"/></svg>