<svg width="24" height="24" fill="none" xmlns="http://www.w3.org/2000/svg"><path d="M11.041 1.045c-1.47.13-2.98.585-4.26 1.283-.985.538-1.77 1.13-2.583 1.947-1.682 1.693-2.712 3.742-3.086 6.145-.073.467-.087.73-.087 1.58 0 .85.014 1.113.087 1.58.378 2.425 1.41 4.467 3.125 6.183 1.716 1.715 3.758 2.747 6.183 3.125.809.126 2.351.126 3.16 0 2.413-.376 4.471-1.417 6.181-3.127.923-.923 1.563-1.811 2.116-2.941a10.92 10.92 0 0 0 0-9.64 11.163 11.163 0 0 0-3.826-4.353 11.032 11.032 0 0 0-7.01-1.782m2.279 2.057a9.023 9.023 0 0 1 5.664 3.218c.816 1.005 1.483 2.358 1.771 3.6.167.718.222 1.229.222 2.08 0 1.511-.264 2.654-.917 3.98-.896 1.818-2.252 3.179-4.067 4.079a8.986 8.986 0 0 1-6.453.597C7.08 19.955 5.103 18.309 3.946 16c-.642-1.283-.923-2.498-.923-4 0-1.502.281-2.717.923-4 .91-1.819 2.235-3.143 4.056-4.055 1.025-.514 2.001-.783 3.338-.921.324-.033 1.573.016 1.98.078M6.643 8.309C6.291 8.433 6 8.854 6 9.24c0 .483.521 1.083 1.265 1.455.466.233.694.285 1.255.283.455-.001.532-.012.85-.125.492-.173.755-.341 1.153-.733.365-.36.477-.566.477-.88 0-.396-.291-.808-.66-.934-.414-.141-.757-.048-1.113.302-.531.522-.888.526-1.427.017-.393-.37-.737-.464-1.157-.316m7 0c-.352.124-.643.545-.643.931 0 .483.521 1.083 1.265 1.455.466.233.694.285 1.255.283.455-.001.532-.012.85-.125.492-.173.755-.341 1.153-.733.365-.36.477-.566.477-.88 0-.396-.291-.808-.66-.934-.414-.141-.757-.048-1.113.302-.531.522-.888.526-1.427.017-.393-.37-.737-.464-1.157-.316m-5.979 4.754a1.005 1.005 0 0 0-.533.448c-.095.161-.111.233-.111.489 0 .389.096.558.616 1.08 1.235 1.241 2.784 1.921 4.377 1.92 1.548-.001 3.094-.675 4.309-1.88.557-.553.658-.724.658-1.12 0-.256-.016-.328-.111-.489a.991.991 0 0 0-1.204-.446c-.15.051-.288.162-.658.532-.681.681-1.23 1.024-2.036 1.27-.316.096-.413.107-.971.107s-.655-.011-.971-.107c-.806-.246-1.355-.589-2.036-1.27-.37-.37-.508-.481-.658-.532a.997.997 0 0 0-.671-.002" fill="#667085" fill-rule="evenodd"/></svg>