<svg width="24" height="24" fill="none" xmlns="http://www.w3.org/2000/svg"><path d="M11.041 1.045c-1.47.13-2.98.585-4.26 1.283-.985.538-1.77 1.13-2.583 1.947-1.682 1.693-2.712 3.742-3.086 6.145-.073.467-.087.73-.087 1.58 0 .85.014 1.113.087 1.58.378 2.425 1.41 4.467 3.125 6.183 1.716 1.715 3.758 2.747 6.183 3.125.809.126 2.351.126 3.16 0 2.413-.376 4.471-1.417 6.181-3.127.923-.923 1.563-1.811 2.116-2.941a10.92 10.92 0 0 0 0-9.64 11.15 11.15 0 0 0-3.825-4.351 11.01 11.01 0 0 0-7.011-1.784m2.279 2.057c.984.15 1.838.421 2.7.856 1.825.921 3.147 2.249 4.04 4.062.446.905.691 1.687.846 2.7.098.637.097 1.927 0 2.56-.374 2.415-1.607 4.498-3.505 5.921a9.038 9.038 0 0 1-7.861 1.455C7.079 19.955 5.102 18.309 3.946 16c-.642-1.283-.923-2.498-.923-4 0-1.502.281-2.717.923-4 .91-1.819 2.235-3.143 4.056-4.055 1.025-.514 2.001-.783 3.338-.921.324-.033 1.573.016 1.98.078M8.6 7.555c-.35.115-.731.413-.904.708a1.87 1.87 0 0 0-.158.453 1.034 1.034 0 0 0-.001.56c.072.345.143.485.376.734.243.259.456.38.803.452.499.104.988-.052 1.348-.43.235-.247.331-.428.398-.749.137-.659-.189-1.299-.828-1.628-.178-.091-.274-.112-.574-.121-.198-.006-.405.003-.46.021m6 0c-.35.115-.731.413-.904.708a1.87 1.87 0 0 0-.158.453 1.034 1.034 0 0 0-.001.56c.072.345.143.485.376.734.243.259.456.38.803.452.499.104.988-.052 1.348-.43.235-.247.331-.428.398-.749.137-.659-.189-1.299-.828-1.628-.178-.091-.274-.112-.574-.121-.198-.006-.405.003-.46.021m-6.957 6.514C7.291 14.193 7 14.614 7 15c0 .242.119.521.299.701.317.317.038.299 4.701.299 4.663 0 4.384.018 4.701-.299a.984.984 0 0 0 0-1.402c-.317-.317-.035-.299-4.718-.296-3.663.003-4.184.011-4.34.066" fill="#667085" fill-rule="evenodd"/></svg>