<svg width="24" height="24" fill="none" xmlns="http://www.w3.org/2000/svg"><path d="M11.041 1.045c-1.47.13-2.98.585-4.26 1.283-.985.538-1.77 1.13-2.583 1.947-1.682 1.693-2.712 3.742-3.086 6.145-.073.467-.087.73-.087 1.58 0 .85.014 1.113.087 1.58.378 2.425 1.41 4.467 3.125 6.183 1.716 1.715 3.758 2.747 6.183 3.125.809.126 2.351.126 3.16 0 2.413-.376 4.471-1.417 6.181-3.127.923-.923 1.563-1.811 2.116-2.941a10.92 10.92 0 0 0 0-9.64 11.163 11.163 0 0 0-3.826-4.353 11.032 11.032 0 0 0-7.01-1.782m2.279 2.057a9.023 9.023 0 0 1 5.664 3.218c.816 1.005 1.483 2.358 1.771 3.6.167.718.222 1.229.222 2.08 0 1.511-.264 2.654-.917 3.98-.896 1.818-2.252 3.179-4.067 4.079a8.986 8.986 0 0 1-6.453.597C7.08 19.955 5.103 18.309 3.946 16c-.642-1.283-.923-2.498-.923-4 0-1.502.281-2.717.923-4 .91-1.819 2.235-3.143 4.056-4.055 1.025-.514 2.001-.783 3.338-.921.324-.033 1.573.016 1.98.078M8.6 7.555c-.35.115-.731.413-.904.708a1.87 1.87 0 0 0-.158.453 1.034 1.034 0 0 0-.001.56c.072.345.143.485.376.734.243.259.456.38.803.452.499.104.988-.052 1.348-.43.235-.247.331-.428.398-.749.137-.659-.189-1.299-.828-1.628-.178-.091-.274-.112-.574-.121-.198-.006-.405.003-.46.021m6 0c-.35.115-.731.413-.904.708a1.87 1.87 0 0 0-.158.453 1.034 1.034 0 0 0-.001.56c.072.345.143.485.376.734.243.259.456.38.803.452.499.104.988-.052 1.348-.43.235-.247.331-.428.398-.749.137-.659-.189-1.299-.828-1.628-.178-.091-.274-.112-.574-.121-.198-.006-.405.003-.46.021m-6.936 5.508a1.005 1.005 0 0 0-.533.448c-.095.161-.111.233-.111.489 0 .389.096.558.616 1.08 1.235 1.241 2.784 1.921 4.377 1.92 1.548-.001 3.094-.675 4.309-1.88.557-.553.658-.724.658-1.12 0-.256-.016-.328-.111-.489a.991.991 0 0 0-1.204-.446c-.15.051-.288.162-.658.532-.681.681-1.23 1.024-2.036 1.27-.316.096-.413.107-.971.107s-.655-.011-.971-.107c-.806-.246-1.355-.589-2.036-1.27-.37-.37-.508-.481-.658-.532a.997.997 0 0 0-.671-.002" fill="#667085" fill-rule="evenodd"/></svg>