<svg width="24" height="24" fill="none" xmlns="http://www.w3.org/2000/svg"><path d="M9.316 4.298c-.279.077-.638.284-1.005.578-.462.37-6.378 5.634-6.56 5.836-.625.695-.625 1.881 0 2.576.182.202 6.098 5.466 6.56 5.836.717.575 1.225.73 1.885.574a1.917 1.917 0 0 0 1.433-1.382c.066-.24.071-.646.071-6.316s-.005-6.076-.071-6.316a1.85 1.85 0 0 0-.496-.865c-.474-.468-1.227-.684-1.817-.521m10.993-.014c-.302.071-.755.352-1.242.769a911.18 911.18 0 0 0-3.307 2.932c-2.015 1.792-3.063 2.751-3.149 2.881-.491.743-.478 1.601.037 2.32.12.167 5.969 5.403 6.673 5.973.165.133.449.318.633.41.306.154.364.169.707.184.455.02.799-.07 1.161-.304.457-.296.714-.676.849-1.256.064-.27.069-.764.069-6.193 0-6.481.011-6.162-.238-6.706-.121-.265-.516-.669-.805-.823-.391-.209-.967-.287-1.388-.187M9.757 11.98c-.002 3.08-.015 5.633-.031 5.672-.036.092-.058.074-3.646-3.119-1.529-1.36-2.78-2.5-2.78-2.533 0-.033 1.251-1.173 2.78-2.533C9.538 6.39 9.685 6.264 9.726 6.329c.018.028.032 2.571.031 5.651m10.982-5.01c.036.843.01 10.654-.028 10.692-.016.016-.133-.059-.26-.166-.48-.408-5.916-5.25-6.028-5.37l-.117-.125.097-.107c.085-.093 5.461-4.886 6.038-5.383.12-.104.231-.189.245-.19.014-.001.038.291.053.649" fill="#667085" fill-rule="evenodd"/></svg>