<svg width="24" height="24" fill="none" xmlns="http://www.w3.org/2000/svg"><path d="M2.785 4.303a1.932 1.932 0 0 0-1.414 1.381C1.305 5.924 1.3 6.33 1.3 12s.005 6.076.071 6.316a1.917 1.917 0 0 0 1.433 1.382c.66.156 1.168.001 1.885-.574.462-.37 6.378-5.634 6.56-5.836.625-.695.625-1.881 0-2.576-.182-.202-6.098-5.466-6.56-5.836-.717-.575-1.241-.733-1.904-.573m10.939-.002c-.331.093-.6.254-.875.526-.281.277-.415.53-.52.98-.064.27-.069.764-.069 6.193 0 5.429.005 5.923.069 6.193.104.448.239.702.521.985.427.427.881.602 1.492.575.34-.015.399-.03.704-.184.184-.092.468-.277.633-.41.687-.557 6.551-5.804 6.665-5.964.605-.85.525-1.876-.204-2.615-.221-.224-5.54-4.96-6.21-5.53-.373-.317-.715-.549-1.001-.68-.284-.13-.868-.164-1.205-.069M4.32 7.159C7.111 9.619 9.7 11.948 9.7 12c0 .033-1.251 1.173-2.78 2.533-3.458 3.077-3.605 3.203-3.646 3.138-.037-.058-.047-11.231-.01-11.327.033-.086.036-.084 1.056.815m10.257-.63c.611.526 5.858 5.2 5.981 5.327l.137.144-.117.126c-.113.121-5.552 4.965-6.029 5.37-.127.107-.244.182-.26.166-.016-.016-.035-2.282-.042-5.035-.013-4.599.005-6.307.064-6.307.013 0 .132.094.266.209" fill="#667085" fill-rule="evenodd"/></svg>