<svg width="24" height="24" fill="none" xmlns="http://www.w3.org/2000/svg"><path d="M14.551 1.284A7.034 7.034 0 0 0 10.7 2.922c-.176.15-1.618 1.574-3.205 3.165-2.716 2.725-2.892 2.91-3.027 3.182-.078.16-.162.386-.186.503-.032.15-.041 1.358-.032 4.071.012 3.432.021 3.883.079 4.097l.066.24-1.512 1.52c-1.405 1.411-1.518 1.535-1.583 1.734A1 1 0 0 0 2.565 22.7c.2-.065.322-.177 1.735-1.581l1.52-1.512.26.065c.228.056.725.066 4.075.077 2.483.009 3.893-.001 4.04-.028.124-.022.36-.106.525-.186.288-.139.414-.259 3.193-3.03 1.591-1.587 3.015-3.029 3.165-3.205a7.09 7.09 0 0 0 1.515-3.06 7.029 7.029 0 0 0-1.144-5.56c-.358-.51-1.613-1.766-2.129-2.131-.462-.327-1.366-.785-1.873-.949a7.265 7.265 0 0 0-2.896-.316m1.689 2.053c.65.14 1.359.446 1.878.812.36.253 1.431 1.319 1.697 1.688a4.987 4.987 0 0 1 .465 5.033c-.317.666-.542.953-1.536 1.96l-.919.93h-6.164l2.705-2.71c1.488-1.491 2.737-2.771 2.774-2.846.235-.469.033-1.087-.436-1.335-.217-.115-.696-.123-.904-.014-.077.04-2.259 2.191-4.85 4.779L6.24 16.34v-6.161l2.93-2.925c3.154-3.147 3.161-3.154 3.966-3.537a4.91 4.91 0 0 1 1.364-.421c.408-.068 1.338-.046 1.74.041M14.82 16.76l-.999 1h-6.16l.999-1 .999-1h6.16l-.999 1" fill="#667085" fill-rule="evenodd"/></svg>