<svg width="24" height="24" fill="none" xmlns="http://www.w3.org/2000/svg"><path d="M7.561.605c-2.047.432-3.56 2.302-3.561 4.4 0 .899.329 1.847.902 2.595.092.121.328.374.523.562l.355.341-.354.337c-.584.555-.929 1.069-1.168 1.738a4.07 4.07 0 0 0 0 2.844c.238.666.577 1.172 1.167 1.74l.355.341-.354.337a6.18 6.18 0 0 0-.524.558 4.632 4.632 0 0 0-.865 2.04A4.74 4.74 0 0 0 4.14 20.1c.11.422.405 1.087.622 1.403 1.089 1.582 3.015 2.322 4.835 1.858a4.555 4.555 0 0 0 3.344-3.659c.046-.281.059-.777.059-2.212v-1.849l.21.134c1.069.683 2.225.883 3.388.585 2.054-.524 3.482-2.437 3.389-4.54-.05-1.125-.513-2.116-1.372-2.939l-.395-.378.395-.381c.863-.835 1.322-1.819 1.372-2.942.093-2.105-1.291-3.962-3.387-4.544l-.34-.095L12.1.533C8.076.525 7.928.527 7.561.605M11 5.024v2.504l-1.45-.019c-1.212-.015-1.489-.029-1.687-.087-.844-.243-1.442-.807-1.734-1.633-.088-.251-.102-.355-.102-.789 0-.434.014-.538.102-.789.232-.657.64-1.128 1.243-1.435.463-.236.573-.249 2.178-.253L11 2.52v2.504m5.11-2.444c.476.112.986.432 1.312.823.2.239.331.474.449.808.088.251.102.355.102.789 0 .434-.014.538-.102.789a2.533 2.533 0 0 1-1.731 1.633c-.202.058-.472.072-1.69.087L13 7.528V2.52l1.43.001c1.119 0 1.484.013 1.68.059M11 12.024v2.504l-1.45-.019c-1.212-.015-1.489-.029-1.687-.087-.844-.243-1.442-.807-1.734-1.633-.088-.251-.102-.355-.102-.789 0-.434.014-.538.102-.789.232-.657.64-1.128 1.243-1.435.463-.236.573-.249 2.178-.253L11 9.52v2.504m5.11-2.444c.476.112.986.432 1.312.823.2.239.331.474.449.808.088.251.102.355.102.789 0 .434-.014.538-.102.789-.371 1.051-1.277 1.7-2.371 1.7-1.098 0-1.998-.645-2.371-1.7-.088-.251-.102-.355-.102-.789 0-.434.014-.538.102-.789.17-.48.405-.822.78-1.137.243-.203.668-.421.963-.492.304-.074.929-.075 1.238-.002m-5.119 8.43c-.015 1.486-.015 1.491-.119 1.779-.378 1.055-1.279 1.7-2.372 1.7-1.098 0-1.998-.645-2.371-1.7-.088-.251-.102-.355-.102-.789 0-.434.014-.538.102-.789.232-.657.64-1.128 1.243-1.435.463-.236.573-.249 2.181-.253l1.453-.003-.015 1.49" fill="#667085" fill-rule="evenodd"/></svg>