<svg width="24" height="24" fill="none" xmlns="http://www.w3.org/2000/svg"><path d="M6.17 1.044c-.477.042-.978.162-1.314.315-.947.429-1.781 1.327-2.104 2.265-.254.736-.243.406-.26 7.856-.017 6.884-.003 7.777.129 8.423.282 1.373 1.44 2.586 2.799 2.931.572.146 1.051.166 3.939.166 3.03 0 2.971.004 3.267-.222.29-.221.437-.678.337-1.046a1.05 1.05 0 0 0-.502-.61l-.199-.102-2.961-.025c-3.537-.029-3.493-.025-4.044-.436a2.111 2.111 0 0 1-.39-.425c-.352-.516-.327.118-.327-8.134s-.025-7.618.327-8.134c.322-.472.707-.705 1.313-.793.517-.076 10.11-.077 10.64-.002.613.088 1.102.404 1.394.903.229.391.236.474.262 3.486.027 3.062.013 2.917.296 3.215a.99.99 0 0 0 1.473-.023c.263-.292.255-.192.253-3.172-.002-2.976-.016-3.176-.254-3.867-.32-.929-1.156-1.826-2.1-2.254-.354-.161-.822-.268-1.384-.318-.553-.049-10.039-.046-10.59.003M16.9 13.057c-.348.07-.398.086-1.707.555-1.228.44-1.257.454-1.432.653-.265.302-.261.27-.26 2.015.001 1.502.005 1.598.09 1.935.182.719.556 1.361 1.163 1.994a8.389 8.389 0 0 0 2.186 1.619c.327.161.382.176.6.163.288-.017.622-.176 1.28-.608a7.419 7.419 0 0 0 1.424-1.173c.609-.634.983-1.275 1.165-1.995.085-.337.089-.433.09-1.915.001-1.221-.011-1.594-.054-1.715-.063-.18-.289-.444-.45-.527-.171-.089-2.386-.878-2.677-.954-.356-.093-1.066-.117-1.418-.047m1.754 2.267.83.296-.012 1.1-.012 1.1-.177.336c-.283.534-.991 1.229-1.58 1.55l-.198.107-.202-.107c-.577-.303-1.301-1.012-1.586-1.55l-.177-.336-.012-1.1-.012-1.1.812-.287c.988-.35.915-.331 1.234-.317.205.01.443.077 1.092.308" fill="#667085" fill-rule="evenodd"/></svg>