<svg width="24" height="24" fill="none" xmlns="http://www.w3.org/2000/svg"><path d="M6.17 1.044c-.477.042-.978.162-1.314.315-.947.429-1.781 1.327-2.104 2.265-.254.736-.243.406-.26 7.856-.017 6.884-.003 7.777.129 8.423.282 1.373 1.44 2.586 2.799 2.931.566.144 1.056.166 3.714.166l2.566-.001.2-.093a.994.994 0 0 0 .043-1.799c-.161-.086-.189-.087-2.883-.112-3.267-.03-3.258-.029-3.803-.436a2.111 2.111 0 0 1-.39-.425c-.352-.516-.327.118-.327-8.134s-.025-7.618.327-8.134c.322-.472.707-.705 1.313-.793.517-.076 10.11-.077 10.64-.002.613.088 1.102.404 1.394.903.232.396.236.451.262 3.726l.024 3 .114.233c.134.272.34.44.651.53.245.071.43.049.695-.084.213-.108.317-.215.445-.459l.095-.18-.002-2.98c-.002-3.285-.011-3.444-.254-4.147-.32-.929-1.156-1.826-2.1-2.254-.354-.161-.822-.268-1.384-.318-.553-.049-10.039-.046-10.59.003m11.07 12.991a1.111 1.111 0 0 0-.668.585c-.062.139-.073.307-.085 1.268l-.013 1.107-1.127.013c-1.069.011-1.135.017-1.29.099a.994.994 0 0 0 .043 1.799c.194.09.232.093 1.287.094h1.087l.013 1.11c.012.963.023 1.131.085 1.27.16.355.555.619.928.619s.768-.264.928-.619c.062-.139.073-.307.085-1.27l.013-1.11h1.087c1.055-.001 1.093-.004 1.287-.094a.994.994 0 0 0 .043-1.799c-.155-.082-.221-.088-1.29-.099l-1.127-.013-.013-1.107c-.012-.961-.023-1.129-.085-1.268a1.134 1.134 0 0 0-.485-.508c-.172-.088-.544-.129-.703-.077" fill="#667085" fill-rule="evenodd"/></svg>