<svg width="24" height="24" fill="none" xmlns="http://www.w3.org/2000/svg"><path d="M6.17 1.044c-1.066.095-1.862.476-2.581 1.235-.569.602-.875 1.227-1.019 2.086-.065.384-.07.958-.07 7.635s.005 7.251.07 7.635c.141.842.447 1.477.99 2.057.721.77 1.486 1.147 2.568 1.265.217.024 1.192.043 2.203.043 2.059 0 2.073-.002 2.37-.299a.984.984 0 0 0-.001-1.403c-.289-.289-.307-.291-2.46-.312-2.083-.02-2.339-.043-2.726-.252a2.199 2.199 0 0 1-.728-.708c-.259-.441-.246-.015-.246-8.026s-.013-7.585.246-8.026c.165-.282.495-.59.781-.729.462-.224.494-.225 5.933-.225 5.244 0 5.456.007 5.858.184.482.213.912.724 1.029 1.224.054.23.068.701.089 3.032.022 2.541.03 2.773.096 2.92.16.356.555.619.928.619.386 0 .818-.303.945-.664.076-.215.079-5.3.003-5.821-.104-.718-.312-1.286-.653-1.781a4.835 4.835 0 0 0-1.057-1.036c-.621-.413-1.127-.58-1.978-.656-.553-.049-10.039-.046-10.59.003m1.07 4.993a1.046 1.046 0 0 0-.488.315c-.445.493-.272 1.265.348 1.554l.2.093h8.4l.2-.094c.381-.181.588-.5.588-.905 0-.385-.195-.703-.548-.894l-.16-.086-4.22-.007c-2.321-.004-4.265.007-4.32.024m0 4c-.193.06-.347.159-.488.315-.445.493-.272 1.265.348 1.554l.2.093h5.4l.2-.094c.381-.181.588-.5.588-.905 0-.385-.195-.703-.548-.894-.159-.086-.175-.086-2.88-.093-1.496-.004-2.765.007-2.82.024m9.1 2.545a3.684 3.684 0 0 0-.58.227c-.27.133-.411.238-.685.511-.291.29-.374.404-.528.722-.235.487-.307.847-.307 1.532v.537l-.27.029a1.472 1.472 0 0 0-.413.101c-.44.225-.81.674-.967 1.174-.086.271-.09.35-.09 1.585 0 1.235.004 1.314.09 1.585a2.019 2.019 0 0 0 1.438 1.355c.192.05.669.06 2.972.06 3.018 0 2.978.003 3.449-.248.442-.236.768-.629.958-1.154.09-.251.093-.295.093-1.598 0-1.303-.003-1.347-.093-1.598-.26-.72-.783-1.203-1.367-1.262l-.27-.027-.02-.667c-.023-.745-.081-1-.343-1.506-.173-.333-.672-.852-1.014-1.053-.429-.252-.755-.34-1.313-.353-.347-.008-.573.006-.74.048m-9.1 1.455c-.194.06-.347.159-.488.315-.445.493-.272 1.265.348 1.554.2.093.203.093 1.9.093h1.7l.2-.094c.381-.181.588-.5.588-.905 0-.385-.195-.703-.548-.894-.156-.084-.2-.086-1.88-.093-.946-.004-1.765.006-1.82.024m10.118.562c.3.153.399.408.401 1.031l.001.37h-1.52l.001-.39c.001-.627.077-.825.383-.999a.84.84 0 0 1 .734-.012m2.059 3.425c.055.022.063.147.063 1V20h-4.96v-.977c0-.744.012-.981.05-.997.072-.029 4.771-.031 4.847-.002" fill="#667085" fill-rule="evenodd"/></svg>