<svg width="24" height="24" fill="none" xmlns="http://www.w3.org/2000/svg"><path d="M6.181 1.046c-1.054.093-1.863.469-2.545 1.183C2.994 2.9 2.69 3.537 2.552 4.5c-.041.284-.052 1.875-.052 7.54 0 6.639.005 7.211.07 7.595.142.85.448 1.481 1.004 2.071.721.766 1.479 1.137 2.554 1.252.569.061 5.475.056 5.681-.006.088-.026.246-.125.352-.221.525-.472.416-1.284-.218-1.624-.161-.086-.188-.087-2.883-.111-2.816-.025-3.054-.039-3.418-.2A1.88 1.88 0 0 1 4.61 19.56c-.065-.28-.07-.792-.07-7.56 0-6.667.006-7.284.067-7.548.119-.505.504-.985.972-1.213.443-.216.537-.219 5.921-.219 5.198 0 5.461.008 5.856.183.485.215.912.719 1.031 1.217.059.248.069.735.09 4.3l.023 4.02.106.2c.058.11.148.238.2.285a1.021 1.021 0 0 0 1.624-.336c.065-.139.07-.422.069-4.129-.001-4.382-.003-4.416-.251-5.136-.323-.938-1.158-1.836-2.104-2.265-.361-.164-.834-.271-1.407-.318-.592-.049-9.992-.044-10.556.005M20.08 15.603c-.136.061-.653.553-2.129 2.027l-1.949 1.947-.731-.724c-.667-.661-.75-.73-.948-.789-.271-.08-.374-.08-.639-.001-.384.113-.684.525-.684.937 0 .08.03.234.066.343.057.173.202.335 1.17 1.31.607.612 1.185 1.161 1.284 1.22.152.09.226.107.48.107s.328-.016.48-.107c.276-.165 4.857-4.774 4.942-4.973.215-.504-.036-1.103-.553-1.319-.207-.086-.571-.077-.789.022" fill="#667085" fill-rule="evenodd"/></svg>