<svg width="24" height="24" fill="none" xmlns="http://www.w3.org/2000/svg"><path d="M6.181 1.046c-1.054.093-1.863.469-2.545 1.183C2.994 2.9 2.69 3.537 2.552 4.5c-.041.284-.052 1.875-.052 7.54 0 6.639.005 7.211.07 7.595.142.85.448 1.481 1.004 2.071.721.766 1.479 1.137 2.554 1.252.577.062 7.473.057 7.681-.006.088-.026.246-.125.352-.221.525-.472.416-1.284-.218-1.624l-.163-.087-3.72-.023c-3.877-.024-4.035-.031-4.418-.201A1.88 1.88 0 0 1 4.61 19.56c-.065-.28-.07-.792-.07-7.56 0-6.667.006-7.284.067-7.548.119-.505.504-.985.972-1.213.443-.216.537-.219 5.921-.219 5.198 0 5.461.008 5.856.183.485.215.912.719 1.031 1.217.059.247.069.722.09 4.02l.023 3.74.12.219c.426.775 1.491.706 1.824-.119.047-.117.056-.744.055-3.82-.002-4.05-.006-4.124-.251-4.836-.323-.938-1.158-1.836-2.104-2.265-.361-.164-.834-.271-1.407-.318-.592-.049-9.992-.044-10.556.005m8.059 14.991a1.046 1.046 0 0 0-.488.315c-.445.493-.272 1.265.348 1.554l.2.093 3.175.001c2.339 0 3.218-.013 3.334-.048.088-.026.246-.125.352-.221.525-.472.416-1.284-.218-1.624l-.163-.087-3.22-.007c-1.771-.004-3.265.007-3.32.024" fill="#667085" fill-rule="evenodd"/></svg>