<svg width="24" height="24" fill="none" xmlns="http://www.w3.org/2000/svg"><path d="M6.692 1.044c-.835.074-1.498.323-2.126.796-.698.526-1.233 1.341-1.424 2.166-.139.601-.146 1.071-.132 8.314.013 6.494.021 7.17.082 7.467.199.97.73 1.824 1.48 2.384.539.402.985.601 1.656.737.328.067.717.072 5.772.072 5.067 0 5.443-.005 5.775-.072 1.635-.333 2.8-1.498 3.133-3.133.067-.333.072-.724.072-6.215V7.7l-.107-.18c-.061-.102-1.449-1.518-3.22-3.287-3.022-3.015-3.119-3.108-3.33-3.17-.192-.056-.634-.062-3.74-.057-1.938.003-3.688.02-3.891.038M13 5.112c0 1.765.01 2.15.061 2.35.194.755.794 1.34 1.531 1.494.139.029.933.044 2.31.044H19v4.61c0 4.576-.024 5.639-.137 6.061-.105.393-.455.821-.872 1.065-.407.238-.352.236-5.611.253-4.838.016-5.573.001-6.051-.126-.531-.141-1.048-.668-1.19-1.213-.119-.455-.138-1.532-.138-7.65 0-6.131.019-7.195.139-7.654.144-.552.666-1.067 1.226-1.211.391-.1 1.086-.123 3.944-.129L13 3v2.112m3.314 1.879c-.685.005-1.257-.001-1.27-.014-.013-.013-.029-.594-.035-1.29l-.011-1.267 1.281 1.28 1.282 1.28-1.247.011M7.667 8.065c-.402.123-.699.584-.658 1.018.038.395.344.776.702.875.232.065 2.432.052 2.619-.015.221-.079.414-.241.539-.454.095-.161.111-.233.111-.489s-.016-.328-.111-.489a.962.962 0 0 0-.574-.454c-.274-.083-2.353-.077-2.628.008m0 4c-.402.123-.699.584-.658 1.018.038.395.344.776.702.875.098.028 1.561.041 4.309.04 3.371-.001 4.188-.012 4.31-.055.221-.079.414-.241.539-.454.095-.161.111-.233.111-.489s-.016-.328-.111-.489a.962.962 0 0 0-.574-.454c-.287-.087-8.345-.079-8.628.008m0 4c-.402.123-.699.584-.658 1.018.038.395.344.776.702.875.098.028 1.561.041 4.309.04 3.371-.001 4.188-.012 4.31-.055.221-.079.414-.241.539-.454.095-.161.111-.233.111-.489s-.016-.328-.111-.489a.962.962 0 0 0-.574-.454c-.287-.087-8.345-.079-8.628.008" fill="#667085" fill-rule="evenodd"/></svg>