<svg width="24" height="24" fill="none" xmlns="http://www.w3.org/2000/svg"><path d="M12.667 1.065c-.374.115-.67.538-.665.952.003.346.196.668.509.852l.189.111 2.4.025c2.634.028 2.941.05 3.326.237.488.236.878.753.981 1.298.043.226.053 1.682.053 7.5 0 8.207.025 7.578-.327 8.094-.307.449-.7.698-1.255.794-.43.075-10.319.076-10.758.001-.558-.094-1.065-.436-1.334-.9-.202-.349-.231-.594-.26-2.229L5.5 16.3l-.114-.233c-.19-.386-.516-.568-.966-.54-.484.031-.86.4-.923.906-.049.387.011 2.783.08 3.222.129.816.443 1.463.997 2.051.4.424.714.661 1.166.878.422.203.852.32 1.38.375.527.055 10.238.054 10.752-.001.776-.083 1.467-.338 1.996-.735.607-.456 1.152-1.187 1.38-1.847.263-.762.252-.402.252-8.336 0-7.588.003-7.472-.184-8.186a4.094 4.094 0 0 0-.521-1.121c-.366-.533-1.05-1.102-1.651-1.374-.682-.309-1.251-.359-4.084-.356-1.827.002-2.233.013-2.393.062m-5.187.997a2.563 2.563 0 0 0-1.239.694c-.332.334-.502.62-.647 1.084l-.094.3v3.02c0 2.826.005 3.032.073 3.209.088.229.392.516.618.583a1.04 1.04 0 0 0 1.237-.572c.067-.148.073-.381.092-3.122.018-2.73.025-2.97.09-3.068.162-.248.635-.234.792.022.075.124.078.225.078 3.134 0 2.897-.003 3.015-.08 3.266a1.997 1.997 0 0 1-2.382 1.327c-.656-.169-1.128-.585-1.391-1.228-.085-.206-.087-.266-.107-2.571-.022-2.617-.012-2.522-.292-2.814-.213-.222-.409-.304-.728-.304s-.515.082-.728.304c-.278.291-.271.225-.284 2.554-.007 1.254.004 2.254.029 2.482.185 1.718 1.341 3.061 3.036 3.527.443.122 1.451.122 1.894 0 .762-.209 1.337-.542 1.875-1.084.694-.7 1.057-1.474 1.16-2.475.029-.287.039-1.388.029-3.31-.013-2.57-.022-2.906-.083-3.12-.203-.711-.687-1.308-1.309-1.614-.551-.272-1.08-.344-1.639-.224m5.187 6.002a.935.935 0 0 0-.365.232.998.998 0 0 0 .368 1.647c.117.042.573.054 2.09.055l1.94.001.2-.093a.994.994 0 0 0 .043-1.799c-.16-.086-.194-.087-2.123-.095-1.647-.007-1.991.002-2.153.052m-1 4a.935.935 0 0 0-.365.232.998.998 0 0 0 .368 1.647c.119.042.656.054 2.59.055l2.44.001.2-.093a.994.994 0 0 0 .043-1.799c-.162-.086-.18-.087-2.623-.095-2.089-.006-2.489.001-2.653.052M8.24 16.037c-.305.094-.592.358-.682.628-.073.216-.066.49.017.708.086.225.391.512.616.579.118.036 1.223.048 4.334.048l4.175-.001.2-.093a.994.994 0 0 0 .043-1.799l-.163-.087-4.22-.007c-2.321-.004-4.265.007-4.32.024" fill="#667085" fill-rule="evenodd"/></svg>