<svg width="24" height="24" fill="none" xmlns="http://www.w3.org/2000/svg"><path d="M6.194 1.042c-1.022.091-1.773.427-2.456 1.098-.696.684-1.013 1.308-1.158 2.28-.089.6-.089 14.56 0 15.16.145.972.462 1.596 1.158 2.28.566.555 1.101.842 1.922 1.031.342.078.504.083 3.172.098 3.136.018 3.059.024 3.344-.253.506-.492.417-1.266-.185-1.599l-.211-.117-2.72-.025c-2.963-.028-3.14-.041-3.537-.257-.268-.146-.662-.562-.782-.826-.205-.447-.201-.302-.201-7.912 0-7.605-.004-7.466.2-7.91.113-.248.432-.598.703-.772.481-.309.902-.329 6.577-.308 3.281.013 4.644.031 4.86.065.736.118 1.348.654 1.506 1.319.083.347.132 1.79.134 3.906.002 1.844.005 1.927.083 2.1.354.781 1.396.797 1.807.028l.09-.168V7.5c0-2.963-.009-3.127-.208-3.759a3.723 3.723 0 0 0-.907-1.511c-.716-.734-1.5-1.09-2.613-1.188-.55-.048-10.036-.048-10.578 0m7.861 12.055c-1.776.403-2.903 2.293-2.415 4.052.169.612.378.964.947 1.594.628.695 3.145 2.977 3.47 3.145.087.044.26.09.385.102.355.032.552-.082 1.34-.771 1.527-1.335 2.687-2.456 3.051-2.949.47-.636.673-1.318.638-2.141a3.097 3.097 0 0 0-.717-1.9c-.682-.85-1.658-1.234-2.714-1.067-.381.06-.731.182-1.165.407l-.386.199-.319-.223a4.78 4.78 0 0 0-.595-.353c-.258-.121-.306-.13-.775-.14a3.574 3.574 0 0 0-.745.045m1.171 2c.113.052.334.214.492.358.281.258.539.385.782.385.249 0 .514-.13.785-.385.356-.334.609-.454.955-.454.447 0 .899.287 1.141.725.104.187.119.254.119.534 0 .478-.108.668-.757 1.335a39.796 39.796 0 0 1-2.046 1.911l-.199.166-.659-.586a40.813 40.813 0 0 1-1.363-1.286c-.592-.589-.724-.743-.836-.971-.251-.514-.158-1.016.266-1.441.392-.391.876-.498 1.32-.291" fill="#667085" fill-rule="evenodd"/></svg>