<svg width="24" height="24" fill="none" xmlns="http://www.w3.org/2000/svg"><path d="M6.9 1.026c-.973.077-1.532.256-2.2.707-.578.389-1.181 1.16-1.417 1.811-.28.775-.263.214-.263 8.456 0 6.982.004 7.441.072 7.773.108.531.284.971.553 1.389.595.92 1.488 1.523 2.582 1.746.329.067.715.072 5.773.072s5.444-.005 5.773-.072a3.927 3.927 0 0 0 1.389-.553c.92-.595 1.523-1.488 1.746-2.582.067-.33.072-.731.072-6.193V7.74l-.089-.18c-.064-.13-.954-1.043-3.22-3.305-2.855-2.85-3.148-3.131-3.328-3.19-.177-.058-.566-.064-3.74-.058-1.949.003-3.615.012-3.703.019M13 5.573c0 2.904-.008 2.821.299 3.128.307.307.224.299 3.128.299H19v4.59c0 4.58-.024 5.619-.139 6.061-.142.544-.638 1.05-1.181 1.206-.432.123-1.173.142-5.68.142s-5.248-.019-5.68-.142c-.543-.156-1.039-.662-1.181-1.206C5.019 19.189 5 18.163 5 12c0-6.169.019-7.188.14-7.652.145-.56.658-1.067 1.224-1.212.396-.101 1.074-.124 3.926-.13L13 3v2.573m3.3.147L17.58 7H15V5.72c0-.704.005-1.28.01-1.28.006 0 .586.576 1.29 1.28m-4.801 4.317c-.307.049-.562.131-1.826.583-1.27.454-1.385.517-1.553.843l-.1.195.001 1.681.001 1.681.109.351c.135.433.355.874.633 1.269.445.629 1.332 1.401 2.244 1.951.891.537 1.093.537 1.984 0 .912-.55 1.799-1.322 2.244-1.951.279-.396.499-.837.632-1.269l.108-.351.015-1.6c.011-1.134.002-1.647-.031-1.76a1.003 1.003 0 0 0-.394-.556c-.164-.104-2.342-.894-2.767-1.004-.293-.076-1.004-.111-1.3-.063m1.661 2.29.82.293v2.126l-.167.337a3.531 3.531 0 0 1-.879 1.098c-.313.267-.845.619-.934.619-.089 0-.621-.352-.934-.619a3.531 3.531 0 0 1-.879-1.098l-.167-.337v-2.125l.7-.253c1.286-.465 1.257-.464 2.44-.041" fill="#667085" fill-rule="evenodd"/></svg>