<svg width="24" height="24" fill="none" xmlns="http://www.w3.org/2000/svg"><path d="M6.692 1.043c-.839.077-1.499.324-2.126.797-.698.526-1.233 1.341-1.424 2.166-.139.601-.146 1.071-.132 8.314.013 6.494.021 7.17.082 7.467.199.97.73 1.824 1.48 2.384.539.402.985.601 1.656.737.328.067.717.072 5.772.072 5.067 0 5.443-.005 5.775-.072 1.635-.333 2.8-1.498 3.133-3.133.068-.335.072-.78.072-7.775 0-8.242.017-7.681-.263-8.456-.371-1.024-1.365-1.978-2.417-2.317-.632-.205-.502-.2-6.06-.209-2.849-.005-5.345.006-5.548.025M16.78 3.04c.352.021.743.066.87.099.555.145 1.069.659 1.21 1.21.122.473.139 1.419.139 7.631.001 6.199-.018 7.249-.136 7.691-.105.393-.455.821-.872 1.065-.407.238-.352.236-5.611.253-4.838.016-5.573.001-6.051-.126-.531-.141-1.048-.668-1.19-1.213-.119-.455-.138-1.532-.138-7.65 0-6.131.019-7.195.139-7.654.103-.394.412-.789.819-1.046.232-.146.577-.223 1.156-.258.757-.045 8.924-.047 9.665-.002M7.667 6.065c-.402.123-.699.584-.658 1.018.038.395.344.776.702.875.098.028 1.561.041 4.309.04 3.371-.001 4.188-.012 4.31-.055.221-.079.414-.241.539-.454.095-.161.111-.233.111-.489s-.016-.328-.111-.489a.962.962 0 0 0-.574-.454c-.287-.087-8.345-.079-8.628.008m0 4c-.402.123-.699.584-.658 1.018.038.395.344.776.702.875.097.027 1.25.041 3.309.04 2.536-.001 3.19-.012 3.31-.055.221-.079.414-.241.539-.454.095-.161.111-.233.111-.489s-.016-.328-.111-.489a.962.962 0 0 0-.574-.454c-.285-.086-6.346-.079-6.628.008m0 4c-.402.123-.699.584-.658 1.018.038.395.344.776.702.875.232.065 2.432.052 2.619-.015.221-.079.414-.241.539-.454.095-.161.111-.233.111-.489s-.016-.328-.111-.489a.962.962 0 0 0-.574-.454c-.274-.083-2.353-.077-2.628.008" fill="#667085" fill-rule="evenodd"/></svg>