<svg width="24" height="24" fill="none" xmlns="http://www.w3.org/2000/svg"><path d="M6.9 1.026c-.973.077-1.532.256-2.2.707-.578.389-1.181 1.16-1.417 1.811-.28.775-.263.214-.263 8.456 0 6.982.004 7.441.072 7.773.108.531.284.971.553 1.389.595.92 1.488 1.523 2.582 1.746.329.067.715.072 5.773.072s5.444-.005 5.773-.072c1.084-.221 1.98-.822 2.568-1.725.266-.408.433-.807.552-1.323.082-.354.084-.45.097-6.175.012-5.31.007-5.834-.053-6.02-.061-.191-.279-.418-3.231-3.37-2.892-2.892-3.183-3.171-3.363-3.23-.176-.058-.571-.064-3.74-.058-1.949.003-3.615.012-3.703.019M13 5.112c0 1.765.01 2.15.061 2.35.194.755.794 1.34 1.531 1.494.139.029.933.044 2.31.044H19v4.59c0 4.58-.024 5.619-.139 6.061-.142.544-.638 1.05-1.181 1.206-.432.123-1.173.142-5.68.142s-5.248-.019-5.68-.142c-.543-.156-1.039-.662-1.181-1.206C5.019 19.189 5 18.163 5 12c0-6.169.019-7.188.14-7.652.145-.56.658-1.067 1.224-1.212.396-.101 1.074-.124 3.926-.13L13 3v2.112m3.313 1.879c-.971.008-1.255-.001-1.28-.04-.017-.028-.032-.609-.032-1.291L15 4.42l1.28 1.28 1.281 1.28-1.248.011m-4.905 3.049c-1.674.236-3.123 1.424-3.66 3-.246.724-.313 1.623-.17 2.3.293 1.383 1.124 2.499 2.333 3.131 1.094.572 2.24.679 3.32.312.274-.093.864-.373 1.026-.487.075-.052.12-.016.662.519.619.612.726.679 1.081.679.701 0 1.199-.746.917-1.374-.053-.119-.264-.364-.622-.724l-.542-.544.185-.341c.386-.714.549-1.324.55-2.051a4.334 4.334 0 0 0-.83-2.565 4.6 4.6 0 0 0-2.752-1.799c-.349-.074-1.156-.104-1.498-.056m1.381 2.094a2.422 2.422 0 0 1 1.434 1.236c.18.353.256.687.256 1.13 0 .447-.079.793-.26 1.137-.642 1.222-2.082 1.703-3.312 1.107-.656-.319-1.164-.944-1.327-1.634-.075-.32-.075-.9 0-1.22.219-.927 1.014-1.672 1.98-1.852.314-.059.91-.013 1.229.096" fill="#667085" fill-rule="evenodd"/></svg>