<svg width="24" height="24" fill="none" xmlns="http://www.w3.org/2000/svg"><path d="M6.714 1.042c-.826.073-1.38.263-2.014.691-.578.389-1.181 1.16-1.417 1.811-.28.775-.263.214-.263 8.456 0 6.995.004 7.44.072 7.775.333 1.635 1.498 2.8 3.133 3.133.332.067.708.072 5.775.072s5.443-.005 5.775-.072c1.036-.211 1.847-.724 2.448-1.548.345-.472.523-.872.67-1.5.082-.355.084-.435.097-6.175.012-5.31.007-5.834-.053-6.02-.061-.191-.28-.419-3.231-3.372-3.078-3.079-3.172-3.169-3.383-3.23-.192-.055-.639-.062-3.74-.057-1.938.003-3.679.019-3.869.036M13 5.112c0 1.765.01 2.15.061 2.35.194.755.794 1.34 1.531 1.494.139.029.933.044 2.31.044H19v4.59c0 4.585-.024 5.619-.14 6.062-.143.552-.687 1.093-1.225 1.222-.447.107-1.255.125-5.635.125s-5.188-.018-5.635-.125c-.538-.129-1.082-.67-1.225-1.222C5.019 19.188 5 18.169 5 12c0-6.169.019-7.188.14-7.652.146-.561.658-1.067 1.226-1.213.391-.1 1.086-.123 3.944-.129L13 3v2.112m3.313 1.879c-.971.008-1.255-.001-1.28-.04-.017-.028-.032-.609-.032-1.291L15 4.42l1.28 1.28 1.281 1.28-1.248.011m-4.646 4.074c-.252.077-.512.335-.601.595-.058.17-.066.428-.066 2.055v1.86l-.73-.723c-.666-.66-.749-.729-.947-.788-.271-.08-.374-.08-.639-.001-.577.171-.86.906-.549 1.429.127.215 3.239 3.315 3.425 3.413.099.052.228.074.44.074.255.001.327-.015.48-.106.099-.059.902-.833 1.785-1.72 1.433-1.441 1.611-1.634 1.67-1.81.036-.109.065-.263.065-.343 0-.412-.3-.824-.684-.937-.265-.079-.368-.079-.639.001-.198.059-.281.128-.947.788l-.73.723v-1.86c0-2.114 0-2.118-.303-2.42-.269-.27-.635-.351-1.03-.23" fill="#667085" fill-rule="evenodd"/></svg>