<svg width="24" height="24" fill="none" xmlns="http://www.w3.org/2000/svg"><path d="M7.593 1.059A4.05 4.05 0 0 0 4.377 4.02c-.137.534-.18 1.413-.084 1.742.214.736 1.122.977 1.659.44.227-.227.258-.33.294-.974.036-.656.07-.823.234-1.147.219-.432.598-.765 1.1-.965l.24-.096 3.12-.011c2.047-.008 3.216.003 3.4.03.612.093.546.037 3.188 2.676 2.202 2.199 2.398 2.405 2.51 2.646.067.144.141.365.164.49.06.328.026 10.233-.037 10.586-.025.142-.09.354-.144.473-.122.266-.515.682-.784.828-.439.239-.326.234-6.008.251-5.668.016-5.408.026-5.892-.21-.425-.206-.862-.732-.999-1.202-.033-.111-.074-.471-.092-.8-.036-.649-.067-.751-.294-.979-.189-.189-.409-.276-.702-.277a.949.949 0 0 0-.954.707c-.098.335-.059 1.21.077 1.737a4.038 4.038 0 0 0 2.688 2.847c.614.193.617.194 6.319.178 5.278-.014 5.366-.015 5.72-.098.825-.192 1.356-.477 1.923-1.032.594-.581.936-1.189 1.112-1.98.084-.377.085-.423.085-5.82V8.62l-.088-.328a4.157 4.157 0 0 0-.479-1.146c-.17-.288-.464-.599-2.533-2.679-1.287-1.294-2.457-2.448-2.6-2.565a4.074 4.074 0 0 0-1.58-.792c-.313-.084-.396-.086-3.68-.095-2.633-.007-3.426.003-3.667.044M4.818 8.603c-.104.05-.661.58-1.563 1.488C1.751 11.603 1.76 11.592 1.76 12c0 .408-.009.397 1.497 1.911.955.961 1.458 1.438 1.574 1.494.457.222 1.065.01 1.32-.459.098-.181.094-.717-.007-.906-.041-.077-.499-.567-1.017-1.09L4.184 12l.943-.95c.518-.523.976-1.013 1.017-1.09.101-.189.105-.725.007-.906a1.177 1.177 0 0 0-.49-.459c-.221-.1-.628-.097-.843.008m3.993.003a1.02 1.02 0 0 0-.509.599c-.078.262-.077.328.002.598.06.203.13.283 1.049 1.207l.984.991-.985.989c-.957.961-.988.997-1.055 1.23-.261.905.755 1.626 1.532 1.088.278-.193 2.716-2.676 2.815-2.868.129-.25.129-.63 0-.88-.138-.269-2.725-2.849-2.964-2.957-.244-.11-.639-.109-.869.003" fill="#667085" fill-rule="evenodd"/></svg>