<svg width="24" height="24" fill="none" xmlns="http://www.w3.org/2000/svg"><path d="M6.181 1.046c-1.054.093-1.863.469-2.545 1.183C2.994 2.9 2.69 3.537 2.552 4.5c-.041.284-.052 1.875-.052 7.54 0 6.639.005 7.211.07 7.595.142.85.448 1.481 1.004 2.071.721.766 1.479 1.137 2.554 1.252.615.066 6.012.053 6.202-.015.819-.292.895-1.448.12-1.829l-.19-.094-2.96-.024c-3.07-.025-3.289-.036-3.658-.2A1.88 1.88 0 0 1 4.61 19.56c-.065-.28-.07-.792-.07-7.56 0-6.667.006-7.284.067-7.548.119-.505.504-.985.972-1.213.443-.216.537-.219 5.921-.219 5.198 0 5.461.008 5.856.183.287.127.586.383.782.67.271.397.302.586.337 2.087.025 1.065.04 1.285.099 1.42.205.469.745.72 1.235.572.226-.067.53-.354.618-.583.065-.169.072-.316.068-1.389-.006-1.337-.054-1.797-.247-2.356-.323-.938-1.158-1.836-2.104-2.265-.361-.164-.834-.271-1.407-.318-.592-.049-9.992-.044-10.556.005m12.299 9.016c-.689.148-1.384.682-1.69 1.298-.3.603-.29.465-.29 3.82 0 3.309-.01 3.178.255 3.472.386.428.98.462 1.405.081.359-.323.337-.113.36-3.475.018-2.73.025-2.97.09-3.068.162-.248.635-.234.792.022.075.124.078.225.078 3.134 0 2.885-.003 3.016-.079 3.263-.408 1.32-2.025 1.817-3.141.965-.234-.179-.507-.546-.628-.845-.092-.228-.092-.238-.112-2.589-.022-2.617-.012-2.522-.292-2.814-.213-.222-.409-.304-.728-.304s-.515.082-.728.304c-.277.29-.271.23-.285 2.514-.008 1.305.004 2.217.032 2.49.178 1.747 1.323 3.089 3.034 3.559.443.122 1.451.122 1.894 0 1.695-.465 2.85-1.808 3.036-3.527.026-.24.037-1.476.028-3.322l-.013-2.94-.093-.28c-.151-.456-.322-.738-.646-1.064a2.46 2.46 0 0 0-2.279-.694" fill="#667085" fill-rule="evenodd"/></svg>