<svg width="24" height="24" fill="none" xmlns="http://www.w3.org/2000/svg"><path d="M6.692 1.043c-.839.077-1.499.324-2.126.797-.698.526-1.233 1.341-1.424 2.166-.139.601-.146 1.071-.132 8.314.013 6.494.021 7.17.082 7.467.199.97.73 1.824 1.48 2.384.539.402.985.601 1.656.737.328.067.717.072 5.772.072 5.067 0 5.443-.005 5.775-.072 1.635-.333 2.8-1.498 3.133-3.133.068-.335.072-.78.072-7.775 0-8.242.017-7.681-.263-8.456-.371-1.024-1.365-1.978-2.417-2.317-.632-.205-.502-.2-6.06-.209-2.849-.005-5.345.006-5.548.025M16.78 3.04c.352.021.743.066.87.099.555.145 1.069.659 1.21 1.21.122.473.139 1.419.139 7.631.001 6.199-.018 7.249-.136 7.691-.105.393-.455.821-.872 1.065-.407.238-.352.236-5.611.253-4.838.016-5.573.001-6.051-.126-.531-.141-1.048-.668-1.19-1.213-.119-.455-.138-1.532-.138-7.65 0-6.131.019-7.195.139-7.654.103-.394.412-.789.819-1.046.232-.146.577-.223 1.156-.258.757-.045 8.924-.047 9.665-.002m-5.113 4.023a.956.956 0 0 0-.364.232C10.978 7.62 11 7.21 11 13.002c0 5.608-.011 5.318.222 5.624.055.073.186.182.289.243.161.095.233.111.489.111s.328-.016.489-.111c.213-.125.375-.318.454-.539.044-.122.054-1.104.055-5.31.001-3.437-.012-5.21-.04-5.309-.142-.512-.755-.82-1.291-.648m4 4c-.252.08-.513.339-.601.597-.059.174-.066.517-.066 3.342 0 3.42-.006 3.326.222 3.624.055.073.186.182.289.243.161.095.233.111.489.111s.328-.016.489-.111c.213-.125.375-.318.454-.539.043-.12.054-.774.055-3.31.001-2.059-.013-3.212-.04-3.309-.142-.512-.755-.82-1.291-.648m-8 2c-.252.08-.513.339-.601.597-.058.171-.066.448-.066 2.342 0 2.328 0 2.334.222 2.624.055.073.186.182.289.243.161.095.233.111.489.111s.328-.016.489-.111c.213-.125.375-.318.454-.539.068-.19.082-4.38.015-4.619-.142-.512-.755-.82-1.291-.648" fill="#667085" fill-rule="evenodd"/></svg>