<svg width="24" height="24" fill="none" xmlns="http://www.w3.org/2000/svg"><path d="M6.9 1.025c-.997.085-1.531.257-2.2.708-.578.389-1.181 1.16-1.417 1.811-.28.775-.263.214-.263 8.456 0 6.982.004 7.441.072 7.773.108.531.284.971.553 1.389.595.92 1.488 1.523 2.582 1.746.329.067.715.072 5.773.072s5.444-.005 5.773-.072a3.927 3.927 0 0 0 1.389-.553c.92-.595 1.523-1.488 1.746-2.582.067-.329.072-.714.072-5.733 0-4.862-.006-5.403-.066-5.62-.128-.469-.434-1.156-.668-1.5-.241-.353-4.813-4.925-5.166-5.166-.243-.166-.513-.299-1.04-.514-.534-.218-.457-.214-3.84-.222-1.727-.003-3.212 0-3.3.007m5.89 2.001.21.025v2.086c0 1.742.01 2.125.061 2.325.194.755.794 1.34 1.531 1.494.139.029.926.044 2.284.044h2.073l.025.21c.042.346.029 8.916-.014 9.591-.058.915-.152 1.193-.535 1.591-.363.378-.685.504-1.445.567-.636.053-9.324.053-9.96 0-.76-.063-1.082-.189-1.445-.567-.383-.398-.477-.676-.535-1.591-.053-.825-.053-12.777 0-13.602.022-.341.067-.724.1-.851.103-.397.416-.8.811-1.044.239-.148.575-.225 1.142-.261.594-.038 5.404-.052 5.697-.017m3.523 3.965c-.971.008-1.255-.001-1.28-.04-.017-.028-.032-.609-.032-1.291L15 4.42l1.28 1.28 1.281 1.28-1.248.011M9.6 11.583c-.086.037-.682.6-1.534 1.449C6.553 14.537 6.507 14.596 6.507 15c0 .405.045.461 1.579 1.985 1.511 1.502 1.52 1.509 1.914 1.509.701 0 1.199-.746.917-1.374-.058-.13-.35-.45-1.048-1.15L8.901 15l.968-.97c1.042-1.044 1.129-1.162 1.13-1.53.001-.372-.274-.778-.625-.925-.173-.072-.598-.068-.774.008m4.017-.006c-.346.15-.617.556-.616.923.001.368.088.486 1.13 1.53l.968.97-.968.97c-1.042 1.044-1.129 1.162-1.13 1.53-.001.387.306.823.664.942.198.066.471.067.675 0 .223-.072 2.947-2.77 3.071-3.042a1.028 1.028 0 0 0 0-.8c-.109-.239-2.797-2.925-3.02-3.018-.181-.076-.606-.078-.774-.005" fill="#667085" fill-rule="evenodd"/></svg>