<svg width="24" height="24" fill="none" xmlns="http://www.w3.org/2000/svg"><path d="M5.9 1.026c-.973.077-1.532.256-2.2.707-.581.391-1.181 1.16-1.419 1.818-.276.763-.261.264-.261 8.449 0 6.833.005 7.407.069 7.746a3.932 3.932 0 0 0 1.728 2.595c.41.268.811.434 1.323.55.338.077.521.083 2.937.098 2.896.019 2.774.03 3.109-.278.499-.461.376-1.272-.243-1.604-.161-.086-.196-.087-2.623-.111-2.444-.025-2.738-.041-3.116-.174-.475-.168-.935-.674-1.065-1.171C4.019 19.189 4 18.163 4 12s.019-7.189.139-7.651c.144-.553.656-1.065 1.209-1.209C5.785 3.026 6.822 3 11 3c4.173 0 5.216.026 5.651.139.554.145 1.068.659 1.209 1.21.105.41.139 1.338.14 3.871l.001 2.48.093.2c.305.653 1.141.801 1.617.286.31-.337.296-.152.279-3.608-.015-2.938-.02-3.094-.099-3.438-.259-1.129-.876-1.99-1.837-2.563-.551-.329-1.01-.464-1.818-.536-.407-.036-9.896-.05-10.336-.015m.743 5.043C6.291 6.193 6 6.614 6 7c0 .242.119.521.299.701.317.317.038.299 4.703.299 4.514 0 4.321.009 4.624-.222a1.19 1.19 0 0 0 .243-.289c.095-.161.111-.233.111-.489s-.016-.328-.111-.489a1.19 1.19 0 0 0-.243-.289c-.303-.232-.107-.222-4.641-.219-3.665.003-4.186.011-4.342.066m0 4C6.291 10.193 6 10.614 6 11c0 .242.119.521.299.701.311.312.156.299 3.703.299 3.42 0 3.326.006 3.624-.222a1.19 1.19 0 0 0 .243-.289c.095-.161.111-.233.111-.489s-.016-.328-.111-.489a1.19 1.19 0 0 0-.243-.289c-.299-.228-.201-.222-3.641-.219-2.759.003-3.188.011-3.342.066m9.634 3.489a4.586 4.586 0 0 0-2.359 1.188c-.924.883-1.409 2.003-1.409 3.254 0 1.176.426 2.232 1.245 3.09.871.911 2.006 1.403 3.226 1.399.717-.003 1.382-.188 2.064-.574l.284-.161.566.556c.464.457.601.569.763.623a.993.993 0 0 0 1.212-.444c.095-.162.111-.232.11-.489 0-.214-.022-.34-.075-.44-.041-.077-.316-.385-.612-.685l-.539-.545.156-.275c.396-.699.579-1.348.582-2.055.004-1.17-.423-2.229-1.245-3.09a4.475 4.475 0 0 0-2.166-1.277c-.334-.089-1.469-.136-1.803-.075m-9.634.511C6.291 14.193 6 14.614 6 15c0 .396.291.808.66.934.276.094 2.399.098 2.662.005a.986.986 0 0 0 .547-.45c.095-.161.111-.233.111-.489s-.016-.328-.111-.489a.986.986 0 0 0-.547-.45c-.254-.09-2.421-.083-2.679.008m10.979 1.511a2.54 2.54 0 0 1 1.798 1.798c.077.306.077.938 0 1.244a2.534 2.534 0 0 1-1.8 1.8c-.311.081-.929.082-1.24 0-.63-.165-1.25-.638-1.554-1.186-.406-.733-.406-1.741.001-2.472.181-.326.594-.744.913-.925.523-.298 1.304-.405 1.882-.259" fill="#667085" fill-rule="evenodd"/></svg>