<svg width="24" height="24" fill="none" xmlns="http://www.w3.org/2000/svg"><path d="M6.9 1.026c-.973.077-1.532.256-2.2.707-.578.389-1.181 1.16-1.417 1.811-.28.775-.263.214-.263 8.456 0 6.982.004 7.441.072 7.773.108.531.284.971.553 1.389.595.92 1.488 1.523 2.582 1.746.329.067.715.072 5.773.072s5.444-.005 5.773-.072c1.084-.221 1.98-.822 2.568-1.725.266-.408.433-.807.552-1.323.082-.354.084-.45.097-6.175.012-5.31.007-5.834-.053-6.02-.061-.191-.279-.418-3.231-3.37-2.892-2.892-3.183-3.171-3.363-3.23-.176-.058-.571-.064-3.74-.058-1.949.003-3.615.012-3.703.019M13 5.112c0 1.765.01 2.15.061 2.35.194.755.794 1.34 1.531 1.494.139.029.933.044 2.31.044H19v4.59c0 4.58-.024 5.619-.139 6.061-.142.544-.638 1.05-1.181 1.206-.432.123-1.173.142-5.68.142s-5.248-.019-5.68-.142c-.543-.156-1.039-.662-1.181-1.206C5.019 19.189 5 18.163 5 12c0-6.169.019-7.188.14-7.652.145-.56.658-1.067 1.224-1.212.396-.101 1.074-.124 3.926-.13L13 3v2.112m3.313 1.879c-.971.008-1.255-.001-1.28-.04-.017-.028-.032-.609-.032-1.291L15 4.42l1.28 1.28 1.281 1.28-1.248.011m-5.064 2.59a3.278 3.278 0 0 0-2.175 1.728c-.193.388-.214.455-.213.69a.989.989 0 0 0 1.014 1c.214-.001.495-.117.659-.271.062-.06.184-.247.269-.416.278-.55.566-.754 1.103-.784.29-.016.352-.006.56.089.305.14.477.307.619.603.242.505.12.882-.413 1.28-.282.21-.371.26-1.004.558-.343.162-.406.208-.511.373-.233.367-.248.691-.051 1.053a.944.944 0 0 0 .538.458c.336.118.658.048 1.331-.289 1.19-.597 1.922-1.366 2.166-2.276.039-.145.063-.4.063-.657-.001-1.413-.919-2.641-2.304-3.081-.362-.115-1.264-.147-1.651-.058m.394 7.485c-.355.131-.643.549-.643.934 0 .575.526 1.048 1.1.988 1.009-.104 1.237-1.424.327-1.895-.178-.092-.57-.105-.784-.027" fill="#667085" fill-rule="evenodd"/></svg>