<svg width="24" height="24" fill="none" xmlns="http://www.w3.org/2000/svg"><path d="M6.17 1.044c-.477.042-.978.162-1.314.315-.947.429-1.781 1.327-2.104 2.265-.254.736-.243.406-.26 7.856-.017 6.884-.003 7.777.129 8.423.282 1.373 1.44 2.586 2.799 2.931.572.146 1.051.166 3.939.166 3.03 0 2.971.004 3.267-.222.29-.221.437-.678.337-1.046a1.05 1.05 0 0 0-.502-.61l-.199-.102-2.961-.025c-3.537-.029-3.493-.025-4.044-.436a2.111 2.111 0 0 1-.39-.425c-.352-.516-.327.118-.327-8.134s-.025-7.618.327-8.134c.322-.472.707-.705 1.313-.793.517-.076 10.11-.077 10.64-.002.454.065.794.225 1.075.506.489.489.54.699.58 2.383.033 1.387.043 1.447.297 1.715a.99.99 0 0 0 1.473-.023c.246-.274.256-.335.25-1.672-.006-1.343-.054-1.797-.251-2.367-.32-.929-1.156-1.826-2.1-2.254-.354-.161-.822-.268-1.384-.318-.553-.049-10.039-.046-10.59.003m1.07 4.993a1.046 1.046 0 0 0-.488.315c-.445.493-.272 1.265.348 1.554l.2.093h8.4l.2-.093a.994.994 0 0 0 .043-1.799l-.163-.087-4.22-.007c-2.321-.004-4.265.007-4.32.024m0 4a1.05 1.05 0 0 0-.488.315c-.445.493-.272 1.265.348 1.554l.2.093L9.725 12c2.631 0 2.608.002 2.901-.222a1.19 1.19 0 0 0 .243-.289c.095-.161.111-.233.111-.489s-.016-.328-.111-.489a1.19 1.19 0 0 0-.243-.289c-.294-.224-.271-.222-2.881-.219-1.323.002-2.45.018-2.505.034m11.24.025a2.563 2.563 0 0 0-1.239.694c-.332.334-.502.62-.647 1.084l-.094.3v3.02c0 3.331-.01 3.198.255 3.492a.99.99 0 0 0 1.473.023c.284-.3.27-.128.292-3.417.022-3.328.003-3.128.32-3.223.213-.063.445.004.558.162.081.114.082.155.082 3.135 0 2.911-.003 3.029-.08 3.28-.36 1.164-1.705 1.722-2.813 1.165a2.044 2.044 0 0 1-.955-1.048c-.092-.228-.092-.238-.112-2.589-.022-2.617-.012-2.522-.292-2.814-.213-.222-.409-.304-.728-.304s-.515.082-.728.304c-.277.29-.271.23-.285 2.514-.014 2.237.011 2.698.176 3.267.511 1.763 2.191 2.968 4.017 2.88 1.995-.095 3.586-1.612 3.803-3.625.027-.241.036-1.466.027-3.322-.017-3.266-.002-3.085-.296-3.679-.212-.429-.643-.852-1.095-1.075-.551-.272-1.08-.344-1.639-.224M7.24 14.037a1.05 1.05 0 0 0-.488.315c-.445.493-.272 1.265.348 1.554l.2.093L9.225 16c2.085 0 2.113-.003 2.401-.222a1.19 1.19 0 0 0 .243-.289c.095-.161.111-.233.111-.489s-.016-.328-.111-.489a1.19 1.19 0 0 0-.243-.289c-.288-.22-.316-.222-2.381-.219-1.048.002-1.95.018-2.005.034" fill="#667085" fill-rule="evenodd"/></svg>