<svg width="24" height="24" fill="none" xmlns="http://www.w3.org/2000/svg"><path d="M6.181 1.046c-1.054.093-1.863.469-2.545 1.183C2.994 2.9 2.69 3.537 2.552 4.5c-.041.284-.052 1.875-.052 7.54 0 6.639.005 7.211.07 7.595.142.85.448 1.481 1.004 2.071.721.766 1.479 1.137 2.554 1.252.615.066 6.012.053 6.202-.015.819-.292.895-1.448.12-1.829l-.19-.094-2.96-.024c-3.07-.025-3.289-.036-3.658-.2A1.88 1.88 0 0 1 4.61 19.56c-.065-.28-.07-.792-.07-7.56 0-6.667.006-7.284.067-7.548.119-.505.504-.985.972-1.213.443-.216.537-.219 5.921-.219 5.198 0 5.461.008 5.856.183.485.215.912.719 1.031 1.217.059.248.069.735.09 4.3l.023 4.02.106.2c.058.11.148.238.2.285a1.021 1.021 0 0 0 1.624-.336c.065-.139.07-.422.069-4.129-.001-4.382-.003-4.416-.251-5.136-.323-.938-1.158-1.836-2.104-2.265-.361-.164-.834-.271-1.407-.318-.592-.049-9.992-.044-10.556.005M17.24 15.035a1.114 1.114 0 0 0-.668.585c-.065.145-.074.342-.092 2.05l-.02 1.891-.68-.683c-.374-.376-.752-.722-.84-.77-.224-.12-.655-.12-.883 0-.34.18-.551.521-.551.892 0 .399-.011.385 1.749 2.154 1.757 1.767 1.85 1.845 2.22 1.846.418.001.377.033 2.18-1.757 1.814-1.801 1.839-1.832 1.837-2.243a.993.993 0 0 0-.552-.892c-.224-.12-.657-.12-.88 0-.088.048-.466.394-.84.77l-.68.683-.02-1.891c-.018-1.708-.027-1.905-.092-2.05a1.134 1.134 0 0 0-.485-.508c-.172-.088-.544-.129-.703-.077" fill="#667085" fill-rule="evenodd"/></svg>