<svg width="24" height="24" fill="none" xmlns="http://www.w3.org/2000/svg"><path d="M6.714 1.041c-.831.076-1.381.265-2.014.692-.578.389-1.181 1.16-1.417 1.811-.28.775-.263.214-.263 8.456 0 6.995.004 7.44.072 7.775.333 1.635 1.498 2.8 3.133 3.133.332.067.708.072 5.775.072s5.443-.005 5.775-.072c1.036-.211 1.844-.722 2.449-1.548.352-.481.555-.951.684-1.588.068-.331.072-.793.072-7.752 0-8.207.015-7.706-.261-8.469-.134-.372-.482-.936-.775-1.26-.381-.42-1.109-.892-1.644-1.064-.632-.205-.502-.2-6.06-.209-2.849-.005-5.336.006-5.526.023M16.78 3.04c.352.021.743.066.87.099.552.144 1.067.658 1.21 1.209.121.464.14 1.483.14 7.652 0 6.169-.019 7.188-.14 7.652-.143.552-.687 1.093-1.225 1.222-.447.107-1.255.125-5.635.125s-5.188-.018-5.635-.125c-.538-.129-1.082-.67-1.225-1.222C5.019 19.188 5 18.169 5 12c0-6.169.019-7.188.14-7.652.103-.397.416-.8.811-1.044.242-.15.582-.227 1.164-.262.757-.045 8.924-.047 9.665-.002m-3.7 2.998c-.899.168-1.627.798-1.953 1.689l-.107.293-.011 3.05c-.008 2.009.002 3.103.029 3.204.061.224.251.465.47.593.165.097.235.113.492.113.256 0 .328-.016.489-.111a1.19 1.19 0 0 0 .289-.243c.227-.297.222-.229.222-3.353 0-3.175-.011-3.034.252-3.195a.451.451 0 0 1 .496 0c.263.161.252.018.251 3.21 0 3.153-.005 3.231-.227 3.642-.161.298-.531.677-.801.82-.956.508-2.067.221-2.658-.687-.296-.455-.287-.372-.311-2.984L9.98 9.738l-.102-.199c-.361-.701-1.395-.701-1.756 0l-.102.199-.011 2.31c-.01 2.209-.007 2.328.073 2.72.314 1.541 1.42 2.701 2.977 3.122.44.118 1.377.126 1.821.015 1.569-.392 2.722-1.582 3.039-3.139.082-.401.083-.496.072-3.579L15.98 8.02l-.107-.293c-.285-.779-.875-1.36-1.633-1.605-.291-.095-.877-.137-1.16-.084" fill="#667085" fill-rule="evenodd"/></svg>