<svg width="24" height="24" fill="none" xmlns="http://www.w3.org/2000/svg"><path d="M6.274 1.041c-.674.062-1.045.163-1.554.423A3.967 3.967 0 0 0 2.998 3.22c-.22.449-.335.881-.396 1.494-.058.57-.058 14.002 0 14.572.061.613.176 1.045.396 1.494.53 1.08 1.497 1.837 2.701 2.113.348.079.495.083 4.169.097 2.641.01 3.857.001 3.968-.029.406-.109.724-.532.724-.961 0-.423-.315-.848-.711-.958-.097-.027-1.307-.042-3.469-.042-3.329-.001-4.091-.026-4.499-.144-.443-.128-.876-.51-1.084-.956-.217-.464-.217-.462-.217-7.9 0-7.461-.001-7.432.221-7.912.155-.335.512-.692.847-.847.456-.211.498-.212 5.392-.23 4.568-.017 5.669.005 6.167.123.401.095.837.446 1.089.875.211.361.229.585.258 3.291.026 2.451.027 2.482.114 2.644.103.194.33.402.529.487.346.147.809.038 1.091-.256.277-.289.272-.234.272-2.87-.001-2.426-.021-2.848-.162-3.398-.312-1.217-1.292-2.26-2.499-2.662-.674-.224-.545-.219-6.119-.228-2.838-.004-5.316.007-5.506.024m1.012 5.005a.995.995 0 0 0-.177 1.84l.191.094 4.194.011c2.812.007 4.244-.004 4.348-.032.4-.107.718-.532.718-.959 0-.423-.315-.848-.711-.958-.197-.055-8.373-.051-8.563.004m0 4a.995.995 0 0 0-.177 1.84l.191.094 3.193.011c2.128.007 3.245-.004 3.348-.031.401-.108.719-.533.719-.96 0-.423-.315-.848-.711-.958-.196-.054-6.374-.051-6.563.004m10.277 2.517c-1.074.211-2.021 1.006-2.397 2.011-.259.69.117 1.343.814 1.414.446.046.815-.19 1.028-.658.155-.343.376-.574.678-.709.219-.099.28-.109.573-.093.36.019.575.112.819.356.26.26.408.723.323 1.007-.105.351-.674.802-1.397 1.107-.319.135-.438.208-.558.344a.992.992 0 0 0 .654 1.646c.502.052 1.665-.543 2.386-1.221.389-.365.651-.755.809-1.202.11-.312.122-.391.122-.825-.001-.506-.052-.778-.233-1.226-.162-.4-.35-.677-.704-1.037-.476-.483-.982-.764-1.608-.893-.33-.068-1.011-.079-1.309-.021M7.286 14.046a.995.995 0 0 0-.177 1.84c.186.091.224.094 1.38.106.757.007 1.248-.004 1.349-.031.404-.109.722-.532.722-.961 0-.423-.315-.848-.711-.958-.189-.053-2.379-.049-2.563.004m10.674 5.989a1.056 1.056 0 0 0-.702.707c-.107.369-.001.718.302.991.608.546 1.504.21 1.661-.623.064-.342-.2-.816-.555-.997-.175-.089-.547-.13-.706-.078" fill="#667085" fill-rule="evenodd"/></svg>