<svg width="24" height="24" fill="none" xmlns="http://www.w3.org/2000/svg"><path d="M6.692 1.044c-.835.074-1.498.323-2.126.796-.698.526-1.233 1.341-1.424 2.166-.139.601-.146 1.071-.132 8.314.013 6.494.021 7.17.082 7.467.199.97.73 1.824 1.48 2.384.539.402.985.601 1.656.737.328.067.717.072 5.772.072 5.067 0 5.443-.005 5.775-.072.934-.19 1.713-.646 2.288-1.338.422-.51.668-1.015.83-1.71.082-.354.084-.444.097-5.634.014-5.755.017-5.661-.213-6.226-.224-.552-.361-.829-.531-1.08-.241-.353-4.813-4.925-5.166-5.166-.504-.343-1.302-.65-1.848-.711-.457-.051-5.969-.05-6.54.001m6.062 1.982.246.025v2.086c0 1.742.01 2.125.061 2.325.194.755.794 1.34 1.531 1.494.139.029.926.044 2.284.044h2.073l.025.21c.042.35.029 8.957-.014 9.63-.023.341-.066.715-.097.831-.105.393-.455.821-.872 1.065-.407.238-.352.236-5.611.253-4.838.016-5.573.001-6.051-.126-.531-.141-1.048-.668-1.19-1.213-.119-.455-.138-1.532-.138-7.65 0-6.131.019-7.195.139-7.654.103-.394.412-.789.819-1.046.232-.146.577-.223 1.156-.258.629-.038 5.304-.051 5.639-.016m3.56 3.965c-.685.005-1.257-.001-1.27-.014-.013-.013-.029-.594-.035-1.29l-.011-1.267 1.281 1.28 1.282 1.28-1.247.011" fill="#667085" fill-rule="evenodd"/></svg>