<svg width="24" height="24" fill="none" xmlns="http://www.w3.org/2000/svg"><path d="M6.9 1.026c-.973.077-1.532.256-2.2.707-.578.389-1.181 1.16-1.417 1.811-.28.775-.263.214-.263 8.456 0 6.982.004 7.441.072 7.773.108.531.284.971.553 1.389.595.92 1.488 1.523 2.582 1.746.329.067.715.072 5.773.072s5.444-.005 5.773-.072a3.927 3.927 0 0 0 1.389-.553c.92-.595 1.523-1.488 1.746-2.582.067-.33.072-.731.072-6.193V7.74l-.089-.18c-.064-.13-.954-1.043-3.22-3.305-2.855-2.85-3.148-3.131-3.328-3.19-.177-.058-.566-.064-3.74-.058-1.949.003-3.615.012-3.703.019M13 5.573c0 2.904-.008 2.821.299 3.128.307.307.224.299 3.128.299H19v4.59c0 4.58-.024 5.619-.139 6.061-.142.544-.638 1.05-1.181 1.206-.432.123-1.173.142-5.68.142s-5.248-.019-5.68-.142c-.543-.156-1.039-.662-1.181-1.206C5.019 19.189 5 18.163 5 12c0-6.169.019-7.188.14-7.652.145-.56.658-1.067 1.224-1.212.396-.101 1.074-.124 3.926-.13L13 3v2.573m3.3.147L17.58 7H15V5.72c0-.704.005-1.28.01-1.28.006 0 .586.576 1.29 1.28m-4.96 3.864a3.558 3.558 0 0 0-.58.225c-.441.217-.949.709-1.167 1.131-.262.507-.32.761-.343 1.506l-.02.666-.265.028a1.486 1.486 0 0 0-.408.101c-.44.225-.81.674-.967 1.174-.086.271-.09.35-.09 1.585 0 1.23.005 1.315.088 1.58.213.674.747 1.18 1.434 1.359.351.091 5.605.091 5.956 0a2.027 2.027 0 0 0 1.434-1.359c.083-.265.088-.35.088-1.58s-.005-1.315-.088-1.58c-.221-.7-.779-1.22-1.372-1.28l-.27-.027-.02-.667c-.023-.745-.08-.999-.343-1.506-.218-.422-.726-.914-1.167-1.13a3.464 3.464 0 0 0-.6-.228c-.324-.076-.98-.075-1.3.002m1.022 2.017a.828.828 0 0 1 .264.241c.097.147.108.204.126.659l.019.499h-1.542l.019-.499c.018-.455.029-.512.126-.659.204-.308.645-.416.988-.241m2.055 3.423c.055.022.063.147.063 1V17H9.52v-.977c0-.744.012-.981.05-.997.072-.029 4.771-.031 4.847-.002" fill="#667085" fill-rule="evenodd"/></svg>