<svg width="24" height="24" fill="none" xmlns="http://www.w3.org/2000/svg"><path d="M6.9 1.025c-.995.084-1.531.257-2.2.708-.578.389-1.181 1.16-1.417 1.811-.28.775-.263.214-.263 8.456 0 6.982.004 7.441.072 7.773.108.531.284.971.553 1.389.595.92 1.488 1.523 2.582 1.746.329.067.715.072 5.773.072s5.444-.005 5.773-.072c1.094-.223 1.987-.826 2.582-1.746.269-.418.445-.858.553-1.389.068-.332.072-.791.072-7.773 0-6.982-.004-7.441-.072-7.773-.289-1.42-1.291-2.57-2.618-3.005-.602-.197-.52-.194-6.05-.202a553.708 553.708 0 0 0-5.34.005m9.901 2.015c.341.022.723.066.85.099.553.144 1.065.656 1.209 1.209.121.464.14 1.483.14 7.652 0 6.163-.019 7.189-.139 7.651-.142.544-.638 1.05-1.181 1.206-.432.123-1.173.142-5.68.142s-5.248-.019-5.68-.142c-.543-.156-1.039-.662-1.181-1.206C5.019 19.189 5 18.163 5 12c0-6.169.019-7.188.14-7.652.103-.397.416-.8.811-1.044.239-.148.575-.225 1.142-.261.73-.047 8.984-.049 9.708-.003" fill="#667085" fill-rule="evenodd"/></svg>