<svg width="24" height="24" fill="none" xmlns="http://www.w3.org/2000/svg"><path d="M6.17 1.044c-.477.042-.978.162-1.314.315-.947.429-1.781 1.327-2.104 2.265-.254.736-.243.406-.26 7.856-.017 6.884-.003 7.777.129 8.423.282 1.373 1.44 2.586 2.799 2.931.566.144 1.056.166 3.714.166l2.566-.001.2-.093a.994.994 0 0 0 .043-1.799c-.161-.086-.189-.087-2.883-.112-3.267-.03-3.258-.029-3.803-.436a2.111 2.111 0 0 1-.39-.425c-.352-.516-.327.118-.327-8.134s-.025-7.618.327-8.134c.322-.472.707-.705 1.313-.793.517-.076 10.11-.077 10.64-.002.613.088 1.102.404 1.394.903.24.408.237.373.263 4.486.026 4.18.007 3.911.295 4.215a.99.99 0 0 0 1.473-.023c.268-.297.255-.093.254-4.172-.002-4.08-.005-4.142-.255-4.867-.32-.929-1.156-1.826-2.1-2.254-.354-.161-.822-.268-1.384-.318-.553-.049-10.039-.046-10.59.003m1.07 4.993a1.046 1.046 0 0 0-.488.315c-.445.493-.272 1.265.348 1.554l.2.093h8.4l.2-.093a.994.994 0 0 0 .043-1.799l-.163-.087-4.22-.007c-2.321-.004-4.265.007-4.32.024m0 4a1.046 1.046 0 0 0-.488.315c-.445.493-.272 1.265.348 1.554l.2.093h6.4l.2-.093a.994.994 0 0 0 .043-1.799l-.163-.087-3.22-.007c-1.771-.004-3.265.007-3.32.024m0 3.999c-.195.062-.348.16-.488.316-.445.493-.272 1.265.348 1.554.196.091.227.093 1.4.093 1.173 0 1.204-.002 1.4-.093a.994.994 0 0 0 .043-1.799c-.156-.083-.214-.087-1.383-.095-.671-.004-1.265.007-1.32.024m8 .999c-.452.148-.731.515-.732.965-.002.387.076.493 1.108 1.52.519.517.944.958.944.98 0 .022-.425.463-.944.98-.677.673-.968.991-1.027 1.12a1.077 1.077 0 0 0-.013.78c.149.351.55.62.924.619.368-.001.486-.088 1.53-1.13l.97-.968.97.968c1.044 1.042 1.162 1.129 1.53 1.13.374.001.775-.268.924-.619a1.077 1.077 0 0 0-.013-.78c-.059-.129-.35-.447-1.027-1.12-.519-.517-.944-.958-.944-.98 0-.022.425-.463.944-.98 1.032-1.027 1.11-1.133 1.108-1.52a.993.993 0 0 0-.552-.892c-.211-.113-.656-.119-.86-.013-.077.04-.577.507-1.11 1.039l-.97.965-.97-.965c-.533-.532-1.031-.997-1.106-1.034-.156-.078-.535-.114-.684-.065" fill="#667085" fill-rule="evenodd"/></svg>