<svg width="24" height="24" fill="none" xmlns="http://www.w3.org/2000/svg"><path d="M6.9 1.026c-.973.077-1.532.256-2.2.707-.578.389-1.181 1.16-1.417 1.811-.28.775-.263.214-.263 8.456 0 6.982.004 7.441.072 7.773.108.531.284.971.553 1.389.595.92 1.488 1.523 2.582 1.746.329.067.715.072 5.773.072s5.444-.005 5.773-.072c1.084-.221 1.98-.822 2.568-1.725.266-.408.433-.807.552-1.323.082-.354.084-.45.097-6.175.012-5.31.007-5.834-.053-6.02-.061-.191-.279-.418-3.231-3.37-2.892-2.892-3.183-3.171-3.363-3.23-.176-.058-.571-.064-3.74-.058-1.949.003-3.615.012-3.703.019M13 5.112c0 1.765.01 2.15.061 2.35.194.755.794 1.34 1.531 1.494.139.029.933.044 2.31.044H19v4.59c0 4.58-.024 5.619-.139 6.061-.142.544-.638 1.05-1.181 1.206-.432.123-1.173.142-5.68.142s-5.248-.019-5.68-.142c-.543-.156-1.039-.662-1.181-1.206C5.019 19.189 5 18.163 5 12c0-6.169.019-7.188.14-7.652.145-.56.658-1.067 1.224-1.212.396-.101 1.074-.124 3.926-.13L13 3v2.112m3.313 1.879c-.971.008-1.255-.001-1.28-.04-.017-.028-.032-.609-.032-1.291L15 4.42l1.28 1.28 1.281 1.28-1.248.011m-4.67 4.078a1.066 1.066 0 0 0-.577.591c-.055.162-.066.373-.066 1.267V14H9.927c-1.235 0-1.35.021-1.628.299a.984.984 0 0 0 0 1.402c.278.278.393.299 1.628.299H11v1.073c0 .894.011 1.105.066 1.267.126.369.538.66.934.66s.808-.291.934-.66c.055-.162.066-.373.066-1.267V16h1.073c1.235 0 1.35-.021 1.628-.299a.984.984 0 0 0 0-1.402c-.278-.278-.393-.299-1.628-.299H13v-1.073c0-1.235-.021-1.35-.299-1.628a.998.998 0 0 0-1.058-.23" fill="#667085" fill-rule="evenodd"/></svg>