<svg width="24" height="24" fill="none" xmlns="http://www.w3.org/2000/svg"><path d="M4.72 1.044a5.85 5.85 0 0 0-.803.13C2.558 1.52 1.42 2.697 1.144 4.043 1.015 4.672 1 5.405 1 11s.015 6.328.144 6.957c.259 1.26 1.306 2.412 2.567 2.821.585.191.642.194 4.099.211l3.27.016v.23c0 .719.493 1.36 1.276 1.659.221.084.27.085 3.324.098 3.332.015 3.804-.004 4.438-.174a3.92 3.92 0 0 0 2.22-1.63c.319-.491.459-.87.587-1.588.064-.363.097-11.673.037-12.6-.069-1.053-.212-1.556-.62-2.18a3.513 3.513 0 0 0-.911-.982c-.656-.494-1.288-.722-2.218-.797C18.931 3.018 17.434 3 15.814 3H12.92v-.233c0-.631-.388-1.218-1.014-1.534-.456-.23-.484-.232-3.766-.227-1.65.003-3.189.02-3.42.038m6.241 2.036c.021.033.038.474.038.99L11 5H8V2.997l1.461.012c1.248.009 1.468.02 1.5.071M6 4.04V5H3.148l.027-.445c.026-.422.034-.455.17-.66.183-.276.458-.52.726-.644.228-.106.666-.154 1.499-.165L6 3.08v.96M16 6v1h-3V5h3v1m3.668-.835c.358.066.729.341.989.733.134.201.142.236.168.657l.027.445H18V5.068l.722.028c.398.015.823.046.946.069M11 11v4H3V7h8v4m10 2v4h-8V9h8v4M6 17.96v.96h-.45c-.676 0-1.3-.069-1.499-.165-.232-.111-.557-.412-.717-.661-.122-.192-.134-.24-.159-.651L3.148 17H6v.96m5 .04v1H8v-2h3v1m5 2v1h-2.951l-.024-.09c-.013-.049-.024-.5-.024-1L13 19h3v1m4.825-.555c-.026.422-.034.455-.17.659-.172.261-.46.525-.7.644-.207.104-.806.172-1.505.172H18V19h2.852l-.027.445" fill="#667085" fill-rule="evenodd"/></svg>