<svg width="24" height="24" fill="none" xmlns="http://www.w3.org/2000/svg"><path d="M4.692 1.043c-.838.076-1.499.324-2.126.797-.698.526-1.233 1.341-1.424 2.166-.139.601-.146 1.071-.132 8.314.013 6.494.021 7.17.082 7.467.199.97.73 1.824 1.48 2.384.539.402.985.601 1.656.737.331.068.794.072 7.772.072 6.995 0 7.44-.004 7.775-.072 1.635-.333 2.8-1.498 3.133-3.133.068-.335.072-.78.072-7.775 0-8.242.017-7.681-.263-8.456-.371-1.024-1.365-1.978-2.417-2.317-.649-.21-.311-.201-8.06-.21-3.949-.004-7.345.008-7.548.026M16 7v4H8V3h8v4M6 4.54V6H3.068l.026-.716c.041-1.069.088-1.242.45-1.643.18-.2.515-.422.696-.462.198-.045.782-.086 1.31-.093L6 3.08v1.46m13.238-1.419c.651.05.791.108 1.162.479.366.366.433.522.48 1.126.021.272.039.669.039.884l.001.39H18V3.08h.35c.193 0 .592.019.888.041M6 9.5V11H3V8h3v1.5m15 0V11h-3V8h3v1.5m-15 5V16H3v-3h3v1.5M16 17v4H8v-8h8v4m5-2.5V16h-3v-3h3v1.5M6 19.47v1.47l-.75-.027c-.86-.031-1.075-.07-1.34-.239-.238-.153-.543-.486-.659-.719-.095-.193-.171-.899-.171-1.605V18H6v1.47m14.919-1.08c-.002.713-.07 1.366-.163 1.558-.11.227-.427.572-.666.726-.265.169-.48.208-1.34.239l-.75.027V18h2.92l-.001.39" fill="#667085" fill-rule="evenodd"/></svg>