<svg width="24" height="24" fill="none" xmlns="http://www.w3.org/2000/svg"><path d="M2.534 2.177A2.053 2.053 0 0 0 1.04 3.74c-.03.157-.042.605-.033 1.3.013 1.047.014 1.063.121 1.316.059.14.167.344.24.452.092.137 1.193 1.117 3.621 3.222l3.489 3.026.011 3.822L8.5 20.7l.124.262c.15.316.315.511.567.671a1.51 1.51 0 0 0 1.337.152c.139-.053 1.15-.457 2.247-.898 1.628-.655 2.03-.832 2.18-.958.192-.161.411-.484.495-.728.035-.104.051-.937.06-3.144l.012-3.002 3.489-3.025c2.429-2.105 3.529-3.085 3.621-3.222.073-.108.181-.312.24-.452.107-.254.108-.266.121-1.344.014-1.188-.008-1.371-.221-1.812-.229-.475-.818-.922-1.364-1.036-.324-.067-18.593-.055-18.874.013m18.442 2.006c.013.035.024.382.024.77v.707l-3.497 3.031c-3.776 3.272-3.722 3.22-3.912 3.783-.089.263-.09.296-.11 3.124l-.021 2.858-1.469.588-1.468.587-.012-3.445-.012-3.446-.09-.266c-.191-.564-.137-.511-3.912-3.783L3 5.66v-.707c0-.388.011-.735.024-.77.022-.057.85-.063 8.976-.063 8.126 0 8.954.006 8.976.063" fill="#667085" fill-rule="evenodd"/></svg>