<svg width="24" height="24" fill="none" xmlns="http://www.w3.org/2000/svg"><path d="M2.643 5.069C2.291 5.193 2 5.614 2 6c0 .242.119.521.299.701C2.625 7.027 1.736 7 12 7c10.264 0 9.375.027 9.701-.299a.984.984 0 0 0 0-1.402c-.326-.327.567-.299-9.718-.296-8.192.003-9.182.01-9.34.066m3 6C5.291 11.193 5 11.614 5 12c0 .242.119.521.299.701.322.322-.202.299 6.701.299s6.379.023 6.701-.299a.984.984 0 0 0 0-1.402c-.323-.323.205-.299-6.718-.296-5.475.003-6.183.01-6.34.066m3 6C8.291 17.193 8 17.614 8 18c0 .242.119.521.299.701.311.312.157.299 3.701.299s3.39.013 3.701-.299a.984.984 0 0 0 0-1.402c-.312-.312-.154-.299-3.718-.296-2.757.003-3.186.011-3.34.066" fill="#667085" fill-rule="evenodd"/></svg>