<svg width="24" height="24" fill="none" xmlns="http://www.w3.org/2000/svg"><path d="M3.06 2.164c-.567.059-.947.241-1.307.626a1.9 1.9 0 0 0-.502 1.43c.023.369.095.575.33.943.227.355.43.587 3.892 4.453l3.005 3.357.011 3.863L8.5 20.7l.124.262c.068.144.181.327.251.406.395.45 1.107.631 1.651.42a741.67 741.67 0 0 0 2.254-.904c1.986-.798 2.033-.82 2.239-1.021.116-.113.249-.281.296-.373.204-.4.205-.414.205-3.571v-2.944l3.166-3.537c1.741-1.946 3.29-3.691 3.442-3.878.152-.187.349-.486.438-.665.14-.281.165-.371.182-.66.034-.557-.14-1.059-.501-1.445-.375-.401-.726-.562-1.368-.628-.494-.051-17.331-.049-17.819.002m17.55 1.99c.091.035.183-.071-3.607 4.163-1.682 1.88-3.118 3.506-3.19 3.613a2.398 2.398 0 0 0-.222.463c-.089.265-.09.293-.11 3.165l-.021 2.898-1.468.587-1.469.588-.012-3.485-.012-3.486-.09-.267a2.398 2.398 0 0 0-.222-.463c-.072-.107-1.508-1.733-3.19-3.613-3.79-4.234-3.698-4.128-3.607-4.163.092-.037 17.128-.037 17.22 0" fill="#667085" fill-rule="evenodd"/></svg>