<svg width="24" height="24" fill="none" xmlns="http://www.w3.org/2000/svg"><path d="M11.78 2.105c-.868.091-1.791.299-2.46.553-.563.214-1.341.615-1.506.776a.994.994 0 0 0 .42 1.672c.307.089.463.052 1.106-.263 1.13-.554 1.926-.74 3.16-.74 1.206 0 2.144.216 3.165.729 1.741.876 3.108 2.558 3.592 4.42.201.773.235 1.177.21 2.448a23.38 23.38 0 0 1-.75 5.578c-.207.819-.227.99-.148 1.257.065.22.396.551.616.616.405.12.846-.002 1.096-.305.163-.196.395-1.011.674-2.366.498-2.416.681-5.372.425-6.86-.393-2.28-1.632-4.333-3.439-5.697a9.153 9.153 0 0 0-4.121-1.745c-.389-.059-1.718-.107-2.04-.073M5.286 6.123a1.09 1.09 0 0 0-.539.394c-.276.416-.704 1.4-.885 2.029-.244.853-.324 1.418-.38 2.694-.064 1.463-.256 2.333-.783 3.54-.216.495-.245.746-.12 1.05.087.211.4.499.612.562.549.165 1.01-.084 1.294-.698.228-.494.408-.98.569-1.534.285-.983.372-1.562.447-2.967.083-1.563.215-2.13.762-3.273.259-.541.297-.648.296-.84a.997.997 0 0 0-.536-.888c-.183-.094-.544-.128-.737-.069m6.561 0c-1.836.238-3.423 1.53-4.061 3.308-.19.529-.267 1.029-.306 2.004-.101 2.514-.622 4.264-1.941 6.52-.167.287-.198.373-.212.592-.022.346.064.561.312.784.325.293.737.353 1.117.164.254-.127.365-.271.8-1.035a14.852 14.852 0 0 0 1.741-4.94c.103-.607.152-1.145.22-2.38.058-1.071.251-1.547.883-2.181.377-.379.744-.598 1.28-.765.249-.077.388-.093.82-.093.432 0 .571.016.82.093.536.167.903.386 1.28.765.383.384.591.712.751 1.181.108.317.109.329.107 1.38-.001.782-.022 1.238-.079 1.74-.088.768-.091.942-.02 1.158.064.194.288.443.498.554.228.12.658.12.887-.001.191-.101.393-.318.472-.509.127-.302.264-1.865.272-3.082.006-.919-.053-1.334-.274-1.949-.803-2.237-3.033-3.611-5.367-3.308m.393 3.992a1.11 1.11 0 0 0-.468.292c-.23.24-.261.371-.296 1.273-.05 1.313-.2 2.383-.498 3.574a17.225 17.225 0 0 1-1.763 4.329c-.417.714-.455.803-.454 1.073a.906.906 0 0 0 .304.712.996.996 0 0 0 1.126.169c.251-.125.353-.251.728-.897 1.622-2.794 2.524-6.002 2.57-9.14.007-.54-.002-.665-.062-.8a1.132 1.132 0 0 0-.484-.508c-.172-.088-.544-.129-.703-.077m3.16 6.002c-.27.082-.494.267-.61.503a6.936 6.936 0 0 0-.207.6 21.977 21.977 0 0 1-1.154 2.957c-.207.442-.242.549-.241.74a.927.927 0 0 0 .332.736c.397.356.912.36 1.31.01.151-.133.236-.268.456-.729.46-.965 1.04-2.499 1.316-3.481.133-.473.058-.797-.252-1.098a1.024 1.024 0 0 0-.95-.238" fill="#667085" fill-rule="evenodd"/></svg>