<svg width="24" height="24" fill="none" xmlns="http://www.w3.org/2000/svg"><path d="M11.029 1.202a11.175 11.175 0 0 0-4.331 1.321c-.563.312-.778.593-.778 1.017 0 .267.088.47.299.687.232.238.547.359.818.314.085-.015.466-.184.848-.376.433-.218.906-.42 1.255-.536 2.854-.945 5.905-.439 8.333 1.381.495.371 1.306 1.181 1.671 1.67 1.166 1.56 1.763 3.243 1.842 5.194.028.681.09.88.343 1.11a.893.893 0 0 0 .674.261.888.888 0 0 0 .652-.246c.294-.258.326-.37.321-1.139-.017-2.794-1.252-5.59-3.368-7.624a11 11 0 0 0-8.579-3.034M11.24 5.2c-3.644.422-6.356 3.55-6.227 7.18.011.33.05.762.085.96.087.493.285 1.16.414 1.4.194.359.634.57 1.034.495.562-.105.941-.665.798-1.181l-.159-.574c-.376-1.352-.14-2.883.623-4.044a5.008 5.008 0 0 1 5.733-2.034c.605.194.91.15 1.24-.181.379-.378.406-.895.072-1.334-.179-.235-.83-.481-1.653-.624-.446-.078-1.531-.113-1.96-.063m-8.12.915c-.363.119-.54.313-.872.956-.582 1.128-.948 2.272-1.155 3.609-.11.706-.099 2.302.021 3.074.66 4.262 3.636 7.699 7.741 8.944.694.21.96.184 1.306-.127a.962.962 0 0 0 .075-1.391c-.177-.192-.247-.224-1.036-.478A8.928 8.928 0 0 1 3.921 16.1c-.636-1.306-.896-2.442-.898-3.92-.002-1.579.259-2.673.985-4.136.331-.666.365-.757.364-.96a.986.986 0 0 0-.549-.892c-.172-.088-.544-.129-.703-.077m14.099 3.04c-.088.04-.222.134-.296.208-.296.297-.354.671-.185 1.201.187.585.24.937.24 1.596 0 .666-.057 1.04-.243 1.6-.41 1.231-1.388 2.341-2.555 2.901a5.057 5.057 0 0 1-3.64.274c-.497-.152-.755-.165-1.017-.053-.649.28-.794 1.131-.277 1.626.325.309 1.415.591 2.474.639 2.413.108 4.727-1.078 6.101-3.127a6.826 6.826 0 0 0 1.167-4.12c-.036-.955-.318-2.142-.587-2.466-.267-.323-.806-.45-1.182-.279m-5.549.06a1.054 1.054 0 0 0-.539.456l-.111.189-.011 2.216c-.013 2.514-.017 2.478.289 2.784a.984.984 0 0 0 1.403.001c.303-.303.299-.271.297-2.718-.002-2.329-.001-2.322-.215-2.602-.237-.311-.751-.462-1.113-.326m8.712 6.925c-.301.107-.365.177-.862.94a8.984 8.984 0 0 1-4.997 3.717c-.494.147-.592.197-.771.395-.364.403-.326 1.008.087 1.379.337.303.608.335 1.246.146a11.086 11.086 0 0 0 6.039-4.429c.502-.748.569-.891.573-1.208a.767.767 0 0 0-.116-.474.99.99 0 0 0-1.199-.466" fill="#667085" fill-rule="evenodd"/></svg>