<svg width="24" height="24" fill="none" xmlns="http://www.w3.org/2000/svg"><path d="M11.053 1.04A12.519 12.519 0 0 0 4.24 3.758c-.545.439-1.526 1.42-1.645 1.645-.127.242-.13.666-.007.9a1 1 0 0 0 1.291.454c.121-.055.35-.255.7-.614A9.965 9.965 0 0 1 7.38 4.098a10.272 10.272 0 0 1 6.423-.939c.99.172 1.818.446 2.777.92 1.097.541 1.936 1.153 2.861 2.087.582.587.717.674 1.049.674.406 0 .741-.194.92-.534.125-.236.123-.66-.004-.9-.121-.229-1.11-1.216-1.666-1.661a12.493 12.493 0 0 0-6.24-2.646c-.579-.075-1.886-.107-2.447-.059m-.193 3.084a10.193 10.193 0 0 0-8.92 8.724c-.172 1.209-.094 2.909.205 4.449.11.567.18.738.381.931.185.177.388.252.68.252.454 0 .81-.268.938-.707.065-.225.064-.244-.04-.812a13.361 13.361 0 0 1-.25-2.281c-.029-.873.016-1.451.167-2.179.502-2.421 2.158-4.538 4.399-5.622 1.175-.569 2.255-.814 3.58-.814 1.327 0 2.403.245 3.588.817 2.514 1.215 4.22 3.66 4.532 6.498.124 1.129-.033 1.766-.565 2.299-.967.967-2.656.707-3.267-.503-.171-.339-.206-.492-.247-1.08-.044-.638-.151-1.079-.379-1.561a4.052 4.052 0 0 0-2.685-2.241c-.341-.09-.479-.105-.977-.105-.495 0-.637.015-.968.103a4.11 4.11 0 0 0-2.873 2.649c-.35 1.018-.225 2.862.302 4.444.541 1.622 1.382 2.954 2.626 4.157.494.478 1.354 1.145 1.711 1.326.683.346 1.444-.109 1.447-.865.002-.431-.135-.63-.694-1.007-2.226-1.505-3.591-4.019-3.591-6.613 0-.42.017-.59.079-.792.313-1.01 1.388-1.617 2.431-1.371.512.121.951.422 1.232.846.24.362.297.563.36 1.271.031.354.094.778.14.943a4.107 4.107 0 0 0 2.785 2.821c.897.26 1.753.213 2.649-.145.9-.359 1.753-1.184 2.165-2.097.3-.662.404-1.428.323-2.387-.167-1.988-.845-3.797-2.001-5.332-1.709-2.27-4.182-3.681-7.042-4.02-.4-.047-1.821-.045-2.221.004m.1 3.059A7.178 7.178 0 0 0 5.622 11.1c-.657 1.342-.86 2.731-.66 4.527.238 2.135.98 4.172 2.164 5.94.334.5.577.656 1.004.646.594-.014 1.068-.605.945-1.179a1.491 1.491 0 0 0-.167-.389c-.689-1.101-.872-1.441-1.191-2.216a10.716 10.716 0 0 1-.806-4.089c-.002-.592.013-.793.084-1.129.427-2.023 1.885-3.509 3.905-3.982.293-.069.494-.085 1.08-.086.752-.003.922.02 1.54.204 1.341.399 2.496 1.409 3.102 2.713.282.605.403 1.1.459 1.878.054.744.2 1.011.661 1.206.544.231 1.215-.132 1.338-.723.034-.164.035-.353.003-.724-.277-3.234-2.577-5.82-5.748-6.46-.572-.115-1.806-.143-2.375-.054m.685 6.112a1.155 1.155 0 0 0-.536.478c-.08.151-.088.218-.083.687.03 2.408 1.488 4.791 3.653 5.972a6.893 6.893 0 0 0 3.181.875c.765.031.986-.022 1.266-.301a.979.979 0 0 0-.37-1.628c-.111-.039-.328-.058-.654-.058-1.399 0-2.613-.504-3.606-1.496a4.804 4.804 0 0 1-.966-1.324c-.306-.611-.529-1.496-.53-2.103 0-.402-.094-.664-.314-.878a1.057 1.057 0 0 0-.351-.23 1.29 1.29 0 0 0-.69.006" fill="#667085" fill-rule="evenodd"/></svg>