<svg width="24" height="24" fill="none" xmlns="http://www.w3.org/2000/svg"><path d="M11.162 1.202A9.196 9.196 0 0 0 7.12 2.603c-.385.246-.53.405-.621.679-.197.593.19 1.189.841 1.295.225.037.468-.048.889-.308.699-.433 1.333-.708 2.031-.883a7.054 7.054 0 0 1 5.82 1.085c.487.345 1.264 1.122 1.609 1.609.35.495.752 1.278.931 1.811.287.857.38 1.551.38 2.826 0 .966.033 1.118.299 1.384a.984.984 0 0 0 1.402 0c.27-.27.299-.41.299-1.464 0-1.334-.097-2.108-.382-3.057-1.001-3.328-3.856-5.794-7.318-6.321-.496-.076-1.633-.106-2.138-.057m.033 3.521c-2.036.299-3.756 1.753-4.415 3.731-.262.786-.277.954-.279 3.026L6.5 13.34l.092.187c.125.254.358.455.613.531.259.077.329.077.579.003.254-.075.503-.288.622-.531.094-.189.094-.197.114-2.13l.021-1.94.131-.38c.184-.532.416-.919.784-1.308.695-.737 1.528-1.092 2.561-1.092.584 0 1.045.114 1.643.405.385.188.47.215.68.214a.985.985 0 0 0 .978-.974c.005-.487-.207-.745-.89-1.082-.811-.401-1.543-.566-2.468-.558-.297.003-.641.02-.765.038M4.18 6.636c-.395.102-.614.347-.779.872-.156.495-.305 1.23-.359 1.766-.055.547-.055 5.225 0 5.772a9.053 9.053 0 0 0 4.038 6.645c.908.6 2.312 1.182 2.744 1.137.263-.027.484-.14.666-.343.133-.147.27-.474.27-.645 0-.171-.137-.498-.269-.645-.176-.194-.259-.239-.783-.42a7.035 7.035 0 0 1-4.553-5.168c-.133-.638-.153-1.077-.154-3.433-.001-2.713.03-3.138.301-4.04.159-.529.121-.88-.129-1.171-.225-.263-.672-.411-.993-.327m7.487 2.589c-.252.077-.512.335-.601.595-.058.172-.066.446-.064 2.357.001 1.702.013 2.195.055 2.313.079.221.241.414.454.539.161.095.233.111.489.111s.328-.016.489-.111a1.19 1.19 0 0 0 .289-.243c.222-.29.222-.296.222-2.624 0-2.434.004-2.4-.303-2.707-.269-.27-.635-.351-1.03-.23m4.573 1.01a1.111 1.111 0 0 0-.668.585c-.065.145-.074.346-.092 2.1l-.021 1.94-.131.38c-.208.599-.412.924-.868 1.38-.22.22-.502.46-.627.533-.46.27-1.006.443-1.593.506-.542.059-1.368-.132-1.983-.458-.268-.142-.335-.161-.57-.16-.338.001-.539.09-.753.333a.967.967 0 0 0 .104 1.395c.352.301 1.322.688 2.042.814.507.089 1.348.089 1.84.001a5.56 5.56 0 0 0 4.3-3.718c.26-.78.276-.957.278-3.006.002-1.46-.009-1.872-.053-1.995-.07-.199-.295-.448-.499-.552-.175-.089-.547-.13-.706-.078m3.16 5.28c-.386.126-.582.347-.755.846-.699 2.024-2.121 3.508-4.172 4.357-.799.331-.99 1.157-.393 1.695.44.395.832.353 1.958-.212a9.093 9.093 0 0 0 4.522-5.257c.2-.609.034-1.099-.457-1.352-.172-.088-.544-.129-.703-.077" fill="#667085" fill-rule="evenodd"/></svg>