<svg width="24" height="24" fill="none" xmlns="http://www.w3.org/2000/svg"><path d="M4.357 2.039c-.371.037-.545.09-.859.263-.44.242-.751.652-.896 1.18-.083.303-.083.314-.072 9.1l.01 8.798.091.17c.118.22.33.357.629.404.505.079.934-.077 1.109-.404l.091-.17.011-3.69.011-3.69h3.394c1.867 0 3.45-.011 3.519-.025.112-.022.125-.015.126.07.001.191.121.659.222.864.227.464.711.849 1.258 1 .239.065.513.071 3.499.071 3.567 0 3.476.006 3.956-.25.275-.147.66-.54.795-.811.23-.464.228-.405.228-4.919 0-4.496.002-4.453-.222-4.909-.222-.455-.701-.841-1.237-.997-.217-.063-.54-.071-3.382-.084l-3.142-.015-.064-.339a2.72 2.72 0 0 0-.171-.558c-.226-.462-.701-.846-1.241-1.004-.22-.064-.541-.071-3.8-.078-1.958-.004-3.696.006-3.863.023M11.52 8v4H4.48V4h7.04v4m8 2v4h-6.04V6h6.04v4" fill-rule="evenodd" fill="#000"/></svg>