<svg width="24" height="24" fill="none" xmlns="http://www.w3.org/2000/svg"><path d="M3.643 1.069a1.066 1.066 0 0 0-.577.591C3.005 1.839 3 2.661 3 12c0 11.385-.028 10.374.299 10.701.479.479 1.291.35 1.587-.251l.094-.19L5 18.9l.02-3.36.19-.091c.556-.265 1.533-.422 2.65-.425.679-.002.869.011 1.255.089.678.136 1.256.324 2.48.804C13.77 16.771 14.721 17 16.088 17c1.641-.001 3.164-.344 4.111-.926.185-.115.412-.283.503-.374.32-.32.298.141.298-6.2 0-6.343.022-5.88-.299-6.201-.384-.384-.911-.393-1.398-.024-.533.403-1.603.667-2.886.713-1.33.046-1.968-.102-4.225-.983-2.08-.811-2.797-.978-4.232-.981-.8-.002-1.208.033-1.84.161-.26.053-.921.229-1.07.285-.037.014-.05-.061-.05-.299 0-.41-.085-.658-.299-.872a.998.998 0 0 0-1.058-.23M9.137 4.12c.652.128 1.235.317 2.458.797 1.758.69 2.608.935 3.625 1.046.595.064 1.703.026 2.32-.081.396-.068 1.18-.263 1.405-.35.047-.017.054.674.045 4.454l-.01 4.474-.18.087c-.473.23-1.412.404-2.362.439-1.349.05-1.977-.095-4.246-.981-2.08-.811-2.797-.978-4.232-.981-.8-.002-1.208.033-1.84.161-.26.053-.921.229-1.07.285-.04.015-.048-.881-.04-4.456l.01-4.474.199-.095c.28-.134 1.005-.308 1.501-.361l.56-.061c.367-.041 1.438.014 1.857.097" fill="#667085" fill-rule="evenodd"/></svg>