<svg width="24" height="24" fill="none" xmlns="http://www.w3.org/2000/svg"><path d="M3.662 1.043a2.29 2.29 0 0 0-.494.179c-.867.429-1.329 1.453-1.11 2.458.239 1.092 4.355 18.538 4.406 18.674a.972.972 0 0 0 1.184.599c.206-.062.485-.311.586-.523.179-.378.224-.136-1.013-5.41l-1.167-4.97-.023-.09h3.962l.017 1.33c.017 1.46.026 1.519.284 2.01.153.291.534.681.81.829.438.235.255.227 5.178.233l4.518.006.25-.119c.463-.22.762-.58.888-1.067.133-.513.063-.891-.278-1.502-.21-.375-1.46-2.756-1.46-2.78 0-.025 1.335-2.571 1.5-2.861.297-.52.366-.928.24-1.412-.13-.498-.395-.831-.838-1.05l-.293-.145-2.866.006-2.866.005.006-1.291c.008-1.424-.001-1.498-.234-1.992-.269-.569-.862-1.021-1.471-1.121-.292-.047-9.429-.044-9.716.004M13.1 6.48v3.34l-3.782.01-3.783.01-.727-3.11c-.728-3.115-.817-3.523-.782-3.58.01-.017 2.056-.026 4.546-.02l4.528.01v3.34m6.58 1.063c0 .013-.316.628-.703 1.367-.43.824-.726 1.437-.764 1.587-.075.292-.053.721.05.978.038.096.364.739.724 1.428.359.688.664 1.28.678 1.314.021.057-.339.063-3.696.063-2.045 0-3.775-.011-3.844-.025L12 14.23v-2.27l.59-.001c.351 0 .697-.023.855-.057.733-.155 1.295-.679 1.539-1.436l.105-.326-.006-1.31-.006-1.31h2.302c1.265 0 2.301.01 2.301.023" fill="#667085" fill-rule="evenodd"/></svg>