<svg width="24" height="24" fill="none" xmlns="http://www.w3.org/2000/svg"><path d="M11.42 2.037c-7.293.022-7.768.027-7.888.093a1.424 1.424 0 0 0-.268.214c-.286.295-.266-.494-.254 9.737l.01 9.219.086.16c.315.583 1.045.713 1.509.268.325-.311.303-.016.304-4.099l.001-3.631 7.478.003c7.32.004 7.482.003 7.65-.073.428-.194.737-.534.872-.962.148-.471.09-.898-.184-1.346-.08-.132-.56-.951-1.065-1.82l-.979-1.683c-.059-.1-.038-.141.939-1.82.55-.944 1.063-1.821 1.141-1.949.178-.293.244-.564.218-.902a1.552 1.552 0 0 0-.835-1.285c-.224-.12-.284-.134-.612-.14-.2-.003-3.855.004-8.123.016m7.211 2.093c-.245.382-1.863 3.212-1.926 3.37-.098.248-.105.759-.013 1.007.034.092.489.902 1.01 1.8l.965 1.663c.01.017-3.079.03-6.865.03H4.92V4.04h13.769l-.058.09" fill="#667085" fill-rule="evenodd"/></svg>