<svg width="24" height="24" fill="none" xmlns="http://www.w3.org/2000/svg"><path d="M4.56 2.043c-.528.102-1.084.527-1.331 1.017a1.367 1.367 0 0 0-.088.36 2.24 2.24 0 0 1-.085.4c-.05.138-.056 1.364-.047 8.82l.011 8.66.089.166c.324.606 1.095.713 1.543.214.095-.105.194-.263.22-.351.036-.118.048-1.317.048-4.744V12h4.84v1.132c0 1.228.02 1.386.23 1.821.133.273.514.666.794.816.439.236.285.228 4.863.232l4.199.004.255-.12c.328-.153.592-.419.752-.757.114-.243.126-.304.127-.651 0-.448.074-.28-.972-2.217-.356-.66-.647-1.225-.648-1.256 0-.06.955-1.868 1.302-2.466.277-.474.355-.746.326-1.128a1.558 1.558 0 0 0-.828-1.27l-.22-.12-2.666-.011-2.666-.011-.017-1.169c-.016-1.06-.026-1.193-.104-1.432-.226-.691-.818-1.233-1.482-1.357-.268-.05-8.185-.047-8.445.003m7.99 1.982.091.024-.011 2.966-.01 2.965-3.85.01-3.85.01V7.023c0-2.802.004-2.978.07-2.995.106-.028 7.457-.03 7.56-.003m6.126 4.065-.642 1.198c-.58 1.081-.714 1.403-.714 1.712 0 .312.135.632.757 1.792l.637 1.188-3.483.01c-1.916.006-3.494 0-3.507-.013-.013-.013-.03-.463-.037-1L11.675 12h.594c.669 0 .927-.049 1.299-.248.27-.144.63-.511.769-.785.218-.432.234-.546.253-1.797L14.608 8h4.115l-.047.09" fill="#667085" fill-rule="evenodd"/></svg>