<svg width="24" height="24" fill="none" xmlns="http://www.w3.org/2000/svg"><path d="M12.7 1.056a1.382 1.382 0 0 0-.253.107c-.119.072-2.628 3.076-2.752 3.294-.338.594.079 1.367.783 1.45.31.037.578-.075.852-.354.127-.129.23-.212.23-.184.001.028-.039.378-.088.778-.086.709-.086.734-.017.955.127.402.528.698.945.698.387 0 .808-.292.928-.643.033-.097.202-1.313.375-2.702l.315-2.525-.073-.23a.987.987 0 0 0-1.245-.644M2.667 2.063C2.299 2.18 2 2.601 2 3c0 .08.029.234.065.343.059.178.28.413 2.321 2.459l2.256 2.262-1.881 2.258c-2.153 2.584-2.183 2.627-2.178 3.176.005.457.118.73.433 1.046.172.171.315.271.484.34l.24.096 3.562.011 3.562.011-.441 3.534-.441 3.533.073.23a.997.997 0 0 0 1.023.692c.441-.042.373.028 2.772-2.852l2.21-2.655 2.2 2.193c1.988 1.981 2.219 2.199 2.397 2.258.39.129.766.044 1.044-.234s.362-.654.234-1.044c-.06-.182-.754-.887-9.19-9.328-6.46-6.464-9.174-9.155-9.293-9.213a1.134 1.134 0 0 0-.785-.053m12.682 6.994a1.053 1.053 0 0 0-.674.722c-.116.43.155.957.592 1.151.082.036.584.055 1.849.07l1.737.02-.573.68c-.314.374-.605.752-.645.84a1.139 1.139 0 0 0 0 .801c.23.506.87.74 1.353.494.159-.081.36-.298 1.163-1.256 1.16-1.384 1.271-1.566 1.266-2.077-.004-.419-.114-.707-.382-1a1.42 1.42 0 0 0-.875-.46c-.416-.066-4.621-.052-4.811.015M9.96 12.99c-.88.006-2.322.006-3.205 0l-1.605-.01 1.455-1.748L8.06 9.484l1.75 1.748 1.75 1.748-1.6.01m4.629 3.128c-.444.573-2.132 2.557-2.14 2.515-.01-.049.427-3.657.495-4.088l.025-.155.834.833c.704.704.826.843.786.895" fill="#667085" fill-rule="evenodd"/></svg>