<svg width="24" height="24" fill="none" xmlns="http://www.w3.org/2000/svg"><path d="M12.678 1.062c-.1.031-.247.115-.327.187-.13.118-8.839 10.555-9.343 11.197-.323.411-.426.668-.424 1.054.003.454.116.728.432 1.044.172.171.315.271.484.34l.24.096 3.562.011 3.562.011-.441 3.534-.441 3.533.073.23a.997.997 0 0 0 1.023.692c.456-.044.143.304 5.304-5.884 5.297-6.351 5.041-6.015 5.035-6.605-.004-.419-.114-.707-.382-1a1.42 1.42 0 0 0-.875-.46C19.997 9.016 18.639 9 16.518 9h-3.383l.442-3.535.441-3.534-.073-.23a.965.965 0 0 0-.629-.638.927.927 0 0 0-.638-.001m-1.401 6.646c-.272 2.181-.289 2.366-.239 2.544.073.261.241.48.47.615l.192.113 3.575.02 3.575.02-3.192 3.83c-1.755 2.107-3.199 3.822-3.21 3.812-.01-.01.114-1.079.276-2.375.293-2.355.294-2.358.226-2.572a.975.975 0 0 0-.5-.601l-.19-.094L8.705 13l-3.555-.02 3.192-3.83c1.755-2.107 3.199-3.822 3.21-3.812.01.01-.114 1.077-.275 2.37" fill="#667085" fill-rule="evenodd"/></svg>