<svg width="24" height="24" fill="none" xmlns="http://www.w3.org/2000/svg"><path d="M16.617 4.577c-.346.15-.616.556-.616.923 0 .383.089.499 1.375 1.78.651.649 1.184 1.193 1.184 1.209 0 .016-2.677.035-5.95.042-5.552.011-5.97.017-6.25.084-1.038.247-1.904.711-2.645 1.416-.826.786-1.366 1.764-1.62 2.929-.104.479-.104 1.601 0 2.08.47 2.159 2.038 3.798 4.116 4.301.658.159 1.22.185 3.709.172 2.552-.014 2.46-.005 2.755-.285.495-.47.402-1.229-.195-1.601-.139-.087-.155-.087-2.8-.109l-2.66-.022-.387-.105c-.675-.183-1.156-.463-1.633-.951a3.486 3.486 0 0 1-.984-2.688c.112-1.483 1.072-2.675 2.511-3.121l.293-.09 5.88-.011 5.88-.011-1.208 1.21c-1.298 1.301-1.37 1.393-1.371 1.771-.001.374.268.775.619.924.221.094.558.088.78-.013.137-.062.695-.6 2.324-2.237 2.021-2.03 2.148-2.166 2.199-2.354a1.53 1.53 0 0 0 .052-.368c-.006-.386.003-.375-2.284-2.66-1.484-1.482-2.197-2.168-2.3-2.21-.181-.076-.606-.078-.774-.005" fill="#667085" fill-rule="evenodd"/></svg>