<svg width="24" height="24" fill="none" xmlns="http://www.w3.org/2000/svg"><path d="M6.6 4.583c-.088.038-.927.845-2.274 2.189C2.021 9.07 2.001 9.094 2.001 9.5c0 .407.018.428 2.345 2.746C6.653 14.543 6.595 14.494 7 14.494c.701 0 1.199-.746.917-1.374-.059-.133-.399-.499-1.289-1.391l-1.208-1.21 5.88.011 5.88.011.298.092c.165.051.454.172.643.27 2.067 1.067 2.511 3.867.879 5.537-.477.488-.958.768-1.633.951l-.387.105-2.66.022c-2.645.022-2.661.022-2.8.109-.597.372-.69 1.131-.195 1.601.295.28.203.271 2.755.285 2.489.013 3.051-.013 3.709-.172 1.824-.442 3.352-1.848 3.929-3.615.212-.651.26-.965.26-1.726 0-.764-.048-1.075-.264-1.737-.516-1.583-1.879-2.945-3.478-3.478-.775-.258-.298-.241-6.846-.254-3.273-.007-5.95-.026-5.95-.042 0-.016.533-.56 1.184-1.209C7.91 5.999 7.999 5.883 7.999 5.5c0-.372-.274-.779-.625-.925-.173-.072-.597-.068-.774.008" fill="#667085" fill-rule="evenodd"/></svg>