<svg width="24" height="24" fill="none" xmlns="http://www.w3.org/2000/svg"><path d="M3.76 2.026c-1.466.152-2.534 1.17-2.722 2.594-.028.217-.037 2.501-.028 7.1.013 6.708.014 6.784.097 7.14.119.517.286.915.552 1.323.588.903 1.484 1.504 2.568 1.725.332.068.791.072 7.773.072 6.978 0 7.441-.004 7.772-.072.669-.136 1.117-.335 1.651-.733.779-.582 1.279-1.39 1.485-2.403.067-.326.072-.679.072-4.772 0-4.095-.005-4.446-.072-4.773-.289-1.42-1.291-2.57-2.618-3.005-.555-.182-.724-.191-3.772-.21l-2.902-.018-.593-1.187c-.326-.653-.669-1.305-.762-1.449A3.07 3.07 0 0 0 10.5 2.09c-.211-.058-.618-.066-3.42-.072-1.749-.004-3.243 0-3.32.008m6.454 2.089a.942.942 0 0 1 .312.26c.105.145.834 1.546.834 1.603 0 .012-1.879.022-4.175.022H3.01l.014-.17c.007-.094.022-.407.032-.696.016-.487.026-.538.124-.687.18-.271.375-.371.796-.407.2-.016 1.642-.028 3.204-.025l2.84.005.194.095m8.587 3.925c.341.022.724.067.851.1.554.144 1.067.658 1.209 1.211.11.428.138 1.382.138 4.649 0 3.267-.028 4.221-.138 4.649-.139.543-.637 1.052-1.181 1.208-.45.128-1.166.142-7.68.142-6.514 0-7.23-.014-7.68-.142-.543-.156-1.039-.662-1.181-1.206C3.024 18.209 3 17.17 3 12.59V8h7.59c4.561 0 7.838.016 8.211.04m-7.134 2.025c-.252.077-.512.335-.601.595-.055.162-.066.373-.066 1.267V13H9.947c-1.236 0-1.374.025-1.644.295a.984.984 0 0 0-.004 1.406c.278.278.393.299 1.628.299H11v1.073c0 1.236.021 1.35.3 1.629.31.31.768.378 1.169.172.216-.112.428-.365.489-.585.024-.085.042-.605.042-1.219V15h1.075c.859 0 1.109-.012 1.247-.061a.989.989 0 0 0 .38-1.639c-.279-.279-.393-.3-1.629-.3H13v-1.073c0-1.235-.021-1.35-.299-1.628-.276-.276-.634-.357-1.034-.234" fill="#667085" fill-rule="evenodd"/></svg>