<svg width="24" height="24" fill="none" xmlns="http://www.w3.org/2000/svg"><path d="M3.76 2.026c-1.466.152-2.534 1.17-2.722 2.594-.028.217-.037 2.501-.028 7.1.013 6.708.014 6.784.097 7.14.119.517.286.915.552 1.323.588.903 1.484 1.504 2.568 1.725.332.068.791.072 7.773.072 6.978 0 7.441-.004 7.772-.072.669-.136 1.117-.335 1.651-.733.779-.582 1.279-1.39 1.485-2.403.067-.326.072-.679.072-4.772 0-4.095-.005-4.446-.072-4.773-.289-1.42-1.291-2.57-2.618-3.005-.555-.182-.724-.191-3.772-.21l-2.902-.018-.593-1.187c-.326-.653-.669-1.305-.762-1.449A3.07 3.07 0 0 0 10.5 2.09c-.211-.058-.618-.066-3.42-.072-1.749-.004-3.243 0-3.32.008m6.454 2.089a.942.942 0 0 1 .312.26c.105.145.834 1.546.834 1.603 0 .012-1.879.022-4.175.022H3.01l.014-.17c.007-.094.022-.407.032-.696.016-.487.026-.538.124-.687.18-.271.375-.371.796-.407.2-.016 1.642-.028 3.204-.025l2.84.005.194.095m8.587 3.925c.341.022.724.067.851.1.554.144 1.067.658 1.209 1.211.11.428.138 1.382.138 4.649 0 3.267-.028 4.221-.138 4.649-.139.543-.637 1.052-1.181 1.208-.45.128-1.166.142-7.68.142-6.514 0-7.23-.014-7.68-.142-.543-.156-1.039-.662-1.181-1.206C3.024 18.209 3 17.17 3 12.59V8h7.59c4.561 0 7.838.016 8.211.04m-9.754 2.584a.977.977 0 0 0-.451 1.277c.069.155.299.41 1.035 1.149l.947.95-.947.95c-1.031 1.034-1.123 1.161-1.122 1.549a.995.995 0 0 0 .99.995c.39-.001.501-.082 1.551-1.127l.949-.946.951.945c1.051 1.045 1.164 1.128 1.55 1.128a.982.982 0 0 0 .994-.994c0-.386-.083-.499-1.128-1.55l-.945-.951.946-.949c1.045-1.05 1.126-1.161 1.127-1.551.002-.555-.435-.98-1.003-.978-.401.001-.5.073-1.541 1.11l-.95.947-.95-.947c-.679-.677-1.001-.97-1.13-1.028a1.056 1.056 0 0 0-.873.021" fill="#667085" fill-rule="evenodd"/></svg>