<svg width="24" height="24" fill="none" xmlns="http://www.w3.org/2000/svg"><path d="M3.76 2.026c-1.466.152-2.534 1.17-2.722 2.594-.028.217-.037 2.501-.028 7.1.013 6.708.014 6.784.097 7.14.119.517.286.915.552 1.323.588.903 1.484 1.504 2.568 1.725.332.068.791.072 7.773.072 6.978 0 7.441-.004 7.772-.072.669-.136 1.117-.335 1.651-.733.779-.582 1.279-1.39 1.485-2.403.067-.326.072-.679.072-4.772 0-4.095-.005-4.446-.072-4.773-.289-1.42-1.291-2.57-2.618-3.005-.555-.182-.724-.191-3.772-.21l-2.902-.018-.593-1.187c-.326-.653-.669-1.305-.762-1.449A3.07 3.07 0 0 0 10.5 2.09c-.211-.058-.618-.066-3.42-.072-1.749-.004-3.243 0-3.32.008m6.454 2.089a.942.942 0 0 1 .312.26c.105.145.834 1.546.834 1.603 0 .012-1.879.022-4.175.022H3.01l.014-.17c.007-.094.022-.407.032-.696.016-.487.026-.538.124-.687.18-.271.375-.371.796-.407.2-.016 1.642-.028 3.204-.025l2.84.005.194.095m8.587 3.925c.341.022.724.067.851.1.554.144 1.067.658 1.209 1.211.11.428.138 1.382.138 4.649 0 3.267-.028 4.221-.138 4.649-.139.543-.637 1.052-1.181 1.208-.45.128-1.166.142-7.68.142-6.514 0-7.23-.014-7.68-.142-.543-.156-1.039-.662-1.181-1.206C3.024 18.209 3 17.17 3 12.59V8h7.59c4.561 0 7.838.016 8.211.04m-7.524 1.543c-.206.044-2.119.708-2.683.93-.16.063-.389.281-.486.463-.087.161-.088.192-.088 1.824 0 1.84.003 1.868.282 2.53.265.629.86 1.371 1.581 1.973.412.343 1.129.819 1.543 1.025.568.281.83.232 1.707-.319a8.167 8.167 0 0 0 1.399-1.086c.641-.615 1.049-1.211 1.267-1.852.189-.556.208-.796.194-2.431-.013-1.454-.016-1.505-.101-1.664-.097-.182-.326-.4-.486-.463-.623-.246-2.481-.885-2.709-.932-.363-.075-1.066-.074-1.42.002m1.916 2.254.813.296-.014 1.063c-.013 1.055-.014 1.066-.12 1.293-.155.332-.327.57-.669.924a4.798 4.798 0 0 1-1.011.804l-.189.109-.247-.145a4.373 4.373 0 0 1-.979-.787c-.324-.337-.497-.579-.649-.905-.106-.227-.107-.238-.12-1.293l-.014-1.064.533-.192.853-.307c.275-.099.367-.114.66-.103.307.011.419.041 1.153.307" fill="#667085" fill-rule="evenodd"/></svg>