<svg width="24" height="24" fill="none" xmlns="http://www.w3.org/2000/svg"><path d="M3.76 2.026c-1.466.152-2.534 1.17-2.722 2.594-.028.217-.037 2.501-.028 7.1.013 6.708.014 6.784.097 7.14.119.517.286.915.552 1.323.588.903 1.484 1.504 2.568 1.725.332.068.791.072 7.773.072 6.978 0 7.441-.004 7.772-.072 1.634-.332 2.804-1.502 3.136-3.135.067-.327.072-.678.072-4.773s-.005-4.446-.072-4.773c-.289-1.42-1.291-2.57-2.618-3.005-.555-.182-.724-.191-3.772-.21l-2.902-.018-.593-1.187c-.326-.653-.669-1.305-.762-1.449A3.07 3.07 0 0 0 10.5 2.09c-.211-.058-.618-.066-3.42-.072-1.749-.004-3.243 0-3.32.008m6.454 2.089a.942.942 0 0 1 .312.26c.105.145.834 1.546.834 1.603 0 .012-1.879.022-4.175.022H3.01l.014-.17c.007-.094.022-.407.032-.696.016-.487.026-.538.124-.687.18-.271.375-.371.796-.407.2-.016 1.642-.028 3.204-.025l2.84.005.194.095m8.587 3.925c.341.022.724.067.851.1.553.144 1.065.656 1.209 1.209.108.417.139 1.435.139 4.651 0 3.216-.031 4.234-.139 4.651-.142.544-.638 1.05-1.181 1.206-.45.128-1.166.142-7.68.142-6.514 0-7.23-.014-7.68-.142-.543-.156-1.039-.662-1.181-1.206C3.024 18.209 3 17.17 3 12.59V8h7.59c4.561 0 7.838.016 8.211.04M9.6 10.583c-.086.037-.682.6-1.534 1.449C6.553 13.537 6.507 13.596 6.507 14c0 .405.045.461 1.579 1.985 1.511 1.502 1.52 1.509 1.914 1.509.701 0 1.199-.746.917-1.374-.058-.13-.35-.45-1.048-1.15L8.901 14l.968-.97c1.042-1.044 1.129-1.162 1.13-1.53.001-.372-.274-.778-.625-.925-.173-.072-.598-.068-.774.008m4.017-.006c-.346.15-.617.556-.616.923.001.368.088.486 1.13 1.53l.968.97-.968.97c-1.042 1.044-1.129 1.162-1.13 1.53-.001.387.306.823.664.942.198.066.471.067.675 0 .223-.072 2.947-2.77 3.071-3.042a1.028 1.028 0 0 0 0-.8c-.109-.239-2.797-2.925-3.02-3.018-.181-.076-.606-.078-.774-.005" fill="#667085" fill-rule="evenodd"/></svg>