<svg width="24" height="24" fill="none" xmlns="http://www.w3.org/2000/svg"><path d="M3.76 2.026c-1.466.152-2.534 1.17-2.722 2.594-.028.217-.037 2.501-.028 7.1.013 6.708.014 6.784.097 7.14.119.517.286.915.552 1.323.588.903 1.484 1.504 2.568 1.725.332.068.791.072 7.773.072 6.978 0 7.441-.004 7.772-.072.669-.136 1.117-.335 1.651-.733.779-.582 1.279-1.39 1.485-2.403.067-.326.072-.679.072-4.772 0-4.095-.005-4.446-.072-4.773-.289-1.42-1.291-2.57-2.618-3.005-.555-.182-.724-.191-3.772-.21l-2.902-.018-.593-1.187c-.326-.653-.669-1.305-.762-1.449A3.07 3.07 0 0 0 10.5 2.09c-.211-.058-.618-.066-3.42-.072-1.749-.004-3.243 0-3.32.008m6.454 2.089a.942.942 0 0 1 .312.26c.105.145.834 1.546.834 1.603 0 .012-1.879.022-4.175.022H3.01l.014-.17c.007-.094.022-.407.032-.696.016-.487.026-.538.124-.687.18-.271.375-.371.796-.407.2-.016 1.642-.028 3.204-.025l2.84.005.194.095m8.587 3.925c.341.022.724.067.851.1.554.144 1.067.658 1.209 1.211.11.428.138 1.382.138 4.649 0 3.267-.028 4.221-.138 4.649-.139.543-.637 1.052-1.181 1.208-.45.128-1.166.142-7.68.142-6.514 0-7.23-.014-7.68-.142-.543-.156-1.039-.662-1.181-1.206C3.024 18.209 3 17.17 3 12.59V8h7.59c4.561 0 7.838.016 8.211.04M11.68 9.266c-.628.069-1.347.369-1.789.746-.623.532-1.093 1.363-1.037 1.835a1.003 1.003 0 0 0 1.27.859c.307-.09.498-.265.662-.606.192-.399.334-.555.638-.705.519-.255 1.081-.145 1.47.287.328.365.403.838.185 1.167-.216.326-.71.666-1.334.917-.408.164-.633.375-.722.678-.078.262-.078.33-.001.591.11.368.449.658.832.71.492.068 1.789-.6 2.465-1.269.294-.292.578-.688.697-.972.268-.642.25-1.552-.043-2.244-.402-.949-1.287-1.699-2.258-1.916-.278-.062-.813-.102-1.035-.078m-.08 7.577c-.754.342-.804 1.379-.084 1.771a.942.942 0 0 0 .768.092.99.99 0 0 0 .482-1.592 1.022 1.022 0 0 0-1.166-.271" fill="#667085" fill-rule="evenodd"/></svg>