<svg width="24" height="24" fill="none" xmlns="http://www.w3.org/2000/svg"><path d="M3.76 2.026c-1.466.152-2.534 1.17-2.722 2.594-.028.217-.037 2.501-.028 7.1.013 6.708.014 6.784.097 7.14.119.517.286.915.552 1.323.588.903 1.484 1.504 2.568 1.725.332.068.791.072 7.773.072 6.978 0 7.441-.004 7.772-.072.669-.136 1.117-.335 1.651-.733.779-.582 1.279-1.39 1.485-2.403.067-.326.072-.679.072-4.772 0-4.095-.005-4.446-.072-4.773-.289-1.42-1.291-2.57-2.618-3.005-.555-.182-.724-.191-3.772-.21l-2.902-.018-.593-1.187c-.326-.653-.669-1.305-.762-1.449A3.07 3.07 0 0 0 10.5 2.09c-.211-.058-.618-.066-3.42-.072-1.749-.004-3.243 0-3.32.008m6.454 2.089a.942.942 0 0 1 .312.26c.105.145.834 1.546.834 1.603 0 .012-1.879.022-4.175.022H3.01l.014-.17c.007-.094.022-.407.032-.696.016-.487.026-.538.124-.687.18-.271.375-.371.796-.407.2-.016 1.642-.028 3.204-.025l2.84.005.194.095m8.587 3.925c.341.022.724.067.851.1.554.144 1.067.658 1.209 1.211.11.428.138 1.382.138 4.649 0 3.267-.028 4.221-.138 4.649-.139.543-.637 1.052-1.181 1.208-.45.128-1.166.142-7.68.142-6.514 0-7.23-.014-7.68-.142-.543-.156-1.039-.662-1.181-1.206C3.024 18.209 3 17.17 3 12.59V8h7.59c4.561 0 7.838.016 8.211.04m-7.301.985a5.078 5.078 0 0 0-4.191 3.255c-.224.595-.286.968-.286 1.72 0 .6.014.754.094 1.08.466 1.885 1.826 3.282 3.669 3.769.449.118.513.125 1.214.125s.765-.007 1.214-.125a5.248 5.248 0 0 0 2.231-1.239c.642-.606 1.168-1.502 1.402-2.39.121-.456.127-.517.127-1.22s-.006-.764-.127-1.22a5.048 5.048 0 0 0-3.807-3.663c-.335-.075-1.214-.127-1.54-.092m1.262 2.075a3.04 3.04 0 0 1 1.936 1.596c.195.406.273.743.278 1.19l.004.386-.219.425-.219.425-1.829-1.829-1.829-1.829.248-.139c.516-.289.654-.331 1.03-.31.189.01.459.049.6.085m.186 5.532c-.595.34-.621.348-1.048.346a2.559 2.559 0 0 1-1.201-.278 3.056 3.056 0 0 1-1.602-1.94 3.122 3.122 0 0 1-.073-.646l-.004-.386.219-.425.219-.425 1.829 1.829 1.829 1.829-.168.096" fill="#667085" fill-rule="evenodd"/></svg>