<svg width="24" height="24" fill="none" xmlns="http://www.w3.org/2000/svg"><path d="M3.76 2.026c-1.466.152-2.534 1.17-2.722 2.594-.028.217-.037 2.501-.028 7.1.013 6.708.014 6.784.097 7.14.119.517.286.915.552 1.323.588.903 1.484 1.504 2.568 1.725.332.068.791.072 7.773.072 6.978 0 7.441-.004 7.772-.072.669-.136 1.117-.335 1.651-.733.779-.582 1.279-1.39 1.485-2.403.067-.326.072-.679.072-4.772 0-4.095-.005-4.446-.072-4.773-.289-1.42-1.291-2.57-2.618-3.005-.555-.182-.724-.191-3.772-.21l-2.902-.018-.593-1.187c-.326-.653-.669-1.305-.762-1.449A3.07 3.07 0 0 0 10.5 2.09c-.211-.058-.618-.066-3.42-.072-1.749-.004-3.243 0-3.32.008m6.454 2.089a.942.942 0 0 1 .312.26c.105.145.834 1.546.834 1.603 0 .012-1.879.022-4.175.022H3.01l.014-.17c.007-.094.022-.407.032-.696.016-.487.026-.538.124-.687.18-.271.375-.371.796-.407.2-.016 1.642-.028 3.204-.025l2.84.005.194.095m8.587 3.925c.341.022.724.067.851.1.554.144 1.067.658 1.209 1.211.11.428.138 1.382.138 4.649 0 3.267-.028 4.221-.138 4.649-.139.543-.637 1.052-1.181 1.208-.45.128-1.166.142-7.68.142-6.514 0-7.23-.014-7.68-.142-.543-.156-1.039-.662-1.181-1.206C3.024 18.209 3 17.17 3 12.59V8h7.59c4.561 0 7.838.016 8.211.04m-7.25.999a2.831 2.831 0 0 0-2.212 2.021c-.045.162-.074.459-.088.91l-.02.67h-.228c-.305 0-.593.145-.908.459-.261.26-.403.5-.521.883-.065.21-.074.389-.074 1.518 0 1.391.013 1.491.249 1.957.139.275.542.667.832.812.477.237.394.231 3.419.231s2.942.006 3.419-.231c.29-.145.693-.537.832-.812.236-.466.249-.566.249-1.957 0-1.129-.009-1.308-.074-1.518-.118-.383-.26-.623-.521-.883-.317-.316-.603-.459-.913-.459h-.232v-.542c0-1.045-.232-1.685-.825-2.279a2.675 2.675 0 0 0-1.813-.799c-.21-.009-.467 0-.571.019m.751 2.036c.181.083.363.278.408.438.017.059.03.305.03.547v.44h-1.48v-.44c0-.242.013-.488.03-.547.073-.262.42-.511.71-.511.077 0 .213.033.302.073m2.178 4.419v.975l-.246.025c-.32.034-4.148.034-4.468 0l-.246-.025V14.52h4.96v.974" fill="#667085" fill-rule="evenodd"/></svg>