<svg width="24" height="24" fill="none" xmlns="http://www.w3.org/2000/svg"><path d="M4.617.577a1.048 1.048 0 0 0-.606.862c-.041.446-.128.344 2.85 3.322C8.346 6.245 9.56 7.473 9.56 7.49c0 .016-1.081.03-2.401.03-1.947 0-2.426.01-2.533.055-.207.087-.43.307-.532.525l-.093.2v7.4l.095.2c.077.161.811.914 3.75 3.846 3.922 3.913 3.74 3.748 4.154 3.748.371 0 .71-.209.893-.551.087-.163.087-.165.098-3.292l.011-3.128 3.109-.012c2.894-.01 3.12-.016 3.269-.083.202-.091.402-.282.512-.488.12-.224.12-.657-.001-.88-.049-.093-1.214-1.287-2.768-2.84L14.44 9.54l2.39-.02c2.19-.018 2.403-.026 2.55-.092.222-.1.413-.292.525-.528l.094-.2V1.3l-.093-.2a1.146 1.146 0 0 0-.532-.525C19.181.494 4.803.496 4.617.577M18 5.02v2.5H12.421l-2.5-2.5-2.501-2.5H18v2.5m-3.91 6.97c1.358 1.358 2.47 2.483 2.47 2.5 0 .016-2.376.03-5.28.03H6v-5h5.62l2.47 2.47M11 18.3c0 .979-.005 1.78-.01 1.78-.006 0-.811-.801-1.79-1.78l-1.78-1.78H11v1.78" fill="#667085" fill-rule="evenodd"/></svg>