<svg width="24" height="24" fill="none" xmlns="http://www.w3.org/2000/svg"><path d="M7.56 4.043c-1.288.075-2.099.295-2.962.807-1.289.763-2.258 1.996-2.636 3.352-.232.83-.303 1.478-.563 5.118-.219 3.06-.22 3.139-.037 3.797.177.64.477 1.154.976 1.676a3.934 3.934 0 0 0 1.856 1.096c.247.068.426.084.926.086.728.003 1.062-.068 1.667-.354.669-.316.945-.551 1.72-1.469.274-.324.567-.644.651-.711.209-.165.616-.35.878-.4.285-.054 3.643-.054 3.928 0 .262.05.669.235.878.4.084.067.377.387.651.711.775.918 1.051 1.153 1.72 1.469.605.286.939.357 1.667.354.5-.002.679-.018.926-.086a3.934 3.934 0 0 0 1.856-1.096c.499-.522.798-1.035.976-1.676.182-.651.18-.76-.039-3.809-.267-3.708-.308-4.101-.525-4.948-.379-1.482-1.312-2.699-2.707-3.53-.84-.501-1.639-.709-3.032-.79-.785-.045-7.977-.043-8.775.003m8.317 1.997c1.539.072 2.009.185 2.703.653a4.9 4.9 0 0 1 1.002.969c.6.837.698 1.396 1.018 5.814.184 2.54.192 2.855.084 3.2-.334 1.074-1.542 1.61-2.602 1.156-.311-.133-.504-.311-1.092-1.007-.354-.42-.687-.769-.879-.922a4.128 4.128 0 0 0-1.997-.861c-.433-.055-3.795-.055-4.228 0a4.086 4.086 0 0 0-1.922.8c-.237.179-.476.423-.87.892-.632.752-.788.901-1.114 1.06-1.057.518-2.32-.012-2.664-1.118-.108-.345-.1-.654.084-3.198.321-4.435.414-4.966 1.02-5.818a4.858 4.858 0 0 1 1-.967c.675-.455 1.201-.587 2.58-.65.977-.045 6.931-.047 7.877-.003M7.643 8.069a1.118 1.118 0 0 0-.343.229c-.248.248-.3.442-.3 1.129V10h-.573c-.686 0-.881.052-1.128.299a.984.984 0 0 0 0 1.402c.247.247.442.299 1.128.299H7v.573c0 .686.052.881.299 1.128a.984.984 0 0 0 1.402 0c.247-.247.299-.442.299-1.128V12h.573c.686 0 .881-.052 1.128-.299a.984.984 0 0 0 0-1.402c-.247-.247-.442-.299-1.128-.299H9v-.573c0-.686-.052-.881-.299-1.128a.998.998 0 0 0-1.058-.23m10 .997c-.355.131-.643.549-.643.934 0 .575.526 1.048 1.1.988 1.009-.104 1.237-1.424.327-1.895-.178-.092-.57-.105-.784-.027m-3 2c-.355.131-.643.549-.643.934 0 .575.526 1.048 1.1.988 1.009-.104 1.237-1.424.327-1.895-.178-.092-.57-.105-.784-.027" fill="#667085" fill-rule="evenodd"/></svg>