<svg width="24" height="24" fill="none" xmlns="http://www.w3.org/2000/svg"><path d="M8.1 1.022c-.044.01-.178.039-.298.063-.719.146-1.496.72-1.893 1.397-.283.483-.469 1.303-.382 1.689.02.093.108.301.195.462.087.161.158.31.158.33 0 .022-.615.037-1.513.037-1.649 0-1.842.018-2.247.21-.326.154-.743.561-.892.87C1.009 6.536 1 6.631 1 8.5c0 1.869.009 1.964.228 2.42.138.286.566.714.855.854.168.082.31.115.57.133l.347.025.001 4.104c0 2.51.016 4.213.04 4.384.152 1.064.884 1.995 1.859 2.362.594.223.426.218 7.1.218 6.674 0 6.506.005 7.1-.218.973-.367 1.711-1.306 1.858-2.366.027-.195.042-1.757.042-4.393v-4.091l.347-.025c.45-.031.705-.153 1.056-.504.282-.282.436-.552.536-.941.09-.352.09-3.572 0-3.924-.197-.767-.813-1.359-1.556-1.495-.144-.026-.837-.043-1.75-.043-.898 0-1.513-.015-1.513-.037 0-.02.071-.169.158-.33.206-.382.242-.556.198-.95-.142-1.27-1.001-2.255-2.276-2.61-.107-.03-.399-.049-.72-.047-.462.003-.591.018-.892.109a3.826 3.826 0 0 0-1.595.937c-.269.254-.836.963-.924 1.155-.057.126-.08.118-.183-.065-.153-.272-.622-.852-.899-1.11-.709-.662-1.482-.999-2.367-1.032a4.194 4.194 0 0 0-.52.002m.735 2.02c.491.114.981.511 1.341 1.089.187.301.381.715.383.819.002.082-2.165.07-2.408-.013-.381-.129-.629-.494-.63-.928-.003-.719.568-1.139 1.314-.967m7.111.051c.338.175.532.505.532.907 0 .442-.244.806-.629.937-.243.083-2.41.095-2.408.013.002-.104.196-.518.383-.819.351-.563.8-.937 1.296-1.079.228-.065.663-.044.826.041M11 8.5V10H7.024c-3.588 0-3.978-.006-4-.063C3.011 9.902 3 9.249 3 8.485c0-1.027.013-1.402.048-1.437.037-.037.98-.048 4-.048H11v1.5m9.952-1.452c.035.035.048.403.047 1.41 0 .749-.011 1.403-.024 1.452l-.024.09H13V7h3.952c3.02 0 3.963.011 4 .048M11 16.5V21l-2.35-.001c-1.293 0-2.508-.017-2.702-.037-.412-.044-.572-.126-.75-.385-.106-.154-.126-.228-.158-.587-.021-.225-.038-2.115-.039-4.2L5 12h6v4.5m7.999-.75c0 2.063-.017 3.951-.037 4.197-.042.506-.121.678-.4.872-.231.159-.586.179-3.212.18L13 21v-9h6l-.001 3.75" fill="#667085" fill-rule="evenodd"/></svg>