<svg width="24" height="24" fill="none" xmlns="http://www.w3.org/2000/svg"><path d="M6.894 1.056c-1.49.285-2.612 1.431-2.853 2.913-.093.576-.021 1.144.223 1.748.075.186.136.351.136.366 0 .015-.293.036-.65.046-.739.021-.927.071-1.39.371a2.968 2.968 0 0 0-1.319 2.08c-.054.38-.054 11.46 0 11.84.152 1.064.884 1.995 1.859 2.362.604.227.243.218 9.1.218s8.496.009 9.1-.218c.973-.367 1.711-1.306 1.858-2.366.056-.403.057-11.443.001-11.836A2.975 2.975 0 0 0 21.64 6.5c-.463-.3-.651-.35-1.39-.371-.357-.01-.65-.031-.65-.046s.061-.18.136-.366c.244-.604.316-1.172.223-1.748-.223-1.375-1.248-2.507-2.579-2.849-1.334-.343-2.83.092-3.99 1.161-.456.42-1.132 1.303-1.315 1.717-.03.067-.064.122-.075.122-.011 0-.046-.058-.077-.129-.094-.212-.578-.911-.855-1.235-.703-.822-1.663-1.432-2.575-1.638-.463-.104-1.224-.134-1.599-.062M8.02 3.06c.608.128 1.195.534 1.658 1.148.439.581.729 1.151.857 1.684l.027.111-1.711-.011L7.14 5.98l-.249-.115a1.71 1.71 0 0 1-.763-.775c-.091-.195-.107-.284-.107-.59-.001-.32.013-.389.123-.62.334-.703 1.014-1.001 1.876-.82m9.086.077c.309.141.619.451.76.759.096.209.112.295.112.604.001.307-.015.394-.106.59a1.71 1.71 0 0 1-.763.775l-.249.115-1.713.012-1.713.011.026-.091c.119-.42.211-.657.36-.932.735-1.351 1.652-2.012 2.726-1.964.246.011.384.041.56.121M11 10.5V13H3l.001-1.79c.002-2.105.031-2.553.178-2.776.171-.258.362-.356.768-.392.194-.017 1.861-.033 3.703-.036L11 8v2.5m8.996-2.46c.474.043.647.126.825.395.147.221.178.711.178 2.815L21 13h-8V8l3.29.001c1.81.001 3.477.019 3.706.039M11 18v3l-3.35-.001c-1.842 0-3.508-.017-3.702-.037-.412-.044-.572-.126-.75-.385-.106-.154-.126-.228-.158-.587-.021-.225-.038-1.44-.039-2.7L3 15h8v3m9.999-.75c0 2.621-.025 3.07-.18 3.304-.178.269-.357.364-.764.407-.195.021-1.863.038-3.705.038L13 21v-6h8l-.001 2.25" fill="#667085" fill-rule="evenodd"/></svg>