<svg width="24" height="24" fill="none" xmlns="http://www.w3.org/2000/svg"><path d="M5.659 2.064a.996.996 0 0 0-.545.486l-.094.19L5 8.472l-.02 5.732-.26.09c-1.068.374-1.987 1.21-2.402 2.185-.232.544-.29.84-.294 1.501-.004.746.079 1.12.394 1.76.975 1.986 3.342 2.818 5.278 1.856A4.05 4.05 0 0 0 9.723 19.2c.051-.165.104-.314.117-.33.013-.017.176-.049.362-.071 2.013-.242 3.879-1.024 5.318-2.23 1.79-1.499 2.969-3.789 3.279-6.367.022-.186.054-.349.071-.362.016-.013.165-.066.33-.117 1.422-.441 2.49-1.64 2.741-3.078.337-1.927-.864-3.862-2.766-4.459a3.892 3.892 0 0 0-2.915.232 3.885 3.885 0 0 0-1.842 1.842 3.68 3.68 0 0 0-.405 1.56c-.084 1.687.973 3.252 2.609 3.864l.223.084-.026.226a8.684 8.684 0 0 1-.847 2.806c-1.084 2.155-2.994 3.51-5.587 3.964-.632.111-.595.121-.718-.195a3.958 3.958 0 0 0-2.387-2.274l-.26-.091L7 8.472 6.98 2.74l-.094-.19a1 1 0 0 0-1.227-.486m12.724 1.979c.578.106 1.157.55 1.41 1.082a2.001 2.001 0 0 1-.354 2.25c-.778.831-2.1.831-2.878 0-.754-.806-.739-2.004.035-2.779.489-.488 1.102-.678 1.787-.553m-12 12c.578.106 1.157.55 1.41 1.082a2.001 2.001 0 0 1-.354 2.25c-.778.831-2.1.831-2.878 0-.754-.806-.739-2.004.035-2.779.489-.488 1.102-.678 1.787-.553" fill="#667085" fill-rule="evenodd"/></svg>