<svg width="24" height="24" fill="none" xmlns="http://www.w3.org/2000/svg"><path d="M5.433 2.043c-.426.063-.732.161-1.173.376-1.984.97-2.818 3.34-1.856 5.277A4.076 4.076 0 0 0 4.74 9.714l.24.08.02 5.733.02 5.733.094.19a.988.988 0 0 0 1.211.489.982.982 0 0 0 .561-.489l.094-.19.02-3.28.02-3.28.318.532c.365.61.593.878 1.136 1.332 1.435 1.202 3.204 1.953 5.225 2.22.241.032.449.071.462.087.013.016.065.164.116.329.59 1.904 2.511 3.097 4.408 2.737 2.415-.458 3.882-2.913 3.107-5.197-.765-2.25-3.334-3.365-5.43-2.358a3.63 3.63 0 0 0-1.145.824 4 4 0 0 0-.9 1.413c-.097.26-.074.255-.702.145-2.17-.38-3.869-1.397-5.026-3.009-.354-.493-.827-1.438-1.026-2.051-.157-.481-.33-1.26-.382-1.71l-.026-.226.223-.084a4.08 4.08 0 0 0 1.533-1.019c1.374-1.432 1.453-3.593.188-5.174-.86-1.075-2.308-1.647-3.666-1.448m.95 2c.578.106 1.157.55 1.41 1.082a2.001 2.001 0 0 1-.354 2.25c-.778.831-2.1.831-2.878 0-.754-.806-.739-2.004.035-2.779.489-.488 1.102-.678 1.787-.553m12 12c.578.106 1.157.55 1.41 1.082a2.001 2.001 0 0 1-.354 2.25c-.778.831-2.1.831-2.878 0-.754-.806-.739-2.004.035-2.779.489-.488 1.102-.678 1.787-.553" fill="#667085" fill-rule="evenodd"/></svg>