<svg width="24" height="24" fill="none" xmlns="http://www.w3.org/2000/svg"><path d="M11.24 7.066c-1.902.292-3.504 1.8-4 3.764l-.043.17H4.526c-3.015 0-2.919-.009-3.227.299a.984.984 0 0 0 0 1.402c.308.308.212.299 3.227.299h2.671l.043.17c.797 3.158 4.186 4.745 6.987 3.272 1.24-.652 2.177-1.863 2.533-3.272l.043-.17h2.671c3.015 0 2.919.009 3.227-.299a.984.984 0 0 0 0-1.402c-.308-.308-.212-.299-3.227-.299h-2.671l-.043-.17a5.657 5.657 0 0 0-.798-1.741c-1.083-1.534-2.883-2.305-4.722-2.023m1.54 2.036c1.014.271 1.844 1.106 2.125 2.138.097.359.097 1.161 0 1.52a3.069 3.069 0 0 1-1.604 1.94c-.455.217-.735.277-1.301.277s-.846-.06-1.301-.277a3.069 3.069 0 0 1-1.604-1.94c-.097-.359-.097-1.161 0-1.52a3.042 3.042 0 0 1 2.395-2.198c.286-.052.997-.019 1.29.06" fill="#667085" fill-rule="evenodd"/></svg>