<svg width="24" height="24" fill="none" xmlns="http://www.w3.org/2000/svg"><path d="M5.433 2.043c-.426.063-.732.161-1.173.376-1.984.97-2.818 3.34-1.856 5.277A4.076 4.076 0 0 0 4.74 9.714l.24.08.02 5.733.02 5.733.094.19a.988.988 0 0 0 1.211.489.982.982 0 0 0 .561-.489l.094-.19.02-5.733.02-5.733.24-.08a4.174 4.174 0 0 0 1.979-1.433c1.059-1.428 1.003-3.362-.14-4.79-.86-1.075-2.308-1.647-3.666-1.448m.95 2c.578.106 1.157.55 1.41 1.082a2.001 2.001 0 0 1-.354 2.25c-.778.831-2.1.831-2.878 0-.754-.806-.739-2.004.035-2.779.489-.488 1.102-.678 1.787-.553m6.26 1.024C12.289 5.195 12 5.614 12 6c0 .242.119.521.299.701.294.294.33.299 2.201.299s1.907.005 2.202.3c.312.312.3.155.288 3.733l-.01 3.171-.26.09a4.058 4.058 0 0 0-2.609 2.78c-.124.458-.124 1.37 0 1.866.202.803.74 1.646 1.381 2.161.401.323 1.078.665 1.548.781 2.23.55 4.462-.908 4.897-3.197.354-1.867-.771-3.725-2.657-4.39l-.26-.091-.022-3.372c-.023-3.623-.012-3.435-.229-3.972-.328-.81-1.001-1.421-1.909-1.729l-.32-.109-1.86-.009c-1.616-.008-1.883-.001-2.037.054m5.74 10.976c.578.106 1.157.55 1.41 1.082a2.001 2.001 0 0 1-.354 2.25c-.778.831-2.1.831-2.878 0-.754-.806-.739-2.004.035-2.779.489-.488 1.102-.678 1.787-.553" fill="#667085" fill-rule="evenodd"/></svg>