<svg width="24" height="24" fill="none" xmlns="http://www.w3.org/2000/svg"><path d="M2.643 2.067a1.069 1.069 0 0 0-.579.601c-.061.184-.065.709-.053 6.496.013 5.699.02 6.327.081 6.623a3.968 3.968 0 0 0 3.048 3.106c.349.08.497.083 4.713.105l4.353.022.08.24c.403 1.211 1.414 2.212 2.599 2.573a4.07 4.07 0 0 0 2.075.048c.466-.114 1.147-.456 1.544-.776a3.986 3.986 0 0 0 1.413-3.878 3.964 3.964 0 0 0-2.177-2.809 3.75 3.75 0 0 0-1.523-.404c-1.727-.109-3.366 1.028-3.931 2.726l-.08.24-3.773.012c-3.846.012-4.687-.01-5.115-.135-.545-.16-1.037-.664-1.179-1.206C4.035 15.249 4 14.248 4 11.59V9l5.103.01 5.103.01.08.24c.403 1.211 1.414 2.212 2.599 2.573a4.07 4.07 0 0 0 2.075.048c.466-.114 1.147-.456 1.544-.776 1.549-1.248 1.946-3.453.926-5.145a3.971 3.971 0 0 0-1.69-1.542 3.75 3.75 0 0 0-1.523-.404c-1.727-.109-3.366 1.028-3.931 2.726l-.08.24-5.103.01L4 7V4.93c0-1.303-.016-2.125-.042-2.219-.144-.52-.789-.836-1.315-.644m15.808 3.992c.37.078.64.232.952.54.324.321.497.657.564 1.091a1.961 1.961 0 0 1-.53 1.686 1.972 1.972 0 0 1-2.876-.001c-.754-.806-.739-2.004.035-2.779.506-.505 1.139-.689 1.855-.537m0 10c.37.078.64.232.952.54.324.321.497.657.564 1.091a1.961 1.961 0 0 1-.53 1.686 1.972 1.972 0 0 1-2.876-.001c-.754-.806-.739-2.004.035-2.779.506-.505 1.139-.689 1.855-.537" fill="#667085" fill-rule="evenodd"/></svg>