<svg width="24" height="24" fill="none" xmlns="http://www.w3.org/2000/svg"><path d="M5.6 7.024c-.719.081-1.291.241-1.82.506-1.4.703-2.346 1.943-2.686 3.519-.098.458-.098 1.444 0 1.902.332 1.54 1.257 2.78 2.586 3.467.42.217.892.385 1.369.488.458.098 1.444.098 1.902 0 1.495-.322 2.681-1.183 3.398-2.466.27-.483.571-1.513.571-1.951 0-.195.032-.223.36-.313.491-.134 1.532-.067 1.75.112.028.023.05.113.05.201 0 .259.155.94.307 1.349.237.64.537 1.12 1.008 1.613.707.739 1.596 1.227 2.654 1.455.458.098 1.444.098 1.902 0 2.05-.442 3.513-1.905 3.955-3.955.098-.458.098-1.444 0-1.902-.442-2.049-1.963-3.563-3.975-3.954-.473-.092-1.389-.092-1.862 0-1.583.307-2.942 1.372-3.55 2.781a11.36 11.36 0 0 0-.17.407c-.019.057-.057.055-.375-.014-.494-.107-1.454-.107-1.948 0-.318.069-.356.071-.375.014a5.007 5.007 0 0 0-1.146-1.827 4.934 4.934 0 0 0-2.546-1.354c-.318-.06-1.115-.106-1.359-.078m.992 2.04a3.037 3.037 0 0 1 2.344 2.344 2.966 2.966 0 0 1-.84 2.72c-.304.294-.383.354-.697.525-.471.256-.782.327-1.419.325-.49-.003-.598-.016-.867-.105-2.185-.729-2.826-3.436-1.188-5.019.726-.701 1.7-.99 2.667-.79m12 0a3.037 3.037 0 0 1 2.344 2.344 2.966 2.966 0 0 1-.84 2.72c-.304.294-.383.354-.697.525-.471.256-.782.327-1.419.325-.49-.003-.598-.016-.867-.105-2.185-.729-2.826-3.436-1.188-5.019.726-.701 1.7-.99 2.667-.79" fill="#667085" fill-rule="evenodd"/></svg>