<svg width="24" height="24" fill="none" xmlns="http://www.w3.org/2000/svg"><path d="M5.3 4.026c-1.667.192-3.05 1.389-3.461 2.997-.126.493-.85 7.809-.816 8.257.173 2.346 1.731 4.141 4.017 4.627.471.1 1.449.1 1.92 0 1.806-.384 3.206-1.619 3.733-3.29.118-.376.227-.921.227-1.137 0-.082.024-.17.053-.194.104-.087.612-.177 1.007-.18.417-.003.981.097 1.051.186.021.026.049.176.063.332.034.376.188.973.362 1.4.205.504.513.972.929 1.41.73.772 1.582 1.244 2.655 1.473.471.1 1.449.1 1.92 0 1.046-.223 1.907-.692 2.613-1.425.403-.417.617-.726.87-1.257.234-.49.368-.977.477-1.732l.081-.567-.38-3.793c-.405-4.034-.427-4.184-.694-4.779A4.094 4.094 0 0 0 19.6 4.233c-.572-.197-1.436-.29-1.823-.197-.876.212-1.05 1.373-.275 1.827.163.096.245.113.692.141.558.035.853.115 1.172.32.421.27.774.789.869 1.276.054.279.34 3.158.316 3.182-.01.01-.178-.062-.374-.16a5.023 5.023 0 0 0-2.322-.542c-1.955-.001-3.657 1.131-4.395 2.923-.076.186-.161.335-.189.332a6.877 6.877 0 0 1-.391-.076c-.461-.096-1.299-.096-1.76 0-.187.04-.363.074-.391.076-.028.003-.113-.146-.189-.332a4.675 4.675 0 0 0-2.231-2.417c-1.354-.691-3.054-.677-4.486.036-.196.098-.364.17-.374.16-.024-.024.262-2.903.316-3.182a2.102 2.102 0 0 1 .869-1.276c.319-.205.614-.285 1.172-.32.447-.028.529-.045.692-.141.463-.271.623-.825.383-1.32a1.054 1.054 0 0 0-.629-.501c-.156-.039-.676-.048-.952-.016m1.44 8.067c1.393.385 2.334 1.669 2.247 3.066-.03.476-.108.772-.312 1.183a3.084 3.084 0 0 1-1.788 1.531c-.269.089-.377.102-.867.105-.478.002-.604-.012-.86-.091a3.01 3.01 0 0 1-1.796-4.29c.379-.728 1.193-1.357 1.958-1.512.12-.024.254-.053.298-.063.147-.034.917.015 1.12.071m12 0c1.967.545 2.86 2.797 1.787 4.507a3.058 3.058 0 0 1-1.687 1.287c-.252.078-.387.093-.84.093-.453 0-.588-.015-.84-.093-.993-.308-1.799-1.133-2.059-2.107a3.18 3.18 0 0 1 .126-1.916c.367-.872 1.227-1.603 2.095-1.779.12-.024.254-.053.298-.063.147-.034.917.015 1.12.071" fill="#667085" fill-rule="evenodd"/></svg>