<svg width="24" height="24" fill="none" xmlns="http://www.w3.org/2000/svg"><path d="M11.38 1.04c-4.26.252-7.931 2.967-9.518 7.04-.081.209-.194.475-.25.591-.081.167-.098.248-.079.384.018.132-.016.313-.15.789-.316 1.12-.358 1.371-.358 2.156 0 .785.042 1.036.358 2.156.134.476.168.657.15.789-.019.136-.002.218.078.384.056.116.204.463.328.771 1.423 3.527 4.532 6.079 8.19 6.72 2.345.412 4.636.076 6.715-.984 1.048-.534 1.84-1.116 2.738-2.014 1.127-1.125 1.901-2.288 2.479-3.722.124-.308.272-.655.327-.77.092-.19.131-.475.078-.561-.011-.017.06-.319.158-.67.311-1.116.351-1.358.352-2.099.001-.748-.052-1.067-.363-2.172-.14-.496-.17-.658-.141-.741.043-.124-.021-.423-.123-.579a3.976 3.976 0 0 1-.212-.474c-1-2.549-2.861-4.59-5.297-5.809-1.297-.649-2.417-.959-4.06-1.123l-.74-.077a6.455 6.455 0 0 0-.66.015M9.339 3.944c-.56.928-1.098 2.15-1.499 3.406L7.633 8h-3.6l.15-.27A8.84 8.84 0 0 1 9.24 3.599c.187-.06.345-.105.351-.1.006.005-.108.206-.252.445m6.001-.137a8.83 8.83 0 0 1 4.477 3.923l.15.27h-3.6l-.207-.65c-.4-1.255-.939-2.478-1.498-3.404A12.23 12.23 0 0 1 14.4 3.5c0-.026.561.158.94.307m-2.951.603c.444.656.702 1.094 1.028 1.745.243.485.67 1.506.725 1.735l.027.11h-2.165c-1.47 0-2.164-.013-2.164-.042 0-.022.082-.261.182-.53.215-.575.677-1.543 1-2.096.277-.472.936-1.452.978-1.452.016 0 .191.239.389.53M7.2 10.051c0 .028-.039.312-.087.63a9.71 9.71 0 0 0 0 2.638c.048.318.087.602.087.63 0 .041-.385.051-1.898.051H3.403l-.039-.15-.16-.605c-.256-.964-.256-1.526 0-2.49l.16-.605.039-.15h1.899c1.513 0 1.898.01 1.898.051m7.578.752c.169.688.198.86.198 1.197 0 .337-.029.509-.198 1.197L14.58 14H9.42l-.2-.809c-.168-.685-.199-.868-.199-1.191 0-.323.031-.506.199-1.191l.2-.809h5.16l.198.803m5.858-.653.16.605c.181.682.231 1.158.171 1.64a7.944 7.944 0 0 1-.171.85l-.16.605-.039.15h-1.899c-1.052 0-1.898-.016-1.898-.035 0-.019.045-.389.1-.821.055-.433.1-.947.1-1.144 0-.197-.045-.711-.1-1.144-.055-.432-.1-.802-.1-.821 0-.019.846-.035 1.898-.035h1.899l.039.15M7.84 16.65c.401 1.256.939 2.478 1.499 3.406.144.239.257.441.25.448-.035.035-1.028-.339-1.489-.56-1.7-.816-3.02-2.054-3.917-3.674l-.15-.27h3.6l.207.65m6.302-.54c-.106.439-.76 1.87-1.186 2.595-.261.446-.916 1.415-.956 1.415-.042 0-.701-.98-.978-1.452a16.828 16.828 0 0 1-1-2.096 6.37 6.37 0 0 1-.182-.53c0-.029.694-.042 2.164-.042h2.165l-.027.11m5.675.16c-.895 1.617-2.22 2.86-3.917 3.674-.461.221-1.454.595-1.489.56-.007-.007.106-.209.25-.448.56-.928 1.098-2.15 1.499-3.406l.207-.65h3.6l-.15.27" fill="#667085" fill-rule="evenodd"/></svg>