<svg width="24" height="24" fill="none" xmlns="http://www.w3.org/2000/svg"><path d="M11.08 1.044a10.719 10.719 0 0 0-7.644 4.262 11.42 11.42 0 0 0-2.097 4.882c-.065.378-.115.56-.175.637-.077.097-.079.114-.024.175.055.061.051.106-.04.454-.149.577-.123 1.374.081 2.486.75 4.071 3.894 7.379 8.055 8.476.32.084.57.173.62.22.11.104.418.242.541.243a.308.308 0 0 0 .183-.079l.085-.08.578.145c.575.145.579.146 1.197.121 2.267-.091 4.375-.854 6.24-2.257.593-.447 1.602-1.456 2.049-2.049 1.11-1.475 1.813-3.084 2.11-4.831.369-2.167.103-4.242-.805-6.284l-.242-.545.11-.449c.099-.401.108-.494.086-.88-.087-1.507-.939-2.988-2.207-3.831-1.345-.895-2.914-1.091-4.432-.552l-.391.139-.509-.123c-1.224-.294-2.24-.378-3.369-.28m1.406 2.017c.578.105.537.06.338.369a5.62 5.62 0 0 0-.734 1.703c-.052.213-.069.447-.068.907.002.531.017.681.108 1.042.257 1.034.754 1.93 1.696 3.058.632.757 2.494 2.633 2.728 2.748.256.126.635.127.89.001.31-.153 2.478-2.385 3.048-3.139l.144-.191.043.151c.215.758.343 1.864.306 2.644-.063 1.35-.343 2.445-.925 3.626-.896 1.818-2.252 3.179-4.067 4.079a8.973 8.973 0 0 1-2.985.882c-.611.071-1.012.075-1.285.012l-.203-.047V19.847l1.225-1.43c.847-.988 1.258-1.499 1.33-1.654.091-.194.105-.275.105-.624 0-.371-.01-.42-.13-.665a1.68 1.68 0 0 0-.3-.42c-.093-.087-.809-.522-1.59-.968l-1.42-.811-.94-1.644c-.601-1.051-1-1.706-1.106-1.815a1.536 1.536 0 0 0-.789-.417c-.153-.026-.738.012-2.296.149-1.15.101-2.103.172-2.118.157-.037-.037.197-.747.416-1.265A9.168 9.168 0 0 1 7.22 4.434a10.243 10.243 0 0 1 2.039-.989c1.138-.372 2.441-.527 3.227-.384m5.294.041a3.06 3.06 0 0 1 1.92 1.597c.217.455.276.734.275 1.301-.001.449-.014.538-.124.87-.299.902-.903 1.728-2.229 3.05l-.622.619-.622-.619c-1.326-1.322-1.93-2.148-2.229-3.05-.11-.332-.123-.421-.124-.87-.001-.568.058-.846.277-1.304a3.03 3.03 0 0 1 2.188-1.654c.286-.052.997-.019 1.29.06m-1.192 1.473c-.893.333-1.114 1.476-.406 2.099a1.207 1.207 0 0 0 1.636 0c.655-.577.519-1.634-.263-2.038-.221-.114-.738-.146-.967-.061M8.237 12.94c.696 1.222.909 1.563 1.085 1.74.173.175.463.359 1.408.895.655.371 1.19.688 1.19.703 0 .016-.486.594-1.08 1.285-.607.707-1.124 1.345-1.181 1.459-.126.252-.178.567-.179 1.068 0 .234-.016.39-.04.39-.077 0-.934-.329-1.295-.498-2.695-1.255-4.625-3.808-5.04-6.667-.078-.533-.123-1.229-.09-1.402l.025-.134 2.05-.186a84.939 84.939 0 0 1 2.166-.179c.109.006.166.095.981 1.526" fill="#667085" fill-rule="evenodd"/></svg>