<svg width="24" height="24" fill="none" xmlns="http://www.w3.org/2000/svg"><path d="M11.041 1.045c-1.47.13-2.98.585-4.26 1.283-.985.538-1.77 1.13-2.583 1.947-1.682 1.693-2.712 3.742-3.086 6.145-.073.467-.087.73-.087 1.58 0 .85.014 1.113.087 1.58.378 2.425 1.41 4.467 3.125 6.183 1.716 1.715 3.762 2.749 6.183 3.124.456.071.743.088 1.54.09 1.023.003 1.359-.028 2.209-.198 4.057-.815 7.348-3.94 8.41-7.989.219-.834.396-2.089.393-2.79-.002-.531-.172-1.784-.336-2.48-1.091-4.64-4.986-8-9.736-8.401a6.8 6.8 0 0 1-.66-.081c-.164-.044-.663-.041-1.199.007m1.222 2.605a8.21 8.21 0 0 1 1.557 2.432c.153.367.383 1.049.361 1.07-.01.01-.347-.015-.749-.055A17.563 17.563 0 0 0 12 7.024c-.385 0-1.029.033-1.432.073-.402.04-.74.065-.75.054-.037-.037.312-.978.538-1.451a7.852 7.852 0 0 1 1.381-2.05c.127-.137.246-.25.263-.25.017 0 .136.113.263.25M9.12 3.616c0 .008-.097.18-.216.38-.447.758-.883 1.866-1.18 3.001l-.15.577-.577.15c-1.121.293-2.161.702-2.973 1.169-.218.125-.403.221-.411.214-.063-.064.576-1.421.908-1.926.913-1.393 2.086-2.434 3.539-3.145.611-.299 1.06-.477 1.06-.42m6.28.172a8.822 8.822 0 0 1 4.55 4.232c.187.375.464 1.059.44 1.084-.01.009-.196-.086-.414-.211-.803-.462-1.872-.882-2.973-1.169l-.577-.15-.15-.577c-.294-1.125-.688-2.133-1.146-2.935a15.266 15.266 0 0 1-.245-.436c-.019-.045.1-.007.515.162m-2.974 5.253c.217.023.789.119 1.271.213l.877.172.172.877c.309 1.575.309 1.819-.001 3.394l-.172.878-.856.17c-.472.094-1.05.193-1.287.219-.539.061-.953.019-2.147-.219l-.856-.17-.172-.878c-.31-1.575-.31-1.819-.001-3.394l.172-.877.877-.172c.778-.153 1.291-.232 1.623-.249.058-.003.283.014.5.036m-5.266.814c0 .03-.03.322-.068.65-.092.812-.091 2.153.003 3.008.039.36.064.662.054.671-.037.038-1.001-.326-1.509-.569a9.91 9.91 0 0 1-.98-.552c-.4-.267-1.003-.76-1.197-.978-.076-.086-.076-.087.04-.21.222-.234.838-.731 1.197-.965.49-.321 1.309-.721 1.906-.931.565-.2.554-.197.554-.124m10.186.107c.955.327 1.965.889 2.674 1.486.45.38.596.533.561.59a6.237 6.237 0 0 1-.411.385 7.93 7.93 0 0 1-1.81 1.192c-.508.243-1.472.607-1.509.569-.01-.009.015-.311.054-.671.093-.848.094-2.19.002-3.008-.071-.629-.076-.705-.051-.705.008 0 .229.073.49.162M4.062 15.13c.802.458 1.81.852 2.935 1.146l.577.15.15.577c.297 1.136.733 2.243 1.181 3.002.119.202.21.373.203.381-.034.033-.553-.176-1.059-.426a8.74 8.74 0 0 1-4.263-4.567c-.167-.407-.205-.527-.16-.508.019.008.215.118.436.245m16.316-.16a8.22 8.22 0 0 1-.164.423 8.74 8.74 0 0 1-4.263 4.567c-.507.251-1.025.459-1.059.425-.008-.007.08-.174.196-.369.457-.777.89-1.874 1.188-3.013l.15-.577.577-.15c1.141-.298 2.24-.731 2.977-1.173a4.3 4.3 0 0 1 .393-.219c.018-.002.02.037.005.086m-9.873 1.937c.818.092 2.16.091 3.008-.002.36-.039.661-.064.67-.055.02.02-.215.712-.363 1.07-.38.918-1.102 2.015-1.696 2.577l-.124.118-.124-.118c-.234-.221-.731-.837-.967-1.197a10.671 10.671 0 0 1-.947-1.954 14.811 14.811 0 0 1-.162-.49c0-.025.076-.02.705.051" fill="#667085" fill-rule="evenodd"/></svg>