<svg width="24" height="24" fill="none" xmlns="http://www.w3.org/2000/svg"><path d="M17.978 1.492a.988.988 0 0 0-.577.933c.001.275.109.482.437.836 1.05 1.132 1.751 2.423 2.103 3.871.32 1.321.287 2.956-.087 4.288a8.593 8.593 0 0 1-1.62 3.08c-.809.968-1.712 1.684-2.774 2.202-2.01.979-4.246 1.103-6.425.357-.743-.255-1.872-.862-2.454-1.319-.075-.059-.058-.082.44-.581.285-.285.53-.519.545-.519.015 0 .16.091.321.203 1.358.939 2.867 1.373 4.324 1.243a6.864 6.864 0 0 0 2.46-.666c3.562-1.705 5.023-5.972 3.242-9.467a7.032 7.032 0 0 0-5.432-3.791 8.014 8.014 0 0 0-.82-.041A6.926 6.926 0 0 0 6.6 4.305c-.916.962-1.506 2.105-1.806 3.5-.121.563-.133 1.864-.022 2.409.173.851.578 1.803 1.101 2.586l.281.42-2.111 2.12c-1.961 1.968-2.115 2.134-2.163 2.311-.03.112-.041.283-.028.412.07.681.824 1.09 1.427.776.078-.04.51-.444.961-.896.45-.453.834-.823.852-.823.018 0 .178.111.356.246 1.491 1.135 3.321 1.889 5.032 2.074.231.025.478.054.55.064l.13.02v1.073l-2.13.011c-2.1.012-2.132.013-2.293.099-.374.201-.613.644-.555 1.031.04.271.243.577.475.721l.197.121 5.223.011c3.888.009 5.267 0 5.393-.035.215-.059.519-.323.615-.534.17-.375.046-.915-.27-1.176-.292-.242-.337-.246-2.602-.246H13.16v-.64c0-.352.008-.64.018-.64.01 0 .212-.037.45-.082 2.379-.452 4.164-1.36 5.593-2.843A10.5 10.5 0 0 0 20.388 3.26c-.464-.696-1.215-1.562-1.498-1.728a1.037 1.037 0 0 0-.912-.04m-5.049 2.781a4.991 4.991 0 0 1 3.634 3.807c.102.487.124 1.358.046 1.823-.351 2.092-1.876 3.666-3.989 4.12-.442.095-1.397.096-1.871.003a5.029 5.029 0 0 1-3.97-3.906 5.873 5.873 0 0 1-.062-1.613A4.94 4.94 0 0 1 8.12 5.598a5.053 5.053 0 0 1 2.7-1.417c.227-.042.512-.055.98-.044.574.013.721.031 1.129.136" fill="#667085" fill-rule="evenodd"/></svg>