<svg width="24" height="24" fill="none" xmlns="http://www.w3.org/2000/svg"><path d="M11.06 1.043c-2.455.229-4.675 1.273-6.495 3.053-.736.72-1.51 1.707-1.926 2.455a.772.772 0 0 1-.227.248c-.104.062-.132.105-.132.201 0 .067-.07.261-.155.431a12.294 12.294 0 0 0-.962 2.855c-.324 1.711-.144 3.685.495 5.446a11.13 11.13 0 0 0 4.734 5.72c3.858 2.302 8.642 2.021 12.288-.723.593-.447 1.602-1.456 2.049-2.049 1.573-2.09 2.348-4.506 2.257-7.04-.072-2.03-.652-3.838-1.769-5.52-.827-1.245-2.078-2.448-3.382-3.252-.728-.449-1.7-.904-2.455-1.149a1.525 1.525 0 0 1-.4-.191c-.281-.235-.572-.298-.854-.186-.151.061-.175.057-.871-.124-.649-.169-.765-.187-1.255-.199-.297-.007-.72.004-.94.024m1.639 2.082c.286.069.526.13.533.135.012.011-.19 3.074-.204 3.082l-2.008.893c-1.1.489-2.061.938-2.136.997-.076.06-.35.391-.611.738s-.485.63-.496.63c-.016 0-3.104-2.189-3.251-2.304-.008-.007.102-.179.245-.384 1.375-1.964 3.338-3.291 5.518-3.731 1.061-.214 1.691-.229 2.41-.056m3.242.85c1.337.657 2.416 1.544 3.272 2.69a8.803 8.803 0 0 1 1.693 4.055c.097.634.097 1.927 0 2.56a8.667 8.667 0 0 1-.846 2.7c-.896 1.818-2.252 3.179-4.067 4.079-2.137 1.06-4.541 1.228-6.833.476-2.276-.746-4.119-2.349-5.214-4.535a8.832 8.832 0 0 1-.851-2.72c-.086-.565-.098-1.793-.021-2.252.113-.677.456-1.908.532-1.908.021 0 .822.559 1.778 1.243.957.684 1.825 1.281 1.928 1.327.279.125.76.14 1.061.034.398-.14.563-.298 1.187-1.135l.58-.779 2.1-.933c2.047-.91 2.106-.939 2.322-1.155.251-.252.388-.512.44-.838.019-.123.073-.854.119-1.624.091-1.526.097-1.58.171-1.58.027 0 .32.133.649.295m-4.106 8.2a1.73 1.73 0 0 0-.717.454c-.069.078-.332.559-.585 1.068-.46.924-.461.927-.479 1.265l-.019.338.479 1.428c.332.989.518 1.485.606 1.611.176.257.473.479.775.579.246.082.315.085 1.732.074l1.475-.012.259-.128a1.81 1.81 0 0 0 .424-.3c.2-.209 1.743-2.511 1.864-2.78.122-.273.12-.784-.005-1.102-.103-.263-.423-.637-.64-.748-.476-.242-3.339-1.428-3.857-1.599-.67-.219-.936-.249-1.312-.148m1.047 2.179c.354.12 2.514 1.032 2.571 1.085.019.018-.196.376-.476.796l-.51.765h-1.74l-.322-.963-.321-.964.207-.416c.114-.23.218-.417.231-.417.012 0 .175.051.36.114" fill="#667085" fill-rule="evenodd"/></svg>