<svg width="24" height="24" fill="none" xmlns="http://www.w3.org/2000/svg"><path d="M11.62 1.027c-3.801.154-7.127 2.132-9.101 5.413-.714 1.187-1.203 2.593-1.425 4.1-.099.673-.099 2.247 0 2.92.318 2.162 1.122 3.962 2.51 5.62 1.746 2.086 4.248 3.446 7.036 3.824.774.105 2.215.097 2.94-.016 2.414-.376 4.471-1.417 6.181-3.127 1.881-1.88 2.966-4.208 3.2-6.864.056-.634.006-1.434-.163-2.577-.19-1.287-.725-2.769-1.417-3.921A10.92 10.92 0 0 0 12.92 1.12c-.275-.024-.598-.06-.717-.081a1.468 1.468 0 0 0-.26-.031 5.63 5.63 0 0 1-.323.019M9.339 3.944c-1.15 1.911-1.948 4.318-2.186 6.594L7.105 11H3.199l.024-.17a9.05 9.05 0 0 1 2.015-4.559c.791-.944 1.929-1.798 3.089-2.318.423-.189 1.236-.483 1.263-.457.006.007-.106.209-.251.448m5.893-.177a8.705 8.705 0 0 1 4.729 4.365c.411.854.678 1.736.816 2.698l.024.17h-3.906l-.048-.462c-.237-2.272-1.037-4.685-2.186-6.592-.143-.239-.261-.44-.261-.448 0-.026.424.111.832.269m-2.915.535c1.324 1.927 2.198 4.197 2.424 6.298.013.121.032.261.042.31l.019.09h-5.6l.017-.11c.01-.06.037-.263.061-.45.269-2.12 1.098-4.236 2.411-6.15.155-.226.294-.41.309-.41.015 0 .158.19.317.422m-5.164 9.16c.238 2.275 1.036 4.683 2.186 6.592.143.239.261.44.261.448 0 .027-.431-.114-.88-.288a8.685 8.685 0 0 1-4.681-4.346 9.106 9.106 0 0 1-.816-2.698L3.199 13h3.906l.048.462m7.628-.352c-.01.061-.037.263-.061.45-.269 2.12-1.098 4.236-2.411 6.15-.155.225-.294.41-.309.41-.015 0-.154-.184-.309-.41-1.313-1.914-2.142-4.03-2.411-6.15a21.536 21.536 0 0 0-.061-.45L9.202 13h5.596l-.017.11m5.996.06a9.08 9.08 0 0 1-2.007 4.55 8.802 8.802 0 0 1-3.49 2.494c-.449.174-.88.315-.88.288 0-.008.118-.209.261-.448 1.149-1.907 1.949-4.32 2.186-6.592l.048-.462h3.906l-.024.17" fill="#667085" fill-rule="evenodd"/></svg>