<svg width="24" height="24" fill="none" xmlns="http://www.w3.org/2000/svg"><path d="M11.1 1.046c-.725.063-1.67.257-2.4.494-.414.135-1.223.458-1.3.519-.033.027-.234.14-.447.252C4.418 3.65 2.506 5.849 1.597 8.472a12.952 12.952 0 0 0-.504 2.068c-.1.678-.1 2.218 0 2.86.421 2.696 1.624 4.984 3.539 6.734 1.617 1.477 3.586 2.413 5.788 2.751.741.114 2.044.149 2.342.062.917-.267.983-1.52.099-1.889-.1-.042-.306-.058-.75-.058-3.303 0-6.152-1.664-7.839-4.578l-.231-.399.43-.251c.236-.138.458-.251.493-.252.035 0 .879.153 1.876.34.997.187 1.878.34 1.959.34.53 0 1.11-.392 1.356-.915l.105-.225.012-1.772.011-1.772.905-1.548c.498-.851.94-1.627.983-1.723a1.553 1.553 0 0 0-.027-1.243c-.05-.1-.608-.916-1.239-1.813a77.54 77.54 0 0 1-1.168-1.683c-.021-.055.677-.263 1.383-.414.446-.095 1.487-.093 2.06.003 1.218.205 2.392.678 3.542 1.428l.437.285-.42.32C15.41 6.14 14.8 7.231 14.8 8.596c0 .662.126 1.179.444 1.825.31.628.9 1.354 1.402 1.723.456.335 1.697.813 2.674 1.03 1 .221 2.52.382 2.875.303a1.01 1.01 0 0 0 .748-.702c.068-.225.076-1.068.016-1.715-.239-2.599-1.322-4.931-3.139-6.765a10.699 10.699 0 0 0-2.601-1.967A10.966 10.966 0 0 0 11.1 1.046M9.036 6.01l1.169 1.669-.864 1.478a56.414 56.414 0 0 0-.952 1.67c-.086.187-.089.239-.101 1.723-.007.937-.026 1.53-.05 1.53-.021 0-.76-.135-1.643-.3-.883-.165-1.681-.3-1.773-.3-.259 0-.567.109-.975.344a3.73 3.73 0 0 1-.404.216c-.031 0-.278-.874-.362-1.28-.171-.831-.028-2.285.335-3.406.666-2.051 2.077-3.79 4.038-4.978.268-.162.29-.168.35-.104.035.037.59.819 1.232 1.738m10.106.71c.362.488.562.809.808 1.302.491.982.762 1.923.906 3.148.022.187.021.19-.092.19-.188 0-1.016-.154-1.495-.278-.869-.226-1.293-.421-1.642-.758a2.868 2.868 0 0 1-.729-1.144c-.093-.278-.105-.369-.091-.7.014-.344.03-.409.169-.69.197-.398.48-.666 1.235-1.168.424-.281.579-.366.609-.33.022.027.167.219.322.428m-5.964 5.973c-.238.113-.466.363-.532.581-.11.368-.135.289 1.557 4.752a323.969 323.969 0 0 0 1.676 4.371.99.99 0 0 0 1.611.209c.106-.117.288-.531.826-1.875l.69-1.725 1.725-.69c1.861-.745 1.941-.788 2.111-1.139.105-.219.114-.572.02-.799a1.09 1.09 0 0 0-.462-.497c-.077-.04-2.03-.789-4.34-1.665-4.645-1.761-4.487-1.712-4.882-1.523m4.122 3.374c1.012.385 1.845.705 1.852.711.006.007-.317.144-.719.305-.606.243-.758.32-.894.456s-.213.288-.456.894a10.39 10.39 0 0 1-.304.719c-.007-.007-.327-.84-.712-1.852l-.73-1.917c-.026-.064-.018-.072.046-.046.042.017.905.346 1.917.73" fill="#667085" fill-rule="evenodd"/></svg>