<svg width="24" height="24" fill="none" xmlns="http://www.w3.org/2000/svg"><path d="M11.3 1.026c-2.848.231-5.39 1.516-7.335 3.709-.227.256-.437.465-.465.465-.029 0-.079.076-.111.17-.031.094-.176.337-.321.541-1.859 2.626-2.464 5.463-1.802 8.448.674 3.036 2.764 5.694 5.634 7.166.969.496 1.894.826 2.927 1.042.307.064.452.113.498.17.058.07.082.074.214.034.129-.04.22-.027.715.097.563.142.57.143 1.186.118 2.267-.091 4.375-.854 6.24-2.257.593-.447 1.602-1.456 2.049-2.049 1.987-2.64 2.712-5.892 2.01-9.021-.195-.867-.606-2.027-.815-2.297a6.293 6.293 0 0 1-.341-.562c-1.498-2.715-3.956-4.673-6.827-5.437-1.062-.283-2.451-.418-3.456-.337m1.979 2.075c2.268.35 4.298 1.606 5.767 3.567l.234.312-3.99.022c-3.882.022-3.999.025-4.33.107a6.136 6.136 0 0 0-1.18.42c-.919.458-1.808 1.345-2.245 2.241-.061.126-.121.23-.133.229-.03-.001-2.162-3.701-2.162-3.751 0-.023.184-.234.408-.469C6.903 4.464 8.58 3.525 10.28 3.184c.275-.056.662-.118.86-.14.485-.053 1.624-.022 2.139.057M5.878 11.4c.971 1.683 1.816 3.105 1.879 3.16.062.055.223.246.357.424.883 1.177 2.207 1.915 3.586 2.001.308.019.458.009.654-.043.14-.036.26-.061.266-.054.007.006-.472.849-1.063 1.872a186.772 186.772 0 0 0-1.088 1.894c-.018.052-.62-.082-1.184-.262a9.22 9.22 0 0 1-3.048-1.624c-.396-.32-1.161-1.109-1.472-1.519a8.759 8.759 0 0 1-1.671-3.976c-.107-.692-.097-1.897.021-2.565.146-.829.359-1.509.742-2.367l.107-.24.074.12c.041.065.869 1.496 1.84 3.179m6.902-2.298c1.014.271 1.844 1.106 2.125 2.138.097.359.097 1.161 0 1.52a3.069 3.069 0 0 1-1.604 1.94c-.455.217-.735.277-1.301.277s-.846-.06-1.301-.277a3.069 3.069 0 0 1-1.604-1.94c-.097-.359-.097-1.161 0-1.52a3.042 3.042 0 0 1 2.395-2.198c.286-.052.997-.019 1.29.06m7.755.328c.339 1.03.44 1.635.441 2.63 0 1.447-.289 2.657-.941 3.944-1.219 2.406-3.503 4.135-6.197 4.693-.472.098-1.12.187-1.153.159-.009-.007.812-1.449 1.823-3.205 1.011-1.755 1.875-3.29 1.921-3.411.046-.121.14-.355.21-.52.605-1.435.43-2.985-.493-4.356a6.024 6.024 0 0 1-.226-.35c0-.008 1.007-.014 2.237-.014h2.236l.142.43" fill="#667085" fill-rule="evenodd"/></svg>