<svg width="24" height="24" fill="none" xmlns="http://www.w3.org/2000/svg"><path d="M11.62 2.635c-.066.018-2.391 1.169-5.166 2.557-3.939 1.97-5.078 2.556-5.189 2.67-.373.385-.336 1.052.08 1.417.082.072.713.407 1.402.745L4 10.638v3.012c0 3.314-.005 3.245.247 3.718.074.138.233.334.389.479.247.23.457.343 3.344 1.797 1.694.853 3.219 1.598 3.389 1.654.424.14.839.14 1.262-.001.17-.056 1.695-.801 3.389-1.654 2.88-1.451 3.097-1.568 3.344-1.796.157-.146.315-.34.389-.48.247-.463.246-.446.246-3.739L20 10.635l1.256-.615c.692-.339 1.323-.674 1.403-.744.415-.365.448-1.024.072-1.412-.12-.123-1.144-.651-5.23-2.694L12.42 2.629l-.34-.013a2.351 2.351 0 0 0-.46.019m4.262 3.966c2.113 1.056 3.833 1.934 3.823 1.95-.01.016-1.748.893-3.862 1.949L12 12.42 8.157 10.5C6.043 9.444 4.305 8.567 4.295 8.551c-.019-.03 7.608-3.865 7.695-3.869.028-.001 1.779.862 3.892 1.919m-4.116 7.85c.445.082.473.071 3.468-1.428l2.767-1.384-.011 2.391-.01 2.39-2.99 1.5-2.99 1.5-2.99-1.5-2.99-1.5-.01-2.39-.011-2.391 2.767 1.384c2.084 1.043 2.823 1.395 3 1.428" fill="#667085" fill-rule="evenodd"/></svg>