<svg width="24" height="24" fill="none" xmlns="http://www.w3.org/2000/svg"><path d="M11.696 2.359c-.219.046-10.244 5.059-10.39 5.195-.266.248-.369.677-.249 1.038.113.339.287.476 1.159.914l.782.394.011 3.5.011 3.5.094.234c.137.339.4.701.649.894.274.213 7.421 3.501 7.806 3.592.317.074.545.074.861 0 .384-.091 7.534-3.38 7.807-3.592.249-.193.512-.555.649-.894l.094-.234.011-3.5.011-3.5.782-.394c.872-.438 1.046-.575 1.159-.914.077-.234.06-.552-.04-.747-.168-.324-.112-.293-5.409-2.936-4.939-2.464-5.123-2.551-5.374-2.568a1.975 1.975 0 0 0-.424.018M15.86 6.33c2.123 1.061 3.86 1.939 3.86 1.95 0 .012-.612.326-1.36.7L17 9.659l-2.39-1.191c-2.285-1.139-2.4-1.192-2.61-1.189a.994.994 0 0 0-.943 1.313c.127.382.224.446 2.021 1.347.903.452 1.642.831 1.642.841 0 .011-.612.326-1.36.7l-1.36.68-3.86-1.93C6.017 9.169 4.28 8.291 4.28 8.28c0-.015 7.656-3.866 7.71-3.878.005-.001 1.747.866 3.87 1.928m-7.559 6.22 3.263 1.63h.868l1.784-.889L16 12.402v1.014c0 .787.013 1.051.058 1.18a.994.994 0 0 0 1.412.547c.116-.064.256-.176.312-.249.211-.276.218-.344.218-1.979v-1.514l.479-.241a9.17 9.17 0 0 1 .5-.24c.012 0 .021 1.24.021 2.755 0 2.156-.011 2.764-.05 2.796-.092.074-6.88 3.169-6.95 3.169-.07 0-6.858-3.095-6.95-3.169-.039-.032-.05-.64-.05-2.796 0-1.515.009-2.755.019-2.755s1.487.733 3.282 1.63" fill="#667085" fill-rule="evenodd"/></svg>