<svg width="24" height="24" fill="none" xmlns="http://www.w3.org/2000/svg"><path d="M4.656 2.041c-1.105.116-2.109.905-2.46 1.934C2.024 4.479 2 4.794 2 6.538c0 1.744.007 1.806.222 2.088.055.073.186.182.289.243.161.095.233.111.489.111s.328-.016.489-.111c.103-.061.236-.173.294-.25.204-.267.213-.34.216-1.759.003-1.689.042-2.203.184-2.417.057-.086.174-.203.26-.26.214-.142.728-.181 2.417-.184 1.419-.003 1.492-.012 1.759-.216.077-.058.189-.191.25-.294.095-.161.111-.233.111-.489s-.016-.328-.111-.489a1.24 1.24 0 0 0-.248-.293c-.272-.208-.38-.218-2.097-.213-.871.003-1.712.019-1.868.036m11.056.01c-.251.083-.492.282-.596.494-.136.276-.134.644.006.916.115.223.366.435.589.497.088.025.679.042 1.449.042a33.3 33.3 0 0 1 1.772.04c.426.036.49.051.647.159.385.265.418.472.42 2.566.001 1.497.012 1.584.223 1.861.055.073.186.182.289.243.161.095.233.111.489.111.257 0 .327-.016.492-.113.22-.129.409-.369.471-.597.028-.104.037-.769.027-1.964-.013-1.597-.024-1.836-.088-2.066a3.012 3.012 0 0 0-2.189-2.145c-.213-.056-.538-.069-2.053-.079-1.337-.01-1.838-.001-1.948.035m-4 4c-.252.083-.492.283-.596.494l-.096.195-.011 2.13-.011 2.13H8.957c-1.304 0-2.102.015-2.209.042a1.062 1.062 0 0 0-.633.505c-.135.274-.132.643.007.914.115.223.366.435.589.497.094.026.916.042 2.219.042H11v2.075c0 2.249.001 2.262.222 2.551.055.073.186.182.289.243.161.095.233.111.489.111s.328-.016.489-.111c.213-.125.375-.318.454-.539.042-.118.054-.599.055-2.24L13 13l2.09-.002c1.641-.001 2.122-.013 2.24-.055.221-.079.414-.241.539-.454.095-.161.111-.233.111-.489s-.016-.328-.111-.489a1.24 1.24 0 0 0-.248-.293c-.279-.212-.344-.218-2.567-.218H13V8.93c0-1.303-.016-2.125-.042-2.219a1.058 1.058 0 0 0-.482-.581c-.219-.112-.558-.148-.764-.079m-9 9c-.252.083-.492.283-.596.494l-.096.195.001 1.88.002 1.88.11.36a3.01 3.01 0 0 0 2.427 2.098c.408.065 3.583.052 3.77-.015.221-.079.414-.241.539-.454.095-.161.111-.233.111-.489s-.016-.328-.111-.489a1.24 1.24 0 0 0-.248-.293c-.268-.204-.392-.218-1.977-.219-.805-.001-1.596-.019-1.758-.04-.349-.045-.522-.141-.687-.38-.108-.157-.123-.221-.159-.647A33.3 33.3 0 0 1 4 17.16c0-.77-.017-1.361-.042-1.449a1.058 1.058 0 0 0-.482-.581c-.219-.112-.558-.148-.764-.079m18 0c-.252.083-.492.283-.596.494-.095.194-.096.205-.122 1.915-.014.946-.044 1.788-.066 1.871a.928.928 0 0 1-.383.506c-.212.131-.606.16-2.177.162-.885.001-1.518.018-1.62.043a1.282 1.282 0 0 0-.353.177c-.636.462-.432 1.537.33 1.742.11.03.742.039 1.969.028 2.003-.017 2.055-.023 2.613-.291a3.13 3.13 0 0 0 1.391-1.391c.268-.558.274-.61.291-2.613.011-1.227.002-1.859-.028-1.969a1.052 1.052 0 0 0-.485-.595c-.219-.112-.558-.148-.764-.079" fill="#667085" fill-rule="evenodd"/></svg>