<svg width="24" height="24" fill="none" xmlns="http://www.w3.org/2000/svg"><path d="M2.643 2.069a1.066 1.066 0 0 0-.577.591C2.005 2.839 2 3.592 2 12c0 10.264-.027 9.375.299 9.701a.984.984 0 0 0 1.402 0C4.027 21.375 4 22.264 4 12c0-10.264.027-9.375-.299-9.701a.998.998 0 0 0-1.058-.23m4.597-.032a1.058 1.058 0 0 0-.698.688c-.077.259-.077.291 0 .55.117.394.542.724.933.725.292 0 .489-.082.712-.299.363-.354.419-.828.148-1.247-.224-.345-.715-.532-1.095-.417m4.425.019a1.06 1.06 0 0 0-.558.508c-.229.435-.081.977.345 1.264a.991.991 0 0 0 1.536-.738.967.967 0 0 0-.488-.952c-.225-.132-.601-.169-.835-.082m4.575-.021c-.467.153-.734.504-.734.965 0 .886 1.021 1.318 1.68.711.498-.46.374-1.285-.24-1.598-.175-.089-.547-.13-.706-.078m4.425.024c-.812.289-.894 1.435-.13 1.828C21.186 4.222 22 3.729 22 3c0-.671-.703-1.167-1.335-.941m-9.087 4.536c-.203.093-.469.392-.531.597a.958.958 0 0 0 .222.969.962.962 0 0 0 1.462 0c.358-.397.363-.912.014-1.309-.212-.24-.415-.33-.745-.33-.167 0-.318.026-.422.073m9.001 0a1.22 1.22 0 0 0-.291.203c-.218.218-.267.347-.267.702s.049.484.267.702a1.006 1.006 0 0 0 1.387.026c.189-.179.324-.483.324-.728 0-.372-.274-.779-.625-.925-.188-.079-.6-.068-.795.02M7.24 11.037a1.058 1.058 0 0 0-.698.688c-.077.259-.077.291 0 .55.117.394.542.724.933.725.292 0 .489-.082.712-.299.363-.354.419-.828.148-1.247-.224-.345-.715-.532-1.095-.417m4.425.019a1.06 1.06 0 0 0-.558.508c-.229.435-.081.977.345 1.264a.991.991 0 0 0 1.536-.738.967.967 0 0 0-.488-.952c-.225-.132-.601-.169-.835-.082m4.575-.021c-.467.153-.734.504-.734.965 0 .886 1.021 1.318 1.68.711.498-.46.374-1.285-.24-1.598-.175-.089-.547-.13-.706-.078m4.425.024c-.812.289-.894 1.435-.13 1.828.651.335 1.465-.158 1.465-.887 0-.671-.703-1.167-1.335-.941m-9.087 4.536c-.203.093-.469.392-.531.597a.958.958 0 0 0 .222.969.962.962 0 0 0 1.462 0 .958.958 0 0 0 .222-.969c-.062-.205-.328-.504-.531-.597-.216-.098-.628-.098-.844 0m9.001 0a1.22 1.22 0 0 0-.291.203c-.218.218-.267.347-.267.702s.049.484.267.702a1.006 1.006 0 0 0 1.387.026c.189-.179.324-.483.324-.728 0-.372-.274-.779-.625-.925-.188-.079-.6-.068-.795.02M7.24 20.037a1.058 1.058 0 0 0-.698.688c-.077.259-.077.291 0 .55.117.394.542.724.933.725.292 0 .489-.082.712-.299.363-.354.419-.828.148-1.247-.224-.345-.715-.532-1.095-.417m4.425.019a1.06 1.06 0 0 0-.558.508c-.229.435-.081.977.345 1.264a.991.991 0 0 0 1.536-.738.967.967 0 0 0-.488-.952c-.225-.132-.601-.169-.835-.082m4.575-.021c-.467.153-.734.504-.734.965 0 .886 1.021 1.318 1.68.711.498-.46.374-1.285-.24-1.598-.175-.089-.547-.13-.706-.078m4.425.024c-.812.289-.894 1.435-.13 1.828.651.335 1.465-.158 1.465-.887 0-.671-.703-1.167-1.335-.941" fill="#667085" fill-rule="evenodd"/></svg>