<svg width="24" height="24" fill="none" xmlns="http://www.w3.org/2000/svg"><path d="M2.643 2.066C2.288 2.197 2 2.615 2 3c0 .575.526 1.048 1.1.988 1.009-.104 1.237-1.424.327-1.895-.178-.092-.57-.105-.784-.027m4.597-.031a1.074 1.074 0 0 0-.488.317c-.445.493-.272 1.265.348 1.554a.99.99 0 0 0 1.301-.468c.32-.628-.118-1.374-.834-1.421-.125-.008-.272 0-.327.018m4.403.031C11.288 2.197 11 2.615 11 3c0 .575.526 1.048 1.1.988 1.009-.104 1.237-1.424.327-1.895-.178-.092-.57-.105-.784-.027m4.597-.031a1.074 1.074 0 0 0-.488.317c-.445.493-.272 1.265.348 1.554a.99.99 0 0 0 1.301-.468c.32-.628-.118-1.374-.834-1.421-.125-.008-.272 0-.327.018m4.403.034a1.066 1.066 0 0 0-.577.591C20.005 2.839 20 3.592 20 12c0 10.264-.027 9.375.299 9.701a.984.984 0 0 0 1.402 0c.326-.326.299.563.299-9.701 0-10.264.027-9.375-.299-9.701a.998.998 0 0 0-1.058-.23M2.617 6.577c-.509.221-.751.837-.522 1.323.18.379.504.591.905.592a.98.98 0 0 0 .998-.992c0-.4-.218-.742-.577-.905-.193-.088-.623-.097-.804-.018m9 0c-.509.221-.751.837-.522 1.323.18.379.504.591.905.592a.98.98 0 0 0 .998-.992c0-.4-.218-.742-.577-.905-.193-.088-.623-.097-.804-.018m-8.974 4.489C2.288 11.197 2 11.615 2 12c0 .575.526 1.048 1.1.988 1.009-.104 1.237-1.424.327-1.895-.178-.092-.57-.105-.784-.027m4.597-.031a1.074 1.074 0 0 0-.488.317c-.445.493-.272 1.265.348 1.554a.99.99 0 0 0 1.301-.468c.32-.628-.118-1.374-.834-1.421-.125-.008-.272 0-.327.018m4.403.031c-.355.131-.643.549-.643.934 0 .575.526 1.048 1.1.988 1.009-.104 1.237-1.424.327-1.895-.178-.092-.57-.105-.784-.027m4.597-.031a1.074 1.074 0 0 0-.488.317c-.445.493-.272 1.265.348 1.554a.99.99 0 0 0 1.301-.468c.32-.628-.118-1.374-.834-1.421-.125-.008-.272 0-.327.018M2.617 15.577c-.509.221-.751.837-.522 1.323.18.379.504.591.905.592a.98.98 0 0 0 .998-.992c0-.4-.218-.742-.577-.905-.193-.088-.623-.097-.804-.018m9 0c-.509.221-.751.837-.522 1.323.18.379.504.591.905.592a.98.98 0 0 0 .998-.992c0-.572-.415-.979-.998-.978a1.252 1.252 0 0 0-.383.055m-8.974 4.489C2.288 20.197 2 20.615 2 21c0 .575.526 1.048 1.1.988 1.009-.104 1.237-1.424.327-1.895-.178-.092-.57-.105-.784-.027m4.597-.031a1.074 1.074 0 0 0-.488.317c-.445.493-.272 1.265.348 1.554a.99.99 0 0 0 1.301-.468c.32-.628-.118-1.374-.834-1.421-.125-.008-.272 0-.327.018m4.403.031c-.355.131-.643.549-.643.934 0 .575.526 1.048 1.1.988 1.009-.104 1.237-1.424.327-1.895-.178-.092-.57-.105-.784-.027m4.597-.031a1.074 1.074 0 0 0-.488.317c-.445.493-.272 1.265.348 1.554a.99.99 0 0 0 1.301-.468c.32-.628-.118-1.374-.834-1.421-.125-.008-.272 0-.327.018" fill="#667085" fill-rule="evenodd"/></svg>