<svg width="24" height="24" fill="none" xmlns="http://www.w3.org/2000/svg"><path d="M3.576 2.059c-.677.148-1.213.625-1.461 1.301l-.095.26v5.8l.108.27c.06.149.163.349.229.445.271.395.764.723 1.235.821.294.061 5.522.061 5.816 0 .546-.114 1.135-.562 1.364-1.036.229-.477.228-.459.228-3.42 0-2.314-.009-2.759-.061-2.962a2 2 0 0 0-1.534-1.48c-.375-.08-5.463-.078-5.829.001M14.74 2.04c-.772.105-1.394.635-1.645 1.4-.066.201-.074.445-.086 2.878-.008 1.727.002 2.753.029 2.929.125.806.629 1.408 1.374 1.642.288.091.29.091 3.088.091 2.603 0 2.817-.005 3.04-.073A2.046 2.046 0 0 0 21.887 9.6l.093-.26V3.66l-.091-.253A2.079 2.079 0 0 0 20.6 2.113l-.26-.093-2.68-.006c-1.474-.003-2.788.009-2.92.026M8.897 4.039 9 4.078v2.398c0 1.318-.011 2.426-.024 2.461-.022.056-.277.063-2.475.063H4.05l-.025-.125c-.032-.159-.032-4.625 0-4.743.013-.048.053-.096.089-.105.141-.038 4.683-.026 4.783.012M20 6.5V9h-5V4h5v2.5M3.78 13.028c-.439.058-.874.27-1.176.572-.227.227-.364.451-.491.802l-.093.258v5.68l.093.26c.12.332.216.489.46.749.241.256.486.416.827.538l.26.093h5.68l.26-.093a2.046 2.046 0 0 0 1.307-1.347c.068-.223.073-.437.073-3.04 0-2.798 0-2.8-.091-3.088-.231-.736-.829-1.243-1.618-1.371-.237-.038-5.21-.05-5.491-.013m10.914.015a1.991 1.991 0 0 0-1.583 1.369c-.091.288-.091.29-.091 3.088 0 2.603.005 2.817.073 3.04.204.665.73 1.187 1.376 1.365.253.07.46.075 3.071.075h2.8l.255-.092a2.086 2.086 0 0 0 1.294-1.295l.091-.253v-5.68l-.093-.26a2.068 2.068 0 0 0-1.327-1.305c-.203-.067-.432-.073-2.94-.08-1.496-.004-2.813.008-2.926.028M9 17.5V20H4v-5h5v2.5m11 0V20h-5v-5h5v2.5" fill="#667085" fill-rule="evenodd"/></svg>