<svg width="24" height="24" fill="none" xmlns="http://www.w3.org/2000/svg"><path d="M2.643 2.066C2.288 2.197 2 2.615 2 3c0 .575.526 1.048 1.1.988 1.009-.104 1.237-1.424.327-1.895-.178-.092-.57-.105-.784-.027m4.597-.029a1.058 1.058 0 0 0-.698.688c-.077.259-.077.291 0 .55.117.394.542.724.933.725.292 0 .489-.082.712-.299.363-.354.419-.828.148-1.247-.224-.345-.715-.532-1.095-.417m4.425.019a1.057 1.057 0 0 0-.555.503l-.11.21v9.217c0 8.185.007 9.233.061 9.363.287.687 1.136.866 1.642.346.324-.334.297.55.297-9.695 0-10.183.023-9.363-.275-9.67a1.285 1.285 0 0 0-.302-.226c-.206-.098-.563-.12-.758-.048m4.575-.021c-.467.153-.734.504-.734.965 0 .886 1.021 1.318 1.68.711.498-.46.374-1.285-.24-1.598-.175-.089-.547-.13-.706-.078m4.425.024c-.812.289-.894 1.435-.13 1.828C21.186 4.222 22 3.729 22 3c0-.671-.703-1.167-1.335-.941M2.617 6.577c-.346.15-.616.556-.616.923 0 .245.135.549.324.728.472.448 1.266.307 1.586-.282.094-.175.094-.717 0-.892a1.177 1.177 0 0 0-.49-.459c-.193-.088-.623-.097-.804-.018m17.962.018a1.22 1.22 0 0 0-.291.203c-.218.218-.267.347-.267.702s.049.484.267.702a1.006 1.006 0 0 0 1.387.026c.189-.179.324-.483.324-.728 0-.372-.274-.779-.625-.925-.188-.079-.6-.068-.795.02M2.643 11.066C2.288 11.197 2 11.615 2 12c0 .575.526 1.048 1.1.988 1.009-.104 1.237-1.424.327-1.895-.178-.092-.57-.105-.784-.027m4.597-.029a1.058 1.058 0 0 0-.698.688c-.077.259-.077.291 0 .55.117.394.542.724.933.725.292 0 .489-.082.712-.299.363-.354.419-.828.148-1.247-.224-.345-.715-.532-1.095-.417m9-.002c-.467.153-.734.504-.734.965 0 .886 1.021 1.318 1.68.711.498-.46.374-1.285-.24-1.598-.175-.089-.547-.13-.706-.078m4.425.024c-.812.289-.894 1.435-.13 1.828.651.335 1.465-.158 1.465-.887 0-.671-.703-1.167-1.335-.941M2.617 15.577c-.346.15-.616.556-.616.923 0 .245.135.549.324.728.472.448 1.266.307 1.586-.282.094-.175.094-.717 0-.892a1.177 1.177 0 0 0-.49-.459c-.193-.088-.623-.097-.804-.018m17.962.018a1.22 1.22 0 0 0-.291.203c-.218.218-.267.347-.267.702s.049.484.267.702a1.006 1.006 0 0 0 1.387.026c.189-.179.324-.483.324-.728 0-.372-.274-.779-.625-.925-.188-.079-.6-.068-.795.02M2.643 20.066C2.288 20.197 2 20.615 2 21c0 .575.526 1.048 1.1.988 1.009-.104 1.237-1.424.327-1.895-.178-.092-.57-.105-.784-.027m4.597-.029a1.058 1.058 0 0 0-.698.688c-.077.259-.077.291 0 .55.117.394.542.724.933.725.292 0 .489-.082.712-.299.363-.354.419-.828.148-1.247-.224-.345-.715-.532-1.095-.417m9-.002c-.467.153-.734.504-.734.965 0 .886 1.021 1.318 1.68.711.498-.46.374-1.285-.24-1.598-.175-.089-.547-.13-.706-.078m4.425.024c-.812.289-.894 1.435-.13 1.828.651.335 1.465-.158 1.465-.887 0-.671-.703-1.167-1.335-.941" fill="#667085" fill-rule="evenodd"/></svg>