<svg width="24" height="24" fill="none" xmlns="http://www.w3.org/2000/svg"><path d="M5.692 2.043c-.839.077-1.499.324-2.126.797-.698.526-1.233 1.341-1.424 2.166-.138.595-.147 1.089-.132 7.314.014 5.55.021 6.171.082 6.467.199.969.73 1.824 1.48 2.384.539.402.985.601 1.656.737.33.067.756.072 6.772.072 6.031 0 6.441-.004 6.775-.072 1.635-.333 2.8-1.498 3.133-3.133.068-.334.072-.744.072-6.775 0-7.126.016-6.686-.263-7.456-.371-1.024-1.365-1.978-2.417-2.317-.642-.208-.406-.201-7.06-.209-3.399-.005-6.345.007-6.548.025M17.78 4.04c.352.021.743.066.87.099.555.145 1.069.659 1.21 1.21.119.463.139 1.416.139 6.631.001 5.203-.021 6.26-.136 6.691-.105.393-.455.821-.872 1.065-.415.243-.25.237-6.611.253-5.845.016-6.565.003-7.051-.126-.531-.141-1.048-.668-1.19-1.213-.116-.443-.138-1.526-.138-6.65 0-5.135.022-6.207.139-6.654.103-.394.412-.789.819-1.046.232-.146.577-.223 1.156-.258.761-.046 10.919-.048 11.665-.002m-6.163 2.537c-.183.079-.41.294-.508.479-.114.216-.121.659-.013.864.237.452.708.674 1.156.544.303-.088.518-.258.643-.508a1 1 0 0 0-.474-1.361c-.193-.088-.623-.097-.804-.018m-4.377 4.46c-.446.136-.728.509-.728.963 0 .405.207.724.588.905.484.229 1.078.01 1.32-.487.123-.251.108-.626-.036-.886-.22-.399-.731-.62-1.144-.495m4.427.026c-.369.117-.667.538-.667.939 0 .702.749 1.194 1.393.917.792-.34.813-1.423.036-1.825-.175-.09-.533-.105-.762-.031m4.573-.026c-.446.136-.728.509-.728.963 0 .405.207.724.588.905.484.229 1.078.01 1.32-.487.123-.251.108-.626-.036-.886-.22-.399-.731-.62-1.144-.495m-4.623 4.54c-.183.079-.41.294-.508.479-.114.216-.121.659-.013.864.237.452.708.674 1.156.544.471-.137.749-.494.747-.962-.002-.576-.416-.981-.999-.98a1.252 1.252 0 0 0-.383.055" fill="#667085" fill-rule="evenodd"/></svg>