<svg width="24" height="24" fill="none" xmlns="http://www.w3.org/2000/svg"><path d="M11.64 1.025c-.256.05-.616.194-.828.331-.3.195-.711.636-.905.972l-.154.266-.246-.145a4.558 4.558 0 0 0-.467-.236c-.412-.17-1.053-.097-1.62.184A2.695 2.695 0 0 0 5.995 4.08c-.088.294-.091.347-.105 2.63-.008 1.282-.024 2.33-.034 2.33-.01 0-.13-.056-.266-.125-.237-.119-.264-.124-.609-.104-.67.039-1.189.279-1.704.79a2.064 2.064 0 0 0-.471.64c-.302.618-.306.65-.304 2.479.001 1.667.018 1.924.183 2.76.374 1.893 1.431 3.744 2.875 5.034 1.456 1.3 3.137 2.092 5.08 2.393.642.099 2.078.099 2.72 0 2.91-.45 5.367-2.083 6.839-4.545.636-1.064 1.014-2.142 1.229-3.502.052-.331.066-.938.081-3.5.019-3.303.006-3.632-.163-4.12-.341-.978-1.27-1.678-2.366-1.781-.268-.026-.291-.021-.551.117a4.443 4.443 0 0 1-.283.144 8.07 8.07 0 0 1-.039-.67c-.027-.742-.078-.995-.288-1.43-.426-.884-1.403-1.499-2.379-1.498-.289 0-.536.085-.947.327l-.246.145-.154-.266c-.185-.32-.625-.796-.899-.972a2.126 2.126 0 0 0-1.094-.337 3.363 3.363 0 0 0-.46.006m.679 2.065a.869.869 0 0 1 .259.203c.081.112.082.156.102 3.96.02 3.795.021 3.849.104 4.027.094.204.283.409.47.511.172.093.718.094.886.002.187-.103.384-.316.476-.513.083-.177.084-.236.104-3.467.02-3.242.021-3.289.102-3.398.164-.219.282-.275.578-.275s.414.056.578.275c.081.109.082.156.102 3.398.02 3.227.022 3.29.104 3.467.094.204.283.409.47.511.175.094.717.094.892 0 .187-.102.376-.307.47-.511.08-.171.085-.264.104-1.807.019-1.576.023-1.631.104-1.74.135-.181.327-.272.576-.272.262 0 .456.098.591.299l.092.136-.012 3.362c-.012 3.33-.013 3.366-.104 3.797-.487 2.308-1.938 4.164-4.056 5.185-4.1 1.979-9.054-.073-10.448-4.329-.295-.901-.317-1.098-.333-2.971-.013-1.588-.009-1.688.063-1.82.216-.4.934-.431 1.191-.052.071.104.077.225.096 1.752.02 1.622.021 1.642.114 1.83.18.361.504.562.906.562a.974.974 0 0 0 .906-.562l.094-.19.02-4.967c.02-4.939.02-4.968.102-5.078.164-.219.282-.275.578-.275s.414.056.578.275c.081.109.082.156.102 3.398.02 3.227.022 3.29.104 3.467.094.204.283.409.47.511.175.094.717.094.892 0 .187-.102.376-.307.47-.511.083-.178.084-.232.104-4.027.02-3.804.021-3.848.102-3.96.107-.146.396-.293.578-.293a.87.87 0 0 1 .319.09" fill="#667085" fill-rule="evenodd"/></svg>