<svg width="24" height="24" fill="none" xmlns="http://www.w3.org/2000/svg"><path d="M7.387 3.044a3.96 3.96 0 0 0-2.835 1.721c-.109.162-.899 1.699-1.756 3.415-1.317 2.637-1.575 3.182-1.667 3.52l-.109.4v2.64c0 2.337.008 2.682.069 3.006a3.926 3.926 0 0 0 1.749 2.609c.418.269.858.445 1.389.553.332.068.791.072 7.773.072 6.995 0 7.44-.004 7.775-.072.934-.19 1.713-.646 2.288-1.338.424-.512.671-1.021.828-1.71.077-.338.083-.516.099-2.88.017-2.734.008-2.908-.192-3.509-.14-.422-3.065-6.279-3.351-6.711-.645-.973-1.691-1.595-2.89-1.718-.485-.05-8.696-.048-9.17.002M16.34 5.04c.724.07 1.185.382 1.568 1.063.196.347 2.452 4.835 2.452 4.877 0 .011-3.762.02-8.36.02-4.598 0-8.36-.01-8.36-.021 0-.071 2.429-4.854 2.591-5.101.324-.496.79-.778 1.378-.835.48-.046 8.251-.049 8.731-.003M21 14.61c0 1.713-.045 2.717-.137 3.061-.142.531-.7 1.077-1.232 1.204-.454.109-1.351.124-7.631.124-6.514 0-7.23-.014-7.68-.142-.544-.156-1.039-.662-1.181-1.207-.093-.356-.138-1.362-.139-3.08V13h18v1.61m-15.333.455C5.301 15.177 5 15.599 5 16c0 .242.119.521.299.701.303.303.271.299 2.718.297 1.702-.001 2.195-.013 2.313-.055.221-.079.414-.241.539-.454.095-.161.111-.233.111-.489s-.016-.328-.111-.489a.986.986 0 0 0-.547-.45c-.252-.089-4.364-.086-4.655.004" fill="#667085" fill-rule="evenodd"/></svg>