<svg width="24" height="24" fill="none" xmlns="http://www.w3.org/2000/svg"><path d="M9.643 2.069a1.02 1.02 0 0 0-.581.616c-.035.118-.208 1.088-.383 2.155a229.99 229.99 0 0 1-.343 2.05L8.314 7h-2.23c-2.521 0-2.482-.004-2.785.299a.984.984 0 0 0 0 1.402C3.6 9.002 3.582 9 5.92 9h2.067l-.5 3-.5 3H4.921c-2.339 0-2.321-.002-2.622.299a.984.984 0 0 0 0 1.402c.298.298.303.299 2.448.299 1.041 0 1.893.007 1.893.016 0 .008-.145.895-.323 1.97-.229 1.385-.316 2.011-.301 2.148a.98.98 0 0 0 .662.805c.517.183 1.105-.109 1.26-.624.035-.118.208-1.088.383-2.155.176-1.067.33-1.989.343-2.05l.022-.11h2.977c1.637 0 2.977.007 2.977.016 0 .008-.145.895-.323 1.97-.229 1.385-.316 2.011-.301 2.148a.98.98 0 0 0 .662.805c.517.183 1.105-.109 1.26-.624.035-.118.208-1.088.383-2.155.176-1.067.33-1.989.343-2.05l.022-.11h1.73c1.964 0 1.989-.003 2.285-.299a.984.984 0 0 0 0-1.402c-.292-.292-.339-.299-2.121-.299h-1.567l.5-3 .5-3h1.566c1.783 0 1.83-.007 2.122-.299a.984.984 0 0 0 0-1.402C21.413 7.011 21.342 7 19.753 7c-.936 0-1.393-.014-1.393-.042 0-.022.145-.909.323-1.97.232-1.38.317-1.983.302-2.122a.98.98 0 0 0-.663-.805c-.517-.183-1.105.109-1.26.624-.035.118-.208 1.088-.383 2.155a229.99 229.99 0 0 1-.343 2.05l-.022.11h-2.977c-2.031 0-2.977-.013-2.977-.042 0-.022.145-.909.323-1.97.232-1.38.317-1.983.302-2.122-.07-.623-.728-1.014-1.342-.797M15.487 12l-.5 3H9.013l.5-3 .5-3h5.974l-.5 3" fill="#667085" fill-rule="evenodd"/></svg>