<svg width="24" height="24" fill="none" xmlns="http://www.w3.org/2000/svg"><path d="M7.643 2.069a1.118 1.118 0 0 0-.343.229C6.998 2.6 7 2.58 7 4.927V7H5.427c-1.789 0-1.836.006-2.128.299a.984.984 0 0 0 0 1.402c.292.293.339.299 2.128.299H7v6H5.427c-1.789 0-1.836.006-2.128.299a.984.984 0 0 0 0 1.402c.292.293.339.299 2.128.299H7v2.073c0 2.346-.002 2.327.299 2.628a.984.984 0 0 0 1.402 0c.301-.301.299-.282.299-2.628V17h6v2.073c0 2.346-.002 2.327.299 2.628a.984.984 0 0 0 1.402 0c.301-.301.299-.282.299-2.628V17h1.573c1.789 0 1.836-.006 2.128-.299a.984.984 0 0 0 0-1.402c-.292-.293-.339-.299-2.128-.299H17V9h1.573c1.789 0 1.836-.006 2.128-.299a.984.984 0 0 0 0-1.402C20.409 7.006 20.362 7 18.573 7H17V4.927c0-2.346.002-2.327-.299-2.628a.984.984 0 0 0-1.402 0C14.998 2.6 15 2.581 15 4.927V7H9V4.927c0-2.346.002-2.327-.299-2.628a.998.998 0 0 0-1.058-.23M15 12v3H9V9h6v3" fill="#667085" fill-rule="evenodd"/></svg>