<svg width="24" height="24" fill="none" xmlns="http://www.w3.org/2000/svg"><path d="M3.643 3.069C3.291 3.193 3 3.614 3 4c0 .242.119.521.299.701.247.247.442.299 1.128.299H5v14h-.573c-.686 0-.881.052-1.128.299a.984.984 0 0 0 0 1.402c.302.302.274.299 2.701.299s2.399.003 2.701-.299a.984.984 0 0 0 0-1.402C8.454 19.052 8.259 19 7.573 19H7v-6h10v6h-.573c-.686 0-.881.052-1.128.299a.984.984 0 0 0 0 1.402c.302.302.274.299 2.701.299s2.399.003 2.701-.299a.984.984 0 0 0 0-1.402c-.247-.247-.442-.299-1.128-.299H19V5h.573c.686 0 .881-.052 1.128-.299a.984.984 0 0 0 0-1.402C20.399 2.997 20.427 3 18 3s-2.399-.003-2.701.299a.984.984 0 0 0 0 1.402c.247.247.442.299 1.128.299H17v6H7V5h.573c.686 0 .881-.052 1.128-.299a.984.984 0 0 0 0-1.402C8.398 2.996 8.43 3 5.983 3.003c-1.851.003-2.188.012-2.34.066" fill="#667085" fill-rule="evenodd"/></svg>