<svg width="24" height="24" fill="none" xmlns="http://www.w3.org/2000/svg"><path d="M3.643 3.068C3.29 3.194 3 3.614 3 4c0 .242.119.521.299.701.247.247.442.299 1.128.299H5v14h-.573c-.686 0-.881.052-1.128.299a.984.984 0 0 0 0 1.402c.316.316.064.299 4.478.299l3.923-.001.2-.093c.62-.29.793-1.061.348-1.554-.263-.291-.384-.329-1.098-.345l-.63-.014V13H17v6h-.573c-.686 0-.881.052-1.128.299a.984.984 0 0 0 0 1.402c.302.302.274.299 2.701.299s2.399.003 2.701-.299a.984.984 0 0 0 0-1.402c-.247-.247-.442-.299-1.128-.299H19V5h.573c.686 0 .881-.052 1.128-.299a.984.984 0 0 0 0-1.402C20.399 2.997 20.427 3 18 3s-2.399-.003-2.701.299a.984.984 0 0 0 0 1.402c.247.247.442.299 1.128.299H17v6h-6.48V5h.59c.534-.001.609-.01.79-.094a.994.994 0 0 0 .043-1.799l-.163-.087-3.98-.007c-3.526-.007-4 0-4.157.055M8.48 12v7H7V5h1.48v7" fill="#667085" fill-rule="evenodd"/></svg>