<svg width="24" height="24" fill="none" xmlns="http://www.w3.org/2000/svg"><path d="M11.28 2.024c-1.125.099-2.239.371-3.187.777-3.404 1.46-5.739 4.676-6.053 8.339-.03.351-.041 1.726-.032 4.24l.014 3.72.09.293c.389 1.268 1.267 2.141 2.508 2.494.46.131 1.3.131 1.76 0 1.251-.356 2.143-1.25 2.51-2.515.087-.3.09-.371.09-1.872 0-1.509-.003-1.571-.092-1.88-.388-1.349-1.453-2.326-2.79-2.559-.7-.122-1.276-.043-2.028.278-.065.028-.07-.025-.07-.805 0-1.336.104-2.118.404-3.032 1.502-4.58 6.726-6.799 11.07-4.701 2.539 1.226 4.217 3.645 4.485 6.465.022.239.041.809.041 1.268 0 .78-.005.833-.07.805-.752-.321-1.328-.4-2.028-.278a3.538 3.538 0 0 0-2.585 1.999 5.2 5.2 0 0 0-.207.568c-.087.3-.09.371-.09 1.872 0 1.501.003 1.572.09 1.872.367 1.265 1.259 2.159 2.51 2.515.46.131 1.3.131 1.76 0 1.241-.353 2.119-1.226 2.508-2.494l.09-.293.014-3.72c.014-4.043.002-4.373-.193-5.348-.767-3.824-3.738-6.885-7.547-7.773a9.739 9.739 0 0 0-2.032-.236 15.89 15.89 0 0 0-.94.001M6.138 15.153c.325.152.557.386.716.721l.126.266v2.72l-.109.233c-.147.312-.312.514-.541.659-.51.324-1.15.324-1.66 0-.229-.145-.394-.347-.541-.659l-.109-.233v-2.72l.126-.266a1.517 1.517 0 0 1 1.004-.833c.272-.069.706-.02.988.112m13 0c.325.152.557.386.716.721l.126.266v2.72l-.109.233c-.147.312-.312.514-.541.659-.51.324-1.15.324-1.66 0-.229-.145-.394-.347-.541-.659l-.109-.233v-2.72l.126-.266a1.517 1.517 0 0 1 1.004-.833c.272-.069.706-.02.988.112" fill="#667085" fill-rule="evenodd"/></svg>