<svg width="24" height="24" fill="none" xmlns="http://www.w3.org/2000/svg"><path d="M11.56 1.118a5.067 5.067 0 0 0-1.924.868c-.299.215-.934.833-1.181 1.15l-.122.156-.317-.121a5.485 5.485 0 0 0-2.256-.358c-1.321.059-2.34.516-3.244 1.455-.961.998-1.488 2.327-1.49 3.752 0 .654.071 1.108.273 1.732.369 1.138 1.044 2.043 2.079 2.785.656.471 1.841 1.178 3.252 1.942.507.274.615.348.634.435.4 1.799 1.873 6.889 2.116 7.307.125.216.463.527.671.619.093.04.278.094.411.12.225.044.296.036 1.06-.119 3.972-.806 7.202-1.659 8.338-2.201 1.226-.585 2.25-1.684 2.734-2.934.477-1.231.516-2.42.118-3.665-.494-1.547-1.596-2.67-3.124-3.181-.629-.21-1.109-.272-1.957-.249-.696.018-.709.017-.734-.066a6.838 6.838 0 0 0-.126-.34l-.101-.256.341-.664c.574-1.119.757-1.802.758-2.825.001-.464-.019-.695-.087-1.02-.23-1.103-.672-1.966-1.399-2.731-.789-.829-1.87-1.421-2.938-1.607-.489-.085-1.346-.077-1.785.016m1.52 1.963c.417.1 1.049.403 1.408.675.542.411.961 1.035 1.175 1.746.093.309.108.43.109.878.001.539-.052.857-.216 1.3-.118.318-.271.568-.328.533a7.772 7.772 0 0 1-.268-.177 5.963 5.963 0 0 0-1.148-.569c-.917-.329-2.103-.33-3.142-.001-1.967.621-3.399 2.354-3.712 4.489a2.287 2.287 0 0 1-.059.325c-.016 0-1.165-.647-1.619-.912-1.122-.655-1.562-1.077-1.947-1.87-.445-.916-.433-2.065.032-2.99.584-1.161 1.563-1.828 2.683-1.828.663 0 1.163.152 1.918.583.293.168.454.234.598.248.455.044.8-.184 1.083-.715.467-.877 1.201-1.505 2.002-1.715.401-.105.987-.105 1.431 0m.14 6.255c.626.2 1.147.598 1.512 1.157.276.421.405.72.544 1.264.16.627.373.87.849.97.204.043.255.036.697-.088.591-.166 1.322-.207 1.813-.104a2.973 2.973 0 0 1 1.524.914c.228.267.505.774.632 1.156.309.934.261 1.775-.148 2.615-.383.785-1.011 1.364-1.85 1.706-.625.254-2.095.668-3.953 1.113-.806.193-3.37.765-3.681.821l-.141.025-.335-1.052c-.887-2.786-1.499-4.932-1.748-6.133-.124-.596-.149-1.351-.059-1.76.303-1.379 1.389-2.405 2.84-2.68.451-.086 1.099-.053 1.504.076" fill="#667085" fill-rule="evenodd"/></svg>