<svg width="24" height="24" fill="none" xmlns="http://www.w3.org/2000/svg"><path d="M11.041 1.045c-1.47.13-2.98.585-4.26 1.283-.985.538-1.77 1.13-2.583 1.947-1.682 1.693-2.712 3.742-3.086 6.145-.073.467-.087.73-.087 1.58 0 .85.014 1.113.087 1.58.378 2.425 1.41 4.467 3.125 6.183 1.716 1.715 3.758 2.747 6.183 3.125.809.126 2.351.126 3.16 0 2.413-.376 4.471-1.417 6.181-3.127.923-.923 1.563-1.811 2.116-2.941a10.92 10.92 0 0 0 0-9.64 11.163 11.163 0 0 0-3.826-4.353 11.032 11.032 0 0 0-7.01-1.782m2.279 2.057a9.023 9.023 0 0 1 5.664 3.218c.816 1.005 1.483 2.358 1.771 3.6.167.718.222 1.229.222 2.08 0 1.511-.264 2.654-.917 3.98-.896 1.818-2.252 3.179-4.067 4.079a8.986 8.986 0 0 1-6.453.597C7.08 19.955 5.103 18.309 3.946 16c-.642-1.283-.923-2.498-.923-4 0-1.502.281-2.717.923-4 .91-1.819 2.235-3.143 4.056-4.055 1.025-.514 2.001-.783 3.338-.921.324-.033 1.573.016 1.98.078M9.26 7.08a3.653 3.653 0 0 0-2.102 1.107A4.045 4.045 0 0 0 6.154 9.96c-.079.29-.092.437-.093 1-.001.77.067 1.094.356 1.7.391.819 1.247 1.747 3.538 3.833 1.134 1.034 1.292 1.121 2.025 1.125.777.004.928-.085 2.32-1.366 2.722-2.505 3.326-3.268 3.589-4.532.104-.501.083-1.301-.047-1.78-.099-.363-.371-.962-.565-1.244a3.924 3.924 0 0 0-2.105-1.505c-.417-.119-1.324-.127-1.752-.015a4.717 4.717 0 0 0-1.134.471 1.8 1.8 0 0 1-.289.153c-.02 0-.13-.061-.246-.135-.807-.515-1.643-.711-2.491-.585m.983 1.943c.319.094.541.235.878.561.352.342.57.454.879.454.309 0 .527-.112.879-.454.445-.43.842-.624 1.281-.624.615 0 1.339.49 1.654 1.118.368.736.258 1.485-.324 2.202-.376.464-1.986 2.038-3.283 3.21l-.211.19-.166-.15a53.49 53.49 0 0 1-2.123-2.009c-1.112-1.098-1.369-1.391-1.542-1.757-.349-.738-.196-1.6.39-2.196.517-.525 1.105-.715 1.688-.545" fill="#667085" fill-rule="evenodd"/></svg>