<svg width="24" height="24" fill="none" xmlns="http://www.w3.org/2000/svg"><path d="M11.509 1.201c-.221.056-.154.02-4.546 2.452-3.609 2-4.086 2.274-4.324 2.496a2.189 2.189 0 0 0-.392.483C1.988 7.118 2 6.868 2 12c0 5.132-.012 4.882.247 5.368.074.138.234.335.392.483.238.221.724.503 4.375 2.529 2.26 1.254 4.22 2.32 4.357 2.369.349.125.909.125 1.258 0 .136-.049 2.097-1.115 4.356-2.369 3.698-2.052 4.136-2.306 4.383-2.536.301-.281.507-.643.588-1.036.062-.297.062-9.319 0-9.616a1.947 1.947 0 0 0-.585-1.031c-.24-.224-.716-.499-4.231-2.451a357.837 357.837 0 0 0-4.295-2.362c-.319-.155-.354-.163-.76-.174a3.14 3.14 0 0 0-.576.027m4.492 4.169 3.979 2.21.01 4.405c.008 3.493 0 4.413-.04 4.446-.051.042-7.493 4.177-7.789 4.328l-.161.083-.168-.086c-.303-.154-7.731-4.282-7.782-4.325-.04-.033-.048-.953-.04-4.446l.01-4.405 3.977-2.21a453.425 453.425 0 0 1 4.001-2.21c.013 0 1.815.994 4.003 2.21M9.3 7.069a3.687 3.687 0 0 0-2.148 1.125 4.03 4.03 0 0 0-.998 1.766c-.079.29-.092.437-.093 1-.001.77.067 1.094.356 1.7.391.819 1.247 1.747 3.538 3.833 1.134 1.034 1.292 1.121 2.025 1.125.508.002.721-.055 1.087-.294.462-.301 2.908-2.612 3.678-3.474.657-.736.978-1.334 1.144-2.13.064-.309.075-.481.059-.92-.024-.65-.111-1.008-.384-1.58a3.739 3.739 0 0 0-2.392-2.029c-.417-.119-1.324-.127-1.752-.015a4.717 4.717 0 0 0-1.134.471 1.8 1.8 0 0 1-.289.153c-.02 0-.13-.061-.246-.135-.783-.499-1.643-.709-2.451-.596m.943 1.954c.319.094.541.235.878.561.352.342.57.454.879.454.309 0 .527-.112.879-.454.592-.573 1.11-.736 1.727-.545.699.216 1.271.875 1.395 1.605.094.56-.073 1.096-.511 1.636-.376.464-1.986 2.038-3.283 3.21l-.211.19-.166-.15c-1.18-1.064-2.814-2.653-3.256-3.167-.478-.556-.666-1.107-.575-1.691.063-.407.265-.808.556-1.104.517-.525 1.105-.715 1.688-.545" fill="#667085" fill-rule="evenodd"/></svg>