<svg width="24" height="24" fill="none" xmlns="http://www.w3.org/2000/svg"><path d="M6.78 2.145c-1.466.211-2.747.878-3.801 1.98-1.788 1.87-2.415 4.539-1.636 6.962.454 1.409 1.096 2.298 3.215 4.447 2.009 2.037 6.352 6.014 6.784 6.212.45.206.89.205 1.318-.005.415-.202 4.424-3.865 6.461-5.901 1.966-1.966 2.675-2.834 3.179-3.893 1.324-2.779.686-6.055-1.577-8.109-.662-.601-1.535-1.126-2.283-1.374-.675-.223-1.078-.281-1.94-.28-.677.001-.865.015-1.22.091a7.344 7.344 0 0 0-3.011 1.432c-.269.217-.272.218-.365.146l-.41-.318c-.852-.66-1.765-1.105-2.704-1.317-.281-.064-1.713-.116-2.01-.073m1.681 1.99c.941.201 1.749.675 2.586 1.518.482.485.647.571 1.027.537a1.23 1.23 0 0 0 .366-.09c.074-.038.324-.262.557-.498.536-.543.862-.783 1.463-1.082.877-.434 1.715-.561 2.62-.394 1.37.252 2.705 1.283 3.39 2.619.405.789.552 1.466.517 2.375a4.8 4.8 0 0 1-.843 2.594c-.673 1.012-3.368 3.692-7.176 7.137l-.972.88-.108-.098-.728-.655c-3.539-3.176-6.466-6.064-7.223-7.124-1.249-1.75-1.249-4.032 0-5.767.13-.18.412-.498.626-.706.75-.728 1.614-1.172 2.527-1.301.333-.047 1.023-.019 1.371.055" fill="#667085" fill-rule="evenodd"/></svg>