<svg width="24" height="24" fill="none" xmlns="http://www.w3.org/2000/svg"><path d="M14.419 1.077c-1.087.174-2.089.892-2.634 1.886-.344.627-.515 1.487-.43 2.155.112.867.482 1.652 1.698 3.602.85 1.363 1.045 1.647 1.299 1.889.536.512 1.29.676 1.985.433.499-.174 3.072-1.567 3.883-2.102.6-.396.862-.62 1.157-.988 1.191-1.488 1.053-3.664-.312-4.941-.825-.772-2.057-1.069-3.201-.773l-.317.082-.223-.212c-.492-.466-1.039-.789-1.604-.946-.334-.093-.987-.136-1.301-.085m1.127 2.086c.285.137.46.316.687.705.212.364.422.551.712.635.284.083.531.038.856-.155.423-.251.546-.288.96-.288.366 0 .392.006.616.14.274.164.506.437.679.8.114.24.124.293.124.68 0 .379-.011.442-.112.648-.234.477-.547.724-1.868 1.481-.741.424-2.295 1.249-2.425 1.288-.073.022-.123-.034-.365-.406-1.126-1.735-1.91-3.129-2.036-3.623-.191-.744.186-1.507.923-1.87.455-.224.831-.234 1.249-.035M2.534 12.017c-.529.128-1.081.564-1.304 1.03-.233.484-.229.406-.229 4.393 0 3.026.01 3.707.058 3.931.159.749.76 1.354 1.524 1.531.229.053.487.061 1.556.049 1.201-.014 1.296-.021 1.518-.103.329-.123.587-.297.829-.562.273-.298.387-.555.42-.943l.026-.31 1.104.016 1.104.016 1.42.35c2.172.536 2.083.519 2.84.519l.66-.001 1.77-.348c.973-.191 1.927-.393 2.12-.449a5.252 5.252 0 0 0 1.734-.898c.44-.35 2.736-2.62 2.899-2.865a3 3 0 0 0 .266-.559 2.506 2.506 0 0 0-1.298-3.094c-.421-.197-.705-.25-1.228-.231-.755.027-.974.13-2.222 1.046-.374.274-.694.49-.71.479-.017-.01-.031-.079-.031-.152 0-.185-.143-.635-.293-.922a2.785 2.785 0 0 0-.446-.561c-.483-.484-.636-.547-2.321-.955-1.798-.436-1.839-.443-2.6-.442-.534.001-.703.016-1.02.095-.591.145-1.308.407-2.589.947-.649.273-1.196.496-1.216.496-.019 0-.035-.086-.035-.19-.001-.496-.65-1.129-1.342-1.309-.306-.08-2.639-.083-2.964-.004M5 17.439v3.479l-.09.023c-.049.012-.486.017-.969.01l-.88-.011-.028-.16c-.035-.199-.042-6.38-.008-6.634l.026-.186H5v3.479m7.24-3.436c.314.05 2.694.621 2.851.683a.668.668 0 0 1 .21.162c.088.105.099.155.099.445 0 .253-.018.356-.078.454-.136.224-.174.231-1.282.253l-1.02.02-.187.11c-.726.427-.675 1.458.089 1.787.201.087.23.088 1.791.074l1.587-.013.34-.113c.487-.161.654-.263 1.88-1.159 1.827-1.333 1.661-1.226 1.886-1.226.234 0 .396.075.511.236a.506.506 0 0 1 .013.526c-.068.099-1.439 1.451-2.213 2.181-.402.379-.781.611-1.257.77-.132.044-.996.23-1.92.412-2.284.451-2.167.452-4.08-.023-2.139-.531-1.986-.507-3.31-.53L7 19.031v-1.695c0-.933.006-1.696.013-1.696.007 0 .614-.254 1.35-.564 1.886-.794 2.195-.906 3.017-1.089.154-.034.602-.026.86.016" fill="#667085" fill-rule="evenodd"/></svg>