<svg width="24" height="24" fill="none" xmlns="http://www.w3.org/2000/svg"><path d="M7.3 2.025a6.68 6.68 0 0 0-3.47 1.447C1.819 5.117.725 7.861 1.061 10.419c.282 2.157 1.417 4.213 3.514 6.369 1.738 1.788 4.543 3.874 6.665 4.957.44.225.473.235.76.235.287 0 .32-.01.76-.235 1.221-.623 3.037-1.827 4.388-2.908 4.966-3.977 6.772-7.949 5.408-11.903a7.516 7.516 0 0 0-1.754-2.869c-1.023-1.06-2.188-1.694-3.622-1.971-.495-.096-1.615-.096-2.134 0-.984.183-1.853.596-2.738 1.301l-.311.249-.309-.249c-.86-.694-1.76-1.123-2.713-1.294-.351-.063-1.365-.109-1.675-.076m1.176 2.016c1.005.13 1.776.526 2.553 1.309.46.464.638.568.971.568.333 0 .511-.104.971-.568.822-.828 1.592-1.205 2.699-1.32a4.368 4.368 0 0 1 2.888.729c1.16.788 1.998 2.099 2.327 3.641.125.586.126 1.564.003 2.13-.127.582-.3 1.066-.605 1.69-1.034 2.118-3.223 4.372-6.203 6.389-.618.418-1.601 1.028-1.915 1.188l-.165.085-.165-.085c-.299-.152-1.284-.762-1.895-1.173-1.367-.919-2.566-1.892-3.604-2.924-1.78-1.771-2.856-3.495-3.224-5.17-.124-.562-.123-1.54.003-2.13.328-1.541 1.167-2.853 2.327-3.641a4.41 4.41 0 0 1 3.034-.718" fill="#667085" fill-rule="evenodd"/></svg>