<svg width="24" height="24" fill="none" xmlns="http://www.w3.org/2000/svg"><path d="M7.86 1.047a2.467 2.467 0 0 0-.46.16c-.24.112-.484.346-3.166 3.027-2.278 2.277-2.928 2.95-3.007 3.109C.993 7.812 1 7.677 1 12s-.007 4.188.227 4.657c.147.296 5.82 5.969 6.116 6.116.469.234.334.227 4.657.227s4.188.007 4.657-.227c.301-.149 5.969-5.82 6.12-6.122.226-.455.222-.372.222-4.651s.004-4.196-.222-4.651c-.084-.167-.688-.792-3.011-3.115C17.081 1.549 16.84 1.32 16.6 1.208a2.493 2.493 0 0 0-.497-.165c-.304-.055-7.951-.052-8.243.004M18.37 5.63 21 8.26v7.48l-2.63 2.63L15.74 21H8.26l-2.63-2.63L3 15.74V8.26l2.63-2.63L8.26 3h7.48l2.63 2.63M9.26 7.08a3.653 3.653 0 0 0-2.102 1.107A4.045 4.045 0 0 0 6.154 9.96c-.079.29-.092.437-.093 1-.001.77.067 1.094.356 1.7.391.819 1.247 1.747 3.538 3.833 1.134 1.034 1.292 1.121 2.025 1.125.777.004.928-.085 2.32-1.366 2.722-2.505 3.326-3.268 3.589-4.532.104-.501.083-1.301-.047-1.78-.099-.363-.371-.962-.565-1.244a3.924 3.924 0 0 0-2.105-1.505c-.417-.119-1.324-.127-1.752-.015a4.717 4.717 0 0 0-1.134.471 1.8 1.8 0 0 1-.289.153c-.02 0-.13-.061-.246-.135-.807-.515-1.643-.711-2.491-.585m.983 1.943c.319.094.541.235.878.561.352.342.57.454.879.454.309 0 .527-.112.879-.454.445-.43.842-.624 1.281-.624.615 0 1.339.49 1.654 1.118.368.736.258 1.485-.324 2.202-.376.464-1.986 2.038-3.283 3.21l-.211.19-.166-.15a53.49 53.49 0 0 1-2.123-2.009c-1.112-1.098-1.369-1.391-1.542-1.757-.349-.738-.196-1.6.39-2.196.517-.525 1.105-.715 1.688-.545" fill="#667085" fill-rule="evenodd"/></svg>