<svg width="24" height="24" fill="none" xmlns="http://www.w3.org/2000/svg"><path d="M11.509 1.201c-.221.056-.154.02-4.546 2.452-3.609 2-4.086 2.274-4.324 2.496a2.189 2.189 0 0 0-.392.483C1.988 7.118 2 6.868 2 12c0 5.132-.012 4.882.247 5.368.074.138.234.335.392.483.238.221.724.503 4.375 2.529 2.26 1.254 4.22 2.32 4.357 2.369.349.125.909.125 1.258 0 .136-.049 2.097-1.115 4.356-2.369 3.698-2.052 4.136-2.306 4.383-2.536.301-.281.507-.643.588-1.036.062-.297.062-9.319 0-9.616a1.947 1.947 0 0 0-.585-1.031c-.24-.224-.716-.499-4.231-2.451a357.837 357.837 0 0 0-4.295-2.362c-.319-.155-.354-.163-.76-.174a3.14 3.14 0 0 0-.576.027m4.492 4.169 3.979 2.21.01 4.405c.008 3.493 0 4.413-.04 4.446-.051.042-7.493 4.177-7.789 4.328l-.161.083-.168-.086c-.303-.154-7.731-4.282-7.782-4.325-.04-.033-.048-.953-.04-4.446l.01-4.405 3.977-2.21a453.425 453.425 0 0 1 4.001-2.21c.013 0 1.815.994 4.003 2.21m-4.781.691a3.902 3.902 0 0 0-2.121 1.118C8.517 7.76 8.108 8.508 8.104 9a.964.964 0 0 0 .681.948c.339.115.777.006 1.022-.254a2.52 2.52 0 0 0 .271-.464c.367-.776 1.043-1.225 1.842-1.225.961 0 1.798.703 1.962 1.649.059.339.031.565-.105.832-.271.535-1.084 1.139-2.037 1.515-.39.153-.546.268-.682.498a1.006 1.006 0 0 0 .37 1.368c.166.098.232.113.492.11.266-.002.35-.024.74-.191.883-.379 1.596-.841 2.165-1.405.8-.791 1.137-1.602 1.082-2.601a3.915 3.915 0 0 0-1.164-2.6 3.981 3.981 0 0 0-1.786-1.041c-.486-.132-1.259-.167-1.737-.078m.423 10.005c-.355.131-.643.549-.643.934 0 .575.526 1.048 1.1.988 1.009-.104 1.237-1.424.327-1.895-.178-.092-.57-.105-.784-.027" fill="#667085" fill-rule="evenodd"/></svg>