<svg width="24" height="24" fill="none" xmlns="http://www.w3.org/2000/svg"><path d="M5.9 2.025c-.991.083-1.531.257-2.2.708-.578.389-1.181 1.16-1.417 1.811-.279.77-.263.33-.263 7.456 0 6.02.004 6.442.072 6.773.223 1.094.826 1.987 1.746 2.582.418.269.858.445 1.389.553.331.068.753.072 6.773.072s6.442-.004 6.773-.072c1.094-.223 1.987-.826 2.582-1.746.269-.418.445-.858.553-1.389.068-.331.072-.753.072-6.773s-.004-6.442-.072-6.773c-.289-1.42-1.291-2.57-2.618-3.005-.611-.2-.432-.195-7.05-.203a802.572 802.572 0 0 0-6.34.006M17.801 4.04c.341.022.723.066.85.099.553.144 1.065.656 1.209 1.209.118.452.14 1.48.14 6.652 0 5.167-.022 6.2-.139 6.651-.142.544-.638 1.05-1.181 1.206-.442.126-1.17.142-6.68.142s-6.238-.016-6.68-.142c-.543-.156-1.039-.662-1.181-1.206C4.022 18.2 4 17.167 4 12c0-5.172.022-6.2.14-6.652.103-.397.416-.8.811-1.044.239-.148.575-.225 1.142-.261.734-.047 10.98-.05 11.708-.003M11.22 6.061a3.902 3.902 0 0 0-2.121 1.118C8.517 7.76 8.108 8.508 8.104 9a.964.964 0 0 0 .681.948c.339.115.777.006 1.022-.254a2.52 2.52 0 0 0 .271-.464c.367-.776 1.043-1.225 1.842-1.225.961 0 1.798.703 1.962 1.649.059.339.031.565-.105.832-.271.535-1.084 1.139-2.037 1.515-.39.153-.546.268-.682.498a1.006 1.006 0 0 0 .37 1.368c.166.098.232.113.492.11.266-.002.35-.024.74-.191.892-.383 1.597-.841 2.165-1.404.801-.794 1.137-1.603 1.082-2.602-.058-1.043-.526-2.04-1.276-2.718a4.15 4.15 0 0 0-1.674-.923c-.486-.132-1.259-.167-1.737-.078m.423 10.005c-.355.131-.643.549-.643.934 0 .575.526 1.048 1.1.988 1.009-.104 1.237-1.424.327-1.895-.178-.092-.57-.105-.784-.027" fill="#667085" fill-rule="evenodd"/></svg>