<svg width="24" height="24" fill="none" xmlns="http://www.w3.org/2000/svg"><path d="M11.041 1.045c-1.47.13-2.98.585-4.26 1.283-.985.538-1.77 1.13-2.583 1.947-1.682 1.693-2.712 3.742-3.086 6.145-.073.467-.087.73-.087 1.58 0 .85.014 1.113.087 1.58.378 2.425 1.41 4.467 3.125 6.183 1.716 1.715 3.758 2.747 6.183 3.125.809.126 2.351.126 3.16 0 2.413-.376 4.471-1.417 6.181-3.127.923-.923 1.563-1.811 2.116-2.941a10.92 10.92 0 0 0 0-9.64 11.163 11.163 0 0 0-3.826-4.353 11.032 11.032 0 0 0-7.01-1.782m2.279 2.057a9.023 9.023 0 0 1 5.664 3.218c.816 1.005 1.483 2.358 1.771 3.6.167.718.222 1.229.222 2.08 0 1.511-.264 2.654-.917 3.98-.896 1.818-2.252 3.179-4.067 4.079a8.986 8.986 0 0 1-6.453.597C7.08 19.955 5.103 18.309 3.946 16c-.642-1.283-.923-2.498-.923-4 0-1.502.281-2.717.923-4 .91-1.819 2.235-3.143 4.056-4.055 1.025-.514 2.001-.783 3.338-.921.324-.033 1.573.016 1.98.078m-2.1 2.959a3.902 3.902 0 0 0-2.121 1.118C8.517 7.76 8.108 8.508 8.104 9a.964.964 0 0 0 .681.948c.339.115.777.006 1.022-.254a2.52 2.52 0 0 0 .271-.464c.367-.776 1.043-1.225 1.842-1.225.961 0 1.798.703 1.962 1.649.059.339.031.565-.105.832-.271.535-1.084 1.139-2.037 1.515-.39.153-.546.268-.682.498a1.006 1.006 0 0 0 .37 1.368c.166.098.232.113.492.11.266-.002.35-.024.74-.191.883-.379 1.596-.841 2.165-1.405.8-.791 1.137-1.602 1.082-2.601a3.915 3.915 0 0 0-1.164-2.6 3.981 3.981 0 0 0-1.786-1.041c-.486-.132-1.259-.167-1.737-.078m.423 10.005c-.355.131-.643.549-.643.934 0 .575.526 1.048 1.1.988 1.009-.104 1.237-1.424.327-1.895-.178-.092-.57-.105-.784-.027" fill="#667085" fill-rule="evenodd"/></svg>