<svg width="24" height="24" fill="none" xmlns="http://www.w3.org/2000/svg"><path d="M7.18 2.047c-.356.068-.696.262-1 .569-.27.274-.359.426-2.56 4.395-1.254 2.262-2.32 4.224-2.369 4.36-.068.191-.089.337-.089.629s.021.438.089.629c.049.136 1.115 2.097 2.369 4.356 2.052 3.698 2.306 4.136 2.536 4.383.281.301.643.507 1.036.588.147.03 1.63.044 4.82.043 5.07 0 4.877.009 5.355-.246a2.17 2.17 0 0 0 .484-.392c.221-.238.503-.726 2.529-4.376 1.254-2.259 2.32-4.22 2.369-4.356.068-.191.089-.337.089-.629s-.021-.438-.089-.629c-.049-.136-1.115-2.098-2.369-4.36-2.201-3.969-2.29-4.121-2.56-4.395-.314-.318-.645-.501-1.037-.573-.305-.055-9.31-.052-9.603.004m11.45 5.949A399.335 399.335 0 0 1 20.84 12c0 .015-.994 1.816-2.21 4.004l-2.21 3.976H7.58l-2.21-3.976A399.335 399.335 0 0 1 3.16 12c0-.027 4.274-7.739 4.384-7.91L7.602 4l4.409.01 4.409.01 2.21 3.976" fill="#667085" fill-rule="evenodd"/></svg>