<svg width="24" height="24" fill="none" xmlns="http://www.w3.org/2000/svg"><path d="M11.511 1.201c-.238.06-.631.272-4.731 2.551-4.253 2.364-4.26 2.368-4.533 2.88-.259.486-.247.236-.247 5.366.001 5.101-.011 4.839.239 5.346.082.167.209.329.394.501.245.229.693.488 4.39 2.541 2.264 1.258 4.229 2.324 4.366 2.37.342.116.88.116 1.222 0 .137-.046 2.102-1.112 4.366-2.37 3.706-2.058 4.144-2.312 4.391-2.542.301-.281.507-.643.588-1.036.062-.297.062-9.319 0-9.616a2.722 2.722 0 0 0-.178-.496c-.268-.564-.204-.523-4.598-2.965-2.156-1.199-4.088-2.262-4.294-2.362-.363-.179-.384-.184-.8-.195a3.121 3.121 0 0 0-.575.027m4.491 4.169 3.978 2.21.01 4.405c.008 3.493 0 4.413-.04 4.446-.051.042-7.485 4.173-7.784 4.326l-.166.085-.157-.08c-.297-.152-7.743-4.289-7.793-4.331-.04-.033-.048-.953-.04-4.446l.01-4.405 3.978-2.21A444.477 444.477 0 0 1 12 3.16c.013 0 1.814.994 4.002 2.21" fill="#667085" fill-rule="evenodd"/></svg>