<svg width="24" height="24" fill="none" xmlns="http://www.w3.org/2000/svg"><path d="M11.48 1.692a2.47 2.47 0 0 0-.4.17c-.21.114-9.537 7.073-9.774 7.293-.266.247-.369.676-.248 1.04.127.381.545.685.943.685.207 0 .49-.117.72-.297.128-.101.243-.183.256-.183.012 0 .023 2.059.023 4.575 0 3.938.009 4.624.062 4.928.112.643.351 1.103.819 1.574.316.319.597.507.999.669.55.223.334.216 7.119.216 4.271 0 6.337-.014 6.501-.043.973-.174 1.765-.761 2.181-1.619.315-.648.294-.275.309-5.57.007-2.602.021-4.73.031-4.73.01 0 .125.082.254.182.232.181.518.298.724.298.398 0 .816-.304.943-.685.121-.364.018-.794-.248-1.04a606.077 606.077 0 0 0-4.834-3.64C14.636 3.1 13.042 1.93 12.83 1.823c-.296-.149-.332-.158-.741-.17-.266-.008-.497.007-.609.039m.9 2.283c.229.109.699.453 4.133 3.025l2.484 1.86v5.04c0 2.819-.016 5.223-.037 5.456-.042.462-.116.626-.376.823-.194.149-.47.179-1.614.18l-.97.001v-3.612c0-3.922.005-3.817-.223-4.284-.224-.456-.673-.831-1.192-.994-.281-.089-.315-.09-2.585-.09s-2.304.001-2.585.09c-.519.163-.968.538-1.192.994-.228.467-.223.362-.223 4.284v3.612l-.97-.001c-1.144-.001-1.42-.031-1.614-.18-.26-.197-.334-.361-.376-.823-.021-.233-.037-2.637-.037-5.456V8.86l2.644-1.98c3.395-2.543 3.732-2.79 3.973-2.904a.832.832 0 0 1 .76-.001m1.581 9.465c.023.037.038 1.399.038 3.49L14 20.36h-4l.001-3.43c0-1.887.014-3.451.03-3.477.047-.074.297-.082 2.16-.078 1.493.004 1.737.013 1.77.065" fill="#667085" fill-rule="evenodd"/></svg>