<svg width="24" height="24" fill="none" xmlns="http://www.w3.org/2000/svg"><path d="M11.571 1.698a2.262 2.262 0 0 0-.48.18c-.382.205-7.901 6.072-8.262 6.446-.241.25-.35.403-.488.689-.338.697-.315.311-.331 5.467-.009 3.015 0 4.74.028 5.048.077.853.314 1.384.862 1.932.52.52 1.074.78 1.835.86.219.023 3.123.039 7.265.039 4.142 0 7.046-.016 7.265-.039.761-.08 1.315-.34 1.835-.86.56-.56.79-1.086.863-1.975.027-.325.037-2.122.027-5.045-.016-5.111.007-4.73-.331-5.428-.299-.616-.419-.719-4.639-3.997-2.09-1.623-3.899-3.011-4.02-3.084a1.996 1.996 0 0 0-1.429-.233m.563 2.03c.315.22 7.462 5.798 7.592 5.925.296.29.278-.063.265 5.247-.008 3.607-.023 4.786-.059 4.868-.076.17-.339.439-.492.503-.244.103-1.556.125-7.44.125s-7.196-.022-7.44-.125c-.153-.064-.416-.333-.492-.503-.036-.082-.051-1.265-.059-4.885l-.011-4.777.099-.203c.054-.112.177-.267.271-.346.313-.261 7.594-5.917 7.617-5.917a.73.73 0 0 1 .149.088m-.643 5.675A4.063 4.063 0 0 0 8.44 11.56a3.948 3.948 0 0 0 .221 3.987 4.158 4.158 0 0 0 1.743 1.481c.491.214.876.298 1.456.32a3.725 3.725 0 0 0 2.291-.627c1.545-.999 2.221-2.909 1.636-4.621-.617-1.807-2.423-2.941-4.296-2.697m.916 2.015c.412.087.7.243.997.539 1.254 1.252.367 3.403-1.404 3.403a2 2 0 0 1-1.968-1.67 1.993 1.993 0 0 1 1.543-2.27c.321-.07.508-.071.832-.002" fill="#667085" fill-rule="evenodd"/></svg>