<svg width="24" height="24" fill="none" xmlns="http://www.w3.org/2000/svg"><path d="M11.482 1.704a2.32 2.32 0 0 0-.42.169c-.304.166-7.922 6.103-8.222 6.408-.412.419-.672.92-.784 1.515-.05.264-.057 1.039-.046 5.187.011 4.582.017 4.893.085 5.137a3.061 3.061 0 0 0 2.172 2.15c.244.062.507.07 2.453.07H8.9l.229-.112c.314-.155.571-.416.724-.739l.127-.269.011-3.891.011-3.892.104-.039c.066-.025.797-.036 1.961-.029 1.598.009 1.861.019 1.894.071.023.037.038 1.54.038 3.868.001 3.752.002 3.812.084 4.03.119.32.311.576.557.746.414.284.405.283 2.76.266 2.329-.017 2.337-.018 2.907-.292a2.986 2.986 0 0 0 1.652-2.278c.024-.173.04-2.076.04-4.986.001-5.087.004-5.018-.213-5.554a2.782 2.782 0 0 0-.626-.959c-.3-.304-7.918-6.242-8.221-6.408a2.102 2.102 0 0 0-1.457-.169m4.158 4.76c4.262 3.313 4.134 3.21 4.249 3.426l.091.17.011 4.38c.013 4.785-.001 5.23-.17 5.486-.156.235-.358.348-.703.393-.164.021-.932.039-1.708.04L16 20.36v-3.612c0-3.111-.008-3.644-.061-3.85a2 2 0 0 0-1.534-1.48c-.385-.082-4.425-.082-4.81 0a2 2 0 0 0-1.534 1.48c-.053.206-.061.739-.061 3.85v3.612l-1.41-.001c-.775-.001-1.544-.019-1.708-.04-.345-.045-.547-.158-.703-.393-.169-.256-.183-.701-.17-5.486l.011-4.38.091-.17c.053-.099.213-.27.38-.407.93-.759 7.455-5.803 7.507-5.803.035 0 1.674 1.253 3.642 2.784" fill="#667085" fill-rule="evenodd"/></svg>