<svg width="24" height="24" fill="none" xmlns="http://www.w3.org/2000/svg"><path d="M11.49 1.699a2.141 2.141 0 0 0-.672.329c-.543.377-7.765 6.036-7.978 6.253-.412.418-.672.92-.784 1.515-.05.264-.057 1.039-.046 5.187.011 4.582.017 4.893.085 5.137.303 1.074 1.144 1.906 2.174 2.147.295.069.686.073 7.731.073s7.436-.004 7.731-.073c1.03-.241 1.871-1.073 2.174-2.147.068-.244.074-.555.085-5.137.011-4.148.004-4.923-.046-5.187a2.854 2.854 0 0 0-.784-1.515c-.236-.24-7.513-5.935-8.038-6.291-.345-.234-.606-.318-1.042-.335a2.006 2.006 0 0 0-.59.044m4.33 4.905a453.903 453.903 0 0 1 3.874 3.03c.062.058.152.178.2.266l.086.16v4.64c0 2.552-.015 4.744-.033 4.871a.875.875 0 0 1-.486.667l-.199.102H4.74l-.2-.1a.867.867 0 0 1-.487-.669c-.018-.127-.033-2.319-.033-4.871v-4.64l.086-.16c.048-.088.138-.208.2-.266C4.569 9.388 11.945 3.68 12 3.68c.033 0 1.752 1.316 3.82 2.924m-7.991 6.811c-.373.139-.602.397-.679.765-.039.183-.033.256.04.53.219.819.635 1.521 1.287 2.173.649.649 1.315 1.046 2.167 1.292 2.537.731 5.275-.723 6.1-3.24.156-.476.155-.759-.002-1.046-.191-.349-.603-.564-.982-.513-.434.059-.737.343-.881.826-.292.983-1.04 1.732-2.039 2.044-.252.079-.386.094-.84.094-.454 0-.588-.015-.84-.094-.999-.312-1.747-1.061-2.039-2.044-.102-.342-.283-.587-.525-.712-.23-.118-.564-.151-.767-.075" fill="#667085" fill-rule="evenodd"/></svg>