<svg width="24" height="24" fill="none" xmlns="http://www.w3.org/2000/svg"><path d="M2.664 1.063a1.005 1.005 0 0 0-.533.448L2.02 1.7l-.01 10.215c-.007 6.748.003 10.265.03 10.363.191.713 1.131.953 1.66.424.266-.266.3-.42.3-1.368v-.813l8.17-.01c7.817-.011 8.18-.014 8.39-.085.701-.235 1.217-.785 1.378-1.47.088-.371.089-3.537.002-3.907a2.006 2.006 0 0 0-1.294-1.433c-.256-.091-.31-.094-1.456-.095L18 13.52l-.001-1.61c0-1.714-.018-1.912-.203-2.281a2.079 2.079 0 0 0-1.15-1.013c-.256-.091-.31-.094-1.456-.095L14 8.52l-.001-1.61c0-1.714-.018-1.912-.203-2.281a2.079 2.079 0 0 0-1.15-1.013l-.266-.094-4.19-.001L4 3.52v-.833c0-.973-.032-1.121-.303-1.392a1.004 1.004 0 0 0-1.033-.232m9.311 4.547c.013.05.024.725.024 1.5L12 8.52H4v-3H11.951l.024.09m4 5c.013.05.024.725.024 1.5L16 13.52H4v-3h11.951l.024.09m4.005 5.04c.036.195.005 2.778-.033 2.817-.019.018-3.614.038-7.99.044L4 18.521V15.52h15.956l.024.13" fill="#667085" fill-rule="evenodd"/></svg>