<svg width="24" height="24" fill="none" xmlns="http://www.w3.org/2000/svg"><path d="M2.664 1.063a1.005 1.005 0 0 0-.533.448L2.02 1.7l-.01 10.215c-.007 6.748.003 10.265.03 10.363.191.713 1.131.953 1.66.424.266-.266.3-.42.3-1.368v-.811l4.17-.012c3.912-.012 4.184-.017 4.39-.085.699-.233 1.217-.784 1.378-1.47.049-.205.061-.569.061-1.842L14 15.528l1.17-.018c.968-.015 1.208-.03 1.39-.088a2.044 2.044 0 0 0 1.378-1.466c.049-.205.061-.569.061-1.842L18 10.528l1.17-.018c.968-.015 1.208-.03 1.39-.088a2.044 2.044 0 0 0 1.378-1.466c.088-.371.089-3.537.002-3.907a2.006 2.006 0 0 0-1.294-1.433l-.266-.094-8.19-.001L4 3.52v-.833c0-.973-.032-1.121-.303-1.392a1.004 1.004 0 0 0-1.033-.232M19.98 5.65c.036.195.005 2.778-.033 2.817-.019.018-3.614.038-7.99.044L4 8.521V5.52h15.956l.024.13m-3.989 6.327c-.006.801-.026 1.471-.044 1.49-.019.018-2.714.038-5.99.044L4 13.522V10.52h12.003l-.012 1.457m-4 5c-.006.801-.026 1.471-.044 1.49-.019.018-1.814.038-3.99.044L4 18.523V15.52h8.003l-.012 1.457" fill="#667085" fill-rule="evenodd"/></svg>