<svg width="24" height="24" fill="none" xmlns="http://www.w3.org/2000/svg"><path d="M3.643 1.069C3.291 1.193 3 1.614 3 2c0 .242.119.521.299.701.247.247.442.299 1.128.299H5v1.417c0 .798.019 1.553.043 1.728a3.972 3.972 0 0 0 1.082 2.212c.14.142 1.16 1.012 2.265 1.934 1.105.922 2.01 1.691 2.01 1.709 0 .018-.905.787-2.01 1.709-1.105.922-2.125 1.792-2.265 1.934a3.972 3.972 0 0 0-1.082 2.212c-.024.175-.043.93-.043 1.728V21h-.573c-.686 0-.881.052-1.128.299a.984.984 0 0 0 0 1.402c.325.325-.443.299 8.701.299s8.376.026 8.701-.299a.984.984 0 0 0 0-1.402c-.247-.247-.442-.299-1.128-.299H19v-1.417c0-.798-.019-1.553-.043-1.728a3.994 3.994 0 0 0-1.103-2.234c-.129-.129-1.139-.989-2.244-1.911-1.105-.923-2.01-1.692-2.01-1.71 0-.018.905-.787 2.01-1.71 1.105-.922 2.115-1.782 2.244-1.911a3.994 3.994 0 0 0 1.103-2.234c.024-.175.043-.93.043-1.728V3h.573c.686 0 .881-.052 1.128-.299a.984.984 0 0 0 0-1.402c-.325-.326.446-.299-8.718-.296-7.286.003-8.182.01-8.34.066M16.999 4.31c-.001.72-.017 1.432-.037 1.582-.05.393-.264.818-.551 1.099-.246.239-4.37 3.689-4.411 3.689-.042 0-4.211-3.487-4.431-3.707a2.012 2.012 0 0 1-.531-1.081c-.02-.15-.036-.862-.037-1.582L7 3h10l-.001 1.31m-2.892 10.747c1.145.955 2.184 1.835 2.308 1.957.283.276.497.704.547 1.094.02.15.036.862.037 1.582L17 21H7l.001-1.31c.001-.72.017-1.432.037-1.582.05-.39.264-.818.547-1.094.245-.24 4.374-3.694 4.415-3.694.014 0 .962.781 2.107 1.737" fill="#667085" fill-rule="evenodd"/></svg>