<svg width="24" height="24" fill="none" xmlns="http://www.w3.org/2000/svg"><path d="M5.42 1.056c-.497.121-1.023.544-1.231.992-.172.37-.203.591-.175 1.25.1 2.364.947 4.613 2.439 6.475.179.224.73.816 1.223 1.317l.896.91-.896.91c-.493.5-1.043 1.092-1.221 1.314a11.056 11.056 0 0 0-2.441 6.478c-.039.905.077 1.275.543 1.741.275.274.5.406.853.5.313.083 12.867.083 13.18 0 .353-.094.578-.226.853-.5.466-.466.582-.837.543-1.741a11.07 11.07 0 0 0-2.439-6.475c-.179-.224-.73-.817-1.223-1.317l-.896-.91.896-.91c.493-.5 1.044-1.093 1.223-1.317a11.07 11.07 0 0 0 2.439-6.475c.028-.659-.002-.88-.175-1.25-.216-.464-.768-.896-1.283-1.004C18.211.978 5.695.989 5.42 1.056M17.943 3.43a9.194 9.194 0 0 1-1.875 4.988c-.134.177-.696.781-1.249 1.342-.553.561-1.054 1.102-1.112 1.203A1.847 1.847 0 0 0 13.431 12c0 .412.073.688.276 1.037.058.101.559.642 1.112 1.203s1.115 1.165 1.249 1.342a9.194 9.194 0 0 1 1.875 4.988l.028.43H6.029l.027-.41a9.014 9.014 0 0 1 .909-3.434c.536-1.098.913-1.594 2.216-2.916.553-.561 1.054-1.102 1.112-1.203.203-.349.276-.625.276-1.037 0-.412-.073-.688-.276-1.037-.058-.101-.559-.642-1.112-1.203-1.303-1.322-1.68-1.818-2.216-2.916a9.014 9.014 0 0 1-.909-3.434L6.029 3h11.942l-.028.43" fill="#667085" fill-rule="evenodd"/></svg>