<svg width="24" height="24" fill="none" xmlns="http://www.w3.org/2000/svg"><path d="M5.576 1.059c-.666.145-1.192.607-1.46 1.281-.095.239-.095.247-.108 2.116-.013 1.988.002 2.231.171 2.715.213.616.29.706 2.387 2.811C7.641 11.061 8.52 11.969 8.52 12c0 .031-.879.939-1.954 2.018-2.097 2.105-2.174 2.195-2.387 2.811-.169.484-.184.727-.171 2.715.013 1.873.013 1.876.109 2.116.245.614.642 1.005 1.243 1.225l.26.095h12.76l.26-.095c.613-.225 1.017-.629 1.244-1.245l.096-.26v-2.02c0-2.198 0-2.202-.24-2.743-.203-.46-.41-.692-2.327-2.618C16.35 12.931 15.48 12.032 15.48 12c0-.032.87-.931 1.933-1.999 1.917-1.926 2.124-2.158 2.327-2.618.24-.541.24-.545.24-2.743V2.62l-.095-.26c-.251-.685-.785-1.155-1.48-1.302-.381-.081-12.457-.08-12.829.001m12.371 1.994c.018.019.038.745.044 1.615.01 1.364.003 1.613-.053 1.807-.064.219-.116.276-2.116 2.285-1.959 1.967-2.058 2.074-2.195 2.36-.081.17-.164.426-.191.59-.063.384-.001.768.191 1.17.137.286.236.394 2.194 2.36 1.97 1.978 2.054 2.069 2.115 2.277.054.182.064.462.064 1.725 0 .83-.011 1.564-.025 1.633L17.95 21H6.05l-.025-.125C6.011 20.806 6 20.072 6 19.242c0-1.263.01-1.543.064-1.725.061-.208.145-.299 2.115-2.277 1.962-1.971 2.057-2.073 2.193-2.36.308-.65.282-1.291-.078-1.917-.062-.109-.929-1.011-2.136-2.223-1.95-1.959-2.033-2.049-2.094-2.257-.054-.182-.064-.463-.063-1.74 0-.838.011-1.563.024-1.611.013-.048.053-.096.089-.105.123-.034 11.799-.007 11.833.026M8.6 17.584a1.137 1.137 0 0 0-.492.476c-.064.119-.086.231-.086.44 0 .329.09.534.323.739.315.277.091.261 3.655.261 3.564 0 3.34.016 3.655-.261.233-.205.323-.41.323-.739s-.09-.534-.323-.739c-.288-.253-.105-.241-3.664-.239-2.812.001-3.27.009-3.391.062" fill="#667085" fill-rule="evenodd"/></svg>