<svg width="24" height="24" fill="none" xmlns="http://www.w3.org/2000/svg"><path d="M2.643 3.069C2.291 3.193 2 3.614 2 4c0 .242.119.521.299.701C2.625 5.027 1.736 5 12 5c10.264 0 9.375.027 9.701-.299a.984.984 0 0 0 0-1.402c-.326-.327.567-.299-9.718-.296-8.192.003-9.182.01-9.34.066m3 4C5.291 7.193 5 7.614 5 8c0 .242.119.521.299.701C5.623 9.025 4.977 9 13 9s7.377.025 7.701-.299a.984.984 0 0 0 0-1.402c-.324-.324.325-.299-7.718-.296-6.381.003-7.182.01-7.34.066m3 4C8.291 11.193 8 11.614 8 12c0 .242.119.521.299.701.318.319-.022.299 5.201.299s4.883.02 5.201-.299a.984.984 0 0 0 0-1.402c-.319-.319.025-.299-5.218-.296-4.116.003-4.684.011-4.84.066m-1 4C7.291 15.193 7 15.614 7 16c0 .242.119.521.299.701.314.314.097.299 4.201.299 4.104 0 3.887.015 4.201-.299a.984.984 0 0 0 0-1.402c-.315-.315-.094-.299-4.218-.296-3.21.003-3.685.011-3.84.066m4 4c-.352.124-.643.545-.643.931 0 .242.119.521.299.701.307.308.215.299 3.201.299s2.894.009 3.201-.299c.18-.18.299-.459.299-.701 0-.242-.119-.521-.299-.701-.308-.308-.213-.299-3.218-.296-2.304.003-2.687.012-2.84.066" fill="#667085" fill-rule="evenodd"/></svg>