<svg width="24" height="24" fill="none" xmlns="http://www.w3.org/2000/svg"><path d="M10.5 2.043c-3.668.207-6.516 1.063-7.761 2.334C1.44 5.702 1.872 7.33 3.815 8.429c1.05.593 2.794 1.092 4.718 1.348 1.293.172 1.808.202 3.467.202 1.661 0 2.173-.03 3.475-.203 1.78-.237 3.347-.667 4.459-1.223 1.114-.556 1.818-1.286 2.005-2.077.317-1.348-.681-2.558-2.779-3.369-2.146-.829-5.502-1.241-8.66-1.064m2.82 1.998c1.414.079 2.773.269 3.84.538.781.197 1.23.355 1.833.646.421.204.582.305.77.488.13.127.237.256.237.287 0 .131-.462.504-.9.727-1.184.601-2.782.979-5.08 1.201-.689.067-3.351.067-4.04 0-1.797-.174-3.185-.45-4.3-.855-.394-.143-.978-.427-1.218-.592C4.271 6.35 4 6.063 4 5.992c0-.027.107-.152.237-.279.415-.403 1.397-.83 2.618-1.138 1.794-.452 4.264-.656 6.465-.534M4.13 10.74c-.532.231-.776.852-.533 1.354.13.269.351.436.983.745 1.792.877 4.286 1.321 7.42 1.321 2.536 0 4.696-.299 6.396-.886.581-.201 1.53-.663 1.75-.851a.972.972 0 0 0 .24-1.195c-.175-.356-.489-.548-.9-.548-.207 0-.286.025-.624.203-1.186.623-3.149 1.075-5.362 1.236-.719.052-2.281.052-3 0-2.213-.161-4.176-.613-5.362-1.236-.345-.181-.413-.203-.632-.201-.135 0-.305.027-.376.058m1.47 4.783a.965.965 0 0 0-.588.816c-.038.369.145.746.45.924.584.343 2.506.788 4.158.964.979.105 3.781.105 4.76 0 1.652-.176 3.574-.621 4.158-.964.305-.178.488-.555.45-.924a.965.965 0 0 0-.588-.816c-.275-.124-.5-.106-1.117.093-.887.286-1.898.483-3.243.632-.296.033-1.024.052-2.04.052s-1.744-.019-2.04-.052c-1.345-.149-2.356-.346-3.243-.632-.617-.199-.842-.217-1.117-.093m1.522 4.06c-.543.236-.774.848-.513 1.357.195.378.389.483 1.219.658 1.33.281 2.419.381 4.172.381 1.751 0 2.842-.1 4.169-.38.854-.18 1.056-.295 1.235-.698a.985.985 0 0 0-.535-1.32c-.199-.083-.519-.077-.916.019-.414.099-1.451.26-2.113.328-.3.03-1.037.051-1.84.051-.803 0-1.54-.021-1.84-.051-.662-.068-1.699-.229-2.113-.328-.391-.094-.733-.1-.925-.017" fill="#667085" fill-rule="evenodd"/></svg>