<svg width="24" height="24" fill="none" xmlns="http://www.w3.org/2000/svg"><path d="M13.14 3.042A9.134 9.134 0 0 0 9 4.53c-1.083.72-2.153 1.862-2.796 2.987-1.208 2.109-1.533 4.689-.841 6.667a6.966 6.966 0 0 0 2.925 3.623c.633.394 1.492.74 2.212.892.472.099.472.101.06.207-.336.087-.438.096-.88.078-3.47-.141-6.285-2.812-6.638-6.298A8.312 8.312 0 0 1 3 12.063c0-.302-.105-.57-.299-.764a.984.984 0 0 0-1.402 0c-.306.306-.359.688-.239 1.713a9.024 9.024 0 0 0 1.709 4.333c.412.558 1.328 1.474 1.886 1.886a8.98 8.98 0 0 0 9.936.502c.832-.497 1.801-1.334 2.397-2.073 1.487-1.841 2.224-4.285 1.92-6.36-.264-1.797-.88-3.044-2.075-4.202-.935-.906-2.169-1.562-3.413-1.814-.194-.039-.337-.081-.317-.093.021-.013.222-.064.447-.115.392-.088.435-.09.98-.044.975.083 1.77.297 2.556.69 2.209 1.105 3.625 3.15 3.872 5.592.023.228.042.508.042.623 0 .302.105.57.299.764a.984.984 0 0 0 1.403-.001c.26-.26.315-.478.284-1.118-.063-1.285-.349-2.383-.927-3.562a8.475 8.475 0 0 0-1.804-2.46A8.905 8.905 0 0 0 15.3 3.099c-.494-.076-1.676-.107-2.16-.057M12.98 7.1c1.017.21 1.807.637 2.545 1.375.739.739 1.164 1.528 1.38 2.565.097.463.099 1.342.004 1.787-.273 1.273-.652 1.999-1.446 2.765-.723.698-1.503 1.104-2.563 1.334-.317.069-1.483.069-1.8 0-1.105-.24-1.874-.65-2.625-1.401-.742-.742-1.163-1.523-1.38-2.565-.097-.463-.099-1.342-.004-1.787.265-1.238.614-1.926 1.362-2.683a4.884 4.884 0 0 1 2.687-1.405l.38-.063c.21-.035 1.154.015 1.46.078m-1.378 2.944c-.337.066-.755.299-1.017.568-.783.801-.777 1.996.015 2.788.798.798 2.002.798 2.8 0 .792-.792.798-1.987.015-2.788a2 2 0 0 0-1.813-.568" fill="#667085" fill-rule="evenodd"/></svg>