<svg width="24" height="24" fill="none" xmlns="http://www.w3.org/2000/svg"><path d="M5.17 2.044c-1.06.094-1.873.483-2.576 1.231-.513.545-.834 1.148-.973 1.822-.13.637-.146 1.545-.129 7.423.018 6.343.01 6.131.26 6.856.304.882 1.084 1.759 1.956 2.198.114.058.357.148.54.201.71.206.664.205 7.472.205 6.815 0 6.596.006 6.991-.204a.844.844 0 0 1 .285-.097c.13 0 .62-.265.918-.495.621-.48 1.282-1.385 1.285-1.759a.591.591 0 0 1 .083-.248c.181-.293.212-.613.211-2.177 0-1.373-.005-1.479-.087-1.778a3.154 3.154 0 0 0-.589-1.157c-.303-.367-4.088-3.398-4.439-3.555-.665-.296-1.367-.237-1.955.163-.119.081-2.338 2.078-4.932 4.438-3.816 3.472-4.732 4.325-4.803 4.47-.048.098-.103.179-.124.179-.103 0-.535-.389-.7-.63-.347-.508-.324-.011-.324-7.13 0-5.816.005-6.281.07-6.56.12-.517.54-1.019 1.032-1.236.369-.162.676-.176 4.238-.201l3.42-.023.192-.113c.754-.443.633-1.561-.197-1.81-.156-.047-.743-.056-3.471-.051-1.806.003-3.45.02-3.654.038m16.07-.009c-.243.08-.431.251-2.02 1.842-.924.926-1.698 1.683-1.72 1.683-.023 0-.347-.307-.72-.683-.374-.375-.752-.721-.84-.769-.224-.12-.655-.12-.883 0-.34.18-.551.521-.551.892 0 .387.026.422 1.249 1.654 1.244 1.255 1.362 1.345 1.745 1.345.407 0 .428-.018 2.746-2.345C22.543 3.347 22.494 3.405 22.494 3c0-.371-.213-.716-.548-.887-.175-.089-.547-.13-.706-.078M7.325 5.582c-.345.075-.931.368-1.232.618-.46.38-.836.969-.999 1.56-.05.182-.071.403-.071.74 0 .744.191 1.29.653 1.871A2.926 2.926 0 0 0 8 11.485c1.347 0 2.473-.849 2.889-2.18.074-.238.088-.374.086-.825-.002-.479-.015-.576-.111-.86-.29-.853-.82-1.453-1.615-1.828a3.369 3.369 0 0 0-.6-.214 4.085 4.085 0 0 0-1.324.004M8.42 7.595c.196.09.36.252.473.464.113.214.118.654.01.874-.365.744-1.405.748-1.796.008-.118-.224-.118-.658 0-.882.193-.364.48-.537.893-.537.167 0 .317.026.42.073m8.989 6.215c1.176.943 1.852 1.511 1.93 1.624l.121.173-.001 1.287c0 .861-.017 1.365-.05 1.524-.092.445-.487.967-.954 1.262-.493.311-.15.294-6.075.309l-5.28.014.12-.119c.47-.463 8.284-7.524 8.327-7.524.029 0 .867.653 1.862 1.45" fill="#667085" fill-rule="evenodd"/></svg>