<svg width="24" height="24" fill="none" xmlns="http://www.w3.org/2000/svg"><path d="M4.9 1.026c-.423.034-.905.111-1.14.183-.829.255-1.608.851-2.101 1.608a3.888 3.888 0 0 0-.552 1.323c-.083.356-.084.432-.098 7.16-.015 7.212-.008 7.552.171 8.502.135.714.237 1.006.491 1.398.555.857 1.419 1.45 2.469 1.693.356.083.428.084 7.34.098 7.088.014 7.807.002 8.472-.134.94-.193 1.831-.817 2.389-1.674a3.88 3.88 0 0 0 .551-1.323c.08-.348.083-.491.098-4.174.016-4.305.032-4.067-.288-4.386a.984.984 0 0 0-1.403-.001c-.312.311-.299.155-.299 3.718 0 3.201-.031 4.217-.139 4.634-.103.395-.402.785-.796 1.039-.184.117-.224.126-.645.142l-.448.018-.028-.395a5.052 5.052 0 0 0-.128-.775c-.127-.484-.499-1.246-.808-1.661a5.027 5.027 0 0 0-3.508-1.981c-.289-.028-1.933-.038-4.8-.028-4.259.013-4.368.016-4.72.098-.657.153-1.342.45-1.797.78l-.163.118-.012-5.513c-.012-5.572.008-6.675.131-7.143.145-.555.656-1.066 1.209-1.21.418-.109 1.43-.14 4.635-.14 3.563 0 3.407.013 3.718-.299a.984.984 0 0 0 0-1.402c-.314-.315-.108-.3-4.098-.292-1.949.003-3.615.012-3.703.019m16.74 1.042c-.153.053-.442.323-1.909 1.785l-1.73 1.724-.73-.723c-.619-.611-.761-.732-.928-.788-.388-.13-.765-.046-1.044.233-.279.278-.363.655-.233 1.044.057.173.203.336 1.189 1.328.771.775 1.179 1.158 1.3 1.216.246.119.51.137.771.053.201-.065.342-.198 2.345-2.195 1.516-1.511 2.156-2.176 2.217-2.301.396-.818-.38-1.674-1.248-1.376M9.104 4.584c-1.803.326-3.325 1.678-3.88 3.449C4.226 11.213 6.65 14.49 10 14.49a5.008 5.008 0 0 0 4.942-4.25c.401-2.659-1.427-5.196-4.077-5.658-.441-.077-1.329-.076-1.761.002m1.827 2.067A3.036 3.036 0 0 1 12.886 8.7c.128.452.128 1.148 0 1.6a2.808 2.808 0 0 1-.766 1.3c-.386.386-.721.598-1.172.741-.826.262-1.747.169-2.468-.25-.389-.226-.903-.76-1.107-1.151-.26-.495-.35-.867-.35-1.44 0-.379.019-.547.091-.8a3.016 3.016 0 0 1 2.221-2.123c.395-.09 1.208-.052 1.596.074m3.803 11.441c.913.27 1.542.782 1.928 1.568.211.428.298.746.298 1.088V21h-5.714c-5.891 0-6.506-.014-6.975-.16-.313-.098-.638-.348-.85-.656l-.159-.23.168-.327a2.905 2.905 0 0 1 1.396-1.356c.567-.274.42-.266 5.294-.257 4.02.008 4.399.014 4.614.078" fill="#667085" fill-rule="evenodd"/></svg>