<svg width="24" height="24" fill="none" xmlns="http://www.w3.org/2000/svg"><path d="M2.643 3.069C2.291 3.193 2 3.614 2 4c0 .396.291.808.66.934.179.061.93.066 9.357.064 7.55-.001 9.189-.011 9.313-.055.221-.079.414-.241.539-.454.095-.161.111-.233.111-.489s-.016-.328-.111-.489a.986.986 0 0 0-.547-.45c-.152-.054-1.235-.061-9.337-.058-8.194.003-9.184.01-9.342.066m.917 3.987c-.53.117-1.11.563-1.332 1.024C1.996 8.563 2 8.492 2 12c0 2.763.009 3.257.061 3.462.194.755.794 1.34 1.531 1.494.295.061 6.521.061 6.816 0 .712-.149 1.338-.739 1.519-1.433.062-.238.068-.57.068-3.523 0-2.953-.006-3.285-.068-3.523-.184-.703-.831-1.304-1.544-1.434-.353-.064-6.529-.053-6.823.013m11.22 1.221a1.096 1.096 0 0 0-.688.559c-.104.209-.096.653.016.864.11.209.269.356.492.457.176.08.247.081 3.375.082 2.312.001 3.239-.012 3.351-.045a1.09 1.09 0 0 0 .316-.185.99.99 0 0 0-.172-1.633l-.21-.116-3.18-.006c-1.749-.004-3.234.006-3.3.023m-4.828.771c.036.036.048.743.048 2.937 0 1.589-.011 2.917-.024 2.952C9.954 14.994 9.654 15 7 15H4.049l-.024-.09c-.044-.164-.028-5.749.016-5.833C4.082 9.002 4.157 9 6.993 9c2.211 0 2.923.012 2.959.048m4.648 4.795c-.388.176-.576.467-.578.897-.003.415.177.71.556.913l.162.087h6.52l.21-.116c.473-.262.659-.811.435-1.284a.951.951 0 0 0-.505-.497c-.176-.08-.246-.081-3.4-.081s-3.224.001-3.4.081M2.643 19.069C2.291 19.193 2 19.614 2 20c0 .396.291.808.66.934.179.061.93.066 9.357.064 7.55-.001 9.189-.011 9.313-.055.221-.079.414-.241.539-.454.095-.161.111-.233.111-.489s-.016-.328-.111-.489a.986.986 0 0 0-.547-.45c-.152-.054-1.235-.061-9.337-.058-8.194.003-9.184.01-9.342.066" fill="#667085" fill-rule="evenodd"/></svg>