<svg width="24" height="24" fill="none" xmlns="http://www.w3.org/2000/svg"><path d="M4.9 2.025c-.989.083-1.531.257-2.2.708-.578.389-1.181 1.16-1.417 1.811-.279.77-.263.33-.263 7.456 0 6.02.004 6.442.072 6.773.223 1.094.826 1.987 1.746 2.582.418.269.858.445 1.389.553.332.068.791.072 7.773.072 6.982 0 7.441-.004 7.773-.072 1.094-.223 1.987-.826 2.582-1.746.269-.418.445-.858.553-1.389.068-.331.072-.753.072-6.773s-.004-6.442-.072-6.773c-.289-1.42-1.291-2.57-2.618-3.005-.618-.202-.343-.195-8.05-.203a1071.16 1071.16 0 0 0-7.34.006M18.801 4.04c.341.022.724.067.851.1.553.144 1.065.656 1.209 1.209.106.41.139 1.419.139 4.35v2.879l-.87-.865c-.478-.476-.96-.921-1.07-.99-.602-.378-1.455-.387-2.089-.022-.114.066-.748.664-1.58 1.493l-1.39 1.382-.37-.363a4.8 4.8 0 0 0-.571-.489c-.633-.401-1.541-.386-2.166.034-.139.094-1.592 1.517-3.591 3.517l-3.358 3.36-.122-.084c-.355-.242-.594-.557-.683-.897C3.022 18.2 3 17.176 3 12c0-5.172.022-6.2.14-6.652.103-.397.416-.8.811-1.044.239-.148.575-.225 1.142-.261.736-.047 12.976-.05 13.708-.003M7.44 6.057a2.93 2.93 0 0 0-1.561.859A2.924 2.924 0 0 0 5.114 8.2c-.078.247-.094.388-.094.8 0 .579.075.882.352 1.42.23.447.761.978 1.208 1.208.538.277.841.352 1.42.352s.882-.075 1.42-.352c.447-.23.978-.761 1.208-1.208.277-.538.352-.841.352-1.42s-.075-.882-.352-1.42c-.248-.482-.76-.98-1.268-1.232a4.324 4.324 0 0 0-.62-.251c-.336-.087-.981-.107-1.3-.04M8.5 8.138c.672.394.652 1.389-.035 1.753-.246.13-.701.125-.943-.011-.749-.42-.659-1.524.148-1.825.229-.086.607-.048.83.083m11.03 5.812L21 15.42v.88c0 1.067-.058 2.039-.14 2.354-.089.34-.328.655-.683.897l-.122.084-2.317-2.317L15.42 15l1.26-1.26c.693-.693 1.287-1.26 1.32-1.26.033 0 .721.661 1.53 1.47m-4.736 3.264c2.092 2.092 2.718 2.74 2.667 2.76-.037.014-2.495.026-5.461.026s-5.424-.012-5.461-.026c-.051-.02.575-.668 2.667-2.76C10.71 15.71 11.967 14.48 12 14.48c.033 0 1.29 1.23 2.794 2.734" fill="#667085" fill-rule="evenodd"/></svg>