<svg width="24" height="24" fill="none" xmlns="http://www.w3.org/2000/svg"><path d="M17.423 2.042c-1.317.207-2.392.979-2.998 2.152-.823 1.593-.471 3.515.868 4.749a3.958 3.958 0 0 0 5.421-.043c1.693-1.597 1.683-4.227-.022-5.82a4.004 4.004 0 0 0-1.862-.983c-.357-.077-1.089-.105-1.407-.055m.942 1.999c.279.052.73.27.942.455.724.63.872 1.808.33 2.619-.784 1.174-2.53 1.174-3.314 0a2.057 2.057 0 0 1 0-2.23c.209-.314.428-.502.779-.671a1.926 1.926 0 0 1 1.263-.173M9.562 7.804c-.508.099-.999.459-1.361.996-.097.143-1.649 2.39-3.451 4.993-1.801 2.603-3.359 4.87-3.461 5.038-.343.565-.451 1-.37 1.482a1.964 1.964 0 0 0 1.452 1.598c.232.064.87.069 9.629.069s9.397-.005 9.629-.069c.802-.222 1.338-.83 1.458-1.656.058-.392-.005-.708-.231-1.168-.121-.248-3.863-5.922-4.286-6.5-.405-.554-1.194-.867-1.896-.752-.627.102-1.076.433-1.518 1.115-.202.312-.254.368-.296.324a510.398 510.398 0 0 1-3.097-4.465c-.305-.448-.531-.656-.903-.834a2.014 2.014 0 0 0-1.298-.171m4.081 7.242a686.288 686.288 0 0 1 3.397 4.931c0 .012-3.168.023-7.04.023s-7.04-.015-7.04-.034c0-.018.072-.145.159-.28.319-.493 6.461-9.353 6.656-9.602l.201-.256.135.156c.074.086 1.663 2.364 3.532 5.062m5.46 1.955c1.065 1.595 1.937 2.922 1.937 2.95 0 .037-.184.049-.77.048l-.77-.001-1.62-2.343a478.536 478.536 0 0 1-1.689-2.452l-.07-.109.31-.457c.17-.251.362-.527.427-.612l.118-.154.095.115c.053.062.967 1.419 2.032 3.015" fill="#667085" fill-rule="evenodd"/></svg>