<svg width="24" height="24" fill="none" xmlns="http://www.w3.org/2000/svg"><path d="M5.9 2.025c-.991.083-1.531.257-2.2.708-.578.389-1.181 1.16-1.417 1.811-.279.77-.263.33-.263 7.456 0 6.02.004 6.442.072 6.773.223 1.094.826 1.987 1.746 2.582.418.269.858.445 1.389.553.331.068.753.072 6.773.072s6.442-.004 6.773-.072c1.094-.223 1.987-.826 2.582-1.746.269-.418.445-.858.553-1.389.068-.331.072-.753.072-6.773s-.004-6.442-.072-6.773c-.289-1.42-1.291-2.57-2.618-3.005-.611-.2-.432-.195-7.05-.203a802.572 802.572 0 0 0-6.34.006M17.801 4.04c.341.022.723.066.85.099.553.144 1.065.656 1.209 1.209.118.452.14 1.48.14 6.652 0 5.167-.022 6.2-.139 6.651-.142.544-.638 1.05-1.181 1.206-.442.126-1.17.142-6.68.142s-6.238-.016-6.68-.142c-.543-.156-1.039-.662-1.181-1.206C4.022 18.2 4 17.167 4 12c0-5.172.022-6.2.14-6.652.103-.397.416-.8.811-1.044.239-.148.575-.225 1.142-.261.734-.047 10.98-.05 11.708-.003m-4.636 2.535c-.256.093-.438.307-1.357 1.593l-.976 1.363c-.049.066-.107.032-.723-.428-.723-.54-.865-.607-1.221-.57a.939.939 0 0 0-.705.439 172.59 172.59 0 0 0-1.619 2.936c-.993 1.824-1.497 2.788-1.52 2.91-.037.201.002.48.092.654.084.164.348.389.529.453.229.081 12.439.082 12.668.001.452-.16.734-.691.614-1.153-.06-.228-4.596-7.812-4.774-7.981a1.035 1.035 0 0 0-1.008-.217m1.698 5.11 1.377 2.295-4.267.01a346.83 346.83 0 0 1-4.279-.003c-.023-.022 1.603-2.986 1.637-2.987.018 0 .284.19.593.423.309.233.628.452.709.486.314.134.775.052 1.021-.181.062-.059.483-.627.935-1.261.52-.729.836-1.138.86-1.114.021.021.657 1.07 1.414 2.332" fill="#667085" fill-rule="evenodd"/></svg>