<svg width="24" height="24" fill="none" xmlns="http://www.w3.org/2000/svg"><path d="M15.808 1.864a.96.96 0 0 0-.509.593c-.074.249-.074.318.005.586.059.203.127.281 1.048 1.207l.985.989-.984.991c-.919.924-.989 1.004-1.049 1.207-.08.271-.08.335 0 .606.089.298.355.564.653.653.271.08.335.08.606 0 .203-.06.283-.13 1.207-1.049l.991-.984.989.985c.961.957.997.988 1.23 1.055.202.058.275.062.46.023.581-.121.918-.688.759-1.277-.046-.17-.154-.292-1.045-1.19l-.993-1.001.941-.939c1.023-1.022 1.138-1.177 1.138-1.532 0-.319-.077-.507-.299-.728-.221-.222-.409-.299-.728-.299-.355 0-.51.115-1.532 1.138l-.939.941-1.001-.993C16.66 1.775 16.639 1.76 16.213 1.76a.893.893 0 0 0-.405.104m-10.196.417c-.811.056-1.39.222-1.946.559-.742.449-1.382 1.225-1.652 2.002-.242.697-.228.278-.244 7.158-.01 4.492-.001 6.414.031 6.696.116 1.022.503 1.788 1.257 2.493.696.649 1.356.917 2.493 1.011.277.023 2.945.038 6.529.038 6.475-.001 6.496-.001 6.824-.195a.616.616 0 0 1 .256-.083c.277 0 1.132-.558 1.526-.996.376-.418.754-1.052.754-1.266 0-.057.043-.179.095-.271.178-.31.205-.607.204-2.207-.001-1.298-.01-1.512-.073-1.738-.148-.531-.461-1.074-.812-1.409-.085-.08-1-.824-2.034-1.651-2.024-1.621-2.207-1.744-2.727-1.827-.492-.079-1.071.057-1.453.339-.185.138-8.982 8.122-9.43 8.559-.137.134-.269.303-.293.376-.024.072-.067.131-.096.131-.084 0-.466-.304-.615-.49a1.842 1.842 0 0 1-.374-.87c-.041-.237-.052-1.591-.052-6.42.001-6.825-.01-6.547.267-7.008.255-.423.701-.752 1.153-.849.388-.084 1.754-.121 4.515-.122 1.997-.001 2.738-.014 2.86-.05.22-.065.551-.396.616-.616.147-.497-.044-.974-.483-1.206L12.5 2.26l-3.22-.005c-1.771-.002-3.422.009-3.668.026M7.8 5.784c-.976.176-1.799.78-2.215 1.628-.251.51-.32.796-.32 1.328-.001.838.284 1.529.875 2.12.591.591 1.282.876 2.12.875.534 0 .817-.069 1.34-.325.322-.158.435-.241.74-.548.198-.199.421-.466.495-.592.374-.638.504-1.5.33-2.191-.272-1.075-1.018-1.87-2.065-2.199-.273-.086-1.042-.143-1.3-.096m.906 2.068c.161.084.358.281.441.442.036.069.073.243.084.387.035.489-.242.89-.706 1.025a.97.97 0 0 1-1.257-.946c-.002-.425.186-.733.55-.908.169-.08.248-.094.482-.081.154.009.337.045.406.081m7.33 4.916c.376.282 3.007 2.39 3.28 2.627.351.304.405.439.431 1.078.026.625-.046 2.036-.118 2.307-.075.285-.401.756-.666.966-.363.287-.646.405-1.091.452-.472.051-10.485.059-10.465.008.012-.029 7.683-7.012 8.169-7.436.107-.093.205-.17.216-.17.011 0 .121.076.244.168" fill="#667085" fill-rule="evenodd"/></svg>