<svg width="24" height="24" fill="none" xmlns="http://www.w3.org/2000/svg"><path d="M5.9 2.025c-.991.083-1.531.257-2.2.708-.578.389-1.181 1.16-1.417 1.811-.279.77-.263.33-.263 7.456 0 6.02.004 6.442.072 6.773.108.531.284.971.553 1.389.527.815 1.326 1.413 2.188 1.639.686.18.66.179 7.287.179 5.905 0 6.322-.005 6.653-.072a3.927 3.927 0 0 0 1.389-.553c.92-.595 1.523-1.488 1.746-2.582.068-.331.072-.753.072-6.773s-.004-6.442-.072-6.773c-.289-1.42-1.291-2.57-2.618-3.005-.611-.2-.432-.195-7.05-.203a802.572 802.572 0 0 0-6.34.006M17.801 4.04c.341.022.723.066.85.099.553.144 1.065.656 1.209 1.209.107.411.14 1.416.14 4.351v2.878l-1.39-1.383c-.833-.829-1.467-1.427-1.581-1.493-.658-.378-1.522-.355-2.135.057-.299.202-9.814 9.716-9.814 9.814 0 .263-.506-.099-.811-.581-.119-.187-.188-.547-.229-1.19-.052-.819-.052-10.783 0-11.602.022-.341.067-.724.1-.851.103-.397.416-.8.811-1.044.239-.148.575-.225 1.142-.261.734-.047 10.98-.05 11.708-.003M7.764 5.6a2.972 2.972 0 0 0-1.473.895c-.874.934-1.032 2.386-.382 3.505.194.334.757.897 1.091 1.091.523.304 1.241.456 1.812.385A3.343 3.343 0 0 0 10 11.091c.334-.194.897-.757 1.091-1.091.304-.523.456-1.241.385-1.812a2.86 2.86 0 0 0-.856-1.771 2.938 2.938 0 0 0-1.209-.767c-.436-.143-1.214-.167-1.647-.05m1.168 2.005c.23.115.339.222.452.444.14.275.134.659-.015.929-.337.615-1.183.705-1.629.175-.319-.38-.294-1.034.053-1.366.285-.274.795-.355 1.139-.182m9.098 5.845L20 15.42v.88c0 1.063-.058 2.039-.139 2.351-.142.544-.638 1.05-1.181 1.206-.121.034-.436.08-.7.102-.529.044-10.329.058-10.441.015-.051-.02.932-1.025 4.167-4.26 2.329-2.329 4.261-4.234 4.294-4.234.033 0 .946.886 2.03 1.97" fill="#667085" fill-rule="evenodd"/></svg>