<svg width="24" height="24" fill="none" xmlns="http://www.w3.org/2000/svg"><path d="M4.9 1.026c-.423.034-.905.111-1.14.183-.829.255-1.608.851-2.101 1.608a3.888 3.888 0 0 0-.552 1.323c-.083.356-.084.432-.098 7.16-.015 7.212-.008 7.552.171 8.502.135.714.237 1.006.491 1.398.555.857 1.419 1.45 2.469 1.693.356.083.428.084 7.34.098 7.088.014 7.807.002 8.472-.134.94-.193 1.831-.817 2.389-1.674a3.88 3.88 0 0 0 .551-1.323c.08-.348.083-.491.098-4.174.016-4.305.032-4.067-.288-4.386a.984.984 0 0 0-1.403-.001c-.312.311-.299.155-.299 3.718 0 3.201-.031 4.217-.139 4.634-.103.395-.402.785-.796 1.039-.184.117-.224.126-.645.142l-.448.018-.028-.395a5.052 5.052 0 0 0-.128-.775c-.127-.484-.499-1.246-.808-1.661a5.027 5.027 0 0 0-3.508-1.981c-.289-.028-1.933-.038-4.8-.028-4.259.013-4.368.016-4.72.098-.657.153-1.342.45-1.797.78l-.163.118-.012-5.513c-.012-5.572.008-6.675.131-7.143.145-.555.656-1.066 1.209-1.21.418-.109 1.43-.14 4.635-.14 3.563 0 3.407.013 3.718-.299a.984.984 0 0 0 0-1.402c-.314-.315-.108-.3-4.098-.292-1.949.003-3.615.012-3.703.019m13.743.043a1.066 1.066 0 0 0-.577.591c-.058.17-.066.428-.066 2.055v1.86l-.73-.721c-.618-.611-.76-.732-.927-.788-.388-.13-.765-.046-1.044.233-.278.278-.363.655-.234 1.044.059.176.237.369 1.69 1.828 1.141 1.145 1.677 1.657 1.801 1.717.245.118.51.136.77.052.199-.065.326-.181 1.845-1.695 1.711-1.704 1.784-1.791 1.82-2.167C23.044 4.523 22.563 4 22 4c-.364 0-.496.088-1.27.854l-.73.721v-1.86c0-2.11-.001-2.118-.299-2.416a.998.998 0 0 0-1.058-.23M9.104 4.584c-1.803.326-3.325 1.678-3.88 3.449C4.226 11.213 6.65 14.49 10 14.49a5.008 5.008 0 0 0 4.942-4.25c.401-2.659-1.427-5.196-4.077-5.658-.441-.077-1.329-.076-1.761.002m1.827 2.067A3.036 3.036 0 0 1 12.886 8.7c.128.452.128 1.148 0 1.6a2.808 2.808 0 0 1-.766 1.3c-.386.386-.721.598-1.172.741-.826.262-1.747.169-2.468-.25-.389-.226-.903-.76-1.107-1.151-.26-.495-.35-.867-.35-1.44 0-.379.019-.547.091-.8a3.016 3.016 0 0 1 2.221-2.123c.395-.09 1.208-.052 1.596.074m3.889 11.464c.555.185.938.413 1.295.77.508.508.845 1.252.845 1.863V21h-5.714c-5.891 0-6.506-.014-6.975-.16-.313-.098-.638-.348-.85-.656l-.159-.23.168-.327a2.905 2.905 0 0 1 1.396-1.356c.568-.274.418-.266 5.314-.258l4.4.008.28.094" fill="#667085" fill-rule="evenodd"/></svg>