<svg width="24" height="24" fill="none" xmlns="http://www.w3.org/2000/svg"><path d="M4.714 1.041c-.83.076-1.381.265-2.014.692-.578.389-1.181 1.16-1.417 1.811-.28.775-.263.214-.263 8.456 0 6.978.004 7.441.072 7.772.254 1.248.995 2.236 2.088 2.783.348.174.471.208 1.089.303.909.14 1.351.147 8.111.131 6.025-.014 6.715-.022 7.04-.082.198-.037.486-.084.64-.104.442-.057.845-.243 1.368-.632.757-.564 1.279-1.41 1.48-2.398.068-.332.072-.79.072-7.753 0-8.207.015-7.706-.261-8.469-.373-1.032-1.364-1.984-2.419-2.324-.649-.21-.31-.201-8.06-.209-3.949-.005-7.336.006-7.526.023M18.801 3.04c.341.022.724.067.851.1.553.144 1.064.655 1.209 1.21.128.488.145 1.541.129 8.13-.016 6.551-.022 6.849-.156 7.195-.038.097-.053.072-.192-.321-.53-1.498-1.635-2.606-3.083-3.09-.751-.251-.586-.244-5.559-.244-4.975 0-4.808-.007-5.56.244-1.468.491-2.589 1.634-3.117 3.178-.108.316-.118.331-.157.233-.134-.345-.14-.643-.156-7.195-.016-6.595.001-7.642.129-8.132.104-.398.417-.8.812-1.044.239-.148.575-.225 1.142-.261.736-.047 12.976-.05 13.708-.003m-7.697 1.544a5.01 5.01 0 0 0-2.611 1.384c-.4.406-.471.493-.712.866a4.948 4.948 0 0 0 .031 5.376c.953 1.446 2.483 2.28 4.188 2.28 1.705 0 3.235-.834 4.188-2.28a4.953 4.953 0 0 0 .03-5.378c-.24-.371-.312-.459-.711-.864a4.95 4.95 0 0 0-2.642-1.386c-.441-.077-1.329-.076-1.761.002m1.836 2.072A3.02 3.02 0 0 1 14.886 8.7c.128.452.128 1.148 0 1.6a2.813 2.813 0 0 1-.766 1.3c-.384.386-.718.597-1.167.739a3.003 3.003 0 0 1-1.906 0c-.448-.142-.782-.353-1.168-.738-.28-.28-.375-.409-.53-.721-.261-.524-.325-.796-.326-1.38 0-.379.019-.547.091-.8a3.021 3.021 0 0 1 2.226-2.124c.158-.036.417-.05.76-.041.437.011.571.031.84.121m3.8 11.436c.132.038.402.148.6.246a2.765 2.765 0 0 1 1.322 1.322c.203.412.298.745.298 1.045v.208l-.35.033c-.457.044-12.763.044-13.22 0l-.35-.033v-.208c0-.115.027-.313.06-.44a2.945 2.945 0 0 1 1.496-1.899c.39-.2.661-.287 1.018-.326.157-.017 2.221-.028 4.586-.024 3.934.006 4.32.013 4.54.076" fill="#667085" fill-rule="evenodd"/></svg>