<svg width="24" height="24" fill="none" xmlns="http://www.w3.org/2000/svg"><path d="M18.058 1.619c-.148.074-.602.503-1.786 1.69-1.722 1.725-1.764 1.777-1.763 2.19a.999.999 0 0 0 .984.992c.377 0 .536-.106 1.296-.861l.691-.687V6.71c0 1.12.016 1.84.043 1.969.103.479.514.816.991.812a.995.995 0 0 0 .877-.543l.109-.208.012-1.897.012-1.896.689.684c.754.751.919.861 1.286.86.739-.002 1.226-.784.891-1.431-.15-.288-3.215-3.342-3.47-3.457a1.06 1.06 0 0 0-.862.016M4.94 2.565A3.883 3.883 0 0 0 1.662 5.45c-.165.648-.182 1.298-.182 7.05 0 5.742.017 6.399.181 7.051.332 1.322 1.466 2.467 2.739 2.766.761.179.93.183 7.36.183 6.555 0 6.487.002 6.889-.203a.857.857 0 0 1 .291-.097c.252 0 .943-.439 1.382-.878.446-.446.878-1.13.878-1.391 0-.061.038-.172.083-.247.175-.286.209-.64.211-2.184.002-1.643-.011-1.741-.312-2.362a2.544 2.544 0 0 0-.449-.657c-.414-.447-3.985-3.293-4.351-3.467a1.961 1.961 0 0 0-1.722.023c-.295.148-.677.485-4.92 4.344-2.53 2.301-4.693 4.275-4.806 4.386a1.563 1.563 0 0 0-.275.356c-.068.15-.072.152-.179.097-.189-.098-.534-.442-.671-.669-.283-.471-.269-.104-.269-7.051 0-5.777.005-6.262.069-6.537.161-.687.723-1.24 1.392-1.368.187-.036 1.227-.056 3.739-.072 3.867-.026 3.632-.008 3.935-.295a.987.987 0 0 0-.016-1.463c-.294-.259-.077-.245-3.928-.24-1.931.003-3.637.021-3.791.04m2.5 3.492a2.93 2.93 0 0 0-1.561.859A2.924 2.924 0 0 0 5.114 8.2c-.135.431-.135 1.169 0 1.6.17.546.385.902.784 1.302.4.399.756.614 1.302.784.431.135 1.169.135 1.6 0 .545-.17.902-.385 1.305-.786.321-.319.39-.414.568-.782.489-1.01.427-2.037-.181-2.965-.372-.57-1.088-1.083-1.752-1.256-.336-.087-.981-.107-1.3-.04m1.021 2.054a.965.965 0 0 1 .527.784c.041.4-.16.789-.51.985-.146.082-.232.1-.478.1-.246 0-.332-.018-.478-.1-.749-.42-.659-1.524.148-1.825.201-.075.59-.048.791.056m8.853 6.12a403.75 403.75 0 0 1 1.798 1.447c.095.078.218.236.274.352l.103.209-.019 1.271c-.022 1.401-.039 1.52-.273 1.913-.266.445-.762.851-1.177.963-.11.03-.551.072-.98.094-.87.043-9.742.05-9.846.007-.049-.02.912-.916 3.871-3.607 4.708-4.282 4.443-4.049 4.544-3.995.043.023.81.629 1.705 1.346" fill="#667085" fill-rule="evenodd"/></svg>