<svg width="24" height="24" fill="none" xmlns="http://www.w3.org/2000/svg"><path d="M2.664 3.063a1.005 1.005 0 0 0-.533.448c-.095.161-.111.233-.111.489s.016.328.111.489c.125.213.318.375.539.454.124.044 1.763.054 9.313.055 10.284.002 9.392.03 9.718-.297a.984.984 0 0 0-.004-1.406c-.321-.321.522-.295-9.734-.292-7.831.002-9.165.011-9.299.06m10.894 3.992c-.69.148-1.306.739-1.485 1.422-.062.238-.068.57-.068 3.523 0 2.953.006 3.285.068 3.523.181.694.807 1.284 1.519 1.433.295.061 6.521.061 6.816 0 .546-.114 1.135-.562 1.364-1.036.232-.483.228-.412.228-3.92s.004-3.436-.228-3.92c-.228-.475-.846-.936-1.391-1.036-.344-.064-6.523-.054-6.823.011M2.773 8.278a.999.999 0 0 0-.678 1.384c.11.237.36.466.579.532.112.033 1.042.046 3.353.046h3.199l.217-.11c.744-.377.732-1.38-.021-1.783L9.26 8.26l-3.18-.006c-1.749-.004-3.237.007-3.307.024m17.186.799c.044.084.06 5.669.016 5.833l-.024.09H17c-2.654 0-2.954-.006-2.976-.063-.013-.035-.024-1.363-.024-2.952 0-2.194.012-2.901.048-2.937.036-.036.748-.048 2.959-.048 2.836 0 2.911.002 2.952.077M2.58 13.855a.984.984 0 0 0-.05 1.769l.21.116h6.52l.162-.087c.379-.203.559-.498.556-.913-.002-.43-.19-.721-.578-.897-.176-.08-.247-.081-3.4-.082H2.78l-.2.094m.084 5.208a1.005 1.005 0 0 0-.533.448c-.095.161-.111.233-.111.489s.016.328.111.489c.125.213.318.375.539.454.124.044 1.763.054 9.313.055 10.284.002 9.392.03 9.718-.297a.984.984 0 0 0-.004-1.406c-.321-.321.522-.295-9.734-.292-7.831.002-9.165.011-9.299.06" fill="#667085" fill-rule="evenodd"/></svg>