<svg width="24" height="24" fill="none" xmlns="http://www.w3.org/2000/svg"><path d="M11.041 1.045c-1.47.13-2.98.585-4.26 1.283-.985.538-1.77 1.13-2.583 1.947-1.683 1.693-2.715 3.749-3.085 6.145-.106.684-.127 2.237-.04 2.86.168 1.19.537 2.39 1.046 3.396.591 1.17 1.581 2.444 2.594 3.34.314.277.471.447.523.564.09.204.274.326.591.391.166.034.36.128.673.322.707.441 1.795.956 2.54 1.203 1.175.39 2.139.533 3.32.49 1.633-.058 3.013-.406 4.46-1.124 2.18-1.081 4.016-2.944 5.03-5.102l.358-.76c.137-.29.163-.384.171-.64.007-.198.052-.436.133-.7.432-1.401.555-2.367.451-3.537-.234-2.644-1.307-4.975-3.143-6.828a10.699 10.699 0 0 0-2.601-1.967 11.058 11.058 0 0 0-6.178-1.283m2.279 2.057a9.068 9.068 0 0 1 4.471 2.008c1.949 1.612 3.167 4.155 3.185 6.65.004.521-.008.627-.115 1.04a8.469 8.469 0 0 1-.131.478c-.007.01-.799-.767-1.761-1.725-1.08-1.076-1.822-1.784-1.94-1.852a2.114 2.114 0 0 0-2.058-.001c-.126.072-1.693 1.61-4.594 4.507l-4.402 4.397-.448-.462c-1.35-1.393-2.165-3.057-2.453-5.002-.078-.532-.067-1.85.021-2.42A8.825 8.825 0 0 1 3.946 8c.91-1.819 2.235-3.143 4.056-4.055 1.025-.514 2.001-.783 3.338-.921.324-.033 1.573.016 1.98.078M7.764 5.6a2.972 2.972 0 0 0-1.473.895c-.874.934-1.032 2.386-.382 3.505.194.334.757.897 1.091 1.091.523.304 1.241.456 1.812.385A3.343 3.343 0 0 0 10 11.091c.334-.194.897-.757 1.091-1.091.304-.523.456-1.241.385-1.812a2.86 2.86 0 0 0-.856-1.771 2.938 2.938 0 0 0-1.209-.767c-.436-.143-1.214-.167-1.647-.05m1.168 2.005c.23.115.339.222.452.444.14.275.134.659-.015.929-.337.615-1.183.705-1.629.175-.319-.38-.294-1.034.053-1.366.285-.274.795-.355 1.139-.182m9.207 5.954 2.078 2.079-.21.415c-1.576 3.118-4.835 5.063-8.267 4.935-1.208-.045-2.301-.347-3.586-.991l-.487-.244 4.137-4.137c2.275-2.275 4.163-4.136 4.196-4.136.033 0 .996.935 2.139 2.079" fill="#667085" fill-rule="evenodd"/></svg>