<svg width="24" height="24" fill="none" xmlns="http://www.w3.org/2000/svg"><path d="M7.56 3.026c-.798.076-1.331.26-1.961.676-.34.224-.79.681-1.043 1.058-.283.421-3.211 6.28-3.354 6.711-.2.601-.209.775-.192 3.509.016 2.357.022 2.543.099 2.88.116.512.282.913.55 1.323.588.903 1.484 1.504 2.568 1.725.332.068.791.072 7.773.072 6.982 0 7.441-.004 7.773-.072a3.927 3.927 0 0 0 1.389-.553 3.95 3.95 0 0 0 1.744-2.568c.055-.275.068-.723.083-2.827.018-2.708.009-2.873-.19-3.482-.14-.43-3.065-6.286-3.355-6.718-.661-.984-1.687-1.595-2.887-1.718-.367-.038-8.616-.052-8.997-.016m8.797 2.013c.7.067 1.173.392 1.551 1.064.187.33 2.452 4.834 2.452 4.874 0 .009-.616.024-1.37.034-1.533.019-1.606.029-2.15.312-.527.274-.888.624-1.205 1.166a1.167 1.167 0 0 1-.324.382l-.165.109H8.854l-.165-.109a1.167 1.167 0 0 1-.324-.382c-.317-.542-.678-.892-1.205-1.166-.544-.283-.617-.293-2.15-.312-.753-.01-1.37-.025-1.37-.034 0-.04 2.265-4.544 2.452-4.874.251-.446.5-.695.886-.886a1.52 1.52 0 0 1 .609-.176c.455-.043 8.324-.045 8.77-.002M6.309 13.128c.111.073.225.212.357.435.441.742 1.169 1.257 1.975 1.396.18.031 1.252.041 3.519.033l3.26-.012.336-.117c.721-.252 1.287-.753 1.69-1.495a.866.866 0 0 1 .237-.235l.171-.113 1.573-.012L21 12.997v1.591c0 1.72-.045 2.7-.139 3.063-.142.544-.638 1.05-1.181 1.206-.45.128-1.166.142-7.68.142-6.514 0-7.23-.014-7.68-.142-.543-.156-1.039-.662-1.181-1.206C3.045 17.288 3 16.308 3 14.588v-1.591l1.573.011 1.573.012.163.108" fill="#667085" fill-rule="evenodd"/></svg>