<svg width="24" height="24" fill="none" xmlns="http://www.w3.org/2000/svg"><path d="M7.86 1.047a2.467 2.467 0 0 0-.46.16c-.24.112-.484.346-3.166 3.027-2.278 2.277-2.928 2.95-3.007 3.109C.993 7.812 1 7.677 1 12s-.007 4.188.227 4.657c.147.296 5.82 5.969 6.116 6.116.469.234.334.227 4.657.227s4.188.007 4.657-.227c.301-.149 5.969-5.82 6.12-6.122.226-.455.222-.372.222-4.651s.004-4.196-.222-4.651c-.084-.167-.688-.792-3.011-3.115C17.081 1.549 16.84 1.32 16.6 1.208a2.493 2.493 0 0 0-.497-.165c-.304-.055-7.951-.052-8.243.004M18.37 5.63 21 8.26v7.48l-2.63 2.63L15.74 21H8.26l-2.63-2.63L3 15.74V8.26l2.63-2.63L8.26 3h7.48l2.63 2.63m-6.727 1.436C11.288 7.197 11 7.615 11 8c0 .575.526 1.048 1.1.988 1.009-.104 1.237-1.424.327-1.895-.178-.092-.57-.105-.784-.027m0 4.003a1.118 1.118 0 0 0-.343.229c-.303.303-.3.274-.3 2.702 0 2.427-.003 2.399.299 2.701a.984.984 0 0 0 1.402 0c.302-.302.299-.274.299-2.701s.003-2.399-.299-2.701a.998.998 0 0 0-1.058-.23" fill="#667085" fill-rule="evenodd"/></svg>