<svg width="24" height="24" fill="none" xmlns="http://www.w3.org/2000/svg"><path d="M8.42 1.023c-.066.009-.291.037-.5.061-.813.093-1.896.442-2.679.864C1.472 3.976-.054 8.576 1.77 12.406c.418.878.877 1.525 1.588 2.238a7.887 7.887 0 0 0 3.375 2.024l.493.147.072.282c.174.682.634 1.688 1.057 2.316a8.045 8.045 0 0 0 5.512 3.489c.579.088 1.687.088 2.266 0a8.019 8.019 0 0 0 6.769-6.769c.088-.579.088-1.687 0-2.266a8.045 8.045 0 0 0-3.489-5.512c-.629-.424-1.634-.883-2.319-1.058l-.286-.073-.07-.262c-.812-3.052-3.402-5.381-6.518-5.863-.39-.06-1.561-.11-1.8-.076m1.744 2.094A5.98 5.98 0 0 1 14.251 6.1c.172.311.389.801.389.878 0 .034-.114.058-.364.076-1.595.113-3.284.849-4.588 2-1.478 1.303-2.5 3.329-2.634 5.222-.019.264-.041.364-.079.364-.11 0-.789-.319-1.12-.526a6.06 6.06 0 0 1-2.758-4.034c-.101-.528-.101-1.632 0-2.16.308-1.603 1.21-2.988 2.53-3.884.798-.541 1.757-.886 2.813-1.012.313-.038 1.353.018 1.724.093m4.817 6.273c-.218 3.03-2.58 5.399-5.577 5.596L9 15.012v-.276c.001-.589.18-1.403.458-2.074.491-1.187 1.463-2.274 2.602-2.912.8-.448 1.816-.736 2.635-.746L15.01 9l-.029.39m2.445.104c.855.36 1.778 1.094 2.392 1.901.562.738.98 1.737 1.124 2.685a7.653 7.653 0 0 1 0 1.84 6.025 6.025 0 0 1-5.022 5.022 7.653 7.653 0 0 1-1.84 0 6.045 6.045 0 0 1-4.289-2.934c-.165-.286-.481-.973-.458-.994.004-.003.205-.027.447-.052a7.893 7.893 0 0 0 4.862-2.32 7.808 7.808 0 0 0 1.957-3.156c.203-.618.399-1.643.401-2.095 0-.077-.002-.077.426.103" fill="#667085" fill-rule="evenodd"/></svg>