<svg width="24" height="24" fill="none" xmlns="http://www.w3.org/2000/svg"><path d="M3.656 1.04a2.876 2.876 0 0 0-1.676.768 2.91 2.91 0 0 0-.94 1.832c-.03.236-.04 1.945-.032 5.6l.012 5.26.112.36a3.01 3.01 0 0 0 2.428 2.098c.145.023.961.042 1.85.042H7v1.35c.001 1.582.044 2.186.185 2.61.288.865 1.017 1.591 1.869 1.862.163.052.481.113.706.136.557.057 9.923.057 10.48 0 .796-.082 1.33-.328 1.86-.858s.776-1.064.858-1.86c.057-.557.057-9.923 0-10.48a4.28 4.28 0 0 0-.136-.706c-.251-.79-.923-1.507-1.702-1.814-.466-.185-.689-.205-2.447-.228l-1.668-.021-.015-1.746c-.013-1.536-.024-1.776-.088-2.005-.302-1.078-1.09-1.851-2.189-2.148-.232-.063-.686-.069-5.513-.075-2.893-.004-5.388.006-5.544.023m10.276 2c.426.036.49.051.647.159.382.263.418.479.42 2.488L15 6.993l-2.67.018c-2.873.019-2.962.025-3.47.241A3.022 3.022 0 0 0 7.232 8.9c-.195.492-.202.596-.221 3.43L6.994 15l-1.407-.001c-1.947-.002-2.121-.033-2.388-.42-.108-.157-.123-.221-.159-.647-.051-.621-.051-9.241 0-9.862.033-.401.055-.494.143-.627.179-.271.366-.363.81-.4.569-.047 9.375-.049 9.939-.003m1.067 8.27c-.001 2.588-.025 3.025-.179 3.257-.155.234-.358.347-.702.392-.164.021-1.382.039-2.708.04L9 15l.001-2.45c0-1.421.017-2.566.041-2.727.064-.443.326-.718.743-.779.129-.019 1.355-.036 2.725-.039L15 9l-.001 2.31m5.371-2.25c.152.041.445.308.535.489.072.145.075.348.075 5.451s-.003 5.306-.075 5.451c-.101.203-.4.46-.58.498-.08.017-2.503.031-5.385.031-5.045 0-5.246-.003-5.391-.075-.181-.09-.448-.383-.489-.535-.017-.061-.038-.843-.048-1.738l-.018-1.628 2.753-.014c2.459-.013 2.781-.022 3.012-.084a3.093 3.093 0 0 0 2.147-2.147c.062-.231.071-.553.084-3.012l.014-2.753 1.628.018c.895.01 1.677.031 1.738.048" fill="#667085" fill-rule="evenodd"/></svg>