<svg width="24" height="24" fill="none" xmlns="http://www.w3.org/2000/svg"><path d="M9.643 3.069a1.118 1.118 0 0 0-.343.229c-.48.48-.352 1.292.25 1.588.189.094.198.094 2.096.114l1.906.02-2.621 6.99L8.31 19H6.582c-1.962 0-1.987.003-2.283.299a.984.984 0 0 0 0 1.402c.318.319-.022.299 5.201.299s4.883.02 5.201-.299c.479-.479.35-1.291-.251-1.587-.189-.094-.198-.094-2.096-.114l-1.906-.02 2.621-6.99L15.69 5h1.728c1.962 0 1.987-.003 2.283-.299a.984.984 0 0 0 0-1.402c-.319-.319.025-.299-5.218-.296-4.116.003-4.684.011-4.84.066" fill="#667085" fill-rule="evenodd"/></svg>