<svg width="24" height="24" fill="none" xmlns="http://www.w3.org/2000/svg"><path d="M9.24 3.037a1.05 1.05 0 0 0-.488.315c-.445.493-.272 1.265.348 1.554.196.091.225.093 1.45.094.688 0 1.25.006 1.25.013 0 .008-1.177 3.153-2.616 6.99L6.568 18.98 5.394 19c-1.109.019-1.183.025-1.337.107a.994.994 0 0 0 .043 1.799l.2.093h10.4l.2-.093a.994.994 0 0 0 .043-1.799c-.156-.083-.217-.088-1.453-.099-.71-.007-1.29-.017-1.29-.023 0-.007 1.177-3.151 2.616-6.988l2.616-6.977L18.606 5c1.109-.019 1.183-.025 1.337-.107a1 1 0 0 0 0-1.786l-.163-.087-5.22-.007c-2.871-.004-5.265.007-5.32.024M12.685 12l-2.625 7H8.69l2.625-7 2.625-7h1.37l-2.625 7" fill="#667085" fill-rule="evenodd"/></svg>