<svg width="24" height="24" fill="none" xmlns="http://www.w3.org/2000/svg"><path d="M14.24 2.045A7.04 7.04 0 0 0 9.029 5.36C8.197 6.708 7.87 8.254 8.06 9.94l.059.52-2.834 2.84c-1.559 1.562-2.888 2.921-2.954 3.02a2.886 2.886 0 0 0-.215.42c-.094.237-.096.26-.108 1.851-.013 1.755-.005 1.846.219 2.321.138.293.559.718.853.86.455.218.554.228 2.383.228 1.826 0 1.879-.006 2.163-.222a1.19 1.19 0 0 0 .243-.289c.107-.182.111-.212.124-.839l.014-.65h.571c.791 0 1.051-.103 1.291-.511.107-.182.111-.212.124-.839l.014-.65h.569c.869 0 .78.052 1.967-1.127l1.003-.995.557.066c1.692.199 3.33-.18 4.717-1.093 2.261-1.487 3.467-4.095 3.12-6.745-.494-3.771-3.947-6.489-7.7-6.061M15.999 4.1c1.991.397 3.566 2.01 3.925 4.02.068.379.07 1.376.004 1.729-.207 1.107-.641 1.922-1.444 2.711-.827.812-1.724 1.25-2.878 1.404-.363.049-1.197.025-1.526-.043-.27-.056-.792-.047-1.035.017-.474.126-.619.234-1.568 1.171l-.902.891h-.858c-.471 0-.924.019-1.006.042-.223.062-.474.274-.589.497-.094.184-.103.245-.115.826l-.012.628-.648.014c-.623.013-.654.017-.836.124-.409.24-.511.5-.511 1.294V20H4.049l-.024-.09c-.013-.05-.024-.63-.024-1.289L4 17.422l2.895-2.901c2.684-2.69 2.904-2.92 3.015-3.161.066-.143.141-.348.167-.457.062-.255.06-.712-.002-1.03-.075-.381-.062-1.463.022-1.853a5.23 5.23 0 0 1 .741-1.793c.233-.358.791-.952 1.138-1.213a5.134 5.134 0 0 1 2.364-.971c.366-.05 1.28-.019 1.659.057m-1.334 1.959a1.01 1.01 0 0 0-.609 1.248c.138.417.445.637.97.696.587.066.967.449.972.98.008.692.685 1.182 1.324.956.671-.236.85-.94.497-1.949a3.005 3.005 0 0 0-2.347-1.948c-.34-.056-.62-.05-.807.017" fill="#667085" fill-rule="evenodd"/></svg>