<svg width="24" height="24" fill="none" xmlns="http://www.w3.org/2000/svg"><path d="M3.656 5.04c-1.107.119-2.108.906-2.46 1.935-.196.572-.201.697-.188 5.265l.013 4.26.111.36a3.005 3.005 0 0 0 2.448 2.1c.191.029 2.921.038 8.6.03 7.81-.011 8.336-.016 8.579-.083a3.082 3.082 0 0 0 2.15-2.168c.066-.26.071-.587.071-4.739 0-4.244-.004-4.474-.075-4.74-.293-1.086-1.081-1.866-2.192-2.168-.235-.065-.827-.07-8.513-.076-4.543-.003-8.388.008-8.544.024m16.276 2c.426.036.49.051.647.159.265.183.336.33.381.787.05.517.05 7.513-.001 8.032-.03.316-.059.428-.139.549-.155.234-.358.347-.702.392-.399.052-15.833.052-16.232 0-.349-.045-.522-.141-.687-.38-.108-.157-.123-.221-.159-.647-.05-.613-.051-7.249 0-7.862.033-.401.055-.494.143-.627.179-.271.366-.363.81-.4.573-.047 15.37-.05 15.939-.003M5.712 9.051a.998.998 0 0 0-.508 1.548c.259.358.777.497 1.189.32a.995.995 0 0 0 .111-1.779c-.205-.12-.575-.162-.792-.089m4 0a.998.998 0 0 0-.508 1.548c.259.358.777.497 1.189.32a.995.995 0 0 0 .111-1.779c-.205-.12-.575-.162-.792-.089m4 0a.998.998 0 0 0-.508 1.548c.259.358.777.497 1.189.32a.995.995 0 0 0 .111-1.779c-.205-.12-.575-.162-.792-.089m4 0a.998.998 0 0 0-.508 1.548c.259.358.777.497 1.189.32a.995.995 0 0 0 .111-1.779c-.205-.12-.575-.162-.792-.089M6.581 13.602a1.064 1.064 0 0 0-.473.458c-.12.224-.119.657 0 .88.11.206.31.397.512.488.151.068.449.073 5.297.083 5.866.012 5.433.036 5.784-.324.217-.223.299-.42.299-.712-.001-.347-.287-.759-.626-.9-.109-.046-1.015-.055-5.383-.053-5.149.001-5.254.003-5.41.08" fill="#667085" fill-rule="evenodd"/></svg>