<svg width="24" height="24" fill="none" xmlns="http://www.w3.org/2000/svg"><path d="M4.656 3.04a3.002 3.002 0 0 0-2.524 2.1l-.112.36-.011 4.967-.011 4.968-.132.081c-.236.146-.583.549-.717.832l-.129.272v.94c0 .788.012.982.073 1.2a3.102 3.102 0 0 0 2.148 2.149c.245.067.723.071 8.759.071s8.514-.004 8.759-.071a3.084 3.084 0 0 0 1.941-1.608c.239-.5.269-.672.289-1.648.02-.946-.004-1.131-.197-1.509-.097-.19-.415-.534-.634-.685l-.158-.11-.001-4.744c0-2.936-.016-4.852-.04-5.025a3.056 3.056 0 0 0-.436-1.19c-.189-.287-.56-.681-.786-.835a4.029 4.029 0 0 0-.972-.447l-.305-.087-7.26-.006c-3.993-.003-7.388.009-7.544.025m14.274 2c.401.033.494.055.627.143.273.18.361.363.404.829.02.224.037 2.339.038 4.698L20 15l-2.37.001c-2.62 0-2.71.007-3.158.247a3.41 3.41 0 0 0-.575.442l-.328.31h-3.138l-.328-.31a3.41 3.41 0 0 0-.575-.442c-.448-.24-.538-.247-3.158-.247L4 15l.001-4.25c0-2.338.017-4.451.037-4.697.032-.38.053-.472.143-.607.181-.274.367-.366.812-.403.57-.047 13.371-.05 13.937-.003M8.917 17.33c.203.194.44.375.572.44.459.224.527.23 2.538.23 1.83 0 1.853-.001 2.145-.094.363-.115.648-.301.987-.644l.259-.262H21.009l-.015.651c-.015.624-.021.659-.126.839a1.035 1.035 0 0 1-.538.453c-.123.044-1.597.054-8.31.055-5.503.001-8.209-.012-8.309-.04-.222-.061-.474-.274-.587-.495-.093-.18-.103-.248-.117-.829L2.99 17h5.58l.347.33" fill="#667085" fill-rule="evenodd"/></svg>