<svg width="24" height="24" fill="none" xmlns="http://www.w3.org/2000/svg"><path d="M4.656 3.04a2.86 2.86 0 0 0-1.699.79 2.925 2.925 0 0 0-.916 1.756c-.024.168-.04 2.099-.04 5.019L2 15.349l-.158.11a1.962 1.962 0 0 0-.806 1.178c-.068.329-.024 1.835.063 2.143a3.097 3.097 0 0 0 2.141 2.127c.248.07.657.073 8.76.073 8.036 0 8.514-.004 8.759-.071a3.092 3.092 0 0 0 1.942-1.608c.239-.498.269-.67.289-1.648.019-.945-.006-1.132-.198-1.509-.097-.19-.415-.534-.634-.685l-.158-.11-.001-4.744c0-2.936-.016-4.852-.04-5.025a3.056 3.056 0 0 0-.436-1.19c-.189-.287-.56-.681-.786-.835a4.029 4.029 0 0 0-.972-.447l-.305-.087-7.26-.006c-3.993-.003-7.388.009-7.544.025m14.274 2c.401.033.494.055.627.143.273.18.361.363.404.829.02.224.037 2.339.038 4.698L20 15H4l.001-4.25c0-2.338.017-4.451.037-4.697.032-.38.053-.472.143-.607.181-.274.367-.366.812-.403.57-.047 13.371-.05 13.937-.003m2.064 12.611c-.015.624-.021.659-.126.839a1.035 1.035 0 0 1-.538.453c-.123.044-1.597.054-8.31.055-5.503.001-8.209-.012-8.309-.04-.222-.061-.474-.274-.587-.495-.093-.18-.103-.248-.117-.829L2.99 17h18.019l-.015.651" fill="#667085" fill-rule="evenodd"/></svg>