<svg width="24" height="24" fill="none" xmlns="http://www.w3.org/2000/svg"><path d="M11.52 6.136c-.077.029-2.381 1.174-5.12 2.543-4.028 2.014-5.008 2.519-5.125 2.642a.985.985 0 0 0 .023 1.376c.235.231 10.122 5.166 10.472 5.227.463.081.31.149 5.728-2.552 4.094-2.041 5.069-2.542 5.204-2.675a.977.977 0 0 0 0-1.394c-.135-.132-1.115-.637-5.215-2.683L12.439 6.1l-.39-.009c-.25-.006-.439.01-.529.045m4.34 3.914c2.123 1.061 3.86 1.939 3.86 1.95 0 .011-1.737.889-3.86 1.95L12 15.88l-3.86-1.93C6.017 12.889 4.28 12.011 4.28 12c0-.015 7.656-3.866 7.71-3.878.005-.001 1.747.866 3.87 1.928" fill="#667085" fill-rule="evenodd"/></svg>