<svg width="24" height="24" fill="none" xmlns="http://www.w3.org/2000/svg"><path d="M11.52 1.136c-.077.029-2.381 1.174-5.12 2.543-4.028 2.014-5.008 2.519-5.125 2.642a.985.985 0 0 0 .023 1.376c.135.133 1.11.634 5.204 2.675 5.418 2.701 5.265 2.633 5.728 2.552.35-.061 10.237-4.996 10.472-5.227a.977.977 0 0 0 0-1.394c-.135-.132-1.115-.637-5.215-2.683L12.439 1.1l-.39-.009c-.25-.006-.439.01-.529.045m4.34 3.914c2.123 1.061 3.86 1.939 3.86 1.95 0 .011-1.737.889-3.86 1.95L12 10.88 8.14 8.95C6.017 7.889 4.28 7.011 4.28 7c0-.015 7.656-3.866 7.71-3.878.005-.001 1.747.866 3.87 1.928M1.664 11.061a1.02 1.02 0 0 0-.533.45c-.095.161-.111.233-.111.489s.016.328.111.489c.061.103.169.232.24.286.071.053 2.388 1.225 5.149 2.603 3.907 1.95 5.071 2.515 5.25 2.546.463.081.31.149 5.71-2.546 2.761-1.378 5.078-2.55 5.149-2.603.601-.454.419-1.473-.307-1.714-.429-.143-.168-.257-5.471 2.394L12 15.88l-4.855-2.427c-4.566-2.282-4.869-2.428-5.09-2.439a1.052 1.052 0 0 0-.391.047m0 5a1.02 1.02 0 0 0-.533.45c-.095.161-.111.233-.111.489s.016.328.111.489c.061.103.169.232.24.286.071.053 2.388 1.225 5.149 2.603 3.907 1.95 5.071 2.515 5.25 2.546.463.081.31.149 5.71-2.546 2.761-1.378 5.078-2.55 5.149-2.603.601-.454.419-1.473-.307-1.714-.429-.143-.168-.257-5.471 2.394L12 20.88l-4.855-2.427c-4.566-2.282-4.869-2.428-5.09-2.439a1.052 1.052 0 0 0-.391.047" fill="#667085" fill-rule="evenodd"/></svg>