<svg width="24" height="24" fill="none" xmlns="http://www.w3.org/2000/svg"><path d="M11.52 1.136c-.077.029-2.381 1.174-5.12 2.543-5.379 2.69-5.201 2.59-5.335 2.985a.949.949 0 0 0 0 .672c.124.364.219.427 2.005 1.319.908.454 1.65.834 1.65.845 0 .011-.742.391-1.65.845-1.786.892-1.881.955-2.005 1.319a.949.949 0 0 0 0 .672c.124.364.219.427 2.005 1.319.907.454 1.65.834 1.65.845 0 .011-.742.391-1.65.845-1.786.892-1.881.955-2.005 1.319a.949.949 0 0 0 .001.676c.136.399-.024.31 5.436 3.032 5.418 2.701 5.265 2.633 5.728 2.552.35-.061 10.237-4.996 10.472-5.227a.985.985 0 0 0 .023-1.376c-.111-.116-.527-.343-1.795-.976-.907-.454-1.65-.834-1.65-.845 0-.011.743-.391 1.65-.845 1.786-.892 1.881-.955 2.005-1.319a.949.949 0 0 0 0-.672c-.124-.364-.219-.427-2.005-1.319-.907-.454-1.65-.834-1.65-.845 0-.011.743-.391 1.65-.845 1.786-.892 1.881-.955 2.005-1.319a.949.949 0 0 0-.001-.676c-.136-.399.024-.309-5.447-3.04L12.439 1.1l-.39-.009c-.25-.006-.439.01-.529.045m4.34 3.914c2.123 1.061 3.86 1.939 3.86 1.95 0 .011-1.737.889-3.86 1.95L12 10.88 8.14 8.95C6.017 7.889 4.28 7.011 4.28 7c0-.015 7.656-3.866 7.71-3.878.005-.001 1.747.866 3.87 1.928m-6.571 6.712c2.432 1.212 2.501 1.239 2.941 1.162.173-.031.794-.322 2.5-1.172L17 10.621l1.36.679c.748.374 1.36.688 1.36.7 0 .011-1.737.889-3.86 1.95L12 15.88l-3.86-1.93C6.017 12.889 4.28 12.011 4.28 12c0-.028 2.648-1.355 2.709-1.358.027-.001 1.062.503 2.3 1.12m0 5c2.432 1.212 2.501 1.239 2.941 1.162.173-.031.794-.322 2.5-1.172L17 15.621l1.36.679c.748.374 1.36.688 1.36.7 0 .011-1.737.889-3.86 1.95L12 20.88l-3.86-1.93C6.017 17.889 4.28 17.011 4.28 17c0-.028 2.648-1.355 2.709-1.358.027-.001 1.062.503 2.3 1.12" fill="#667085" fill-rule="evenodd"/></svg>