<svg width="24" height="24" fill="none" xmlns="http://www.w3.org/2000/svg"><path d="M5.692 2.043c-.839.077-1.499.324-2.126.797-.698.526-1.233 1.341-1.424 2.166-.138.595-.147 1.089-.132 7.314.014 5.55.021 6.171.082 6.467.199.969.73 1.824 1.48 2.384.539.402.985.601 1.656.737.33.067.756.072 6.772.072 6.031 0 6.441-.004 6.775-.072 1.635-.333 2.8-1.498 3.133-3.133.068-.334.072-.744.072-6.775 0-7.126.016-6.686-.263-7.456-.371-1.024-1.365-1.978-2.417-2.317-.642-.208-.406-.201-7.06-.209-3.399-.005-6.345.007-6.548.025M8 12v8h-.77c-.808-.001-1.552-.051-1.865-.126-.539-.129-1.081-.67-1.226-1.222-.116-.445-.138-1.523-.138-6.652 0-5.135.022-6.207.139-6.654.144-.552.666-1.067 1.226-1.211.29-.074.994-.121 1.944-.129L8 4v8m9.78-7.96c.352.021.743.066.87.099.555.145 1.069.659 1.21 1.21.119.463.139 1.416.139 6.631.001 5.203-.021 6.26-.136 6.691-.105.393-.455.821-.872 1.065-.4.234-.424.235-4.901.253l-4.09.015V4h3.57c1.964.001 3.858.018 4.21.04" fill="#667085" fill-rule="evenodd"/></svg>