<svg width="24" height="24" fill="none" xmlns="http://www.w3.org/2000/svg"><path d="M5.692 2.043c-.839.077-1.499.324-2.126.797-.698.526-1.233 1.341-1.424 2.166-.138.595-.147 1.089-.132 7.314.014 5.55.021 6.171.082 6.467.199.969.73 1.824 1.48 2.384.539.402.985.601 1.656.737.33.067.756.072 6.772.072 6.031 0 6.441-.004 6.775-.072 1.635-.333 2.8-1.498 3.133-3.133.068-.334.072-.744.072-6.775 0-7.126.016-6.686-.263-7.456-.371-1.024-1.365-1.978-2.417-2.317-.642-.208-.406-.201-7.06-.209-3.399-.005-6.345.007-6.548.025M11 7.5V11H4V8.93c.001-2.192.04-3.201.14-3.584.144-.552.666-1.067 1.226-1.211.378-.097 1.073-.123 3.444-.129L11 4v3.5m6.78-3.46c.352.021.744.066.872.099.554.145 1.067.659 1.209 1.212.101.397.138 1.32.138 3.519L20 11h-7V4h2.07c1.139.001 2.358.018 2.71.04M11 16.5V20H8.73c-2.181-.001-2.965-.03-3.365-.126-.539-.129-1.081-.67-1.226-1.222-.099-.381-.138-1.393-.139-3.582V13h7v3.5m9-1.39c0 2.179-.039 3.195-.137 3.561-.105.393-.455.821-.872 1.065-.373.218-.569.233-3.401.252l-2.59.019V13h7v2.11" fill="#667085" fill-rule="evenodd"/></svg>