<svg width="24" height="24" fill="none" xmlns="http://www.w3.org/2000/svg"><path d="M5.692 2.043c-.839.077-1.499.324-2.126.797-.698.526-1.233 1.341-1.424 2.166-.138.595-.147 1.089-.132 7.314.014 5.55.021 6.171.082 6.467.199.969.73 1.824 1.48 2.384.539.402.985.601 1.656.737.33.067.756.072 6.772.072 6.031 0 6.441-.004 6.775-.072 1.635-.333 2.8-1.498 3.133-3.133.068-.334.072-.744.072-6.775 0-7.126.016-6.686-.263-7.456-.371-1.024-1.365-1.978-2.417-2.317-.642-.208-.406-.201-7.06-.209-3.399-.005-6.345.007-6.548.025M17.78 4.04c.352.021.743.066.87.099.555.145 1.069.659 1.21 1.21.076.294.139 1.209.139 2.021L20 8H4v-.57c.001-.806.068-1.809.14-2.084.103-.394.412-.789.819-1.046.232-.146.577-.223 1.156-.258.761-.046 10.919-.048 11.665-.002M8 15v5h-.77c-.808-.001-1.552-.051-1.865-.126-.539-.129-1.081-.67-1.226-1.222-.11-.421-.138-1.471-.139-5.082V10h4v5m12-1.39c0 3.589-.029 4.657-.137 5.061-.105.393-.455.821-.872 1.065-.4.234-.424.235-4.901.253l-4.09.015V10h10v3.61" fill="#667085" fill-rule="evenodd"/></svg>