<svg width="24" height="24" fill="none" xmlns="http://www.w3.org/2000/svg"><path d="M2.643 3.069C2.291 3.193 2 3.614 2 4c0 .242.119.521.299.701C2.625 5.027 1.736 5 12 5c10.264 0 9.375.027 9.701-.299a.984.984 0 0 0 0-1.402c-.326-.327.567-.299-9.718-.296-8.192.003-9.182.01-9.34.066m.35 4.128c-.426.166-.725.451-.882.837l-.091.226v7.68l.092.228c.188.466.654.825 1.181.911.287.047.549.002.85-.146.299-.146 4.863-3.561 5.123-3.833.276-.289.385-.572.385-1 0-.428-.109-.711-.385-1-.304-.318-4.819-3.681-5.163-3.846-.249-.119-.318-.134-.602-.132a1.472 1.472 0 0 0-.508.075m8.787 1.08a1.002 1.002 0 0 0-.768 1.063c.038.377.242.66.588.817.178.08.237.081 4.9.081s4.722-.001 4.9-.081c.781-.354.797-1.396.028-1.807l-.168-.09-4.68-.006c-2.574-.004-4.734.007-4.8.023m-4.508 3.782c.042.038-.279.297-1.61 1.295L4 14.6V9.599l1.61 1.206c.885.663 1.633 1.227 1.662 1.254m4.328 1.784a.966.966 0 0 0-.589.818c-.041.399.154.76.519.963l.21.116h9.52l.168-.09c.389-.208.602-.584.56-.99a.963.963 0 0 0-.588-.817c-.178-.08-.237-.081-4.9-.081s-4.722.001-4.9.081m-8.957 5.226C2.291 19.193 2 19.614 2 20c0 .242.119.521.299.701.326.326-.563.299 9.701.299 10.264 0 9.375.027 9.701-.299a.984.984 0 0 0 0-1.402c-.326-.327.567-.299-9.718-.296-8.192.003-9.182.01-9.34.066" fill="#667085" fill-rule="evenodd"/></svg>