<svg width="24" height="24" fill="none" xmlns="http://www.w3.org/2000/svg"><path d="M3.226 2.28c-.466.082-.933.465-1.113.91l-.093.23-.012 3.66c-.012 3.833-.006 3.994.163 4.355.118.252.423.548.7.677.198.094.28.108.61.108.347 0 .403-.011.64-.128.242-.12 4.815-3.506 5.113-3.786.275-.26.482-.849.426-1.219a1.71 1.71 0 0 0-.333-.786c-.194-.235-4.873-3.731-5.214-3.895a1.444 1.444 0 0 0-.887-.126M11.6 3.843a.966.966 0 0 0-.589.818c-.041.399.154.76.519.963l.21.116h9.52l.168-.09c.389-.208.602-.584.56-.99a.963.963 0 0 0-.588-.817c-.178-.08-.237-.081-4.9-.081s-4.722.001-4.9.081M5.714 6.038c.888.665 1.599 1.223 1.58 1.24-.086.078-3.255 2.442-3.273 2.442C4.009 9.72 4 8.602 4 7.235c0-1.982.01-2.477.05-2.446.027.022.776.584 1.664 1.249m5.929 3.031c-.352.124-.643.545-.643.931 0 .242.119.521.299.701.318.319-.022.299 5.201.299s4.883.02 5.201-.299a.984.984 0 0 0 0-1.402c-.319-.319.025-.299-5.218-.296-4.116.003-4.684.011-4.84.066m-9.026 5.508c-.346.15-.616.556-.616.923 0 .386.303.818.664.945.231.082 18.439.082 18.67 0 .361-.127.664-.559.664-.945 0-.372-.274-.779-.625-.925-.194-.081-18.571-.079-18.757.002M2.6 19.843a.966.966 0 0 0-.589.818c-.041.399.154.76.519.963l.21.116h18.52l.21-.116a.988.988 0 0 0-.07-1.781c-.179-.081-.21-.081-9.4-.081s-9.221 0-9.4.081" fill="#667085" fill-rule="evenodd"/></svg>