<svg width="24" height="24" fill="none" xmlns="http://www.w3.org/2000/svg"><path d="M6.643 2.069C6.291 2.193 6 2.614 6 3c0 .242.119.521.299.701.301.301.282.299 2.628.299H11v5.073c0 5.701-.021 5.308.299 5.628a.984.984 0 0 0 1.402 0c.32-.32.299.073.299-5.628V4h2.073c2.346 0 2.327.002 2.628-.299a.984.984 0 0 0 0-1.402c-.32-.32.085-.299-5.718-.296-4.569.003-5.183.01-5.34.066M4.64 14.068c-.152.053-.431.312-1.811 1.687-1.145 1.14-1.657 1.677-1.717 1.801-.118.245-.136.51-.052.77.065.199.181.326 1.695 1.845 1.704 1.711 1.791 1.784 2.167 1.82C5.477 22.044 6 21.563 6 21c0-.364-.088-.496-.854-1.27L4.425 19h15.15l-.721.73c-.766.774-.854.906-.854 1.27 0 .563.523 1.044 1.078.991.376-.036.463-.109 2.167-1.82 1.453-1.459 1.631-1.652 1.69-1.828a.987.987 0 0 0 0-.686c-.059-.176-.237-.369-1.69-1.828-1.704-1.711-1.791-1.784-2.167-1.82-.555-.053-1.078.428-1.078.991 0 .364.088.496.854 1.27l.721.73H4.425l.721-.73C5.912 15.496 6 15.364 6 15c0-.686-.694-1.161-1.36-.932" fill="#667085" fill-rule="evenodd"/></svg>