<svg width="24" height="25" fill="none" xmlns="http://www.w3.org/2000/svg"><path d="M2.631 2.118c-.35.112-.524.327-.588.723-.059.359-.059 18.076-.001 18.439.052.32.183.529.408.649.142.076.232.091.55.091.318 0 .408-.015.55-.091.225-.12.356-.329.408-.649.058-.363.058-18.08-.001-18.439-.053-.327-.155-.493-.387-.629-.15-.088-.24-.109-.506-.118a1.803 1.803 0 0 0-.433.024m18 0c-.35.112-.524.327-.588.723-.059.359-.059 18.076-.001 18.439.052.32.183.529.408.649.142.076.232.091.55.091.318 0 .408-.015.55-.091.225-.12.356-.329.408-.649.058-.363.058-18.08-.001-18.439-.053-.327-.155-.493-.387-.629-.15-.088-.24-.109-.506-.118a1.803 1.803 0 0 0-.433.024M11.72 5.815c-.417.093-.686.283-.935.66-.102.153-1.142 2.389-2.468 5.305l-2.293 5.04-.016.302c-.015.292-.011.307.12.48.256.337.857.555 1.208.439.356-.117.352-.11 1.404-2.431l.712-1.57h5.092l.675 1.49c.834 1.843.999 2.181 1.131 2.319.15.158.407.245.652.222.27-.026.696-.248.854-.445.116-.143.124-.175.124-.48v-.326L15.786 12a485.506 485.506 0 0 0-2.394-5.21c-.313-.611-.642-.889-1.171-.986a3.247 3.247 0 0 0-.258-.041l-.243.052m1.1 4.429c.44.969.806 1.779.813 1.799.008.022-.652.037-1.634.037-1.302 0-1.644-.01-1.628-.05.082-.215 1.612-3.55 1.628-3.55.012.001.381.794.821 1.764" fill-rule="evenodd" fill="#000"/></svg>