<svg width="24" height="24" fill="none" xmlns="http://www.w3.org/2000/svg"><path d="M11.26 1.023c-1.717.171-2.87.493-4.22 1.178C3.214 4.144.865 8.104 1.013 12.36c.123 3.529 1.874 6.709 4.807 8.729 1.413.973 3.021 1.581 4.86 1.837.502.069 2.138.069 2.64 0 1.839-.256 3.447-.864 4.86-1.837.722-.498 1.643-1.303 1.769-1.548.035-.066.161-.229.281-.361.292-.322.829-1.037 1.109-1.48.286-.452.809-1.516 1-2.034.874-2.372.874-4.948.001-7.332A14.926 14.926 0 0 0 21.339 6.3a13.84 13.84 0 0 0-1.109-1.48 2.46 2.46 0 0 1-.282-.364c-.167-.324-1.362-1.311-2.218-1.832a10.707 10.707 0 0 0-5.51-1.602c-.44-.008-.872-.007-.96.001m1.947 2.074c1.37.212 2.759.809 3.969 1.704l.346.257-1.066 1.066-1.067 1.067-.324-.211a6.232 6.232 0 0 0-2.105-.886c-.469-.099-1.451-.099-1.92 0a6.593 6.593 0 0 0-2.166.918l-.267.176-1.064-1.065-1.065-1.065.346-.257c1.249-.924 2.775-1.563 4.1-1.717.207-.024.43-.052.496-.061.236-.033 1.407.015 1.787.074M7.16 8.613a.886.886 0 0 1-.114.2 6.747 6.747 0 0 0-.896 1.979c-.117.443-.124.508-.124 1.208s.007.765.124 1.208c.181.684.514 1.42.896 1.979a.886.886 0 0 1 .114.2c0 .019-.473.506-1.051 1.084l-1.051 1.051-.257-.346c-.731-.988-1.29-2.153-1.557-3.246-.169-.694-.222-1.149-.222-1.93 0-.781.053-1.236.222-1.93.267-1.093.826-2.258 1.557-3.246l.257-.346 1.051 1.051c.578.578 1.051 1.065 1.051 1.084m12.078-1.736c.889 1.21 1.491 2.653 1.686 4.043.069.489.069 1.671 0 2.16-.198 1.411-.807 2.856-1.725 4.096l-.257.346-1.051-1.051c-.578-.578-1.051-1.063-1.051-1.079 0-.016.082-.156.181-.31.26-.401.556-1.009.695-1.424.208-.627.264-.976.264-1.658 0-.682-.056-1.031-.264-1.658a7.304 7.304 0 0 0-.695-1.424 2.389 2.389 0 0 1-.181-.309c0-.055 2.098-2.127 2.124-2.098.014.016.138.181.274.366m-6.23 1.258a4.002 4.002 0 0 1 2.861 2.857c.09.338.103.468.103 1.008s-.013.67-.103 1.008a4.056 4.056 0 0 1-2.215 2.638 5.62 5.62 0 0 1-.647.225c-.343.095-.457.107-1.007.107-.554 0-.662-.012-1.02-.11-1.416-.392-2.475-1.455-2.849-2.86-.09-.338-.103-.468-.103-1.008s.013-.67.103-1.008a4.016 4.016 0 0 1 3.292-2.951c.398-.062 1.147-.018 1.585.094m-4.09 8.886a6.56 6.56 0 0 0 2.122.886c.471.101 1.449.101 1.92 0a6.56 6.56 0 0 0 2.122-.886c.154-.099.294-.181.31-.181.016 0 .502.473 1.08 1.052l1.051 1.051-.28.209c-1.233.92-2.521 1.485-4.003 1.756-.535.097-1.945.097-2.48 0-1.482-.271-2.77-.836-4.003-1.756l-.28-.209 1.051-1.051c.578-.579 1.064-1.052 1.08-1.052.016 0 .156.082.31.181" fill="#667085" fill-rule="evenodd"/></svg>