<svg width="24" height="24" fill="none" xmlns="http://www.w3.org/2000/svg"><path d="M11.42 1.023c-.066.009-.291.037-.5.061-.813.093-1.896.442-2.679.864-3.754 2.02-5.289 6.598-3.485 10.392.635 1.335 1.762 2.596 3.005 3.364l.239.147v.669c0 1.28.222 1.929.886 2.594.448.447.966.717 1.594.829.417.075 2.623.075 3.04 0a2.964 2.964 0 0 0 2.421-2.417A6.92 6.92 0 0 0 16 16.52v-.669l.239-.147c.651-.402 1.462-1.116 1.968-1.733a7.837 7.837 0 0 0 1.392-7.457 8.05 8.05 0 0 0-6.379-5.415c-.39-.06-1.561-.11-1.8-.076m1.744 2.094a5.984 5.984 0 0 1 4.53 4.005c.217.668.28 1.083.281 1.858.001 1.068-.156 1.753-.616 2.68a5.905 5.905 0 0 1-2.53 2.623c-.222.119-.471.286-.554.369-.24.244-.266.388-.287 1.568-.019 1.118-.032 1.197-.243 1.447-.059.07-.192.169-.296.22-.186.091-.211.093-1.449.093s-1.263-.002-1.449-.093a1.082 1.082 0 0 1-.296-.22c-.213-.252-.225-.329-.244-1.447-.019-1.18-.046-1.324-.286-1.568-.083-.083-.335-.251-.56-.372a5.88 5.88 0 0 1-2.524-2.62c-.455-.918-.617-1.612-.619-2.66-.002-.985.179-1.798.584-2.627.921-1.886 2.658-3.089 4.834-3.349.313-.038 1.353.018 1.724.093M9.643 9.069C9.291 9.193 9 9.614 9 10c0 .242.119.521.299.701.247.247.442.299 1.128.299H11v2.573c0 2.904-.008 2.821.299 3.128a.984.984 0 0 0 1.402 0c.307-.307.299-.224.299-3.128V11h.573c.686 0 .881-.052 1.128-.299a.984.984 0 0 0 0-1.402c-.303-.303-.271-.299-2.718-.296-1.851.003-2.188.012-2.34.066M9.24 21.037c-.193.06-.347.159-.488.315-.445.493-.272 1.265.348 1.554l.2.093h5.4l.2-.093a.994.994 0 0 0 .043-1.799c-.162-.087-.172-.087-2.883-.094-1.496-.004-2.765.007-2.82.024" fill="#667085" fill-rule="evenodd"/></svg>