<svg width="24" height="24" fill="none" xmlns="http://www.w3.org/2000/svg"><path d="M11.643 1.069a1.066 1.066 0 0 0-.577.591c-.051.149-.066.344-.066.84 0 .766.045.947.299 1.201a.984.984 0 0 0 1.402 0c.254-.254.299-.435.299-1.201s-.045-.947-.299-1.201a.998.998 0 0 0-1.058-.23M4.447 4.024a.968.968 0 0 0-.537.899c.002.316.114.509.558.962.548.559.853.699 1.267.578.612-.178.922-.803.672-1.359-.117-.261-.792-.949-1.063-1.084a1.004 1.004 0 0 0-.897.004m14.209-.004c-.246.122-.927.805-1.058 1.06-.315.617.175 1.406.879 1.416.345.005.591-.137 1.054-.609.435-.443.561-.664.56-.986a.972.972 0 0 0-.991-.981.883.883 0 0 0-.444.1M11.26 5.041a7.044 7.044 0 0 0-4.201 2.018c-2.107 2.105-2.655 5.28-1.357 7.865.348.693 1.148 1.743 1.612 2.116l.157.126.021 1.607c.023 1.718.039 1.881.245 2.387.288.708.916 1.324 1.654 1.623.469.189.804.217 2.609.217s2.14-.028 2.609-.217c.741-.3 1.366-.915 1.657-1.63.199-.489.22-.7.242-2.4l.021-1.587.157-.126c.261-.21.864-.915 1.16-1.356.928-1.384 1.309-2.97 1.096-4.57-.409-3.071-2.736-5.483-5.802-6.015-.44-.076-1.446-.107-1.88-.058M12.98 7.1a5.075 5.075 0 0 1 1.792.737c.34.222.932.771 1.183 1.097a5.089 5.089 0 0 1 .865 4.386c-.13.486-.508 1.26-.814 1.665-.236.312-.594.674-1.083 1.092-.437.374-.42.281-.443 2.403-.023 2.039-.015 1.979-.322 2.257-.261.236-.322.243-2.158.243-1.836 0-1.897-.007-2.158-.243-.307-.278-.299-.218-.322-2.257-.023-2.122-.006-2.029-.443-2.403-.833-.713-1.199-1.158-1.558-1.892-.784-1.604-.666-3.45.318-4.957.234-.359.792-.953 1.139-1.214a5.162 5.162 0 0 1 2.369-.971c.38-.053 1.25-.023 1.635.057M1.643 11.069C1.291 11.193 1 11.614 1 12c0 .242.119.521.299.701.254.254.435.299 1.201.299s.947-.045 1.201-.299a.984.984 0 0 0 0-1.402c-.256-.257-.434-.3-1.218-.296-.492.002-.709.019-.84.066m19 0c-.352.124-.643.545-.643.931 0 .242.119.521.299.701.254.254.435.299 1.201.299s.947-.045 1.201-.299c.18-.18.299-.459.299-.701 0-.396-.291-.808-.66-.934-.268-.091-1.436-.089-1.697.003M9.617 12.577c-.346.15-.616.556-.616.923 0 .245.135.549.324.728.238.225.389.266 1.065.284l.61.017v2.085l.001 2.086.093.2a.988.988 0 0 0 1.812 0l.093-.2.001-2.086v-2.085l.61-.017c.676-.018.827-.059 1.065-.284.189-.179.324-.483.324-.728 0-.372-.274-.779-.625-.925-.191-.08-4.574-.078-4.757.002" fill="#667085" fill-rule="evenodd"/></svg>