<svg width="24" height="24" fill="none" xmlns="http://www.w3.org/2000/svg"><path d="M8.15 1.043a1.654 1.654 0 0 0-.727.42c-.165.165-.461.735-2.495 4.792-1.269 2.533-2.343 4.718-2.386 4.856-.14.452.002 1.004.359 1.402.172.191.47.38.71.451.077.023 1.256.038 2.919.036 1.537-.001 2.79.013 2.79.032 0 .019-.586 1.986-1.302 4.371-.715 2.386-1.312 4.411-1.324 4.501-.014.1.002.251.042.387.171.588.891.884 1.422.585.096-.054 2.626-2.646 6.351-6.506a1573.21 1573.21 0 0 0 6.466-6.724c.157-.174.329-.418.4-.566.107-.226.123-.302.121-.58-.003-.416-.113-.705-.381-.998-.248-.271-.523-.41-.915-.461-.171-.022-1.644-.039-3.434-.04C14.275 7 13.635 6.99 13.65 6.95l.904-2.415c.526-1.404.886-2.421.886-2.502a1.07 1.07 0 0 0-.582-.935c-.153-.075-.266-.078-3.358-.084-1.774-.004-3.267.009-3.35.029m3.962 4.287c-.93 2.469-.987 2.663-.876 2.999.063.19.298.455.498.562l.166.089 3.458.02 3.457.02-4.477 4.645a1027.197 1027.197 0 0 1-4.486 4.639c-.005-.004.404-1.384.909-3.066.668-2.226.918-3.113.919-3.26 0-.255-.151-.572-.354-.739-.292-.242-.25-.239-3.533-.239H4.8l2-4 2-4h4.19l-.878 2.33" fill="#667085" fill-rule="evenodd"/></svg>