<svg width="24" height="24" fill="none" xmlns="http://www.w3.org/2000/svg"><path d="M11.643 1.069a1.066 1.066 0 0 0-.577.591c-.051.149-.066.344-.066.84 0 .766.045.947.299 1.201a.984.984 0 0 0 1.402 0c.254-.254.299-.435.299-1.201s-.045-.947-.299-1.201a.998.998 0 0 0-1.058-.23M4.447 4.024a.968.968 0 0 0-.537.899c.002.316.114.509.558.962.548.559.853.699 1.267.578.612-.178.922-.803.672-1.359-.117-.261-.792-.949-1.063-1.084a1.004 1.004 0 0 0-.897.004m14.209-.004c-.246.122-.927.805-1.058 1.06-.315.617.175 1.406.879 1.416.345.005.591-.137 1.054-.609.435-.443.561-.664.56-.986a.972.972 0 0 0-.991-.981.883.883 0 0 0-.444.1M11.26 5.041a7.08 7.08 0 0 0-2.811.938C5.864 7.518 4.547 10.477 5.146 13.4c.167.816.63 1.87 1.122 2.555.631.877 1.576 1.707 2.479 2.175l.247.128.015 1.141c.018 1.286.035 1.381.363 2.021.23.447.76.978 1.208 1.208.538.277.841.352 1.42.352s.882-.075 1.42-.352c.448-.23.978-.761 1.208-1.208.328-.64.345-.735.363-2.021l.015-1.141.247-.128c.902-.468 1.85-1.302 2.489-2.19.316-.439.77-1.345.932-1.86a6.858 6.858 0 0 0 .268-2.966c-.409-3.071-2.736-5.483-5.802-6.015-.44-.076-1.446-.107-1.88-.058M12.98 7.1c1.017.21 1.807.637 2.545 1.375.989.989 1.453 2.114 1.453 3.525s-.464 2.536-1.453 3.525c-.751.751-1.52 1.161-2.625 1.401-.317.069-1.483.069-1.8 0-1.105-.24-1.874-.65-2.625-1.401-.991-.991-1.453-2.112-1.453-3.525 0-.666.057-1.039.243-1.6a5.06 5.06 0 0 1 2.23-2.729 5.32 5.32 0 0 1 1.85-.628c.38-.053 1.25-.023 1.635.057M1.643 11.069C1.291 11.193 1 11.614 1 12c0 .242.119.521.299.701.254.254.435.299 1.201.299s.947-.045 1.201-.299a.984.984 0 0 0 0-1.402c-.256-.257-.434-.3-1.218-.296-.492.002-.709.019-.84.066m19 0c-.352.124-.643.545-.643.931 0 .242.119.521.299.701.254.254.435.299 1.201.299s.947-.045 1.201-.299c.18-.18.299-.459.299-.701 0-.396-.291-.808-.66-.934-.268-.091-1.436-.089-1.697.003m-9.205 7.832c.208.054.461.099.562.099.101 0 .354-.045.562-.099.208-.055.392-.1.408-.1.046-.001.035 1.318-.012 1.488-.059.212-.272.474-.48.591-.146.082-.232.1-.478.1-.246 0-.332-.018-.478-.1-.208-.117-.421-.379-.48-.591-.047-.17-.058-1.489-.012-1.488.017 0 .2.045.408.1" fill="#667085" fill-rule="evenodd"/></svg>