<svg width="24" height="24" fill="none" xmlns="http://www.w3.org/2000/svg"><path d="M11.14 1.047c-1.5.151-2.982.732-4.24 1.662-.446.33-1.319 1.197-1.663 1.651a8.67 8.67 0 0 0-1.659 3.98c-.088.595-.089 1.736-.001 2.32.389 2.575 1.853 4.809 4.03 6.146l.393.242v1.571c0 1.738.027 2.023.236 2.532.156.377.345.657.65.963.448.447.966.717 1.594.829.417.075 2.623.075 3.04 0a2.964 2.964 0 0 0 2.421-2.417c.045-.257.059-.706.059-1.907v-1.571l.393-.242a8.416 8.416 0 0 0 1.587-1.264c1.333-1.34 2.157-2.987 2.443-4.882.088-.584.087-1.725-.001-2.32a8.657 8.657 0 0 0-1.667-3.989c-.336-.445-1.212-1.314-1.655-1.642-1.741-1.287-3.848-1.875-5.96-1.662m1.532 1.996a6.225 6.225 0 0 1 2.291.68c1.762.898 2.962 2.472 3.405 4.463.075.339.087.519.089 1.294.001.793-.009.95-.09 1.32a7.248 7.248 0 0 1-.913 2.269c-.589.93-1.585 1.855-2.483 2.306l-.289.145H9.318l-.289-.145a6.158 6.158 0 0 1-1.424-1.035c-1.015-.976-1.62-2.044-1.95-3.443-.107-.452-.113-.526-.112-1.397.001-1.012.045-1.312.299-2.074.961-2.873 3.827-4.712 6.83-4.383m1.32 15.847c-.02 1.479-.025 1.513-.247 1.777-.059.07-.192.169-.296.22-.186.091-.211.093-1.449.093-1.069 0-1.281-.01-1.4-.064a.982.982 0 0 1-.486-.467c-.09-.184-.092-.226-.108-1.559l-.015-1.37h4.019l-.018 1.37" fill="#667085" fill-rule="evenodd"/></svg>