<svg width="24" height="24" fill="none" xmlns="http://www.w3.org/2000/svg"><path d="M2.665 2.056a1.041 1.041 0 0 0-.545.487l-.1.195-.01 8.739c-.011 9.551-.026 8.919.217 9.435.138.293.559.718.853.86.506.243-.117.228 9.383.228 9.482 0 8.852.015 9.163-.222a1.19 1.19 0 0 0 .243-.289c.095-.161.111-.233.111-.489s-.016-.328-.111-.489a1.038 1.038 0 0 0-.539-.454c-.123-.044-1.664-.054-8.715-.055L4.049 20l-.024-.09c-.013-.05-.025-3.915-.026-8.59-.003-9.19.01-8.643-.216-8.939-.238-.313-.75-.462-1.118-.325m4 4a1.041 1.041 0 0 0-.545.487 1.073 1.073 0 0 0-.011.897c.064.129.785.874 2.56 2.644 2.649 2.642 2.593 2.593 3.099 2.687.166.031.298.031.464 0 .469-.087.556-.153 1.699-1.287l1.071-1.062 1.789 1.789L18.58 14h-.86c-.473 0-.927.019-1.009.042-.22.061-.473.273-.585.489a.987.987 0 0 0 .172 1.169c.303.303.273.3 2.704.3 2.326 0 2.334-.001 2.622-.22a1.12 1.12 0 0 0 .243-.33l.113-.23.012-2.169c.008-1.419-.003-2.222-.03-2.323a1.075 1.075 0 0 0-.47-.595c-.165-.097-.235-.113-.492-.113-.256 0-.328.016-.489.111a1.19 1.19 0 0 0-.289.243c-.197.259-.222.407-.222 1.34v.864l-2.07-2.063c-1.532-1.528-2.117-2.085-2.251-2.149a1.536 1.536 0 0 0-1.327 0c-.217.103-.398.265-1.302 1.166l-1.051 1.047L9.79 8.373C8.574 7.161 7.518 6.137 7.442 6.099c-.187-.094-.581-.116-.777-.043" fill="#667085" fill-rule="evenodd"/></svg>