<svg width="24" height="24" fill="none" xmlns="http://www.w3.org/2000/svg"><path d="M2.643 2.069C2.291 2.193 2 2.614 2 3c0 .242.119.521.299.701C2.625 4.027 1.736 4 12 4c10.264 0 9.375.027 9.701-.299a.984.984 0 0 0 0-1.402c-.326-.327.567-.299-9.718-.296-8.192.003-9.182.01-9.34.066m8.928 3.707c-.41.134-.694.385-.923.816-.067.125-1.132 2.451-2.368 5.168-1.728 3.8-2.251 4.987-2.268 5.145C5.951 17.472 6.427 18 7 18c.241 0 .521-.119.697-.297.137-.138.291-.447.963-1.933l.8-1.769h5.08l.8 1.769c.672 1.486.826 1.795.963 1.933.176.178.456.297.697.297.573 0 1.049-.528.988-1.095-.017-.158-.54-1.345-2.268-5.145a555.324 555.324 0 0 0-2.37-5.172c-.185-.348-.399-.568-.696-.714-.218-.107-.316-.131-.588-.141a1.616 1.616 0 0 0-.495.043m1.243 4.434c.432.952.786 1.744.786 1.76 0 .017-.72.03-1.6.03-.88 0-1.6-.013-1.6-.03 0-.058 1.573-3.49 1.6-3.49.015 0 .381.778.814 1.73M2.643 20.069C2.291 20.193 2 20.614 2 21c0 .242.119.521.299.701.326.326-.563.299 9.701.299 10.264 0 9.375.027 9.701-.299a.984.984 0 0 0 0-1.402c-.326-.327.567-.299-9.718-.296-8.192.003-9.182.01-9.34.066" fill="#667085" fill-rule="evenodd"/></svg>