<svg width="24" height="24" fill="none" xmlns="http://www.w3.org/2000/svg"><path d="M5.433 2.043a4.22 4.22 0 0 0-1.941.856c-.64.515-1.178 1.357-1.381 2.161l-.091.36v13.16l.091.36c.203.804.741 1.646 1.381 2.161a4.853 4.853 0 0 0 1.548.787l.34.091 6.479.011c5.779.01 6.516.005 6.818-.052a4.039 4.039 0 0 0 3.26-3.253c.056-.296.063-1.058.063-6.685s-.007-6.389-.063-6.685c-.326-1.718-1.692-3.035-3.392-3.272-.374-.052-12.757-.052-13.112 0m12.95 2c.779.143 1.443.816 1.575 1.597.031.18.041 1.363.033 3.829l-.011 3.569-2.56-1.825c-1.408-1.004-2.657-1.871-2.776-1.925-.405-.186-.966-.153-1.364.082-.077.045-.872.811-1.767 1.702l-1.627 1.621-2.941-2.097L4.004 8.5l-.002-1.323c-.001-.786.016-1.419.041-1.56.137-.749.804-1.43 1.537-1.57.295-.056 12.497-.06 12.803-.004M6.681 12.86c2.797 1.998 2.767 1.98 3.285 1.98.245 0 .608-.11.806-.244.07-.048.85-.807 1.733-1.687l1.605-1.599 2.935 2.097 2.935 2.096.011 1.299c.008.82-.004 1.394-.032 1.558a2.006 2.006 0 0 1-1.483 1.578c-.387.092-12.565.092-12.952 0a2.017 2.017 0 0 1-1.481-1.555c-.066-.361-.06-7.438.006-7.397.027.016 1.211.86 2.632 1.874" fill="#667085" fill-rule="evenodd"/></svg>