<svg width="24" height="24" fill="none" xmlns="http://www.w3.org/2000/svg"><path d="M2.665 2.056a1.041 1.041 0 0 0-.545.487l-.1.195-.01 8.739c-.011 9.551-.026 8.919.217 9.435.138.293.559.718.853.86.506.243-.117.228 9.383.228 9.482 0 8.852.015 9.163-.222a1.19 1.19 0 0 0 .243-.289c.095-.161.111-.233.111-.489s-.016-.328-.111-.489a1.038 1.038 0 0 0-.539-.454c-.123-.044-1.664-.054-8.715-.055L4.049 20l-.024-.09c-.013-.05-.025-3.915-.026-8.59-.003-9.19.01-8.643-.216-8.939-.238-.313-.75-.462-1.118-.325m17 5a1.208 1.208 0 0 0-.29.171c-.074.062-.985 1.022-2.024 2.133-1.039 1.111-1.905 2.015-1.923 2.009-.018-.006-.811-.414-1.761-.907-1.899-.985-1.98-1.017-2.457-.94a1.505 1.505 0 0 0-.867.452c-.868.879-4.142 4.424-4.219 4.569-.451.843.454 1.764 1.32 1.345.134-.065.643-.584 2.135-2.177 1.078-1.15 1.975-2.086 1.994-2.08.02.007.812.415 1.761.908 1.912.993 2.027 1.037 2.475.943.539-.112.505-.081 2.831-2.564 1.177-1.257 2.182-2.354 2.233-2.439.185-.308.155-.758-.071-1.07-.244-.336-.755-.495-1.137-.353" fill="#667085" fill-rule="evenodd"/></svg>