<svg width="24" height="24" fill="none" xmlns="http://www.w3.org/2000/svg"><path d="M2.665 2.056a1.041 1.041 0 0 0-.545.487l-.1.195-.01 8.739c-.011 9.551-.026 8.919.217 9.435.138.293.559.718.853.86.506.243-.117.228 9.383.228 9.482 0 8.852.015 9.163-.222a1.19 1.19 0 0 0 .243-.289c.095-.161.111-.233.111-.489s-.016-.328-.111-.489a1.038 1.038 0 0 0-.539-.454c-.123-.044-1.664-.054-8.715-.055L4.049 20l-.024-.09c-.013-.05-.025-3.915-.026-8.59-.003-9.19.01-8.643-.216-8.939-.238-.313-.75-.462-1.118-.325M6.67 7.055a1.054 1.054 0 0 0-.539.456c-.154.261-.158.663-.011.937.083.155 3.627 3.992 4.274 4.627.203.2.493.345.819.41.43.087.553.04 2.461-.95.954-.495 1.756-.894 1.783-.887.026.007.915.939 1.975 2.072 1.397 1.493 1.976 2.086 2.106 2.155a.992.992 0 0 0 1.329-.383c.097-.165.113-.235.113-.492 0-.249-.017-.329-.1-.467-.055-.092-1.061-1.194-2.235-2.447-2.337-2.496-2.317-2.479-2.85-2.564-.482-.077-.56-.047-2.462.941-.951.493-1.746.897-1.769.897-.023 0-.915-.933-1.983-2.073C8.366 7.99 7.578 7.18 7.475 7.122c-.204-.115-.591-.147-.805-.067" fill="#667085" fill-rule="evenodd"/></svg>