<svg width="24" height="24" fill="none" xmlns="http://www.w3.org/2000/svg"><path d="M5.9 2.025c-.776.065-1.215.171-1.68.405a3.917 3.917 0 0 0-1.561 1.387 3.896 3.896 0 0 0-.552 1.323c-.082.355-.084.448-.097 6.34-.015 6.074-.001 6.815.133 7.472.195.949.822 1.838 1.695 2.403.418.269.858.445 1.389.553.331.068.753.072 6.773.072s6.442-.004 6.773-.072c1.094-.223 1.987-.826 2.582-1.746.269-.418.445-.858.553-1.389.068-.331.072-.753.072-6.773s-.004-6.442-.072-6.773c-.289-1.42-1.291-2.57-2.618-3.005-.611-.2-.432-.195-7.05-.203a802.572 802.572 0 0 0-6.34.006M17.801 4.04c.341.022.723.066.85.099.553.144 1.065.656 1.209 1.209.033.127.078.51.1.851.052.819.052 10.783 0 11.602-.058.915-.152 1.193-.535 1.591-.363.378-.685.504-1.445.567-.641.053-11.319.053-11.96 0-.76-.063-1.082-.189-1.445-.567-.376-.39-.433-.592-.464-1.641l-.013-.429 1.95-1.95 1.95-1.95 1.071 1.063c1.141 1.132 1.229 1.199 1.687 1.284.288.053.625.004.918-.133.14-.066.695-.595 2.256-2.151L16 11.422v.862c0 1.002.031 1.149.299 1.417a.984.984 0 0 0 1.403-.001c.306-.306.303-.273.29-2.765L17.98 8.74l-.094-.19a1.094 1.094 0 0 0-.237-.309C17.356 8 17.354 8 15 8c-2.427 0-2.399-.003-2.701.299a.984.984 0 0 0 0 1.402c.268.268.415.299 1.418.299h.863l-1.789 1.789-1.789 1.789-1.071-1.061c-.959-.952-1.098-1.074-1.331-1.177-.22-.098-.312-.115-.6-.115-.287 0-.38.017-.6.114-.239.106-.387.241-1.83 1.677L4 14.578v-3.879c0-3.886.027-4.92.14-5.351.103-.397.416-.8.811-1.044.239-.148.575-.225 1.142-.261.734-.047 10.98-.05 11.708-.003" fill="#667085" fill-rule="evenodd"/></svg>