<svg width="24" height="24" fill="none" xmlns="http://www.w3.org/2000/svg"><path d="M5.9 2.025c-.991.083-1.531.257-2.2.708-.578.389-1.181 1.16-1.417 1.811-.279.77-.263.33-.263 7.456 0 6.02.004 6.442.072 6.773.223 1.094.826 1.987 1.746 2.582.418.269.858.445 1.389.553.331.068.753.072 6.773.072s6.442-.004 6.773-.072c1.094-.223 1.987-.826 2.582-1.746.269-.418.445-.858.553-1.389.068-.331.072-.753.072-6.773s-.004-6.442-.072-6.773c-.289-1.42-1.291-2.57-2.618-3.005-.611-.2-.432-.195-7.05-.203a802.572 802.572 0 0 0-6.34.006M17.801 4.04c.341.022.723.066.85.099.554.145 1.065.655 1.21 1.209.082.316.146 1.472.131 2.392l-.012.76-2.933 2.096-2.932 2.097-1.648-1.645c-1.899-1.895-1.852-1.86-2.487-1.865-.217-.002-.43.02-.537.056-.11.036-1.168.767-2.8 1.933L4.02 13.046l-.012-3.033c-.012-3.101.02-4.24.131-4.665.104-.398.417-.8.812-1.044.239-.148.575-.225 1.142-.261.734-.047 10.98-.05 11.708-.003m2.162 13.68c-.059.995-.146 1.264-.538 1.672-.363.378-.685.504-1.445.567-.641.053-11.319.053-11.96 0a5.027 5.027 0 0 1-.7-.102c-.544-.156-1.039-.662-1.181-1.207-.082-.314-.146-1.472-.131-2.388l.012-.757 2.933-2.099 2.934-2.098 1.646 1.644c1.857 1.854 1.847 1.846 2.432 1.88.561.033.484.078 3.394-2l2.621-1.872.012 3.03c.007 1.757-.006 3.324-.029 3.73" fill="#667085" fill-rule="evenodd"/></svg>