<svg width="24" height="24" fill="none" xmlns="http://www.w3.org/2000/svg"><path d="M2.665 2.056a1.041 1.041 0 0 0-.545.487l-.1.195-.01 8.739c-.011 9.551-.026 8.919.217 9.435.138.293.559.718.853.86.506.243-.117.228 9.383.228 9.482 0 8.852.015 9.163-.222a1.19 1.19 0 0 0 .243-.289c.095-.161.111-.233.111-.489s-.016-.328-.111-.489a1.038 1.038 0 0 0-.539-.454c-.123-.044-1.664-.054-8.715-.055L4.049 20l-.024-.09c-.013-.05-.025-3.915-.026-8.59-.003-9.19.01-8.643-.216-8.939-.238-.313-.75-.462-1.118-.325m14 4.002a1.003 1.003 0 0 0-.367 1.642c.269.269.415.3 1.419.3h.863l-1.789 1.789-1.789 1.789-1.071-1.062c-.749-.743-1.126-1.089-1.252-1.149a1.507 1.507 0 0 0-1.352.016c-.241.12-.512.379-2.732 2.605-2.235 2.242-2.471 2.49-2.53 2.669-.129.39-.044.766.234 1.044s.654.363 1.044.234c.178-.059.41-.278 2.427-2.289l2.229-2.224 1.071 1.062c1.142 1.134 1.229 1.2 1.698 1.287.166.031.298.031.464 0 .5-.093.48-.077 2.698-2.286L20 9.422v.862c0 1.003.031 1.149.3 1.418.31.31.768.378 1.169.172.216-.112.428-.365.489-.585.057-.206.057-4.257-.001-4.525a.978.978 0 0 0-.465-.631L21.3 6.02l-2.24-.009c-1.834-.007-2.268.001-2.395.047" fill="#667085" fill-rule="evenodd"/></svg>