<svg width="24" height="24" fill="none" xmlns="http://www.w3.org/2000/svg"><path d="M5.9 2.025c-.991.083-1.531.257-2.2.708-.578.389-1.181 1.16-1.417 1.811-.279.77-.263.33-.263 7.456 0 6.02.004 6.442.072 6.773.223 1.094.826 1.987 1.746 2.582.418.269.858.445 1.389.553.331.068.753.072 6.773.072s6.442-.004 6.773-.072c1.094-.223 1.987-.826 2.582-1.746.269-.418.445-.858.553-1.389.068-.331.072-.753.072-6.773s-.004-6.442-.072-6.773c-.289-1.42-1.291-2.57-2.618-3.005-.611-.2-.432-.195-7.05-.203a802.572 802.572 0 0 0-6.34.006M17.801 4.04c.341.022.723.066.85.099.553.144 1.065.656 1.209 1.209.118.452.14 1.48.14 6.652 0 5.167-.022 6.2-.139 6.651-.142.544-.638 1.05-1.181 1.206-.442.126-1.17.142-6.68.142s-6.238-.016-6.68-.142c-.543-.156-1.039-.662-1.181-1.206-.112-.43-.139-1.469-.139-5.35V9.422l1.57 1.563c1.162 1.157 1.618 1.586 1.756 1.651.292.137.63.186.918.133.458-.085.546-.152 1.687-1.285l1.071-1.062 1.789 1.789L14.58 14h-.863c-1.003 0-1.15.031-1.418.299a.984.984 0 0 0 0 1.402c.302.302.273.299 2.703.299 2.326 0 2.334-.001 2.622-.22a1.12 1.12 0 0 0 .243-.33l.113-.23.012-2.174c.013-2.469.017-2.439-.29-2.746a.984.984 0 0 0-1.403-.001c-.268.268-.299.415-.299 1.417v.862l-2.07-2.062c-1.928-1.921-2.088-2.07-2.33-2.177-.219-.097-.313-.114-.6-.114-.288 0-.38.017-.6.115-.233.103-.372.225-1.331 1.176l-1.071 1.062-1.95-1.95-1.95-1.95.013-.429c.025-.836.069-1.102.222-1.338.258-.397.621-.67 1.031-.775.133-.034.461-.076.729-.093.734-.047 10.98-.05 11.708-.003" fill="#667085" fill-rule="evenodd"/></svg>