<svg width="24" height="24" fill="none" xmlns="http://www.w3.org/2000/svg"><path d="M6.32 6.042a5.96 5.96 0 0 0-3.429 1.613c-.743.71-1.252 1.493-1.566 2.408-.243.711-.299 1.073-.299 1.937 0 .843.054 1.206.276 1.871.681 2.036 2.364 3.53 4.527 4.019.371.084.48.088 2.171.088 1.691 0 1.8-.004 2.171-.088 1.237-.28 2.179-.794 3.052-1.667 1.08-1.08 1.684-2.41 1.764-3.885.03-.553-.034-.787-.285-1.038a.983.983 0 0 0-1.404 0c-.208.208-.283.434-.315.947a3.924 3.924 0 0 1-1.158 2.578c-.522.522-1.071.838-1.818 1.047l-.387.108H8c-1.57 0-1.631-.003-1.96-.093-.771-.21-1.323-.526-1.862-1.065a3.863 3.863 0 0 1-1.066-1.891c-.124-.499-.124-1.363 0-1.862a3.863 3.863 0 0 1 1.066-1.891C4.976 8.38 5.783 8.056 7.1 8.003c.584-.023.703-.039.843-.112.586-.307.736-1.062.305-1.539-.26-.288-.388-.329-1.048-.338a9.114 9.114 0 0 0-.88.028m8 .002a5.949 5.949 0 0 0-3.429 1.611c-.743.71-1.252 1.493-1.566 2.408-.278.814-.4 1.85-.265 2.256.129.389.532.681.94.681.401 0 .815-.295.931-.664.034-.108.073-.37.086-.583a3.902 3.902 0 0 1 1.178-2.594 3.931 3.931 0 0 1 1.874-1.05c.334-.085.426-.089 1.931-.089 1.505 0 1.597.004 1.931.089a3.899 3.899 0 0 1 1.891 1.069 3.863 3.863 0 0 1 1.066 1.891c.124.499.124 1.363 0 1.862a4.043 4.043 0 0 1-2.233 2.714c-.514.233-.928.318-1.715.35-.812.034-.927.068-1.188.357-.464.513-.247 1.332.42 1.587.164.063.278.069.898.05 1.012-.03 1.651-.177 2.488-.573.623-.294 1.127-.656 1.665-1.193.874-.875 1.396-1.831 1.664-3.052.128-.58.127-1.738-.001-2.331-.255-1.175-.758-2.131-1.564-2.973a5.926 5.926 0 0 0-3.674-1.823c-.47-.05-2.877-.05-3.328 0" fill="#667085" fill-rule="evenodd"/></svg>