<svg width="24" height="24" fill="none" xmlns="http://www.w3.org/2000/svg"><path d="M6.32 6.044a5.949 5.949 0 0 0-3.429 1.611c-.743.71-1.252 1.493-1.566 2.408-.243.711-.299 1.073-.299 1.937 0 .843.054 1.206.276 1.871.681 2.036 2.379 3.543 4.527 4.017.35.077.542.088 1.84.102 1.665.019 1.734.01 2.031-.288.48-.48.352-1.292-.25-1.588-.186-.092-.224-.095-1.65-.117-1.349-.022-1.484-.031-1.78-.113-.76-.213-1.31-.53-1.842-1.062a3.863 3.863 0 0 1-1.066-1.891c-.124-.499-.124-1.363 0-1.862a3.89 3.89 0 0 1 1.047-1.874C4.692 8.655 5.252 8.332 6 8.13c.364-.099.439-.104 1.82-.126 1.405-.023 1.445-.026 1.63-.118.601-.296.73-1.108.251-1.587-.286-.286-.372-.3-1.818-.294-.695.003-1.398.02-1.563.039m9.082 0c-.426.083-.907.435-1.15.842-.241.401-.252.508-.252 2.402V11h-3.073c-3.463 0-3.317-.012-3.628.299-.18.18-.299.459-.299.701 0 .242.119.521.299.701.311.311.165.299 3.628.299H14v1.712c0 1.417.011 1.752.062 1.95a1.83 1.83 0 0 0 1.295 1.281c.396.101 2.264.063 2.814-.056 1.216-.265 2.177-.789 3.052-1.664.874-.875 1.396-1.831 1.664-3.052.128-.58.127-1.738-.001-2.331-.255-1.175-.758-2.131-1.564-2.973a5.926 5.926 0 0 0-3.674-1.823c-.478-.051-1.986-.051-2.246 0M18 8.131a3.829 3.829 0 0 1 1.841 1.064 3.89 3.89 0 0 1 1.047 1.874c.124.499.124 1.363 0 1.862a3.89 3.89 0 0 1-1.047 1.874 3.863 3.863 0 0 1-1.813 1.061c-.326.092-.463.106-1.198.123l-.83.02V13h1.073c1.235 0 1.35-.021 1.628-.299a.984.984 0 0 0 0-1.402c-.278-.278-.393-.299-1.628-.299H16V7.99l.81.02c.697.018.863.035 1.19.121" fill="#667085" fill-rule="evenodd"/></svg>