<svg width="24" height="24" fill="none" xmlns="http://www.w3.org/2000/svg"><path d="M16.26 1.105c-.796.121-1.395.301-1.986.598-.648.325-1.041.626-1.894 1.451-1.205 1.166-1.457 1.431-1.541 1.617-.101.22-.102.594-.004.81.156.345.529.589.904.592.399.004.443-.028 1.561-1.131.572-.565 1.157-1.109 1.3-1.21a3.935 3.935 0 0 1 2.34-.752 3.97 3.97 0 0 1 3.599 2.254c.299.619.361.924.359 1.766-.002.668-.01.746-.112 1.078a4.598 4.598 0 0 1-.663 1.302c-.108.143-.985 1.043-1.95 2-1.528 1.517-1.795 1.766-2.083 1.936-1.75 1.035-3.901.666-5.19-.893-.285-.344-.495-.479-.804-.514a1.017 1.017 0 0 0-.963.499c-.097.165-.113.235-.113.492 0 .354.047.451.454.935.872 1.035 2.261 1.795 3.659 2.003a6.014 6.014 0 0 0 4.747-1.36c.548-.458 3.683-3.651 3.933-4.006a6.065 6.065 0 0 0 1.006-4.716 6.018 6.018 0 0 0-3.099-4.091c-.937-.482-1.572-.644-2.62-.664a10.98 10.98 0 0 0-.84.004M9.24 8.044a6.106 6.106 0 0 0-3.12 1.378c-.547.458-3.682 3.651-3.933 4.006-.82 1.159-1.247 2.7-1.111 4.001.155 1.475.721 2.701 1.71 3.701 1.171 1.183 2.619 1.79 4.274 1.79a5.904 5.904 0 0 0 3.07-.836c.504-.298.713-.48 1.864-1.62 1.148-1.137 1.245-1.265 1.245-1.644 0-.372-.274-.779-.625-.925-.174-.073-.581-.07-.762.006-.091.038-.532.443-1.188 1.092-1.309 1.293-1.621 1.513-2.538 1.797-.32.098-.399.106-1.066.106-.671 0-.745-.007-1.08-.109-1.121-.342-1.999-1.074-2.5-2.085-.321-.647-.375-.907-.376-1.782 0-.695.006-.762.11-1.098.134-.434.397-.952.663-1.302.108-.143.977-1.036 1.93-1.984 1.496-1.488 1.779-1.752 2.073-1.931a4.345 4.345 0 0 1 1.244-.512c.445-.107 1.343-.098 1.805.018a4.022 4.022 0 0 1 2.16 1.354c.289.352.503.492.799.522a.987.987 0 0 0 1.099-.875c.03-.295-.037-.505-.258-.799-.728-.971-1.957-1.784-3.197-2.114-.665-.177-1.62-.242-2.292-.155" fill="#667085" fill-rule="evenodd"/></svg>