<svg width="24" height="24" fill="none" xmlns="http://www.w3.org/2000/svg"><path d="M8.643 1.069a1.066 1.066 0 0 0-.577.591c-.098.288-.098 2.392 0 2.68.126.369.538.66.934.66s.808-.291.934-.66c.098-.288.098-2.392 0-2.68-.173-.508-.762-.778-1.291-.591m7.381 1.075c-.387.07-.936.251-1.273.419-.639.32-.89.53-2.244 1.873-.728.723-1.349 1.372-1.392 1.457a.96.96 0 0 0 .15 1.105c.277.307.623.412 1.002.302.226-.065.27-.104 1.433-1.257 1.296-1.285 1.494-1.459 1.906-1.666.45-.226.825-.312 1.354-.31.543.002.84.069 1.3.295.79.387 1.404 1.144 1.605 1.978a3.14 3.14 0 0 1-.242 2.054c-.207.412-.381.61-1.666 1.906-1.153 1.163-1.192 1.207-1.257 1.433-.11.379-.005.725.302 1.002a.96.96 0 0 0 1.105.15c.236-.121 2.72-2.642 2.962-3.005.594-.89.862-1.774.862-2.84-.001-1.042-.271-1.926-.856-2.802-.728-1.088-1.94-1.868-3.263-2.098-.43-.075-1.361-.073-1.788.004m-12.977.48a.96.96 0 0 0-.541.877c-.001.384.109.539 1.048 1.47.741.733.848.825 1.041.888.776.255 1.519-.488 1.264-1.264-.063-.193-.155-.301-.893-1.046C4.038 2.612 3.906 2.52 3.5 2.52a.893.893 0 0 0-.453.104M1.643 8.069C1.291 8.193 1 8.614 1 9c0 .396.291.808.66.934.288.098 2.392.098 2.68 0C4.709 9.808 5 9.396 5 9s-.291-.808-.66-.934c-.278-.094-2.427-.092-2.697.003m4.437 2.966c-.242.079-.411.23-1.644 1.472-1.337 1.345-1.543 1.591-1.845 2.193-.363.723-.524 1.418-.522 2.26.002 1.356.511 2.587 1.457 3.525a4.897 4.897 0 0 0 3.514 1.446c1.066 0 1.95-.268 2.84-.862.363-.242 2.884-2.726 3.005-2.962.107-.205.137-.504.075-.726-.063-.226-.323-.528-.538-.626-.202-.092-.609-.098-.813-.013-.098.041-.56.47-1.349 1.253-.66.656-1.299 1.265-1.42 1.355-.671.5-1.548.709-2.321.552-1.993-.403-3.042-2.508-2.142-4.297.207-.411.381-.61 1.665-1.905 1.121-1.13 1.194-1.213 1.254-1.417.079-.268.079-.298.002-.558a1.086 1.086 0 0 0-.512-.612c-.175-.089-.547-.13-.706-.078m13.563 3.034c-.352.124-.643.545-.643.931 0 .396.291.808.66.934.163.055.378.066 1.34.066 1.316 0 1.421-.018 1.701-.299a.984.984 0 0 0 0-1.402c-.282-.282-.383-.299-1.718-.296-.945.003-1.196.015-1.34.066m-.783 4.048a1.007 1.007 0 0 0-.719 1.288c.063.193.155.301.894 1.047.623.628.876.857 1.037.936a.986.986 0 0 0 1.419-.896c.001-.377-.118-.543-1.039-1.458-.768-.761-.849-.83-1.049-.89-.231-.068-.349-.074-.543-.027m-4.217.952a1.066 1.066 0 0 0-.577.591c-.098.288-.098 2.392 0 2.68.126.369.538.66.934.66s.808-.291.934-.66c.098-.288.098-2.392 0-2.68-.173-.508-.762-.778-1.291-.591" fill="#667085" fill-rule="evenodd"/></svg>