<svg width="24" height="24" fill="none" xmlns="http://www.w3.org/2000/svg"><path d="M15.62 1.801a6.106 6.106 0 0 0-3.22 1.353c-.495.413-1.871 1.813-1.984 2.018-.272.492-.068 1.093.464 1.372.192.101.648.101.84 0 .077-.04.563-.491 1.08-1.001.517-.509 1.048-.997 1.18-1.084.794-.519 1.57-.734 2.477-.687a3.867 3.867 0 0 1 2.605 1.166 3.867 3.867 0 0 1 1.166 2.605 3.96 3.96 0 0 1-.742 2.557c-.078.11-.559.623-1.068 1.14-.834.847-.933.961-.997 1.155a.995.995 0 0 0 .679 1.267c.27.078.481.052.752-.094.266-.142 1.929-1.84 2.255-2.301a6.415 6.415 0 0 0 1.02-2.357c.128-.594.127-1.708-.002-2.31-.328-1.534-1.175-2.852-2.388-3.714-.401-.285-1.164-.673-1.617-.821a6.238 6.238 0 0 0-2.5-.264m-.54 5.802c-.257.115-7.317 7.163-7.47 7.457-.186.36-.119.822.165 1.134.15.165.462.298.705.3.455.004.298.145 4.211-3.766 3.897-3.893 3.801-3.786 3.8-4.22a.97.97 0 0 0-.989-.987c-.155 0-.306.03-.422.082m-9.62 2.716a1.225 1.225 0 0 0-.3.097c-.221.112-1.981 1.91-2.267 2.316a6.415 6.415 0 0 0-1.018 2.348c-.13.606-.13 1.715 0 2.32.264 1.234.796 2.228 1.646 3.079.851.85 1.845 1.382 3.079 1.646.602.129 1.715.13 2.31.002.899-.194 1.76-.575 2.432-1.078.456-.341 2.143-2.012 2.25-2.229a1.008 1.008 0 0 0-.449-1.352c-.213-.112-.656-.118-.863-.01-.077.04-.563.49-1.08.999-1.175 1.158-1.487 1.374-2.389 1.65-.324.1-.405.108-1.051.108-.647 0-.727-.008-1.06-.109-.736-.223-1.249-.527-1.761-1.042-.726-.731-1.114-1.598-1.167-2.607a3.96 3.96 0 0 1 .742-2.557c.078-.11.559-.623 1.068-1.14.834-.847.933-.961.997-1.155.234-.712-.37-1.407-1.119-1.286" fill="#667085" fill-rule="evenodd"/></svg>