<svg width="24" height="24" fill="none" xmlns="http://www.w3.org/2000/svg"><path d="M3.602 4.044c-.337.066-.755.299-1.017.568-.783.801-.777 1.996.015 2.788.798.798 2.002.798 2.8 0 .792-.792.798-1.987.015-2.788a2 2 0 0 0-1.813-.568m5.041 1.025C8.291 5.193 8 5.614 8 6c0 .242.119.521.299.701C8.621 7.023 8.097 7 15 7s6.379.023 6.701-.299a.984.984 0 0 0 0-1.402c-.323-.323.205-.299-6.718-.296-5.475.003-6.183.01-6.34.066m-5.041 4.975c-.337.066-.755.299-1.017.568-.783.801-.777 1.996.015 2.788.798.798 2.002.798 2.8 0 .792-.792.798-1.987.015-2.788a2 2 0 0 0-1.813-.568m5.041 1.025C8.291 11.193 8 11.614 8 12c0 .242.119.521.299.701.322.322-.202.299 6.701.299s6.379.023 6.701-.299a.984.984 0 0 0 0-1.402c-.323-.323.205-.299-6.718-.296-5.475.003-6.183.01-6.34.066m-5.041 4.975c-.337.066-.755.299-1.017.568-.783.801-.777 1.996.015 2.788.798.798 2.002.798 2.8 0 .792-.792.798-1.987.015-2.788a2 2 0 0 0-1.813-.568m5.041 1.025C8.291 17.193 8 17.614 8 18c0 .242.119.521.299.701.322.322-.202.299 6.701.299s6.379.023 6.701-.299a.984.984 0 0 0 0-1.402c-.323-.323.205-.299-6.718-.296-5.475.003-6.183.01-6.34.066" fill="#667085" fill-rule="evenodd"/></svg>