<svg width="24" height="24" fill="none" xmlns="http://www.w3.org/2000/svg"><path d="M11.643 1.069a1.118 1.118 0 0 0-.343.229c-.303.303-.3.274-.3 2.702 0 2.427-.003 2.399.299 2.701a.984.984 0 0 0 1.402 0C13.003 6.399 13 6.427 13 4s.003-2.399-.299-2.701a.998.998 0 0 0-1.058-.23m-7.08 3c-.352.124-.643.545-.643.931 0 .08.029.234.065.343.059.176.232.364 1.61 1.748C6.592 8.092 7.197 8.67 7.3 8.72a.969.969 0 0 0 1.146-.194.969.969 0 0 0 .194-1.146c-.05-.103-.628-.708-1.629-1.705-1.384-1.378-1.572-1.551-1.748-1.61a1.032 1.032 0 0 0-.7.004m14.157-.001c-.152.052-.421.302-1.731 1.607-1.001.997-1.579 1.602-1.629 1.705a.926.926 0 0 0-.06.725c.142.49.649.803 1.137.702.119-.025.281-.09.36-.145.079-.055.82-.779 1.648-1.611 1.341-1.347 1.511-1.532 1.57-1.708.129-.391.045-.766-.238-1.048a1.012 1.012 0 0 0-1.057-.227M1.643 11.069C1.291 11.193 1 11.614 1 12c0 .242.119.521.299.701.302.302.274.299 2.701.299s2.399.003 2.701-.299a.984.984 0 0 0 0-1.402c-.303-.303-.271-.299-2.718-.296-1.851.003-2.188.012-2.34.066m16 0c-.352.124-.643.545-.643.931 0 .242.119.521.299.701.302.302.274.299 2.701.299s2.399.003 2.701-.299c.18-.18.299-.459.299-.701 0-.242-.119-.521-.299-.701-.303-.303-.271-.299-2.718-.296-1.851.003-2.188.012-2.34.066m-10.11 4.209a1.445 1.445 0 0 0-.3.133c-.095.057-.85.784-1.678 1.616-1.34 1.348-1.511 1.535-1.57 1.71-.129.389-.044.766.234 1.044s.655.363 1.044.234c.176-.059.364-.232 1.748-1.61 1.001-.997 1.579-1.602 1.629-1.705a.967.967 0 0 0-.194-1.145c-.257-.258-.581-.356-.913-.277m8.394.036a.983.983 0 0 0-.628 1.23c.067.232.093.261 1.614 1.787 1.081 1.084 1.6 1.577 1.723 1.637a.99.99 0 0 0 1.144-.186c.279-.279.364-.655.235-1.045-.059-.176-.23-.362-1.586-1.724-.983-.987-1.585-1.562-1.705-1.627a.95.95 0 0 0-.797-.072m-4.284 1.755a1.118 1.118 0 0 0-.343.229c-.303.303-.3.274-.3 2.702 0 2.427-.003 2.399.299 2.701a.984.984 0 0 0 1.402 0c.302-.302.299-.274.299-2.701s.003-2.399-.299-2.701a.998.998 0 0 0-1.058-.23" fill="#667085" fill-rule="evenodd"/></svg>