<svg width="24" height="24" fill="none" xmlns="http://www.w3.org/2000/svg"><path d="M12.02 1.157c-.276.068-.535.28-.686.563-.067.128-.075.265-.086 1.553-.01 1.218-.003 1.445.054 1.64.132.453.62.774 1.076.705.271-.04.577-.243.721-.475l.121-.197.011-1.512c.011-1.478.01-1.517-.075-1.715a1 1 0 0 0-1.136-.562M5.14 4.115a.992.992 0 0 0-.752.965c-.002.401.054.473 1.397 1.803 1.033 1.023 1.262 1.231 1.4 1.27.372.106.692.034.976-.222a.947.947 0 0 0 .334-.727c-.002-.393-.023-.421-1.31-1.717-.663-.667-1.271-1.248-1.352-1.29-.168-.087-.516-.128-.693-.082m13.553.202c-.256.064-.49.254-1.241 1.01-.85.856-.945.997-.944 1.393.001.388.247.756.609.911.215.092.591.081.806-.023.122-.059.453-.363 1.023-.937.758-.765.85-.873.913-1.066a.991.991 0 0 0-.839-1.297 1.182 1.182 0 0 0-.327.009M2.1 10.974a.994.994 0 0 0-.043 1.799c.16.085.197.087 2.118.098 2.22.013 2.208.015 2.519-.287a.994.994 0 0 0-.364-1.647c-.117-.042-.573-.054-2.09-.055l-1.94-.001-.2.093m17.57-.037a.998.998 0 0 0-.371 1.644c.28.28.418.306 1.529.292.89-.012.963-.019 1.116-.101.338-.181.548-.522.548-.892 0-.4-.213-.725-.592-.905-.193-.091-.233-.094-1.14-.093-.681.001-.981.016-1.09.055M7.715 15.173c-.079.03-.205.092-.28.138-.232.145-3.058 3.012-3.15 3.195a.891.891 0 0 0-.068.711.998.998 0 0 0 1.268.683c.2-.065.322-.177 1.748-1.595.843-.839 1.578-1.601 1.633-1.693.193-.327.159-.794-.081-1.109-.217-.284-.751-.449-1.07-.33m9.885 1.55a.993.993 0 0 0-.558 1.186c.045.163.131.271.591.74.617.628.724.691 1.141.664a.971.971 0 0 0 .912-.793c.039-.185.035-.258-.024-.46-.064-.219-.111-.282-.556-.735-.554-.564-.749-.685-1.106-.684-.135.001-.29.032-.4.082m-5.685.212a.996.996 0 0 0-.634.705c-.031.123-.041.86-.033 2.34.012 2.127.013 2.162.098 2.32.103.189.302.385.486.478.468.235 1.086.012 1.313-.475l.094-.203.001-2.195c0-1.552-.014-2.241-.046-2.351-.148-.492-.779-.798-1.279-.619" fill="#667085" fill-rule="evenodd"/></svg>