<svg width="24" height="24" fill="none" xmlns="http://www.w3.org/2000/svg"><path d="M11.4 1.065c-1.102.079-2.4.416-3.542.918a15.05 15.05 0 0 1-.937.372c-.413.143-.42.147-.462.298-.04.144-.079.173-.692.526-.867.5-1.208.753-1.697 1.257A9.436 9.436 0 0 0 2.831 5.98C.853 8.995.535 12.891 1.99 16.276c.101.233.247.613.326.844.142.415.146.42.295.457.143.036.17.07.496.64.532.93.702 1.162 1.248 1.703 1.743 1.726 4.035 2.773 6.565 2.999 1.795.16 3.76-.178 5.494-.944.217-.096.523-.212.68-.258.375-.109.56-.234.723-.489.116-.18.196-.243.588-.468.802-.457 1.119-.692 1.565-1.157 2.967-3.096 3.773-7.733 2.047-11.783a13.795 13.795 0 0 1-.316-.823c-.161-.476-.215-.559-.481-.735-.184-.122-.25-.206-.482-.612-.426-.744-.711-1.131-1.129-1.536A10.826 10.826 0 0 0 12.3 1.066c-.374-.009-.779-.01-.9-.001m2.265 2.276c2.001.345 3.807 1.302 4.966 2.631.527.603 1.277 1.847 1.441 2.388.197.649.217 1.469.05 2.1-.265 1.007-.975 1.864-1.942 2.343-.6.297-.916.369-1.64.373-.705.003-1.047-.07-1.64-.353-.275-.131-1.251-.782-1.469-.979-.016-.014.178-.314.431-.665.666-.927.979-1.594 1.188-2.532.125-.563.124-1.692-.002-2.275a6.037 6.037 0 0 0-.833-2.018 5.179 5.179 0 0 0-.599-.67c-.233-.222-.397-.404-.365-.404.032 0 .218.028.414.061m-3.605.462c1.413.24 2.6 1.344 2.985 2.777.127.471.127 1.382.001 1.86-.132.495-.386.988-.827 1.6-.214.297-.4.553-.415.569-.014.016-.314-.177-.665-.43-1.283-.92-2.258-1.266-3.599-1.275-.978-.006-1.702.146-2.517.531-.691.326-1.144.678-1.678 1.305-.123.144-.125.12-.043-.36.412-2.403 1.624-4.378 3.418-5.569a11.72 11.72 0 0 1 1.62-.871c.495-.201 1.072-.247 1.72-.137M8.4 10.998c.187.048.502.165.7.26.348.168 1.488.955 1.473 1.016-.004.016-.207.308-.451.648-.842 1.174-1.209 2.156-1.27 3.399-.054 1.079.24 2.238.816 3.224.132.225.319.449.657.785.327.325.449.47.396.47-.15 0-.947-.166-1.381-.287-1.935-.54-3.481-1.604-4.496-3.093-.361-.529-.816-1.375-.917-1.705a4.145 4.145 0 0 1-.048-2.095c.357-1.375 1.589-2.476 3.021-2.698.379-.059 1.112-.022 1.5.076m12.302 2.67c-.314 1.855-1.117 3.491-2.297 4.681-.524.528-1.094.943-1.907 1.387-.744.406-1.247.544-1.972.543-1.446-.001-2.708-.81-3.326-2.13-.252-.537-.337-.946-.336-1.609.002-.668.084-1.041.354-1.6.175-.362.956-1.488 1.02-1.471.02.005.295.196.614.424.932.67 1.536.959 2.448 1.17.424.099.562.112 1.18.114.866.004 1.431-.097 2.152-.382.76-.301 1.206-.595 1.716-1.133.216-.226.398-.406.406-.399.008.007-.015.189-.052.405" fill="#667085" fill-rule="evenodd"/></svg>