<svg width="24" height="24" fill="none" xmlns="http://www.w3.org/2000/svg"><path d="M11.2 2.06a5.885 5.885 0 0 0-3.331 1.616c-.919.881-1.476 1.88-1.756 3.147-.079.36-.089.538-.103 1.904l-.017 1.507-.272.046c-.968.163-2.055 1.185-2.455 2.308-.239.67-.246.768-.246 3.412 0 2.171.007 2.456.072 2.773.108.531.284.971.553 1.389a3.926 3.926 0 0 0 2.609 1.749c.336.063.81.069 5.746.069s5.41-.006 5.746-.069a3.926 3.926 0 0 0 2.609-1.749c.269-.418.445-.858.553-1.389.065-.317.072-.602.072-2.773 0-2.644-.007-2.742-.246-3.412-.4-1.123-1.487-2.145-2.455-2.308l-.272-.046-.017-1.507c-.014-1.366-.024-1.544-.103-1.904-.28-1.267-.837-2.266-1.756-3.147A5.934 5.934 0 0 0 11.2 2.06M13 4.133a3.82 3.82 0 0 1 1.825 1.042c.523.523.846 1.088 1.046 1.825.098.364.103.436.119 1.69l.017 1.31H7.993l.017-1.31c.016-1.254.021-1.326.119-1.69.2-.737.523-1.302 1.046-1.825a3.956 3.956 0 0 1 2.248-1.134c.395-.062 1.147-.018 1.577.092m3.84 7.908c.318.022.683.066.809.098.553.142 1.067.655 1.211 1.209.188.721.189 4.581.001 5.303-.142.544-.638 1.05-1.181 1.206-.432.123-1.173.142-5.68.142s-5.248-.019-5.68-.142c-.543-.156-1.039-.662-1.181-1.206-.188-.722-.187-4.582.001-5.303.103-.397.416-.8.811-1.044.236-.146.567-.223 1.119-.261.696-.047 9.085-.049 9.77-.002" fill="#667085" fill-rule="evenodd"/></svg>