<svg width="24" height="24" fill="none" xmlns="http://www.w3.org/2000/svg"><path d="M11.2 2.06a5.885 5.885 0 0 0-3.331 1.616c-.92.882-1.481 1.89-1.754 3.147-.071.328-.089.573-.105 1.404l-.019 1.007-.271.046c-.967.163-2.054 1.186-2.454 2.308-.244.684-.246.716-.246 3.912 0 2.652.007 2.952.072 3.273.108.531.284.971.553 1.389a3.926 3.926 0 0 0 2.609 1.749c.336.063.81.069 5.746.069s5.41-.006 5.746-.069a3.926 3.926 0 0 0 2.609-1.749c.269-.418.445-.858.553-1.389.065-.321.072-.621.072-3.273 0-3.196-.002-3.228-.246-3.912-.4-1.122-1.487-2.145-2.454-2.308l-.271-.046-.019-1.007c-.016-.831-.034-1.076-.105-1.404-.273-1.257-.834-2.265-1.754-3.147A5.934 5.934 0 0 0 11.2 2.06M13 4.133a3.996 3.996 0 0 1 2.645 2.216c.248.547.322.945.345 1.841l.02.81H7.99l.02-.81c.018-.697.035-.863.121-1.19.195-.732.52-1.3 1.044-1.825a3.956 3.956 0 0 1 2.248-1.134c.395-.062 1.147-.018 1.577.092m3.84 6.908c.318.022.683.066.809.098.553.142 1.067.655 1.211 1.209.096.369.14 1.347.14 3.152 0 1.802-.044 2.783-.139 3.151-.142.544-.638 1.05-1.181 1.206-.432.123-1.173.142-5.68.142s-5.248-.019-5.68-.142c-.543-.156-1.039-.662-1.181-1.206C5.044 18.283 5 17.302 5 15.5c0-1.805.044-2.783.14-3.152.103-.397.416-.8.811-1.044.236-.146.567-.223 1.119-.261.696-.047 9.085-.049 9.77-.002m-5.223 2.536a1.156 1.156 0 0 0-.523.523c-.091.195-.093.227-.093 1.4 0 1.173.002 1.204.093 1.4.29.622 1.061.793 1.558.345.088-.08.203-.235.254-.345.091-.196.093-.227.093-1.4 0-1.173-.002-1.205-.093-1.4a1.146 1.146 0 0 0-.532-.525c-.166-.07-.596-.069-.757.002" fill="#667085" fill-rule="evenodd"/></svg>