<svg width="24" height="24" fill="none" xmlns="http://www.w3.org/2000/svg"><path d="M11.04 1.579c-2.054.34-3.857 1.786-4.602 3.692C6.076 6.197 6 6.709 6 8.25v1.11l-.204.25c-.745.916-1.362 2.171-1.618 3.29-.514 2.243.108 4.787 1.623 6.642 2.359 2.886 6.368 3.772 9.699 2.141 2.741-1.342 4.5-4.149 4.5-7.183 0-3.713-2.63-6.996-6.245-7.794-.713-.158-1.16-.198-1.945-.176-1.203.035-2.082.282-3.32.934L8 7.722v-.231a5.03 5.03 0 0 1 .215-1.279c.467-1.363 1.594-2.345 3.026-2.635.502-.101 1.377-.064 1.859.081.772.23 1.291.565 1.922 1.239.475.509.616.594.979.592.404-.001.724-.21.904-.589.169-.358.121-.682-.158-1.06-.618-.838-1.659-1.599-2.707-1.979-.644-.233-1.078-.307-1.9-.323-.53-.011-.863.002-1.1.041m2.223 7.054a5.972 5.972 0 0 1 3.105 1.761c1.684 1.77 2.102 4.437 1.047 6.684-.421.898-1.248 1.864-2.051 2.397a6.03 6.03 0 0 1-5.988.422c-1.169-.556-2.228-1.625-2.792-2.819a6.043 6.043 0 0 1 0-5.156 6.11 6.11 0 0 1 3.004-2.917c.498-.218.821-.308 1.652-.46.055-.01.451-.013.88-.006.602.01.863.031 1.143.094m-1.646 3.944a1.156 1.156 0 0 0-.523.523c-.091.195-.093.227-.093 1.4 0 1.173.002 1.204.093 1.4.29.622 1.061.793 1.558.345.088-.08.203-.235.254-.345.091-.196.093-.227.093-1.4 0-1.173-.002-1.205-.093-1.4a1.146 1.146 0 0 0-.532-.525c-.166-.07-.596-.069-.757.002" fill="#667085" fill-rule="evenodd"/></svg>