<svg width="24" height="24" fill="none" xmlns="http://www.w3.org/2000/svg"><path d="M11.04 1.579c-2.054.34-3.857 1.786-4.602 3.692C6.076 6.197 6 6.709 6 8.25v1.11l-.204.25c-.745.916-1.362 2.171-1.618 3.29-.514 2.243.108 4.787 1.623 6.642 2.359 2.886 6.368 3.772 9.699 2.141a8.039 8.039 0 0 0 4.458-6.371c.212-1.946-.381-3.936-1.658-5.571l-.292-.373-.019-1.334c-.021-1.468-.053-1.72-.313-2.462-.606-1.723-1.933-3.085-3.603-3.698-.669-.245-1.098-.319-1.933-.336-.53-.011-.863.002-1.1.041m1.749 2.004a3.992 3.992 0 0 1 2.996 2.629c.112.327.214.937.215 1.28v.231l-.45-.239c-.806-.428-1.489-.686-2.258-.851-.376-.081-.544-.093-1.292-.093s-.916.012-1.292.093c-.769.165-1.452.423-2.258.851L8 7.723v-.231a5.03 5.03 0 0 1 .215-1.28 4.011 4.011 0 0 1 2.97-2.627c.377-.08 1.218-.082 1.604-.002m.474 5.05a5.972 5.972 0 0 1 3.105 1.761c1.684 1.77 2.102 4.437 1.047 6.684-.421.898-1.248 1.864-2.051 2.397a6.03 6.03 0 0 1-5.988.422c-1.169-.556-2.228-1.625-2.792-2.819a6.043 6.043 0 0 1 0-5.156 6.11 6.11 0 0 1 3.004-2.917c.498-.218.821-.308 1.652-.46.055-.01.451-.013.88-.006.602.01.863.031 1.143.094m-1.646 3.944a1.156 1.156 0 0 0-.523.523c-.091.195-.093.227-.093 1.4 0 1.173.002 1.204.093 1.4.29.622 1.061.793 1.558.345.088-.08.203-.235.254-.345.091-.196.093-.227.093-1.4 0-1.173-.002-1.205-.093-1.4a1.146 1.146 0 0 0-.532-.525c-.166-.07-.596-.069-.757.002" fill="#667085" fill-rule="evenodd"/></svg>