<svg width="24" height="24" fill="none" xmlns="http://www.w3.org/2000/svg"><path d="M11.2 2.06a5.885 5.885 0 0 0-3.331 1.616c-.919.882-1.477 1.882-1.755 3.147-.079.355-.089.544-.104 1.799l-.017 1.403-.431.048c-.777.086-1.271.259-1.838.644a3.949 3.949 0 0 0-1.458 1.871c-.239.67-.246.768-.246 3.412 0 2.171.007 2.456.072 2.773.108.531.284.971.553 1.389a3.926 3.926 0 0 0 2.609 1.749c.338.064.862.069 6.746.069s6.408-.005 6.746-.069a3.926 3.926 0 0 0 2.609-1.749c.269-.418.445-.858.553-1.389.065-.317.072-.602.072-2.773 0-2.644-.007-2.742-.246-3.412a3.949 3.949 0 0 0-1.458-1.871c-.567-.385-1.061-.558-1.838-.644l-.431-.048-.017-1.403c-.015-1.255-.025-1.444-.104-1.799-.278-1.265-.836-2.265-1.755-3.147A5.934 5.934 0 0 0 11.2 2.06M13 4.133a3.82 3.82 0 0 1 1.825 1.042c.523.523.846 1.088 1.046 1.825.098.364.103.436.119 1.69l.017 1.31H7.993l.017-1.31c.016-1.254.021-1.326.119-1.69.2-.737.523-1.302 1.046-1.825a3.956 3.956 0 0 1 2.248-1.134c.395-.062 1.147-.018 1.577.092m4.84 7.908c.318.022.683.066.809.098.553.142 1.067.655 1.211 1.209.188.721.189 4.581.001 5.303-.142.544-.638 1.05-1.181 1.206-.442.126-1.17.142-6.68.142s-6.238-.016-6.68-.142c-.543-.156-1.039-.662-1.181-1.206-.188-.722-.187-4.582.001-5.303.103-.397.416-.8.811-1.044.236-.146.567-.223 1.119-.261.699-.047 11.082-.049 11.77-.002" fill="#667085" fill-rule="evenodd"/></svg>