<svg width="24" height="24" fill="none" xmlns="http://www.w3.org/2000/svg"><path d="M11.2 2.058a5.902 5.902 0 0 0-3.331 1.618c-.919.881-1.476 1.88-1.756 3.147-.079.36-.089.538-.103 1.904l-.017 1.507-.272.046c-.968.163-2.055 1.185-2.455 2.308-.239.67-.246.768-.246 3.412 0 2.171.007 2.456.072 2.773.108.531.284.971.553 1.389a3.926 3.926 0 0 0 2.609 1.749c.336.063.81.069 5.746.069s5.41-.006 5.746-.069a3.926 3.926 0 0 0 2.609-1.749c.269-.418.445-.858.553-1.389.065-.317.072-.602.072-2.773 0-2.644-.007-2.742-.246-3.412-.394-1.107-1.385-2.046-2.514-2.384-.578-.173-.619-.175-5.514-.191l-4.713-.017.017-1.308c.016-1.251.021-1.324.119-1.688.203-.749.526-1.308 1.066-1.841a3.856 3.856 0 0 1 1.871-1.046c.477-.118 1.326-.127 1.794-.018a4.01 4.01 0 0 1 2.425 1.633c.297.437.464.824.655 1.524.159.581.811.904 1.34.665.49-.221.695-.649.579-1.202-.482-2.292-2.348-4.117-4.699-4.596-.54-.11-1.433-.138-1.96-.061m5.64 9.983c.318.022.683.066.809.098.553.142 1.067.655 1.211 1.209.188.721.189 4.581.001 5.303-.142.544-.638 1.05-1.181 1.206-.432.123-1.173.142-5.68.142s-5.248-.019-5.68-.142c-.543-.156-1.039-.662-1.181-1.206-.188-.722-.187-4.582.001-5.303.103-.397.416-.8.811-1.044.236-.146.567-.223 1.119-.261.696-.047 9.085-.049 9.77-.002" fill="#667085" fill-rule="evenodd"/></svg>