<svg width="24" height="24" fill="none" xmlns="http://www.w3.org/2000/svg"><path d="M11.2 2.058a5.902 5.902 0 0 0-3.331 1.618c-.919.882-1.477 1.882-1.755 3.147-.079.355-.089.544-.104 1.799l-.017 1.403-.431.048c-.777.086-1.271.259-1.838.644a3.949 3.949 0 0 0-1.458 1.871c-.239.67-.246.768-.246 3.412 0 2.171.007 2.456.072 2.773.108.531.284.971.553 1.389a3.926 3.926 0 0 0 2.609 1.749c.338.064.862.069 6.746.069s6.408-.005 6.746-.069a3.926 3.926 0 0 0 2.609-1.749c.269-.418.445-.858.553-1.389.065-.317.072-.602.072-2.773 0-2.644-.007-2.742-.246-3.412-.394-1.107-1.385-2.046-2.514-2.384-.583-.175-.591-.175-6.014-.191l-5.213-.016.017-1.309c.016-1.251.021-1.324.119-1.688.203-.749.526-1.308 1.066-1.841a3.856 3.856 0 0 1 1.871-1.046c.477-.118 1.326-.127 1.794-.018a4.01 4.01 0 0 1 2.425 1.633c.297.437.464.824.655 1.524.159.581.811.904 1.34.665.49-.221.695-.649.579-1.202-.482-2.292-2.348-4.117-4.699-4.596-.54-.11-1.433-.138-1.96-.061m6.64 9.983c.318.022.683.066.809.098.553.142 1.067.655 1.211 1.209.188.721.189 4.581.001 5.303-.142.544-.638 1.05-1.181 1.206-.442.126-1.17.142-6.68.142s-6.238-.016-6.68-.142c-.543-.156-1.039-.662-1.181-1.206-.188-.722-.187-4.582.001-5.303.103-.397.416-.8.811-1.044.236-.146.567-.223 1.119-.261.699-.047 11.082-.049 11.77-.002" fill="#667085" fill-rule="evenodd"/></svg>