<svg width="24" height="24" fill="none" xmlns="http://www.w3.org/2000/svg"><path d="M5.9 2.025c-.991.083-1.531.257-2.2.708-.578.389-1.181 1.16-1.417 1.811-.279.77-.263.33-.263 7.456 0 6.02.004 6.442.072 6.773.223 1.094.826 1.987 1.746 2.582.418.269.858.445 1.389.553.331.068.753.072 6.773.072s6.442-.004 6.773-.072c1.094-.223 1.987-.826 2.582-1.746.269-.418.445-.858.553-1.389.068-.331.072-.753.072-6.773s-.004-6.442-.072-6.773c-.289-1.42-1.291-2.57-2.618-3.005-.611-.2-.432-.195-7.05-.203a802.572 802.572 0 0 0-6.34.006M17.801 4.04c.341.022.723.066.85.099.553.144 1.065.656 1.209 1.209.118.452.14 1.48.14 6.652 0 5.167-.022 6.2-.139 6.651-.142.544-.638 1.05-1.181 1.206-.442.126-1.17.142-6.68.142s-6.238-.016-6.68-.142c-.543-.156-1.039-.662-1.181-1.206C4.022 18.2 4 17.167 4 12c0-5.172.022-6.2.14-6.652.103-.397.416-.8.811-1.044.239-.148.575-.225 1.142-.261.734-.047 10.98-.05 11.708-.003M11.68 6.024c-.545.062-.99.192-1.46.425C9.112 7 8.337 8.031 8.076 9.3c-.068.33-.059 1.137.017 1.481.161.729.507 1.405.971 1.898l.256.27-.564 1.676c-.548 1.625-.564 1.683-.543 1.935.047.58.365 1.048.887 1.303l.24.117h5.32l.24-.117c.522-.255.84-.723.887-1.303.021-.252.005-.31-.543-1.935l-.564-1.676.256-.27c.465-.493.812-1.172.97-1.898.075-.346.085-1.155.018-1.481-.384-1.87-1.877-3.174-3.744-3.273a4.669 4.669 0 0 0-.5-.003m1.049 2.093c.495.19.965.661 1.153 1.154.107.281.148.861.082 1.168-.086.403-.274.71-.67 1.101-.499.491-.694.914-.642 1.395.012.113.238.849.503 1.635l.481 1.43h-3.272l.481-1.43c.265-.786.491-1.522.503-1.635.051-.479-.143-.9-.644-1.398-.527-.523-.701-.903-.703-1.539-.002-.576.178-1.016.58-1.417.438-.439.836-.589 1.499-.566.31.01.48.037.649.102" fill="#667085" fill-rule="evenodd"/></svg>