<svg width="24" height="24" fill="none" xmlns="http://www.w3.org/2000/svg"><path d="M5.9 2.026c-.973.077-1.532.256-2.2.707-.581.391-1.181 1.16-1.419 1.818-.274.757-.261.377-.261 7.449 0 5.884.005 6.408.069 6.746a3.932 3.932 0 0 0 1.728 2.595c.412.269.813.435 1.323.549.323.073.545.083 2.155.099 1.353.014 1.838.006 1.972-.031a1.03 1.03 0 0 0 .6-.466c.097-.165.113-.235.113-.492 0-.256-.016-.328-.111-.489a1.19 1.19 0 0 0-.243-.289c-.276-.21-.369-.222-1.801-.223-1.422 0-2.154-.042-2.505-.142-.543-.156-1.039-.662-1.181-1.206C4.022 18.2 4 17.167 4 12s.022-6.2.139-6.651c.144-.553.656-1.065 1.209-1.209.337-.088 1.31-.14 2.637-.14 1.259 0 1.37-.015 1.641-.222a1.19 1.19 0 0 0 .243-.289c.095-.161.111-.233.111-.489s-.016-.328-.111-.489a1.19 1.19 0 0 0-.243-.289c-.283-.216-.347-.223-2.021-.215-.85.003-1.617.012-1.705.019m9.743 4.043C15.291 6.193 15 6.614 15 7c0 .08.029.234.065.343.059.177.244.376 1.789 1.927L18.578 11h-4.862c-5.465 0-5.098-.02-5.417.299a.984.984 0 0 0 0 1.402c.319.319-.048.299 5.417.299h4.862l-1.724 1.73c-1.545 1.551-1.73 1.75-1.789 1.927-.129.389-.044.766.234 1.044s.654.363 1.044.234c.179-.059.437-.305 2.808-2.67 2.875-2.867 2.818-2.801 2.82-3.276a.923.923 0 0 0-.085-.43c-.064-.134-.765-.858-2.716-2.805-2.389-2.383-2.648-2.63-2.827-2.689a1.032 1.032 0 0 0-.7.004" fill="#667085" fill-rule="evenodd"/></svg>