<svg width="24" height="24" fill="none" xmlns="http://www.w3.org/2000/svg"><path d="M10.56 1.041A11.12 11.12 0 0 0 4.6 3.44c-.981.782-2.019 1.985-2.604 3.02-.121.214-.136.273-.136.54 0 .256.016.328.111.489.314.534.999.668 1.494.29.071-.054.22-.249.33-.431a9.724 9.724 0 0 1 1.2-1.558 8.991 8.991 0 0 1 5.206-2.695c.64-.098 1.967-.099 2.598-.001 1.927.299 3.58 1.115 4.956 2.446 1.387 1.341 2.265 2.998 2.612 4.928.08.447.092.642.092 1.532 0 1.123-.058 1.594-.3 2.459-.739 2.63-2.718 4.841-5.259 5.875-2.745 1.116-5.907.806-8.356-.821a9.388 9.388 0 0 1-2.75-2.864c-.234-.387-.421-.542-.737-.613a.983.983 0 0 0-1.205.874c-.025.292.036.47.313.913A11.115 11.115 0 0 0 9.3 22.779c1.295.265 2.741.287 4.042.064a11.135 11.135 0 0 0 6.288-3.45 11.073 11.073 0 0 0 2.793-6.1c.085-.677.085-1.909 0-2.586-.244-1.937-.978-3.768-2.116-5.277-1.82-2.413-4.405-3.927-7.4-4.333-.546-.075-1.83-.105-2.347-.056m.68 5.994a1.074 1.074 0 0 0-.488.317.923.923 0 0 0-.246.648c0 .391.019.415 1.347 1.749l1.244 1.25-5.438.01-5.439.011-.163.087a.994.994 0 0 0 .043 1.799l.2.093L7.699 13h5.399l-1.244 1.25c-1.329 1.335-1.348 1.359-1.348 1.75 0 .099.023.25.052.335.119.358.554.664.942.664.406 0 .43-.021 2.729-2.325 1.469-1.473 2.147-2.18 2.19-2.283.033-.082.061-.241.061-.355 0-.461.094-.348-2.237-2.689-1.273-1.279-2.207-2.186-2.3-2.234-.171-.089-.544-.13-.703-.078" fill="#667085" fill-rule="evenodd"/></svg>