<svg width="24" height="24" fill="none" xmlns="http://www.w3.org/2000/svg"><path d="M14.664 2.061a1.02 1.02 0 0 0-.533.45c-.095.161-.111.233-.111.489s.016.328.111.489c.061.103.17.234.243.289.271.207.382.222 1.641.222 1.324 0 2.3.052 2.636.139.554.145 1.065.655 1.21 1.209.033.128.078.52.099.872.051.838.051 10.722 0 11.56-.057.933-.149 1.211-.535 1.612-.509.529-.92.606-3.25.607-1.432.001-1.525.013-1.801.223a1.19 1.19 0 0 0-.243.289c-.095.161-.111.233-.111.489 0 .257.016.327.113.492.132.225.353.397.6.466.134.037.619.045 1.972.031 1.61-.016 1.832-.026 2.155-.099.51-.114.911-.28 1.323-.549a3.932 3.932 0 0 0 1.728-2.595c.064-.338.069-.862.069-6.746s-.005-6.408-.069-6.746A3.918 3.918 0 0 0 19.8 2.44c-.733-.37-1.019-.408-3.2-.425-1.502-.011-1.804-.004-1.936.046m-5 4.002a1.005 1.005 0 0 0-.533.448c-.095.162-.111.232-.11.489 0 .212.022.341.074.44.04.077.841.91 1.779 1.85L12.579 11H7.714c-5.297 0-5.035-.011-5.34.222a1.19 1.19 0 0 0-.243.289c-.095.161-.111.233-.111.489s.016.328.111.489c.061.103.17.234.243.289.305.233.043.222 5.34.222h4.865l-1.705 1.71c-.938.94-1.739 1.773-1.779 1.85-.052.099-.074.228-.074.44-.001.257.015.327.11.489.253.43.729.605 1.212.446.179-.059.437-.305 2.808-2.67 2.874-2.867 2.818-2.801 2.821-3.276a.824.824 0 0 0-.102-.449c-.078-.15-.757-.851-2.717-2.805-2.372-2.365-2.631-2.611-2.81-2.67a1.02 1.02 0 0 0-.679-.002" fill="#667085" fill-rule="evenodd"/></svg>