<svg width="24" height="24" fill="none" xmlns="http://www.w3.org/2000/svg"><path d="M9.8 2.041a9.517 9.517 0 0 0-5.941 2.884C.066 8.83.048 15.136 3.819 19.035c1.558 1.611 3.439 2.576 5.641 2.893.55.079 2.017.067 2.56-.022a9.492 9.492 0 0 0 2.85-.911c.753-.373.959-.541 1.07-.874a.99.99 0 0 0-1.041-1.309c-.145.015-.352.099-.74.3-1.098.571-2.037.828-3.199.875-2.438.099-4.78-1.017-6.284-2.992-1.849-2.429-2.195-5.782-.88-8.535 1.705-3.569 5.572-5.275 9.224-4.07.242.08.736.295 1.097.478.595.3.679.332.886.332.427 0 .85-.322.96-.731a1.016 1.016 0 0 0-.358-1.052c-.249-.183-1.211-.657-1.705-.839a10.699 10.699 0 0 0-1.904-.478c-.542-.078-1.719-.109-2.196-.059m7.843 5.028C17.291 7.193 17 7.614 17 8c0 .08.03.234.066.343.057.174.21.342 1.288 1.427L19.577 11h-5.361c-6.025 0-5.596-.022-5.917.299a.984.984 0 0 0 0 1.402c.321.321-.108.299 5.917.299h5.361l-1.223 1.23c-1.078 1.085-1.231 1.253-1.288 1.427-.13.389-.045.766.233 1.044s.655.363 1.044.234c.178-.059.403-.27 2.309-2.17 2.329-2.323 2.317-2.307 2.32-2.776.003-.442.004-.44-2.319-2.754-1.907-1.899-2.132-2.111-2.31-2.17a1.032 1.032 0 0 0-.7.004" fill="#667085" fill-rule="evenodd"/></svg>