<svg width="24" height="24" fill="none" xmlns="http://www.w3.org/2000/svg"><path d="M17.16 1.507c-1.149.147-8.615 1.145-8.82 1.178-1.543.25-2.816 1.429-3.224 2.986-.101.383-.148 1.344-.08 1.597.196.719 1.134.964 1.664.434.222-.222.3-.459.301-.919.001-.665.193-1.177.588-1.566.235-.232.653-.466.951-.531.205-.046 7.26-.989 8.3-1.11.319-.037.841-.069 1.16-.072.574-.004.583-.003.85.124.304.144.647.446.83.732.164.255.234.619.28 1.453.05.895.05 11.479 0 12.374-.046.834-.116 1.198-.28 1.453a2.224 2.224 0 0 1-.83.732c-.266.126-.278.128-.85.126a10.83 10.83 0 0 1-1.02-.054c-1.021-.118-8.257-1.087-8.439-1.13a1.871 1.871 0 0 1-.746-.354c-.536-.403-.793-.966-.794-1.743-.001-.46-.079-.697-.301-.919-.535-.535-1.467-.289-1.665.438-.067.248-.018 1.214.081 1.593.408 1.555 1.671 2.726 3.224 2.989.587.099 8.695 1.163 9.174 1.203.865.073 1.549-.032 2.192-.338 1.052-.499 1.84-1.438 2.113-2.517.182-.716.187-.958.172-8.026l-.015-6.66-.09-.399c-.189-.826-.489-1.385-1.045-1.945a3.767 3.767 0 0 0-1.176-.838c-.548-.255-.713-.286-1.585-.298a13.867 13.867 0 0 0-.92.007m-5.49 5.55a1.038 1.038 0 0 0-.539.454c-.095.162-.111.232-.11.489 0 .213.022.341.074.44.041.077.616.685 1.279 1.35L13.578 11l-5.379.002c-4.389.001-5.407.011-5.529.055a1.038 1.038 0 0 0-.539.454c-.095.161-.111.233-.111.489s.016.328.111.489c.061.103.17.234.243.289.306.234-.004.222 5.84.222h5.364l-1.204 1.21c-.663.666-1.238 1.273-1.279 1.35-.052.099-.074.227-.074.44-.001.257.015.327.11.489.253.43.729.606 1.212.446.178-.059.404-.271 2.328-2.19 1.474-1.47 2.157-2.177 2.214-2.295a1.115 1.115 0 0 0-.015-.91c-.077-.148-.649-.743-2.217-2.305-1.907-1.899-2.132-2.111-2.31-2.17a1.03 1.03 0 0 0-.673-.008" fill="#667085" fill-rule="evenodd"/></svg>