<svg width="24" height="24" fill="none" xmlns="http://www.w3.org/2000/svg"><path d="M5.54 2.399c-1.571.145-2.988 1.348-3.378 2.868a5.938 5.938 0 0 0-.121.673c-.055.489-.055 11.631 0 12.12.105.937.432 1.665 1.039 2.313.825.883 1.963 1.327 3.2 1.251.55-.034 3.242-.332 3.5-.387A4.034 4.034 0 0 0 13 17.245c0-.462-.042-.629-.212-.852-.437-.572-1.362-.485-1.673.157-.074.152-.098.29-.121.69-.019.33-.055.576-.107.724a1.996 1.996 0 0 1-1.229 1.237c-.386.132-2.591.369-3.499.374l-.742.005-.304-.15c-.356-.175-.723-.538-.888-.876-.205-.422-.205-.424-.205-6.554s0-6.132.205-6.554c.163-.334.521-.688.881-.87l.308-.156.683.004c.694.005 2.743.2 3.308.315.519.107.987.422 1.265.854.218.34.292.607.324 1.167.023.4.047.538.121.69.312.643 1.236.729 1.674.156.189-.249.224-.427.199-1.026-.028-.66-.129-1.066-.408-1.64a3.876 3.876 0 0 0-1.8-1.822c-.583-.289-.966-.368-2.68-.553-1.661-.18-2.098-.208-2.56-.166m10.103 3.67C15.291 6.193 15 6.614 15 7c0 .08.029.234.065.343.059.177.244.376 1.789 1.927L18.578 11h-4.862c-5.465 0-5.098-.02-5.417.299a.984.984 0 0 0 0 1.402c.319.319-.048.299 5.417.299h4.862l-1.724 1.73c-1.545 1.551-1.73 1.75-1.789 1.927-.129.389-.044.766.234 1.044s.654.363 1.044.234c.179-.059.437-.305 2.808-2.67 2.875-2.867 2.818-2.801 2.82-3.276a.923.923 0 0 0-.085-.43c-.064-.134-.765-.858-2.716-2.805-2.389-2.383-2.648-2.63-2.827-2.689a1.032 1.032 0 0 0-.7.004" fill="#667085" fill-rule="evenodd"/></svg>