<svg width="24" height="24" fill="none" xmlns="http://www.w3.org/2000/svg"><path d="M5.6 2.044a4.007 4.007 0 0 0-1.885.678c-.835.561-1.448 1.518-1.64 2.559-.081.443-.082 12.994 0 13.439.28 1.526 1.42 2.76 2.901 3.138.476.122 1.056.149 2.864.133 1.701-.016 1.795-.02 2.114-.107 1.491-.408 2.559-1.48 2.933-2.944.065-.255.085-.495.102-1.185.024-1.018-.007-1.175-.287-1.455a.984.984 0 0 0-1.403-.001c-.242.242-.299.446-.3 1.078-.001 1.163-.114 1.545-.595 2.027-.316.316-.66.493-1.084.559-.374.058-3.525.025-3.82-.04-.335-.074-.623-.24-.901-.52a1.816 1.816 0 0 1-.532-.976c-.068-.354-.068-12.5 0-12.854.139-.723.771-1.368 1.467-1.497.314-.059 3.174-.093 3.654-.044.541.055.85.199 1.216.564.481.482.594.864.595 2.027.001.632.058.836.3 1.078a.984.984 0 0 0 1.403-.001c.28-.28.311-.437.287-1.455-.023-.946-.071-1.233-.305-1.796-.267-.644-.832-1.34-1.402-1.727-.312-.212-.902-.49-1.222-.576a5.304 5.304 0 0 0-.6-.105c-.419-.047-3.36-.045-3.86.003m10.043 4.025C15.291 6.193 15 6.614 15 7c0 .08.029.234.065.343.059.177.244.376 1.789 1.927L18.578 11h-4.862c-5.465 0-5.098-.02-5.417.299a.984.984 0 0 0 0 1.402c.319.319-.048.299 5.417.299h4.862l-1.724 1.73c-1.545 1.551-1.73 1.75-1.789 1.927-.129.389-.044.766.234 1.044s.654.363 1.044.234c.179-.059.437-.305 2.808-2.67 2.875-2.867 2.818-2.801 2.82-3.276a.923.923 0 0 0-.085-.43c-.064-.134-.765-.858-2.716-2.805-2.389-2.383-2.648-2.63-2.827-2.689a1.032 1.032 0 0 0-.7.004" fill="#667085" fill-rule="evenodd"/></svg>