<svg width="24" height="24" fill="none" xmlns="http://www.w3.org/2000/svg"><path d="M10.5 2.042c-.59.068-1.247.318-1.785.68-.512.344-1.034.955-1.313 1.538-.227.473-.291.729-.312 1.245l-.019.485-1.226.022c-1.274.022-1.595.052-2.065.192-1.128.337-2.12 1.277-2.514 2.384-.253.71-.246.554-.246 5.412 0 4.095.005 4.446.072 4.773.108.531.284.971.553 1.389.595.92 1.488 1.523 2.582 1.746.332.068.791.072 7.773.072 6.982 0 7.441-.004 7.773-.072a3.927 3.927 0 0 0 1.389-.553 3.926 3.926 0 0 0 1.749-2.609c.063-.333.069-.76.069-4.766 0-4.076-.005-4.426-.072-4.753-.251-1.234-.999-2.227-2.1-2.786-.66-.335-1.081-.403-2.658-.43l-1.23-.021v-.388c0-.619-.181-1.173-.59-1.802-.399-.615-.956-1.09-1.665-1.42a3.424 3.424 0 0 0-1.205-.339c-.415-.047-2.545-.046-2.96.001m2.749 1.996c.477.05.805.209 1.155.558.339.34.498.663.537 1.094l.028.31H9.031l.028-.31c.075-.826.805-1.561 1.636-1.649.415-.044 2.147-.046 2.554-.003m5.591 4.003c.318.022.683.066.811.099.551.141 1.065.655 1.21 1.209.108.417.139 1.435.139 4.651 0 3.216-.031 4.234-.139 4.651-.142.544-.638 1.05-1.181 1.206-.45.128-1.166.142-7.68.142-6.514 0-7.23-.014-7.68-.142-.543-.156-1.039-.662-1.181-1.206C3.031 18.234 3 17.216 3 14c0-3.22.031-4.234.14-4.652.103-.397.416-.8.811-1.044.236-.146.567-.223 1.119-.261.701-.047 13.079-.049 13.77-.002m-6.574 4.488c-.467.058-.92.403-1.142.871l-.104.22v3.76l.104.22c.162.341.397.576.747.749l.305.151H18.3l.24-.096c.332-.133.731-.532.864-.864l.096-.24v-1.8c0-1.756-.002-1.805-.087-2.012a1.611 1.611 0 0 0-.894-.892c-.195-.074-.34-.078-3.113-.087-1.6-.005-3.013.004-3.14.02m5.214 2.991v1H13v-2h4.48v1" fill="#667085" fill-rule="evenodd"/></svg>