<svg width="24" height="24" fill="none" xmlns="http://www.w3.org/2000/svg"><path d="M6.714 1.041c-.831.076-1.381.265-2.014.692-.578.389-1.181 1.16-1.417 1.811-.279.77-.263.33-.263 7.456 0 6.016.005 6.442.072 6.772.242 1.191.928 2.145 1.955 2.719.455.255 1.267.468 1.783.469H7l.002.61c.001.404.02.661.055.76.079.221.241.414.454.539.161.095.233.111.489.111s.328-.016.489-.111c.409-.24.511-.5.511-1.294V21h6l.002.59c.001.387.02.642.055.74.079.221.241.414.454.539.161.095.233.111.489.111s.328-.016.489-.111c.412-.242.511-.498.511-1.314v-.595h.17c.498-.001 1.335-.216 1.75-.45a3.983 3.983 0 0 0 1.988-2.737c.068-.331.072-.752.072-6.753 0-7.094.013-6.712-.261-7.469-.373-1.032-1.364-1.984-2.419-2.324-.632-.205-.502-.2-6.06-.209-2.849-.005-5.336.006-5.526.023M16.801 3.04c.341.022.723.066.85.099.553.144 1.065.656 1.209 1.209.118.452.14 1.48.14 6.652 0 5.172-.022 6.2-.14 6.652-.143.552-.687 1.093-1.225 1.222-.447.107-1.255.125-5.635.125s-5.188-.018-5.635-.125c-.538-.129-1.082-.67-1.225-1.222C5.022 17.2 5 16.172 5 11c0-5.172.022-6.2.14-6.652.103-.397.416-.8.811-1.044.239-.148.575-.225 1.142-.261.73-.047 8.984-.049 9.708-.003M9.24 6.035c-.311.102-.589.358-.685.63-.081.23-.081 8.44 0 8.67.127.361.559.664.945.664.386 0 .818-.303.945-.664.081-.23.081-8.44 0-8.67-.07-.199-.295-.448-.499-.552-.175-.089-.547-.13-.706-.078m5 0c-.311.102-.589.358-.685.63-.045.127-.055.897-.055 4.335 0 3.438.01 4.208.055 4.335.127.361.559.664.945.664.386 0 .818-.303.945-.664.081-.23.081-8.44 0-8.67-.07-.199-.295-.448-.499-.552-.175-.089-.547-.13-.706-.078" fill="#667085" fill-rule="evenodd"/></svg>