<svg width="24" height="24" fill="none" xmlns="http://www.w3.org/2000/svg"><path d="M10.5 2.042c-.59.068-1.247.318-1.785.68-.512.344-1.034.955-1.313 1.538-.227.473-.291.729-.312 1.245l-.019.485-1.226.022c-1.274.022-1.595.052-2.065.192-1.128.337-2.12 1.277-2.514 2.384-.253.71-.246.554-.246 5.412 0 4.095.005 4.446.072 4.773.108.531.284.971.553 1.389.595.92 1.488 1.523 2.582 1.746.332.068.791.072 7.773.072 6.982 0 7.441-.004 7.773-.072a3.927 3.927 0 0 0 1.389-.553 3.926 3.926 0 0 0 1.749-2.609c.063-.333.069-.76.069-4.766 0-4.076-.005-4.426-.072-4.753-.251-1.234-.999-2.227-2.1-2.786-.66-.335-1.081-.403-2.658-.43l-1.23-.021v-.388c0-.619-.181-1.173-.59-1.802-.399-.615-.956-1.09-1.665-1.42a3.424 3.424 0 0 0-1.205-.339c-.415-.047-2.545-.046-2.96.001m2.749 1.996c.477.05.805.209 1.155.558.339.34.498.663.537 1.094l.028.31H9.031l.028-.31c.075-.826.805-1.561 1.636-1.649.415-.044 2.147-.046 2.554-.003M7 14v6l-.75-.001c-.887 0-1.625-.055-1.93-.142-.543-.156-1.039-.662-1.181-1.206C3.031 18.234 3 17.216 3 14c0-3.22.031-4.234.14-4.652.103-.397.416-.8.811-1.044.346-.214.912-.287 2.319-.298L7 8v6m8-3.739v2.262l-1.39-.004c-.788-.001-1.446.014-1.519.036a1.624 1.624 0 0 0-.967.845l-.104.22v3.76l.104.22c.162.341.397.576.746.749l.306.151 1.412.013 1.412.012V20H9V8h6v2.261m3.84-2.22c.318.022.683.066.809.098.553.142 1.067.655 1.211 1.209.109.418.14 1.432.14 4.652 0 3.216-.031 4.234-.139 4.651-.142.544-.638 1.05-1.181 1.206-.305.087-1.043.142-1.93.142L17 20v-1.472l.65-.017c.561-.014.683-.029.89-.11.331-.129.729-.526.864-.861l.096-.24v-1.8c0-1.756-.002-1.805-.087-2.012-.17-.414-.5-.743-.901-.895-.183-.069-.301-.08-.862-.076l-.65.004V8l.63.001c.347 0 .891.018 1.21.04m-1.36 7.479v1H13v-2h4.48v1" fill="#667085" fill-rule="evenodd"/></svg>