<svg width="24" height="24" fill="none" xmlns="http://www.w3.org/2000/svg"><path d="M14.122 1.583a1.006 1.006 0 0 0-.513.469l-.109.208V3.5c0 1.226.001 1.242.095 1.42.13.248.232.351.465.471.48.246 1.047.059 1.321-.436l.119-.215.013-1.129c.015-1.25-.007-1.412-.228-1.718-.235-.324-.79-.472-1.163-.31m-4 3c-.532.231-.773.847-.524 1.337.139.274 1.406 1.536 1.674 1.667.824.404 1.704-.447 1.332-1.288-.119-.268-1.373-1.536-1.662-1.68-.232-.116-.599-.132-.82-.036m7.936.036c-.289.144-1.543 1.412-1.662 1.68a.976.976 0 0 0 .466 1.284c.281.137.56.144.839.021.28-.124 1.539-1.375 1.686-1.676A.971.971 0 0 0 18.5 4.52a.881.881 0 0 0-.442.099M7.122 8.583c-.547.237-.774.847-.509 1.365.106.207.244.337.507.477.125.067.257.076 1.2.088.583.007 1.153.002 1.266-.012.611-.076 1.04-.691.873-1.251a.983.983 0 0 0-.503-.625l-.212-.105-1.242.002c-1.013.001-1.267.012-1.38.061m12 0c-.543.236-.774.848-.513 1.357.12.233.223.335.471.465.174.092.216.095 1.24.108.583.007 1.153.002 1.266-.012.611-.076 1.04-.691.873-1.251a.983.983 0 0 0-.503-.625l-.212-.105-1.242.002c-1.013.001-1.267.012-1.38.061m-2.275 2.841a.969.969 0 0 0-.434 1.304c.13.267 1.394 1.536 1.664 1.672.258.13.573.124.86-.017a.975.975 0 0 0 .467-1.284c-.119-.268-1.373-1.536-1.662-1.68a1.01 1.01 0 0 0-.895.005m-5.767.179c-.258.115-9.316 9.162-9.47 9.457-.332.639.147 1.424.873 1.431.465.004.232.217 5.245-4.8 4.973-4.975 4.764-4.747 4.763-5.19a.97.97 0 0 0-.989-.98c-.155 0-.307.03-.422.082m3.042 1.98a1.006 1.006 0 0 0-.513.469l-.109.208v1.24c0 1.226.001 1.242.095 1.42.13.248.232.351.465.471.48.246 1.047.059 1.321-.436l.119-.215.013-1.129c.015-1.25-.007-1.412-.228-1.718-.235-.324-.79-.472-1.163-.31" fill="#667085" fill-rule="evenodd"/></svg>