<svg width="24" height="24" fill="none" xmlns="http://www.w3.org/2000/svg"><path d="M14.573 1.236c-.191.049-.477.23-.571.362-.18.252-.202.4-.202 1.36 0 1.026.028 1.175.265 1.419.513.528 1.33.39 1.641-.277.089-.191.093-.24.094-1.125 0-.998-.021-1.13-.218-1.389-.202-.265-.684-.432-1.009-.35M9.5 3.237c-.304.074-.607.345-.703.628-.079.235-.065.527.037.754.113.251 1.252 1.404 1.526 1.544.243.123.632.127.863.007.214-.111.429-.353.517-.584a1.017 1.017 0 0 0-.053-.771c-.044-.085-.383-.455-.754-.821-.61-.602-.694-.671-.891-.73-.23-.068-.348-.074-.542-.027m10.073-.001c-.249.063-.481.246-1.058.831-.665.674-.768.834-.769 1.195a.992.992 0 0 0 1.436.896c.098-.047.428-.346.824-.748.555-.562.672-.702.728-.867a.99.99 0 0 0-.152-.957c-.202-.265-.684-.432-1.009-.35M12.88 7.161a2.748 2.748 0 0 0-.48.183c-.292.141-.44.285-5.511 5.351C4.022 15.558 1.615 17.99 1.54 18.1c-.389.563-.439 1.324-.131 1.98.106.226.254.393 1.126 1.272.553.557 1.087 1.065 1.188 1.13.397.255.974.369 1.417.279.132-.026.375-.111.54-.189.296-.138.378-.218 5.563-5.406 5.738-5.741 5.435-5.414 5.58-6.03a1.993 1.993 0 0 0-.261-1.492c-.158-.243-1.97-2.055-2.208-2.208-.391-.251-1.023-.369-1.474-.275m7.087 1.114a.99.99 0 0 0-.369 1.637c.263.263.282.267 1.379.281 1.143.014 1.236-.004 1.524-.292.475-.475.363-1.235-.231-1.565l-.21-.116-.94-.01c-.834-.009-.964-.002-1.153.065m-6.09 1.429c.309.299.655.651.768.782l.206.237-1.035 1.039-1.034 1.039-.791-.79-.791-.79 1.03-1.031c.566-.566 1.042-1.03 1.057-1.03.015 0 .281.245.59.544m4.53 2.572a.985.985 0 0 0-.573 1.343c.066.147.254.363.718.826.636.634.813.763 1.117.813.402.068.873-.214 1.051-.627a.99.99 0 0 0-.032-.814c-.044-.086-.384-.457-.755-.823-.61-.602-.694-.671-.891-.73-.274-.081-.371-.079-.635.012M10.6 13.42l.78.78-3.24 3.243c-1.782 1.783-3.27 3.258-3.306 3.279-.052.029-.175-.069-.6-.478a17.343 17.343 0 0 1-.771-.782l-.236-.269 3.276-3.276A369.504 369.504 0 0 1 9.8 12.64c.012 0 .371.351.8.78" fill="#667085" fill-rule="evenodd"/></svg>