<svg width="24" height="24" fill="none" xmlns="http://www.w3.org/2000/svg"><path d="M4.9 3.025c-.989.083-1.531.257-2.2.708-.532.358-1.129 1.09-1.367 1.676-.321.791-.341 1.223-.323 7.171.014 4.811.016 4.928.097 5.28.119.516.285.915.552 1.323.588.903 1.484 1.504 2.568 1.725.332.068.791.072 7.773.072 6.982 0 7.441-.004 7.773-.072 1.084-.221 1.98-.822 2.568-1.725.266-.408.433-.807.552-1.323.082-.354.084-.452.096-5.62.013-5.86.014-5.852-.244-6.608-.373-1.09-1.347-2.047-2.455-2.41-.618-.202-.343-.195-8.05-.203a1071.16 1071.16 0 0 0-7.34.006M18.801 5.04c.341.022.724.067.851.1.398.103.8.416 1.045.812.091.147.105.209.095.427l-.012.256-4.06 2.843c-2.233 1.563-4.166 2.897-4.296 2.962a.935.935 0 0 1-.424.12.935.935 0 0 1-.424-.12c-.13-.065-2.063-1.399-4.296-2.962L3.22 6.635l-.012-.257c-.011-.234 0-.274.125-.467.258-.397.621-.67 1.031-.775.133-.034.461-.076.729-.093.736-.047 12.976-.05 13.708-.003M6.736 11.538c2 1.401 3.756 2.608 3.902 2.681.493.248.802.321 1.362.321.557-.001.772-.049 1.282-.285.197-.092 1.579-1.035 4-2.731l3.698-2.591.012 3.543c.012 3.604-.017 4.738-.131 5.174-.142.545-.637 1.051-1.181 1.207-.45.128-1.166.142-7.68.142-6.514 0-7.23-.014-7.68-.142-.544-.156-1.042-.665-1.181-1.208-.111-.435-.138-1.401-.138-5.064C3 9.65 3.01 8.918 3.05 8.951c.028.022 1.686 1.186 3.686 2.587" fill="#667085" fill-rule="evenodd"/></svg>