<svg width="24" height="24" fill="none" xmlns="http://www.w3.org/2000/svg"><path d="M11.46 1.496a2.995 2.995 0 0 0-.998.385c-.152.09-2.167 1.39-4.477 2.891-2.954 1.919-4.264 2.792-4.416 2.943-.24.237-.458.644-.529.984-.03.144-.039 1.745-.029 5.264.013 4.529.022 5.091.081 5.384.16.78.533 1.482 1.077 2.026.683.683 1.468 1.041 2.505 1.145.569.058 14.083.058 14.652 0 .228-.022.58-.085.784-.139 1.326-.349 2.445-1.5 2.747-2.825.132-.577.143-1.03.143-5.864 0-5.328.013-5.049-.251-5.546a2.263 2.263 0 0 0-.331-.443c-.236-.234-8.551-5.654-9.098-5.93a3.68 3.68 0 0 0-.58-.233c-.344-.087-.945-.107-1.28-.042m1.091 2.134c.534.308 7.572 4.902 7.56 4.935-.012.037-7.053 4.622-7.55 4.917-.273.162-.323.178-.562.178-.248 0-.283-.013-.641-.227-.581-.349-7.456-4.829-7.469-4.867-.009-.027 6.248-4.124 7.402-4.846.535-.336.802-.355 1.26-.09M6.72 12.823c1.991 1.295 3.768 2.429 3.949 2.521.464.235.814.316 1.351.313.517-.003.818-.073 1.28-.298.176-.086 1.976-1.233 4-2.55l3.68-2.394.012 3.583c.012 3.651-.016 4.775-.132 5.216-.111.424-.505.894-.924 1.104a2.552 2.552 0 0 1-.507.155c-.299.061-.977.067-7.429.067-7.758 0-7.475.008-7.945-.227-.414-.205-.804-.675-.915-1.098-.112-.431-.14-1.454-.14-5.15 0-2.934.01-3.667.05-3.635.028.022 1.679 1.099 3.67 2.393" fill="#667085" fill-rule="evenodd"/></svg>