<svg width="24" height="24" fill="none" xmlns="http://www.w3.org/2000/svg"><path d="M4.9 3.025c-.989.083-1.531.257-2.2.708-.532.358-1.106 1.061-1.359 1.663-.329.785-.349 1.209-.331 7.184.014 4.811.016 4.928.097 5.28.119.516.285.915.552 1.323.588.903 1.484 1.504 2.568 1.725.332.068.791.072 7.773.072 6.982 0 7.441-.004 7.773-.072 1.094-.223 1.987-.826 2.582-1.746.269-.418.445-.858.553-1.389.067-.329.072-.714.072-5.733 0-5.091-.004-5.402-.075-5.78-.106-.564-.27-.987-.55-1.422A3.907 3.907 0 0 0 19.75 3.09c-.293-.056-1.134-.064-7.51-.071a1071.16 1071.16 0 0 0-7.34.006M18.801 5.04c.341.022.724.067.851.1.397.103.8.416 1.043.809.083.134.105.22.105.41V6.6l-2.465 1.643c-1.356.904-2.537 1.67-2.625 1.701-.238.084-7.182.084-7.42 0-.088-.031-1.269-.797-2.625-1.701L3.2 6.6v-.242c0-.207.019-.272.135-.45.256-.394.62-.667 1.029-.772.133-.034.461-.076.729-.093.736-.047 12.976-.05 13.708-.003M5.188 10.325c1.953 1.3 2.114 1.399 2.48 1.523l.392.132h7.88l.392-.132c.366-.124.527-.223 2.52-1.55l2.128-1.417.012 3.57c.012 3.629-.017 4.762-.131 5.199-.142.545-.637 1.051-1.181 1.207-.45.128-1.166.142-7.68.142-6.514 0-7.23-.014-7.68-.142-.544-.156-1.042-.665-1.181-1.208-.111-.436-.138-1.402-.138-5.081C3 9.624 3.01 8.881 3.05 8.906c.028.016.99.655 2.138 1.419" fill="#667085" fill-rule="evenodd"/></svg>