<svg width="24" height="24" fill="none" xmlns="http://www.w3.org/2000/svg"><path d="M4.9 3.025c-.989.083-1.531.257-2.2.708-.532.358-1.129 1.09-1.367 1.676-.321.791-.341 1.223-.323 7.171.014 4.811.016 4.928.097 5.28.119.516.285.915.552 1.323.588.903 1.484 1.504 2.568 1.725.332.068.791.072 7.773.072 6.982 0 7.441-.004 7.773-.072 1.084-.221 1.98-.822 2.568-1.725.266-.408.433-.807.552-1.323.082-.354.084-.452.096-5.62.013-5.86.014-5.852-.244-6.608-.373-1.09-1.347-2.047-2.455-2.41-.618-.202-.343-.195-8.05-.203a1071.16 1071.16 0 0 0-7.34.006M18.801 5.04c.341.022.724.067.851.1.398.103.8.416 1.045.812.091.147.105.209.095.427l-.012.256-4.06 2.843c-2.233 1.563-4.166 2.897-4.296 2.962a.935.935 0 0 1-.424.12.935.935 0 0 1-.424-.12c-.13-.065-2.063-1.399-4.296-2.962L3.22 6.635l-.012-.257c-.011-.234 0-.274.125-.467.258-.397.621-.67 1.031-.775.133-.034.461-.076.729-.093.736-.047 12.976-.05 13.708-.003M5.393 10.599l2.133 1.494-.133.131c-.073.073-1.069.977-2.213 2.01L3.1 16.112l-.037-.126c-.021-.071-.043-1.64-.052-3.602l-.014-3.476.131.098c.073.054 1.092.771 2.265 1.593m15.595 2.241c-.008 1.666-.031 3.077-.051 3.147l-.037.126-2.214-2.001c-1.217-1.1-2.198-2.016-2.18-2.034.019-.019 1.033-.734 2.254-1.59l2.22-1.556.012.444c.006.244.005 1.803-.004 3.464m-11.148.872c.962.67 1.374.828 2.16.828.794 0 1.194-.156 2.197-.854l.577-.402.173.148c.41.35 5.408 4.87 5.41 4.893.002.013-.092.122-.207.242-.255.265-.46.333-1.172.392-.642.053-13.314.053-13.956 0-.712-.059-.917-.127-1.172-.392-.116-.12-.209-.229-.207-.242.007-.064 5.575-5.039 5.613-5.016.024.015.287.196.584.403" fill="#667085" fill-rule="evenodd"/></svg>