<svg width="24" height="24" fill="none" xmlns="http://www.w3.org/2000/svg"><path d="M11.46 1.496c-.388.076-.663.188-1.082.438-.197.117-2.203 1.413-4.458 2.878C3.102 6.643 1.747 7.546 1.588 7.7a2.073 2.073 0 0 0-.548.999c-.03.144-.039 1.745-.029 5.264.013 4.529.022 5.091.081 5.384.16.78.533 1.482 1.077 2.026.683.683 1.468 1.041 2.505 1.145.569.058 14.083.058 14.652 0 .228-.022.58-.085.784-.139 1.326-.349 2.445-1.5 2.747-2.825.132-.577.143-1.03.143-5.864 0-5.328.013-5.048-.251-5.546a2.205 2.205 0 0 0-.349-.456c-.258-.248-8.592-5.679-9.1-5.929a3.616 3.616 0 0 0-.56-.22 3.61 3.61 0 0 0-1.28-.043m1.091 2.134c.148.085 1.912 1.222 3.92 2.527l3.651 2.372-.227.177c-.242.187-6.718 4.407-7.293 4.751-.315.189-.357.203-.601.203-.239 0-.29-.016-.562-.177-.503-.298-7.111-4.602-7.325-4.772l-.202-.159.283-.206c.265-.193 6.281-4.115 7.062-4.604.197-.123.413-.241.48-.261.232-.072.524-.019.814.149M5.774 12.2c1.069.693 1.939 1.272 1.935 1.287-.005.015-1.044.962-2.309 2.105l-2.3 2.077-.037-.124c-.021-.071-.043-1.65-.052-3.635l-.014-3.51.417.27 2.36 1.53m15.175 5.165-.049.304-2.3-2.077a177.86 177.86 0 0 1-2.309-2.105c-.004-.015 1.049-.713 2.34-1.551l2.349-1.524.009 3.324c.007 2.487-.003 3.401-.04 3.629M10.078 15c.82.523 1.208.655 1.922.655.728 0 1.104-.132 1.98-.692.281-.179.522-.33.537-.335.015-.004 1.322 1.16 2.905 2.588l2.913 2.627c.052.046-.282.422-.444.498a2.647 2.647 0 0 1-.466.133c-.294.059-.997.066-7.425.066s-7.131-.007-7.425-.066c-.432-.087-.574-.16-.775-.399l-.169-.2.155-.134c.085-.074 1.396-1.259 2.914-2.633 2.525-2.285 2.767-2.494 2.84-2.449l.538.341" fill="#667085" fill-rule="evenodd"/></svg>