<svg width="24" height="24" fill="none" xmlns="http://www.w3.org/2000/svg"><path d="M5.9 2.025c-.991.083-1.531.257-2.2.708-.578.389-1.181 1.16-1.417 1.811-.279.77-.263.33-.263 7.456 0 6.02.004 6.442.072 6.773.223 1.094.826 1.987 1.746 2.582.418.269.858.445 1.389.553.331.068.753.072 6.773.072s6.442-.004 6.773-.072c1.094-.223 1.987-.826 2.582-1.746.269-.418.445-.858.553-1.389.068-.331.072-.753.072-6.773s-.004-6.442-.072-6.773c-.289-1.42-1.291-2.57-2.618-3.005-.611-.2-.432-.195-7.05-.203a802.572 802.572 0 0 0-6.34.006M17.801 4.04c.341.022.723.066.85.099.553.144 1.065.656 1.209 1.209.118.452.14 1.48.14 6.652 0 5.172-.022 6.2-.14 6.652-.077.295-.27.598-.534.835-.41.369-.714.439-1.922.448l-.777.005L13.096 12a1814.142 1814.142 0 0 1-3.534-7.97c-.003-.045 7.521-.036 8.239.01M9.042 7.812c1.646 3.696 1.669 3.752 1.584 3.805-.149.094-6.588 3.663-6.608 3.663-.037 0-.017-8.478.022-9.081.022-.341.067-.724.1-.851.136-.524.646-1.055 1.141-1.188.221-.06 1.008-.111 1.615-.105l.476.005 1.67 3.752m3.927 8.838c.784 1.766 1.438 3.242 1.453 3.28.025.066-.179.07-3.948.069-3.979 0-4.73-.021-5.154-.142-.39-.112-.777-.42-1.019-.811-.095-.154-.112-.237-.147-.707a7.463 7.463 0 0 1-.027-.679l.013-.146 3.66-2.035c2.013-1.119 3.679-2.036 3.701-2.037.023-.001.683 1.443 1.468 3.208" fill="#667085" fill-rule="evenodd"/></svg>