<svg width="24" height="24" fill="none" xmlns="http://www.w3.org/2000/svg"><path d="M8.74 1.075c-.336.09-7.304 4.063-7.488 4.269C.981 5.649 1 4.999 1 14c0 9.144-.026 8.376.299 8.701a.978.978 0 0 0 1.008.243c.087-.03 1.628-.895 3.425-1.922L9 19.154l3.25 1.854c2.497 1.425 3.308 1.87 3.502 1.92.482.124.419.159 3.893-2.158 1.848-1.232 3.099-2.091 3.151-2.164.216-.304.204.205.204-8.604 0-9.146.026-8.378-.299-8.703a.982.982 0 0 0-1.011-.243c-.088.031-1.404.886-2.925 1.9C17.245 3.97 15.982 4.8 15.961 4.8c-.022 0-1.493-.828-3.268-1.841C9.837 1.331 9.187.985 9.023 1.005a5.06 5.06 0 0 0-.283.07M8 10.57l-.001 6.85L5.5 18.847 3 20.274v-6.847l.001-6.847L5.49 5.154c1.37-.785 2.495-1.428 2.5-1.43.005-.002.01 3.079.01 6.846m7 2.857v6.847l-2.5-1.427-2.499-1.427L10 10.573V3.726l2.5 1.427 2.499 1.427.001 6.847m6-2.754v6.794l-1.89 1.259-2 1.332-.11.071V6.533l1.99-1.326c1.095-.73 1.994-1.327 2-1.327.006 0 .01 3.057.01 6.793" fill="#667085" fill-rule="evenodd"/></svg>