<svg width="24" height="24" fill="none" xmlns="http://www.w3.org/2000/svg"><path d="M11.242 1.043a7.058 7.058 0 0 0-5.506 3.845c-.798 1.585-.949 3.43-.415 5.079.244.754.792 1.729 1.399 2.491.421.528.842.981 2.14 2.301 1.466 1.492 1.813 1.908 2.276 2.73a.991.991 0 0 0 1.728 0c.463-.822.81-1.238 2.276-2.73 1.715-1.744 2.119-2.205 2.671-3.039.749-1.133 1.127-2.259 1.175-3.5.134-3.473-2.365-6.517-5.846-7.121-.447-.077-1.448-.107-1.898-.056M12.98 3.1a5.075 5.075 0 0 1 1.792.737c.34.222.932.771 1.183 1.097 1.122 1.457 1.352 3.437.584 5.006-.381.776-.887 1.423-2.079 2.66-1.238 1.283-1.993 2.118-2.37 2.62l-.09.12-.09-.119c-.381-.504-1.172-1.38-2.35-2.601-1.217-1.262-1.717-1.899-2.095-2.673-.722-1.476-.582-3.258.372-4.719.234-.359.792-.953 1.139-1.214a5.162 5.162 0 0 1 2.369-.971c.38-.053 1.25-.023 1.635.057m-1.378 2.944c-.337.066-.755.299-1.017.568-.783.801-.777 1.996.015 2.788.798.798 2.002.798 2.8 0 .792-.792.798-1.987.015-2.788a2 2 0 0 0-1.813-.568m-6.954 7.313c-.637.236-1.709.893-2.221 1.361-.706.645-1.044 1.139-1.29 1.882-.102.308-.112.394-.112.9s.01.592.112.9c.226.684.525 1.137 1.143 1.734 1.833 1.772 5.543 2.865 9.72 2.865 3.553 0 6.773-.786 8.857-2.163.557-.367 1.229-1.013 1.541-1.48.387-.577.601-1.239.601-1.856 0-.894-.417-1.79-1.187-2.551-.583-.576-1.208-1.001-2.123-1.442-.384-.185-.456-.206-.689-.204-.599.003-1.049.493-.989 1.077.046.442.221.635.866.958 1.02.512 1.704 1.071 1.969 1.609.117.237.134.309.132.572-.003.35-.092.559-.396.932-.175.214-.646.607-1.006.837-.727.466-2.035.962-3.293 1.251-2.146.492-4.749.594-7.043.277-2.026-.28-3.828-.876-4.999-1.651-.445-.295-.903-.755-1.08-1.086a1.182 1.182 0 0 1 0-1.158c.287-.535.97-1.086 1.962-1.583.645-.323.82-.516.866-.958.074-.722-.654-1.278-1.341-1.023" fill="#667085" fill-rule="evenodd"/></svg>