<svg width="24" height="24" fill="none" xmlns="http://www.w3.org/2000/svg"><path d="M11.643 1.069a1.066 1.066 0 0 0-.577.591c-.051.15-.066.346-.066.865v.671l-.15.026c-1.159.194-1.856.404-2.71.818-2.647 1.282-4.413 3.686-4.9 6.67l-.047.29h-.669c-.792 0-.97.043-1.225.299a.984.984 0 0 0 0 1.402c.255.256.433.299 1.225.299h.669l.047.29c.318 1.944 1.172 3.646 2.498 4.972 1.322 1.321 3.05 2.19 4.972 2.499l.29.046v.669c0 .792.043.97.299 1.225a.984.984 0 0 0 1.402 0c.256-.255.299-.433.299-1.225v-.669l.29-.046c3.925-.632 6.839-3.546 7.471-7.471l.046-.29h.669c.792 0 .97-.043 1.225-.299a.984.984 0 0 0 0-1.402c-.255-.256-.433-.299-1.225-.299h-.669l-.046-.29c-.474-2.948-2.248-5.374-4.861-6.65-.884-.431-1.571-.641-2.75-.838L13 3.196v-.671c0-.793-.043-.97-.299-1.226a.998.998 0 0 0-1.058-.23m1.043 3.973c2.442.247 4.487 1.663 5.592 3.872.949 1.897.949 4.275 0 6.172-1.025 2.047-2.841 3.408-5.098 3.818-.56.102-1.8.102-2.36 0-2.257-.41-4.073-1.771-5.098-3.818-.949-1.897-.949-4.275 0-6.172.582-1.163 1.405-2.096 2.438-2.765a7.007 7.007 0 0 1 4.526-1.107M11.433 8.04c-.441.07-.737.166-1.173.379-1.148.561-1.921 1.561-2.181 2.822a4.19 4.19 0 0 0 .039 1.719c.116.47.458 1.148.781 1.548A4.075 4.075 0 0 0 12 16c2.244 0 4.093-1.929 3.988-4.16a3.67 3.67 0 0 0-.406-1.58 3.885 3.885 0 0 0-1.842-1.842 4.627 4.627 0 0 0-.78-.298c-.389-.094-1.178-.135-1.527-.08m.95 2.003c.802.147 1.456.829 1.584 1.652.158 1.019-.5 2.01-1.491 2.243a1.993 1.993 0 0 1-2.443-2.248c.067-.434.24-.77.564-1.091.306-.302.583-.462.933-.538.313-.068.549-.073.853-.018" fill="#667085" fill-rule="evenodd"/></svg>