<svg width="24" height="24" fill="none" xmlns="http://www.w3.org/2000/svg"><path d="M11.473 1.04c-.43.069-.734.165-1.133.359a4.113 4.113 0 0 0-2.05 2.25c-.217.578-.266.857-.267 1.531-.002.809.113 1.287.474 1.966.484.91 1.342 1.64 2.292 1.951l.209.069.011 3.927.011 3.927.09.168c.405.758 1.376.755 1.783-.005l.087-.163.011-3.927.011-3.927.209-.069c.963-.315 1.843-1.076 2.316-2 .341-.665.452-1.131.452-1.897.001-.657-.057-.985-.272-1.559a4.336 4.336 0 0 0-1.384-1.849 4.57 4.57 0 0 0-1.403-.672c-.389-.093-1.111-.133-1.447-.08m1.123 2.156c.656.204 1.197.815 1.346 1.519.282 1.328-.655 2.564-1.942 2.564-.936 0-1.74-.672-1.94-1.619a2.08 2.08 0 0 1-.002-.945c.147-.697.687-1.311 1.332-1.517.318-.102.884-.103 1.206-.002M7.7 11.908c-1.638.379-2.93.85-3.92 1.43-1.421.832-2.296 1.812-2.644 2.964-.094.311-.109.431-.112.918-.004.629.06.935.316 1.488C2.518 21.259 6.843 23 12 23c5.156 0 9.482-1.742 10.66-4.292.253-.547.319-.858.316-1.488-.003-.49-.017-.605-.112-.918-.579-1.911-2.699-3.425-5.944-4.245-.745-.188-1.046-.214-1.283-.108-.369.164-.583.46-.624.861a1.02 1.02 0 0 0 .185.712c.185.276.333.351 1.031.519 2.342.565 4.083 1.544 4.597 2.584.138.278.154.343.154.613 0 .244-.021.346-.109.533-.503 1.076-2.162 2.046-4.491 2.625-3.715.923-8.348.561-11.22-.875-1.047-.524-1.736-1.117-2.031-1.75-.088-.187-.109-.289-.109-.533 0-.271.016-.335.157-.619.511-1.035 2.255-2.014 4.594-2.578.698-.168.846-.243 1.031-.519.383-.572.168-1.321-.453-1.581-.138-.057-.47-.075-.649-.033" fill="#667085" fill-rule="evenodd"/></svg>