<svg width="24" height="24" fill="none" xmlns="http://www.w3.org/2000/svg"><path d="M11.709 1.055a1.061 1.061 0 0 0-.67.71c-.026.095-.036 2.839-.029 7.701l.01 7.554.09.168c.405.758 1.376.755 1.783-.005.087-.163.087-.171.107-3.412l.02-3.249 2.42-1.365a238.301 238.301 0 0 1 2.653-1.484c.443-.223.702-.545.849-1.051.184-.638-.104-1.418-.649-1.759-.128-.081-1.466-.939-2.973-1.908-1.507-.97-2.81-1.798-2.895-1.842-.203-.104-.523-.13-.716-.058m4.737 5.122c-.001.017-.777.468-1.724 1.003L13 8.152V3.924l1.724 1.112c.948.611 1.723 1.125 1.722 1.141M7.7 11.908c-1.617.374-2.869.827-3.86 1.397-1.462.841-2.35 1.826-2.704 2.997-.094.311-.109.431-.112.918-.004.629.06.935.316 1.488C2.518 21.259 6.843 23 12 23s9.482-1.741 10.66-4.292c.253-.547.319-.858.316-1.488-.003-.49-.017-.605-.112-.918-.507-1.674-2.17-3.031-4.784-3.905-.74-.247-1.665-.481-2.003-.507-.419-.032-.769.162-.951.526-.182.364-.156.767.072 1.106.185.276.333.351 1.031.519 2.342.565 4.083 1.544 4.597 2.584.138.278.154.343.154.613 0 .244-.021.346-.109.533-.503 1.076-2.162 2.046-4.491 2.625-3.715.923-8.348.561-11.22-.875-1.047-.524-1.736-1.117-2.031-1.75-.088-.187-.109-.289-.109-.533 0-.271.016-.335.157-.619.511-1.035 2.255-2.014 4.594-2.578.698-.168.846-.243 1.031-.519.383-.572.168-1.321-.453-1.581-.138-.057-.47-.075-.649-.033" fill="#667085" fill-rule="evenodd"/></svg>