<svg width="24" height="24" fill="none" xmlns="http://www.w3.org/2000/svg"><path d="M11.38 1.041c-3.484.251-6.468 2.455-7.757 5.73-.611 1.554-.765 3.478-.403 5.058.355 1.551 1.113 3.078 2.34 4.711.968 1.289 1.98 2.401 4.18 4.597 1.818 1.814 1.845 1.836 2.26 1.836.415 0 .442-.022 2.26-1.836 2.199-2.195 3.211-3.308 4.18-4.597 1.42-1.89 2.203-3.61 2.464-5.411.091-.625.082-1.768-.019-2.429a9.03 9.03 0 0 0-2.036-4.5C17.043 2.044 14.193.839 11.38 1.041m1.999 2.078c2.146.465 3.898 1.793 4.857 3.682.296.585.506 1.178.65 1.841.08.366.091.531.091 1.318 0 .786-.011.953-.09 1.315-.252 1.158-.708 2.162-1.543 3.405-.863 1.284-2.034 2.604-4.4 4.96l-.944.939-.944-.939c-1.126-1.122-2.284-2.33-2.839-2.961-1.74-1.978-2.74-3.72-3.103-5.399-.08-.367-.091-.534-.091-1.32 0-.787.011-.952.091-1.318a7.536 7.536 0 0 1 .65-1.841c1.014-1.999 2.92-3.372 5.193-3.742.53-.087 1.903-.052 2.422.06m-1.946 2.924a4.22 4.22 0 0 0-1.941.856 4.272 4.272 0 0 0-1.38 2.161c-.128.513-.128 1.367 0 1.88.2.801.739 1.645 1.38 2.161.401.323 1.078.665 1.548.781 2.23.55 4.462-.908 4.897-3.197.314-1.657-.57-3.437-2.097-4.222a4.013 4.013 0 0 0-2.407-.42m.95 2c.578.106 1.157.55 1.41 1.082a2.001 2.001 0 0 1-.354 2.25c-.778.831-2.1.831-2.878 0-.754-.806-.739-2.004.035-2.779.489-.488 1.102-.678 1.787-.553" fill="#667085" fill-rule="evenodd"/></svg>