<svg width="24" height="24" fill="none" xmlns="http://www.w3.org/2000/svg"><path d="M11.38 1.041c-3.488.251-6.467 2.454-7.759 5.737A8.71 8.71 0 0 0 3.031 10c-.002 2.28.865 4.251 2.865 6.518.222.252 1.151 1.215 2.064 2.141 2.001 2.028 2.532 2.652 3.042 3.569.306.551.567.746.998.746.431 0 .692-.195.998-.746.514-.924 1.015-1.513 3.042-3.569 2.186-2.217 2.698-2.801 3.424-3.9 1.028-1.555 1.507-3.068 1.505-4.759-.001-2.155-.725-4.135-2.12-5.8-1.806-2.156-4.656-3.361-7.469-3.159m1.999 2.078c2.146.465 3.898 1.793 4.857 3.682a7.51 7.51 0 0 1 .65 1.841c.123.567.135 1.984.022 2.518-.25 1.17-.796 2.245-1.728 3.4-.459.568-.798.937-2.08 2.26-1.5 1.548-2.373 2.534-2.884 3.259a1.996 1.996 0 0 1-.216.277c-.011 0-.117-.136-.236-.303-.534-.748-1.342-1.66-2.903-3.273-1.32-1.365-1.601-1.67-2.043-2.22-1.027-1.277-1.57-2.404-1.764-3.66-.087-.563-.053-1.727.065-2.279C5.576 6.497 6.9 4.738 8.76 3.784a7.152 7.152 0 0 1 2.197-.725c.53-.087 1.903-.052 2.422.06m-2.092 2.443c-1.266.226-2.471 1.193-2.965 2.379-.246.591-.296.853-.296 1.559 0 .527.015.694.085.947.392 1.427 1.423 2.496 2.79 2.892 1.132.328 2.3.143 3.335-.528.346-.225.954-.865 1.18-1.244a3.984 3.984 0 0 0-1.747-5.687c-.56-.263-.846-.326-1.549-.342-.341-.007-.716.003-.833.024M12.612 7.6c.308.096.69.34.892.573.204.234.405.675.463 1.016a2.1 2.1 0 0 1-.471 1.647c-.623.717-1.777.863-2.6.331-.632-.408-.984-1.208-.867-1.966.052-.333.257-.788.464-1.024.493-.566 1.375-.806 2.119-.577" fill="#667085" fill-rule="evenodd"/></svg>