<svg width="24" height="24" fill="none" xmlns="http://www.w3.org/2000/svg"><path d="M11.14 1.042c-2.162.222-4.086 1.16-5.612 2.735C4.211 5.136 3.392 6.792 3.091 8.7c-.098.618-.097 1.998.001 2.584.208 1.24.595 2.221 1.287 3.256.649.971 1.492 1.83 3.181 3.241 2.378 1.985 3.058 2.84 3.444 4.333.104.399.257.62.525.759.354.182.751.154 1.067-.075.216-.157.303-.318.441-.826.378-1.39 1.068-2.24 3.403-4.192 1.696-1.418 2.533-2.27 3.181-3.24.686-1.027 1.067-1.988 1.286-3.242.097-.558.098-1.985.002-2.598a8.976 8.976 0 0 0-2.677-5.162A8.913 8.913 0 0 0 13.3 1.099c-.494-.076-1.676-.107-2.16-.057m1.546 2a6.992 6.992 0 0 1 3.154 1.107c2.046 1.324 3.266 3.719 3.145 6.171-.048.967-.213 1.665-.563 2.38-.537 1.097-1.187 1.808-3.143 3.445-1.756 1.469-2.449 2.156-3.059 3.035-.107.154-.202.289-.211.3-.008.01-.032-.012-.054-.05a9.7 9.7 0 0 0-.331-.459c-.613-.819-1.294-1.482-2.901-2.825-1.957-1.636-2.607-2.349-3.145-3.446-.346-.708-.515-1.413-.564-2.36-.127-2.455 1.097-4.865 3.146-6.191a7.007 7.007 0 0 1 4.526-1.107m-.966 2.982a4.022 4.022 0 0 0-1.584.473C9.057 7.07 8.33 8.06 8.076 9.3c-.063.309-.063 1.091 0 1.4.259 1.268 1.035 2.299 2.144 2.851a3.672 3.672 0 0 0 1.78.422c.253 0 .568-.022.7-.049 1.667-.341 2.883-1.557 3.224-3.224a4.57 4.57 0 0 0 .049-.7 3.44 3.44 0 0 0-.181-1.2A4.038 4.038 0 0 0 12.8 6.102c-.285-.059-.859-.1-1.08-.078m1.009 2.093c.492.189.958.654 1.157 1.154.078.195.091.303.091.729s-.013.534-.091.729a2.188 2.188 0 0 1-1.157 1.158c-.196.078-.301.091-.729.091s-.533-.013-.729-.091c-.502-.201-.966-.668-1.153-1.158-.108-.284-.147-.855-.08-1.178.142-.684.722-1.298 1.406-1.49.316-.089.984-.059 1.285.056" fill="#667085" fill-rule="evenodd"/></svg>