<svg width="24" height="24" fill="none" xmlns="http://www.w3.org/2000/svg"><path d="M5.692 2.044c-1.347.12-2.46.799-3.115 1.901C2.112 4.726 2 5.342 2 7.119c0 1.113.019 1.241.222 1.507.055.073.186.182.289.243.161.095.233.111.489.111s.328-.016.489-.111c.103-.061.236-.173.294-.25.185-.242.213-.388.216-1.099.002-.894.067-1.89.14-2.17.143-.547.662-1.068 1.207-1.21.283-.074 1.276-.139 2.174-.141.711-.003.857-.031 1.099-.216.077-.058.189-.191.25-.294.095-.161.111-.233.111-.489s-.016-.328-.111-.489a.962.962 0 0 0-.574-.454c-.211-.064-1.937-.073-2.603-.013m9.975.018c-.404.13-.699.589-.658 1.021.038.395.344.776.702.875.082.023.437.042.789.042.865.001 1.87.066 2.15.139.555.145 1.069.659 1.21 1.21.078.304.139 1.216.139 2.096.001.762.033.932.223 1.181.055.073.186.182.289.243.161.095.233.111.489.111.257 0 .327-.016.492-.113.222-.13.409-.369.473-.603.03-.112.037-.578.024-1.464-.018-1.096-.033-1.357-.1-1.66a3.906 3.906 0 0 0-2.109-2.709c-.669-.334-1.064-.396-2.66-.415-1.058-.013-1.291-.006-1.453.046m-13 13.001a1.022 1.022 0 0 0-.606.614c-.062.188-.068.345-.049 1.497.015.933.038 1.376.084 1.613a3.934 3.934 0 0 0 1.476 2.384c.534.397.919.573 1.568.718.306.068.554.083 1.66.1.882.013 1.353.005 1.464-.025.233-.063.473-.25.603-.472.097-.165.113-.235.113-.492 0-.256-.016-.328-.111-.489a1.24 1.24 0 0 0-.248-.293C8.377 20.032 8.182 20 7.284 20c-.856-.001-1.6-.049-1.919-.126-.539-.129-1.081-.67-1.226-1.222-.073-.282-.138-1.284-.139-2.152-.001-.72-.028-.866-.212-1.107-.245-.321-.716-.46-1.121-.33m18 0c-.252.08-.513.339-.601.597-.051.151-.066.347-.066.877 0 .867-.064 1.861-.137 2.134-.105.393-.455.821-.872 1.065-.301.176-.681.225-1.951.249-1.339.025-1.477.05-1.738.311a.999.999 0 0 0 .092 1.493c.277.211.374.222 1.806.2 1.407-.021 1.695-.057 2.29-.283.973-.37 1.846-1.243 2.216-2.216.226-.595.262-.883.283-2.29.013-.902.006-1.352-.026-1.468-.143-.531-.75-.844-1.296-.669" fill="#667085" fill-rule="evenodd"/></svg>