<svg width="24" height="24" fill="none" xmlns="http://www.w3.org/2000/svg"><path d="M11.12 1.043c-.209.021-.598.074-.864.117-4.305.694-7.827 3.916-8.895 8.137-.714 2.823-.278 5.841 1.2 8.303 2.105 3.505 5.846 5.525 9.979 5.387 2.858-.096 5.397-1.198 7.423-3.224 1.374-1.375 2.286-2.918 2.82-4.773.684-2.378.515-5.009-.47-7.31-.563-1.314-1.292-2.382-2.352-3.441-1.719-1.72-3.771-2.755-6.181-3.119-.648-.098-2.046-.138-2.66-.077m1.823 1.999c3.084.3 5.829 2.24 7.198 5.088.268.557.581 1.499.695 2.09.123.641.163 1.082.163 1.78 0 1.055-.123 1.839-.444 2.818a8.722 8.722 0 0 1-2.092 3.456 8.673 8.673 0 0 1-2.467 1.803c-2.464 1.223-5.309 1.216-7.789-.019-1.144-.569-2.093-1.306-2.856-2.218A9.195 9.195 0 0 1 3.48 14.2c-.706-2.825-.016-5.787 1.871-8.04 1.16-1.386 2.896-2.456 4.692-2.894a8.982 8.982 0 0 1 2.9-.224m-2.874 3.015a.944.944 0 0 0-.599.502l-.11.215v2.537l-1.27.015-1.27.015-.24.119c-.29.145-.475.372-.536.66-.06.277-.06 3.483 0 3.76.061.288.246.515.536.66l.24.119 1.27.015 1.27.015v2.537l.11.217a.962.962 0 0 0 .65.513c.278.06 3.682.06 3.96 0a.962.962 0 0 0 .65-.513l.11-.217v-2.537l1.27-.015 1.27-.015.24-.119c.29-.145.475-.372.536-.66.06-.277.06-3.483 0-3.76-.061-.288-.246-.515-.536-.66l-.24-.119-1.27-.015-1.27-.015V6.774l-.11-.217a.962.962 0 0 0-.65-.513c-.306-.066-3.761-.055-4.011.013m2.613 3.193c.002 1.344.012 1.423.215 1.689.058.077.191.189.294.25l.189.111 1.31.012 1.31.012v1.352l-1.31.012-1.31.012-.189.111a1.206 1.206 0 0 0-.294.25c-.203.266-.213.345-.215 1.689L12.68 16h-1.156l-.012-1.31c-.011-1.254-.016-1.317-.098-1.47a1.095 1.095 0 0 0-.454-.445c-.127-.068-.262-.076-1.45-.087l-1.31-.012v-1.352l1.31-.012c1.254-.011 1.317-.016 1.47-.098.187-.101.341-.258.445-.454.068-.127.076-.262.087-1.45L11.524 8h1.156l.002 1.25" fill="#667085" fill-rule="evenodd"/></svg>