<svg width="24" height="24" fill="none" xmlns="http://www.w3.org/2000/svg"><path d="M9.558 2.055c-.52.111-1.109.566-1.33 1.025-.223.464-.228.524-.229 2.718 0 1.112-.011 2.063-.024 2.112L7.951 8H5.903c-1.294 0-2.136.016-2.286.043-.545.1-1.157.556-1.389 1.037C2.003 9.548 2 9.585 2 12c0 1.865.01 2.262.061 2.462.194.755.794 1.34 1.531 1.494.139.029.922.044 2.269.044 1.992 0 2.057.002 2.098.077.027.051.041.786.041 2.112 0 1.696.01 2.074.061 2.273.194.755.794 1.34 1.531 1.494.292.061 4.524.061 4.816 0 .546-.114 1.135-.562 1.364-1.036.223-.465.228-.52.228-2.76 0-1.552.012-2.076.048-2.112.036-.036.557-.048 2.098-.048 1.342 0 2.123-.015 2.262-.044.546-.114 1.135-.562 1.364-1.036.225-.468.228-.505.228-2.92s-.003-2.452-.228-2.92c-.232-.481-.844-.937-1.389-1.037-.15-.027-.992-.043-2.286-.043-1.831 0-2.051-.007-2.073-.063-.013-.035-.024-.985-.024-2.112 0-2.223-.005-2.28-.228-2.745-.232-.481-.844-.937-1.389-1.037-.342-.062-4.529-.052-4.825.012m4.401 2.022c.027.051.041.786.041 2.112 0 1.696.01 2.074.061 2.273.194.755.794 1.34 1.531 1.494.139.029.922.044 2.269.044 1.992 0 2.057.002 2.098.077.044.084.059 3.67.016 3.833l-.024.09h-2.048c-1.294 0-2.136.016-2.286.043-.545.1-1.157.556-1.389 1.037-.223.464-.228.524-.229 2.718 0 1.112-.011 2.062-.024 2.112l-.024.09H12c-1.743 0-1.954-.007-1.976-.063-.013-.035-.024-.985-.024-2.112 0-2.223-.005-2.28-.228-2.745-.232-.481-.844-.937-1.389-1.037-.15-.027-.992-.043-2.286-.043-1.831 0-2.051-.007-2.073-.063-.013-.035-.024-.913-.024-1.952 0-1.416.012-1.901.048-1.937.036-.036.557-.048 2.098-.048 1.342 0 2.123-.015 2.262-.044.546-.114 1.135-.562 1.364-1.036.223-.465.228-.52.228-2.76 0-1.552.012-2.076.048-2.112.036-.036.526-.048 1.959-.048 1.848 0 1.912.003 1.952.077" fill="#667085" fill-rule="evenodd"/></svg>