<svg width="24" height="24" fill="none" xmlns="http://www.w3.org/2000/svg"><path d="M4.483 2.043a2.965 2.965 0 0 0-1.585.855c-.399.4-.614.756-.784 1.302l-.094.3v15l.094.3c.17.546.385.902.784 1.302.4.399.756.614 1.302.784l.3.094h15l.3-.094c.546-.17.902-.385 1.302-.784.399-.4.614-.756.784-1.302l.094-.3v-15l-.094-.3a2.887 2.887 0 0 0-.784-1.302c-.39-.39-.734-.6-1.282-.784l-.28-.094-7.44-.006c-4.124-.003-7.519.01-7.617.029M19.33 4.057c.221.079.414.241.539.454l.111.189v14.6l-.111.189a1.038 1.038 0 0 1-.539.454c-.223.079-14.437.079-14.66 0a1.038 1.038 0 0 1-.539-.454L4.02 19.3V4.7l.111-.189c.125-.213.318-.375.539-.454.223-.079 14.437-.079 14.66 0m-9.25 1.98a1.099 1.099 0 0 0-.667.583c-.062.14-.073.321-.085 1.427l-.015 1.266-1.266.015c-1.106.012-1.287.023-1.427.085a1.165 1.165 0 0 0-.514.487c-.085.158-.086.187-.086 2.1s.001 1.942.086 2.1c.113.208.313.398.514.487.14.062.321.073 1.427.085l1.266.015.015 1.266c.012 1.106.023 1.287.085 1.427.089.201.279.401.487.514.158.085.187.086 2.1.086s1.942-.001 2.1-.086c.208-.113.398-.313.487-.514.062-.14.073-.321.085-1.427l.015-1.266 1.266-.015c1.106-.012 1.287-.023 1.427-.085.201-.089.401-.279.514-.487.085-.158.086-.187.086-2.1s-.001-1.942-.086-2.1a1.165 1.165 0 0 0-.514-.487c-.14-.062-.321-.073-1.427-.085l-1.266-.015-.015-1.266c-.012-1.106-.023-1.287-.085-1.427a1.165 1.165 0 0 0-.487-.514c-.157-.084-.196-.086-2.04-.093-1.034-.004-1.925.006-1.98.024m2.6 3.208c0 .861.015 1.297.049 1.41.065.22.396.551.616.616.113.034.549.049 1.41.049H16v1.36h-1.245c-.861 0-1.297.015-1.41.049-.22.065-.551.396-.616.616-.034.113-.049.549-.049 1.41V16h-1.36v-1.245c0-.861-.015-1.297-.049-1.41-.065-.22-.396-.551-.616-.616-.113-.034-.549-.049-1.41-.049H8v-1.36h1.245c.861 0 1.297-.015 1.41-.049.22-.065.551-.396.616-.616.034-.113.049-.549.049-1.41V8h1.36v1.245" fill="#667085" fill-rule="evenodd"/></svg>