<svg width="24" height="24" fill="none" xmlns="http://www.w3.org/2000/svg"><path d="M5.88 1.803c-.986.062-1.578.264-2.269.772-.696.512-1.245 1.312-1.447 2.107-.159.627-.169 1.016-.156 5.958l.013 4.74.106.385a3.93 3.93 0 0 0 .96 1.736c.675.721 1.533 1.14 2.46 1.2l.447.029.014 1.165c.014 1.114.019 1.175.11 1.405.131.331.493.692.822.82.354.138.801.134 1.109-.009.284-.131.202-.07 2.111-1.589 1.871-1.489 1.939-1.538 2.278-1.65.256-.084.335-.087 3.202-.113 2.522-.023 2.98-.037 3.219-.093.855-.201 1.39-.502 2.001-1.124.554-.565.84-1.097 1.032-1.922.082-.352.084-.458.098-5.04.016-4.891.006-5.269-.155-5.896-.207-.805-.749-1.596-1.446-2.109-.713-.525-1.271-.708-2.369-.776-.717-.044-11.423-.041-12.14.004m11.56 1.996c.473.02.968.057 1.1.082.694.132 1.263.756 1.384 1.519.034.212.053 1.483.065 4.34.021 5.028-.005 5.599-.281 6.071-.129.219-.524.595-.744.707-.398.203-.504.21-3.564.243-3.037.032-3.081.035-3.66.238-.63.22-.783.324-2.54 1.736l-1.18.947L8 18.591c-.022-1.201-.03-1.243-.29-1.509-.264-.27-.359-.294-1.31-.323-.734-.022-.891-.038-1.07-.109a1.93 1.93 0 0 1-.781-.524c-.325-.341-.463-.653-.514-1.161-.059-.588-.023-9.17.04-9.565.066-.409.247-.769.523-1.04.439-.43.717-.514 1.842-.559 1.052-.042 10.012-.043 11-.002M9.442 5.606c-1.177.195-2.241 1.1-2.681 2.282-.437 1.176-.238 2.453.546 3.502.433.579 2.984 3.031 3.58 3.441.309.213.572.297.999.319.44.023.777-.056 1.134-.266.345-.203 2.43-2.119 3.118-2.865.513-.556.744-.866.951-1.276.568-1.129.467-2.596-.253-3.65-.324-.476-.879-.951-1.362-1.169a3.167 3.167 0 0 0-2.017-.165c-.359.088-1.039.384-1.315.572l-.148.101-.327-.235c-.796-.574-1.387-.73-2.225-.591m1.176 2.015c.127.06.368.239.557.414.358.332.512.406.85.404.276-.001.504-.119.835-.434.401-.381.666-.505 1.081-.505.282 0 .353.016.586.131.355.174.687.506.848.844.114.242.125.3.125.665 0 .374-.009.417-.134.668-.086.17-.278.425-.527.7-.368.406-1.576 1.565-2.451 2.352l-.391.352-.109-.098-.767-.696c-1.013-.92-2.167-2.083-2.357-2.376-.225-.349-.298-.616-.276-1.006.024-.398.189-.751.496-1.058.485-.486 1.086-.617 1.634-.357" fill="#667085" fill-rule="evenodd"/></svg>