<svg width="24" height="24" fill="none" xmlns="http://www.w3.org/2000/svg"><path d="M11.7 2.567C9.007 2.871 6.451 4.432 4.931 6.7c-1.078 1.61-1.612 3.36-1.613 5.281a9.081 9.081 0 0 0 .438 2.913l.16.511-1.036 1.922c-.57 1.058-1.068 2.015-1.106 2.128-.234.69.101 1.461.778 1.794.254.125.287.131.707.128.243-.002 1.679-.134 3.192-.292l2.751-.289.329.118c1.141.411 2.076.575 3.269.575.814 0 1.423-.067 2.14-.236 3.636-.858 6.448-3.754 7.175-7.393.144-.717.177-1.068.177-1.86s-.033-1.143-.177-1.86c-.51-2.553-2.051-4.777-4.295-6.199-1.124-.712-2.625-1.231-3.988-1.379-.458-.049-1.676-.047-2.132.005m2.175 2.015a7.475 7.475 0 0 1 6.04 5.046c.29.876.345 1.255.345 2.372 0 .874-.01 1.03-.095 1.44-.439 2.141-1.713 3.938-3.565 5.032a7.589 7.589 0 0 1-4.33 1.006c-.716-.055-1.206-.159-1.986-.423-.467-.158-.738-.228-.94-.241-.19-.013-1.109.067-2.764.24-1.364.142-2.482.255-2.485.252-.003-.003.379-.717.849-1.586.707-1.308.866-1.631.92-1.874.095-.426.062-.763-.136-1.37-.33-1.009-.43-1.697-.397-2.735.037-1.169.268-2.083.789-3.121a7.46 7.46 0 0 1 5.72-4.056c.454-.059 1.577-.049 2.035.018M9.96 7.652a3.12 3.12 0 0 0-1.072.495 3.657 3.657 0 0 0-1.523 3.359c.078.764.382 1.44.949 2.106.593.699 2.964 2.931 3.418 3.218.379.241.601.304 1.068.304.736 0 .948-.125 2.28-1.342 1.158-1.059 2.23-2.152 2.513-2.564.461-.67.662-1.302.664-2.088.002-1.14-.469-2.143-1.326-2.825a2.986 2.986 0 0 0-1.052-.561c-.424-.133-1.231-.133-1.698 0-.352.1-.896.343-1.186.529l-.187.12-.474-.316c-.697-.465-.797-.5-1.474-.515-.485-.011-.605 0-.9.08m1.489 1.961c.126.062.351.229.5.372.367.352.525.432.851.432.326 0 .484-.08.851-.432a2.52 2.52 0 0 1 .5-.372c.203-.1.273-.113.609-.112.335 0 .404.013.587.109.325.17.672.517.822.823.122.246.131.294.131.668 0 .388-.006.415-.157.721-.143.291-.231.393-1.04 1.201a45.08 45.08 0 0 1-2.075 1.963l-.228.205-.228-.205a45.08 45.08 0 0 1-2.075-1.963c-.802-.801-.898-.912-1.037-1.194-.127-.258-.156-.364-.171-.62-.038-.672.353-1.301 1.003-1.614.225-.108.279-.118.588-.107.276.01.383.033.569.125" fill="#667085" fill-rule="evenodd"/></svg>