<svg width="24" height="24" fill="none" xmlns="http://www.w3.org/2000/svg"><path d="M11.28 2.024c-2.481.218-4.652 1.22-6.361 2.934a9.913 9.913 0 0 0-2.905 7.402 9.746 9.746 0 0 0 .608 3.1l.189.52-.045.32c-.025.176-.19 1.165-.366 2.198-.289 1.686-.317 1.9-.281 2.096.093.499.391.915.806 1.122.374.187.607.22 1.023.147 1.012-.179 3.94-.663 4.013-.663.047 0 .313.083.592.184a9.794 9.794 0 0 0 3.087.602c4.439.168 8.467-2.647 9.864-6.892 1.331-4.046-.088-8.52-3.518-11.089-1.352-1.012-2.801-1.619-4.506-1.888-.482-.076-1.774-.131-2.2-.093m1.454 2.017a7.983 7.983 0 0 1 4.921 2.304 8.012 8.012 0 0 1 1.544 9.129 7.984 7.984 0 0 1-8.819 4.36c-.367-.075-1.043-.287-1.64-.515-.473-.181-.748-.164-2.713.163-.961.16-1.759.279-1.773.265-.015-.014.113-.864.283-1.888.354-2.138.353-2.091.063-2.819-1.208-3.033-.529-6.421 1.745-8.695a8 8 0 0 1 6.389-2.304m-5.738 6.555a1.675 1.675 0 0 0-.698.517 1.763 1.763 0 0 0-.298.884c0 .427.229.898.567 1.165a1.493 1.493 0 0 0 2.369-.759 1.357 1.357 0 0 0-.016-.849 1.493 1.493 0 0 0-.927-.96c-.257-.098-.745-.097-.997.002m4.604-.041c-.35.115-.731.413-.904.708a1.87 1.87 0 0 0-.158.453 1.034 1.034 0 0 0-.001.56c.072.345.143.485.376.734.243.259.456.38.803.452.499.104.988-.052 1.348-.43.235-.247.331-.428.398-.749.137-.659-.189-1.299-.828-1.628-.178-.091-.274-.112-.574-.121-.198-.006-.405.003-.46.021m4.396.041a1.5 1.5 0 0 0-.916.958c-.139.44-.081.864.171 1.261.567.893 1.931.893 2.498 0 .252-.397.31-.821.171-1.261a1.493 1.493 0 0 0-.927-.96c-.257-.098-.745-.097-.997.002" fill="#667085" fill-rule="evenodd"/></svg>