<svg width="24" height="24" fill="none" xmlns="http://www.w3.org/2000/svg"><path d="M11.7 2.567C9.007 2.871 6.451 4.432 4.931 6.7c-1.078 1.61-1.612 3.36-1.613 5.281a9.081 9.081 0 0 0 .438 2.913l.16.511-1.036 1.922c-.57 1.058-1.068 2.015-1.106 2.128-.234.69.101 1.461.778 1.794.254.125.287.131.707.128.243-.002 1.679-.134 3.192-.292l2.751-.289.329.118c1.141.411 2.076.575 3.269.575.814 0 1.423-.067 2.14-.236 3.636-.858 6.448-3.754 7.175-7.393.144-.717.177-1.068.177-1.86s-.033-1.143-.177-1.86c-.51-2.553-2.051-4.777-4.295-6.199-1.124-.712-2.625-1.231-3.988-1.379-.458-.049-1.676-.047-2.132.005m2.175 2.015a7.475 7.475 0 0 1 6.04 5.046c.29.876.345 1.255.345 2.372 0 .874-.01 1.03-.095 1.44-.439 2.141-1.713 3.938-3.565 5.032a7.589 7.589 0 0 1-4.33 1.006c-.716-.055-1.206-.159-1.986-.423-.467-.158-.738-.228-.94-.241-.19-.013-1.109.067-2.764.24-1.364.142-2.482.255-2.485.252-.003-.003.379-.717.849-1.586.707-1.308.866-1.631.92-1.874.095-.426.062-.763-.136-1.37-.33-1.009-.43-1.697-.397-2.735.037-1.169.268-2.083.789-3.121a7.46 7.46 0 0 1 5.72-4.056c.454-.059 1.577-.049 2.035.018M9.709 8.041c-.413.104-.831.455-1.014.85-.1.216-.115.297-.115.609 0 .311.015.394.113.604.143.309.452.617.767.764.207.097.29.112.601.112.327 0 .386-.012.627-.131.332-.163.631-.479.757-.799a1.64 1.64 0 0 0-.004-1.11c-.131-.333-.492-.693-.821-.818-.267-.102-.681-.138-.911-.081m5.452.02c-.558.157-.957.598-1.08 1.195-.113.546.171 1.18.67 1.497.393.25.834.307 1.26.163 1.06-.357 1.38-1.678.596-2.462a1.522 1.522 0 0 0-1.446-.393m-6.317 5.564c-.364.182-.545.516-.517.955.021.334.161.556.572.911a6.248 6.248 0 0 0 2.786 1.396c.55.123 1.627.133 2.154.02 1.134-.244 2.177-.772 2.966-1.502.429-.397.56-.71.472-1.121a.988.988 0 0 0-.972-.763c-.326.001-.519.094-.862.416a3.872 3.872 0 0 1-1.726.95c-.278.075-.438.091-.917.091-.684 0-1.035-.077-1.627-.357-.448-.211-.639-.34-1.013-.684-.354-.325-.541-.415-.862-.416a.886.886 0 0 0-.454.104" fill="#667085" fill-rule="evenodd"/></svg>