<svg width="24" height="24" fill="none" xmlns="http://www.w3.org/2000/svg"><path d="M4.714 1.041c-1.07.098-1.842.443-2.538 1.136A3.972 3.972 0 0 0 1.108 4.14c-.08.348-.084.489-.098 4.284-.014 3.864-.013 3.93.07 4.338a3.994 3.994 0 0 0 3.06 3.136l.4.09.021 1.316c.021 1.25.026 1.328.113 1.546.252.632.974 1.037 1.624.91.442-.086.572-.187 1.707-1.319l1.064-1.063.022.641c.017.503.04.701.109.921.221.71.891 1.422 1.627 1.732.504.213.572.219 2.773.244 1.888.022 2.071.03 2.193.097.073.04.728.485 1.454.989s1.386.935 1.467.957c.354.098.729.001.987-.258.255-.255.299-.433.299-1.223v-.667l.483-.02c.476-.02.487-.022.855-.205a3.008 3.008 0 0 0 1.606-2.145c.068-.381.08-5.383.014-5.857a2.871 2.871 0 0 0-.914-1.753c-.543-.511-.949-.666-1.752-.67l-.287-.001-.016-2.81c-.018-3.084-.02-3.11-.27-3.8-.134-.371-.482-.935-.775-1.259-.381-.42-1.109-.892-1.644-1.064-.637-.206-.454-.2-6.56-.209-3.124-.005-5.836.006-6.026.023M15.78 3.04c.352.021.745.066.874.1.545.142 1.064.663 1.207 1.209.1.385.139 1.374.139 3.559v2.088l-3.23.013c-3.157.014-3.237.016-3.535.1a4.003 4.003 0 0 0-.972.446c-.433.295-.913.932-1.079 1.435-.149.45-.182.766-.183 1.731L9 14.582l-1.218 1.239-1.218 1.239-.002-.62c-.005-.937-.114-1.291-.545-1.756-.359-.388-.73-.584-1.337-.709-.848-.174-1.492-.8-1.637-1.592-.055-.306-.058-6.411-.002-7.223.022-.318.066-.683.099-.811.101-.396.415-.801.811-1.045.242-.15.582-.227 1.164-.262.759-.045 9.922-.048 10.665-.002m4.167 8.998c.511.043.684.123.872.408.154.233.18.69.178 3.134-.002 2.506-.013 2.662-.202 2.925-.238.331-.382.378-1.221.402-.393.011-.779.037-.858.057-.366.091-.66.453-.708.872l-.028.241-.52-.363a7.801 7.801 0 0 0-.8-.498c-.56-.267-.554-.267-2.8-.297-1.275-.017-2.089-.044-2.171-.071a.949.949 0 0 1-.506-.37c-.156-.236-.18-.641-.18-3.018 0-2.368.024-2.782.178-3.015.179-.27.374-.369.795-.404.533-.044 7.446-.046 7.971-.003" fill="#667085" fill-rule="evenodd"/></svg>