<svg width="24" height="24" fill="none" xmlns="http://www.w3.org/2000/svg"><path d="M13.32 1.025c-1.791.164-3.365.759-4.763 1.799a11.215 11.215 0 0 0-1.539 1.458c-.813.975-1.494 2.312-1.793 3.518-.203.821-.241 1.131-.243 1.985l-.002.804-.258.134a6.592 6.592 0 0 0-3.26 3.986c-.182.639-.238 1.059-.237 1.791.001.741.066 1.221.246 1.82.056.187.109.403.117.48.009.082-.117.734-.306 1.578-.177.791-.322 1.518-.322 1.615 0 .509.357.925.85.991.106.014.791-.061 1.812-.201l1.642-.223.358.121c.688.233 1.079.293 1.918.296.577.002.847-.015 1.12-.069 1.272-.252 2.338-.801 3.232-1.665.578-.558 1.006-1.132 1.319-1.768l.249-.504.441.02c.848.039 1.953-.132 2.954-.457l.565-.183 1.82.27c2.261.334 2.206.33 2.548.225a1.55 1.55 0 0 0 1.039-1.09l.069-.265-.252-2.041-.252-2.041.163-.474c.376-1.097.502-1.933.474-3.155-.033-1.438-.318-2.577-.958-3.836a8.685 8.685 0 0 0-1.788-2.396 9.036 9.036 0 0 0-4.963-2.447c-.411-.062-1.644-.109-2-.076m1.366 2.017c.905.091 1.62.292 2.414.677a6.975 6.975 0 0 1 3.844 5.061c.103.563.105 1.927.003 2.44-.081.405-.244.973-.409 1.42-.178.484-.172.771.055 2.58.107.858.189 1.568.181 1.577-.009.01-.735-.087-1.616-.215-1.925-.279-1.965-.279-2.758-.006a7.345 7.345 0 0 1-2.039.411l-.516.025.063-.275c.053-.234.056-.347.017-.756-.197-2.089-1.249-3.862-2.945-4.964a6.198 6.198 0 0 0-2.874-.984c-.469-.042-.563-.04-.808.02a3.655 3.655 0 0 1-.314.067c-.021 0-.025-.221-.01-.53a6.637 6.637 0 0 1 .565-2.396c1.219-2.77 4.124-4.458 7.147-4.152M8.46 12.096a4.302 4.302 0 0 1 2.243 1.268c1.468 1.535 1.645 3.996.415 5.775-.443.641-1.24 1.277-1.936 1.546-.637.245-.866.288-1.562.291-.694.004-.892-.029-1.559-.255-.547-.186-.739-.19-1.832-.04-.523.072-.958.124-.967.114-.009-.009.065-.376.164-.815.24-1.062.246-1.304.045-1.96-.19-.618-.238-.926-.24-1.54-.002-.768.14-1.386.468-2.04a4.565 4.565 0 0 1 1.807-1.905 4.739 4.739 0 0 1 1.294-.454c.165-.026.327-.055.36-.063.134-.032 1.039.022 1.3.078" fill="#667085" fill-rule="evenodd"/></svg>