<svg width="24" height="24" fill="none" xmlns="http://www.w3.org/2000/svg"><path d="M5.88 1.803c-.986.062-1.578.264-2.269.772-.696.512-1.245 1.312-1.447 2.107-.159.627-.169 1.016-.156 5.958l.013 4.74.106.385a3.93 3.93 0 0 0 .96 1.736c.675.721 1.533 1.14 2.46 1.2l.447.029.014 1.165c.014 1.114.019 1.175.11 1.405.131.331.493.692.822.82.354.138.801.134 1.109-.009.284-.131.202-.07 2.111-1.589 1.871-1.489 1.939-1.538 2.278-1.65.256-.084.335-.087 3.202-.113 2.522-.023 2.98-.037 3.219-.093.855-.201 1.39-.502 2.001-1.124.554-.565.84-1.097 1.032-1.922.082-.352.084-.458.098-5.04.016-4.891.006-5.269-.155-5.896-.207-.805-.749-1.596-1.446-2.109-.713-.525-1.271-.708-2.369-.776-.717-.044-11.423-.041-12.14.004m11.56 1.996c.473.02.968.057 1.1.082.694.132 1.263.756 1.384 1.519.034.212.053 1.483.065 4.34.021 5.028-.005 5.599-.281 6.071-.129.219-.524.595-.744.707-.398.203-.504.21-3.564.243-3.037.032-3.081.035-3.66.238-.63.22-.783.324-2.54 1.736l-1.18.947L8 18.591c-.022-1.201-.03-1.243-.29-1.509-.264-.27-.359-.294-1.31-.323-.734-.022-.891-.038-1.07-.109a1.93 1.93 0 0 1-.781-.524c-.325-.341-.463-.653-.514-1.161-.059-.588-.023-9.17.04-9.565.066-.409.247-.769.523-1.04.439-.43.717-.514 1.842-.559 1.052-.042 10.012-.043 11-.002M8.986 5.802c-.45.075-.89.424-1.099.869-.092.198-.107.28-.107.609 0 .329.014.411.108.609a1.7 1.7 0 0 0 .743.743c.198.094.28.108.609.108.335 0 .41-.014.631-.116.172-.079.32-.19.467-.349.285-.307.395-.588.398-1.015.002-.279-.014-.355-.124-.588a1.493 1.493 0 0 0-1.138-.87 2.919 2.919 0 0 0-.274-.037l-.214.037m5.503.002c-.469.079-.883.406-1.101.868-.11.233-.126.309-.124.588.003.427.113.708.398 1.015.147.159.295.27.467.349.221.102.296.116.631.116.329 0 .411-.014.609-.108.293-.137.583-.427.733-.733.105-.213.118-.279.118-.619 0-.328-.015-.411-.106-.607-.3-.638-.945-.984-1.625-.869M8.13 11.351c-.381.16-.624.527-.621.938.004.33.119.536.504.894.751.699 1.684 1.188 2.787 1.461.337.083.474.094 1.2.094s.863-.011 1.2-.094c1.103-.273 2.036-.762 2.787-1.461.385-.358.5-.564.504-.894.003-.418-.205-.735-.605-.919a.732.732 0 0 0-.44-.082c-.299.023-.463.107-.77.397a4.084 4.084 0 0 1-1.719.963c-.284.077-.434.092-.957.092-.523 0-.673-.015-.957-.092a4.113 4.113 0 0 1-1.723-.965 2.404 2.404 0 0 0-.4-.31c-.202-.099-.581-.109-.79-.022" fill="#667085" fill-rule="evenodd"/></svg>