<svg width="24" height="24" fill="none" xmlns="http://www.w3.org/2000/svg"><path d="M17.6 1.805a3.947 3.947 0 0 0-3.204 2.253 4.03 4.03 0 0 0-.254 2.722c.36 1.382 1.435 2.461 2.838 2.848.363.101.459.111 1.04.108.52-.002.698-.019.947-.087 1.493-.409 2.552-1.481 2.922-2.957.128-.511.126-1.369-.003-1.864a4.001 4.001 0 0 0-.508-1.197c-.833-1.293-2.223-1.965-3.778-1.826m-11.76.996c-.936.065-1.486.247-2.143.711-.767.542-1.329 1.35-1.536 2.212-.153.635-.166 1.091-.152 5.456.013 4.196.013 4.2.102 4.52.387 1.397 1.302 2.398 2.602 2.846.285.098.456.133.651.134.146 0 .348.011.45.025l.186.026.001 1.024c.001 1.4.051 1.623.454 2.024.498.495 1.179.587 1.769.238.131-.078.984-.737 1.897-1.465 1.837-1.465 1.958-1.554 2.301-1.68.232-.086.298-.089 2.678-.115 2.552-.029 2.668-.037 3.239-.222.524-.17 1.151-.581 1.574-1.034.618-.661.928-1.35 1.044-2.321.064-.536.053-2.561-.014-2.75a.947.947 0 0 0-.468-.529 1.002 1.002 0 0 0-1.382.455c-.061.123-.075.309-.098 1.284-.031 1.287-.077 1.726-.216 2.032-.119.262-.513.68-.778.824-.403.219-.538.23-3.121.264-2.479.032-2.557.038-3.1.22-.622.209-.92.412-2.74 1.873l-1.02.819L8 18.563l-.02-1.11-.121-.196c-.137-.221-.442-.431-.688-.471a8.3 8.3 0 0 0-.756-.026c-.332 0-.701-.018-.819-.041-.686-.13-1.315-.711-1.501-1.388-.071-.256-.075-.49-.075-4.371 0-4.537.006-4.662.228-5.12.222-.455.683-.836 1.146-.946.372-.089 1.626-.133 3.786-.134l2.04-.001.2-.093c.718-.334.781-1.328.109-1.731a1.285 1.285 0 0 0-.358-.149c-.206-.034-4.809-.021-5.331.015m12.525 1c.733.138 1.387.745 1.574 1.46a1.973 1.973 0 0 1-.506 1.883c-.625.651-1.551.802-2.373.386-.288-.146-.7-.576-.853-.89-.707-1.457.57-3.139 2.158-2.839" fill="#667085" fill-rule="evenodd"/></svg>