<svg width="24" height="24" fill="none" xmlns="http://www.w3.org/2000/svg"><path d="M11.7 2.567C9.007 2.871 6.451 4.432 4.931 6.7c-1.078 1.61-1.612 3.36-1.613 5.281a9.081 9.081 0 0 0 .438 2.913l.16.511-1.036 1.922c-.57 1.058-1.068 2.015-1.106 2.128-.234.69.101 1.461.778 1.794.254.125.287.131.707.128.243-.002 1.679-.134 3.192-.292l2.751-.289.329.118c1.141.411 2.076.575 3.269.575.814 0 1.423-.067 2.14-.236 3.636-.858 6.448-3.754 7.175-7.393.144-.717.177-1.068.177-1.86s-.033-1.143-.177-1.86c-.51-2.553-2.051-4.777-4.295-6.199-1.124-.712-2.625-1.231-3.988-1.379-.458-.049-1.676-.047-2.132.005m2.175 2.015a7.475 7.475 0 0 1 6.04 5.046c.29.876.345 1.255.345 2.372 0 .874-.01 1.03-.095 1.44-.439 2.141-1.713 3.938-3.565 5.032a7.589 7.589 0 0 1-4.33 1.006c-.716-.055-1.206-.159-1.986-.423-.467-.158-.738-.228-.94-.241-.19-.013-1.109.067-2.764.24-1.364.142-2.482.255-2.485.252-.003-.003.379-.717.849-1.586.707-1.308.866-1.631.92-1.874.095-.426.062-.763-.136-1.37-.33-1.009-.43-1.697-.397-2.735.037-1.169.268-2.083.789-3.121a7.46 7.46 0 0 1 5.72-4.056c.454-.059 1.577-.049 2.035.018M12.34 7.056a3.26 3.26 0 0 0-2.37 1.85c-.126.269-.147.355-.148.594 0 .331.088.529.33.748a.923.923 0 0 0 .648.246c.425 0 .758-.243.975-.711.147-.317.366-.542.66-.677.278-.128.755-.118 1.025.022.404.21.663.581.692.995.022.293-.073.479-.389.765-.233.21-.865.572-1.167.669-.194.061-.459.294-.566.497-.122.231-.123.66-.001.89.265.502.786.667 1.39.438 1.006-.38 1.976-1.121 2.392-1.826.261-.441.329-.73.327-1.376-.002-.523-.011-.585-.131-.934a3.17 3.17 0 0 0-.688-1.177 3.331 3.331 0 0 0-1.599-.966c-.359-.092-1.032-.114-1.38-.047m.2 7.54c-.34.158-.58.532-.58.904 0 .541.457.995 1 .992a.928.928 0 0 0 .733-.332.961.961 0 0 0 .22-.968c-.062-.205-.328-.504-.531-.597-.218-.099-.629-.098-.842.001" fill="#667085" fill-rule="evenodd"/></svg>