<svg width="24" height="24" fill="none" xmlns="http://www.w3.org/2000/svg"><path d="M5.88 1.803c-.986.062-1.578.264-2.269.772-.696.512-1.245 1.312-1.447 2.107-.164.646-.169.899-.156 8.798l.012 7.58.096.24c.134.332.497.693.824.82.354.138.801.134 1.109-.009.284-.131.202-.07 2.111-1.589 1.868-1.487 1.938-1.538 2.278-1.652l.262-.087 4.94-.024c4.431-.022 4.969-.031 5.219-.092.863-.207 1.39-.504 2.001-1.125.554-.565.84-1.097 1.032-1.922.082-.352.084-.458.098-5.04.016-4.891.006-5.269-.155-5.896-.207-.805-.749-1.596-1.446-2.109-.713-.525-1.271-.708-2.369-.776-.717-.044-11.423-.041-12.14.004m11.56 1.996c.473.02.968.057 1.1.082.694.132 1.263.756 1.384 1.519.034.212.053 1.483.065 4.34.021 5.028-.005 5.599-.281 6.071-.129.219-.524.595-.744.707-.428.219-.312.213-5.564.243-5.231.029-5.041.021-5.66.238a4.333 4.333 0 0 0-1.02.531c-.121.09-.76.596-1.42 1.124l-1.252.999C3.975 19.709 4 5.854 4.074 5.4c.067-.41.249-.77.524-1.04.439-.43.717-.514 1.842-.559 1.052-.042 10.012-.043 11-.002M6.6 7.363a.966.966 0 0 0-.589.818c-.041.399.154.76.519.963l.21.116h5.52l.21-.116a.988.988 0 0 0-.07-1.781c-.175-.079-.249-.081-2.9-.081s-2.725.002-2.9.081m.2 3.434c-.64.132-.983.849-.685 1.434.104.203.358.422.559.483.222.066 8.43.066 8.652 0 .201-.061.454-.28.564-.488.114-.218.123-.659.018-.87a1.204 1.204 0 0 0-.486-.489l-.162-.087-4.16-.006c-2.288-.003-4.223.007-4.3.023" fill="#667085" fill-rule="evenodd"/></svg>