<svg width="24" height="24" fill="none" xmlns="http://www.w3.org/2000/svg"><path d="M5.88 1.803c-.986.062-1.578.264-2.269.772-.696.512-1.245 1.312-1.447 2.107-.159.627-.169 1.016-.156 5.958l.013 4.74.106.385a3.93 3.93 0 0 0 .96 1.736c.675.721 1.533 1.14 2.46 1.2l.447.029.014 1.165c.014 1.114.019 1.175.11 1.405.131.331.493.692.822.82.354.138.801.134 1.109-.009.284-.131.202-.07 2.111-1.589 1.871-1.489 1.939-1.538 2.278-1.65.256-.084.335-.087 3.202-.113 2.522-.023 2.98-.037 3.219-.093.855-.201 1.39-.502 2.001-1.124.554-.565.84-1.097 1.032-1.922.082-.352.084-.458.098-5.04.016-4.891.006-5.269-.155-5.896-.207-.805-.749-1.596-1.446-2.109-.713-.525-1.271-.708-2.369-.776-.717-.044-11.423-.041-12.14.004m11.56 1.996c.473.02.968.057 1.1.082.694.132 1.263.756 1.384 1.519.034.212.053 1.483.065 4.34.021 5.028-.005 5.599-.281 6.071-.129.219-.524.595-.744.707-.398.203-.504.21-3.564.243-3.037.032-3.081.035-3.66.238-.63.22-.783.324-2.54 1.736l-1.18.947L8 18.591c-.022-1.201-.03-1.243-.29-1.509-.264-.27-.359-.294-1.31-.323-.734-.022-.891-.038-1.07-.109a1.93 1.93 0 0 1-.781-.524c-.325-.341-.463-.653-.514-1.161-.059-.588-.023-9.17.04-9.565.066-.409.247-.769.523-1.04.439-.43.717-.514 1.842-.559 1.052-.042 10.012-.043 11-.002M11.6 6.363a1.013 1.013 0 0 0-.494.457c-.081.152-.087.22-.098 1.31l-.013 1.15-1.107.001c-1.028.001-1.121.007-1.288.082a.966.966 0 0 0-.589.818c-.041.399.154.76.519.963l.21.116 1.13.012 1.13.013v1.072c0 1.157.016 1.273.218 1.537.056.073.196.185.312.249a.994.994 0 0 0 1.412-.547c.045-.13.058-.4.058-1.239v-1.072l1.13-.013 1.13-.012.21-.116a.988.988 0 0 0-.07-1.781c-.167-.075-.26-.081-1.288-.082l-1.107-.001-.013-1.15c-.011-1.09-.017-1.158-.098-1.31A1.007 1.007 0 0 0 12 6.282c-.136 0-.289.031-.4.081" fill="#667085" fill-rule="evenodd"/></svg>