<svg width="24" height="24" fill="none" xmlns="http://www.w3.org/2000/svg"><path d="M11.28 2.024c-2.481.218-4.652 1.22-6.361 2.934a9.913 9.913 0 0 0-2.905 7.402 9.746 9.746 0 0 0 .608 3.1l.189.52-.045.32c-.025.176-.19 1.165-.366 2.198-.289 1.686-.317 1.9-.281 2.096.093.499.391.915.806 1.122.374.187.607.22 1.023.147 1.012-.179 3.94-.663 4.013-.663.047 0 .313.083.592.184a9.794 9.794 0 0 0 3.087.602c4.439.168 8.467-2.647 9.864-6.892 1.331-4.046-.088-8.52-3.518-11.089-1.352-1.012-2.801-1.619-4.506-1.888-.482-.076-1.774-.131-2.2-.093m1.454 2.017a7.983 7.983 0 0 1 4.921 2.304 8.012 8.012 0 0 1 1.544 9.129 7.984 7.984 0 0 1-8.819 4.36c-.367-.075-1.043-.287-1.64-.515-.473-.181-.748-.164-2.713.163-.961.16-1.759.279-1.773.265-.015-.014.113-.864.283-1.888.354-2.138.353-2.091.063-2.819-1.208-3.033-.529-6.421 1.745-8.695a8 8 0 0 1 6.389-2.304M7.617 8.577c-.346.15-.616.556-.616.923 0 .386.303.818.664.945.227.081 4.443.081 4.67 0 .361-.127.664-.559.664-.945 0-.372-.274-.779-.625-.925-.191-.08-4.574-.078-4.757.002m.026 3.492C7.291 12.193 7 12.614 7 13c0 .242.119.521.299.701.314.314.097.299 4.201.299 4.104 0 3.887.015 4.201-.299a.984.984 0 0 0 0-1.402c-.315-.315-.094-.299-4.218-.296-3.21.003-3.685.011-3.84.066" fill="#667085" fill-rule="evenodd"/></svg>