<svg width="24" height="24" fill="none" xmlns="http://www.w3.org/2000/svg"><path d="M11.7 2.567C9.007 2.871 6.451 4.432 4.931 6.7c-1.078 1.61-1.612 3.36-1.613 5.281a9.081 9.081 0 0 0 .438 2.913l.16.511-1.036 1.922c-.57 1.058-1.068 2.015-1.106 2.128-.234.69.101 1.461.778 1.794.254.125.287.131.707.128.243-.002 1.679-.134 3.192-.292l2.751-.289.329.118c1.141.411 2.076.575 3.269.575.814 0 1.423-.067 2.14-.236 3.636-.858 6.448-3.754 7.175-7.393.144-.717.177-1.068.177-1.86s-.033-1.143-.177-1.86c-.51-2.553-2.051-4.777-4.295-6.199-1.124-.712-2.625-1.231-3.988-1.379-.458-.049-1.676-.047-2.132.005m2.175 2.015a7.475 7.475 0 0 1 6.04 5.046c.29.876.345 1.255.345 2.372 0 .874-.01 1.03-.095 1.44-.439 2.141-1.713 3.938-3.565 5.032a7.589 7.589 0 0 1-4.33 1.006c-.716-.055-1.206-.159-1.986-.423-.467-.158-.738-.228-.94-.241-.19-.013-1.109.067-2.764.24-1.364.142-2.482.255-2.485.252-.003-.003.379-.717.849-1.586.707-1.308.866-1.631.92-1.874.095-.426.062-.763-.136-1.37-.33-1.009-.43-1.697-.397-2.735.037-1.169.268-2.083.789-3.121a7.46 7.46 0 0 1 5.72-4.056c.454-.059 1.577-.049 2.035.018M9.847 8.624c-.342.17-.528.483-.526.885.001.401.073.5 1.11 1.541l.947.95-.947.95c-1.043 1.047-1.109 1.139-1.11 1.552a.969.969 0 0 0 .999.988c.381-.002.467-.064 1.51-1.103l.97-.965.95.947c.741.738.994.966 1.15 1.035a.981.981 0 0 0 1.394-.884c.004-.42-.022-.457-1.088-1.53l-.983-.991.964-.969c.53-.534.983-1.008 1.007-1.055.024-.047.063-.171.086-.276.136-.605-.342-1.18-.977-1.178-.415.001-.505.066-1.553 1.111l-.951.947-.949-.948c-.684-.682-1-.97-1.13-1.028a1.06 1.06 0 0 0-.873.021" fill="#667085" fill-rule="evenodd"/></svg>