<svg width="24" height="24" fill="none" xmlns="http://www.w3.org/2000/svg"><path d="M6.8 1.061a4.392 4.392 0 0 0-2.391 1.195c-.563.539-.934 1.114-1.165 1.804C2.998 4.797 3 4.754 3 8.969v3.839l-.23.251c-.293.32-.503.675-.64 1.081-.105.313-.108.341-.109 1.32-.001.861.01 1.039.075 1.28.309 1.136 1.181 1.965 2.312 2.197.461.094 5.723.094 6.184 0a3.004 3.004 0 0 0 2.349-2.368c.054-.269.064-.499.05-1.22-.016-.831-.024-.91-.123-1.209a2.952 2.952 0 0 0-.638-1.081l-.23-.251V7.13l.417-.065c.489-.076.706-.08 1.269-.023a6.992 6.992 0 0 1 3.154 1.107c2.117 1.37 3.346 3.887 3.127 6.401-.088 1.011-.278 1.689-.727 2.59a6.256 6.256 0 0 1-1.3 1.799 6.731 6.731 0 0 1-2.14 1.476c-.399.179-.574.33-.705.605a.966.966 0 0 0 .197 1.093c.16.168.296.239.54.286.275.052.466-.003 1.108-.316a8.898 8.898 0 0 0 4.141-4.143 8.956 8.956 0 0 0-.85-9.285c-.392-.531-1.311-1.455-1.831-1.84-1.001-.741-2-1.224-3.135-1.514-1.033-.265-2.093-.357-2.822-.245a9.365 9.365 0 0 1-.465.064c-.027 0-.059-.089-.075-.21a4.581 4.581 0 0 0-2.452-3.444A4.393 4.393 0 0 0 6.8 1.061M8.02 3.06a2.502 2.502 0 0 1 1.695 1.302c.29.589.284.492.284 4.268L10 12H5l.001-3.37c0-3.776-.006-3.679.284-4.268.489-.991 1.629-1.534 2.735-1.302m2.296 11.003a.872.872 0 0 1 .385.236c.249.249.299.451.299 1.201 0 .747-.051.953-.295 1.197-.312.312-.215.303-3.205.303s-2.893.009-3.205-.303C4.051 16.453 4 16.247 4 15.5c0-.751.05-.952.299-1.202.301-.3.219-.292 3.184-.295 2.269-.003 2.651.005 2.833.06m-7.673 7.006C2.291 21.193 2 21.614 2 22c0 .242.119.521.299.701.318.319-.022.299 5.201.299s4.883.02 5.201-.299a.984.984 0 0 0 0-1.402c-.319-.319.025-.299-5.218-.296-4.116.003-4.684.011-4.84.066" fill="#667085" fill-rule="evenodd"/></svg>