<svg width="24" height="24" fill="none" xmlns="http://www.w3.org/2000/svg"><path d="M1.643 1.069C1.291 1.193 1 1.614 1 2c0 .08.029.234.065.343.059.18.362.494 3.498 3.637l3.433 3.44.015 1.6c.017 1.858.031 1.955.407 2.72a3.89 3.89 0 0 0 1.842 1.842c.627.308 1.016.397 1.72.394.671-.003.983-.076 1.602-.371l.408-.195.71.71.709.71-.375.232a6.523 6.523 0 0 1-2.043.845c-.456.1-1.583.099-2.085-.001a6.3 6.3 0 0 1-2.136-.848c-1.394-.907-2.313-2.252-2.657-3.894-.069-.329-.085-.601-.107-1.904-.025-1.487-.028-1.524-.12-1.71-.296-.601-1.108-.73-1.587-.251-.286.286-.299.368-.299 1.858.001 1.352.027 1.748.164 2.423.471 2.338 2.097 4.39 4.325 5.459a8.67 8.67 0 0 0 2.361.739l.15.026V21H9.427c-1.789 0-1.836.006-2.128.299a.984.984 0 0 0 0 1.402c.317.317.038.299 4.701.299 4.663 0 4.384.018 4.701-.299a.984.984 0 0 0 0-1.402c-.292-.293-.339-.299-2.128-.299H13v-.6c0-.33.011-.6.025-.6.014 0 .249-.045.523-.101a7.934 7.934 0 0 0 2.838-1.18l.426-.286 2.324 2.319c2.104 2.098 2.343 2.324 2.521 2.383.39.129.766.044 1.044-.234s.363-.654.234-1.044c-.059-.178-.285-.417-2.386-2.524l-2.32-2.326.198-.274c.211-.29.622-.955.772-1.25a9.938 9.938 0 0 0 .542-1.423c.213-.781.226-.913.247-2.489.022-1.709.014-1.771-.286-2.071-.48-.48-1.292-.352-1.588.25-.092.186-.095.223-.117 1.65-.019 1.178-.037 1.522-.093 1.78a6.447 6.447 0 0 1-.885 2.113l-.199.305-7.14-7.134C3.092 1.681 2.525 1.125 2.343 1.065a1.038 1.038 0 0 0-.7.004m9.79-.026a4.09 4.09 0 0 0-2.604 1.525c-.558.735-.651 1.234-.314 1.699.161.222.483.386.762.387.442.004.715-.173.987-.638a1.988 1.988 0 0 1 3.14-.42c.297.298.483.642.553 1.021.028.153.043 1.071.043 2.583 0 2.651-.006 2.597.299 2.901.18.18.459.299.701.299.242 0 .521-.119.701-.299.306-.306.299-.238.299-3.004 0-2.614-.01-2.772-.208-3.357-.618-1.817-2.485-2.972-4.359-2.697m.817 12.866c-.387.234-1.213-.025-1.681-.527-.419-.449-.567-.861-.568-1.582L10 11.421l1.2 1.199 1.199 1.199-.149.09" fill="#667085" fill-rule="evenodd"/></svg>