<svg width="24" height="24" fill="none" xmlns="http://www.w3.org/2000/svg"><path d="M1.643 1.069C1.291 1.193 1 1.614 1 2c0 .08.029.234.065.343.059.179.327.46 2.998 3.137l2.934 2.94.013 2.66.013 2.66.128.48a5.09 5.09 0 0 0 3.635 3.628c.443.117.519.125 1.174.126.588 0 .748-.013 1.001-.083a5.306 5.306 0 0 0 1.953-.994l.315-.249.709.71.708.709-.373.302c-.992.803-1.948 1.273-3.087 1.519-.549.118-1.762.127-2.366.017-2.26-.413-4.073-1.771-5.098-3.819C5.205 15.052 5 14.051 5 12.563c0-.834-.04-1.006-.299-1.264a.984.984 0 0 0-1.402 0c-.266.266-.299.419-.299 1.378 0 .916.067 1.612.22 2.289a9.133 9.133 0 0 0 1.549 3.379c.412.558 1.328 1.474 1.886 1.886 1.777 1.312 4.022 1.942 6.151 1.727 1.584-.16 3.227-.867 4.614-1.987.22-.177.444-.37.498-.428l.098-.105 1.722 1.716c1.543 1.537 1.742 1.722 1.919 1.781.39.129.766.044 1.045-.235a.986.986 0 0 0 .185-1.144c-.063-.13-2.761-2.85-10.216-10.301C3.299 1.888 2.525 1.125 2.343 1.065a1.038 1.038 0 0 0-.7.004m9.697.974c-1.083.149-2.481.858-2.762 1.401-.219.424-.065 1.007.339 1.278.382.257.78.231 1.228-.081.368-.256.769-.456 1.095-.545.358-.099 1.16-.099 1.52-.001.843.23 1.571.831 1.94 1.604.274.575.271.541.297 2.881l.023 2.12.111.189a.99.99 0 0 0 1.571.211c.308-.308.305-.283.288-2.708l-.015-2.132-.106-.4c-.194-.734-.466-1.305-.887-1.865a5.036 5.036 0 0 0-2.942-1.879c-.403-.091-1.292-.129-1.7-.073m2.391 13.309c-.22.182-.655.418-.96.52-.266.089-.381.104-.791.104-.544.001-.831-.061-1.281-.276a3.043 3.043 0 0 1-1.397-1.396c-.268-.561-.273-.602-.291-2.324l-.015-1.56 2.423 2.42 2.423 2.42-.111.092" fill="#667085" fill-rule="evenodd"/></svg>