<svg width="24" height="24" fill="none" xmlns="http://www.w3.org/2000/svg"><path d="M11.34 2.046c-.974.124-2.006.617-2.756 1.318-.66.617-1.188 1.506-1.434 2.416l-.13.48v7.48l.13.48a5.097 5.097 0 0 0 3.636 3.629c.449.118.513.125 1.214.125s.765-.007 1.214-.125a5.248 5.248 0 0 0 2.231-1.239c.638-.602 1.163-1.495 1.405-2.39l.13-.48V6.26l-.13-.48c-.668-2.473-3-4.054-5.51-3.734m1.44 2.056c1.013.271 1.835 1.097 2.127 2.138.068.243.073.495.073 3.76 0 3.265-.005 3.517-.073 3.76a3.077 3.077 0 0 1-2.147 2.146c-.359.098-1.161.098-1.52 0a3.077 3.077 0 0 1-2.147-2.146c-.068-.243-.073-.495-.073-3.76 0-3.265.005-3.517.073-3.76a3.047 3.047 0 0 1 2.397-2.198c.286-.052.997-.019 1.29.06m-9.137 6.967a1.066 1.066 0 0 0-.577.591c-.088.258-.091 1.623-.006 2.352a9.024 9.024 0 0 0 1.709 4.333c.412.558 1.328 1.474 1.886 1.886a8.98 8.98 0 0 0 9.936.502c.832-.497 1.801-1.334 2.397-2.073a9.27 9.27 0 0 0 1.734-3.455c.197-.782.244-1.187.267-2.29.025-1.195.001-1.327-.287-1.615a.984.984 0 0 0-1.403-.001c-.259.258-.299.43-.299 1.264 0 1.488-.205 2.489-.722 3.523-1.025 2.047-2.841 3.408-5.098 3.818-.56.102-1.8.102-2.36 0-2.259-.41-4.073-1.77-5.098-3.818C5.205 15.052 5 14.051 5 12.563c0-.834-.04-1.006-.299-1.264a.998.998 0 0 0-1.058-.23" fill="#667085" fill-rule="evenodd"/></svg>