<svg width="24" height="24" fill="none" xmlns="http://www.w3.org/2000/svg"><path d="M11.433 1.043a4.22 4.22 0 0 0-1.941.856c-.64.515-1.178 1.357-1.381 2.161l-.091.36v8.16l.091.36c.203.804.741 1.646 1.381 2.161.401.323 1.078.665 1.548.781 2.23.55 4.462-.908 4.897-3.197.055-.29.063-.839.063-4.185 0-4.138 0-4.147-.208-4.76-.618-1.817-2.485-2.972-4.359-2.697m.95 2c.379.07.723.256 1.021.553.297.298.483.642.553 1.021.029.16.043 1.438.043 3.883 0 2.445-.014 3.723-.043 3.883a2.039 2.039 0 0 1-.518.992c-.614.656-1.595.81-2.407.378-.47-.251-.891-.833-.989-1.37-.029-.16-.043-1.438-.043-3.883 0-2.445.014-3.723.043-3.883a1.93 1.93 0 0 1 .553-1.021c.489-.488 1.102-.678 1.787-.553m-7.74 6.026c-.244.086-.496.349-.581.606-.062.186-.067.365-.052 1.716.019 1.632.048 1.905.291 2.752.608 2.114 2.152 3.919 4.188 4.896a8.67 8.67 0 0 0 2.361.739l.15.026V21H9.427c-1.789 0-1.836.006-2.128.299a.984.984 0 0 0 0 1.402c.317.317.038.299 4.701.299 4.663 0 4.384.018 4.701-.299a.984.984 0 0 0 0-1.402c-.292-.293-.339-.299-2.128-.299H13v-1.196l.15-.026c1.832-.312 3.34-1.076 4.585-2.323 1.125-1.127 1.851-2.515 2.152-4.115.071-.38.085-.644.101-1.949.022-1.731.014-1.791-.286-2.091a.983.983 0 0 0-1.404 0c-.279.279-.291.354-.312 2.02-.016 1.263-.029 1.512-.099 1.844-.462 2.203-2.029 3.938-4.128 4.57-.691.208-.967.246-1.779.243-.625-.002-.829-.017-1.15-.088-1.087-.24-1.918-.646-2.742-1.338-.98-.823-1.694-2.046-1.975-3.387-.069-.329-.085-.601-.107-1.904-.025-1.487-.028-1.524-.12-1.71-.221-.449-.752-.655-1.243-.481" fill="#667085" fill-rule="evenodd"/></svg>