<svg width="24" height="24" fill="none" xmlns="http://www.w3.org/2000/svg"><path d="M20.64 2.068c-.155.053-.557.437-2.91 2.786L15 7.579V5.716c0-2.112-.001-2.119-.3-2.418a.987.987 0 0 0-1.169-.172 1.065 1.065 0 0 0-.489.585c-.027.097-.042 1.25-.042 3.292 0 3.541-.013 3.387.299 3.698.311.312.157.299 3.701.299s3.39.013 3.701-.299a.984.984 0 0 0 0-1.402C20.403 9.001 20.395 9 18.284 9h-1.863l2.725-2.73c2.477-2.482 2.73-2.748 2.789-2.927a1.004 1.004 0 0 0-1.295-1.275M3.664 13.063a.993.993 0 0 0-.366 1.637c.299.299.306.3 2.418.3h1.863l-2.725 2.73c-2.477 2.482-2.73 2.748-2.789 2.927-.129.39-.044.766.234 1.044s.654.363 1.044.234c.179-.059.445-.312 2.927-2.789L9 16.421v1.863c0 2.111.001 2.119.299 2.417a.984.984 0 0 0 1.403-.001c.314-.314.302-.154.289-3.764l-.011-3.196-.109-.208a.935.935 0 0 0-.549-.471c-.25-.089-6.417-.087-6.658.002" fill="#667085" fill-rule="evenodd"/></svg>