<svg width="24" height="24" fill="none" xmlns="http://www.w3.org/2000/svg"><path d="M4.646 1.043c-.232.071-.42.225-.809.66C2.39 3.323 1.559 5.102 1.213 7.32c-.088.568-.101 2.221-.022 2.78.126.884.337 1.749.617 2.52.208.577.718 1.608 1.067 2.16l.278.44-.167.021a1.553 1.553 0 0 0-.413.154 2.998 2.998 0 0 0-1.461 1.827c-.089.306-.092.373-.092 1.778 0 1.651.014 1.761.301 2.34a2.997 2.997 0 0 0 2.227 1.615c.461.072 16.574.06 16.972-.012 1.014-.184 1.871-.869 2.249-1.799.208-.511.24-.849.221-2.322-.019-1.477-.043-1.63-.335-2.186-.354-.673-1.124-1.328-1.641-1.395l-.167-.021.278-.44a13.98 13.98 0 0 0 1.033-2.071c.749-1.99.919-4.202.477-6.209a10.472 10.472 0 0 0-2.504-4.832c-.406-.445-.563-.565-.828-.631A.986.986 0 0 0 18.081 2c.001.309.108.514.465.894.992 1.054 1.75 2.401 2.116 3.757.226.84.276 1.255.276 2.309.001 1.083-.058 1.56-.303 2.432-.352 1.252-1.105 2.643-1.887 3.485l-.151.163H13v-3.075c0-3.329.005-3.254-.216-3.543a1.168 1.168 0 0 0-.309-.241.99.99 0 0 0-1.414.537c-.053.148-.061.598-.061 3.247v3.075H5.403l-.086-.09a9.543 9.543 0 0 1-.326-.387c-.914-1.139-1.52-2.472-1.819-3.997-.098-.502-.107-.628-.109-1.566-.002-1.099.044-1.489.275-2.349.366-1.356 1.124-2.703 2.116-3.757.357-.38.464-.585.465-.894a1.01 1.01 0 0 0-.57-.906c-.152-.078-.525-.105-.703-.051M7.34 3.916c-.264.123-.828.746-1.218 1.344-.841 1.287-1.249 2.978-1.081 4.48.141 1.263.587 2.429 1.3 3.4.359.489.733.884.952 1.004.616.34 1.39-.079 1.458-.79.029-.297-.079-.548-.379-.882-.661-.735-1.084-1.54-1.276-2.432-.092-.426-.104-1.481-.021-1.9a5.268 5.268 0 0 1 1.256-2.48c.351-.383.407-.498.407-.84 0-.21-.022-.321-.087-.444-.1-.19-.328-.402-.517-.481-.191-.08-.601-.069-.794.021m8.517-.019c-.183.079-.41.294-.508.479-.065.123-.087.234-.087.444 0 .342.056.457.407.84a4.978 4.978 0 0 1 1.319 3.6c-.055 1.214-.493 2.249-1.36 3.212-.3.334-.408.585-.379.882.068.711.842 1.13 1.458.79.219-.12.593-.515.952-1.004.913-1.243 1.402-2.858 1.326-4.381-.075-1.524-.625-2.979-1.547-4.099-.329-.4-.635-.687-.807-.758-.181-.076-.606-.078-.774-.005m4.603 13.23c.175.097.366.31.443.493.054.128.071.339.086 1.06.011.495.002 1.086-.019 1.313-.034.357-.055.436-.156.579a1.269 1.269 0 0 1-.312.287l-.196.121H3.7l-.165-.088a1.085 1.085 0 0 1-.451-.492c-.053-.118-.063-.335-.063-1.4 0-1.216.003-1.266.086-1.423.108-.202.375-.447.522-.479.061-.014.129-.031.151-.039.022-.007 3.757-.01 8.3-.006 7.623.006 8.269.012 8.38.074" fill="#667085" fill-rule="evenodd"/></svg>