<svg width="24" height="24" fill="none" xmlns="http://www.w3.org/2000/svg"><path d="M4 1.334c-.317.162-.97.992-1.521 1.934C1.202 5.45.724 8.134 1.162 10.66c.174 1.003.317 1.349.639 1.548.486.3 1.097.159 1.384-.319.181-.302.193-.454.077-.967A8.37 8.37 0 0 1 3.024 8.8c-.002-.832.042-1.269.201-1.992a9.036 9.036 0 0 1 1.857-3.784c.257-.313.358-.54.358-.804 0-.372-.24-.746-.58-.904-.233-.108-.628-.1-.86.018m15.139-.019a.977.977 0 0 0-.578.896c-.001.313.059.439.453.94 1.552 1.978 2.208 4.316 1.902 6.789-.022.176-.094.568-.16.872-.108.494-.116.575-.075.771.157.758 1.126 1.044 1.676.493.075-.074.167-.207.206-.296.091-.207.254-.95.343-1.56.099-.672.099-2.211 0-2.88-.314-2.127-1.116-3.981-2.386-5.513-.257-.31-.37-.414-.533-.49-.258-.12-.612-.129-.848-.022M6.897 4.137c-.213.092-.41.299-.701.735a7.028 7.028 0 0 0-.959 5.717c.068.252.272.495.52.621a.98.98 0 0 0 1.348-.468c.117-.251.118-.401.008-.916-.117-.547-.125-1.525-.017-2.026.156-.722.45-1.389.872-1.976.128-.178.253-.396.277-.484.054-.197.025-.567-.057-.724a1.204 1.204 0 0 0-.488-.461c-.192-.088-.621-.097-.803-.018m9.402.018c-.186.084-.394.28-.485.456-.084.162-.114.53-.059.729.024.088.149.306.277.484a5.057 5.057 0 0 1 .848 4.016c-.102.492-.1.656.015.902a.988.988 0 0 0 1.328.483c.376-.176.534-.469.683-1.276.087-.47.099-1.787.02-2.229-.192-1.079-.556-2.001-1.122-2.848-.296-.443-.491-.646-.71-.737-.188-.079-.6-.068-.795.02m-4.721 3.72c-.203.093-.469.392-.531.597-.034.114-.047.877-.047 2.745v2.588l-3.65-.007c-3.967-.007-3.952-.008-4.504.216a3.03 3.03 0 0 0-1.503 1.389c-.314.627-.323.708-.323 2.877 0 2.149.011 2.256.302 2.831.432.858 1.174 1.416 2.148 1.615.17.035 2.277.051 8.09.063 7.715.015 8.75.003 9.18-.111 1.083-.286 1.919-1.133 2.169-2.196.063-.267.071-.524.071-2.202 0-2.168-.009-2.252-.321-2.872a3.047 3.047 0 0 0-1.505-1.394c-.552-.224-.537-.223-4.504-.216l-3.65.007v-2.588c0-1.868-.013-2.631-.047-2.745-.062-.205-.328-.504-.531-.597A1.073 1.073 0 0 0 12 7.802c-.167 0-.318.026-.422.073m8.64 7.964a.853.853 0 0 1 .729.753c.043.297.043 3.079 0 3.376-.058.409-.327.683-.75.763-.373.071-16.021.071-16.394 0-.423-.08-.692-.354-.75-.763-.055-.385-.038-3.321.021-3.52.051-.173.272-.456.417-.534a1.14 1.14 0 0 1 .264-.073c.278-.047 16.176-.049 16.463-.002M5.1 17.374a.994.994 0 0 0-.043 1.799c.162.086.178.087 2.443.087 2.27 0 2.281 0 2.444-.088.338-.181.548-.522.548-.892 0-.4-.213-.725-.592-.905l-.2-.094H5.3l-.2.093" fill="#667085" fill-rule="evenodd"/></svg>