<svg width="24" height="24" fill="none" xmlns="http://www.w3.org/2000/svg"><path d="M4.692 2.043c-.838.076-1.499.324-2.126.797-.698.526-1.233 1.341-1.424 2.166-.134.578-.147 1.121-.131 5.314.013 3.66.023 4.178.082 4.467.196.967.729 1.825 1.479 2.384.531.395.91.569 1.568.721.345.079.491.083 3.61.098l3.25.014V20H9.447c-1.79 0-1.859.01-2.145.296a.985.985 0 0 0-.176 1.173c.112.216.365.428.585.489.098.028 1.561.041 4.309.04 3.371-.001 4.188-.012 4.31-.055.221-.079.414-.241.539-.454.095-.161.111-.233.111-.489s-.016-.328-.111-.489a1.24 1.24 0 0 0-.248-.293c-.27-.206-.385-.218-2.067-.218H13v-1.996l3.25-.014c3.119-.015 3.265-.019 3.61-.098.692-.16 1.199-.406 1.71-.829.692-.575 1.148-1.354 1.338-2.288.067-.33.072-.672.072-4.775 0-4.895.009-4.703-.263-5.456-.371-1.024-1.365-1.978-2.417-2.317-.649-.21-.311-.201-8.06-.21-3.949-.004-7.345.008-7.548.026M18.78 4.04c.352.021.744.066.872.099.554.145 1.067.659 1.209 1.212.109.427.138 1.38.138 4.629.001 3.239-.03 4.294-.136 4.691-.105.393-.455.821-.872 1.065-.421.246-.147.237-7.611.254-6.854.015-7.559.004-8.051-.127-.531-.141-1.048-.668-1.19-1.213-.107-.411-.138-1.453-.138-4.65 0-3.205.031-4.239.139-4.654.103-.394.412-.789.819-1.046.232-.146.577-.223 1.156-.258.764-.046 12.916-.048 13.665-.002" fill="#667085" fill-rule="evenodd"/></svg>