<svg width="24" height="24" fill="none" xmlns="http://www.w3.org/2000/svg"><path d="M3.656 2.04a2.873 2.873 0 0 0-1.676.768 2.91 2.91 0 0 0-.94 1.832c-.03.236-.04 1.945-.032 5.6l.012 5.26.112.36a3.01 3.01 0 0 0 2.428 2.098c.153.025 1.119.042 2.349.042h2.088l.012 1.631.011 1.631.102.199c.115.223.366.435.589.497.097.027 1.25.041 3.309.04 2.536-.001 3.19-.012 3.31-.055.221-.079.414-.241.539-.454l.111-.189.012-1.648.011-1.648 2.249-.014c1.972-.013 2.28-.024 2.507-.084a3.08 3.08 0 0 0 2.15-2.167c.066-.261.071-.626.071-5.739 0-5.224-.003-5.472-.075-5.74-.293-1.086-1.081-1.866-2.192-2.168-.235-.065-.827-.07-8.513-.076-4.543-.003-8.388.008-8.544.024m16.276 2c.426.036.49.051.647.159.265.183.336.33.381.787.05.523.05 9.508-.001 10.032-.03.316-.059.428-.139.549-.155.234-.358.347-.702.392-.399.052-15.833.052-16.232 0-.349-.045-.522-.141-.687-.38-.108-.157-.123-.221-.159-.647-.051-.621-.051-9.241 0-9.862.033-.401.055-.494.143-.627.179-.271.366-.363.81-.4.573-.047 15.37-.05 15.939-.003M14 19v1h-4v-2h4v1" fill="#667085" fill-rule="evenodd"/></svg>