<svg width="24" height="24" fill="none" xmlns="http://www.w3.org/2000/svg"><path d="M13.632 3.041c-1.067.128-2.045.881-2.412 1.856-.229.607-.223.408-.211 7.286l.011 6.317.112.36a3.009 3.009 0 0 0 2.448 2.101c.187.028 1.388.038 3.6.029 3.006-.013 3.345-.02 3.579-.084a3.08 3.08 0 0 0 2.15-2.167c.067-.262.071-.666.071-6.739 0-6.203-.003-6.471-.075-6.74-.293-1.086-1.088-1.872-2.192-2.167-.227-.061-.596-.069-3.533-.076-1.804-.005-3.4.006-3.548.024m-9.976 2c-1.105.116-2.108.905-2.46 1.934-.193.562-.201.756-.187 4.265l.012 3.26.111.36a3.011 3.011 0 0 0 2.428 2.098c.414.066 4.582.052 4.77-.015.221-.079.414-.241.539-.454.095-.161.111-.233.111-.489s-.016-.328-.111-.489a1.24 1.24 0 0 0-.248-.293c-.277-.211-.352-.218-2.477-.219-1.08-.001-2.096-.019-2.258-.04-.349-.045-.522-.141-.687-.38-.108-.157-.123-.221-.159-.647-.05-.612-.05-5.25 0-5.862.044-.534.119-.7.403-.887.225-.149.732-.181 2.917-.184 1.414-.002 1.853-.014 1.97-.056.221-.079.414-.241.539-.454.095-.161.111-.233.111-.489s-.016-.328-.111-.489a1.24 1.24 0 0 0-.248-.293c-.28-.214-.339-.218-2.597-.213-1.146.003-2.212.019-2.368.036m16.276-.001c.426.036.49.051.647.159.265.183.336.33.381.787.051.526.051 11.505-.001 12.032-.03.316-.059.428-.139.549-.155.234-.358.347-.702.392-.388.05-5.845.051-6.232 0-.349-.045-.522-.141-.687-.38-.108-.157-.123-.221-.159-.647-.052-.626-.052-11.236 0-11.862.033-.401.055-.494.143-.627.179-.271.366-.363.81-.4.563-.046 5.384-.049 5.939-.003m-3.22 3.011a.998.998 0 0 0-.508 1.548c.259.358.777.497 1.189.32a.995.995 0 0 0 .111-1.779c-.205-.12-.575-.162-.792-.089m-.167 5.012c-1.059.257-1.751 1.371-1.485 2.392.1.384.262.667.54.945.798.799 2.006.801 2.804.004.789-.79.794-1.991.011-2.792a1.962 1.962 0 0 0-1.87-.549M5.24 19.037a1.097 1.097 0 0 0-.669.598c-.079.189-.074.546.01.755.084.211.396.498.61.562.237.072 2.936.063 3.139-.009.221-.079.414-.241.539-.454.095-.161.111-.233.111-.489s-.016-.328-.111-.489a1.24 1.24 0 0 0-.248-.293c-.267-.204-.397-.218-1.897-.215-.761.002-1.429.018-1.484.034" fill="#667085" fill-rule="evenodd"/></svg>