<svg width="24" height="24" fill="none" xmlns="http://www.w3.org/2000/svg"><path d="M4.692 2.043c-.838.076-1.499.324-2.126.797-.698.526-1.233 1.341-1.424 2.166-.134.578-.147 1.121-.131 5.314.013 3.66.023 4.178.082 4.467.196.966.728 1.824 1.479 2.384.539.402.985.601 1.656.737.331.068.794.072 7.772.072 6.995 0 7.44-.004 7.775-.072 1.635-.333 2.8-1.498 3.133-3.133.067-.33.072-.672.072-4.775 0-4.895.009-4.703-.263-5.456-.371-1.024-1.365-1.978-2.417-2.317-.649-.21-.311-.201-8.06-.21-3.949-.004-7.345.008-7.548.026M18.78 4.04c.352.021.744.066.872.099.554.145 1.067.659 1.209 1.212.109.427.138 1.38.138 4.629.001 3.239-.03 4.294-.136 4.691-.105.393-.455.821-.872 1.065-.421.246-.147.237-7.611.254-6.854.015-7.559.004-8.051-.127-.531-.141-1.048-.668-1.19-1.213-.107-.411-.138-1.453-.138-4.65 0-3.205.031-4.239.139-4.654.103-.394.412-.789.819-1.046.232-.146.577-.223 1.156-.258.764-.046 12.916-.048 13.665-.002m-7.5 14.984c-1.465.129-2.811.461-3.86.952-.626.294-.834.549-.834 1.024 0 .564.438 1 1.005 1 .123 0 .324-.062.662-.205 1.328-.563 2.336-.77 3.747-.77s2.419.207 3.747.77c.527.223.715.25 1.009.147a.944.944 0 0 0 .538-.458c.197-.363.182-.686-.052-1.054-.106-.168-.168-.212-.58-.411-.863-.419-2.097-.772-3.207-.92-.46-.061-1.808-.107-2.175-.075" fill="#667085" fill-rule="evenodd"/></svg>