<svg width="24" height="24" fill="none" xmlns="http://www.w3.org/2000/svg"><path d="M4.692 2.043c-1.35.123-2.46.8-3.115 1.902-.316.531-.461.999-.535 1.729-.054.532-.056 8.609-.002 9.395.067.975.221 1.503.618 2.111.605.929 1.458 1.502 2.57 1.728.331.068.794.072 7.772.072 6.995 0 7.44-.004 7.775-.072a4.205 4.205 0 0 0 1.25-.46c.841-.492 1.535-1.373 1.771-2.25.181-.67.184-.759.184-5.818 0-5.319.011-5.079-.263-5.836-.371-1.024-1.365-1.978-2.417-2.317-.649-.21-.311-.201-8.06-.21-3.949-.004-7.345.008-7.548.026M18.78 4.04c.352.021.744.066.872.099.554.145 1.067.659 1.209 1.212.109.425.138 1.374.138 4.519L21 13H3V9.93c.001-3.139.032-4.171.14-4.584.103-.394.412-.789.819-1.046.232-.146.577-.223 1.156-.258.764-.046 12.916-.048 13.665-.002m2.047 11.406c-.024.406-.037.462-.148.636a2.3 2.3 0 0 1-.688.654c-.421.246-.147.237-7.611.254-6.854.015-7.559.004-8.051-.127-.373-.099-.785-.426-1.022-.808-.087-.141-.106-.233-.13-.61L3.149 15H20.852l-.025.446m-13.16 4.619c-.402.123-.699.584-.658 1.018.038.395.344.776.702.875.098.028 1.561.041 4.309.04 3.371-.001 4.188-.012 4.31-.055.221-.079.414-.241.539-.454.095-.161.111-.233.111-.489s-.016-.328-.111-.489a.962.962 0 0 0-.574-.454c-.287-.087-8.345-.079-8.628.008" fill="#667085" fill-rule="evenodd"/></svg>