<svg width="24" height="24" fill="none" xmlns="http://www.w3.org/2000/svg"><path d="M11.041 1.042a11.105 11.105 0 0 0-5.893 2.366c-.224.177-.66.576-.968.887A10.922 10.922 0 0 0 2.123 16.82c.553 1.13 1.193 2.018 2.116 2.941s1.811 1.563 2.941 2.116a10.98 10.98 0 0 0 7.965.661c.593-.179 1.434-.511 1.706-.674.768-.461.67-1.533-.167-1.818-.075-.025-.359-.046-.632-.046-3.126 0-5.906-1.735-7.251-4.526-1.738-3.606-.538-7.958 2.799-10.152 1.291-.85 2.597-1.247 4.327-1.316.842-.034.901-.049 1.149-.293a.985.985 0 0 0-.041-1.448c-.296-.253-1.47-.713-2.405-.942a10.624 10.624 0 0 0-2.41-.301c-.44-.01-.97-.001-1.179.02m.419 2.145c-.341.175-.865.496-1.22.747-1.932 1.366-3.322 3.35-3.917 5.59-.241.906-.299 1.392-.299 2.476 0 .831.013 1.059.089 1.5.246 1.438.748 2.723 1.507 3.86a9.101 9.101 0 0 0 1.282 1.572c.733.733 1.611 1.389 2.411 1.802.202.105.367.195.367.201 0 .02-.447-.018-.902-.078-2.176-.284-4.267-1.426-5.664-3.092a9.002 9.002 0 0 1-2.02-4.485c-.097-.633-.097-1.927 0-2.56.47-3.083 2.401-5.621 5.236-6.884.955-.426 2.258-.742 3.09-.75l.24-.002-.2.103m8.207 1.876c-.369.117-.667.538-.667.939 0 .236.088.424.46.978a9.023 9.023 0 0 1 1.446 3.74c.097.634.097 1.926 0 2.56a9.017 9.017 0 0 1-1.446 3.74c-.408.608-.479.78-.448 1.086a.998.998 0 0 0 1.493.753c.209-.123.529-.536.917-1.187.783-1.314 1.254-2.651 1.484-4.212.053-.357.071-.731.071-1.46s-.018-1.103-.071-1.46c-.232-1.575-.737-2.996-1.519-4.274-.392-.64-.681-1.007-.885-1.127a1.082 1.082 0 0 0-.835-.076" fill="#667085" fill-rule="evenodd"/></svg>