<svg width="24" height="24" fill="none" xmlns="http://www.w3.org/2000/svg"><path d="M10.64 1.066c-1.393.216-2.258.471-3.305.973-1.238.594-2.101 1.205-3.077 2.18-.908.907-1.504 1.722-2.043 2.792-.81 1.611-1.18 3.169-1.18 4.969 0 2.535.831 4.896 2.43 6.9.348.437 1.218 1.307 1.655 1.655 2.004 1.599 4.365 2.43 6.9 2.43 1.331 0 2.499-.199 3.699-.631 3.094-1.116 5.554-3.568 6.648-6.63.321-.897.54-1.866.581-2.566.021-.357.013-.423-.064-.599-.112-.253-.216-.362-.463-.488a.839.839 0 0 0-.44-.1c-.456.002-.641.135-1.037.743-.656 1.011-1.381 1.719-2.357 2.305a7.222 7.222 0 0 1-2.532.901 8.483 8.483 0 0 1-2.07 0c-2.932-.438-5.238-2.647-5.833-5.587-.08-.392-.092-.572-.091-1.333 0-.757.013-.944.092-1.337a7.196 7.196 0 0 1 1.802-3.498c.303-.319.875-.78 1.354-1.092.51-.331.663-.507.732-.839.091-.436-.111-.85-.516-1.062-.181-.095-.258-.111-.5-.107-.157.003-.33.013-.385.021M6.938 5.06a9.638 9.638 0 0 0-.861 2.9c-.072.538-.052 1.694.039 2.3a9.06 9.06 0 0 0 .907 2.823c.445.868.901 1.487 1.654 2.24.753.753 1.372 1.209 2.24 1.654 2.536 1.297 5.471 1.331 8.003.092l.536-.262c.066-.032-.377.581-.694.96-1.438 1.719-3.406 2.824-5.59 3.136-.64.092-1.735.083-2.434-.02-4.076-.599-7.18-3.803-7.656-7.903-.059-.508-.051-1.604.016-2.1.331-2.462 1.651-4.619 3.741-6.113.187-.133.343-.239.347-.234.005.004-.107.242-.248.527" fill="#667085" fill-rule="evenodd"/></svg>