<svg width="24" height="24" fill="none" xmlns="http://www.w3.org/2000/svg"><path d="M17.68 1.061c-.358.112-.429.209-1.045 1.427-.753 1.491-.667 1.404-2.122 2.134-1.188.596-1.331.699-1.448 1.042a.946.946 0 0 0-.004.661c.123.36.213.426 1.427 1.04 1.49.753 1.394.657 2.147 2.147.614 1.214.68 1.304 1.04 1.427a.943.943 0 0 0 .65 0c.36-.123.426-.213 1.04-1.427.753-1.49.657-1.394 2.147-2.147 1.214-.614 1.304-.68 1.427-1.04a.946.946 0 0 0-.004-.661c-.117-.343-.26-.446-1.448-1.042-1.455-.73-1.369-.643-2.122-2.134-.622-1.229-.687-1.317-1.062-1.429a.92.92 0 0 0-.623.002m-7.56 1.004A10.526 10.526 0 0 0 2.057 7.94a10.475 10.475 0 0 0 2.044 11.959c4.52 4.519 11.981 3.987 15.826-1.128a10.548 10.548 0 0 0 2.011-4.936c.051-.392.052-.497.007-.668a.942.942 0 0 0-.403-.585c-.335-.217-.672-.229-1.027-.035-.167.091-.247.182-.532.61-.396.596-.831 1.105-1.25 1.462a6.78 6.78 0 0 1-3.053 1.507c-.363.078-.54.091-1.3.092-.777.002-.931-.009-1.318-.092-2.388-.513-4.237-2.16-4.98-4.438-.249-.762-.302-1.14-.299-2.108.002-.711.016-.905.092-1.26.317-1.49 1.106-2.823 2.222-3.752.2-.167.561-.433.803-.593.242-.159.47-.332.506-.384.087-.126.194-.447.194-.582a1.027 1.027 0 0 0-.506-.856c-.258-.138-.47-.157-.974-.088m8.06 2.445c.226.438.872 1.084 1.31 1.31.17.088.309.169.309.18 0 .011-.139.092-.309.18-.438.226-1.084.872-1.31 1.31-.088.17-.169.309-.18.309-.011 0-.092-.138-.18-.306-.274-.525-.992-1.202-1.494-1.41-.069-.029-.126-.064-.126-.078.001-.014.14-.097.31-.185.438-.226 1.084-.872 1.31-1.31.088-.17.169-.309.18-.309.011 0 .092.139.18.309M6.651 5.929a8.796 8.796 0 0 0-.795 2.58c-.084.577-.083 1.656.002 2.263.481 3.46 3.008 6.307 6.362 7.168a7.827 7.827 0 0 0 2.14.27 8.166 8.166 0 0 0 3.703-.854c.222-.108.416-.196.431-.196.052 0-.466.676-.789 1.029-1.347 1.475-2.918 2.36-4.813 2.713-.553.103-1.796.123-2.454.039-2.842-.361-5.273-2.095-6.569-4.685-.627-1.251-.898-2.521-.858-4.014.03-1.104.176-1.826.567-2.794.472-1.172 1.197-2.201 2.2-3.125.329-.303 1.029-.846 1.058-.82.008.008-.075.2-.185.426" fill="#667085" fill-rule="evenodd"/></svg>