<svg width="24" height="24" fill="none" xmlns="http://www.w3.org/2000/svg"><path d="M7.88 1.035a8.85 8.85 0 0 0-.553.261 11.485 11.485 0 0 0-6.062 7.788c-.199.895-.243 1.338-.242 2.456 0 1.116.06 1.678.278 2.607a11.594 11.594 0 0 0 4.533 6.731c1.46 1.042 3.149 1.719 5.006 2.008.834.129 2.439.13 3.26.002 3.084-.481 5.701-2.045 7.557-4.515.515-.686 1.1-1.695 1.282-2.21.163-.462-.027-.943-.469-1.186-.32-.176-.612-.162-1.121.054-1.265.537-2.495.76-3.967.718-1.429-.041-2.57-.325-3.882-.968A9.254 9.254 0 0 1 9.221 10.5c-.629-1.279-.919-2.437-.968-3.86a9.377 9.377 0 0 1 .688-3.926c.223-.544.249-.71.162-1.01a.987.987 0 0 0-.519-.6c-.173-.082-.553-.119-.704-.069M6.383 4.649c-.175 1.003-.185 2.367-.025 3.368.395 2.477 1.489 4.63 3.242 6.383 1.756 1.756 3.882 2.835 6.403 3.248.455.074.698.088 1.597.089.922.001 1.127-.011 1.576-.089.284-.049.523-.083.531-.074.035.035-.95 1.015-1.323 1.315-1.31 1.056-2.725 1.69-4.453 1.997-.686.122-2.15.133-2.831.021-2.034-.333-3.736-1.16-5.144-2.498-1.583-1.505-2.575-3.464-2.882-5.689-.076-.557-.066-1.91.02-2.494a9.552 9.552 0 0 1 1.801-4.337c.299-.402 1.484-1.643 1.528-1.6.01.011-.007.173-.04.36" fill="#667085" fill-rule="evenodd"/></svg>