<svg width="24" height="24" fill="none" xmlns="http://www.w3.org/2000/svg"><path d="M11.42 1.023c-.066.009-.291.037-.5.061-.524.06-1.35.277-1.889.497a8.027 8.027 0 0 0-4.99 6.599c-.054.48-.054 7.16 0 7.64a8.117 8.117 0 0 0 1.604 4.029c.321.425 1.081 1.185 1.506 1.506 2.907 2.196 6.79 2.192 9.709-.009.411-.31 1.176-1.075 1.486-1.486a8.118 8.118 0 0 0 1.613-4.04c.054-.48.054-7.16 0-7.64-.405-3.63-3.164-6.528-6.739-7.081-.39-.06-1.561-.11-1.8-.076m1.744 2.094c2.43.485 4.283 2.37 4.741 4.823.07.372.075.654.075 4.06 0 3.406-.005 3.688-.075 4.06-.417 2.234-2.012 4.032-4.146 4.674-.691.208-.967.246-1.779.243-.836-.002-1.192-.058-1.904-.296a5.966 5.966 0 0 1-3.77-3.803c-.292-.896-.286-.793-.286-4.878 0-3.406.005-3.688.075-4.06a6.02 6.02 0 0 1 2.532-3.904c.798-.541 1.757-.886 2.813-1.012.313-.038 1.353.018 1.724.093m-1.521 1.952a1.066 1.066 0 0 0-.577.591c-.057.168-.066.413-.066 1.84 0 1.871.005 1.907.299 2.201a.984.984 0 0 0 1.402 0c.294-.294.299-.33.299-2.201s-.005-1.907-.299-2.201a.998.998 0 0 0-1.058-.23" fill="#667085" fill-rule="evenodd"/></svg>