<svg width="24" height="24" fill="none" xmlns="http://www.w3.org/2000/svg"><path d="M11.64 1.068c-.152.053-.431.312-1.811 1.687-1.711 1.704-1.784 1.791-1.82 2.167C7.956 5.477 8.437 6 9 6c.364 0 .496-.088 1.27-.854l.73-.721V11H4.425l.721-.73C5.912 9.496 6 9.364 6 9c0-.563-.523-1.044-1.078-.991-.376.036-.463.109-2.167 1.82-1.453 1.459-1.631 1.652-1.69 1.828a.987.987 0 0 0 0 .686c.059.176.237.369 1.69 1.828 1.704 1.711 1.791 1.784 2.167 1.82C5.477 16.044 6 15.563 6 15c0-.364-.088-.496-.854-1.27L4.425 13H11V19.575l-.73-.721C9.496 18.088 9.364 18 9 18c-.563 0-1.044.523-.991 1.078.036.376.109.463 1.82 2.167 1.459 1.453 1.652 1.631 1.828 1.69a.987.987 0 0 0 .686 0c.176-.059.369-.237 1.828-1.69 1.711-1.704 1.784-1.791 1.82-2.167C16.044 18.523 15.563 18 15 18c-.364 0-.496.088-1.27.854l-.73.721V13H19.575l-.721.73c-.611.618-.732.76-.788.927-.13.388-.046.765.233 1.044.278.278.655.363 1.044.234.176-.059.369-.237 1.828-1.69 1.113-1.109 1.658-1.679 1.714-1.795.057-.117.083-.255.086-.44.005-.456-.017-.483-1.818-2.275-1.441-1.433-1.634-1.611-1.81-1.67-.389-.129-.766-.044-1.044.234-.279.279-.363.656-.233 1.044.056.167.177.309.788.927l.721.73H13V4.425l.73.721c.774.766.906.854 1.27.854.563 0 1.044-.523.991-1.078-.036-.376-.109-.463-1.82-2.167-1.459-1.453-1.652-1.631-1.828-1.69a1.053 1.053 0 0 0-.703.003" fill="#667085" fill-rule="evenodd"/></svg>