<svg width="24" height="24" fill="none" xmlns="http://www.w3.org/2000/svg"><path d="M19.56 2.042c-.099.018-2.415.41-5.148.87-4.852.818-4.975.84-5.275.983-.366.174-.739.53-.906.866-.24.484-.231.277-.231 5.238v4.543l-.43-.211c-.612-.299-.948-.38-1.59-.382-1.095-.003-1.983.37-2.783 1.169-.833.832-1.233 1.847-1.184 3.002.045 1.036.411 1.894 1.124 2.634 1.268 1.315 3.15 1.62 4.731.767.984-.531 1.697-1.44 2.007-2.561l.105-.38.011-6.426c.009-5.515.019-6.429.068-6.448a30.75 30.75 0 0 1 1.129-.203c5.808-.98 8.237-1.385 8.477-1.413l.286-.034.024.202c.035.294.031 8.271-.005 8.255a9.957 9.957 0 0 1-.289-.149c-.59-.306-1.122-.444-1.72-.444-1.195 0-2.395.603-3.122 1.568a3.983 3.983 0 0 0-.827 2.664c.095 1.871 1.414 3.385 3.288 3.772.132.028.465.049.74.047.401-.003.579-.024.899-.107 1.431-.372 2.53-1.469 2.931-2.925l.11-.399.011-6.35c.009-5.603.003-6.382-.051-6.616-.248-1.071-1.276-1.733-2.38-1.532m-1.24 11.92c1.076.17 1.827 1.228 1.642 2.312a1.996 1.996 0 0 1-2.922 1.443c-.453-.242-.864-.779-.978-1.279-.217-.954.198-1.869 1.033-2.278.442-.218.769-.27 1.225-.198M6.505 16.016c1.193.317 1.827 1.685 1.3 2.804a1.992 1.992 0 0 1-2.92.817c-.308-.205-.493-.422-.667-.777a2.018 2.018 0 0 1 1.262-2.843c.244-.067.774-.068 1.025-.001" fill="#667085" fill-rule="evenodd"/></svg>