<svg width="24" height="24" fill="none" xmlns="http://www.w3.org/2000/svg"><path d="M15.023 2.365c-.494.116-1.044.551-1.295 1.024-.255.482-.247.282-.247 5.844-.001 2.78-.014 5.048-.031 5.04a43.204 43.204 0 0 1-.37-.179c-.453-.22-.826-.331-1.25-.371-1.612-.149-3.196.748-3.912 2.217-.232.477-.34.849-.398 1.376-.125 1.143.319 2.358 1.17 3.198a3.966 3.966 0 0 0 1.738 1.033c.324.1.408.109 1.052.111.767.002 1.005-.042 1.613-.301.925-.394 1.805-1.324 2.148-2.271.273-.757.252-.157.277-7.753.012-3.787.033-6.897.046-6.911.043-.042.605.222 2.667 1.253 1.987.993 2.015 1.005 2.263 1.005a.969.969 0 0 0 .996-1.001.994.994 0 0 0-.317-.72c-.184-.162-4.872-2.504-5.163-2.58a2.665 2.665 0 0 0-.987-.014m-8.74.359c-.361.07-.681.389-.76.76-.024.112-.043.639-.043 1.198v.998h-.975c-1.065 0-1.326.03-1.554.181-.627.415-.58 1.363.084 1.708l.214.111H5.48v.998c0 .567.019 1.086.043 1.201.065.299.255.556.512.69a.995.995 0 0 0 1.442-.69c.024-.115.043-.634.043-1.201V7.68h2.231l.214-.111c.664-.345.711-1.293.084-1.708-.228-.151-.489-.181-1.552-.181h-.971l-.013-1.11c-.015-1.218-.022-1.258-.27-1.54-.224-.256-.599-.375-.96-.306m5.797 13.063c.562.153 1.026.579 1.279 1.173.129.304.16.926.062 1.261a1.878 1.878 0 0 1-.517.883 1.872 1.872 0 0 1-1.404.576c-.565 0-1.01-.183-1.404-.576a1.878 1.878 0 0 1-.517-.883c-.098-.335-.067-.957.062-1.261.421-.99 1.394-1.458 2.439-1.173" fill="#667085" fill-rule="evenodd"/></svg>