<svg width="24" height="24" fill="none" xmlns="http://www.w3.org/2000/svg"><path d="M12.491 2.382a2.058 2.058 0 0 0-1.43 1.44c-.053.205-.061.887-.061 5.361v5.127l-.29-.152c-.713-.373-1.354-.506-2.106-.435-2.111.2-3.71 2.067-3.592 4.194.056.991.45 1.865 1.167 2.587a3.978 3.978 0 0 0 2.158 1.134c.306.054 1.02.054 1.326 0 1.537-.272 2.758-1.384 3.204-2.918l.111-.38.022-6.96c.013-3.828.027-6.966.031-6.973.025-.036.374.128 2.415 1.141 1.942.964 2.255 1.107 2.451 1.123.295.025.542-.048.743-.22.243-.209.337-.415.338-.751.002-.319-.069-.502-.275-.703-.167-.163-4.932-2.562-5.223-2.629a2.456 2.456 0 0 0-.989.014M9.539 15.768c.991.249 1.644 1.351 1.404 2.368A1.958 1.958 0 0 1 9 19.679a1.969 1.969 0 0 1-1.986-2.123c.094-1.268 1.273-2.103 2.525-1.788" fill="#667085" fill-rule="evenodd"/></svg>