<svg width="24" height="24" fill="none" xmlns="http://www.w3.org/2000/svg"><path d="M21.08 1.06c-.25.061-18.724 7.261-19.143 7.462-.647.308-.986.878-.923 1.549.049.529.348.955.855 1.219.149.078 1.945.792 3.991 1.588 2.046.796 3.741 1.468 3.768 1.495.026.026.68 1.676 1.453 3.667.774 1.991 1.483 3.782 1.576 3.98.202.429.421.664.767.827.799.376 1.686.026 2.076-.819.223-.484 7.369-18.831 7.437-19.094.084-.326.08-.552-.016-.86a1.57 1.57 0 0 0-1.044-1.011 1.456 1.456 0 0 0-.797-.003m-.578 2.49c-.43 1.137-6.409 16.41-6.424 16.41-.013 0-.605-1.498-1.315-3.33-.711-1.831-1.347-3.416-1.413-3.522a1.584 1.584 0 0 0-.61-.538 215.92 215.92 0 0 0-3.43-1.352c-1.799-.699-3.27-1.282-3.27-1.295 0-.022 16.381-6.433 16.454-6.44.019-.002.023.028.008.067" fill="#667085" fill-rule="evenodd"/></svg>