<svg width="24" height="24" fill="none" xmlns="http://www.w3.org/2000/svg"><path d="M1.643 1.069C1.291 1.193 1 1.614 1 2c0 .08.029.234.065.343.059.18.354.486 3.377 3.517l3.313 3.32-2.44 5.56c-1.341 3.058-2.492 5.71-2.557 5.893-.141.399-.153.708-.041 1.029.163.463.543.82 1.022.959.267.078.557.063.881-.045.11-.037 1.814-.776 3.787-1.643l3.588-1.576 3.512 1.546c1.932.85 3.669 1.597 3.859 1.661.585.196.908.15 1.201-.174l.188-.207.354.342c.484.466.777.564 1.231.409.547-.186.807-.843.547-1.378-.063-.13-2.761-2.85-10.216-10.301C3.299 1.888 2.525 1.125 2.343 1.065a1.038 1.038 0 0 0-.7.004m9.88.757c-.396.138-.675.401-.899.845-.075.151-.358.777-.628 1.391-.396.902-.494 1.163-.508 1.349-.058.758.749 1.3 1.419.955.286-.147.402-.318.753-1.11l.336-.756.089.2 1.518 3.46c.905 2.063 1.474 3.313 1.551 3.404a.963.963 0 0 0 .746.327c.397-.002.707-.188.876-.526.126-.252.15-.448.083-.696-.092-.343-3.483-8.026-3.649-8.267a1.416 1.416 0 0 0-1.222-.64c-.158.001-.368.03-.465.064M14 15.421c4.473 4.474 4.688 4.697 4.46 4.596L15.4 18.67c-1.551-.683-2.899-1.266-2.996-1.296a1.556 1.556 0 0 0-.875.024c-.126.043-1.615.689-3.309 1.435a216.764 216.764 0 0 1-3.091 1.348c-.016-.014 4.128-9.459 4.151-9.46.011-.001 2.135 2.115 4.72 4.7" fill="#667085" fill-rule="evenodd"/></svg>