<svg width="24" height="24" fill="none" xmlns="http://www.w3.org/2000/svg"><path d="M20.24 2.059c-.376.097-9.251 3.577-9.418 3.693a.98.98 0 0 0-.274.329c-.102.193-.113.249-.096.471.025.327.176.58.446.747.166.102.236.121.459.121.251 0 .435-.067 4.143-1.515a4670.25 4670.25 0 0 1 4.069-1.589l.188-.074-.041.109L18.13 8.42c-1.718 4.402-1.667 4.241-1.47 4.643a.92.92 0 0 0 1.542.187c.097-.116.542-1.214 1.884-4.651.966-2.474 1.794-4.633 1.84-4.798.102-.365.085-.663-.057-.973a1.39 1.39 0 0 0-1.629-.769m-17.121.619a.93.93 0 0 0-.517.842c0 .412.023.441 1.867 2.288 1.615 1.617 1.701 1.71 1.609 1.746-1.736.675-3.12 1.226-3.276 1.305-.725.367-.998 1.163-.646 1.88.146.295.31.452.656.627.136.069 1.768.717 3.626 1.44 1.858.722 3.392 1.328 3.41 1.346.018.018.624 1.552 1.346 3.41.723 1.858 1.371 3.49 1.44 3.626.176.349.332.51.639.661.237.117.302.131.606.131.291 0 .378-.017.591-.116.287-.132.516-.359.673-.669.083-.166.632-1.544 1.303-3.273.036-.092.13-.005 1.746 1.609 1.847 1.844 1.876 1.867 2.288 1.867.654 0 1.09-.62.883-1.258-.043-.133-1.48-1.589-8.657-8.771-5.905-5.909-8.657-8.636-8.769-8.69-.215-.105-.621-.105-.818-.001M14.69 17.234l-.568 1.46-.231.595-.224-.575-1.204-3.091c-.577-1.483-1.028-2.585-1.096-2.68-.065-.09-.2-.222-.3-.295-.124-.09-1.15-.509-3.215-1.312-1.667-.65-3.046-1.195-3.063-1.212-.018-.017.612-.283 1.4-.592l1.431-.561 3.704 3.698 3.704 3.699-.338.866" fill="#667085" fill-rule="evenodd"/></svg>