<svg width="24" height="24" fill="none" xmlns="http://www.w3.org/2000/svg"><path d="M17.356 2.058a3.999 3.999 0 0 0-3.148 2.702c-.149.467-.186.728-.182 1.28.003.445.022.611.108.94a4.024 4.024 0 0 0 2.887 2.886c.344.091.479.106.979.106s.635-.015.98-.106c1.869-.495 3.102-2.154 3.007-4.046-.075-1.497-.906-2.763-2.242-3.415-.691-.338-1.621-.472-2.389-.347M5.82 3.027c-1.431.118-2.444.693-3.166 1.798-.362.554-.533 1.07-.612 1.849-.057.564-.058 11.086 0 11.643.12 1.174.607 2.108 1.449 2.782.649.52 1.331.779 2.265.863.306.028 2.384.037 6.084.027 5.064-.013 5.652-.021 5.948-.082a3.985 3.985 0 0 0 2.276-1.339c.422-.509.669-1.018.827-1.708.079-.342.084-.5.098-3.22l.015-2.86-.112-.22a.993.993 0 0 0-1.831.118c-.052.146-.061.512-.061 2.417-.001 2.274-.035 3.184-.137 3.573-.073.278-.258.563-.525.807-.272.249-.491.354-.907.438-.299.06-.869.066-5.931.066-5.048 0-5.632-.006-5.929-.066-.434-.087-.657-.203-.953-.493a1.798 1.798 0 0 1-.543-1.08c-.033-.226-.052-1.77-.064-5.26-.017-5.043.006-6.261.129-6.732.115-.443.514-.914.952-1.124.367-.176.64-.193 3.408-.21 1.747-.01 2.656-.03 2.772-.061.411-.107.687-.456.717-.906.015-.234.004-.294-.096-.487-.126-.244-.369-.453-.604-.518-.136-.038-5.032-.051-5.469-.015M18.492 4.06c.36.093.626.25.912.536.403.403.596.858.596 1.404 0 .547-.189.988-.599 1.403-.624.629-1.508.771-2.307.371-.766-.384-1.225-1.32-1.055-2.154.149-.73.74-1.367 1.445-1.557a2.271 2.271 0 0 1 1.008-.003M6.665 12.059a.994.994 0 0 0-.363 1.637c.323.323.03.304 4.7.304 3.609 0 4.17-.008 4.32-.061.404-.142.638-.456.667-.892.015-.234.004-.294-.096-.487-.126-.244-.369-.453-.604-.518-.098-.028-1.561-.041-4.309-.04-3.433.001-4.187.011-4.315.057m0 4a.994.994 0 0 0-.363 1.637c.318.318.148.304 3.7.304 2.714 0 3.172-.008 3.32-.061.404-.142.638-.456.667-.892.015-.234.004-.294-.096-.487-.126-.244-.369-.453-.604-.518-.097-.027-1.25-.041-3.309-.04-2.583.001-3.188.012-3.315.057" fill="#667085" fill-rule="evenodd"/></svg>