<svg width="24" height="24" fill="none" xmlns="http://www.w3.org/2000/svg"><path d="M11.34 1.184a3.52 3.52 0 0 0-.26.084c-.238.084-8.188 4.494-8.509 4.72a2.15 2.15 0 0 0-.704.921l-.087.231v4.84c0 4.6.004 4.851.074 5.06.098.294.383.715.606.898.253.207 8.341 4.699 8.66 4.81.359.124.878.125 1.24.001.431-.147 1.032-.503 1.181-.699a.98.98 0 0 0 .087-1.07c-.119-.212-.419-.411-.671-.444l-.197-.026.001-3.965.002-3.965 3.461-1.92a620.916 620.916 0 0 1 3.499-1.933c.022-.008.037.786.038 2 .001 2.245-.006 2.181.283 2.47a.993.993 0 0 0 1.657-.413c.088-.296.086-5.243-.002-5.617a1.83 1.83 0 0 0-.536-.968c-.248-.246-.499-.392-4.395-2.555-2.273-1.261-4.226-2.33-4.34-2.374-.204-.079-.893-.134-1.088-.086m3.866 3.884c1.889 1.049 3.434 1.92 3.434 1.935 0 .015-.538.326-1.196.691l-1.196.664-3.446-1.915a681.194 681.194 0 0 1-3.464-1.931c-.02-.02 2.361-1.351 2.418-1.352.009 0 1.561.858 3.45 1.908M10.833 7.64c1.833 1.018 3.318 1.864 3.3 1.882-.018.017-.56.323-1.205.681-1.142.633-1.175.648-1.286.593C11.353 10.653 4.84 7.018 4.841 7c0-.011.544-.321 1.208-.688l1.207-.669.122.074c.067.04 1.622.906 3.455 1.923M7.44 10.751l3.3 1.836.01 3.846c.006 2.116-.001 3.847-.014 3.847-.014 0-1.589-.868-3.5-1.93L3.76 16.421V8.719l.19.098c.104.054 1.675.925 3.49 1.934m8.509 4.304c-.605.225-.863.843-.585 1.395.052.103.453.54 1.019 1.11l.934.94-.934.94c-.577.582-.969 1.009-1.027 1.12-.127.246-.129.631-.005.868.269.511.865.712 1.354.458.085-.044.577-.504 1.094-1.022l.938-.942.982.973c.889.882 1.001.98 1.196 1.044.665.219 1.323-.249 1.323-.939 0-.39-.075-.493-1.12-1.54l-.958-.961.944-.939c.705-.702.968-.991 1.04-1.14.328-.687-.242-1.495-.991-1.407-.34.041-.497.161-1.474 1.131l-.941.935-.919-.922c-.505-.507-.995-.968-1.089-1.023-.21-.125-.562-.161-.781-.079" fill="#667085" fill-rule="evenodd"/></svg>