<svg width="24" height="24" fill="none" xmlns="http://www.w3.org/2000/svg"><path d="M10.96 1.224c-.283.075-8.508 4.636-8.781 4.869-.25.214-.48.574-.59.925L1.5 7.3v9.4l.09.285c.105.334.344.71.59.927.227.199 8.355 4.718 8.7 4.837.341.117.85.123 1.199.014.243-.075 1.82-.923 2.07-1.113.071-.054.179-.2.239-.324.33-.673-.135-1.415-.89-1.423-.221-.003-.288.018-.613.188l-.365.191V12.58l3.47-1.928 3.47-1.928.02 2.248c.022 2.492.013 2.409.292 2.703a.99.99 0 0 0 1.473-.023c.264-.294.255-.169.255-3.412 0-2.924 0-2.942-.089-3.222a2.127 2.127 0 0 0-.59-.925c-.294-.251-8.501-4.795-8.799-4.872a2.47 2.47 0 0 0-1.062.003m4.002 3.846C16.853 6.12 18.4 6.99 18.4 7.002c0 .013-.54.323-1.2.689l-1.2.667-3.462-1.923c-1.904-1.058-3.453-1.933-3.442-1.944a87.294 87.294 0 0 1 2.396-1.329c.018-.001 1.579.857 3.47 1.908m-4.518 2.486a426.652 426.652 0 0 1 3.449 1.925c.03.026-2.317 1.359-2.393 1.359-.047 0-6.9-3.812-6.9-3.838 0-.027 2.37-1.356 2.404-1.348.013.003 1.561.859 3.44 1.902M7.313 10.82l3.167 1.76v3.852c0 2.119-.013 3.846-.03 3.837l-3.48-1.93-3.45-1.914v-7.71l.313.173c.172.094 1.738.964 3.48 1.932m7.927 6.217a1.046 1.046 0 0 0-.488.315c-.445.493-.272 1.265.348 1.554l.2.093h6.4l.2-.093a.994.994 0 0 0 .043-1.799l-.163-.087-3.22-.007c-1.771-.004-3.265.007-3.32.024" fill="#667085" fill-rule="evenodd"/></svg>