<svg width="24" height="24" fill="none" xmlns="http://www.w3.org/2000/svg"><path d="M10.96 1.224c-.283.075-8.508 4.636-8.781 4.869-.25.214-.48.574-.59.925L1.5 7.3v9.4l.09.285c.105.334.344.71.59.927.227.199 8.355 4.718 8.7 4.837.338.116.85.123 1.192.016.31-.096.895-.415 1.1-.6.44-.397.427-1.131-.026-1.439-.186-.127-.391-.206-.532-.206h-.094v-7.94l3.47-1.928 3.47-1.928.02 1.748c.022 1.934.02 1.916.292 2.203a.99.99 0 0 0 1.473-.023c.261-.29.255-.218.255-2.912 0-2.408-.001-2.444-.089-2.722a2.127 2.127 0 0 0-.59-.925c-.294-.251-8.501-4.795-8.799-4.872a2.47 2.47 0 0 0-1.062.003m4.002 3.846C16.853 6.12 18.4 6.99 18.4 7.002c0 .013-.54.323-1.2.689l-1.2.667-3.462-1.923c-1.904-1.058-3.453-1.933-3.442-1.944a87.294 87.294 0 0 1 2.396-1.329c.018-.001 1.579.857 3.47 1.908m-4.518 2.486a426.652 426.652 0 0 1 3.449 1.925c.03.026-2.317 1.359-2.393 1.359-.047 0-6.9-3.812-6.9-3.838 0-.027 2.37-1.356 2.404-1.348.013.003 1.561.859 3.44 1.902M7.313 10.82l3.167 1.76v3.852c0 2.119-.013 3.846-.03 3.837l-3.48-1.93-3.45-1.914v-7.71l.313.173c.172.094 1.738.964 3.48 1.932m10.63 3.222c-1.317.207-2.392.979-2.998 2.152-.823 1.593-.471 3.515.868 4.749 1.142 1.052 2.803 1.343 4.184.734l.177-.078.367.36c.23.225.441.394.563.449.837.377 1.707-.535 1.286-1.348a2.504 2.504 0 0 0-.387-.479c-.156-.153-.283-.294-.283-.313 0-.018.052-.109.115-.201.482-.702.735-1.675.644-2.475-.194-1.712-1.473-3.14-3.129-3.495-.357-.077-1.089-.105-1.407-.055m.942 1.999c.279.052.73.27.942.455.724.63.872 1.808.33 2.619-.784 1.174-2.53 1.174-3.314 0a2.057 2.057 0 0 1 0-2.23c.209-.314.428-.502.779-.671a1.926 1.926 0 0 1 1.263-.173" fill="#667085" fill-rule="evenodd"/></svg>