<svg width="24" height="24" fill="none" xmlns="http://www.w3.org/2000/svg"><path d="M11.51 1.201c-.226.057-.409.155-3.75 2.012-1.705.947-3.496 1.942-3.98 2.209-.991.547-1.316.804-1.533 1.21C1.988 7.118 2 6.868 2 12c0 5.132-.012 4.882.247 5.368.074.137.235.336.392.483.237.222.716.499 4.385 2.536 2.265 1.257 4.23 2.324 4.366 2.37.349.117.898.114 1.239-.008.136-.049 2.097-1.115 4.356-2.369 3.698-2.052 4.136-2.306 4.383-2.536.301-.281.507-.643.588-1.036.062-.297.062-9.319 0-9.616a1.947 1.947 0 0 0-.585-1.031c-.24-.224-.716-.499-4.231-2.451a357.837 357.837 0 0 0-4.295-2.362c-.319-.155-.354-.163-.76-.174a3.127 3.127 0 0 0-.575.027m3.957 3.869c1.898 1.05 3.451 1.919 3.451 1.93.001.011-.546.323-1.215.693l-1.217.673-3.433-1.907a410.61 410.61 0 0 1-3.462-1.933c-.023-.022 2.342-1.364 2.408-1.365.01-.001 1.571.858 3.468 1.909M10.98 7.559a332.24 332.24 0 0 1 3.431 1.918c.036.034-2.319 1.343-2.416 1.343-.067 0-6.914-3.784-6.913-3.82.001-.037 2.418-1.358 2.458-1.344.022.008 1.57.864 3.44 1.903m-3.476 3.092 3.476 1.931.01 3.849c.006 2.117.002 3.849-.008 3.849-.027 0-6.875-3.802-6.932-3.849-.039-.032-.05-.856-.05-3.876 0-2.109.006-3.835.014-3.835s1.578.869 3.49 1.931M20 12.555c0 3.02-.011 3.844-.05 3.876-.058.047-6.905 3.849-6.932 3.849-.01 0-.014-1.732-.008-3.849l.01-3.849 3.46-1.927a349.217 349.217 0 0 1 3.49-1.931c.017-.002.03 1.722.03 3.831" fill="#667085" fill-rule="evenodd"/></svg>