<svg width="24" height="24" fill="none" xmlns="http://www.w3.org/2000/svg"><path d="M10.32 1.155c-.447.146-.72.513-.72.965 0 .295.082.48.335.75l.239.255-3.68 3.687c-2.201 2.206-3.761 3.801-3.882 3.968-.587.813-.803 1.531-.761 2.529.035.837.253 1.455.752 2.135.267.364 5.805 5.951 6.363 6.42.477.4.937.67 1.383.81 1.198.377 2.378.222 3.382-.447.487-.324 1.283-1.091 4.851-4.673 2.708-2.717 3.222-3.251 3.327-3.454.338-.657.34-1.311.003-1.947-.098-.185-1.088-1.194-5.437-5.539-3.003-3.001-5.381-5.346-5.463-5.388-.162-.083-.538-.122-.692-.071M15.4 8.34l3.78 3.78h-7.45c-4.469 0-7.45-.015-7.45-.037 0-.02.11-.186.245-.37.166-.226 1.341-1.431 3.649-3.743a394.81 394.81 0 0 1 3.425-3.41c.012 0 1.722 1.701 3.801 3.78m1.24 8.324c-3.623 3.629-4.055 4.021-4.578 4.155-.424.109-.909.063-1.262-.119-.375-.193-.825-.609-3.114-2.878-1.714-1.7-2.873-2.91-3.17-3.311-.13-.175-.236-.334-.236-.354 0-.022 2.981-.037 7.45-.037h7.45l-2.54 2.544" fill="#667085" fill-rule="evenodd"/></svg>