<svg width="24" height="24" fill="none" xmlns="http://www.w3.org/2000/svg"><path d="M7.806 1.043a1.113 1.113 0 0 0-.539.39c-.29.426-.235.888.158 1.322l.227.251-3 3.007C2.583 8.086 1.588 9.112 1.447 9.315c-.385.554-.553 1.162-.517 1.862.036.685.259 1.218.758 1.812.125.149 1.403 1.442 2.84 2.874 2.734 2.725 2.926 2.897 3.458 3.096.453.169.723.211 1.234.189.709-.03 1.189-.212 1.746-.663.161-.132 1.663-1.613 3.337-3.292 2.931-2.941 3.047-3.063 3.168-3.333.264-.587.264-1.133 0-1.72-.121-.272-.25-.405-4.428-4.593-2.367-2.372-4.379-4.358-4.473-4.414a1.12 1.12 0 0 0-.764-.09M11.88 7.22 14.66 10H3.597l.046-.09c.045-.087 5.394-5.47 5.436-5.47.012 0 1.272 1.251 2.801 2.78m.32 7.232c-1.353 1.348-2.539 2.505-2.637 2.57-.157.105-.21.118-.483.118-.299 0-.312-.004-.543-.176-.27-.2-4.824-4.736-4.894-4.874L3.597 12h5.532l5.531.001-2.46 2.451m7.603-2.408c-.226.069-.453.251-.856.685-.455.492-1.111 1.287-1.312 1.591-.691 1.048-.729 2.179-.109 3.23.205.347.721.849 1.074 1.045 1.258.695 2.684.475 3.664-.567.336-.357.509-.64.669-1.099.111-.32.122-.394.124-.889.003-.492-.007-.571-.113-.893a3.609 3.609 0 0 0-.329-.693c-.425-.678-1.688-2.113-2.041-2.32a1.124 1.124 0 0 0-.771-.09m.593 2.791c.29.392.684 1.121.683 1.264-.001.157-.135.451-.271.595-.195.205-.396.284-.728.285-.258.001-.327-.015-.492-.112a1 1 0 0 1-.467-.623c-.045-.189-.042-.203.121-.529.216-.431.473-.828.683-1.055.193-.21.183-.214.471.175m-18.59 6.211a.995.995 0 0 0-.177 1.84l.191.094 6.194.01c4.182.007 6.245-.003 6.349-.031.399-.107.717-.533.717-.959 0-.423-.315-.848-.711-.958-.198-.055-12.372-.051-12.563.004" fill="#667085" fill-rule="evenodd"/></svg>