<svg width="24" height="24" fill="none" xmlns="http://www.w3.org/2000/svg"><path d="M11.041 1.045c-1.47.13-2.98.585-4.26 1.283-.985.538-1.77 1.13-2.583 1.947-1.682 1.693-2.712 3.742-3.086 6.145-.073.467-.087.73-.087 1.58 0 .85.014 1.113.087 1.58.378 2.425 1.41 4.467 3.125 6.183 1.455 1.454 3.123 2.407 5.083 2.901 1.148.29 2.626.413 3.338.278 1.699-.322 2.959-1.574 3.279-3.257.043-.23.063-.567.063-1.082 0-.412.02-.855.043-.986.141-.768.806-1.433 1.574-1.574.131-.023.574-.043.986-.043 1.053 0 1.519-.097 2.237-.464 1.081-.553 1.862-1.615 2.097-2.851.147-.776.023-2.223-.296-3.46-.662-2.568-2.349-4.92-4.59-6.398a11.032 11.032 0 0 0-7.01-1.782m2.279 2.057a9.023 9.023 0 0 1 5.664 3.218c.816 1.005 1.483 2.36 1.771 3.6.194.834.29 1.951.208 2.422a2.006 2.006 0 0 1-1.487 1.596c-.179.043-.478.061-.996.062-1.112.001-1.609.1-2.32.464a3.986 3.986 0 0 0-1.874 2.079c-.221.56-.251.756-.283 1.857-.026.891-.041 1.049-.115 1.254a2.004 2.004 0 0 1-1.417 1.286c-.596.14-1.878.016-2.931-.284-2.46-.701-4.437-2.347-5.594-4.656-.642-1.283-.923-2.498-.923-4 0-1.502.281-2.717.923-4 .91-1.819 2.235-3.143 4.056-4.055 1.025-.514 2.001-.783 3.338-.921.324-.033 1.573.016 1.98.078m-3.6 1.941A2.016 2.016 0 0 0 8.097 6.46c-.144.504-.055 1.148.22 1.575A1.99 1.99 0 0 0 10 8.971a1.99 1.99 0 0 0 1.683-.936c.382-.595.382-1.475 0-2.07a2.54 2.54 0 0 0-.723-.694 2.071 2.071 0 0 0-1.24-.228m6 1a2.016 2.016 0 0 0-1.623 1.417c-.144.504-.055 1.148.22 1.575A1.99 1.99 0 0 0 16 9.971a1.99 1.99 0 0 0 1.683-.936c.382-.595.382-1.475 0-2.07a2.54 2.54 0 0 0-.723-.694 2.071 2.071 0 0 0-1.24-.228m-9 4a2.016 2.016 0 0 0-1.623 1.417c-.144.504-.055 1.148.22 1.575A1.99 1.99 0 0 0 7 13.971a1.99 1.99 0 0 0 1.683-.936c.382-.595.382-1.475 0-2.07a2.54 2.54 0 0 0-.723-.694 2.071 2.071 0 0 0-1.24-.228" fill="#667085" fill-rule="evenodd"/></svg>