<svg width="24" height="24" fill="none" xmlns="http://www.w3.org/2000/svg"><path d="M15.151 1.597c-.465.101-.71.184-1.086.369-.712.349-.643.285-5.578 5.21-2.58 2.576-4.815 4.828-4.964 5.004a6.243 6.243 0 0 0-1.281 5.74c.602 2.17 2.351 3.87 4.518 4.392.544.131.893.171 1.5.171 1.05 0 1.898-.2 2.83-.668.866-.434.704-.284 5.937-5.512 4.841-4.836 4.848-4.843 4.913-5.072.083-.294.051-.524-.114-.799a.975.975 0 0 0-.323-.331c-.177-.109-.23-.121-.523-.121-.293 0-.344.012-.503.117-.097.064-2.319 2.251-4.937 4.86-5.241 5.222-4.953 4.959-5.77 5.265-.564.211-.916.273-1.55.27-.465-.002-.625-.019-.943-.103-.806-.212-1.454-.576-2.004-1.127-1.472-1.474-1.679-3.678-.51-5.431.214-.32 9.513-9.646 9.85-9.878.471-.324.875-.446 1.463-.441.945.007 1.771.529 2.198 1.389.172.347.246.677.246 1.099a2.36 2.36 0 0 1-.558 1.575c-.108.135-2.164 2.21-4.569 4.611-3.568 3.561-4.401 4.374-4.528 4.414-.506.161-.985-.185-.985-.712 0-.117.02-.253.044-.301.025-.048 1.813-1.86 3.975-4.027 4.354-4.364 4.087-4.062 4.054-4.574a.925.925 0 0 0-.45-.764c-.159-.099-.248-.124-.482-.136-.247-.012-.316 0-.484.087-.286.147-8.064 7.943-8.268 8.287-.472.795-.517 1.844-.113 2.658.331.668.892 1.148 1.624 1.391.279.092.386.106.84.107.467.001.553-.011.84-.111.176-.061.419-.166.54-.233.297-.166 9.424-9.27 9.716-9.692.579-.837.831-1.714.792-2.76-.025-.692-.141-1.173-.422-1.753a4.11 4.11 0 0 0-.872-1.235 4.516 4.516 0 0 0-2.043-1.178c-.544-.143-1.504-.17-2.02-.057" fill="#667085" fill-rule="evenodd"/></svg>