<svg width="24" height="24" fill="none" xmlns="http://www.w3.org/2000/svg"><path d="M2.643 4.069C2.291 4.193 2 4.614 2 5c0 .242.119.521.299.701C2.625 6.027 1.736 6 12 6c10.264 0 9.375.027 9.701-.299a.984.984 0 0 0 0-1.402c-.326-.327.567-.299-9.718-.296-8.192.003-9.182.01-9.34.066m0 5.999a1.14 1.14 0 0 0-.343.23c-.48.48-.352 1.292.25 1.588l.19.094 7.84.02 7.84.02.24.096c.613.245.985.619 1.221 1.224.134.344.134.975 0 1.32-.26.672-.741 1.104-1.419 1.279-.18.046-.461.061-1.135.061h-.896l.22-.237c.334-.361.421-.698.283-1.103a1.011 1.011 0 0 0-1.012-.651c-.364.035-.486.132-1.667 1.32-.986.992-1.132 1.155-1.189 1.328a.976.976 0 0 0 0 .686c.057.173.203.336 1.189 1.328 1.181 1.188 1.303 1.285 1.667 1.32.425.041.875-.248 1.012-.651.138-.405.051-.742-.283-1.103l-.22-.237h.968c.818 0 1.031-.013 1.37-.082a4.005 4.005 0 0 0 2.57-1.73 3.991 3.991 0 0 0-1.112-5.505 5.215 5.215 0 0 0-1.269-.571l-.338-.09-7.9-.008c-7.089-.008-7.918-.002-8.077.054m0 6.001C2.291 16.193 2 16.614 2 17c0 .242.119.521.299.701.314.314.097.299 4.201.299 4.104 0 3.887.015 4.201-.299a.984.984 0 0 0 0-1.402c-.315-.315-.094-.299-4.218-.296-3.21.003-3.685.011-3.84.066" fill="#667085" fill-rule="evenodd"/></svg>