<svg width="24" height="24" fill="none" xmlns="http://www.w3.org/2000/svg"><path d="M5.64 3.068c-.152.053-.431.312-1.811 1.687-1.711 1.704-1.784 1.791-1.82 2.167C1.956 7.477 2.437 8 3 8c.364 0 .496-.088 1.27-.854L5 6.425v11.15l-.73-.721C3.496 16.088 3.364 16 3 16c-.563 0-1.044.523-.991 1.078.036.376.109.463 1.82 2.167 1.459 1.453 1.652 1.631 1.828 1.69.109.036.263.065.343.065.08 0 .234-.029.343-.065.176-.059.369-.237 1.828-1.69 1.711-1.704 1.784-1.791 1.82-2.167C10.044 16.523 9.563 16 9 16c-.364 0-.496.088-1.27.854l-.73.721V6.425l.73.721C8.504 7.912 8.636 8 9 8c.563 0 1.044-.523.991-1.078-.036-.376-.109-.463-1.82-2.167-1.459-1.453-1.652-1.631-1.828-1.69a1.053 1.053 0 0 0-.703.003m7.003 2.001C12.291 5.193 12 5.614 12 6c0 .242.119.521.299.701.317.317.038.299 4.701.299 4.663 0 4.384.018 4.701-.299a.984.984 0 0 0 0-1.402c-.317-.317-.035-.299-4.718-.296-3.663.003-4.184.011-4.34.066m0 4c-.352.124-.643.545-.643.931 0 .242.119.521.299.701.317.317.038.299 4.701.299 4.663 0 4.384.018 4.701-.299a.984.984 0 0 0 0-1.402c-.317-.317-.035-.299-4.718-.296-3.663.003-4.184.011-4.34.066m0 4c-.352.124-.643.545-.643.931 0 .242.119.521.299.701.317.317.038.299 4.701.299 4.663 0 4.384.018 4.701-.299a.984.984 0 0 0 0-1.402c-.317-.317-.035-.299-4.718-.296-3.663.003-4.184.011-4.34.066m0 4c-.352.124-.643.545-.643.931 0 .242.119.521.299.701.317.317.038.299 4.701.299 4.663 0 4.384.018 4.701-.299a.984.984 0 0 0 0-1.402c-.317-.317-.035-.299-4.718-.296-3.663.003-4.184.011-4.34.066" fill="#667085" fill-rule="evenodd"/></svg>