<svg width="24" height="24" fill="none" xmlns="http://www.w3.org/2000/svg"><path d="M6.9 1.025c-.995.084-1.531.257-2.2.708-.578.389-1.181 1.16-1.417 1.811-.28.775-.263.214-.263 8.456 0 6.982.004 7.441.072 7.773.108.531.284.971.553 1.389.595.92 1.488 1.523 2.582 1.746.329.067.715.072 5.773.072s5.444-.005 5.773-.072c1.094-.223 1.987-.826 2.582-1.746.269-.418.445-.858.553-1.389.068-.332.072-.791.072-7.773 0-6.982-.004-7.441-.072-7.773-.289-1.42-1.291-2.57-2.618-3.005-.602-.197-.52-.194-6.05-.202a553.708 553.708 0 0 0-5.34.005m9.901 2.015c.341.022.723.066.85.099.553.144 1.065.656 1.209 1.209.121.464.14 1.483.14 7.652 0 6.163-.019 7.189-.139 7.651-.142.544-.638 1.05-1.181 1.206-.432.123-1.173.142-5.68.142s-5.248-.019-5.68-.142c-.543-.156-1.039-.662-1.181-1.206C5.019 19.189 5 18.163 5 12c0-6.169.019-7.188.14-7.652.103-.397.416-.8.811-1.044.239-.148.575-.225 1.142-.261.73-.047 8.984-.049 9.708-.003m-5.368 2.003a4.22 4.22 0 0 0-1.941.856 4.272 4.272 0 0 0-1.38 2.161c-.128.513-.128 1.367 0 1.88.2.801.739 1.645 1.38 2.161.401.323 1.078.665 1.548.781 2.23.55 4.462-.908 4.897-3.197.314-1.657-.57-3.437-2.097-4.222a4.013 4.013 0 0 0-2.407-.42m.95 2c.578.106 1.157.55 1.41 1.082a2.001 2.001 0 0 1-.354 2.25c-.778.831-2.1.831-2.878 0-.754-.806-.739-2.004.035-2.779.489-.488 1.102-.678 1.787-.553m-2.74 8.026C9.291 15.193 9 15.614 9 16c0 .242.119.521.299.701.302.302.274.299 2.701.299s2.399.003 2.701-.299a.984.984 0 0 0 0-1.402c-.303-.303-.271-.299-2.718-.296-1.851.003-2.188.012-2.34.066" fill="#667085" fill-rule="evenodd"/></svg>