<svg width="24" height="24" fill="none" xmlns="http://www.w3.org/2000/svg"><path d="M3.61 6.044c-1.319.155-2.378 1.202-2.569 2.536-.053.374-.053 6.466 0 6.84a2.976 2.976 0 0 0 2.539 2.539c.403.057 16.431.055 16.845-.002a2.977 2.977 0 0 0 2.534-2.537c.053-.374.053-6.466 0-6.84-.173-1.215-1.022-2.155-2.246-2.488-.235-.065-.829-.07-8.533-.076-4.554-.004-8.41.009-8.57.028m16.378 1.995c.468.043.649.131.831.407.09.135.111.227.143.607.048.582.048 5.313-.001 5.897-.033.403-.049.467-.158.626-.175.254-.338.34-.73.385-.45.052-15.699.052-16.15 0-.386-.045-.56-.137-.735-.389-.165-.238-.185-.63-.185-3.572 0-2.895.021-3.332.176-3.566.171-.258.362-.356.768-.392.506-.044 15.546-.047 16.041-.003M6.68 10.795c-.377.124-.745.464-.856.792-.083.242-.081.587.003.836.092.271.479.658.75.75.252.085.594.085.846 0 .271-.092.658-.479.75-.75.084-.249.086-.594.003-.836-.083-.243-.374-.564-.632-.695-.218-.111-.667-.162-.864-.097m5 0c-.377.124-.745.464-.856.792-.083.242-.081.587.003.836.047.138.139.27.31.44.365.366.808.472 1.286.31.271-.092.658-.479.75-.75.084-.249.086-.594.003-.836-.083-.243-.374-.564-.632-.695-.218-.111-.667-.162-.864-.097m5 0c-.377.124-.745.464-.856.792-.083.242-.081.587.003.836.047.138.139.27.31.44.365.366.808.472 1.286.31.271-.092.658-.479.75-.75.084-.249.086-.594.003-.836-.083-.243-.374-.564-.632-.695-.218-.111-.667-.162-.864-.097" fill="#667085" fill-rule="evenodd"/></svg>