<svg width="24" height="24" fill="none" xmlns="http://www.w3.org/2000/svg"><path d="M3.632 3.041a2.875 2.875 0 0 0-1.675.789 2.87 2.87 0 0 0-.915 1.754c-.055.396-.056 6.449-.001 6.836.152 1.064.884 1.995 1.859 2.362.571.214.649.218 4.598.218 4.106 0 3.889.015 4.203-.299a.984.984 0 0 0 0-1.402c-.313-.313-.124-.299-3.978-.3-1.883 0-3.581-.017-3.775-.037-.412-.044-.572-.126-.75-.385-.106-.154-.126-.228-.158-.587-.048-.532-.048-5.446-.001-5.978.043-.468.131-.649.407-.831.135-.09.227-.111.607-.143.589-.048 15.305-.048 15.894 0 .511.043.684.123.872.408.151.228.18.685.18 2.877.001 2.067.003 2.081.3 2.378a.984.984 0 0 0 1.402 0c.302-.302.299-.275.299-2.685 0-2.248-.017-2.538-.182-3.021-.298-.876-1.102-1.618-2.047-1.886l-.311-.089-8.28-.005c-4.554-.003-8.4.009-8.548.026M6.68 7.795c-.377.124-.745.464-.856.792-.083.242-.081.587.003.836.092.271.479.658.75.75.252.085.594.085.846 0 .271-.092.658-.479.75-.75.084-.249.086-.594.003-.836-.083-.243-.374-.564-.632-.695-.218-.111-.667-.162-.864-.097m5 0c-.377.124-.745.464-.856.792-.083.242-.081.587.003.836.092.271.479.658.75.75.252.085.594.085.846 0 .271-.092.658-.479.75-.75.084-.249.086-.594.003-.836-.083-.243-.374-.564-.632-.695-.218-.111-.667-.162-.864-.097m5 0c-.377.124-.745.464-.856.792-.083.242-.081.587.003.836.092.271.479.658.75.75.252.085.594.085.846 0 .271-.092.658-.479.75-.75.084-.249.086-.594.003-.836-.083-.243-.374-.564-.632-.695-.218-.111-.667-.162-.864-.097m.26 3.763c-.608.132-1.241.533-1.605 1.017-.441.586-.575 1.036-.575 1.926v.607l-.265.025c-.357.033-.584.151-.899.464a1.976 1.976 0 0 0-.552.995c-.072.344-.058 2.575.017 2.87.178.692.66 1.211 1.339 1.443.207.071.389.075 3.12.075 2.89 0 2.901 0 3.13-.088.484-.185.927-.572 1.127-.984.203-.42.223-.589.223-1.908 0-1.325-.019-1.485-.228-1.92-.13-.27-.563-.712-.817-.834a1.636 1.636 0 0 0-.45-.113l-.265-.025v-.607c0-.47-.018-.677-.077-.91-.235-.917-.896-1.623-1.832-1.957-.259-.092-1.102-.138-1.391-.076m.892 2.018a.898.898 0 0 1 .365.397c.024.062.043.318.043.57V15h-1.48v-.457c0-.595.063-.751.38-.948.146-.091.534-.101.692-.019m2.12 3.472c.051.051.071 1.683.023 1.862l-.024.09h-4.902l-.024-.09c-.048-.179-.028-1.811.023-1.862.069-.069 4.835-.069 4.904 0" fill="#667085" fill-rule="evenodd"/></svg>