<svg width="24" height="24" fill="none" xmlns="http://www.w3.org/2000/svg"><path d="M14.551 1.331c-.148.052-.365.16-.482.241-.117.08-.636.574-1.154 1.097-.863.87-.956.978-1.099 1.269-.151.308-.156.331-.156.738v.42l-2.82.565c-1.551.31-2.892.588-2.98.617-.424.138-.918.564-1.123.968-.12.237.001-.248-1.918 7.694-1.759 7.286-1.697 6.974-1.464 7.313.069.1.125.196.126.214 0 .018.1.091.22.162.424.247.008.329 7.359-1.447 7.935-1.918 7.456-1.799 7.694-1.919.417-.211.809-.665.964-1.117.043-.125.323-1.455.622-2.956.3-1.502.553-2.76.564-2.797.016-.057.078-.065.429-.06.401.007.417.004.728-.149.292-.143.399-.236 1.272-1.1.524-.519 1.024-1.049 1.11-1.178a2.01 2.01 0 0 0 .01-2.186c-.086-.135-1.281-1.359-3.087-3.165L16.42 1.61l-.352-.172c-.341-.168-.365-.173-.8-.187-.39-.012-.483-.002-.717.08m3.438 4.68c1.502 1.502 2.731 2.758 2.731 2.791 0 .052-1.472 1.558-1.523 1.558-.009 0-1.268-1.25-2.796-2.779l-2.778-2.779.757-.761c.416-.418.784-.761.818-.761.033 0 1.289 1.229 2.791 2.731m-1.515 8.278c-.348 1.74-.642 3.172-.654 3.184-.022.022-10.354 2.524-10.368 2.511a236.08 236.08 0 0 1 2.31-2.326l2.319-2.318.13.075c.523.304.677.364.972.379.772.039 1.607-.328 2.204-.969a2.957 2.957 0 0 0 .255-3.734c-1.044-1.487-3.166-1.707-4.484-.464-.628.593-.99 1.426-.952 2.19.015.295.075.448.379.973l.075.129-2.328 2.329c-1.281 1.281-2.32 2.294-2.309 2.25l1.253-5.189c.678-2.811 1.242-5.12 1.253-5.131.01-.011 1.439-.305 3.175-.653l3.156-.634 2.123 2.118 2.124 2.118-.633 3.162m-4.775-2.334c.677.379.631 1.42-.076 1.75a.992.992 0 0 1-1.328-.483c-.412-.885.544-1.748 1.404-1.267" fill="#667085" fill-rule="evenodd"/></svg>