<svg width="24" height="24" fill="none" xmlns="http://www.w3.org/2000/svg"><path d="M2.067 1.231a1.12 1.12 0 0 0-.312.132 1.36 1.36 0 0 1-.227.117c-.015 0-.086.113-.158.252a.9.9 0 0 0-.13.522c0 .221.316 1.584 1.681 7.239 1.855 7.691 1.752 7.324 2.182 7.758.439.442.457.448 3.484 1.054l2.887.578.214.044-.028.313c-.031.355.033.651.208.96.125.22 2 2.117 2.255 2.282a2.034 2.034 0 0 0 1.493.261c.597-.14.505-.06 3.716-3.26 1.766-1.76 3.016-3.037 3.11-3.177a2.007 2.007 0 0 0 .011-2.186c-.077-.121-.567-.644-1.087-1.163-.881-.878-.969-.955-1.286-1.114l-.34-.171-.411.018c-.391.016-.412.013-.431-.067-.011-.045-.27-1.334-.575-2.863-.306-1.529-.587-2.861-.626-2.96a2.346 2.346 0 0 0-.537-.771c-.397-.34-.158-.275-7.665-2.084-3.869-.933-7.098-1.704-7.175-1.713a1.339 1.339 0 0 0-.253-.001m8.585 4.048c2.745.662 5.034 1.22 5.086 1.24.116.044.055-.223.796 3.488l.573 2.866-2.124 2.124-2.123 2.123-3.126-.625c-1.719-.344-3.149-.639-3.177-.657-.041-.025-2.568-10.356-2.541-10.386a236.08 236.08 0 0 1 2.326 2.31l2.318 2.319-.22.409-.22.41.001.42c.001.486.094.853.327 1.28.744 1.37 2.323 1.948 3.771 1.38 1.269-.497 2.09-1.983 1.823-3.301-.269-1.329-1.282-2.278-2.604-2.439-.51-.062-.785.016-1.359.386-.076.048-.241-.108-2.4-2.272C6.236 4.809 5.493 4.038 5.56 4.053l5.092 1.226m1.047 5.076c.382.214.573.699.446 1.133a.987.987 0 0 1-1.602.466c-.579-.509-.385-1.46.346-1.697.241-.079.564-.04.81.098m8.288 4.058c.403.404.733.759.733.791 0 .031-1.242 1.298-2.76 2.816l-2.76 2.759-.778-.777c-.605-.604-.769-.79-.742-.839.068-.123 5.462-5.483 5.517-5.483.031 0 .386.33.79.733" fill="#667085" fill-rule="evenodd"/></svg>