<svg width="24" height="24" fill="none" xmlns="http://www.w3.org/2000/svg"><path d="M16.36 1.762a2.572 2.572 0 0 0-.54.195c-.299.147-.388.227-1.345 1.19-.906.914-1.04 1.065-1.16 1.313-.131.272-.135.294-.133.767l.001.486-2.681.765c-1.475.421-2.778.812-2.896.868-.327.158-.694.525-.865.866-.098.196-.759 2.29-2.063 6.533-1.824 5.938-1.918 6.26-1.918 6.553 0 .276.012.325.12.482a.96.96 0 0 1 .12.207c0 .018.091.084.202.146a.98.98 0 0 0 .481.131c.276.018.367-.009 6.608-1.928 3.885-1.194 6.418-1.992 6.56-2.067.275-.144.697-.576.828-.847.05-.104.44-1.406.866-2.892.425-1.486.778-2.706.784-2.712.006-.005.119.008.251.029.429.07.868-.031 1.235-.283.091-.063.599-.549 1.13-1.081 1.011-1.012 1.133-1.169 1.271-1.64.079-.269.082-.752.006-1.038-.142-.534-.11-.497-2.78-3.169-1.638-1.639-2.568-2.542-2.694-2.613a2.167 2.167 0 0 0-1.388-.261M1.3 3.414a.981.981 0 0 0-.299 1.59c.333.334.148.319 3.782.307L7.98 5.3l.163-.087c.371-.199.617-.651.556-1.024a1.056 1.056 0 0 0-.695-.823c-.099-.033-1.011-.046-3.32-.046L1.5 3.321l-.2.093m17.77 2.675c1.194 1.196 2.17 2.199 2.17 2.229 0 .03-.343.397-.763.815l-.763.761-2.277-2.277c-1.252-1.252-2.277-2.292-2.277-2.311 0-.019.342-.375.76-.793l.761-.758.109.08c.061.043 1.087 1.058 2.28 2.254M15.99 9.01c.863.863 1.571 1.588 1.571 1.61.001.022-.372 1.351-.829 2.954-.547 1.918-.852 2.924-.892 2.946-.066.036-8.502 2.64-8.55 2.64-.016 0 .716-.745 1.627-1.657l1.656-1.656.436.226.436.227.367-.003c1.746-.016 3.152-1.711 2.853-3.44-.203-1.176-.987-2.062-2.146-2.422-.39-.122-1.157-.132-1.559-.021-.37.102-.78.308-1.089.547-.721.556-1.184 1.508-1.145 2.355.014.317.068.457.379.993l.075.13-1.64 1.641c-.902.902-1.645 1.625-1.651 1.607-.014-.042 2.588-8.496 2.628-8.538.021-.023 5.772-1.691 5.883-1.706.011-.002.726.703 1.59 1.567m-3.94 3.367c.403.144.642.5.639.95-.006 1.074-1.442 1.374-1.886.393a1.171 1.171 0 0 1-.039-.74c.054-.196.394-.543.596-.607.194-.062.511-.06.69.004" fill="#667085" fill-rule="evenodd"/></svg>