<svg width="24" height="24" fill="none" xmlns="http://www.w3.org/2000/svg"><path d="M4.299 1.115c-.184.084-.39.276-.49.459-.059.108-.072.289-.089 1.286L3.7 4.02l-1.16.02c-1.286.022-1.281.021-1.557.305-.301.31-.352.824-.12 1.201.135.218.442.428.686.468.083.014.606.025 1.161.026h1.01v1.101c0 1.181.009 1.246.216 1.518.052.068.191.175.308.24.41.223.91.128 1.217-.231.234-.273.259-.429.259-1.595V6.04h.998c.559 0 1.086-.019 1.198-.043.553-.118.908-.703.751-1.237a.98.98 0 0 0-.524-.625c-.198-.092-.231-.094-1.313-.095H5.72V2.987c0-1.174-.025-1.334-.246-1.602-.261-.316-.801-.44-1.175-.27M16.28 2.484c-.099.019-.315.1-.48.181-.273.133-.391.238-1.304 1.151-.932.931-1.016 1.027-1.16 1.322-.155.315-.156.323-.157.798l-.001.48-2.679.768c-1.799.515-2.762.81-2.931.897-.334.172-.694.536-.843.851-.064.136-.982 3.065-2.04 6.508-1.86 6.051-1.925 6.271-1.925 6.582 0 .298.009.331.118.46.065.076.119.17.12.208.001.039.025.07.053.07.028 0 .113.042.19.094.108.073.202.097.419.104.154.006.298.011.32.013.108.006 12.632-3.878 12.839-3.981.326-.164.711-.556.86-.877.064-.139.425-1.333.801-2.653.376-1.32.719-2.517.761-2.66l.076-.26h.492c.478 0 .5-.004.771-.136.245-.119.402-.256 1.255-1.1.554-.547 1.042-1.066 1.131-1.201a2 2 0 0 0-.004-2.169c-.092-.137-1.171-1.245-2.61-2.68-2.142-2.136-2.484-2.462-2.702-2.57a2.068 2.068 0 0 0-1.37-.2m2.71 4.246c1.237 1.237 2.25 2.268 2.25 2.29 0 .023-.34.38-.755.795-.654.654-.764.748-.83.712-.041-.023-1.072-1.04-2.29-2.261l-2.216-2.218.082-.114c.109-.152 1.429-1.454 1.474-1.454.019 0 1.047 1.012 2.285 2.25m-3 3c.863.863 1.57 1.592 1.57 1.62 0 .073-1.644 5.825-1.674 5.858-.014.015-1.934.615-4.266 1.332-2.332.716-4.267 1.312-4.3 1.323-.033.011.69-.73 1.606-1.647l1.666-1.668.322.186c.451.26.693.317 1.122.264a3.038 3.038 0 0 0 2.571-2.226c.066-.236.087-.419.087-.752-.001-.532-.069-.816-.321-1.337-.155-.321-.235-.43-.547-.74-.616-.613-1.158-.856-1.986-.891-.557-.024-.923.043-1.355.249-1.101.523-1.762 1.522-1.764 2.669-.001.299.007.325.222.737l.223.427-1.631 1.631c-.898.898-1.638 1.626-1.645 1.618-.022-.022 2.591-8.479 2.633-8.523.037-.038 5.713-1.687 5.837-1.696.033-.002.766.702 1.63 1.566m-3.944 3.356c.683.205.874 1.186.326 1.679-.64.577-1.652.12-1.652-.745 0-.693.636-1.14 1.326-.934" fill="#667085" fill-rule="evenodd"/></svg>