<svg width="24" height="24" fill="none" xmlns="http://www.w3.org/2000/svg"><path d="M17.643 1.069C17.291 1.193 17 1.614 17 2c0 .08.029.234.065.343.059.178.271.404 2.19 2.328 1.511 1.516 2.176 2.156 2.301 2.217.859.416 1.748-.473 1.332-1.332-.061-.125-.701-.79-2.217-2.301-1.924-1.919-2.15-2.131-2.328-2.19a1.032 1.032 0 0 0-.7.004M14.689 4.24c-.454.096-.316-.035-6.216 5.871-5.904 5.91-5.774 5.773-5.975 6.329C2.356 16.835 1 21.868 1 22.002c0 .525.474.998.999.998.134 0 5.16-1.354 5.561-1.498.557-.201.413-.065 6.365-6.017 4.344-4.344 5.643-5.666 5.707-5.805.144-.313.191-.643.133-.93-.099-.491-.102-.495-2.021-2.422-1.658-1.666-1.827-1.823-2.084-1.949a1.543 1.543 0 0 0-.971-.139M16.3 7.72 17.58 9l-5.26 5.261c-3.579 3.579-5.311 5.285-5.42 5.337-.173.083-3.418.978-3.445.95-.022-.021.891-3.365.95-3.481C4.447 16.983 14.959 6.44 15 6.44c.011 0 .596.576 1.3 1.28" fill="#667085" fill-rule="evenodd"/></svg>