<svg width="24" height="24" fill="none" xmlns="http://www.w3.org/2000/svg"><path d="M17.972 1.441a4.125 4.125 0 0 0-1.262.542c-.227.148-1.594 1.491-6.263 6.153-3.597 3.592-6.068 6.089-6.212 6.279a4.707 4.707 0 0 0-.373.581c-.146.291-2.426 6.196-2.502 6.482-.075.283.039.644.278.884.227.227.594.349.862.286.235-.054 6.194-2.355 6.505-2.511.145-.073.406-.24.58-.372.19-.144 2.683-2.611 6.279-6.212 4.728-4.736 6.004-6.034 6.157-6.27.241-.368.471-.922.56-1.343.087-.416.088-1.141.001-1.55-.31-1.468-1.451-2.632-2.892-2.951-.467-.103-1.257-.102-1.718.002m1.192 1.92c.953.18 1.638 1.133 1.484 2.062a2.443 2.443 0 0 1-.168.53c-.117.253-.428.571-5.906 6.047-3.885 3.884-5.789 5.76-5.803 5.72-.011-.033-.563-.602-1.226-1.265-.663-.663-1.232-1.215-1.265-1.226-.04-.014 1.836-1.918 5.72-5.803 5.455-5.457 5.795-5.789 6.044-5.905.408-.19.725-.235 1.12-.16M7.028 18.784c-.008.008-2.144.83-2.678 1.031l-.269.101.052-.128.569-1.478.518-1.35.908.908c.5.5.905.912.9.916" fill="#667085" fill-rule="evenodd"/></svg>