<svg width="24" height="24" fill="none" xmlns="http://www.w3.org/2000/svg"><path d="M11.36 1.731a2.572 2.572 0 0 0-.5.251c-.763.516-8.916 6.464-9.092 6.634-.42.403-.669 1.128-.574 1.668.06.336 3.472 10.815 3.599 11.05.234.435.651.778 1.159.954l.268.092h11.56l.268-.092c.508-.176.925-.519 1.159-.954.117-.217 3.527-10.668 3.594-11.014.112-.58-.14-1.305-.606-1.745-.096-.09-1.066-.809-2.155-1.597-1.089-.789-3.033-2.199-4.32-3.134-2.765-2.009-2.787-2.024-3.114-2.125-.361-.112-.899-.107-1.246.012m2.068 2.925c7.155 5.183 7.353 5.33 7.342 5.45-.013.155-3.274 10.174-3.33 10.23-.062.062-10.817.063-10.879.001-.055-.055-3.319-10.078-3.331-10.231-.009-.107.095-.19 1.71-1.363 5.624-4.086 7.041-5.103 7.086-5.086.028.011.659.46 1.402.999" fill="#667085" fill-rule="evenodd"/></svg>