<svg width="24" height="24" fill="none" xmlns="http://www.w3.org/2000/svg"><path d="M18.64 4.068c-.158.053-1.064.944-7.311 7.186-5.227 5.224-7.154 7.173-7.216 7.302-.418.858.473 1.749 1.331 1.331.129-.062 2.078-1.988 7.301-7.216 6.574-6.579 7.13-7.146 7.19-7.328.128-.39.044-.766-.234-1.044a1.006 1.006 0 0 0-1.061-.231m-12.728.529a1.994 1.994 0 0 0-1.127 2.915c.64 1.092 2.156 1.305 3.09.434.075-.069.205-.233.291-.363.72-1.1.179-2.595-1.08-2.984-.331-.103-.857-.103-1.174-.002m11 11a1.994 1.994 0 0 0-1.127 2.915c.64 1.092 2.156 1.305 3.09.434.075-.069.205-.233.291-.363.72-1.1.179-2.595-1.08-2.984-.331-.103-.857-.103-1.174-.002" fill="#667085" fill-rule="evenodd"/></svg>