<svg width="24" height="24" fill="none" xmlns="http://www.w3.org/2000/svg"><path d="M6.44 4.057a2.93 2.93 0 0 0-1.561.859A2.924 2.924 0 0 0 4.114 6.2c-.078.247-.094.388-.094.8 0 .579.075.882.352 1.42.23.447.761.978 1.208 1.208.538.277.841.352 1.42.352s.882-.075 1.42-.352c.447-.23.978-.761 1.208-1.208.277-.538.352-.841.352-1.42s-.075-.882-.352-1.42c-.248-.482-.76-.98-1.268-1.232a4.324 4.324 0 0 0-.62-.251c-.336-.087-.981-.107-1.3-.04m12.2.011c-.158.053-1.064.944-7.311 7.186-5.227 5.224-7.154 7.173-7.216 7.302-.418.858.473 1.749 1.331 1.331.129-.062 2.078-1.988 7.301-7.216 6.574-6.579 7.13-7.146 7.19-7.328.128-.39.044-.766-.234-1.044a1.006 1.006 0 0 0-1.061-.231M7.5 6.138c.672.394.652 1.389-.035 1.753-.246.13-.701.125-.943-.011-.749-.42-.659-1.524.148-1.825.229-.086.607-.048.83.083m8.94 7.919a2.93 2.93 0 0 0-1.561.859 2.924 2.924 0 0 0-.765 1.284c-.078.247-.094.388-.094.8 0 .579.075.882.352 1.42.23.447.761.978 1.208 1.208.538.277.841.352 1.42.352s.882-.075 1.42-.352c.447-.23.978-.761 1.208-1.208.277-.538.352-.841.352-1.42s-.075-.882-.352-1.42c-.248-.482-.76-.98-1.268-1.232a4.324 4.324 0 0 0-.62-.251c-.336-.087-.981-.107-1.3-.04m1.06 2.081c.672.394.652 1.389-.035 1.753-.246.13-.701.125-.943-.011-.749-.42-.659-1.524.148-1.825.229-.086.607-.048.83.083" fill="#667085" fill-rule="evenodd"/></svg>