<svg width="24" height="24" fill="none" xmlns="http://www.w3.org/2000/svg"><path d="M4.25 1.6a2.697 2.697 0 0 0-.933.422 3.082 3.082 0 0 0-1.223 1.763c-.071.301-.074.674-.074 8.215 0 8.936-.027 8.188.325 8.877a3.014 3.014 0 0 0 1.938 1.538c.326.081.947.084 1.377.008.688-.122 14.017-3.106 14.29-3.199a2.754 2.754 0 0 0 1.101-.66c.506-.482.8-1.041.905-1.718.061-.392.061-9.3 0-9.692a2.887 2.887 0 0 0-.912-1.723 2.832 2.832 0 0 0-1.204-.687c-.352-.107-13.819-3.107-14.28-3.182-.405-.065-.98-.048-1.31.038m1.33 2.025c.305.05 3.141.66 3.35.72.066.019.07.213.07 3.338V11H4l.001-2.85c0-2.775.032-3.861.121-4.095.06-.161.269-.371.458-.46.176-.084.336-.079 1 .03m7.47 1.636 1.95.432V11h-4V7.896c0-2.467.01-3.101.05-3.086.028.01.928.213 2 .451m5.041 1.12c1.443.325 1.612.397 1.795.768.094.191.094.193.107 2.021l.014 1.83H17V8.58c0-2.028.009-2.42.055-2.42.03 0 .497.099 1.036.221M9 16.317c0 3.125-.004 3.319-.07 3.339-.148.045-2.615.583-3.11.678-.812.157-1.054.171-1.243.074-.191-.099-.397-.308-.455-.463-.089-.234-.121-1.32-.121-4.095L4 13h5v3.317m6-.657c0 1.463-.009 2.66-.021 2.66-.018 0-3.667.807-3.889.86l-.09.022V13h4v2.66m4.993-.83-.013 1.83-.095.194c-.184.372-.365.447-1.938.801l-.947.214V13H20.007l-.014 1.83" fill="#667085" fill-rule="evenodd"/></svg>