<svg width="24" height="24" fill="none" xmlns="http://www.w3.org/2000/svg"><path d="M3.558 2.055a1.949 1.949 0 0 0-.961.544c-.282.28-.435.548-.536.939-.089.346-.089 2.578 0 2.924.1.389.254.659.536.941.354.354.617.479 1.062.507L4 7.931V16.08h-.175c-.499 0-.855.151-1.228.52a1.869 1.869 0 0 0-.536.938c-.089.346-.089 2.578 0 2.924.194.755.794 1.34 1.531 1.494.283.059 2.533.059 2.816 0a2.122 2.122 0 0 0 1.272-.877c.197-.306.286-.638.293-1.091.006-.356.014-.393.087-.409.134-.03 7.955-1.139 8.03-1.139.056 0 .07.035.07.167 0 .521.722 1.201 1.432 1.349.283.059 2.533.059 2.816 0 .546-.114 1.135-.562 1.364-1.036.209-.435.228-.595.228-1.92s-.019-1.485-.228-1.92c-.129-.267-.559-.705-.816-.83a1.954 1.954 0 0 0-.781-.17H20V9.931l.341-.021c.445-.028.708-.153 1.062-.507.282-.282.436-.552.536-.941.089-.346.089-2.578 0-2.924-.1-.39-.254-.659-.536-.939a1.952 1.952 0 0 0-1.02-.556c-.311-.056-2.455-.056-2.766 0-.37.068-.722.259-1.02.556-.297.296-.437.55-.437.794 0 .156-.007.167-.11.166-.06-.001-1.899-.258-4.087-.571l-3.976-.57-.01-.399c-.011-.46-.102-.794-.297-1.098-.276-.43-.804-.788-1.297-.878-.328-.059-2.536-.051-2.825.012m2.401 2.022c.044.083.058 1.676.016 1.833L5.951 6H5c-.831 0-.955-.008-.976-.063-.048-.127-.027-1.838.024-1.889.035-.035.304-.048.959-.048.859 0 .913.004.952.077m14 2c.044.083.058 1.676.016 1.833l-.024.09H19c-.831 0-.955-.008-.976-.063-.048-.127-.027-1.838.024-1.889.035-.035.304-.048.959-.048.859 0 .913.004.952.077m-8.039.924c2.167.308 3.976.568 4.02.578.073.016.081.053.087.409.01.649.198 1.088.637 1.489.321.293.584.407.995.433l.341.021v4.149h-.175c-.459 0-.832.144-1.168.45-.429.391-.616.829-.636 1.489l-.012.4-3.974.569c-2.186.313-4.024.57-4.085.571-.103.001-.11-.01-.11-.166 0-.245-.14-.498-.437-.793-.372-.369-.729-.52-1.228-.52H6V7.931l.341-.021c.445-.028.708-.153 1.062-.507.298-.299.437-.552.437-.796 0-.132.014-.167.07-.167.039 0 1.843.252 4.01.561m8.039 9.076c.044.083.058 1.676.016 1.833l-.024.09H19c-.831 0-.955-.008-.976-.063-.048-.127-.027-1.838.024-1.889.035-.035.304-.048.959-.048.859 0 .913.004.952.077m-14 2c.044.083.058 1.676.016 1.833l-.024.09H5c-.831 0-.955-.008-.976-.063-.048-.127-.027-1.838.024-1.889.035-.035.304-.048.959-.048.859 0 .913.004.952.077" fill="#667085" fill-rule="evenodd"/></svg>