<svg width="24" height="24" fill="none" xmlns="http://www.w3.org/2000/svg"><path d="M6.656 1.04a2.876 2.876 0 0 0-1.676.768 2.9 2.9 0 0 0-.939 1.832c-.031.239-.041 2.79-.033 8.6l.012 8.26.112.36a3.006 3.006 0 0 0 2.448 2.1c.189.029 2.003.038 5.6.03 4.929-.012 5.339-.018 5.579-.083a3.082 3.082 0 0 0 2.15-2.168c.067-.264.071-.746.071-8.739 0-8.163-.003-8.47-.075-8.74-.293-1.086-1.084-1.868-2.192-2.168-.232-.063-.686-.069-5.513-.075-2.893-.004-5.388.006-5.544.023M14 3.437c0 .24-.011.465-.024.5C13.954 3.993 13.743 4 12 4h-1.951l-.024-.09a3.624 3.624 0 0 1-.024-.5L10 3h4v.437m-6 .195c0 .906.136 1.309.597 1.772.286.286.626.475.995.552.14.029.966.044 2.434.044 2.414 0 2.468-.004 2.911-.229.26-.132.702-.574.834-.834.18-.354.229-.633.229-1.298V3.03l.674.017c.646.017.68.022.86.128.292.17.38.337.425.807.052.534.052 15.502 0 16.036-.03.316-.059.428-.139.549-.155.234-.358.347-.702.392-.395.051-9.838.052-10.232 0-.349-.045-.522-.141-.687-.38-.108-.157-.123-.221-.159-.647-.052-.632-.052-15.23 0-15.862.044-.531.126-.713.395-.879.181-.112.371-.139 1.035-.146L8 3.04v.592" fill="#667085" fill-rule="evenodd"/></svg>