<svg width="24" height="24" fill="none" xmlns="http://www.w3.org/2000/svg"><path d="M5.5 1.784c-.445.108-.923.377-1.36.766-.468.417-1.395 1.373-1.642 1.693-.588.762-.894 1.852-.78 2.777.08.643.45 1.89.908 3.06.446 1.138 1.444 3.055 1.862 3.576.253.315.772.433 1.152.261.397-.18.578-.467.579-.919l.001-.301-.373-.619c-.433-.716-1.077-2.006-1.349-2.698-.467-1.188-.778-2.266-.778-2.693 0-.357.114-.818.268-1.087.14-.244 1.587-1.685 1.8-1.794.233-.119.631-.119.863 0 .202.103 1.512 1.397 1.608 1.589.105.209.122.52.042.763-.056.168-.152.295-.498.655-.467.487-.613.702-.728 1.072a2.21 2.21 0 0 0-.013 1.078c.088.305.562 1.244.723 1.433a.978.978 0 0 0 1.211.223c.351-.192.524-.487.524-.895 0-.216-.026-.289-.262-.749l-.261-.51.276-.282c.405-.414.626-.705.784-1.033a2.997 2.997 0 0 0-.374-3.199c-.271-.336-1.32-1.376-1.641-1.627a3.126 3.126 0 0 0-1.073-.527c-.366-.094-1.106-.1-1.469-.013m14.84.472c-.163.078-1.886 1.784-9.326 9.23-8.779 8.787-9.128 9.142-9.195 9.349-.264.823.569 1.565 1.361 1.211.164-.074.606-.495 2.441-2.328l2.241-2.239.261.231c2.056 1.826 4.454 3.238 6.877 4.05 1.636.549 2.274.641 3.166.458.882-.182 1.374-.475 2.327-1.384 1.433-1.367 1.788-1.962 1.798-3.014a2.819 2.819 0 0 0-.486-1.68c-.21-.32-1.321-1.473-1.756-1.824-.577-.464-1.12-.652-1.889-.652-.952 0-1.522.259-2.347 1.067l-.286.28-.314-.172c-.758-.415-1.355-.833-2.222-1.555l-.509-.424 4.555-4.56c2.505-2.508 4.586-4.621 4.623-4.696.103-.205.123-.556.044-.791a1.12 1.12 0 0 0-.553-.591c-.225-.094-.573-.079-.811.034m-8.79 12.43c1.258 1.084 2.784 2.063 3.512 2.253a2.016 2.016 0 0 0 1.487-.202c.105-.061.382-.296.616-.521.234-.225.486-.442.56-.482.188-.101.682-.1.875.001.2.105 1.491 1.412 1.594 1.614.115.225.118.631.007.85-.092.179-1.08 1.213-1.516 1.586-.322.276-.535.374-1.036.476-.393.079-.554.055-1.487-.227a18.03 18.03 0 0 1-3.502-1.506c-.881-.501-2.112-1.372-2.954-2.089l-.434-.37.894-.895c.491-.491.898-.894.903-.894.006 0 .222.183.481.406" fill="#667085" fill-rule="evenodd"/></svg>