<svg width="24" height="24" fill="none" xmlns="http://www.w3.org/2000/svg"><path d="M17.08 1.547a.967.967 0 0 0-.516.653c-.028.127-.044.776-.044 1.722V5.44h-3.226l-.217.11c-.754.382-.708 1.433.078 1.801.127.06.341.069 1.753.08l1.608.013.012 1.608c.013 1.767.01 1.744.267 2.037a.99.99 0 0 0 .725.323.974.974 0 0 0 .907-.562l.113-.23.013-1.59.013-1.59h1.475c.911 0 1.553-.017 1.678-.043.301-.065.556-.255.693-.517.101-.194.113-.254.101-.504-.018-.361-.162-.617-.451-.795l-.196-.121-1.653-.011-1.653-.012V3.989c0-.797-.018-1.556-.039-1.687a1.019 1.019 0 0 0-.458-.72c-.16-.099-.247-.123-.479-.134-.248-.012-.312.001-.504.099m-11.425.46c-.615.051-1.194.32-1.723.801-.571.519-1.649 1.664-1.83 1.945a3.948 3.948 0 0 0-.49 1.087c-.138.46-.174 1.31-.075 1.796.131.646.499 1.813.873 2.764 1.33 3.383 3.697 6.459 6.687 8.691a20.036 20.036 0 0 0 6.343 3.164c.919.27 1.156.314 1.7.313a3.851 3.851 0 0 0 2.397-.799c.434-.328 1.833-1.758 2.055-2.099a2.969 2.969 0 0 0-.132-3.412c-.311-.406-1.676-1.731-1.95-1.892a3.056 3.056 0 0 0-2.181-.382c-.622.128-1.075.385-1.669.946l-.36.34-.391-.196c-1.257-.63-2.356-1.434-3.431-2.511a13.479 13.479 0 0 1-2.537-3.481l-.176-.35.182-.176c.813-.784 1.173-1.532 1.173-2.436a3.07 3.07 0 0 0-.614-1.831c-.325-.42-1.621-1.658-1.946-1.858-.556-.344-1.185-.484-1.905-.424m.792 2.077c.051.027.406.357.788.733.777.763.885.922.884 1.303-.001.328-.106.51-.587 1.012-.579.605-.77.997-.772 1.58 0 .354.058.562.3 1.073 1.049 2.216 2.844 4.345 4.923 5.841.947.681 2.345 1.464 2.843 1.591a1.991 1.991 0 0 0 1.482-.2c.105-.061.386-.297.623-.524.238-.227.49-.444.56-.482.193-.104.68-.095.889.016.222.118 1.525 1.448 1.607 1.641.083.194.084.588.002.781-.071.165-1.306 1.446-1.651 1.713-.381.293-1.03.47-1.469.399-.409-.066-1.673-.464-2.446-.771-4.89-1.94-8.748-5.971-10.443-10.91-.321-.938-.5-1.622-.5-1.916 0-.308.12-.777.272-1.064.124-.234 1.551-1.687 1.769-1.802.253-.133.691-.14.926-.014" fill="#667085" fill-rule="evenodd"/></svg>