<svg width="24" height="24" fill="none" xmlns="http://www.w3.org/2000/svg"><path d="M16.077 1.55c-.753.382-.708 1.435.078 1.801.125.058.333.069 1.542.08l1.397.014-2.223 2.227c-2.408 2.414-2.329 2.321-2.325 2.768a.982.982 0 0 0 1.394.885c.165-.073.584-.472 2.388-2.274l2.187-2.185.013 1.397c.013 1.534.014 1.537.267 1.826.494.561 1.437.36 1.693-.362.041-.115.052-.725.052-2.807s-.011-2.692-.052-2.807a1.014 1.014 0 0 0-.492-.568l-.212-.105h-5.49l-.217.11m-10.422.457c-.615.051-1.194.32-1.723.801-.571.519-1.649 1.664-1.83 1.945a3.948 3.948 0 0 0-.49 1.087c-.138.46-.174 1.31-.075 1.796.131.646.499 1.813.873 2.764 1.33 3.383 3.697 6.459 6.687 8.691a20.036 20.036 0 0 0 6.343 3.164c.919.27 1.156.314 1.7.313a3.851 3.851 0 0 0 2.397-.799c.434-.328 1.833-1.758 2.055-2.099a2.969 2.969 0 0 0-.132-3.412c-.311-.406-1.676-1.731-1.95-1.892a3.056 3.056 0 0 0-2.181-.382c-.622.128-1.075.385-1.669.946l-.36.34-.391-.196c-1.257-.63-2.356-1.434-3.431-2.511a13.479 13.479 0 0 1-2.537-3.481l-.176-.35.182-.176c.813-.784 1.173-1.532 1.173-2.436a3.07 3.07 0 0 0-.614-1.831c-.325-.42-1.621-1.658-1.946-1.858-.556-.344-1.185-.484-1.905-.424m.792 2.077c.051.027.406.357.788.733.777.763.885.922.884 1.303-.001.328-.106.51-.587 1.012-.579.605-.77.997-.772 1.58 0 .354.058.562.3 1.073 1.049 2.216 2.844 4.345 4.923 5.841.947.681 2.345 1.464 2.843 1.591a1.991 1.991 0 0 0 1.482-.2c.105-.061.386-.297.623-.524.238-.227.49-.444.56-.482.193-.104.68-.095.889.016.222.118 1.525 1.448 1.607 1.641.083.194.084.588.002.781-.071.165-1.306 1.446-1.651 1.713-.381.293-1.03.47-1.469.399-.409-.066-1.673-.464-2.446-.771-4.89-1.94-8.748-5.971-10.443-10.91-.321-.938-.5-1.622-.5-1.916 0-.308.12-.777.272-1.064.124-.234 1.551-1.687 1.769-1.802.253-.133.691-.14.926-.014" fill="#667085" fill-rule="evenodd"/></svg>