<svg width="24" height="24" fill="none" xmlns="http://www.w3.org/2000/svg"><path d="M5.5 1.784c-.445.108-.923.377-1.36.766-.468.417-1.395 1.373-1.642 1.693-.588.762-.894 1.852-.78 2.777.12.971.788 2.932 1.498 4.4 1.01 2.086 2.22 3.779 3.902 5.462 1.683 1.682 3.376 2.892 5.462 3.902 1.469.711 3.431 1.378 4.4 1.497.883.109 1.885-.153 2.656-.694.322-.226 1.348-1.202 1.81-1.722.589-.664.838-1.266.845-2.045a2.819 2.819 0 0 0-.486-1.68c-.21-.32-1.321-1.473-1.756-1.824-.577-.464-1.12-.652-1.889-.652-.952 0-1.522.259-2.346 1.067l-.287.28-.473-.251c-1.334-.706-2.279-1.413-3.394-2.535-1.104-1.113-1.76-2.024-2.535-3.525l-.124-.239.274-.281c.403-.411.624-.702.782-1.03a2.997 2.997 0 0 0-.374-3.199c-.271-.336-1.32-1.376-1.641-1.627a3.126 3.126 0 0 0-1.073-.527c-.366-.094-1.106-.1-1.469-.013m1.151 2.022c.202.103 1.512 1.397 1.608 1.589.106.21.122.52.041.764-.056.17-.149.293-.48.636-.674.699-.844 1.062-.812 1.738.021.432.089.62.515 1.427a14.95 14.95 0 0 0 2.774 3.743 14.956 14.956 0 0 0 3.692 2.749c.796.428 1.036.515 1.477.539.666.036 1.044-.138 1.716-.791.222-.214.465-.423.54-.464.191-.103.683-.103.878-.001.2.105 1.491 1.412 1.594 1.614.115.225.118.631.007.85-.092.179-1.08 1.213-1.516 1.586-.323.277-.535.374-1.041.477-.297.06-.35.06-.634.002-.431-.087-1.518-.427-2.21-.691a21.77 21.77 0 0 1-2.612-1.258c-3.7-2.184-6.554-5.637-7.945-9.615-.338-.965-.523-1.677-.523-2.013 0-.357.114-.818.268-1.087.134-.233 1.583-1.682 1.792-1.792.225-.119.641-.12.871-.002" fill="#667085" fill-rule="evenodd"/></svg>