<svg width="24" height="24" fill="none" xmlns="http://www.w3.org/2000/svg"><path d="M16.62 1.517c-.107.05-.786.703-2.067 1.989-1.831 1.838-1.909 1.923-1.97 2.131a1.67 1.67 0 0 0-.063.283c0 .036.028.163.063.283.061.208.139.293 1.97 2.131 2.062 2.071 2.073 2.08 2.487 2.078.372-.001.713-.211.891-.548.121-.229.121-.66.001-.884-.048-.088-.511-.583-1.03-1.1l-.943-.94 2.931-.02c2.92-.02 2.931-.02 3.094-.108.19-.102.403-.33.481-.518.071-.169.071-.579 0-.748a1.21 1.21 0 0 0-.481-.518c-.163-.088-.174-.088-3.094-.108l-2.931-.02.943-.94c.519-.517.982-1.012 1.03-1.1.12-.224.12-.655-.001-.884-.1-.19-.328-.402-.517-.481-.191-.08-.601-.069-.794.022m-10.965.487c-.61.056-1.187.321-1.703.783-.525.47-1.669 1.686-1.852 1.969a3.941 3.941 0 0 0-.488 1.084c-.138.46-.174 1.31-.075 1.796.133.658.461 1.701.844 2.684 1.336 3.434 3.698 6.518 6.716 8.771a19.988 19.988 0 0 0 6.368 3.17c.936.271 1.136.308 1.675.307.876-.001 1.578-.224 2.3-.731.438-.308 1.901-1.781 2.152-2.167a2.969 2.969 0 0 0-.132-3.412c-.311-.406-1.676-1.731-1.95-1.892a3.06 3.06 0 0 0-2.182-.383c-.628.129-1.057.373-1.668.948l-.36.339-.42-.211c-1.236-.621-2.329-1.424-3.402-2.497a13.472 13.472 0 0 1-2.537-3.48l-.176-.35.182-.176c.813-.784 1.173-1.532 1.173-2.436a3.07 3.07 0 0 0-.614-1.831c-.325-.42-1.621-1.658-1.946-1.858-.346-.214-.804-.379-1.144-.412-.13-.012-.281-.028-.336-.034a3.495 3.495 0 0 0-.425.019m.702 2.045c.095.029.358.259.856.746.801.787.907.94.906 1.325-.001.328-.106.51-.587 1.012-.579.605-.77.997-.772 1.58 0 .354.058.562.3 1.073 1.049 2.216 2.844 4.345 4.923 5.841.947.681 2.345 1.464 2.843 1.591a1.991 1.991 0 0 0 1.482-.2c.105-.061.386-.297.623-.524.238-.227.49-.444.56-.482.193-.104.68-.095.889.016.222.118 1.525 1.448 1.607 1.641.083.194.084.588.002.781-.071.165-1.306 1.446-1.651 1.713-.381.293-1.03.47-1.469.399-.409-.066-1.673-.464-2.446-.771-4.89-1.94-8.748-5.971-10.443-10.91-.321-.938-.5-1.622-.5-1.916 0-.308.12-.777.272-1.064.124-.234 1.551-1.687 1.769-1.802.247-.13.518-.146.836-.049" fill="#667085" fill-rule="evenodd"/></svg>