<svg width="24" height="24" fill="none" xmlns="http://www.w3.org/2000/svg"><path d="M11.26 2.023c-1.062.106-1.908.273-2.7.535a10.909 10.909 0 0 0-4.156 2.501c-.428.411-.537.602-.537.941 0 .574.51 1.047 1.069.989.288-.03.429-.109.784-.441 1.225-1.144 2.617-1.915 4.123-2.282.759-.185 1.27-.243 2.157-.243 1.493 0 2.645.262 3.94.897.874.428 1.59.927 2.346 1.634.168.157.384.322.48.365.366.166.828.056 1.119-.267a.984.984 0 0 0 .181-1.022c-.119-.311-1.001-1.115-1.886-1.718-1.791-1.22-3.774-1.849-5.96-1.89-.44-.008-.872-.007-.96.001m-.018 4.023a7.133 7.133 0 0 0-3.13 1.141c-.643.43-1.339 1.081-1.494 1.398-.103.211-.102.62.002.833.185.38.593.612 1.001.57.297-.03.417-.105.882-.547.479-.456.813-.688 1.384-.96a4.954 4.954 0 0 1 4.223-.001c.567.27.92.515 1.389.964.453.435.581.513.881.545.4.041.762-.154.963-.519a.777.777 0 0 0 .115-.47c-.002-.423-.204-.715-.917-1.318a7.025 7.025 0 0 0-5.299-1.636m-.422 5.997a17.854 17.854 0 0 0-6.88 1.866c-.924.46-1.321.717-1.722 1.111-.565.555-.869 1.07-1.087 1.839-.094.332-.104.442-.121 1.351-.019 1.061.003 1.306.168 1.793.145.426.324.699.722 1.097.398.398.671.577 1.097.722.476.161.737.187 1.672.169.767-.016.904-.028 1.151-.108.662-.215 1.229-.619 1.597-1.138.367-.518.531-.994.571-1.655l.024-.411.435-.138c2.234-.707 4.872-.707 7.106 0l.435.138.024.411c.05.835.313 1.431.888 2.011.277.279.434.401.68.527.602.309.769.343 1.751.363.545.01.968 0 1.129-.028a2.962 2.962 0 0 0 1.704-.914c.344-.364.523-.649.658-1.046.165-.49.188-.735.167-1.795-.017-.903-.028-1.019-.121-1.349-.216-.767-.521-1.283-1.086-1.839-.401-.394-.798-.651-1.722-1.111a17.97 17.97 0 0 0-9.24-1.866m2.9 2.054c1.507.166 2.935.526 4.32 1.089.731.297 2.003.951 2.218 1.141.189.166.451.554.616.911.098.211.104.264.118 1.03.018.977-.019 1.161-.287 1.429-.258.258-.436.303-1.207.303-.882 0-1.122-.093-1.357-.525-.1-.184-.115-.264-.142-.731-.031-.534-.102-.827-.263-1.085-.305-.487-.632-.715-1.372-.956-1.519-.495-2.702-.68-4.364-.68s-2.845.185-4.364.68c-.744.243-1.09.487-1.384.977-.16.267-.222.528-.252 1.064-.026.468-.041.547-.141.731a.953.953 0 0 1-.543.467c-.247.087-1.393.081-1.656-.008a.994.994 0 0 1-.597-.618c-.082-.275-.089-1.559-.01-1.863.078-.301.376-.802.627-1.054.372-.374 2.025-1.17 3.308-1.594a16.608 16.608 0 0 1 3.492-.724l.68-.058c.37-.031 2.039.017 2.56.074" fill="#667085" fill-rule="evenodd"/></svg>