<svg width="24" height="24" fill="none" xmlns="http://www.w3.org/2000/svg"><path d="M13.654 1.038c-.267.135-.424.307-.516.566-.159.452.055.989.476 1.193.096.046.397.121.67.165 1.251.203 2.245.592 3.276 1.283 1.854 1.244 3.131 3.269 3.439 5.455.068.478.14.663.332.85a.947.947 0 0 0 .708.3.905.905 0 0 0 .656-.251c.252-.221.326-.405.32-.799-.004-.361-.142-1.098-.315-1.696a9.999 9.999 0 0 0-5.2-6.203c-1.055-.517-2.322-.889-3.28-.963-.303-.024-.333-.019-.566.1M4.862 2.546c-.74.159-1.091.399-2.15 1.473-.456.463-.901.937-.988 1.055a4.143 4.143 0 0 0-.721 1.781c-.093.67-.03 1.172.279 2.227a20.168 20.168 0 0 0 12.976 13.459c.366.122.911.287 1.213.367.511.136.591.146 1.149.148.504.002.658-.012.96-.09a4.752 4.752 0 0 0 1.365-.628c.327-.233 1.624-1.498 1.944-1.895a2.991 2.991 0 0 0 .06-3.703c-.286-.378-1.656-1.704-1.929-1.869-.503-.303-.987-.434-1.6-.434-.502 0-.845.074-1.276.277-.354.167-.56.32-1.037.767l-.313.293-.267-.131c-.757-.373-1.723-.994-2.467-1.589-.517-.413-1.525-1.405-1.94-1.908a14.71 14.71 0 0 1-1.643-2.492l-.214-.406.359-.376c.445-.465.639-.753.806-1.196a2.94 2.94 0 0 0 .031-2.04c-.192-.565-.36-.786-1.294-1.716C7.282 3.042 7.09 2.892 6.6 2.694a3.165 3.165 0 0 0-1.738-.148m1.06 2.034c.217.112 1.504 1.405 1.605 1.614.1.208.116.546.036.782-.036.104-.202.311-.504.625-.357.372-.481.532-.593.765-.191.399-.248.744-.185 1.123.06.36.162.608.548 1.327 1.516 2.826 3.946 5.189 6.791 6.606.796.397 1.283.463 1.852.25.337-.125.504-.243.954-.676.491-.472.65-.561.996-.563.394-.003.514.077 1.29.861.753.761.846.9.846 1.266 0 .378-.085.499-.969 1.38-.876.873-.934.913-1.515 1.064-.443.115-.697.09-1.494-.142a18.074 18.074 0 0 1-7.905-4.728c-2.195-2.239-3.674-4.812-4.58-7.974-.148-.513-.148-.932-.001-1.384.128-.392.225-.53.777-1.103.577-.599 1.148-1.104 1.303-1.152.181-.055.586-.024.748.059m7.87.393a.996.996 0 0 0-.51 1.543c.154.214.324.306.781.427 1.46.385 2.532 1.435 2.917 2.857.136.502.24.701.448.86a.973.973 0 0 0 1.318-.106c.271-.289.344-.609.236-1.034-.215-.843-.539-1.567-.967-2.166A6.085 6.085 0 0 0 14.61 5.02c-.427-.109-.593-.118-.818-.047" fill="#667085" fill-rule="evenodd"/></svg>