<svg width="24" height="24" fill="none" xmlns="http://www.w3.org/2000/svg"><path d="M17.618 1.515c-.325.148-.578.544-.578.905 0 .373.034.419 1.094 1.489l1.001 1.009-2.938.011c-2.93.011-2.937.011-3.1.098-.641.343-.748 1.148-.217 1.626.106.094.263.193.351.219.116.035.928.048 3.032.048h2.874l-1.002 1.01c-.828.836-1.009 1.038-1.048 1.175-.106.371-.034.692.22.975.095.105.249.222.343.261.239.098.576.092.794-.013.125-.061.728-.64 2.079-1.997C22.586 6.26 22.52 6.34 22.52 5.895c-.001-.397-.045-.449-2.066-2.463-1.281-1.277-1.921-1.888-2.023-1.93-.204-.085-.611-.078-.813.013m-11.963.489c-.61.056-1.187.321-1.703.783-.525.47-1.669 1.686-1.852 1.969a3.941 3.941 0 0 0-.488 1.084c-.138.46-.174 1.31-.075 1.796.133.658.461 1.701.844 2.684 1.336 3.434 3.698 6.518 6.716 8.771a19.988 19.988 0 0 0 6.368 3.17c.936.271 1.136.308 1.675.307.876-.001 1.578-.224 2.3-.731.438-.308 1.901-1.781 2.152-2.167a2.969 2.969 0 0 0-.132-3.412c-.311-.406-1.676-1.731-1.95-1.892a3.06 3.06 0 0 0-2.182-.383c-.628.129-1.057.373-1.668.948l-.36.339-.42-.211c-1.236-.621-2.329-1.424-3.402-2.497a13.472 13.472 0 0 1-2.537-3.48l-.176-.35.182-.176c.813-.784 1.173-1.532 1.173-2.436a3.07 3.07 0 0 0-.614-1.831c-.325-.42-1.621-1.658-1.946-1.858-.346-.214-.804-.379-1.144-.412-.13-.012-.281-.028-.336-.034a3.495 3.495 0 0 0-.425.019m.702 2.045c.095.029.358.259.856.746.801.787.907.94.906 1.325-.001.328-.106.51-.587 1.012-.579.605-.77.997-.772 1.58 0 .354.058.562.3 1.073 1.049 2.216 2.844 4.345 4.923 5.841.947.681 2.345 1.464 2.843 1.591a1.991 1.991 0 0 0 1.482-.2c.105-.061.386-.297.623-.524.238-.227.49-.444.56-.482.193-.104.68-.095.889.016.222.118 1.525 1.448 1.607 1.641.083.194.084.588.002.781-.071.165-1.306 1.446-1.651 1.713-.381.293-1.03.47-1.469.399-.409-.066-1.673-.464-2.446-.771-4.89-1.94-8.748-5.971-10.443-10.91-.321-.938-.5-1.622-.5-1.916 0-.308.12-.777.272-1.064.124-.234 1.551-1.687 1.769-1.802.247-.13.518-.146.836-.049" fill="#667085" fill-rule="evenodd"/></svg>