<svg width="24" height="24" fill="none" xmlns="http://www.w3.org/2000/svg"><path d="M11.041 1.043a11.175 11.175 0 0 0-4.26 1.285c-.985.538-1.77 1.13-2.583 1.947-1.682 1.693-2.712 3.742-3.086 6.145-.073.467-.087.73-.087 1.58 0 .85.014 1.113.087 1.58.378 2.425 1.41 4.467 3.125 6.183.771.77 1.481 1.314 2.387 1.829 2.222 1.263 5.009 1.711 7.371 1.185 1.245-.278 2.514-.83 3.74-1.629.388-.252.454-.282.606-.273l.17.011.835-.797c.459-.438.983-.975 1.165-1.193.674-.807 1.17-1.584 1.4-2.194.977-2.592 1.182-3.738.999-5.585-.111-1.118-.256-1.877-.509-2.66-.329-1.015-.748-1.74-1.688-2.919a9.491 9.491 0 0 1-.603-.84c-.228-.39-.392-.552-.827-.817a11.508 11.508 0 0 1-.88-.636c-1.391-1.103-2.225-1.528-3.643-1.86-1.112-.261-2.857-.421-3.719-.342M11 7.645v4.445l.096.225c.053.124.106.252.118.285.012.033 1.174 1.644 2.583 3.58 2.335 3.209 2.555 3.525 2.492 3.575-.134.107-1.195.599-1.629.757a7.454 7.454 0 0 1-2.401.476c-2.696.102-5.409-1.106-7.129-3.175-1.781-2.142-2.485-4.879-1.946-7.573.643-3.221 3.09-5.817 6.356-6.744.394-.112 1.199-.279 1.41-.293.04-.002.05.911.05 4.442m2.64-4.363c1.191.14 1.9.375 2.91.965a8.986 8.986 0 0 1 3.203 3.203c.59 1.01.825 1.719.965 2.91.024.209.054.438.065.51l.021.13H13V3.196l.13.021c.072.011.301.041.51.065m7.105 9.828a5.443 5.443 0 0 0-.047.35 10.601 10.601 0 0 1-.357 1.679c-.217.663-.361.908-1.218 2.076-.285.389-1.137 1.305-1.175 1.265-.011-.011-.911-1.248-2.001-2.75L13.964 13h6.802l-.021.11" fill="#667085" fill-rule="evenodd"/></svg>