<svg width="24" height="24" fill="none" xmlns="http://www.w3.org/2000/svg"><path d="M11.87 1.023c-.012.013-.299.049-.636.08-1.048.097-1.732.228-2.534.485-.601.192-.829.292-1.394.609-.267.149-.748.397-1.069.551-.32.154-.652.327-.738.385-.209.142-1.545 1.542-1.941 2.034A12.106 12.106 0 0 0 1.8 8.187c0 .016-.098.236-.217.491-.252.537-.287.71-.324 1.578-.021.505-.05.73-.143 1.099-.134.534-.136.582-.057 1.02.032.179.088.541.123.805.062.467.17.918.573 2.4.401 1.474.456 1.583 1.324 2.62.267.319.591.735.721.924.13.189.307.433.393.543.343.434 1.298 1.136 2.287 1.682.275.152.676.396.89.543.215.146.44.278.5.291.061.014.315.096.565.182 2.111.727 4.16.826 6.245.299 1.943-.49 3.636-1.458 5.081-2.903.923-.923 1.563-1.811 2.116-2.941 2.041-4.16 1.245-9.121-1.988-12.395-1.866-1.889-4.203-3.007-6.829-3.265a4.404 4.404 0 0 1-.651-.104c-.172-.056-.496-.076-.539-.033m-.791 3.027c-.003 1.589-.073 6.598-.093 6.618-.016.016-7.226-1.896-7.255-1.924-.02-.02.354-.806.53-1.111.784-1.364 1.786-2.413 2.999-3.141.754-.453 1.353-.769 1.679-.887.467-.169 1.564-.39 1.991-.401l.15-.004-.001.85m2.613-.73c2.228.43 4.23 1.667 5.557 3.431 1.99 2.649 2.304 6.255.805 9.249-1.096 2.189-2.934 3.786-5.223 4.539-1.345.442-2.792.572-3.851.344-.687-.147-1.321-.346-1.31-.41.006-.032.741-1.866 1.634-4.075.958-2.371 1.638-4.108 1.66-4.238.035-.216.114-5.502.115-7.77l.001-1.15h.098c.054 0 .285.036.514.08M6.99 11.713c1.986.525 3.618.962 3.628.972.013.013-2.622 6.589-2.815 7.023-.038.084-.059.075-.655-.282-1.057-.635-1.381-.904-1.788-1.484a68.27 68.27 0 0 0-.71-.978c-.678-.918-.833-1.242-1.116-2.324-.493-1.882-.526-2.245-.329-3.611.037-.258.056-.308.11-.291.036.011 1.69.45 3.675.975" fill="#667085" fill-rule="evenodd"/></svg>