<svg width="24" height="24" fill="none" xmlns="http://www.w3.org/2000/svg"><path d="M12.15 1.043c-.43.102-.787.398-1 .831l-.13.264v9.722l.107.229c.15.319.431.605.748.761l.263.13h9.722l.266-.126c.338-.16.568-.39.728-.728.12-.253.126-.289.122-.726-.01-1.386-.514-3.187-1.296-4.635-1.714-3.176-4.855-5.284-8.5-5.705-.572-.066-.804-.07-1.03-.017M7.092 2.157C3.808 3.805 1.641 6.833 1.093 10.54c-.108.731-.098 2.288.019 3.04a11.14 11.14 0 0 0 1.721 4.481 10.47 10.47 0 0 0 1.532 1.841c.565.549.943.852 1.635 1.308 1.281.844 2.818 1.429 4.406 1.676.762.119 2.313.129 3.054.021 3.24-.476 5.93-2.167 7.728-4.858.374-.561.944-1.669 1.005-1.956.148-.695-.486-1.327-1.176-1.172-.412.092-.562.249-.889.931a8.917 8.917 0 0 1-4.188 4.231 8.979 8.979 0 0 1-10.04-1.48c-1.532-1.424-2.481-3.24-2.805-5.363-.096-.629-.096-1.847 0-2.498A9.076 9.076 0 0 1 4.525 7c.913-1.363 2.042-2.348 3.557-3.102.386-.193.545-.296.665-.433.342-.388.34-.904-.002-1.293-.213-.241-.414-.33-.753-.331-.255-.001-.297.014-.9.316m6.528 1.025c1.491.229 2.952.904 4.184 1.933 1.599 1.335 2.708 3.272 3.014 5.267.034.219.07.448.081.508l.019.11H13V3.082l.11.019c.061.011.29.047.51.081" fill="#667085" fill-rule="evenodd"/></svg>