<svg width="24" height="24" fill="none" xmlns="http://www.w3.org/2000/svg"><path d="M14.2 1.054c-.546.125-.912.453-1.1.986-.055.156-.063.631-.063 3.959 0 3.338.007 3.802.062 3.959.152.431.479.765.908.928.198.076.335.078 3.992.077 4.116-.002 3.909.009 4.304-.223.325-.19.576-.576.654-1.003.049-.272-.019-.951-.162-1.612a8.977 8.977 0 0 0-5.516-6.5c-1.016-.403-2.562-.689-3.079-.571m1.38 2.149c2.738.596 4.768 2.709 5.274 5.487l.056.31H15V3.078l.09.019.49.106m-6.7 1.86C6.851 5.35 5.062 6.223 3.678 7.6a8.508 8.508 0 0 0-1.737 2.407 8.902 8.902 0 0 0-.929 4.293 8.716 8.716 0 0 0 .926 3.68 8.99 8.99 0 0 0 11.942 4.135c2.84-1.355 4.736-4.047 5.086-7.226.056-.499.028-.733-.125-1.057-.134-.287-.332-.487-.649-.656l-.292-.156-3.449-.011-3.449-.011-.011-3.449L10.98 6.1l-.109-.221c-.169-.345-.36-.539-.686-.7-.356-.176-.679-.205-1.305-.116m.247 9.026c.15.319.431.605.748.761l.263.13 3.364.02 3.363.02-.094.48c-.356 1.812-1.348 3.295-2.891 4.321-1.704 1.133-3.757 1.46-5.751.917-3.2-.872-5.375-3.977-5.095-7.273a7.639 7.639 0 0 1 .344-1.727c.16-.478.627-1.39.932-1.818.346-.487 1.123-1.264 1.61-1.61.72-.512 1.621-.89 2.58-1.083l.48-.096.02 3.364.02 3.365.107.229" fill="#667085" fill-rule="evenodd"/></svg>