<svg width="24" height="24" fill="none" xmlns="http://www.w3.org/2000/svg"><path d="M10.86 2.044C9.206 2.283 7.746 3.511 7.227 5.1c-.222.68-.276 1.312-.161 1.891.036.182.058.336.05.342-.641.465-1.335 1.146-1.728 1.697-.551.771-.999 1.856-1.167 2.825l-.027.156-.248-.02c-.391-.032-.673-.214-.851-.551-.052-.099-.074-.227-.074-.44-.001-.257.015-.327.11-.489.061-.103.178-.237.26-.297.457-.334.587-.545.587-.954 0-.209-.022-.321-.086-.44a1.003 1.003 0 0 0-1.328-.439c-.482.225-.997.761-1.265 1.318a2.755 2.755 0 0 0-.288 1.144c-.09 1.62 1.176 3.037 2.812 3.144l.363.024.11.502c.275 1.258.807 2.381 1.475 3.112l.209.228.02 1.503.02 1.504.124.26c.158.329.404.576.736.735l.26.125 1.514.012c1.677.013 1.777.002 2.161-.243.432-.274.662-.725.695-1.359l.021-.39h.939l.018.419c.017.383.031.444.166.717.17.343.408.579.746.74l.22.104h3.242l.263-.13a1.67 1.67 0 0 0 .748-.761c.102-.219.108-.261.12-.996l.013-.768.395-.224c.218-.123.545-.334.727-.468.412-.303 1.086-.959 1.378-1.339l.219-.287.568-.014c.515-.012.588-.023.796-.12a1.67 1.67 0 0 0 .761-.748l.13-.263V11.14l-.124-.26a1.5 1.5 0 0 0-1.251-.868l-.283-.023-.218-.385a6.973 6.973 0 0 0-.857-1.218l-.243-.273-.012-.908-.012-.907-.13-.263a1.516 1.516 0 0 0-1.265-.864c-.26-.019-.35-.005-.77.121-1.038.313-1.9.549-1.932.53-.019-.012-.046-.101-.06-.199-.035-.23-.2-.734-.347-1.059-.388-.855-1.188-1.676-2.064-2.118-.731-.369-1.71-.523-2.552-.402m1.138 2.018c.806.19 1.481.861 1.735 1.725l.061.207-1.707.016-1.707.016-.48.126c-.264.069-.567.153-.672.186l-.193.06.026-.189c.143-1.063.914-1.934 1.899-2.147a2.453 2.453 0 0 1 1.038 0m6.094 4.771c.089.232.19.372.53.731.36.381.641.796.903 1.332.241.492.361.647.644.834.246.162.439.231.668.24l.163.007v3.013l-.454.017c-.389.015-.485.033-.671.124-.307.15-.515.341-.777.715-.51.728-1.117 1.237-2.027 1.7-.563.286-.745.45-.941.849-.105.215-.111.256-.123.915l-.014.69h-1.462l-.021-.39c-.033-.636-.233-1.035-.671-1.341-.374-.262-.468-.275-1.926-.261l-1.293.012-.229.107c-.433.203-.761.61-.869 1.078-.022.096-.04.315-.041.485L9.48 20H8.004l-.012-1.33-.012-1.33-.126-.267c-.086-.18-.235-.382-.461-.624-1.229-1.314-1.671-3.051-1.212-4.767.214-.798.644-1.517 1.295-2.164.725-.721 1.543-1.17 2.591-1.424.234-.057.66-.07 2.993-.092l2.72-.026 1.1-.322 1.1-.322.023.664c.016.476.042.713.089.837" fill="#667085" fill-rule="evenodd"/></svg>