<svg width="24" height="24" fill="none" xmlns="http://www.w3.org/2000/svg"><path d="M10.86 2.044C9.206 2.283 7.746 3.511 7.227 5.1c-.23.703-.279 1.34-.146 1.896.044.185.076.34.07.345-.006.006-.14.106-.297.224-1.38 1.034-2.325 2.487-2.65 4.075l-.069.34-.218-.004c-.349-.007-.644-.199-.822-.536-.052-.099-.074-.227-.074-.44-.001-.257.015-.327.11-.489.061-.103.178-.237.26-.297.457-.334.587-.545.587-.954 0-.209-.022-.321-.086-.44a1.003 1.003 0 0 0-1.328-.439c-.482.225-.997.761-1.265 1.318a2.755 2.755 0 0 0-.288 1.144c-.09 1.62 1.176 3.037 2.812 3.144l.363.024.11.502c.275 1.258.807 2.381 1.475 3.112l.209.228.02 1.503.02 1.504.124.26c.158.329.404.576.736.735l.26.125 1.514.012c1.677.013 1.777.002 2.161-.243.432-.274.662-.725.695-1.359l.021-.39h.939l.018.419c.017.383.031.444.166.717.17.343.408.579.746.74l.22.104h3.242l.263-.13a1.67 1.67 0 0 0 .748-.761c.102-.219.108-.261.12-.996l.013-.768.395-.224c.218-.123.545-.334.727-.468.412-.303 1.086-.959 1.378-1.339l.219-.287.568-.014c.515-.012.588-.023.796-.12a1.67 1.67 0 0 0 .761-.748l.13-.263V11.14l-.124-.26a1.5 1.5 0 0 0-1.251-.868l-.283-.023-.218-.385a6.973 6.973 0 0 0-.857-1.218l-.243-.273-.012-.908-.012-.907-.13-.263a1.516 1.516 0 0 0-1.265-.864c-.26-.019-.35-.005-.77.121-1.038.313-1.9.549-1.932.53-.019-.012-.046-.101-.06-.199-.035-.23-.2-.734-.347-1.059-.388-.855-1.188-1.676-2.064-2.118-.731-.369-1.71-.523-2.552-.402m1.16 2.016c.884.185 1.617.869 1.885 1.76.104.343.096 1.069-.014 1.407-.408 1.249-1.646 1.978-2.911 1.713a2.499 2.499 0 0 1-1.966-2.58c.1-1.553 1.491-2.617 3.006-2.3m6.072 4.773c.089.232.19.372.53.731.36.381.641.796.903 1.332.241.492.361.647.644.834.246.162.439.231.668.24l.163.007v3.013l-.454.017c-.389.015-.485.033-.671.124-.307.15-.515.341-.777.715-.51.728-1.117 1.237-2.027 1.7-.563.286-.745.45-.941.849-.105.215-.111.256-.123.915l-.014.69h-1.462l-.021-.39c-.033-.636-.233-1.035-.671-1.341-.374-.262-.468-.275-1.926-.261l-1.293.012-.229.107c-.433.203-.761.61-.869 1.078-.022.096-.04.315-.041.485L9.48 20H8.004l-.012-1.33-.012-1.33-.126-.267c-.086-.18-.235-.382-.461-.624a4.997 4.997 0 0 1-1.299-2.489c-.087-.415-.099-1.419-.021-1.78.209-.967.654-1.754 1.433-2.532l.453-.451.41.415c.647.653 1.316 1.052 2.103 1.252 1.757.448 3.643-.295 4.691-1.849.187-.276.516-.913.518-1.001 0-.019.518-.18 1.15-.358l1.149-.323.023.663c.016.476.042.713.089.837" fill="#667085" fill-rule="evenodd"/></svg>