<svg width="24" height="24" fill="none" xmlns="http://www.w3.org/2000/svg"><path d="M8.1 3.046c-.698.089-1.525.405-2.149.822-.158.105-.45.347-.649.537A4.785 4.785 0 0 0 4.024 6.4 4.756 4.756 0 0 0 3.76 8c0 1.365.536 2.627 1.519 3.574a4.849 4.849 0 0 0 1.888 1.163c.711.239.658.234 3.223.252l2.37.016V19h-.57c-.649 0-.799.031-1.039.212-.577.434-.497 1.333.149 1.682l.16.086h8.08l.16-.086c.646-.349.726-1.248.149-1.682-.24-.181-.39-.212-1.039-.212h-.57V5.007l.65-.014c.572-.012.669-.024.81-.1.336-.18.538-.515.539-.896.002-.42-.315-.845-.71-.955-.187-.052-11.02-.048-11.429.004m4.66 4.956v3.002l-2.29-.014c-2.26-.014-2.294-.016-2.57-.106-.853-.28-1.462-.804-1.841-1.584a2.96 2.96 0 0 1 0-2.6 2.937 2.937 0 0 1 2.214-1.659c.103-.017 1.155-.034 2.337-.036L12.76 5v3.002M16.24 12v7h-1.48V5h1.48v7" fill="#667085" fill-rule="evenodd"/></svg>