<svg width="24" height="24" fill="none" xmlns="http://www.w3.org/2000/svg"><path d="M5.9 2.025c-.991.083-1.531.257-2.2.708-.578.389-1.181 1.16-1.417 1.811-.279.77-.263.33-.263 7.456 0 6.02.004 6.442.072 6.773.223 1.094.826 1.987 1.746 2.582.418.269.858.445 1.389.553.331.068.753.072 6.773.072s6.442-.004 6.773-.072c1.094-.223 1.987-.826 2.582-1.746.269-.418.445-.858.553-1.389.068-.331.072-.753.072-6.773s-.004-6.442-.072-6.773c-.289-1.42-1.291-2.57-2.618-3.005-.611-.2-.432-.195-7.05-.203a802.572 802.572 0 0 0-6.34.006M17.801 4.04c.341.022.723.066.85.099.553.144 1.065.656 1.209 1.209.118.452.14 1.48.14 6.652 0 5.167-.022 6.2-.139 6.651-.142.544-.638 1.05-1.181 1.206-.442.126-1.17.142-6.68.142s-6.238-.016-6.68-.142c-.543-.156-1.039-.662-1.181-1.206C4.022 18.2 4 17.167 4 12c0-5.172.022-6.2.14-6.652.103-.397.416-.8.811-1.044.239-.148.575-.225 1.142-.261.734-.047 10.98-.05 11.708-.003m-7.368 2.003c-.426.063-.732.161-1.173.376A3.883 3.883 0 0 0 7.418 8.26c-.308.628-.396 1.013-.396 1.74 0 .727.088 1.112.396 1.74a3.89 3.89 0 0 0 1.842 1.842c.781.383.835.391 2.93.408l1.81.014v1.571c0 1.787.007 1.834.299 2.126a.984.984 0 0 0 1.402 0c.32-.32.299.082.299-5.701 0-5.783.021-5.381-.299-5.701-.304-.304-.261-.3-2.798-.294-1.234.003-2.345.02-2.47.038M14 10v2l-1.61-.001c-1.779 0-1.925-.016-2.358-.246-.302-.161-.671-.556-.829-.887a2.055 2.055 0 0 1 .004-1.741c.245-.515.83-.974 1.373-1.078.11-.021.925-.04 1.81-.043L14 8v2" fill="#667085" fill-rule="evenodd"/></svg>