<svg width="24" height="24" fill="none" xmlns="http://www.w3.org/2000/svg"><path d="M9.847 3.044A5.525 5.525 0 0 0 6.58 4.661c-.76.775-1.245 1.695-1.487 2.82-.102.475-.102 1.563 0 2.038.248 1.151.737 2.066 1.529 2.859.779.779 1.651 1.251 2.818 1.526.267.063.589.072 2.93.085l2.63.015V19h-.573c-.686 0-.881.052-1.128.299a.984.984 0 0 0 0 1.402c.302.302.274.299 2.701.299s2.399.003 2.701-.299a.984.984 0 0 0 0-1.402c-.247-.247-.442-.299-1.128-.299H17V5h.573c.686 0 .881-.052 1.128-.299a.984.984 0 0 0 0-1.402c-.317-.317-.053-.3-4.558-.294-2.202.003-4.135.021-4.296.039M15 8.5V12h-2.413c-1.509 0-2.501-.016-2.65-.042a3.526 3.526 0 0 1-1.939-1.023 3.445 3.445 0 0 1-.884-1.555c-.124-.457-.124-1.303 0-1.76.313-1.152 1.179-2.078 2.28-2.439.495-.162.701-.174 3.196-.177L15 5v3.5" fill="#667085" fill-rule="evenodd"/></svg>