<svg width="24" height="24" fill="none" xmlns="http://www.w3.org/2000/svg"><path d="M7.038 1.055a1.964 1.964 0 0 0-.961.545 1.92 1.92 0 0 0-.596 1.44c.001.376.06.548.893 2.609L7 7.198v2.45l-1.124 1.406c-1.218 1.525-1.541 1.974-1.674 2.33-.26.694-.078 1.468.474 2.019.279.277.471.389.864.504.215.062.509.071 2.85.083l2.61.014v3.068c0 1.99.015 3.12.042 3.217.11.397.534.711.961.711.417 0 .846-.319.955-.711.027-.097.042-1.227.042-3.217v-3.068l2.61-.014c2.341-.012 2.635-.021 2.85-.083.393-.115.585-.227.864-.504.552-.551.734-1.325.474-2.019-.133-.354-.453-.801-1.675-2.33L17 9.648V7.196l.718-1.788c.395-.983.736-1.869.759-1.968a2.255 2.255 0 0 0-.015-.915c-.199-.746-.832-1.347-1.561-1.481-.348-.065-9.561-.055-9.863.011m9.136 1.971.274.026-.025.123c-.013.067-.315.852-.671 1.744-.355.891-.67 1.72-.699 1.841-.037.16-.052.62-.052 1.682-.001 1.577.013 1.711.22 2.119.055.11.572.789 1.148 1.509 1.264 1.581 1.471 1.848 1.471 1.894 0 .021-2.422.036-5.84.036-3.418 0-5.84-.015-5.84-.036 0-.046.207-.313 1.471-1.894.576-.72 1.093-1.399 1.148-1.509.2-.395.22-.584.22-2.141 0-1.067-.014-1.497-.054-1.66-.029-.121-.292-.814-.584-1.54-.568-1.414-.801-2.03-.801-2.12 0-.038.061-.06.19-.071.34-.026 8.142-.029 8.424-.003" fill="#667085" fill-rule="evenodd"/></svg>