<svg width="24" height="24" fill="none" xmlns="http://www.w3.org/2000/svg"><path d="M13.654 1.537A2.086 2.086 0 0 0 12.31 2.64a93.212 93.212 0 0 0-.812 1.88l-.669 1.58-.878.884-.878.884-2.407.484c-1.323.267-2.558.534-2.744.594-.616.199-1.071.61-1.284 1.161-.122.313-.153.913-.064 1.218.146.495.263.633 2.255 2.636l1.889 1.901-2.501 2.499c-1.395 1.393-2.55 2.579-2.61 2.679-.143.241-.152.691-.018.944.262.495.909.683 1.381.402.094-.055 1.295-1.227 2.669-2.603l2.499-2.501 1.901 1.889c2.003 1.992 2.141 2.109 2.636 2.255.305.089.905.058 1.218-.064.551-.213.962-.667 1.161-1.284.061-.186.326-1.418.591-2.738l.481-2.4.878-.88.878-.88.969-.417c.533-.229 1.328-.567 1.768-.751.439-.184.884-.39.989-.457.699-.448 1.06-1.371.851-2.173-.138-.528-.08-.464-3.711-4.105-3.69-3.699-3.58-3.601-4.152-3.735a2.125 2.125 0 0 0-.942-.005m3.671 5.138c1.664 1.664 3.046 3.065 3.071 3.114.043.083.03.097-.185.204-.127.064-.915.409-1.751.767-.836.358-1.592.701-1.68.763-.224.156-2.27 2.225-2.374 2.401-.155.262-.206.473-.688 2.856a169.064 169.064 0 0 1-.52 2.512l-.043.153-3.7-3.67a476.708 476.708 0 0 1-4.299-4.3l-.601-.63.153-.044c.083-.024 1.214-.258 2.512-.52 2.381-.48 2.594-.531 2.856-.687.18-.108 2.248-2.153 2.408-2.382.065-.093.395-.815.733-1.606.339-.79.683-1.573.764-1.74.137-.282.154-.301.234-.26.047.024 1.446 1.405 3.11 3.069" fill="#667085" fill-rule="evenodd"/></svg>