<svg width="24" height="24" fill="none" xmlns="http://www.w3.org/2000/svg"><path d="M18.949 1.044a3.65 3.65 0 0 0-1.604.675c-.128.098-.928.889-1.776 1.759-.899.923-1.576 1.587-1.625 1.594-.046.006-1.932-.413-4.191-.93-3.715-.852-4.141-.942-4.46-.941a1.89 1.89 0 0 0-1.098.331c-.118.079-.586.518-1.039.976-.884.892-1.008 1.067-1.112 1.564-.168.809.202 1.671.911 2.124.122.078 1.165.443 3.041 1.065l2.856.947-1.176 1.178c-.647.649-1.203 1.193-1.236 1.21-.033.017-.6-.03-1.26-.104-1.023-.116-1.242-.13-1.485-.095-.626.089-.938.291-1.777 1.149-.591.604-.785.904-.88 1.363-.146.705.15 1.503.726 1.955.141.111.924.641 1.741 1.178l1.485.976 1.106 1.648c.753 1.123 1.166 1.702 1.295 1.816.491.433 1.217.614 1.831.457.482-.124.635-.231 1.384-.969.746-.735.88-.918 1.014-1.384.093-.321.083-.633-.059-1.885l-.122-1.079 1.209-1.21c.664-.665 1.214-1.203 1.221-1.196.007.007.434 1.274.949 2.816.696 2.082.972 2.858 1.073 3.016.581.9 1.679 1.201 2.664.729.178-.086.414-.296 1.133-1.013.845-.841.918-.925 1.049-1.209.174-.377.242-.771.188-1.098-.021-.13-.464-2.07-.984-4.31l-.945-4.073.392-.408c2.183-2.274 2.793-2.919 2.934-3.107.215-.287.451-.78.565-1.179.077-.27.091-.41.089-.9-.003-.509-.016-.623-.11-.932a3.456 3.456 0 0 0-.997-1.612 3.546 3.546 0 0 0-2.92-.892m1.163 2.1c.608.297.959.959.845 1.593-.075.415-.191.577-1.07 1.493l-1.638 1.706c-.446.464-.872.935-.947 1.046a1.827 1.827 0 0 0-.315 1.078c0 .329.084.718.966 4.5l.965 4.14-.249.254c-.31.317-.986.926-1.028.926-.057 0-.327-.766-1.364-3.872-.568-1.7-1.071-3.154-1.118-3.23-.248-.4-.872-.568-1.297-.349-.205.106-3.905 3.766-4.096 4.051a2.253 2.253 0 0 0-.347.96c-.015.138.029.668.116 1.42l.138 1.2-.266.273c-.147.15-.355.347-.462.438l-.196.165-.097-.118a70.612 70.612 0 0 1-1.057-1.551c-.528-.788-1.027-1.506-1.108-1.596-.083-.092-.843-.628-1.754-1.236-.884-.591-1.619-1.093-1.634-1.117-.015-.024.17-.242.415-.49l.442-.446 1.192.13c1.357.148 1.428.15 1.754.067.539-.139.545-.144 2.641-2.206 2.04-2.006 2.143-2.123 2.196-2.493.048-.341-.143-.738-.452-.938-.081-.052-1.641-.592-3.467-1.199-1.826-.607-3.408-1.144-3.515-1.194l-.196-.091.381-.421c.209-.232.486-.516.614-.631.205-.182.25-.205.355-.183.067.014 1.921.44 4.121.946 2.475.569 4.115.927 4.301.94.357.024.678-.047 1.048-.233.275-.138.394-.253 2.513-2.42 1.398-1.43 1.457-1.47 2.13-1.438.24.011.365.041.54.126" fill="#667085" fill-rule="evenodd"/></svg>