<svg width="24" height="24" fill="none" xmlns="http://www.w3.org/2000/svg"><path d="M11.041 1.045c-1.47.13-2.98.585-4.26 1.283-.985.538-1.77 1.13-2.583 1.947-1.682 1.693-2.712 3.742-3.086 6.145-.073.467-.087.73-.087 1.58 0 .85.014 1.113.087 1.58.378 2.425 1.41 4.467 3.125 6.183 1.716 1.715 3.758 2.747 6.183 3.125.809.126 2.351.126 3.16 0 2.413-.376 4.471-1.417 6.181-3.127.923-.923 1.563-1.811 2.116-2.941a10.92 10.92 0 0 0 0-9.64 11.163 11.163 0 0 0-3.826-4.353 11.032 11.032 0 0 0-7.01-1.782m2.279 2.057a9.023 9.023 0 0 1 5.664 3.218c.816 1.005 1.483 2.358 1.771 3.6.167.718.222 1.229.222 2.08 0 1.511-.264 2.654-.917 3.98-.896 1.818-2.252 3.179-4.067 4.079a8.986 8.986 0 0 1-6.453.597C7.08 19.955 5.103 18.309 3.946 16c-.642-1.283-.923-2.498-.923-4 0-1.502.281-2.717.923-4 .91-1.819 2.235-3.143 4.056-4.055 1.025-.514 2.001-.783 3.338-.921.324-.033 1.573.016 1.98.078m-3.679 3.88a1.549 1.549 0 0 0-1.003.835l-.122.249v7.868l.122.249c.217.44.559.716 1.039.839.464.119.897.015 1.371-.331.225-.165 4.677-3.03 5.201-3.348.343-.209.501-.376.662-.703.098-.197.109-.264.109-.64s-.011-.443-.109-.64c-.161-.327-.319-.494-.662-.703-.526-.319-4.977-3.184-5.202-3.349-.467-.34-.953-.453-1.406-.326m2.925 3.659c1.13.726 2.054 1.338 2.054 1.359 0 .032-4.075 2.68-4.124 2.68-.009 0-.016-1.206-.016-2.68 0-1.474.007-2.68.016-2.68.009 0 .94.594 2.07 1.321" fill="#667085" fill-rule="evenodd"/></svg>