<svg width="24" height="24" fill="none" xmlns="http://www.w3.org/2000/svg"><path d="M5.388 1.94c-.509.14-1.032.554-1.242.983-.257.526-.24-.017-.256 8.617-.009 4.95.001 8.054.026 8.42.048.709.137 1.02.384 1.356.355.482.862.757 1.462.794.396.023.654-.037 1.083-.253.277-.139 12.283-8.118 12.582-8.361.402-.328.66-.912.66-1.496s-.258-1.169-.66-1.496c-.248-.201-12.028-8.042-12.426-8.271a3.741 3.741 0 0 0-.595-.274 2.054 2.054 0 0 0-1.018-.019m6.587 5.982c3.193 2.131 5.859 3.921 5.925 3.978l.12.103-.12.102c-.137.116-11.501 7.703-11.79 7.872l-.19.111V3.918l.125.065c.069.036 2.738 1.808 5.93 3.939" fill="#667085" fill-rule="evenodd"/></svg>