<svg width="24" height="24" fill="none" xmlns="http://www.w3.org/2000/svg"><path d="M5.92 2.042C4.683 2.121 3.98 2.42 3.2 3.2c-.591.592-.907 1.158-1.059 1.899-.129.631-.146 1.587-.129 7.443.018 6.317.01 6.11.26 6.834.319.925 1.168 1.846 2.071 2.248.4.177.936.292 1.57.335.781.053 11.393.053 12.174 0 1.207-.082 1.974-.405 2.724-1.146.727-.719 1.066-1.523 1.148-2.726.053-.781.053-11.393 0-12.174-.043-.634-.158-1.17-.335-1.57-.402-.903-1.323-1.752-2.248-2.071-.729-.251-.492-.243-7.016-.253-3.267-.005-6.165.005-6.44.023m12.206 1.999c.228.023.505.069.616.103.306.094.689.397.909.719.352.516.329.008.329 7.137 0 6.905.011 6.586-.246 7.029-.143.245-.46.562-.705.705-.443.257-.128.246-6.989.246-5.041 0-6.275-.01-6.511-.054-.482-.089-.853-.33-1.149-.746-.227-.318-.286-.511-.34-1.104-.065-.713-.033-12.239.035-12.574.101-.498.486-1.004.955-1.254.22-.117.495-.181.95-.221.419-.036 11.766-.024 12.146.014M9.655 6.958c-.409.098-.837.453-1.037.862l-.118.24v7.88l.112.228c.273.557.738.873 1.327.904.419.022.644-.048 1.057-.329.399-.272 5.049-3.258 5.293-3.4.266-.154.568-.5.676-.773.127-.321.127-.818.001-1.138-.119-.3-.383-.588-.738-.804a460.327 460.327 0 0 1-5.179-3.333c-.204-.139-.463-.28-.577-.314a1.975 1.975 0 0 0-.817-.023m2.925 3.714c1.078.691 1.981 1.277 2.007 1.302.035.035-.448.364-1.977 1.346a218.372 218.372 0 0 1-2.057 1.313c-.018.008-.033-1.177-.033-2.632 0-2.106.01-2.64.05-2.616l2.01 1.287" fill="#667085" fill-rule="evenodd"/></svg>