<svg width="24" height="24" fill="none" xmlns="http://www.w3.org/2000/svg"><path d="M11.087 1.044a10.054 10.054 0 0 0-6.115 2.808C3.44 5.342 2.506 7.101 2.132 9.2c-.09.507-.104.698-.108 1.52-.002.583.016 1.077.048 1.3a9.852 9.852 0 0 0 2.847 5.655c.602.592 1.334 1.157 1.641 1.265a.994.994 0 0 0 1.189-.451c.095-.161.111-.233.111-.489 0-.438-.096-.581-.69-1.026-2.181-1.635-3.354-4.163-3.137-6.763.087-1.036.301-1.837.727-2.722a7.717 7.717 0 0 1 3.56-3.608 8.228 8.228 0 0 1 2.56-.805c.489-.068 1.751-.068 2.24 0a8.264 8.264 0 0 1 4.1 1.811 7.668 7.668 0 0 1 2.683 7.053c-.3 1.988-1.387 3.767-3.073 5.034-.594.446-.69.588-.69 1.026 0 .256.016.328.111.489.129.22.306.365.547.45.392.139.667.056 1.242-.373a9.797 9.797 0 0 0 2.962-3.546c.459-.94.744-1.843.903-2.86.101-.643.102-2.076.002-2.72-.348-2.229-1.292-4.052-2.912-5.621a10.02 10.02 0 0 0-4.323-2.457 10.494 10.494 0 0 0-3.585-.318m.333 3.981c-.088.009-.355.053-.593.098-1.206.225-2.253.782-3.15 1.676C6.53 7.941 5.954 9.367 6.013 10.92c.032.856.175 1.441.545 2.224.344.727.974 1.545 1.333 1.73.543.279 1.213.024 1.403-.534.139-.409.055-.725-.301-1.127-.33-.373-.452-.557-.652-.986-.255-.545-.321-.862-.317-1.507.003-.419.024-.612.091-.86a3.75 3.75 0 0 1 .982-1.683 4.057 4.057 0 0 1 1.855-1.046c.342-.091.466-.103 1.048-.103.582 0 .706.012 1.048.103 1.418.377 2.48 1.399 2.836 2.729.066.245.087.446.091.86.006.645-.06.96-.316 1.507-.2.429-.322.613-.652.986-.356.402-.44.718-.301 1.127.138.405.587.692 1.017.651.307-.03.544-.178.853-.533 1.334-1.535 1.759-3.571 1.138-5.458-.267-.813-.726-1.538-1.391-2.201-1.147-1.144-2.542-1.739-4.163-1.778a9.459 9.459 0 0 0-.74.004m.182 4.019c-.337.066-.755.299-1.017.568-.783.801-.777 1.996.015 2.788.798.798 2.002.798 2.8 0 .792-.792.798-1.987.015-2.788a2 2 0 0 0-1.813-.568m-.162 6.013a2.93 2.93 0 0 0-1.561.859 2.924 2.924 0 0 0-.765 1.284c-.092.292-.094.339-.094 1.8s.002 1.508.094 1.8c.17.546.385.902.784 1.302.4.399.756.614 1.302.784.431.135 1.169.135 1.6 0 .546-.17.902-.385 1.302-.784.399-.4.614-.756.784-1.302.092-.292.094-.339.094-1.8s-.002-1.508-.094-1.8a2.887 2.887 0 0 0-.784-1.302c-.303-.302-.424-.392-.742-.55a4.324 4.324 0 0 0-.62-.251c-.336-.087-.981-.107-1.3-.04m1.057 2.079c.205.12.368.315.446.534.067.187.08 2.387.015 2.619-.059.212-.272.474-.48.591-.146.082-.232.1-.478.1-.362 0-.584-.105-.787-.372-.206-.27-.218-.374-.205-1.7l.012-1.208.111-.189c.124-.211.315-.373.539-.456.227-.085.607-.048.827.081" fill="#667085" fill-rule="evenodd"/></svg>