<svg width="24" height="24" fill="none" xmlns="http://www.w3.org/2000/svg"><path d="M11.673 1.061a1.03 1.03 0 0 0-.363.232C10.977 1.616 11 1.195 11 7c0 5.784-.021 5.381.3 5.702.511.511 1.354.33 1.639-.353.054-.129.061-.768.061-5.349 0-5.672.014-5.317-.223-5.627-.234-.307-.705-.44-1.104-.312M5.31 5.695c-.209.078-.382.218-.684.555-1.038 1.156-1.766 2.437-2.199 3.87a9.424 9.424 0 0 0-.414 2.56c-.095 2.772.949 5.406 2.925 7.382a9.806 9.806 0 0 0 4.709 2.654c1.399.345 2.944.373 4.361.081a9.886 9.886 0 0 0 5.054-2.735 9.948 9.948 0 0 0 2.718-9.144c-.371-1.772-1.338-3.587-2.579-4.842-.24-.243-.345-.319-.516-.375-.512-.168-1.092.108-1.259.6-.151.442-.058.733.386 1.211 1.127 1.215 1.813 2.613 2.094 4.268.095.56.095 1.889 0 2.44-.401 2.335-1.649 4.252-3.586 5.51-2.813 1.827-6.511 1.664-9.22-.404a10.805 10.805 0 0 1-1.311-1.286c-1.215-1.503-1.864-3.464-1.774-5.36.093-1.976.824-3.714 2.173-5.168.338-.364.452-.584.452-.872a1.04 1.04 0 0 0-.576-.896c-.205-.097-.564-.12-.754-.049" fill="#667085" fill-rule="evenodd"/></svg>