<svg width="24" height="24" fill="none" xmlns="http://www.w3.org/2000/svg"><path d="M1.643 2.069C1.291 2.193 1 2.614 1 3c0 .396.291.808.66.934.107.036.226.066.265.066.068 0 .072.228.085 4.75.014 4.639.016 4.758.097 5.11.119.515.285.915.552 1.323A3.932 3.932 0 0 0 5.14 16.89c.321.072.559.083 2.218.105l1.858.025-2.005 1.671c-2.172 1.81-2.161 1.798-2.202 2.231C4.956 21.477 5.437 22 6 22c.35 0 .426-.055 2.744-1.987l2.236-1.863.02 1.555c.02 1.53.022 1.558.114 1.745a.988.988 0 0 0 1.211.489.982.982 0 0 0 .561-.489c.092-.187.094-.215.114-1.745l.02-1.555 2.236 1.863C17.574 21.945 17.65 22 18 22c.563 0 1.044-.523.991-1.078-.041-.433-.03-.421-2.202-2.231l-2.005-1.671 1.858-.025c1.659-.022 1.897-.033 2.218-.105a3.932 3.932 0 0 0 2.481-1.707c.267-.408.433-.808.552-1.323.081-.352.083-.471.097-5.11.013-4.522.017-4.75.085-4.75.171 0 .469-.142.626-.299a.984.984 0 0 0 0-1.402c-.327-.327.687-.299-10.718-.296-9.098.003-10.182.01-10.34.066M20 8.09c0 4.083-.026 5.127-.139 5.561-.142.544-.638 1.05-1.181 1.206-.442.126-1.17.142-6.68.142s-6.238-.016-6.68-.142c-.543-.156-1.039-.662-1.181-1.206C4.026 13.217 4 12.173 4 8.09V4h16v4.09M7.643 6.069a1.118 1.118 0 0 0-.343.229c-.309.309-.3.215-.3 3.202 0 2.986-.009 2.894.299 3.201a.984.984 0 0 0 1.402 0C9.009 12.394 9 12.486 9 9.5s.009-2.894-.299-3.201a.998.998 0 0 0-1.058-.23m4 2a1.066 1.066 0 0 0-.577.591c-.057.168-.066.413-.066 1.84 0 1.871.005 1.907.299 2.201.18.18.459.299.701.299.242 0 .521-.119.701-.299.294-.294.299-.33.299-2.201s-.005-1.907-.299-2.201a.998.998 0 0 0-1.058-.23m4 2a1.066 1.066 0 0 0-.577.591c-.051.149-.066.344-.066.84 0 .766.045.947.299 1.201a.984.984 0 0 0 1.402 0c.254-.254.299-.435.299-1.201s-.045-.947-.299-1.201a.998.998 0 0 0-1.058-.23" fill="#667085" fill-rule="evenodd"/></svg>