<svg width="24" height="24" fill="none" xmlns="http://www.w3.org/2000/svg"><path d="M7.656 1.04c-1.122.122-2.122.917-2.473 1.966-.154.46-.181.753-.182 1.937L5 6.027l-.43.047c-.559.062-.942.163-1.344.357-1.023.492-1.834 1.495-2.084 2.575-.127.549-.147 1.145-.133 3.894.014 2.7.015 2.722.107 3.056.33 1.196 1.095 2.139 2.144 2.642.493.237.728.296 1.25.314l.49.016v.472c0 .653.066 1.231.182 1.599.235.742.914 1.461 1.675 1.771.577.234.557.234 5.308.22 4.827-.015 4.53.002 5.142-.292.559-.269 1.105-.806 1.37-1.347.22-.45.286-.805.312-1.661l.023-.77h.405c.675 0 1.345-.244 1.978-.721.753-.568 1.256-1.333 1.498-2.279.086-.334.087-.391.087-3.34 0-2.729-.006-3.032-.072-3.353-.257-1.265-1.037-2.276-2.168-2.814-.376-.178-.766-.279-1.31-.339L19 6.027l-.001-1.084c-.001-1.186-.029-1.488-.183-1.953-.166-.503-.646-1.14-1.079-1.435a4.026 4.026 0 0 0-.972-.447c-.303-.085-.335-.086-4.565-.092-2.343-.004-4.388.007-4.544.024m8.274 2c.535.045.7.119.889.405.133.201.178.643.18 1.765L17 6H7l.001-.75c0-.412.017-.951.037-1.197.032-.38.053-.472.143-.607.181-.274.367-.366.812-.403.564-.046 7.379-.049 7.937-.003m2.83 5c.363.021.763.066.89.099.556.145 1.069.659 1.21 1.21.033.128.077.493.099.811.051.742.052 4.675.002 5.111-.052.458-.217.792-.557 1.132-.361.36-.697.524-1.127.549l-.317.018v-.661c0-.973-.114-1.451-.47-1.974-.166-.243-.549-.641-.753-.781a4.02 4.02 0 0 0-1.051-.462c-.285-.067-.613-.072-4.686-.072-4.959 0-4.678-.017-5.359.324-.56.28-1.039.762-1.319 1.327-.208.418-.249.644-.271 1.504l-.021.795-.305-.018c-.689-.04-1.335-.558-1.614-1.295l-.09-.237-.001-2.68c0-2.953.015-3.209.221-3.652.141-.304.496-.674.788-.823.281-.142.504-.187 1.111-.222.777-.046 12.845-.049 13.62-.003m-4.143 1.537c-.183.079-.41.294-.508.479-.12.228-.121.659-.001.884.11.206.31.397.512.488.144.065.322.073 1.793.084 1.932.014 1.961.01 2.288-.325.217-.223.299-.42.299-.712-.001-.347-.287-.759-.626-.9-.19-.079-3.575-.078-3.757.002m1.313 5.463c.535.045.7.119.889.405.149.225.178.65.178 2.555 0 1.892-.031 2.347-.176 2.566-.156.235-.358.348-.703.393-.395.051-7.841.051-8.236 0-.35-.046-.551-.16-.704-.402-.144-.228-.177-.707-.177-2.557 0-1.866.033-2.332.18-2.554.181-.274.367-.366.812-.403.564-.046 7.379-.049 7.937-.003" fill="#667085" fill-rule="evenodd"/></svg>