<svg width="24" height="24" fill="none" xmlns="http://www.w3.org/2000/svg"><path d="M11.64 1.068c-.153.053-.465.346-2.111 1.987-1.372 1.367-1.957 1.977-2.02 2.105-.135.273-.126.678.022.929.143.243.286.348.739.543.825.354 1.347.769 1.592 1.263.124.253.141.323.142.602.002.283-.013.345-.141.606-.241.485-.662.81-1.178.906-.771.143-1.555-.533-2.075-1.789-.242-.586-.607-.857-1.088-.811-.38.036-.448.095-2.467 2.12-1.732 1.738-1.931 1.951-1.99 2.128a.987.987 0 0 0 0 .686c.059.175.225.356 1.5 1.638l1.434 1.441-.329.238c-.88.636-1.411 1.326-1.616 2.1-.101.383-.092 1.122.021 1.54a3.698 3.698 0 0 0 1.905 2.342c.563.28.925.369 1.52.371.866.004 1.454-.236 2.127-.866.276-.257.642-.687.833-.979l.113-.172 1.444 1.437c1.337 1.331 1.459 1.442 1.657 1.507.26.084.525.066.77-.052.125-.061.738-.65 2.101-2.017 1.807-1.813 1.93-1.944 1.995-2.146.131-.405 0-.863-.315-1.104a2.137 2.137 0 0 0-.389-.206c-.585-.238-.974-.47-1.29-.771-.402-.383-.55-.693-.552-1.158-.002-.259.015-.33.141-.584a1.67 1.67 0 0 1 .808-.789c.439-.205.94-.16 1.351.123.4.275.773.794 1.074 1.494.087.203.203.428.257.499.235.311.697.442 1.1.311.202-.065.333-.188 2.146-1.995 1.367-1.363 1.956-1.976 2.017-2.101.118-.245.136-.51.052-.77-.065-.198-.175-.32-1.506-1.656l-1.436-1.442.276-.189c.358-.245.911-.764 1.149-1.078.419-.554.594-1.09.589-1.809-.003-.585-.092-.958-.353-1.489a3.674 3.674 0 0 0-2.371-1.936c-.657-.172-1.547-.088-2.114.198-.504.255-1.157.862-1.561 1.453l-.189.276-1.442-1.436C12.7 1.29 12.518 1.124 12.343 1.065a1.053 1.053 0 0 0-.703.003m1.899 3.887c1.415 1.41 1.536 1.52 1.736 1.585.402.131.865 0 1.1-.311.054-.071.17-.296.257-.499.385-.896.88-1.481 1.418-1.675.093-.034.3-.062.459-.063.239-.001.332.02.548.121.359.168.633.435.807.787.127.257.142.321.14.599-.001.26-.021.353-.121.566-.252.54-.818.984-1.719 1.35-.14.057-.315.15-.389.206-.315.241-.446.699-.315 1.104.065.2.175.321 1.594 1.746l1.525 1.53-1.001 1.001-1.002 1.001-.189-.276c-.404-.592-1.056-1.199-1.561-1.454-.572-.289-1.456-.37-2.126-.195a3.72 3.72 0 0 0-2.625 2.622c-.113.418-.122 1.157-.021 1.54.091.345.267.716.485 1.02.219.308.812.871 1.185 1.126l.279.19-1.001 1.002-1.001 1.001-1.53-1.524c-1.365-1.359-1.552-1.531-1.728-1.59a.968.968 0 0 0-.683.001c-.291.099-.493.326-.67.754-.409.99-.946 1.588-1.581 1.764a.863.863 0 0 1-.494.025 1.635 1.635 0 0 1-1.179-.908c-.127-.257-.144-.327-.142-.587.001-.162.029-.371.062-.464.191-.536.777-1.033 1.674-1.418.203-.087.428-.203.499-.257.311-.235.442-.698.311-1.1-.065-.2-.175-.321-1.594-1.746l-1.525-1.53 1.001-1.001 1.002-1.001.19.279c.255.373.818.966 1.126 1.185.56.4 1.054.555 1.76.552.597-.002.961-.091 1.52-.372A3.713 3.713 0 0 0 11.925 9.3c.111-.421.121-1.163.021-1.54-.205-.774-.736-1.464-1.616-2.1L10 5.421l.99-.991c.544-.544.998-.99 1.009-.99.01 0 .703.682 1.54 1.515" fill="#667085" fill-rule="evenodd"/></svg>