<svg width="24" height="24" fill="none" xmlns="http://www.w3.org/2000/svg"><path d="M9.38 1.057A3.58 3.58 0 0 0 7.169 2.46c-.43.582-.627 1.181-.674 2.05L6.468 5h-.684c-.777 0-1.443.053-1.824.145-.322.078-.906.349-1.245.577-.512.344-1.034.955-1.313 1.538-.321.671-.382 1.056-.382 2.42 0 1.052.004 1.107.086 1.26.113.208.314.398.514.486.135.06.328.074 1.24.093l1.08.022.241.126a1.6 1.6 0 0 1 .692.726c.091.196.106.28.106.607 0 .328-.014.411-.107.609a1.52 1.52 0 0 1-1.156.869c-.141.023-.639.042-1.107.042-.64 0-.885.014-.986.056a1.154 1.154 0 0 0-.541.549c-.088.204-.088.212-.07 2.27.014 1.689.029 2.124.082 2.392a3.943 3.943 0 0 0 3.119 3.118c.26.052.693.068 2.116.083 1.565.017 1.813.011 1.981-.045a.977.977 0 0 0 .576-.493c.09-.183.095-.235.114-1.35.019-1.103.024-1.17.112-1.36.117-.253.332-.478.588-.612.169-.088.253-.104.54-.106.293-.002.371.013.567.11.247.121.421.294.563.559.086.161.091.222.111 1.349.018 1.014.031 1.203.092 1.34.089.201.279.401.487.514.156.084.195.086 1.76.085 1.372 0 1.65-.011 1.953-.072a3.935 3.935 0 0 0 3.117-3.047c.069-.312.082-.556.099-1.844l.02-1.484.49-.027c.936-.05 1.633-.311 2.252-.844a3.529 3.529 0 0 0 1.154-1.848c.103-.383.102-1.245-.001-1.63-.239-.894-.754-1.616-1.499-2.105-.61-.401-1.168-.558-1.979-.558h-.498l-.027-.63c-.035-.799-.076-1.067-.222-1.447-.236-.613-.824-1.338-1.394-1.721-.339-.228-.923-.499-1.245-.577C15.659 5.053 14.993 5 14.216 5h-.684l-.025-.49c-.056-1.05-.379-1.813-1.052-2.484a3.77 3.77 0 0 0-1.615-.924c-.357-.091-1.107-.115-1.46-.045m1.235 2.075c.295.136.566.394.718.687l.126.241.022 1.08c.019.912.033 1.105.093 1.24.088.201.279.402.486.513.152.081.233.086 1.66.113.825.015 1.607.047 1.738.07.355.063.649.225.945.521.301.301.461.595.519.956.022.136.054.693.071 1.237.035 1.098.051 1.168.333 1.438.263.252.343.267 1.534.291l1.08.022.241.126a1.6 1.6 0 0 1 .692.726c.091.196.106.28.106.607 0 .328-.014.411-.107.609a1.52 1.52 0 0 1-1.156.869c-.141.023-.639.042-1.107.042-.631 0-.886.014-.983.055-.207.087-.43.307-.532.525-.092.198-.093.215-.094 1.68-.001 1.594-.045 2.503-.14 2.871-.075.294-.269.598-.534.836-.417.375-.637.429-1.896.466l-.91.027v-.381c0-1.334-.459-2.323-1.384-2.984-1.934-1.379-4.627-.288-5.079 2.059a5.35 5.35 0 0 0-.057.81V21l-.75-.001c-.887 0-1.625-.055-1.93-.142-.543-.156-1.039-.662-1.181-1.206C3.06 19.345 3 18.368 3 17.356v-.824l.495-.026c.94-.051 1.636-.311 2.256-.845a3.529 3.529 0 0 0 1.154-1.848c.103-.383.102-1.245-.001-1.63a3.5 3.5 0 0 0-.931-1.64C5.288 9.858 4.469 9.52 3.495 9.52h-.427l.026-.602c.023-.544.036-.624.135-.83.142-.296.563-.721.853-.862.122-.059.329-.127.46-.15.131-.023.913-.055 1.738-.07 1.427-.027 1.508-.032 1.66-.113a1.15 1.15 0 0 0 .486-.513c.06-.135.074-.328.093-1.24l.022-1.08.111-.211c.212-.404.542-.682.945-.797.278-.079.752-.041 1.018.08" fill="#667085" fill-rule="evenodd"/></svg>