<svg width="24" height="24" fill="none" xmlns="http://www.w3.org/2000/svg"><path d="M11.578 1.595c-.203.093-.469.392-.531.597-.067.226-.067 6.392.001 6.617.064.214.351.526.562.61.209.084.566.089.755.01.196-.082.423-.291.527-.485l.088-.164V2.22l-.088-.164a1.21 1.21 0 0 0-.518-.481c-.189-.079-.6-.068-.796.02M3.8 2.526c-.849.072-1.518.647-1.739 1.496-.089.342-.09 3.609-.001 3.95.18.693.683 1.227 1.355 1.438.278.088.332.09 2.105.09 1.801 0 1.823-.001 2.08-.093.681-.242 1.181-.784 1.338-1.451.088-.371.089-3.537.002-3.907A2.028 2.028 0 0 0 7.606 2.6c-.239-.078-.349-.084-1.88-.092-.894-.004-1.761.003-1.926.018m13 0c-.849.072-1.518.647-1.739 1.496-.089.342-.09 3.609-.001 3.95.18.693.683 1.227 1.355 1.438.278.088.332.09 2.105.09 1.801 0 1.823-.001 2.08-.093.681-.242 1.181-.784 1.338-1.451.088-.371.089-3.537.002-3.907A2.028 2.028 0 0 0 20.606 2.6c-.239-.078-.349-.084-1.88-.092-.894-.004-1.761.003-1.926.018M6.98 4.65c.036.195.005 2.778-.033 2.817-.041.04-2.779.045-2.877.004C4.005 7.445 4 7.337 4 6.008c0-.789.012-1.447.027-1.461.014-.015.68-.027 1.478-.027h1.451l.024.13m13 0c.036.195.005 2.778-.033 2.817-.041.04-2.779.045-2.877.004-.065-.026-.07-.134-.07-1.463 0-.789.012-1.447.027-1.461.014-.015.68-.027 1.478-.027h1.451l.024.13M2.578 11.595c-.203.093-.469.392-.531.597a.961.961 0 0 0 .22.968c.729.81 2.024.028 1.67-1.009a1.035 1.035 0 0 0-.514-.555c-.217-.099-.628-.099-.845-.001m4 0c-.203.093-.469.392-.531.597a.961.961 0 0 0 .22.968c.316.351.222.338 2.623.352l2.11.012v2.063c0 1.479.013 2.109.048 2.222.064.214.351.526.562.61.209.084.566.089.755.01.196-.082.423-.291.527-.485l.088-.164v-5.56l-.088-.164a1.21 1.21 0 0 0-.518-.481c-.107-.045-.637-.055-2.883-.054-2.582.001-2.761.005-2.913.074m8.444.036a.987.987 0 0 0 .068 1.774c.201.091.254.095 1.28.108 1.2.014 1.408-.011 1.699-.206.605-.406.539-1.356-.116-1.683l-.209-.104-1.262.001-1.262.001-.198.109m5.556-.036c-.203.093-.469.392-.531.597a.961.961 0 0 0 .22.968c.729.81 2.024.028 1.67-1.009a1.035 1.035 0 0 0-.514-.555c-.217-.099-.628-.099-.845-.001M16.8 15.526c-.849.072-1.518.647-1.739 1.496-.089.342-.09 3.609-.001 3.95.18.693.683 1.227 1.355 1.438.278.088.332.09 2.105.09 1.801 0 1.823-.001 2.08-.093.681-.242 1.181-.784 1.338-1.451.088-.371.089-3.537.002-3.907a2.028 2.028 0 0 0-1.334-1.449c-.239-.078-.349-.084-1.88-.092-.894-.004-1.761.003-1.926.018M2.578 16.595c-.203.093-.469.392-.531.597a.961.961 0 0 0 .22.968c.275.305.38.332 1.338.352.943.018 1.181-.015 1.464-.205.605-.406.539-1.356-.116-1.683-.208-.104-.211-.104-1.211-.103-.885.001-1.021.009-1.164.074m5 0c-.203.093-.469.392-.531.597a.961.961 0 0 0 .22.968c.729.81 2.024.028 1.67-1.009a1.035 1.035 0 0 0-.514-.555c-.217-.099-.628-.099-.845-.001M19.98 17.65c.036.195.005 2.778-.033 2.817-.041.04-2.779.045-2.877.004-.065-.026-.07-.134-.07-1.463 0-.789.012-1.447.027-1.461.014-.015.68-.027 1.478-.027h1.451l.024.13M2.578 20.595c-.203.093-.469.392-.531.597a.958.958 0 0 0 .222.969c.318.355.167.339 3.251.339 2.987 0 2.822.014 3.135-.261.233-.205.323-.41.323-.739s-.09-.534-.323-.739c-.286-.251-.153-.241-3.164-.24-2.582.001-2.761.005-2.913.074m9 0c-.203.093-.469.392-.531.597a.961.961 0 0 0 .22.968c.729.81 2.024.028 1.67-1.009a1.035 1.035 0 0 0-.514-.555c-.217-.099-.628-.099-.845-.001" fill="#667085" fill-rule="evenodd"/></svg>