<svg width="24" height="24" fill="none" xmlns="http://www.w3.org/2000/svg"><path d="M3.558 2.055c-.52.111-1.109.566-1.33 1.025C1.999 3.557 2 3.539 2 6.5c0 2.314.009 2.759.061 2.962.194.755.794 1.34 1.531 1.494.294.061 5.522.061 5.816 0 .546-.114 1.135-.562 1.364-1.036.229-.477.228-.459.228-3.42s.001-2.943-.228-3.42c-.232-.481-.844-.937-1.389-1.037-.346-.063-5.527-.053-5.825.012m11 0c-.52.111-1.109.566-1.33 1.025-.229.477-.228.459-.228 3.42 0 2.314.009 2.759.061 2.962.194.755.794 1.34 1.531 1.494.294.061 5.522.061 5.816 0 .546-.114 1.135-.562 1.364-1.036.229-.477.228-.459.228-3.42s.001-2.943-.228-3.42c-.232-.481-.844-.937-1.389-1.037-.346-.063-5.527-.053-5.825.012M8.959 4.077c.044.084.06 4.669.016 4.833L8.951 9H6.5c-2.199 0-2.454-.007-2.476-.063C4.011 8.902 4 7.799 4 6.485c0-1.805.012-2.401.048-2.437C4.084 4.012 4.685 4 6.507 4c2.342 0 2.411.002 2.452.077m11 0c.044.084.06 4.669.016 4.833l-.024.09H17.5c-2.199 0-2.454-.007-2.476-.063C15.011 8.902 15 7.799 15 6.485c0-1.805.012-2.401.048-2.437.036-.036.637-.048 2.459-.048 2.342 0 2.411.002 2.452.077M6.122 5.583a.979.979 0 0 0-.509.469c-.378.74.285 1.6 1.099 1.426.557-.119.913-.702.755-1.238a.961.961 0 0 0-.956-.718c-.138 0-.313.028-.389.061m11 0a.979.979 0 0 0-.509.469c-.378.74.285 1.6 1.099 1.426.557-.119.913-.702.755-1.238a.961.961 0 0 0-.956-.718c-.138 0-.313.028-.389.061m-4.479 6.483c-.355.131-.643.549-.643.934 0 .575.526 1.048 1.1.988 1.009-.104 1.237-1.424.327-1.895-.178-.092-.57-.105-.784-.027m-9.085.989c-.52.111-1.109.566-1.33 1.025-.229.477-.228.459-.228 3.42 0 2.314.009 2.759.061 2.962.194.755.794 1.34 1.531 1.494.294.061 5.522.061 5.816 0 .546-.114 1.135-.562 1.364-1.036.229-.477.228-.459.228-3.42s.001-2.943-.228-3.42c-.232-.481-.844-.937-1.389-1.037-.346-.063-5.527-.053-5.825.012m12.682-.018a1.05 1.05 0 0 0-.488.315c-.445.493-.272 1.265.348 1.554l.2.093 2.423.001c2.737 0 2.673.006 2.978-.299a.984.984 0 0 0 0-1.402c-.306-.306-.243-.299-2.958-.296-1.322.002-2.448.018-2.503.034m-7.281 2.04c.044.084.06 4.669.016 4.833l-.024.09H6.5c-2.199 0-2.454-.007-2.476-.063C4.011 19.902 4 18.799 4 17.485c0-1.805.012-2.401.048-2.437.036-.036.637-.048 2.459-.048 2.342 0 2.411.002 2.452.077m4.658.5a1.156 1.156 0 0 0-.523.523l-.093.2L13 18.723c0 2.737-.006 2.673.299 2.978.18.18.459.299.701.299.242 0 .521-.119.701-.299.305-.305.299-.241.299-2.978l-.001-2.423-.093-.2a1.146 1.146 0 0 0-.532-.525c-.166-.07-.596-.069-.757.002m7.026.492a1.066 1.066 0 0 0-.577.591c-.057.168-.066.408-.066 1.767V20h-1.573c-1.789 0-1.836.006-2.128.299a.984.984 0 0 0 0 1.402c.302.302.274.299 2.701.299s2.399.003 2.701-.299c.302-.302.299-.274.299-2.701s.003-2.399-.299-2.701a.998.998 0 0 0-1.058-.23m-14.521.514a.979.979 0 0 0-.509.469c-.378.74.285 1.6 1.099 1.426.557-.119.913-.702.755-1.238a.961.961 0 0 0-.956-.718c-.138 0-.313.028-.389.061m11 0a.979.979 0 0 0-.509.469c-.378.74.285 1.6 1.099 1.426.557-.119.913-.702.755-1.238a.961.961 0 0 0-.956-.718c-.138 0-.313.028-.389.061" fill="#667085" fill-rule="evenodd"/></svg>