<svg width="24" height="24" fill="none" xmlns="http://www.w3.org/2000/svg"><path d="M6.714 2.041c-1.071.098-1.842.443-2.538 1.136-.53.526-.889 1.186-1.069 1.963-.084.358-.084.41-.097 8.176-.014 8.786-.039 8.057.288 8.384a.977.977 0 0 0 1.021.24c.093-.032.655-.412 1.25-.843a39.816 39.816 0 0 1 1.129-.802c.026-.01.506.348 1.066.796 1.106.883 1.211.942 1.595.897.108-.013.25-.051.315-.085.065-.034.615-.422 1.222-.862L12 20.239l1.094.796c.601.438 1.151.826 1.222.863.071.036.217.077.325.09.383.045.492-.016 1.57-.878a29.15 29.15 0 0 1 1.043-.813c.026-.01.543.341 1.147.781.625.455 1.175.826 1.276.861a.976.976 0 0 0 1.025-.239c.326-.326.302.4.287-8.363-.015-8.623.003-8.032-.27-8.787-.373-1.031-1.364-1.983-2.419-2.323-.632-.205-.502-.2-6.06-.209-2.849-.005-5.336.006-5.526.023M16.801 4.04c.341.022.723.066.85.099.554.145 1.065.655 1.21 1.209.124.475.143 1.566.131 7.655l-.012 6.024-.54-.396c-.801-.587-.847-.611-1.18-.61-.206.001-.322.024-.44.086-.088.047-.59.429-1.115.849s-.97.764-.989.764c-.018 0-.505-.344-1.083-.765-.577-.421-1.122-.803-1.211-.85-.223-.117-.62-.117-.842-.001-.088.047-.635.429-1.215.85-.58.421-1.068.766-1.085.766-.016 0-.46-.344-.985-.764-.525-.42-1.027-.802-1.115-.849-.118-.062-.234-.085-.44-.086-.333-.001-.379.023-1.18.61l-.54.396-.012-6.024c-.012-6.089.007-7.18.131-7.655.104-.398.417-.8.812-1.044.239-.148.575-.225 1.142-.261.73-.047 8.984-.049 9.708-.003" fill="#667085" fill-rule="evenodd"/></svg>