<svg width="24" height="24" fill="none" xmlns="http://www.w3.org/2000/svg"><path d="M11.643 2.069a1.066 1.066 0 0 0-.577.591C11.005 2.839 11 3.592 11 12c0 10.264-.027 9.375.299 9.701a.984.984 0 0 0 1.402 0c.326-.326.299.563.299-9.701 0-10.264.027-9.375-.299-9.701a.998.998 0 0 0-1.058-.23M7.24 5.035c-.311.102-.589.358-.685.63-.082.231-.082 12.439 0 12.67.127.361.559.664.945.664.386 0 .818-.303.945-.664.082-.231.082-12.439 0-12.67-.07-.199-.295-.448-.499-.552-.175-.089-.547-.13-.706-.078m9 0c-.311.102-.589.358-.685.63-.082.231-.082 12.439 0 12.67.127.361.559.664.945.664.386 0 .818-.303.945-.664.046-.129.055-1.203.055-6.335s-.009-6.206-.055-6.335c-.07-.199-.295-.448-.499-.552-.175-.089-.547-.13-.706-.078M2.643 9.069a1.118 1.118 0 0 0-.343.229C1.997 9.601 2 9.572 2 12c0 2.427-.003 2.399.299 2.701a.984.984 0 0 0 1.402 0C4.003 14.399 4 14.427 4 12s.003-2.399-.299-2.701a.998.998 0 0 0-1.058-.23m18 0a1.118 1.118 0 0 0-.343.229c-.303.303-.3.274-.3 2.702 0 2.427-.003 2.399.299 2.701a.984.984 0 0 0 1.402 0c.302-.302.299-.274.299-2.701s.003-2.399-.299-2.701a.998.998 0 0 0-1.058-.23" fill="#667085" fill-rule="evenodd"/></svg>