<svg width="24" height="24" fill="none" xmlns="http://www.w3.org/2000/svg"><path d="M16.24 2.035c-.311.102-.589.358-.685.63-.082.231-.082 18.439 0 18.67.127.361.559.664.945.664.386 0 .818-.303.945-.664.082-.231.082-18.439 0-18.67-.07-.199-.295-.448-.499-.552-.175-.089-.547-.13-.706-.078m-4.597 3.034a1.118 1.118 0 0 0-.343.229c-.324.323-.3-.202-.3 6.702 0 6.903-.023 6.379.299 6.701a.984.984 0 0 0 1.402 0c.322-.322.299.202.299-6.701s.023-6.379-.299-6.701a.998.998 0 0 0-1.058-.23m-9 4a1.118 1.118 0 0 0-.343.229C1.997 9.601 2 9.572 2 12c0 2.427-.003 2.399.299 2.701a.984.984 0 0 0 1.402 0C4.003 14.399 4 14.427 4 12s.003-2.399-.299-2.701a.998.998 0 0 0-1.058-.23m18 0a1.118 1.118 0 0 0-.343.229c-.303.303-.3.274-.3 2.702 0 2.427-.003 2.399.299 2.701a.984.984 0 0 0 1.402 0c.302-.302.299-.274.299-2.701s.003-2.399-.299-2.701a.998.998 0 0 0-1.058-.23m-13.403.966c-.311.102-.589.358-.685.63-.079.223-.079 2.447 0 2.67.127.361.559.664.945.664.386 0 .818-.303.945-.664.079-.223.079-2.447 0-2.67-.07-.199-.295-.448-.499-.552-.175-.089-.547-.13-.706-.078" fill="#667085" fill-rule="evenodd"/></svg>