<svg width="24" height="24" fill="none" xmlns="http://www.w3.org/2000/svg"><path d="M11.643 2.069a1.066 1.066 0 0 0-.577.591c-.057.168-.066.413-.066 1.84 0 1.871.005 1.907.299 2.201a.984.984 0 0 0 1.402 0c.294-.294.299-.33.299-2.201s-.005-1.907-.299-2.201a.998.998 0 0 0-1.058-.23M4.24 7.035a1.074 1.074 0 0 0-.488.317.923.923 0 0 0-.246.648c0 .391.019.415 1.348 1.75L6.098 11H3.976c-2.401 0-2.375-.003-2.677.299a.984.984 0 0 0 0 1.402c.302.302.276.299 2.677.299h2.122l-1.244 1.25C3.525 15.585 3.506 15.609 3.506 16c0 .099.023.25.052.335.119.358.554.664.942.664.406 0 .43-.021 2.729-2.325 1.469-1.473 2.147-2.18 2.19-2.283.079-.192.078-.579-.002-.776-.081-.197-4.236-4.379-4.474-4.502-.171-.089-.544-.13-.703-.078m15 0a1.715 1.715 0 0 0-.22.096c-.066.035-1.086 1.032-2.266 2.216-2.297 2.306-2.248 2.248-2.248 2.653 0 .405-.049.347 2.248 2.654 2.318 2.327 2.339 2.345 2.746 2.345.388 0 .823-.306.942-.664.029-.085.052-.236.052-.335 0-.391-.019-.415-1.348-1.75L17.902 13h2.122c2.401 0 2.375.003 2.677-.299.18-.18.299-.459.299-.701 0-.242-.119-.521-.299-.701-.302-.302-.276-.299-2.677-.299h-2.122l1.244-1.25c1.329-1.335 1.348-1.359 1.348-1.75 0-.371-.213-.716-.548-.887-.175-.089-.547-.13-.706-.078m-7.623 2.542a1.156 1.156 0 0 0-.523.523c-.093.2-.093.203-.093 1.9 0 1.697 0 1.7.093 1.9.051.11.166.265.254.345.497.448 1.268.277 1.558-.345.093-.2.093-.203.093-1.9 0-1.697 0-1.7-.093-1.9a1.146 1.146 0 0 0-.532-.525c-.166-.07-.596-.069-.757.002m.026 7.492a1.066 1.066 0 0 0-.577.591c-.057.168-.066.413-.066 1.84 0 1.871.005 1.907.299 2.201.18.18.459.299.701.299.242 0 .521-.119.701-.299.294-.294.299-.33.299-2.201s-.005-1.907-.299-2.201a.998.998 0 0 0-1.058-.23" fill="#667085" fill-rule="evenodd"/></svg>