<svg width="24" height="24" fill="none" xmlns="http://www.w3.org/2000/svg"><path d="M11.643 2.069a1.066 1.066 0 0 0-.577.591c-.057.168-.066.413-.066 1.84 0 1.871.005 1.907.299 2.201a.984.984 0 0 0 1.402 0c.294-.294.299-.33.299-2.201s-.005-1.907-.299-2.201a.998.998 0 0 0-1.058-.23M2.1 6.576c-.578.183-.951.594-1.056 1.163-.061.329-.061 8.194 0 8.522.077.417.28.734.611.954.462.306 1.011.345 1.485.105.146-.074 1.256-.9 2.568-1.911a490.567 490.567 0 0 1 2.672-2.048c.506-.375.661-.595.762-1.078a1.457 1.457 0 0 0-.41-1.344c-.211-.197-4.923-3.823-5.321-4.095-.442-.302-.906-.396-1.311-.268m18.948.021c-.303.112-.465.23-2.948 2.141-1.232.949-2.385 1.834-2.561 1.968-.509.386-.708.751-.708 1.294.001.568.212.933.786 1.359.2.148 1.403 1.071 2.675 2.05 1.312 1.011 2.422 1.837 2.568 1.911.872.443 1.916-.084 2.096-1.059.061-.328.061-8.193 0-8.522a1.444 1.444 0 0 0-.833-1.072c-.338-.159-.761-.187-1.075-.07M5.24 10.754c.869.668 1.58 1.23 1.58 1.247 0 .018-.837.675-1.86 1.46a914.006 914.006 0 0 0-1.91 1.469c-.04.032-.05-.559-.05-2.927V9.036l.33.251c.181.138 1.041.798 1.91 1.467m15.75 2.723-.01 1.476-1.9-1.459c-1.045-.803-1.9-1.474-1.9-1.492 0-.018.855-.691 1.9-1.494l1.9-1.462.01 1.477c.006.812.006 2.141 0 2.954m-9.373-3.9a1.156 1.156 0 0 0-.523.523c-.093.2-.093.203-.093 1.9 0 1.697 0 1.7.093 1.9.051.11.166.265.254.345.497.448 1.268.277 1.558-.345.093-.2.093-.203.093-1.9 0-1.697 0-1.7-.093-1.9a1.146 1.146 0 0 0-.532-.525c-.166-.07-.596-.069-.757.002m.026 7.492a1.066 1.066 0 0 0-.577.591c-.057.168-.066.413-.066 1.84 0 1.871.005 1.907.299 2.201.18.18.459.299.701.299.242 0 .521-.119.701-.299.294-.294.299-.33.299-2.201s-.005-1.907-.299-2.201a.998.998 0 0 0-1.058-.23" fill="#667085" fill-rule="evenodd"/></svg>