<svg width="24" height="24" fill="none" xmlns="http://www.w3.org/2000/svg"><path d="M10.567 1.074c-.499.178-.768.666-.63 1.142.056.191.111.268.392.541.304.296.32.319.229.337-.054.011-.314.06-.578.108-2.065.376-3.988 1.375-5.432 2.819-1.309 1.31-2.108 2.823-2.437 4.619-.116.636-.126 2.015-.018 2.655a8.982 8.982 0 0 0 2.501 4.858c.63.638 1.516 1.316 1.834 1.404.232.065.466.052.709-.039.412-.155.721-.637.647-1.009-.064-.317-.18-.463-.644-.81-1.583-1.183-2.554-2.661-2.907-4.426-.123-.613-.132-1.845-.018-2.453.498-2.666 2.672-4.85 5.594-5.62l.429-.113-.121.151c-.403.502-.216 1.198.394 1.468.223.098.666.092.889-.011.114-.053.611-.479 1.35-1.157.896-.821 1.191-1.116 1.259-1.256a.93.93 0 0 0-.001-.787c-.104-.202-2.317-2.247-2.575-2.378a1.178 1.178 0 0 0-.866-.043m6.313 3.402c-.31.11-.576.401-.644.705a.65.65 0 0 0 .02.441c.082.262.23.421.717.772a7.138 7.138 0 0 1 2.795 4.336c.078.384.091.573.09 1.29-.001.721-.014.899-.092 1.26-.39 1.805-1.456 3.337-3.066 4.407-.718.478-1.865.975-2.689 1.167l-.249.058.121-.15c.4-.498.238-1.141-.363-1.444-.249-.126-.673-.127-.929-.003-.11.053-.644.511-1.347 1.154-.892.817-1.185 1.109-1.253 1.249a.93.93 0 0 0 .002.789c.104.202 2.227 2.172 2.53 2.347.624.36 1.447-.006 1.577-.702a.847.847 0 0 0-.037-.368c-.056-.191-.111-.268-.391-.54l-.327-.318.158-.025c3.481-.567 6.225-2.448 7.619-5.222.548-1.089.82-2.166.865-3.419.102-2.839-1.251-5.545-3.687-7.372a4.511 4.511 0 0 0-.575-.378 1.18 1.18 0 0 0-.845-.034" fill="#667085" fill-rule="evenodd"/></svg>