<svg width="24" height="24" fill="none" xmlns="http://www.w3.org/2000/svg"><path d="M3.665 1.058A1.027 1.027 0 0 0 3 1.997c.001.387.205.712.575.914.111.061.318.071 1.804.089l1.678.02-.638.537c-.868.731-1.958 1.828-2.387 2.403a10.196 10.196 0 0 0-1.939 4.64c-.099.649-.1 2.16 0 2.8.168 1.084.466 2.036.946 3.02 1.248 2.56 3.516 4.434 6.318 5.223.655.184.984.152 1.304-.129.227-.2.317-.407.317-.734 0-.209-.022-.321-.086-.443a1.06 1.06 0 0 0-.64-.517c-1.244-.341-2.042-.704-2.94-1.34-.432-.306-1.174-1.006-1.521-1.436a8.377 8.377 0 0 1-1.548-3.064c-.185-.726-.22-1.043-.22-1.98s.035-1.254.22-1.98a8.363 8.363 0 0 1 1.546-3.06c.47-.582 2.104-2.129 3.001-2.84L9 3.953l.002 2.114c.001 1.66.013 2.145.055 2.263a.998.998 0 0 0 1.643.372c.313-.312.3-.158.3-3.688 0-3.055-.002-3.136-.082-3.349a1.143 1.143 0 0 0-.526-.573c-.124-.068-.332-.073-3.352-.081-2.667-.007-3.247.001-3.375.047M13.6 2.323a.964.964 0 0 0-.589.836c-.041.451.274.889.734 1.022 1.49.43 2.366.858 3.295 1.608.354.286 1.026.972 1.286 1.311a8.446 8.446 0 0 1 1.431 2.92c.185.726.22 1.043.22 1.98s-.035 1.254-.22 1.98a8.363 8.363 0 0 1-1.546 3.06c-.47.582-2.104 2.129-3.001 2.84l-.21.167v-2.094c0-1.318-.016-2.148-.042-2.242a1.065 1.065 0 0 0-.489-.585.987.987 0 0 0-1.169.172c-.314.314-.302.157-.299 3.711.001 1.733.015 3.151.032 3.151s.051.077.076.17a.816.816 0 0 0 .43.548l.199.102 3.194.011c2.128.007 3.246-.004 3.349-.031.4-.108.719-.533.719-.957-.001-.387-.205-.712-.575-.914-.111-.061-.318-.071-1.804-.089l-1.679-.02.599-.499c.836-.697 2.003-1.871 2.428-2.441a10.04 10.04 0 0 0 1.746-3.685c.213-.872.263-1.316.263-2.355s-.05-1.483-.263-2.355c-.328-1.343-.9-2.55-1.748-3.685-.392-.526-1.267-1.42-1.767-1.807a10.34 10.34 0 0 0-3.473-1.771c-.575-.166-.859-.18-1.127-.059" fill="#667085" fill-rule="evenodd"/></svg>