<svg width="24" height="24" fill="none" xmlns="http://www.w3.org/2000/svg"><path d="M10.523 2.041A10.661 10.661 0 0 0 6.7 3.12a10.068 10.068 0 0 0-2.901 2.105C.392 8.73.06 13.952 2.997 17.858a12.887 12.887 0 0 0 1.563 1.641c1.519 1.266 3.332 2.077 5.34 2.389.753.117 2.311.126 3.04.018 1.962-.291 3.665-1.007 5.18-2.179.786-.609 1.688-1.589 2.251-2.447.589-.898 1.197-2.306 1.202-2.781.004-.401-.241-.758-.632-.921-.231-.097-.65-.075-.893.046-.292.145-.419.32-.589.812a8.175 8.175 0 0 1-2.052 3.211c-2.603 2.476-6.518 3.058-9.787 1.453a7.86 7.86 0 0 1-2.284-1.669c-1.088-1.119-1.756-2.369-2.086-3.905-.102-.475-.108-.568-.108-1.526 0-.958.006-1.051.108-1.526.327-1.526.996-2.782 2.069-3.888A7.56 7.56 0 0 1 6.76 5.391c2.499-1.636 5.812-1.836 8.506-.514 1.431.702 2.334 1.501 3.928 3.473l.525.65h-2.092c-2.327 0-2.356.003-2.655.259a.966.966 0 0 0-.004 1.479c.318.272.177.262 3.749.262 3.43 0 3.199.011 3.762-.176.185-.062.425-.38.48-.635.026-.123.041-1.298.041-3.266 0-3.42.01-3.285-.272-3.576-.24-.249-.421-.325-.768-.325-.248 0-.336.019-.506.108a1.032 1.032 0 0 0-.495.542c-.04.11-.059.574-.076 1.834l-.023 1.685-.486-.605c-1.326-1.651-2.413-2.588-3.898-3.363-1.502-.783-3.019-1.165-4.776-1.201-.44-.01-.97-.001-1.177.019" fill="#667085" fill-rule="evenodd"/></svg>