<svg width="24" height="24" fill="none" xmlns="http://www.w3.org/2000/svg"><path d="M10.9 2.567c-1.673.188-3.476.937-4.798 1.993a9.194 9.194 0 0 0-3.177 5.002c-.207.84-.263 1.321-.263 2.278-.001 1.184.135 2.038.495 3.11.106.314.181.57.167.57-.013 0-.15-.037-.304-.083-.565-.166-.976-.088-1.276.244a.982.982 0 0 0 .217 1.486c.124.076.614.225 1.599.487.781.209 1.479.391 1.552.406.305.063.747-.148.945-.45.111-.168.903-3.051.903-3.285a.944.944 0 0 0-.267-.645.916.916 0 0 0-.738-.328c-.41 0-.806.266-.928.622l-.056.166-.067-.224c-.161-.544-.228-1.019-.251-1.782-.033-1.078.072-1.841.374-2.708a6.873 6.873 0 0 1 1.65-2.68c1.037-1.068 2.329-1.773 3.841-2.096.466-.099.573-.107 1.482-.108 1.297-.001 1.573.054 3.109.621.252.093.418.097.656.016.694-.237.911-1.153.39-1.647-.25-.236-1.258-.62-2.122-.807-.882-.191-2.237-.26-3.133-.158m7.682 3.4a.922.922 0 0 0-.358.142c-.313.219-.351.315-.783 1.93-.221.825-.401 1.572-.401 1.66.001.385.339.806.742.923.239.07.397.058.665-.05.188-.075.497-.409.534-.577.015-.068.042-.108.06-.089.051.054.232.915.282 1.347.061.518.027 1.732-.063 2.227a7.2 7.2 0 0 1-2.126 3.96c-1.256 1.207-2.818 1.897-4.619 2.04-1.103.088-2.453-.138-3.447-.578-.309-.137-.538-.162-.794-.087a.973.973 0 0 0-.713.965.875.875 0 0 0 .309.706c.188.17.377.26 1.009.478 2.829.979 5.88.598 8.352-1.044 2.203-1.463 3.625-3.725 4.034-6.42.09-.594.101-2.014.02-2.56a11.026 11.026 0 0 0-.442-1.89 7.15 7.15 0 0 1-.179-.57c.007 0 .196.047.42.105.366.094.43.1.619.058.386-.087.682-.382.78-.776a.977.977 0 0 0-.451-1.041c-.157-.091-2.822-.834-3.132-.873a1.517 1.517 0 0 0-.318.014" fill="#667085" fill-rule="evenodd"/></svg>