<svg width="24" height="24" fill="none" xmlns="http://www.w3.org/2000/svg"><path d="M11.32 2.026c-1.49.145-2.555.431-3.7.993-2.625 1.287-4.511 3.576-5.283 6.409-.167.611-.131.914.144 1.227.251.286.658.406 1.027.303.288-.081.584-.388.672-.698.42-1.472.858-2.371 1.609-3.3.286-.354.972-1.026 1.311-1.286A8.074 8.074 0 0 1 12 4a8.05 8.05 0 0 1 5.04 1.789c.57.462 1.958 1.917 2.673 2.801l.331.41-2.112.002c-1.659.001-2.144.013-2.262.055a.998.998 0 0 0-.372 1.643c.314.314.157.301 3.7.299l3.142-.002.304-.176.304-.177.127-.318.127-.318-.011-3.157-.011-3.157-.121-.197a.998.998 0 0 0-1.718 0l-.121.197L21 5.376l-.02 1.682-.4-.477a23.76 23.76 0 0 0-1.604-1.743 10.068 10.068 0 0 0-5.316-2.694c-.724-.121-1.767-.173-2.34-.118M1.718 13.055c-.26.092-.505.292-.604.494l-.094.191-.011 3.193c-.007 2.128.004 3.245.031 3.348.108.4.533.719.957.719.387-.001.712-.205.914-.575.061-.111.071-.318.089-1.802l.02-1.676.499.596c.698.835 1.873 2.002 2.441 2.425 1.14.849 2.343 1.42 3.685 1.747.872.213 1.316.263 2.355.263s1.483-.05 2.355-.263a9.837 9.837 0 0 0 4.707-2.653 9.818 9.818 0 0 0 2.601-4.49c.167-.611.131-.914-.144-1.227-.205-.233-.41-.323-.739-.323-.209 0-.321.022-.443.086-.246.13-.441.37-.518.639-.34 1.178-.664 1.935-1.127 2.633-.841 1.269-2.099 2.346-3.418 2.926a7.79 7.79 0 0 1-3.279.694 7.942 7.942 0 0 1-4.783-1.583c-.584-.432-2.316-2.228-3.092-3.207L3.953 15l2.114-.002c1.66-.001 2.145-.013 2.263-.055a.998.998 0 0 0 .368-1.647c-.307-.307-.18-.297-3.717-.294-2.397.002-3.154.014-3.263.053" fill="#667085" fill-rule="evenodd"/></svg>