<svg width="24" height="24" fill="none" xmlns="http://www.w3.org/2000/svg"><path d="M13.641 1.135c-.293.124-.301.132-.468.426l-.169.299-.003 3.141c-.003 3.542-.015 3.387.298 3.7a.993.993 0 0 0 1.57-.212l.111-.189.02-2.167.02-2.167.44.361c.971.796 2.457 2.234 2.867 2.773.338.445.634.933.891 1.468.356.742.532 1.291.69 2.152.098.537.098 2.023 0 2.56-.158.861-.334 1.41-.69 2.152a7.369 7.369 0 0 1-1.477 2.122c-1.094 1.131-2.255 1.789-3.994 2.266-.458.126-.777.569-.736 1.021a.99.99 0 0 0 .328.673c.32.281.649.313 1.304.129 1.739-.49 3.154-1.316 4.419-2.581a9.837 9.837 0 0 0 2.653-4.707c.213-.872.263-1.316.263-2.355s-.05-1.483-.263-2.355a10.013 10.013 0 0 0-1.747-3.685c-.429-.575-1.519-1.672-2.387-2.403l-.638-.537L18.621 3c1.486-.018 1.693-.028 1.804-.089.37-.202.574-.527.575-.914 0-.42-.316-.846-.711-.955-.097-.027-1.225-.04-3.249-.038l-3.1.004-.299.127M9.26 2.384A10.108 10.108 0 0 0 4.767 5.1c-1.43 1.499-2.349 3.388-2.674 5.5-.099.644-.099 2.156 0 2.8a10.185 10.185 0 0 0 1.939 4.64c.423.568 1.59 1.743 2.425 2.441l.596.499-1.676.02c-1.484.018-1.691.028-1.802.089-.37.202-.574.527-.575.914 0 .42.316.846.711.955.097.027 1.245.042 3.274.042 3.429 0 3.301.009 3.618-.242.097-.077.201-.219.276-.377l.121-.252v-3.138c0-3.536.013-3.381-.3-3.693a.987.987 0 0 0-1.169-.172 1.065 1.065 0 0 0-.489.585c-.026.094-.042.924-.042 2.242v2.094l-.21-.167c-.904-.716-2.524-2.25-3.001-2.84a8.37 8.37 0 0 1-1.546-3.06c-.185-.726-.22-1.043-.22-1.98 0-.683.016-.992.069-1.28.158-.861.334-1.41.69-2.152a7.369 7.369 0 0 1 1.477-2.122c1.094-1.13 2.256-1.789 3.993-2.266a1.06 1.06 0 0 0 .64-.517c.119-.227.12-.659 0-.883a.994.994 0 0 0-.912-.537c-.153 0-.413.051-.72.141" fill="#667085" fill-rule="evenodd"/></svg>