<svg width="24" height="24" fill="none" xmlns="http://www.w3.org/2000/svg"><path d="M11.32 2.026c-1.05.103-1.687.23-2.5.5a10.62 10.62 0 0 0-3.08 1.675c-.613.487-1.602 1.508-2.422 2.499l-.298.359L3 5.376l-.02-1.682-.121-.197a.998.998 0 0 0-1.718 0l-.121.197-.011 3.163-.01 3.163.132.319c.131.318.132.319.43.488l.299.169 3.142.003c3.543.002 3.386.015 3.7-.299a.987.987 0 0 0 .172-1.169 1.065 1.065 0 0 0-.585-.489C8.195 9.016 7.366 9 6.048 9H3.956l.331-.41c.715-.884 2.103-2.339 2.673-2.801a7.975 7.975 0 0 1 8.472-1.007 7.375 7.375 0 0 1 2.122 1.477c1.139 1.102 1.744 2.171 2.266 4.001.088.31.384.617.672.698.369.103.776-.017 1.027-.303.275-.313.311-.616.144-1.227a9.994 9.994 0 0 0-2.424-4.32 10.056 10.056 0 0 0-5.579-2.964c-.724-.121-1.767-.173-2.34-.118M2.96 13.035a1.04 1.04 0 0 0-.479.31c-.275.313-.311.616-.144 1.227a9.818 9.818 0 0 0 2.601 4.49 9.837 9.837 0 0 0 4.707 2.653c.872.213 1.316.263 2.355.263s1.483-.05 2.355-.263a10.035 10.035 0 0 0 3.685-1.747c.568-.423 1.743-1.59 2.441-2.425l.499-.596.02 1.676c.018 1.484.028 1.691.089 1.802.202.37.527.574.914.575.42 0 .846-.316.955-.711.027-.097.042-1.251.042-3.294 0-3.36.003-3.312-.195-3.588a1.325 1.325 0 0 0-.31-.247l-.232-.14-3.177-.011c-3.605-.013-3.474-.023-3.783.286a.99.99 0 0 0 .208 1.574l.189.111 2.167.02 2.167.02-.361.44c-.899 1.096-2.273 2.496-2.913 2.967a7.707 7.707 0 0 1-2.863 1.35 8.147 8.147 0 0 1-3.637.041 8.2 8.2 0 0 1-3.048-1.404c-.399-.3-1.112-.988-1.423-1.373-.744-.923-1.234-1.924-1.609-3.293a1.04 1.04 0 0 0-.514-.635c-.175-.089-.547-.13-.706-.078" fill="#667085" fill-rule="evenodd"/></svg>