<svg width="24" height="24" fill="none" xmlns="http://www.w3.org/2000/svg"><path d="M11.34 2.544c-.609.06-.979.114-1.38.202-2.665.587-4.915 2.263-6.271 4.674-.579 1.03-1.05 2.518-1.117 3.527-.03.471.033.658.307.904.291.262.641.336.997.211.423-.15.603-.427.703-1.082.249-1.634.916-3.009 2.015-4.15 2.055-2.136 5.07-2.831 7.838-1.806.94.348 2.049 1.059 2.717 1.743l.208.213-.308.001c-.445.002-.715.165-.914.548-.222.429-.023 1.046.411 1.277.246.132 3.016.874 3.257.874.395-.001.824-.339.937-.739.185-.655.745-2.776.764-2.899.051-.319-.176-.764-.482-.943-.565-.331-1.304-.028-1.484.608l-.114.408-.049.174-.33-.383c-1.521-1.769-3.659-2.964-5.866-3.281-.44-.063-1.535-.112-1.839-.081m8.811 9.416c-.265.08-.535.327-.63.578a4.413 4.413 0 0 0-.103.532A8.479 8.479 0 0 1 19 14.702c-.979 2.479-3.051 4.197-5.652 4.685-.466.088-1.857.1-2.308.02a7.87 7.87 0 0 1-4.093-2.049l-.327-.312.225.022a.993.993 0 0 0 .989-1.455c-.184-.358-.297-.408-1.879-.836-.778-.21-1.509-.392-1.624-.405a1.179 1.179 0 0 0-.392.028c-.241.068-.554.349-.635.571-.034.093-.227.781-.429 1.529-.422 1.562-.441 1.711-.256 2.052a.987.987 0 0 0 1.628.173c.129-.151.232-.413.336-.855.014-.061.037-.109.051-.108.014 0 .098.093.186.206.253.323 1.008 1.071 1.38 1.367 1.977 1.573 4.445 2.334 6.823 2.102 3.782-.368 7.041-3.095 8.093-6.774.286-1.001.387-1.805.267-2.121-.084-.22-.391-.508-.614-.574a1.257 1.257 0 0 0-.618-.008" fill="#667085" fill-rule="evenodd"/></svg>