<svg width="24" height="24" fill="none" xmlns="http://www.w3.org/2000/svg"><path d="M11.588 2.044a10.818 10.818 0 0 0-6.4 2.821c-.451.415-.984 1.002-1.561 1.721l-.487.605-.02-1.685c-.02-1.653-.022-1.69-.112-1.886-.118-.255-.22-.363-.468-.493-.164-.086-.254-.105-.5-.105-.347 0-.528.076-.768.325C.99 3.638 1 3.502 1 6.925c0 2.967.003 3.081.079 3.283.135.355.318.588.501.638.088.024.228.068.311.099.124.045.73.055 3.383.055 3.582 0 3.44.01 3.758-.262a.966.966 0 0 0-.004-1.479C8.729 9.003 8.7 9 6.374 9H4.282l.589-.728c1.535-1.897 2.414-2.673 3.815-3.37 3.665-1.822 8.213-.787 10.631 2.42a7.73 7.73 0 0 1 1.433 3.152c.102.475.108.568.108 1.526 0 .958-.006 1.051-.108 1.526a7.799 7.799 0 0 1-2.255 4.074 8.112 8.112 0 0 1-3.054 1.898 8.72 8.72 0 0 1-6.348-.2c-1.516-.635-2.911-1.827-3.783-3.229a9.118 9.118 0 0 1-.77-1.633c-.169-.492-.295-.667-.588-.812-.243-.121-.662-.143-.893-.046-.391.163-.636.52-.632.921.003.316.245.99.636 1.777a9.491 9.491 0 0 0 1.983 2.706c1.645 1.603 3.642 2.574 6.014 2.924.73.108 2.288.099 3.04-.018 2.008-.312 3.821-1.123 5.34-2.389a12.887 12.887 0 0 0 1.563-1.641c2.662-3.541 2.662-8.173 0-11.716-.384-.511-1.186-1.337-1.703-1.754-1.146-.925-2.639-1.679-4.009-2.027a11.223 11.223 0 0 0-3.703-.317" fill="#667085" fill-rule="evenodd"/></svg>