<svg width="24" height="24" fill="none" xmlns="http://www.w3.org/2000/svg"><path d="M12.71 1.057c-.241.086-.315.147-1.502 1.236-1.23 1.128-1.299 1.212-1.303 1.587-.005.401.055.475 1.345 1.658.739.678 1.236 1.104 1.35 1.157.223.103.666.109.889.011.61-.27.797-.966.394-1.468l-.121-.151.429.113c2.576.68 4.61 2.476 5.364 4.74.246.736.302 1.115.303 2.04.001.713-.013.907-.088 1.282-.358 1.775-1.328 3.255-2.907 4.435-.467.349-.583.495-.647.812-.074.372.235.854.647 1.009.419.156.707.102 1.189-.225 1.756-1.192 3.094-3.053 3.648-5.076.224-.817.279-1.251.279-2.197 0-.946-.055-1.381-.279-2.195-.911-3.323-3.949-5.942-7.68-6.623a48.497 48.497 0 0 1-.578-.108c-.091-.018-.075-.041.229-.337.281-.273.336-.35.392-.541A.801.801 0 0 0 14 1.559c-.221-.433-.825-.668-1.29-.502M6.377 4.473c-.347.12-1.112.706-1.737 1.331-1.364 1.364-2.233 3.035-2.547 4.901-.108.64-.098 2.019.018 2.655.329 1.795 1.125 3.304 2.437 4.62 1.54 1.545 3.543 2.529 5.949 2.921l.158.025-.327.318c-.28.272-.335.349-.391.54-.241.829.757 1.523 1.54 1.07.303-.175 2.426-2.145 2.53-2.347a.93.93 0 0 0 .002-.789c-.068-.14-.361-.432-1.253-1.249-.703-.643-1.237-1.101-1.347-1.154-.135-.066-.254-.088-.465-.088-.875.001-1.351.884-.827 1.535l.121.15-.249-.058c-.824-.192-1.971-.689-2.689-1.167-1.635-1.087-2.75-2.716-3.085-4.507-.114-.606-.105-1.84.017-2.45.285-1.422.977-2.672 2.054-3.711.206-.199.536-.478.734-.62.494-.356.642-.514.724-.777a.648.648 0 0 0 .019-.445c-.042-.186-.088-.265-.257-.438-.313-.322-.703-.413-1.129-.266" fill="#667085" fill-rule="evenodd"/></svg>