<svg width="24" height="24" fill="none" xmlns="http://www.w3.org/2000/svg"><path d="M10.643 1.069C10.291 1.193 10 1.614 10 2c0 .364.089.496.85 1.266l.718.727-1.694.018c-1.322.013-1.782.032-2.094.084-4.549.753-7.528 5.044-6.613 9.525.231 1.132.78 2.328 1.507 3.28.26.339.932 1.025 1.286 1.311a8.18 8.18 0 0 0 1.42.917c.38.189.413.198.66.181.155-.01.327-.051.425-.101.574-.293.708-1.101.26-1.556-.083-.083-.335-.251-.56-.372a5.88 5.88 0 0 1-2.524-2.62c-.455-.918-.617-1.612-.619-2.66-.001-.757.068-1.214.282-1.872.67-2.058 2.36-3.555 4.532-4.016.341-.073.57-.084 2.064-.1l1.68-.019-.724.734c-.612.62-.734.763-.79.93-.13.388-.046.765.233 1.044.278.278.655.363 1.044.234.176-.059.369-.237 1.828-1.69 1.113-1.109 1.658-1.679 1.714-1.795.057-.117.083-.255.086-.44.005-.456-.017-.483-1.818-2.275-1.441-1.433-1.634-1.611-1.81-1.67a1.032 1.032 0 0 0-.7.004m7.027 3.668c-.677.242-.885 1.108-.389 1.62.086.088.288.227.448.307 1.653.832 2.83 2.429 3.181 4.316.094.502.089 1.585-.008 2.1-.411 2.169-1.919 3.909-3.991 4.605-.812.273-.925.285-2.791.304l-1.7.017.724-.733c.768-.778.856-.909.856-1.273 0-.563-.523-1.044-1.078-.991-.376.036-.463.109-2.167 1.82-1.514 1.519-1.63 1.646-1.695 1.845-.084.26-.066.525.052.77.06.124.572.66 1.717 1.801 1.459 1.453 1.652 1.631 1.828 1.69.389.129.766.044 1.044-.234.279-.279.363-.656.233-1.044-.056-.167-.177-.309-.788-.927l-.721-.73h1.517c.835-.001 1.68-.019 1.878-.041a8.118 8.118 0 0 0 4.04-1.613c.411-.31 1.176-1.075 1.486-1.486 1.846-2.448 2.17-5.607.854-8.331a7.375 7.375 0 0 0-1.459-2.083 7.515 7.515 0 0 0-2.051-1.534c-.49-.253-.701-.289-1.02-.175" fill="#667085" fill-rule="evenodd"/></svg>