<svg width="24" height="24" fill="none" xmlns="http://www.w3.org/2000/svg"><path d="M10.643.669a1.066 1.066 0 0 0-.577.591c-.149.438-.054.747.363 1.184l.297.311-.153.026c-1.813.31-3.507 1.09-4.833 2.227a9.205 9.205 0 0 0-3.036 8.952c.454 2.153 1.68 4.122 3.435 5.517.491.39.752.467 1.171.342.428-.127.725-.586.678-1.046-.033-.32-.172-.519-.6-.864-1.457-1.171-2.394-2.701-2.749-4.489-.111-.558-.151-1.696-.081-2.302.323-2.79 2.309-5.168 5.075-6.076.257-.085.518-.165.58-.179l.113-.026-.102.134c-.648.85.262 1.98 1.221 1.516.121-.058.53-.441 1.3-1.216 1.029-1.035 1.13-1.149 1.194-1.345.085-.26.067-.525-.052-.771-.058-.121-.441-.529-1.216-1.3C11.679.869 11.516.723 11.343.666a1.026 1.026 0 0 0-.7.003m6.069 3.502c-.446.148-.692.493-.692.969 0 .394.112.571.611.967a7.55 7.55 0 0 1 2.73 4.473c.111.558.151 1.696.081 2.302-.28 2.422-1.831 4.571-4.097 5.679-.421.206-1.205.496-1.558.576l-.113.026.102-.134c.653-.856-.265-1.979-1.235-1.51-.103.05-.572.491-1.286 1.21-.986.992-1.132 1.155-1.189 1.328a.976.976 0 0 0 0 .686c.057.173.203.336 1.189 1.328 1.181 1.188 1.303 1.285 1.667 1.32.425.041.875-.248 1.012-.651.149-.437.054-.748-.359-1.18l-.293-.307.452-.088c2.601-.509 4.791-1.95 6.232-4.1 2.41-3.597 1.934-8.479-1.136-11.65-.478-.494-1.125-1.04-1.396-1.178-.201-.103-.524-.132-.722-.066" fill="#667085" fill-rule="evenodd"/></svg>