<svg width="24" height="24" fill="none" xmlns="http://www.w3.org/2000/svg"><path d="M10.643 1.069C10.291 1.193 10 1.614 10 2c0 .364.089.496.851 1.267l.719.728-3.495.017c-3.691.018-3.793.023-4.365.21-1.072.352-2.055 1.293-2.429 2.329-.268.739-.261.591-.261 5.549 0 4.473 0 4.481.087 4.806.41 1.536 1.445 2.576 2.966 2.98.454.121 1.494.153 1.755.053.667-.255.884-1.074.42-1.587-.25-.277-.388-.323-1.068-.354-.633-.029-.849-.078-1.177-.268a2.136 2.136 0 0 1-.896-1.083c-.086-.226-.087-.244-.099-3.927-.012-3.771.016-4.932.131-5.372.145-.554.657-1.065 1.21-1.209C4.759 6.033 5.768 6 8.698 6h2.877l-.721.73c-.611.618-.732.76-.788.927-.13.388-.046.765.233 1.044.278.278.655.363 1.044.234.176-.059.368-.236 1.809-1.67 1.787-1.78 1.816-1.816 1.82-2.278a.897.897 0 0 0-.083-.429c-.061-.126-.562-.652-1.718-1.803-1.459-1.453-1.652-1.631-1.828-1.69a1.032 1.032 0 0 0-.7.004m7.597 2.968c-.446.136-.728.509-.728.963 0 .405.207.724.588.905.171.08.262.094.623.095.232 0 .529.02.66.043.755.138 1.414.787 1.573 1.549.057.275.06 7.372.004 8.248-.023.341-.066.715-.097.831-.142.531-.7 1.077-1.232 1.204-.411.099-1.252.124-4.17.124L12.423 18l.704-.71c.387-.391.737-.773.777-.85.053-.1.075-.227.075-.44.001-.257-.015-.327-.11-.489a1.001 1.001 0 0 0-1.324-.394c-.109.054-.71.628-1.79 1.712-1.514 1.519-1.63 1.646-1.695 1.845-.084.26-.066.525.052.77.06.124.572.66 1.717 1.801 1.459 1.453 1.652 1.631 1.828 1.69.483.16.959-.015 1.212-.446.095-.162.111-.232.11-.489 0-.213-.022-.34-.075-.44-.04-.077-.389-.459-.775-.848l-.702-.708 3.537-.014c3.408-.015 3.549-.018 3.896-.098.625-.144 1.027-.324 1.5-.669.804-.586 1.296-1.346 1.532-2.363.082-.351.084-.467.098-4.785.013-4.32.012-4.434-.068-4.824-.249-1.222-1.007-2.237-2.082-2.787a3.702 3.702 0 0 0-1.209-.404c-.385-.062-1.217-.076-1.391-.023" fill="#667085" fill-rule="evenodd"/></svg>