<svg width="24" height="24" fill="none" xmlns="http://www.w3.org/2000/svg"><path d="M16.643 1.069C16.291 1.193 16 1.614 16 2c0 .08.03.234.066.343.057.174.209.342 1.287 1.426l1.221 1.228-6.497.015c-6.958.016-6.755.01-7.367.21-1.32.433-2.347 1.607-2.614 2.991-.046.237-.069.68-.084 1.613-.024 1.487-.01 1.578.287 1.875a1 1 0 0 0 1.489-.094c.184-.241.211-.387.212-1.107.001-.868.066-1.87.139-2.152.145-.554.656-1.064 1.21-1.209C5.808 7.02 6.836 7 12.699 7h5.878l-1.223 1.23c-1.078 1.085-1.231 1.253-1.288 1.427-.13.389-.045.766.233 1.044s.655.363 1.044.234c.178-.059.403-.27 2.309-2.17 2.33-2.323 2.316-2.306 2.32-2.778a.897.897 0 0 0-.083-.429c-.062-.128-.688-.778-2.218-2.303-1.924-1.919-2.15-2.131-2.328-2.19a1.032 1.032 0 0 0-.7.004m4 10.998a1.082 1.082 0 0 0-.577.593c-.051.151-.066.349-.067.897-.001.836-.059 1.804-.123 2.071-.093.38-.454.847-.836 1.08-.218.132-.537.208-1.06.251-.289.024-2.889.04-6.519.04L5.422 17l1.204-1.21c.663-.665 1.238-1.273 1.279-1.35.052-.099.074-.227.074-.44.001-.258-.015-.327-.112-.492a.997.997 0 0 0-1.313-.394c-.122.059-.805.716-2.299 2.215-1.997 2.003-2.13 2.144-2.195 2.345-.084.261-.066.526.052.77.061.125.701.79 2.217 2.301 1.924 1.919 2.15 2.131 2.328 2.19.483.16.959-.016 1.212-.446.095-.162.111-.232.11-.489 0-.213-.022-.341-.074-.44-.041-.077-.615-.684-1.277-1.349l-1.204-1.208 6.538-.013c6.479-.013 6.541-.014 6.898-.097.628-.147 1.029-.326 1.5-.67.806-.588 1.306-1.361 1.528-2.363.068-.305.083-.559.101-1.66.014-.906.006-1.351-.026-1.468-.145-.539-.784-.861-1.32-.665" fill="#667085" fill-rule="evenodd"/></svg>