<svg width="24" height="24" fill="none" xmlns="http://www.w3.org/2000/svg"><path d="M15.643 3.069C15.291 3.193 15 3.614 15 4c0 .08.03.234.066.343.057.174.21.342 1.288 1.427L17.577 7h-3.924c-3.921 0-4.411.014-5.047.145a7.054 7.054 0 0 0-3.547 1.914 6.964 6.964 0 0 0 0 9.882 6.99 6.99 0 0 0 3.223 1.842c.858.216.831.215 6.561.216 5.959.001 5.538.023 5.858-.298.479-.479.35-1.291-.251-1.587l-.19-.094-5.5-.022c-4.904-.021-5.528-.03-5.76-.088-1.112-.279-1.793-.653-2.525-1.385-.991-.991-1.453-2.112-1.453-3.525 0-1.413.462-2.535 1.453-3.525.727-.727 1.462-1.129 2.525-1.38.275-.065.648-.072 4.44-.084l4.14-.014-1.224 1.231c-1.08 1.087-1.233 1.255-1.29 1.429-.13.389-.045.766.233 1.044s.655.363 1.044.234c.178-.059.403-.27 2.309-2.17 2.329-2.323 2.317-2.307 2.32-2.776.003-.442.004-.44-2.319-2.754-1.907-1.899-2.132-2.111-2.31-2.17a1.032 1.032 0 0 0-.7.004" fill="#667085" fill-rule="evenodd"/></svg>