<svg width="24" height="24" fill="none" xmlns="http://www.w3.org/2000/svg"><path d="M7.64 3.068c-.154.053-.488.369-2.311 2.187-1.516 1.511-2.156 2.176-2.217 2.301a1.018 1.018 0 0 0-.052.77c.065.201.198.342 2.195 2.345 1.511 1.516 2.176 2.156 2.301 2.217a.99.99 0 0 0 1.144-.186c.28-.279.364-.656.234-1.045-.057-.174-.21-.342-1.29-1.429L6.42 8.997l4.14.014c3.792.012 4.165.019 4.44.084 1.063.251 1.798.653 2.525 1.38.989.989 1.453 2.114 1.453 3.525s-.464 2.536-1.453 3.525c-.732.732-1.413 1.106-2.525 1.385-.232.058-.856.067-5.76.088l-5.5.022-.19.094c-.601.296-.73 1.108-.251 1.587.32.321-.101.299 5.858.298 5.73-.001 5.703 0 6.561-.216a7.054 7.054 0 0 0 5.065-5.065c.76-3.01-.547-6.14-3.232-7.739-.69-.41-1.487-.706-2.391-.885-.303-.06-.799-.069-4.537-.083l-4.196-.015 1.221-1.228c1.077-1.083 1.229-1.251 1.286-1.425.13-.389.045-.766-.233-1.044a1.005 1.005 0 0 0-1.061-.231" fill="#667085" fill-rule="evenodd"/></svg>