<svg width="24" height="24" fill="none" xmlns="http://www.w3.org/2000/svg"><path d="M2.643 3.069C2.291 3.193 2 3.614 2 4c0 .242.119.521.299.701C2.625 5.027 1.736 5 12 5c10.264 0 9.375.027 9.701-.299a.984.984 0 0 0 0-1.402c-.326-.327.567-.299-9.718-.296-8.192.003-9.182.01-9.34.066m17.477 3.99c-.311.1-.619.315-3.025 2.118-1.501 1.126-2.386 1.814-2.459 1.914a1.567 1.567 0 0 0 0 1.817c.072.1.976.803 2.505 1.948 1.315.986 2.474 1.842 2.575 1.903.456.276.93.31 1.394.102a1.61 1.61 0 0 0 .773-.801l.097-.24.011-3.674c.007-2.383-.003-3.753-.03-3.896a1.462 1.462 0 0 0-.825-1.095c-.299-.147-.732-.188-1.016-.096M2.78 8.277a1.002 1.002 0 0 0-.768 1.063c.038.377.242.66.588.817.178.08.237.081 4.9.081s4.722-.001 4.9-.081c.781-.354.797-1.396.028-1.807l-.168-.09-4.68-.006c-2.574-.004-4.734.007-4.8.023m17.211 4.965-.011 1.243-1.648-1.233c-.907-.677-1.649-1.241-1.649-1.252 0-.011.742-.575 1.649-1.252l1.648-1.233.011 1.243c.005.683.005 1.801 0 2.484M2.6 13.843a.966.966 0 0 0-.589.818c-.041.399.154.76.519.963l.21.116h9.52l.168-.09c.389-.208.602-.584.56-.99a.963.963 0 0 0-.588-.817c-.178-.08-.237-.081-4.9-.081s-4.722.001-4.9.081m.043 5.226C2.291 19.193 2 19.614 2 20c0 .242.119.521.299.701.326.326-.563.299 9.701.299 10.264 0 9.375.027 9.701-.299a.984.984 0 0 0 0-1.402c-.326-.327.567-.299-9.718-.296-8.192.003-9.182.01-9.34.066" fill="#667085" fill-rule="evenodd"/></svg>