<svg width="24" height="24" fill="none" xmlns="http://www.w3.org/2000/svg"><path d="M20.209 2.282a1.743 1.743 0 0 0-.38.146c-.347.186-4.994 3.677-5.156 3.873-.16.195-.29.5-.333.783-.057.381.135.94.415 1.209.288.276 4.87 3.673 5.124 3.799.237.117.293.128.64.128.33 0 .412-.014.61-.108.277-.129.582-.425.7-.677.169-.361.175-.522.163-4.355l-.012-3.66-.093-.23a1.543 1.543 0 0 0-1.149-.911c-.268-.044-.291-.043-.529.003M2.6 3.843a.966.966 0 0 0-.589.818c-.041.399.154.76.519.963l.21.116h9.52l.168-.09c.389-.208.602-.584.56-.99a.963.963 0 0 0-.588-.817c-.178-.08-.237-.081-4.9-.081s-4.722.001-4.9.081m17.384 5.866c-.013.014-3.138-2.304-3.278-2.431-.019-.017.71-.589 1.62-1.272l1.654-1.241.01 2.464c.006 1.355.003 2.471-.006 2.48m-17.341-.64C2.291 9.193 2 9.614 2 10c0 .242.119.521.299.701.318.319-.022.299 5.201.299s4.883.02 5.201-.299a.984.984 0 0 0 0-1.402c-.319-.319.025-.299-5.218-.296-4.116.003-4.684.011-4.84.066m-.026 5.508c-.346.15-.616.556-.616.923 0 .386.303.818.664.945.231.082 18.439.082 18.67 0 .361-.127.664-.559.664-.945 0-.372-.274-.779-.625-.925-.194-.081-18.571-.079-18.757.002M2.6 19.843a.966.966 0 0 0-.589.818c-.041.399.154.76.519.963l.21.116h18.52l.168-.09c.389-.208.602-.584.56-.99a.963.963 0 0 0-.588-.817c-.179-.081-.21-.081-9.4-.081s-9.221 0-9.4.081" fill="#667085" fill-rule="evenodd"/></svg>