<svg width="24" height="24" fill="none" xmlns="http://www.w3.org/2000/svg"><path d="M20.86 1.28c-3.03.19-5.815 1.3-8.04 3.203-.538.46-1.389 1.35-1.852 1.937l-.5.631-.088.111-.261-.08c-.355-.109-1.07-.228-1.719-.285-2.276-.202-3.736.531-4.644 2.333a11.517 11.517 0 0 0-.879 2.449c-.183.748-.152 1.021.149 1.344.307.327.213.317 2.931.317H8.34l1.21 1.21 1.21 1.21v2.383c0 2.718-.01 2.624.317 2.931.323.301.596.332 1.344.149a12.64 12.64 0 0 0 1.669-.528c1.797-.713 2.657-1.593 3.04-3.107.078-.307.088-.45.087-1.208-.002-.939-.085-1.648-.272-2.328l-.096-.348.445-.357c2.08-1.666 3.568-3.643 4.477-5.947.575-1.458.888-2.922.972-4.541.034-.656-.021-.908-.255-1.167-.287-.319-.592-.377-1.628-.312m-.221 2.25c-.001.198-.144 1.165-.233 1.572-.576 2.639-2.047 4.897-4.365 6.701-.954.743-2.137 1.407-3.659 2.054l-.438.187-.99-.992-.99-.992.178-.42c.316-.742 1.005-2.084 1.371-2.666 1.24-1.978 2.822-3.441 4.767-4.409 1.125-.56 2.235-.897 3.56-1.083l.4-.056c.055-.008.167-.018.25-.021.144-.005.15 0 .149.125M9.031 8.891c.116.032.22.067.231.078.011.011-.102.243-.251.517-.149.274-.406.78-.571 1.125l-.3.627-1.533.001-1.533.001.026-.122c.068-.305.366-.935.666-1.403.356-.556.685-.78 1.283-.872.364-.056 1.722-.023 1.982.048m6.074 6.075c.084.296.119 1.435.058 1.888-.09.675-.29.999-.84 1.363-.414.273-1.136.616-1.441.683l-.122.026V15.86l.43-.19c.237-.105.745-.359 1.13-.565.385-.205.706-.369.713-.364.006.006.039.107.072.225m-9.952.312c-1.202.221-2.119 1.006-2.776 2.378-.406.847-.857 2.378-1.059 3.591-.087.519-.087.541-.02.773.094.323.348.581.672.682.225.071.239.071.774-.018 1.222-.204 2.75-.654 3.6-1.061 1.229-.589 1.971-1.37 2.302-2.424.082-.26.094-.376.091-.899-.002-.546-.012-.629-.112-.92-.285-.832-.824-1.445-1.602-1.821a3.63 3.63 0 0 0-.583-.218c-.312-.076-1.027-.11-1.287-.063m1.052 2.108c.387.211.586.596.544 1.054-.048.529-.391.9-1.219 1.315-.751.377-1.97.781-1.97.653 0-.124.22-.851.372-1.228.456-1.135.883-1.732 1.342-1.88a1.32 1.32 0 0 1 .931.086" fill="#667085" fill-rule="evenodd"/></svg>