<svg width="24" height="24" fill="none" xmlns="http://www.w3.org/2000/svg"><path d="M16.9 1.457c-1.496.251-2.846.496-3 .544a3.911 3.911 0 0 0-1.104.582c-.184.142-1.755 1.792-3.792 3.986-.061.065-.138.045-1.324-.348-1.37-.453-1.609-.502-2.065-.423-.532.091-.709.212-2.375 1.62-.847.716-1.624 1.391-1.727 1.501-.733.783-.666 2.091.147 2.887.263.258.416.332 1.575.757l1.014.372-.026.203c-.123.957-.119 1.351.021 2.086.125.66.347 1.241.704 1.851l.22.375-1.342 1.345c-1.469 1.472-1.519 1.537-1.519 1.965 0 .558.451 1.01 1.013 1.014.424.004.49-.048 1.981-1.536l1.36-1.358.14.095c.207.14.747.409 1.059.526.924.348 2.164.455 3.03.261.083-.018.159-.02.17-.003.01.017.19.496.4 1.063.209.567.424 1.105.477 1.195.216.365.658.714 1.103.868.374.13.994.132 1.366.003.484-.167.618-.298 2.097-2.041 1.493-1.761 1.607-1.925 1.7-2.463.076-.443.029-.666-.428-2.038l-.425-1.275.115-.109c.063-.061.943-.883 1.955-1.829 1.81-1.69 2.044-1.934 2.296-2.379.29-.515.339-.73.827-3.644.43-2.567.462-2.799.445-3.17-.052-1.124-.728-2.126-1.768-2.625-.422-.202-.715-.274-1.2-.297-.37-.017-.602.016-3.12.439m3.496 1.701c.286.146.487.423.538.742.018.112-.066.72-.28 2.02-.168 1.023-.319 1.875-.335 1.893-.017.019-.225-.224-.464-.538-1.121-1.476-1.621-1.979-3.06-3.08-.35-.268-.626-.498-.613-.511.013-.013.846-.163 1.851-.333 1.926-.326 2.078-.338 2.363-.193M14.13 4.647c1.764 1.256 3.263 2.67 4.445 4.191.527.68.985 1.329.963 1.365-.054.087-7.253 6.796-7.471 6.962a3.768 3.768 0 0 1-1.17.581c-.321.098-.42.109-.977.111-.688.003-1.03-.063-1.552-.299l-.265-.121 2.907-2.908c2.374-2.375 2.922-2.944 2.992-3.102a1.098 1.098 0 0 0-.003-.85c-.106-.219-.384-.468-.591-.53a1.229 1.229 0 0 0-.768.036c-.139.062-.847.747-3.08 2.979-1.596 1.594-2.911 2.898-2.924 2.898-.048 0-.317-.632-.401-.94-.071-.262-.087-.432-.088-.94-.001-.564.009-.653.108-.978.132-.432.372-.905.621-1.223.212-.271 6.889-7.431 6.934-7.436.016-.002.16.09.32.204M6.677 8.059c.36.12.662.227.672.236.009.01-.414.478-.941 1.041-.736.786-.991 1.086-1.1 1.294-.25.472-.11.467-1.249.048a47.434 47.434 0 0 1-1.012-.379c-.024-.021 2.877-2.459 2.927-2.459.027 0 .343.099.703.219m9.263 9.262c.125.375.218.707.206.738-.026.068-2.429 2.912-2.445 2.894a47.434 47.434 0 0 1-.379-1.012c-.419-1.14-.426-.993.058-1.258.212-.117.523-.383 1.28-1.096.55-.518 1.012-.943 1.027-.945.014-.001.129.305.253.679" fill="#667085" fill-rule="evenodd"/></svg>