<svg width="24" height="24" fill="none" xmlns="http://www.w3.org/2000/svg"><path d="M3.939 1.058c-.581.106-1.086.375-1.541.822-.509.5-.799 1.108-.885 1.855-.063.547-.018 1.612.084 2.003A2.969 2.969 0 0 0 3.18 7.679c.67.325.026.298 7.18.311 5.732.011 6.413.006 6.7-.052 1.097-.22 1.96-.984 2.289-2.028l.111-.35h.202c.269 0 .529.162.684.427l.114.193v1.56c0 1.438-.006 1.572-.074 1.709-.097.195-.342.413-.533.475-.114.037-1.014.056-3.493.075-3.24.025-3.349.028-3.646.111-.936.26-1.713.968-2.015 1.837-.14.403-.178.718-.179 1.457v.665l-.336.021c-.728.045-1.337.544-1.593 1.304-.089.263-.09.293-.102 2.924-.013 2.764-.002 3.003.155 3.424.179.477.647.929 1.182 1.143.225.089.285.093 1.519.107 1.44.016 1.615-.003 2.041-.212.479-.235.823-.633 1.021-1.182l.093-.258v-2.82c0-2.809 0-2.821-.09-3.105a1.982 1.982 0 0 0-1.036-1.202 1.592 1.592 0 0 0-.535-.12l-.331-.026.023-.69c.025-.776.054-.882.31-1.113.084-.076.222-.161.306-.188.113-.036 1.031-.056 3.493-.076 3.728-.03 3.561-.017 4.18-.32.763-.372 1.352-1.076 1.557-1.86.113-.429.154-1.217.132-2.5-.018-1.066-.032-1.261-.105-1.54a2.995 2.995 0 0 0-1.544-1.94c-.342-.172-.659-.238-1.15-.239l-.27-.001v-.123c0-.191-.187-.707-.369-1.017-.194-.332-.681-.825-1.002-1.014a3.103 3.103 0 0 0-1.027-.389C16.611.98 4.363.981 3.939 1.058m13.005 2.05c.19.102.403.33.481.518.081.194.077 1.55-.005 1.748a1.157 1.157 0 0 1-.476.518l-.164.088H4.22l-.164-.088a1.21 1.21 0 0 1-.481-.518c-.078-.186-.078-1.562 0-1.748a1.1 1.1 0 0 1 .665-.589c.055-.017 2.899-.028 6.32-.024l6.22.007.164.088M12.47 18.51l.011 2.49H10.52v-2.473c0-1.361.012-2.486.027-2.501.015-.015.452-.023.97-.017l.943.011.01 2.49" fill="#667085" fill-rule="evenodd"/></svg>