<svg width="24" height="24" fill="none" xmlns="http://www.w3.org/2000/svg"><path d="M4.656 2.04c-1.107.119-2.108.906-2.46 1.935-.182.531-.203.846-.187 2.769L2.024 8.5l.11.36a2.999 2.999 0 0 0 2.446 2.1c.191.029 2.615.038 7.6.03 6.85-.011 7.337-.017 7.579-.083a3.082 3.082 0 0 0 2.15-2.168c.063-.249.071-.488.071-2.239 0-1.795-.006-1.984-.075-2.24-.293-1.086-1.082-1.866-2.192-2.168-.235-.064-.78-.07-7.513-.076-3.993-.003-7.388.008-7.544.024m14.276 2c.426.036.49.051.647.159.375.259.419.497.419 2.301 0 1.401-.039 1.858-.178 2.067-.155.234-.358.347-.702.392-.398.052-13.834.052-14.232 0-.349-.045-.522-.141-.687-.38-.108-.157-.123-.221-.159-.647-.05-.607-.05-2.256 0-2.862.033-.401.055-.494.143-.627.179-.271.366-.363.81-.4.572-.047 13.371-.05 13.939-.003M4.82 13.041c-.464.04-.805.13-1.168.309a2.928 2.928 0 0 0-1.304 1.302c-.185.37-.26.662-.308 1.208-.052.583-.05 2.715.003 3.32.072.822.327 1.396.854 1.923.51.511 1.087.775 1.863.855.562.058 13.917.058 14.48 0 .796-.082 1.33-.328 1.86-.858s.776-1.064.858-1.86c.054-.529.054-2.951 0-3.48-.052-.504-.179-.916-.395-1.28a2.981 2.981 0 0 0-1.941-1.391c-.252-.057-1.043-.064-7.362-.071-3.894-.005-7.242.006-7.44.023m14.55 2.016c.155.045.446.313.535.492.07.141.075.271.075 1.951 0 1.68-.005 1.81-.075 1.951-.101.203-.4.46-.58.498-.08.017-3.403.031-7.385.031-7.001 0-7.245-.002-7.391-.075-.181-.09-.448-.383-.489-.535-.016-.061-.038-.801-.048-1.644-.021-1.729.006-2.097.169-2.311.171-.224.349-.334.604-.371.294-.044 14.435-.031 14.585.013" fill="#667085" fill-rule="evenodd"/></svg>