<svg width="24" height="24" fill="none" xmlns="http://www.w3.org/2000/svg"><path d="M3.177 2.039c-.322.023-.489.056-.608.116a.995.995 0 0 0-.029 1.778c.155.082.209.085 1.68.089 1.582.004 2.061.037 3.145.22 2.66.448 5.101 1.53 7.115 3.152.541.436 1.501 1.383 1.976 1.951 1.684 2.011 2.816 4.493 3.284 7.2.198 1.144.235 1.653.238 3.255.003 1.454.006 1.505.089 1.66.187.349.469.516.873.519.315.001.49-.066.698-.269.302-.296.356-.605.36-2.07.014-6.09-2.805-11.504-7.668-14.725C11.966 3.349 9.313 2.417 6.32 2.1c-.684-.073-2.512-.108-3.143-.061m.25 4.966c-.658.04-.809.076-1.033.246a.995.995 0 0 0-.088 1.493c.292.284.433.31 1.343.255 2.084-.127 4.015.237 5.731 1.08 2.046 1.005 3.545 2.504 4.543 4.541.842 1.72 1.203 3.633 1.079 5.712-.056.936-.028 1.084.257 1.369a1 1 0 0 0 1.49-.095c.167-.219.2-.353.25-1.006.207-2.728-.436-5.556-1.77-7.78a11.918 11.918 0 0 0-3.489-3.687C9.814 7.842 7.671 7.144 5.2 7.001c-.78-.044-.976-.044-1.773.004m.213 4.938-.52.061c-.441.051-.57.097-.775.277-.233.205-.323.41-.323.739 0 .311.063.471.272.693.272.289.505.341 1.18.26.602-.072 1.61-.052 2.127.042.849.155 1.723.519 2.339.975 1.067.79 1.791 1.998 2.044 3.409.094.525.114 1.49.043 2.106-.08.698-.031.928.26 1.201.222.209.382.272.693.272.329 0 .534-.09.739-.323.175-.199.226-.334.289-.758.078-.535.065-2.129-.021-2.637a9.801 9.801 0 0 0-.39-1.523c-.905-2.562-3.076-4.303-5.89-4.72-.39-.058-1.776-.107-2.067-.074m.98 4.079c-.044.01-.179.038-.3.061a3.468 3.468 0 0 0-.64.247c-.366.179-.466.251-.782.568-.399.4-.614.757-.784 1.302-.135.431-.135 1.169 0 1.6.17.546.385.902.784 1.302.4.399.756.614 1.302.784.431.135 1.169.135 1.6 0 .546-.17.902-.385 1.302-.784.556-.557.842-1.183.886-1.943.052-.891-.289-1.718-.974-2.357a3.313 3.313 0 0 0-1.254-.705c-.219-.059-.988-.11-1.14-.075m.841 2.089a.965.965 0 0 1 .527.784c.041.4-.16.789-.51.985-.146.082-.232.1-.478.1-.246 0-.332-.018-.478-.1-.749-.42-.659-1.524.148-1.825.201-.075.59-.048.791.056" fill="#667085" fill-rule="evenodd"/></svg>