<svg width="24" height="24" fill="none" xmlns="http://www.w3.org/2000/svg"><path d="M3.643 3.069C3.291 3.193 3 3.614 3 4c0 .396.291.808.66.934.113.038.32.066.497.066 1.363.001 3.086.286 4.494.745a14.966 14.966 0 0 1 8.708 7.455 14.676 14.676 0 0 1 1.5 4.8c.074.561.141 1.433.141 1.843 0 .395.088.647.299.858a.984.984 0 0 0 1.403-.001c.272-.272.315-.462.285-1.278a16.988 16.988 0 0 0-9.604-14.725C9.388 3.733 7.356 3.199 5.08 3.041c-.797-.055-1.225-.047-1.437.028m0 6.997C3.288 10.197 3 10.615 3 11c0 .401.295.815.664.931.108.034.412.073.677.086 1.984.1 3.744.845 5.154 2.183 1.521 1.443 2.381 3.331 2.488 5.459.03.602.097.823.315 1.041a.984.984 0 0 0 1.403.001c.296-.296.348-.622.257-1.621a10.27 10.27 0 0 0-1.081-3.673 10.01 10.01 0 0 0-6.47-5.108c-.954-.24-2.413-.363-2.764-.233m.959 6.978c-.337.066-.755.299-1.017.568-.783.801-.777 1.996.015 2.788.633.633 1.505.772 2.32.369.282-.14.709-.567.849-.849.398-.807.266-1.675-.354-2.308a2 2 0 0 0-1.813-.568" fill="#667085" fill-rule="evenodd"/></svg>