<svg width="24" height="24" fill="none" xmlns="http://www.w3.org/2000/svg"><path d="M16.689 1.24c-.457.096-.208-.142-7.935 7.591-5.728 5.733-7.322 7.349-7.39 7.495a1.575 1.575 0 0 0 0 1.348c.126.269 4.693 4.836 4.962 4.962.43.202.917.202 1.348 0C7.943 22.511 22.51 7.945 22.632 7.68c.144-.313.191-.643.133-.93-.1-.498-.068-.461-2.521-2.922-2.137-2.145-2.324-2.322-2.584-2.449a1.543 1.543 0 0 0-.971-.139M18.8 5.22 20.58 7l-6.79 6.79L7 20.58l-1.79-1.79L3.42 17l.789-.789.789-.789.731.723c.776.767.907.855 1.271.855.527 0 1-.473 1-1 0-.364-.088-.495-.855-1.271l-.723-.731.788-.788.788-.788.731.723c.776.767.907.855 1.271.855.527 0 1-.473 1-1 0-.364-.088-.495-.855-1.271l-.723-.731.788-.788.788-.788.731.723c.776.767.907.855 1.271.855.527 0 1-.473 1-1 0-.364-.088-.495-.855-1.271l-.723-.731.788-.788.788-.788.731.723c.776.767.907.855 1.271.855.527 0 1-.473 1-1 0-.364-.088-.495-.855-1.271l-.722-.731.778-.779c.428-.428.787-.779.799-.779.011 0 .821.801 1.8 1.78" fill="#667085" fill-rule="evenodd"/></svg>