<svg width="24" height="24" fill="none" xmlns="http://www.w3.org/2000/svg"><path d="M4.632 2.041A2.96 2.96 0 0 0 2.041 4.58c-.025.176-.039 2.385-.039 5.92s.014 5.744.039 5.92a2.976 2.976 0 0 0 2.539 2.539c.382.054 14.458.054 14.84 0a2.976 2.976 0 0 0 2.539-2.539c.056-.393.055-11.433-.001-11.836a3.018 3.018 0 0 0-.414-1.16c-.175-.28-.575-.711-.806-.868a4.018 4.018 0 0 0-.973-.448l-.305-.087-7.28-.006c-4.004-.003-7.4.009-7.548.026m14.315 1.997c.511.043.684.123.872.408.09.135.111.227.143.607.048.589.048 10.313-.001 10.903-.032.383-.054.479-.14.609-.164.248-.358.351-.744.396-.453.052-13.701.052-14.154 0-.386-.045-.58-.148-.744-.395-.083-.125-.108-.23-.139-.57-.048-.539-.049-10.446-.001-10.984.043-.469.131-.649.41-.833.133-.088.229-.113.527-.138.536-.044 13.442-.047 13.971-.003m-1.9 1.586c-.209.104-.332.233-.472.496-.072.134-.075.316-.075 4.38v4.24l.106.2c.192.363.501.554.894.554s.702-.191.894-.554l.106-.2.011-4.137c.012-4.538.02-4.37-.226-4.71-.262-.361-.813-.481-1.238-.269M8.414 7.056c-.805.154-1.41.489-1.977 1.096a3.314 3.314 0 0 0-.93 2.368c.008 1.599 1.082 2.957 2.676 3.384.385.103 1.247.104 1.63.001 1.626-.436 2.694-1.81 2.678-3.445a3.298 3.298 0 0 0-.928-2.308c-.496-.53-1.044-.863-1.703-1.034-.412-.106-1.067-.134-1.446-.062m1.154 2.063c.297.111.584.373.755.688.132.244.137.268.137.693 0 .424-.005.449-.136.69a1.58 1.58 0 0 1-.717.684c-.196.091-.279.106-.607.106-.328 0-.411-.015-.607-.106a1.58 1.58 0 0 1-.717-.684c-.131-.241-.136-.266-.136-.69 0-.404.009-.457.111-.651.382-.725 1.15-1.017 1.917-.73M5.667 20.065a.998.998 0 0 0 .003 1.878c.189.067 3.382.081 3.619.015.358-.099.664-.48.702-.875.042-.444-.256-.896-.675-1.02-.302-.09-3.355-.088-3.649.002m9 0a.998.998 0 0 0 .003 1.878c.189.067 3.382.081 3.619.015.358-.099.664-.48.702-.875.042-.444-.256-.896-.675-1.02-.302-.09-3.355-.088-3.649.002" fill="#667085" fill-rule="evenodd"/></svg>