<svg width="24" height="24" fill="none" xmlns="http://www.w3.org/2000/svg"><path d="M11.536 1.059c-.368.081-.651.246-1.395.819-.516.397-.707.522-.796.522-.065 0-.461-.047-.881-.104-1.144-.156-1.541-.102-2.111.286-.46.314-.587.509-1.015 1.558-.17.418-.339.789-.374.825-.035.035-.406.204-.824.375-.418.171-.881.391-1.028.487A2.049 2.049 0 0 0 2.2 7.531c0 .143.045.591.1.995.055.404.1.779.1.834 0 .067-.174.325-.524.78-.288.374-.576.783-.64.91a2.081 2.081 0 0 0 0 1.9c.064.127.352.536.64.91.35.455.524.713.524.78 0 .055-.045.43-.1.834-.055.404-.1.852-.1.995 0 .683.341 1.322.91 1.704.16.107.58.308 1.03.49.418.17.789.338.824.373.035.035.204.406.375.824.37.906.45 1.051.746 1.341a2.07 2.07 0 0 0 1.441.599c.14 0 .594-.045 1.01-.1.416-.055.794-.1.84-.1.046 0 .39.236.764.524.374.288.783.576.91.64.602.306 1.3.306 1.9 0 .127-.065.535-.353.908-.641.388-.3.714-.523.764-.523.047 0 .426.045.842.1 1.135.15 1.413.13 1.962-.14.283-.139.663-.492.82-.761.058-.098.245-.521.415-.939.171-.418.34-.789.375-.824.035-.035.423-.211.861-.391.509-.209.885-.391 1.042-.503.533-.38.861-1.015.861-1.668 0-.14-.045-.594-.1-1.01-.055-.416-.1-.794-.1-.84 0-.046.236-.39.524-.764.288-.374.576-.783.64-.91a2.081 2.081 0 0 0 0-1.9c-.064-.127-.352-.536-.64-.91-.35-.455-.524-.713-.524-.78 0-.055.045-.43.1-.834.055-.404.1-.852.1-.995 0-.656-.326-1.291-.858-1.671-.152-.109-.54-.296-1.042-.503-.44-.181-.829-.359-.864-.393-.035-.035-.215-.432-.399-.882-.349-.852-.522-1.144-.824-1.386a2.16 2.16 0 0 0-1.339-.496c-.14 0-.584.045-.988.1-.404.055-.783.1-.841.1-.076 0-.305-.152-.786-.522-.373-.288-.785-.577-.914-.644a2.111 2.111 0 0 0-1.409-.175m1.208 2.485c.394.299.797.585.896.636.496.252.831.27 2.032.114.476-.062.826-.091.846-.07.019.02.181.396.361.836.37.904.42.997.694 1.289.28.297.465.402 1.367.772.44.18.816.343.836.361.021.02-.009.364-.07.826-.159 1.184-.138 1.555.114 2.052.051.099.337.502.636.896.299.393.544.729.544.746 0 .017-.234.334-.52.704-.548.711-.72 1.002-.819 1.392-.086.337-.078.647.044 1.574.061.47.091.827.071.846-.02.017-.396.181-.836.363-.879.364-1.036.449-1.294.694-.286.272-.4.475-.767 1.36-.27.649-.369.848-.427.857-.043.006-.42-.034-.839-.09-1.139-.153-1.479-.132-1.976.119-.1.051-.501.337-.889.636-.389.299-.725.543-.746.543-.021 0-.354-.242-.741-.538-1.19-.909-1.384-.961-2.871-.76-.416.057-.793.097-.838.09-.065-.01-.152-.182-.432-.858-.382-.922-.49-1.107-.807-1.392-.253-.228-.459-.335-1.361-.705a9.883 9.883 0 0 1-.728-.319c-.021-.019.008-.363.07-.826.128-.958.135-1.351.027-1.698-.103-.336-.25-.57-.833-1.328-.269-.348-.488-.647-.488-.664 0-.017.245-.353.544-.746.299-.394.585-.797.636-.896.252-.497.273-.868.114-2.052-.061-.461-.091-.806-.07-.824.02-.018.378-.172.796-.343.892-.365 1.05-.449 1.329-.713.298-.282.404-.469.774-1.368.18-.44.343-.816.36-.836.019-.02.376.01.845.071 1.194.156 1.535.137 2.032-.115.099-.051.502-.337.896-.636.393-.299.728-.544.744-.544.016 0 .351.245.744.544m2.896 3.524c-.157.053-.718.598-4.311 4.187-3 2.996-4.154 4.173-4.216 4.301a.986.986 0 0 0 .185 1.144c.279.279.655.364 1.045.235.181-.059.542-.409 4.328-4.19 3-2.996 4.154-4.173 4.216-4.301.397-.817-.378-1.673-1.247-1.376m-7.04.487c-.35.115-.731.413-.904.708a1.87 1.87 0 0 0-.158.453 1.034 1.034 0 0 0-.001.56c.071.344.143.485.372.729.238.255.473.387.812.458.505.105.998-.059 1.37-.458.229-.244.301-.385.372-.729a1.416 1.416 0 0 0-.437-1.346c-.307-.283-.55-.383-.966-.396-.198-.006-.405.003-.46.021m6 6c-.35.115-.731.413-.904.708a1.87 1.87 0 0 0-.158.453 1.034 1.034 0 0 0-.001.56c.071.344.143.485.372.729.238.255.473.387.812.458.505.105.998-.059 1.37-.458.229-.244.301-.385.372-.729a1.416 1.416 0 0 0-.437-1.346c-.307-.283-.55-.383-.966-.396-.198-.006-.405.003-.46.021" fill="#667085" fill-rule="evenodd"/></svg>