<svg width="24" height="24" fill="none" xmlns="http://www.w3.org/2000/svg"><path d="M8.226 1.039A3.111 3.111 0 0 0 5.889 2.9c-.067.154-.25.595-.409.98-.456 1.11-.47 1.128-1.166 1.418-1.908.795-2.049.872-2.506 1.362-.309.331-.548.75-.694 1.22-.077.249-.093.388-.093.82 0 .635.019.704.583 2.06.545 1.311.545 1.17-.015 2.52-.551 1.33-.566 1.383-.567 2-.001.404.017.561.09.818A3.123 3.123 0 0 0 2.9 18.111c.154.067.595.251.98.41.845.348.909.379 1.054.514.15.139.172.184.649 1.335.25.603.483 1.099.595 1.268a3.2 3.2 0 0 0 1.702 1.248c.249.077.388.093.82.093.636 0 .71-.021 2.061-.584 1.305-.543 1.173-.543 2.478 0 1.351.563 1.425.584 2.061.584.432 0 .571-.016.82-.093a3.15 3.15 0 0 0 1.991-1.786c.067-.154.251-.595.41-.98.352-.854.401-.952.545-1.085.145-.135.209-.166 1.054-.514.385-.159.826-.343.98-.41a3.15 3.15 0 0 0 1.786-1.991c.078-.25.093-.387.093-.82-.001-.639-.012-.679-.568-2.02-.563-1.356-.563-1.204 0-2.56.556-1.341.567-1.381.568-2.02 0-.433-.015-.57-.093-.82a2.892 2.892 0 0 0-.784-1.302c-.427-.426-.603-.526-1.836-1.036-.993-.41-1.094-.46-1.231-.608-.135-.145-.166-.209-.514-1.054a85.12 85.12 0 0 0-.41-.98A3.127 3.127 0 0 0 16.1 1.114c-.414-.118-1.145-.126-1.54-.018-.143.039-.719.262-1.28.495-1.356.565-1.204.565-2.56 0-.561-.233-1.128-.453-1.26-.488-.289-.078-.966-.113-1.234-.064M10 3.453c1.266.522 1.407.562 2 .562s.734-.04 2-.566c.958-.398 1.037-.424 1.3-.426.236-.002.313.016.49.114.116.064.256.176.312.25.056.073.273.545.481 1.049.52 1.253.639 1.465 1.077 1.908.441.446.588.529 1.85 1.051.533.22 1.03.446 1.103.503.074.056.186.196.25.312.098.177.116.254.114.49-.001.263-.027.342-.426 1.3-.525 1.262-.566 1.405-.566 2s.041.739.566 2c.398.957.424 1.037.426 1.3.002.238-.015.312-.116.495a1.187 1.187 0 0 1-.242.308c-.067.052-.581.285-1.141.518-1.094.455-1.255.536-1.604.808-.512.4-.698.702-1.257 2.054-.34.822-.461 1.073-.576 1.191-.219.226-.413.306-.741.306-.265-.001-.335-.024-1.309-.431-.566-.236-1.151-.459-1.3-.494-.353-.083-1.029-.083-1.382 0-.149.035-.734.256-1.3.491-1.132.47-1.3.51-1.645.395-.394-.13-.494-.279-.982-1.458-.562-1.356-.743-1.654-1.256-2.054-.348-.271-.511-.353-1.596-.805-.556-.231-1.071-.466-1.144-.522a1.196 1.196 0 0 1-.249-.312c-.098-.177-.116-.254-.114-.49.001-.263.027-.342.426-1.3.525-1.262.566-1.405.566-2s-.041-.739-.566-2c-.398-.957-.424-1.037-.426-1.3-.002-.237.016-.313.114-.49.064-.116.176-.256.249-.312.073-.056.588-.291 1.144-.522 1.085-.452 1.248-.534 1.596-.805.509-.397.7-.707 1.233-2.002.44-1.066.537-1.243.752-1.376.464-.287.617-.265 1.889.26m5.64 3.615c-.157.053-.718.598-4.311 4.187-3 2.996-4.154 4.173-4.216 4.301a.986.986 0 0 0 .185 1.144c.279.279.655.364 1.045.235.181-.059.542-.409 4.328-4.19 3-2.996 4.154-4.173 4.216-4.301.397-.817-.378-1.673-1.247-1.376m-7.04.487c-.35.115-.731.413-.904.708a1.87 1.87 0 0 0-.158.453 1.034 1.034 0 0 0-.001.56c.072.345.143.485.376.734.243.259.456.38.803.452.499.104.988-.052 1.348-.43.235-.247.331-.428.398-.749.137-.659-.189-1.299-.828-1.628-.178-.091-.274-.112-.574-.121-.198-.006-.405.003-.46.021m6 6c-.35.115-.731.413-.904.708a1.87 1.87 0 0 0-.158.453 1.034 1.034 0 0 0-.001.56c.072.345.143.485.376.734.243.259.456.38.803.452.499.104.988-.052 1.348-.43.235-.247.331-.428.398-.749.137-.659-.189-1.299-.828-1.628-.178-.091-.274-.112-.574-.121-.198-.006-.405.003-.46.021" fill="#667085" fill-rule="evenodd"/></svg>