<svg width="24" height="24" fill="none" xmlns="http://www.w3.org/2000/svg"><path d="M11.404 1.045c-.902.104-1.705.46-2.604 1.154-.519.4-.829.518-1.68.642-1.201.175-2.016.555-2.805 1.309-.871.832-1.322 1.757-1.491 3.057-.101.773-.213 1.039-.722 1.718-.527.704-.779 1.219-.973 1.993-.093.371-.106.501-.106 1.082 0 .58.013.711.106 1.081.207.827.461 1.333 1.052 2.095.395.51.549.896.642 1.613.171 1.311.628 2.243 1.51 3.078a4.741 4.741 0 0 0 2.687 1.278c.875.118 1.288.27 1.78.656.644.504 1.092.754 1.704.953.554.179.863.226 1.496.226s.942-.047 1.496-.226c.612-.199 1.06-.449 1.704-.953.492-.386.905-.538 1.78-.656a4.694 4.694 0 0 0 2.784-1.381 4.694 4.694 0 0 0 1.381-2.784c.127-.94.256-1.259.8-1.98 1.162-1.537 1.373-3.394.577-5.065-.195-.412-.358-.667-.723-1.135-.385-.495-.536-.907-.654-1.78a4.839 4.839 0 0 0-3.465-4.025 7.996 7.996 0 0 0-.8-.154c-.868-.126-1.201-.255-1.725-.671-.451-.357-.644-.48-1.088-.692a4.836 4.836 0 0 0-2.663-.433m1.336 2.054c.36.097.763.315 1.157.625.814.642 1.572.953 2.666 1.095.254.033.565.096.691.139a2.826 2.826 0 0 1 1.792 1.799c.041.12.102.426.135.68.142 1.094.423 1.785 1.071 2.635.564.742.726 1.171.726 1.928 0 .758-.147 1.151-.713 1.906-.672.898-.941 1.557-1.084 2.657-.033.254-.094.56-.135.68a2.826 2.826 0 0 1-1.795 1.8 5.596 5.596 0 0 1-.756.156c-1.138.165-1.677.392-2.624 1.102-.66.495-1.204.698-1.871.698s-1.211-.203-1.871-.698c-.947-.71-1.486-.937-2.624-1.102a5.596 5.596 0 0 1-.756-.156 2.826 2.826 0 0 1-1.795-1.8 4.634 4.634 0 0 1-.135-.68c-.142-1.094-.423-1.785-1.071-2.635-.503-.661-.683-1.087-.735-1.736-.062-.775.168-1.4.823-2.244.459-.589.815-1.41.924-2.129l.1-.641A2.785 2.785 0 0 1 7.178 4.86l.641-.1a4.9 4.9 0 0 0 2.104-.905c.67-.516 1-.69 1.517-.798.323-.068.969-.047 1.3.042m2.9 3.969c-.157.053-.718.598-4.311 4.187-3 2.996-4.154 4.173-4.216 4.301a.986.986 0 0 0 .185 1.144c.279.279.655.364 1.045.235.181-.059.542-.409 4.328-4.19 3-2.996 4.154-4.173 4.216-4.301.397-.817-.378-1.673-1.247-1.376m-7.04.487a1.776 1.776 0 0 0-.687.435c-.233.249-.304.388-.376.734-.103.49.056.982.431 1.34.247.235.428.331.749.398.498.104.987-.053 1.347-.43.235-.247.331-.428.398-.749a1.418 1.418 0 0 0-.436-1.353c-.307-.283-.55-.383-.966-.396-.198-.006-.405.003-.46.021m6 6a1.776 1.776 0 0 0-.687.435c-.233.249-.304.388-.376.734-.103.49.056.982.431 1.34.247.235.428.331.749.398.498.104.987-.053 1.347-.43.235-.247.331-.428.398-.749a1.418 1.418 0 0 0-.436-1.353c-.307-.283-.55-.383-.966-.396-.198-.006-.405.003-.46.021" fill="#667085" fill-rule="evenodd"/></svg>