<svg width="24" height="24" fill="none" xmlns="http://www.w3.org/2000/svg"><path d="M6.12 2.041c-1.13.049-1.712.214-2.408.683-.591.399-1.191 1.164-1.429 1.82-.279.77-.263.33-.263 7.456 0 6.02.004 6.442.072 6.773.219 1.079.823 1.981 1.713 2.561.617.402 1.114.551 2.078.625.724.055 11.51.055 12.234 0 .964-.074 1.461-.223 2.078-.625.865-.564 1.456-1.425 1.698-2.474.081-.352.083-.467.097-5.32.012-4.421.006-4.994-.051-5.275a3.11 3.11 0 0 0-.428-1.076c-.182-.285-3.98-4.124-4.463-4.513a3.371 3.371 0 0 0-1.108-.581c-.223-.067-.546-.072-4.68-.078-2.442-.003-4.755.008-5.14.024m9.48 2.053c.193.102 4.14 4.043 4.273 4.266l.107.18.012 4.24c.013 4.302-.012 5.417-.131 5.87-.103.395-.402.786-.792 1.037-.176.113-.226.124-.63.144l-.439.02v-3.037c0-3.305.003-3.253-.228-3.734-.231-.479-.843-.935-1.391-1.036-.327-.061-8.432-.061-8.764-.001-.545.1-1.157.556-1.389 1.037-.231.481-.228.429-.228 3.734v3.037l-.439-.02c-.404-.02-.454-.031-.63-.144-.39-.251-.689-.642-.792-1.036C4.022 18.2 4 17.167 4 12c0-5.172.022-6.2.14-6.652.103-.396.416-.8.808-1.043.144-.088.231-.107.61-.13L6 4.148v1.538c0 1.249.011 1.582.061 1.776.194.755.794 1.34 1.531 1.494.146.03 1.357.044 3.883.044 4.132 0 3.912.016 4.226-.299a.984.984 0 0 0-.004-1.406C15.39 6.988 15.563 7 11.577 7c-3.181 0-3.531-.006-3.553-.063C8.011 6.902 8 6.226 8 5.436V3.998l3.73.011c3.543.01 3.737.015 3.87.085m.337 9.969c.056.056.063.383.063 3V20H8v-2.958c0-2.775.004-2.961.07-2.999.046-.027 1.385-.041 3.937-.042 3.463-.001 3.874.006 3.93.062" fill="#667085" fill-rule="evenodd"/></svg>