<svg width="24" height="24" fill="none" xmlns="http://www.w3.org/2000/svg"><path d="M6.12 2.041c-1.13.049-1.712.214-2.408.683-.591.399-1.191 1.164-1.429 1.82-.279.77-.263.33-.263 7.456 0 6.02.004 6.442.072 6.773.219 1.079.823 1.981 1.713 2.561.617.402 1.114.551 2.078.625.724.055 11.51.055 12.234 0 .964-.074 1.461-.223 2.078-.625.865-.564 1.456-1.425 1.698-2.474.081-.352.083-.467.097-5.32.012-4.421.006-4.994-.051-5.275a3.11 3.11 0 0 0-.428-1.076c-.182-.285-3.98-4.124-4.463-4.513a3.371 3.371 0 0 0-1.108-.581c-.223-.067-.546-.072-4.68-.078-2.442-.003-4.755.008-5.14.024m9.44 2.035c.055.031.177.119.27.195l.17.139-.001 1.205c0 .663-.011 1.246-.024 1.295l-.024.09H12c-3.566 0-3.954-.006-3.976-.063C8.011 6.902 8 6.226 8 5.436V3.998l3.73.011c3.115.009 3.746.02 3.83.067M6 5.692c0 1.244.011 1.576.061 1.77.194.755.794 1.34 1.531 1.494.297.062 8.519.062 8.816 0 .369-.077.709-.266.995-.552.425-.427.597-.882.597-1.582v-.401l.883.879c.485.484.931.961.99 1.06l.107.18.012 4.24c.013 4.302-.012 5.417-.131 5.87-.103.395-.402.786-.792 1.037-.176.113-.226.124-.63.144l-.439.02v-3.037c0-3.305.003-3.253-.228-3.734-.231-.479-.843-.935-1.391-1.036-.327-.061-8.432-.061-8.764-.001-.545.1-1.157.556-1.389 1.037-.231.481-.228.429-.228 3.734v3.037l-.439-.02c-.404-.02-.454-.031-.63-.144-.39-.251-.689-.642-.792-1.036C4.022 18.2 4 17.167 4 12s.022-6.2.139-6.651c.103-.395.38-.761.765-1.011.21-.137.311-.158.826-.171L6 4.16v1.532m9.937 8.371c.056.056.063.383.063 3V20H8v-2.958c0-2.775.004-2.961.07-2.999.046-.027 1.385-.041 3.937-.042 3.463-.001 3.874.006 3.93.062" fill="#667085" fill-rule="evenodd"/></svg>