<svg width="24" height="24" fill="none" xmlns="http://www.w3.org/2000/svg"><path d="M6.643 2.068a1.14 1.14 0 0 0-.343.23c-.48.48-.352 1.292.25 1.588l.19.094L11.1 4l4.36.02.16.087c.199.109 4.184 4.1 4.286 4.293.07.133.075.36.094 4.5l.02 4.36.094.19c.296.602 1.108.73 1.588.25.32-.32.302-.006.289-5.004L21.98 8.26l-.095-.28a3.199 3.199 0 0 0-.498-.96c-.099-.132-1.132-1.185-2.294-2.341-2.325-2.311-2.346-2.329-3.068-2.556L15.7 2.02l-4.44-.007c-3.951-.007-4.459-.001-4.617.055M4.54 5.549c-.937.129-1.776.742-2.218 1.62-.321.635-.302.221-.302 6.631v5.7l.112.36c.282.906 1.013 1.67 1.868 1.954.572.19.603.191 6.46.178l5.52-.013.306-.087a3.006 3.006 0 0 0 2.051-1.937c.176-.528.188-.917.175-5.815-.012-4.536-.012-4.561-.097-4.809a3.095 3.095 0 0 0-.196-.44c-.143-.249-2.72-2.843-3.033-3.053a2.29 2.29 0 0 0-.494-.238c-.255-.078-.357-.08-5.146-.074-2.687.003-4.94.013-5.006.023M6 8.372c0 .923.032 1.14.228 1.548.149.309.566.716.892.87.443.21.529.215 3.2.202 2.439-.012 2.461-.013 2.623-.099a1 1 0 0 0 0-1.786c-.161-.086-.186-.087-2.529-.098l-2.365-.011-.024-.089c-.013-.049-.024-.382-.024-.739L8 7.52h6.101l1.189 1.19 1.19 1.19-.001 4.52c0 2.553-.017 4.631-.038 4.776a.853.853 0 0 1-.395.63c-.135.092-.29.115-1.054.156l-.468.026-.013-2.174c-.013-2.125-.015-2.18-.102-2.44-.231-.687-.834-1.222-1.525-1.353-.3-.057-4.953-.055-5.267.002-.545.1-1.157.556-1.389 1.037-.224.466-.228.515-.228 2.811v2.115l-.57-.027c-.872-.042-1.032-.096-1.252-.429-.089-.134-.109-.224-.142-.648-.057-.705-.025-10.511.034-10.719.054-.189.147-.319.34-.475.162-.132.423-.172 1.18-.182L6 7.52v.852m6.47 9.638.011 1.99H8v-1.923c0-1.254.014-1.949.042-2 .04-.076.098-.077 2.23-.067l2.188.01.01 1.99" fill="#667085" fill-rule="evenodd"/></svg>