<svg width="24" height="24" fill="none" xmlns="http://www.w3.org/2000/svg"><path d="M4.5 1.042a3.574 3.574 0 0 0-1.165.338c-1.134.529-1.89 1.439-2.216 2.666-.074.279-.092.477-.108 1.199-.024 1.018.007 1.175.287 1.455a.984.984 0 0 0 1.403.001c.242-.242.299-.446.3-1.078.001-1.163.114-1.545.595-2.027.482-.481.864-.594 2.027-.595.632-.001.836-.058 1.079-.301a.989.989 0 0 0-.38-1.639C6.132.994 5.025.983 4.5 1.042m5.143.027C9.291 1.193 9 1.614 9 2c0 .242.119.521.299.701C9.601 3.003 9.573 3 12 3c2.429 0 2.399.003 2.702-.3a.989.989 0 0 0-.38-1.639c-.26-.092-4.417-.085-4.679.008m8 0C17.291 1.193 17 1.614 17 2c0 .242.119.521.299.701.242.242.446.299 1.078.3 1.163.001 1.545.114 2.027.595.481.482.594.864.595 2.027.001.632.058.836.3 1.078a.984.984 0 0 0 1.403-.001c.28-.28.311-.437.287-1.455-.017-.692-.037-.929-.103-1.185-.253-.988-.814-1.802-1.621-2.35-.296-.201-.891-.48-1.205-.564-.575-.153-2.066-.201-2.417-.077m-16 7.998a1.067 1.067 0 0 0-.579.602c-.062.184-.066.598-.053 4.996.013 4.281.022 4.83.081 5.122a3.97 3.97 0 0 0 3.048 3.106c.352.081.47.083 5.175.097 5.427.015 5.063.035 5.386-.289a.989.989 0 0 0-.379-1.64c-.134-.048-.367-.061-1.055-.061h-.882l.107-.112c.132-.138.319-.639.416-1.113.065-.319.072-.6.072-2.775 0-2.663-.007-2.753-.258-3.44-.363-.995-1.203-1.852-2.208-2.253C9.863 11.047 9.329 11 7 11c-1.818 0-2.515.033-2.994.143-.362.082-.768.25-.896.369l-.11.103v-.878c0-.482-.019-.944-.042-1.026-.144-.52-.789-.836-1.315-.644m20 0a1.145 1.145 0 0 0-.343.231c-.303.303-.3.274-.3 2.702 0 2.427-.003 2.399.299 2.701a.984.984 0 0 0 1.402 0c.302-.302.299-.274.299-2.698 0-1.353-.016-2.198-.042-2.292-.144-.52-.789-.836-1.315-.644M8.84 13.041c.318.022.683.066.811.099.552.141 1.068.658 1.21 1.211.089.35.138 1.26.138 2.609.001 1.373-.05 2.35-.138 2.691-.142.544-.638 1.05-1.181 1.206-.361.103-1.094.142-2.68.142s-2.319-.039-2.68-.142c-.543-.156-1.039-.662-1.181-1.206-.188-.722-.187-4.582.001-5.303.103-.397.416-.8.811-1.044.236-.146.567-.223 1.119-.261.69-.046 3.099-.048 3.77-.002m12.803 4.026a1.145 1.145 0 0 0-.343.231c-.243.243-.3.447-.301 1.079-.001 1.163-.114 1.545-.595 2.027-.478.477-.859.594-1.947.595-.719.001-.908.05-1.158.3a.984.984 0 0 0 .001 1.403c.28.28.437.311 1.455.288.708-.017.923-.036 1.185-.105 1.491-.394 2.547-1.446 2.94-2.929.075-.281.093-.477.109-1.196.022-.961.002-1.101-.2-1.366-.252-.33-.749-.472-1.146-.327" fill="#667085" fill-rule="evenodd"/></svg>