<svg width="24" height="24" fill="none" xmlns="http://www.w3.org/2000/svg"><path d="M5.9 2.025c-.991.083-1.531.257-2.2.708-.578.389-1.181 1.16-1.417 1.811-.279.77-.263.33-.263 7.456 0 6.02.004 6.442.072 6.773.223 1.094.826 1.987 1.746 2.582.418.269.858.445 1.389.553.331.068.753.072 6.773.072s6.442-.004 6.773-.072c1.094-.223 1.987-.826 2.582-1.746.269-.418.445-.858.553-1.389.068-.331.072-.753.072-6.773s-.004-6.442-.072-6.773c-.289-1.42-1.291-2.57-2.618-3.005-.611-.2-.432-.195-7.05-.203a802.572 802.572 0 0 0-6.34.006m5.278 2.328C11.022 4.954 11 5.362 11 7.709c0 2.401.019 2.714.194 3.239l.11.329-1.652 1.651L8 14.58v-1.363c0-1.556-.012-1.631-.299-1.918a.984.984 0 0 0-1.402 0C5.991 11.606 6 11.514 6 14.5s-.009 2.894.299 3.201c.307.308.215.299 3.201.299s2.894.009 3.201-.299a.984.984 0 0 0 0-1.402c-.287-.287-.362-.299-1.918-.299H9.42l1.654-1.654 1.653-1.653.264.095c.524.19.851.212 3.281.212 2.367 0 2.773-.021 3.375-.178l.353-.091v2.224c0 2.314-.038 3.306-.139 3.696-.142.544-.638 1.05-1.181 1.206-.442.126-1.17.142-6.68.142s-6.238-.016-6.68-.142c-.543-.156-1.039-.662-1.181-1.206C4.022 18.2 4 17.167 4 12c0-5.172.022-6.2.14-6.652.145-.56.658-1.067 1.224-1.212.386-.099 1.064-.124 3.561-.13L11.269 4l-.091.353m6.623-.313c.341.022.724.067.851.1.553.144 1.065.656 1.209 1.209.033.127.077.509.099.85.05.782.051 3.154.001 3.751-.033.403-.049.467-.158.626-.175.254-.338.34-.73.385-.435.05-4.714.05-5.15 0-.386-.045-.56-.137-.735-.389-.161-.233-.185-.637-.185-3.072 0-2.409.025-2.841.179-3.063.179-.258.378-.36.773-.395.516-.046 3.135-.047 3.846-.002" fill="#667085" fill-rule="evenodd"/></svg>