<svg width="24" height="24" fill="none" xmlns="http://www.w3.org/2000/svg"><path d="M11.3 1.577A3.516 3.516 0 0 0 8.796 3.75L8.7 4H6.275c-2.631 0-2.608-.002-2.901.222a1.19 1.19 0 0 0-.243.289c-.095.161-.111.233-.111.489s.016.328.111.489c.061.103.17.234.243.289.293.224.271.222 2.901.223H8.7l.094.25c.229.606.743 1.238 1.303 1.604.306.2.76.425.858.425.033 0 .045 1.613.045 6.12v6.12H7.373c-3.595 0-3.629.001-3.8.083-.215.105-.464.383-.526.589a.958.958 0 0 0 .222.969c.335.373-.551.339 8.731.339 8.997 0 8.348.019 8.648-.252.242-.219.33-.417.33-.748 0-.329-.09-.534-.323-.739-.289-.254-.07-.241-4.034-.241H13v-6.11l.001-6.11.269-.109a3.452 3.452 0 0 0 1.583-1.285c.202-.308.427-.763.427-.861 0-.033.657-.045 2.433-.045 2.748 0 2.683.007 2.988-.299.18-.18.299-.459.299-.701 0-.242-.119-.521-.299-.701C20.396 3.994 20.46 4 17.723 4H15.3l-.096-.25a3.51 3.51 0 0 0-2.164-2.074c-.343-.116-.434-.13-.94-.142-.377-.008-.639.006-.8.043m1.359 2.081c.301.147.536.382.684.684.107.217.117.275.117.658s-.01.441-.117.658c-.547 1.115-2.174 1.109-2.696-.01-.137-.295-.169-.82-.069-1.122.141-.425.431-.734.855-.913.196-.083.279-.094.608-.083.325.01.417.029.618.128m-7.61 3.965a1.105 1.105 0 0 0-.321.25c-.211.273-3.223 4.945-3.353 5.201-.071.14-.168.4-.216.579-.125.464-.1 1.177.06 1.667.662 2.035 2.644 3.369 4.693 3.159a4.389 4.389 0 0 0 2.641-1.216 4.628 4.628 0 0 0 1.212-1.906c.111-.325.131-.447.146-.879.021-.581-.05-.919-.292-1.399-.136-.271-3.122-4.915-3.347-5.206-.166-.214-.469-.353-.772-.353a.892.892 0 0 0-.451.103m13 0a1.105 1.105 0 0 0-.321.25c-.13.168-3.141 4.813-3.297 5.087a4.072 4.072 0 0 0-.216.48c-.106.282-.113.337-.113.92.001.574.009.645.114.96.684 2.049 2.647 3.369 4.696 3.159a4.389 4.389 0 0 0 2.641-1.216 4.628 4.628 0 0 0 1.212-1.906c.111-.325.131-.447.146-.879.021-.581-.05-.919-.292-1.399-.136-.271-3.122-4.915-3.347-5.206-.166-.214-.469-.353-.772-.353a.892.892 0 0 0-.451.103M6.196 11.417c.376.582.684 1.068.684 1.08 0 .013-.621.023-1.38.023-.759 0-1.38-.012-1.38-.026 0-.029 1.361-2.134 1.38-2.134.006 0 .32.476.696 1.057m13 0c.376.582.684 1.068.684 1.08 0 .013-.621.023-1.38.023-.759 0-1.38-.012-1.38-.026 0-.029 1.361-2.134 1.38-2.134.006 0 .32.476.696 1.057M7.902 14.63c-.05.21-.3.694-.48.927a2.912 2.912 0 0 1-.821.682c-.654.333-1.548.333-2.202 0a2.912 2.912 0 0 1-.821-.682c-.18-.233-.43-.717-.48-.927l-.027-.11h4.858l-.027.11m13 0c-.05.21-.3.694-.48.927a2.912 2.912 0 0 1-.821.682c-.654.333-1.548.333-2.202 0a2.912 2.912 0 0 1-.821-.682c-.18-.233-.43-.717-.48-.927l-.027-.11h4.858l-.027.11" fill="#667085" fill-rule="evenodd"/></svg>