<svg width="24" height="24" fill="none" xmlns="http://www.w3.org/2000/svg"><path d="M11.643 2.069a1.118 1.118 0 0 0-.343.229c-.303.303-.3.273-.3 2.706v2.149l-.27.045c-3.014.505-4.94.843-5.06.89a.587.587 0 0 0-.2.119c-.028.033-.107.1-.178.148-.098.067-.551.828-1.984 3.336-2.056 3.597-2.062 3.608-2.194 4.03-.087.276-.094.364-.091 1.159.003.834.007.875.13 1.34a5.088 5.088 0 0 0 3.633 3.629c.449.118.513.125 1.214.125s.765-.007 1.214-.125a5.248 5.248 0 0 0 2.231-1.239c.642-.606 1.168-1.502 1.402-2.39.123-.465.127-.506.13-1.34.003-.795-.004-.883-.091-1.158-.131-.418-.184-.517-1.821-3.381-.805-1.407-1.45-2.57-1.434-2.584.045-.039 8.366-1.413 8.393-1.386.014.013-.56 1.047-1.274 2.297-1.464 2.561-1.507 2.64-1.636 3.053-.087.276-.094.364-.091 1.159.003.834.007.875.13 1.34a5.088 5.088 0 0 0 3.633 3.629c.449.118.513.125 1.214.125s.765-.007 1.214-.125a5.248 5.248 0 0 0 2.231-1.239c.642-.606 1.168-1.502 1.402-2.39.123-.465.127-.506.13-1.34.003-.795-.004-.883-.091-1.159-.132-.42-.144-.442-2.096-3.861-1.971-3.452-1.943-3.405-2.14-3.596-.12-.117-.163-.136-.266-.116a.923.923 0 0 0-.192.058c-.041.021-.077.018-.094-.009a.584.584 0 0 0-.142-.114c-.113-.069-.163-.062-2.466.323-1.292.216-2.382.393-2.42.393-.066.001-.07-.119-.07-1.972 0-2.235.001-2.228-.299-2.528a.998.998 0 0 0-1.058-.23m7.504 8.952L20.274 13h-4.548l1.127-1.979c.62-1.088 1.136-1.978 1.147-1.978.011 0 .527.89 1.147 1.978m-12 2L8.274 15H3.726l1.127-1.979c.62-1.088 1.136-1.978 1.147-1.978.011 0 .527.89 1.147 1.978m13.837 2.249a3.018 3.018 0 0 1-2.224 2.636c-.359.098-1.161.098-1.52 0a3.018 3.018 0 0 1-2.224-2.636l-.027-.27h6.022l-.027.27m-12 2a3.018 3.018 0 0 1-2.224 2.636c-.359.098-1.161.098-1.52 0a3.018 3.018 0 0 1-2.224-2.636L2.989 17h6.022l-.027.27" fill="#667085" fill-rule="evenodd"/></svg>