<svg width="24" height="24" fill="none" xmlns="http://www.w3.org/2000/svg"><path d="M5.88 2.025c-1.032.102-1.513.258-2.18.708-.558.375-1.146 1.113-1.392 1.744-.238.612-.274.895-.297 2.329-.023 1.507-.01 1.597.287 1.894a.984.984 0 0 0 1.403.001C3.956 8.446 4 8.267 4 7.483c0-.866.064-1.845.139-2.134.145-.554.659-1.068 1.21-1.209.463-.119 1.415-.139 6.651-.139 5.231 0 6.188.02 6.649.138.553.142 1.067.655 1.211 1.209.118.452.14 1.48.14 6.652 0 5.167-.022 6.2-.139 6.651-.142.544-.638 1.05-1.181 1.206-.313.089-1.049.142-2.003.142-.959.001-1.112.034-1.378.3a.984.984 0 0 0 .001 1.403c.297.297.387.31 1.894.287 1.101-.018 1.363-.033 1.666-.1a3.79 3.79 0 0 0 1.323-.548c.903-.588 1.504-1.484 1.725-2.568.068-.331.072-.753.072-6.773 0-6.016-.005-6.442-.072-6.772-.339-1.666-1.559-2.859-3.228-3.154-.187-.033-1.998-.048-6.46-.054-3.41-.005-6.263-.002-6.34.005m5.763 4.044C11.291 6.193 11 6.614 11 7c0 .396.291.808.66.934.166.056.393.066 1.557.066h1.363l-1.654 1.654-1.654 1.654-.326-.112a3.671 3.671 0 0 0-.74-.154c-.553-.056-5.118-.056-5.567 0-1.366.171-2.405 1.186-2.598 2.538-.052.371-.052 5.469 0 5.84a2.976 2.976 0 0 0 2.547 2.539c.359.052 5.465.052 5.824 0a2.976 2.976 0 0 0 2.547-2.539c.054-.384.054-5.262-.001-5.701a4.289 4.289 0 0 0-.152-.667l-.11-.329 1.652-1.651L16 9.42v1.363c0 1.556.012 1.631.299 1.918a.984.984 0 0 0 1.403-.001c.311-.311.302-.214.289-3.264L17.98 6.74l-.094-.19a.982.982 0 0 0-.561-.489c-.271-.092-5.418-.085-5.682.008M9.996 13.04c.698.063.901.266.964.964.048.537.049 4.45 0 4.986-.032.359-.052.433-.158.587-.174.253-.337.339-.729.384-.183.021-1.341.038-2.573.038s-2.39-.017-2.573-.038c-.392-.045-.555-.131-.73-.385-.109-.159-.125-.223-.158-.626-.049-.583-.049-4.315-.001-4.897.032-.38.053-.472.143-.607.18-.273.36-.368.766-.404.507-.045 4.555-.046 5.049-.002" fill="#667085" fill-rule="evenodd"/></svg>