<svg width="24" height="24" fill="none" xmlns="http://www.w3.org/2000/svg"><path d="M5.9 2.026c-.088.007-.322.033-.52.058-1.629.205-2.965 1.478-3.284 3.129-.046.237-.069.68-.084 1.613-.024 1.486-.01 1.578.286 1.874a.984.984 0 0 0 1.403.001C3.956 8.446 4 8.267 4 7.483c0-.866.064-1.845.139-2.134.144-.553.656-1.065 1.209-1.209C5.637 4.064 6.615 4 7.483 4c.784 0 .963-.044 1.218-.299a.984.984 0 0 0-.004-1.406c-.271-.271-.41-.296-1.614-.288-.563.003-1.095.012-1.183.019m9.765.033a1.025 1.025 0 0 0-.665.938c.001.387.209.718.575.913.104.055.318.071 1.274.096 1.35.035 1.721.077 2.051.23.464.216.852.68.966 1.155.058.245.131 1.507.134 2.329.001.415.016.531.083.68.157.346.44.55.818.589.399.041.76-.154.963-.519l.116-.21L21.979 7c0-1.359-.032-1.703-.207-2.259a3.915 3.915 0 0 0-1.989-2.31c-.654-.329-1.365-.431-2.983-.429-.729.001-1.02.016-1.135.057M2.643 11.066C2.288 11.197 2 11.615 2 12c0 .575.526 1.048 1.1.988 1.009-.104 1.237-1.424.327-1.895-.178-.092-.57-.105-.784-.027m4.597-.031a1.074 1.074 0 0 0-.488.317.97.97 0 0 0 .062 1.359c.659.607 1.68.175 1.68-.711a.949.949 0 0 0-.551-.888c-.172-.088-.545-.129-.703-.077m4.43.02a1.054 1.054 0 0 0-.539.456c-.095.162-.111.233-.111.492 0 .268.014.326.121.5a.999.999 0 0 0 1.716.004c.387-.63-.043-1.445-.789-1.492a1.046 1.046 0 0 0-.398.04m4.57-.02a1.056 1.056 0 0 0-.702.707c-.107.369-.001.718.302.991.313.281.695.343 1.06.173.263-.123.48-.368.558-.631.077-.259.077-.291 0-.55a1.086 1.086 0 0 0-.512-.612c-.175-.089-.547-.13-.706-.078m4.425.024c-.812.289-.894 1.435-.13 1.828.651.335 1.465-.158 1.465-.887 0-.671-.703-1.167-1.335-.941m-18.022 4.01c-.245.086-.496.349-.582.609-.063.189-.068.342-.049 1.496.016.924.039 1.378.084 1.613a3.94 3.94 0 0 0 3.044 3.102c.303.067.565.082 1.666.1 1.507.023 1.597.01 1.894-.287a.983.983 0 0 0-.003-1.407c-.258-.258-.432-.295-1.394-.296-.935 0-1.672-.053-1.983-.142-.543-.156-1.039-.662-1.181-1.206C4.064 18.362 4 17.383 4 16.517c0-.784-.044-.963-.299-1.218a.998.998 0 0 0-1.058-.23m18.022-.013a1.029 1.029 0 0 0-.555.503c-.103.201-.11.249-.111.718-.001.809-.074 2.084-.133 2.329-.134.563-.635 1.09-1.187 1.25-.31.09-1.045.143-1.999.144-.451 0-.887.019-.969.042-.396.11-.711.535-.711.958 0 .423.315.848.711.958.195.054 2.135.054 2.641 0 1.009-.107 1.773-.457 2.442-1.116.596-.586.951-1.261 1.111-2.112.077-.408.124-2.718.061-2.951a1.026 1.026 0 0 0-.482-.633c-.254-.138-.59-.175-.819-.09" fill="#667085" fill-rule="evenodd"/></svg>