<svg width="24" height="24" fill="none" xmlns="http://www.w3.org/2000/svg"><path d="M5.42 2.041c-2.008.31-3.505 2.12-3.407 4.119.035.719.242 1.351.631 1.927.212.314.659.783.976 1.024.132.1.285.229.34.287.055.057 1.018.57 2.14 1.138 1.122.569 2.226 1.133 2.453 1.254l.413.22-2.472 1.257c-1.573.8-2.509 1.298-2.573 1.37a2.27 2.27 0 0 1-.301.254c-.27.192-.768.712-.976 1.022a3.822 3.822 0 0 0-.436 3.345c.571 1.683 2.207 2.812 3.952 2.73a3.67 3.67 0 0 0 1.58-.406 3.89 3.89 0 0 0 1.842-1.842c.309-.63.397-1.014.396-1.74-.001-.483-.016-.637-.094-.92a4.277 4.277 0 0 0-.577-1.238c-.227-.321-.697-.798-.977-.991-.116-.08-.198-.158-.181-.174a65.17 65.17 0 0 1 1.531-.791l1.5-.763 4.6 2.345c2.53 1.29 4.699 2.387 4.82 2.438.398.167.805.091 1.101-.205a.977.977 0 0 0-.001-1.398c-.132-.129-1.021-.596-4.23-2.223-2.235-1.133-4.05-2.074-4.035-2.09.016-.017 1.837-.95 4.047-2.074 2.21-1.124 4.081-2.093 4.158-2.154.338-.267.446-.819.238-1.223-.198-.384-.659-.603-1.069-.508-.104.024-2.312 1.124-4.907 2.445l-4.718 2.403-.922-.465c-.507-.255-1.197-.608-1.534-.783l-.612-.319.212-.157c.533-.395 1.061-1.027 1.317-1.574a3.846 3.846 0 0 0 .277-2.34A3.968 3.968 0 0 0 7.74 2.418a4.627 4.627 0 0 0-.78-.298c-.392-.095-1.176-.135-1.54-.079m.963 2.002c.573.105 1.152.547 1.41 1.077.553 1.137-.098 2.531-1.317 2.818-.716.169-1.425-.039-1.915-.563-.754-.806-.739-2.004.035-2.779.489-.488 1.102-.678 1.787-.553m0 12c.573.105 1.152.547 1.41 1.077.553 1.137-.098 2.531-1.317 2.818-.716.169-1.425-.039-1.915-.563-.754-.806-.739-2.004.035-2.779.489-.488 1.102-.678 1.787-.553" fill="#667085" fill-rule="evenodd"/></svg>