<svg width="24" height="24" fill="none" xmlns="http://www.w3.org/2000/svg"><path d="M6.06 2.025c-.939.142-1.645.469-2.272 1.055-.917.857-1.402 2.114-1.271 3.294.191 1.711 1.351 3.054 3.036 3.515.247.067.425.084.907.085.543.001.634-.009.96-.109.198-.06.521-.19.719-.288l.359-.179 1.301 1.301L11.1 12l-1.302 1.302-1.302 1.302-.418-.202c-.616-.298-.942-.374-1.598-.374a3.922 3.922 0 0 0-.83.065 4.083 4.083 0 0 0-2.724 2.129 3.959 3.959 0 0 0 .84 4.678c1.317 1.242 3.237 1.449 4.801.516.379-.226 1.019-.834 1.244-1.18.514-.793.755-1.709.668-2.546-.045-.437-.152-.793-.39-1.303l-.183-.392 1.277-1.278c.702-.702 1.295-1.277 1.317-1.277.022 0 1.696 1.658 3.72 3.684 2.955 2.959 3.719 3.703 3.88 3.78.386.184.842.084 1.145-.252a.927.927 0 0 0 .249-.652c0-.415.173-.224-3.848-4.25L13.901 12l3.745-3.75c4.021-4.026 3.848-3.835 3.848-4.25 0-.371-.211-.712-.551-.892-.228-.12-.659-.12-.883.001-.094.05-1.676 1.603-3.84 3.768-2.024 2.026-3.698 3.683-3.72 3.683-.022 0-.615-.575-1.317-1.277L9.906 8.005l.183-.392c.238-.509.345-.866.39-1.301.087-.842-.152-1.755-.669-2.548a4.826 4.826 0 0 0-.508-.586A3.891 3.891 0 0 0 7.35 2.097c-.292-.063-1.067-.106-1.29-.072m.825 2.016c.279.052.73.27.942.455.724.63.872 1.808.33 2.619-.784 1.174-2.53 1.174-3.314 0a2.057 2.057 0 0 1 0-2.23c.209-.314.428-.502.779-.671a1.926 1.926 0 0 1 1.263-.173m0 12c.279.052.73.27.942.455.724.63.872 1.808.33 2.619-.784 1.174-2.53 1.174-3.314 0a2.057 2.057 0 0 1 0-2.23c.209-.314.428-.502.779-.671a1.926 1.926 0 0 1 1.263-.173" fill="#667085" fill-rule="evenodd"/></svg>