<svg width="24" height="24" fill="none" xmlns="http://www.w3.org/2000/svg"><path d="M4.834 2.059c-.439.072-.98.274-1.404.525-.461.274-1.1.916-1.375 1.384-.425.725-.628 1.645-.536 2.442.192 1.676 1.365 3.022 3.034 3.479.248.068.422.084.907.084.537.001.637-.01.951-.106.193-.059.516-.19.716-.291l.366-.183 1.303 1.303L10.1 12l-1.302 1.302-1.301 1.301-.422-.201a4.963 4.963 0 0 0-.738-.283c-.94-.242-1.999-.072-2.907.465-.461.274-1.1.916-1.375 1.384-.425.725-.628 1.645-.536 2.442.192 1.676 1.366 3.022 3.034 3.479.463.127 1.416.126 1.886-.002.762-.207 1.332-.532 1.864-1.064a4.012 4.012 0 0 0 1.059-1.803c.125-.454.152-1.261.058-1.688a4.686 4.686 0 0 0-.419-1.116l-.114-.203 1.287-1.287c.707-.707 1.304-1.286 1.326-1.286.021 0 1.722 1.681 3.78 3.734 3.513 3.509 3.752 3.738 3.931 3.786a1.03 1.03 0 0 0 1.209-.586c.078-.187.077-.564-.003-.759-.047-.114-1.054-1.146-3.79-3.885L12.901 12l3.726-3.73c2.736-2.739 3.743-3.771 3.79-3.885.08-.195.081-.572.003-.759a1.145 1.145 0 0 0-.476-.517c-.229-.121-.66-.121-.884 0-.094.05-1.684 1.611-3.86 3.788L11.5 10.6l-1.307-1.307-1.306-1.306.114-.203c.166-.299.34-.76.419-1.116.094-.427.067-1.234-.058-1.688-.383-1.392-1.495-2.493-2.874-2.845a4.504 4.504 0 0 0-1.654-.076m1.122 2.003c.91.214 1.523.995 1.523 1.938 0 .94-.592 1.702-1.507 1.94-.899.235-1.859-.222-2.275-1.08-.146-.302-.156-.345-.17-.767-.013-.379-.002-.487.071-.708.18-.541.518-.927 1.024-1.171.45-.216.863-.264 1.334-.152m10.709 6.994a1.06 1.06 0 0 0-.558.508c-.099.187-.112.251-.099.481.053.985 1.33 1.304 1.849.462.387-.63-.043-1.445-.789-1.492a1.059 1.059 0 0 0-.403.041m4.575-.021a1.056 1.056 0 0 0-.702.707c-.107.369-.001.718.302.991.608.546 1.504.21 1.661-.623.064-.342-.2-.816-.555-.997-.175-.089-.547-.13-.706-.078M5.956 16.062c.91.214 1.523.995 1.523 1.938 0 .94-.592 1.702-1.507 1.94-.899.235-1.859-.222-2.275-1.08-.146-.302-.156-.345-.17-.767-.013-.379-.002-.487.071-.708.18-.541.518-.927 1.024-1.171.45-.216.863-.264 1.334-.152" fill="#667085" fill-rule="evenodd"/></svg>