<svg width="24" height="24" fill="none" xmlns="http://www.w3.org/2000/svg"><path d="M4.834 2.059c-.814.133-1.521.508-2.154 1.141-.681.681-1.053 1.447-1.162 2.391-.148 1.295.426 2.603 1.516 3.457.146.114.339.272.427.35.099.087 1.098.616 2.569 1.362 1.325.671 2.408 1.229 2.408 1.24.001.011-1.092.576-2.429 1.255-1.398.711-2.488 1.289-2.569 1.363-.077.07-.26.221-.406.335-1.088.848-1.664 2.161-1.516 3.456.193 1.677 1.366 3.023 3.035 3.48.463.127 1.416.126 1.886-.002.762-.207 1.332-.532 1.864-1.064A3.996 3.996 0 0 0 9.367 19c.08-.292.093-.433.093-1-.001-.57-.013-.703-.093-.98a4.037 4.037 0 0 0-1.455-2.101l-.31-.233 1.536-.781 1.535-.782 4.674 2.379c2.57 1.308 4.75 2.408 4.843 2.444.45.172 1.032-.099 1.23-.572.072-.173.078-.486.012-.704-.114-.381-.038-.337-4.442-2.576-2.238-1.139-4.07-2.08-4.07-2.092 0-.012 1.839-.958 4.085-2.102 3.578-1.821 4.104-2.101 4.233-2.248a.99.99 0 0 0-.004-1.313c-.199-.226-.407-.316-.734-.318l-.28-.001-4.773 2.431-4.773 2.431-1.538-.784-1.537-.784.244-.18c.859-.632 1.428-1.526 1.6-2.516.069-.395.027-1.246-.081-1.638-.383-1.392-1.495-2.493-2.874-2.845a4.504 4.504 0 0 0-1.654-.076m1.122 2.003c.91.214 1.523.995 1.523 1.938 0 .94-.592 1.702-1.507 1.94-.899.235-1.859-.222-2.275-1.08-.146-.302-.156-.345-.17-.767-.013-.379-.002-.487.071-.708.18-.541.518-.927 1.024-1.171.45-.216.863-.264 1.334-.152m10.709 6.994a1.06 1.06 0 0 0-.558.508c-.099.187-.112.251-.099.481.053.985 1.33 1.304 1.849.462.387-.63-.043-1.445-.789-1.492a1.059 1.059 0 0 0-.403.041m4.575-.021a1.056 1.056 0 0 0-.702.707c-.107.369-.001.718.302.991.608.546 1.504.21 1.661-.623.064-.342-.2-.816-.555-.997-.175-.089-.547-.13-.706-.078M5.956 16.062c.91.214 1.523.995 1.523 1.938 0 .94-.592 1.702-1.507 1.94-.899.235-1.859-.222-2.275-1.08-.146-.302-.156-.345-.17-.767-.013-.379-.002-.487.071-.708.18-.541.518-.927 1.024-1.171.45-.216.863-.264 1.334-.152" fill="#667085" fill-rule="evenodd"/></svg>