<svg width="24" height="24" fill="none" xmlns="http://www.w3.org/2000/svg"><path d="m10.84 2.023-.52.06c-1.717.196-3.541.992-4.92 2.148-2.224 1.865-3.482 4.661-3.387 7.529.013.385.053.889.088 1.12.644 4.177 3.847 7.367 8.059 8.026.629.099 2.047.099 2.62 0 1.567-.269 3.02-.916 4.354-1.937l.233-.179 1.547 1.539c1.379 1.374 1.567 1.547 1.743 1.606.389.129.766.044 1.044-.234s.363-.655.234-1.044c-.059-.176-.232-.364-1.606-1.743l-1.539-1.547.179-.233c1.021-1.334 1.668-2.787 1.937-4.354.099-.573.099-1.991 0-2.62a9.712 9.712 0 0 0-2.137-4.76 9.574 9.574 0 0 0-5.949-3.303c-.391-.057-1.702-.106-1.98-.074m1.366 2.018c2.672.265 4.946 1.859 6.077 4.259 1.227 2.607.829 5.771-1.005 7.98a7.525 7.525 0 0 1-8.147 2.338 7.502 7.502 0 0 1-4.953-5.514C3.64 10.586 4.396 8 6.198 6.198a7.474 7.474 0 0 1 6.008-2.157" fill="#667085" fill-rule="evenodd"/></svg>