<svg width="24" height="24" fill="none" xmlns="http://www.w3.org/2000/svg"><path d="M9.42 2.023c-.066.009-.291.037-.5.061-.524.06-1.35.277-1.889.497-3.933 1.605-5.941 5.901-4.63 9.905a8.147 8.147 0 0 0 3.41 4.324 7.983 7.983 0 0 0 4.447 1.178 6.526 6.526 0 0 0 1.668-.266c.83-.233 1.828-.728 2.599-1.289l.282-.205 2.827 2.821c2.572 2.567 2.844 2.827 3.023 2.886.39.129.766.044 1.044-.234s.363-.654.234-1.044c-.059-.179-.319-.451-2.886-3.023l-2.821-2.827.205-.282c.343-.47.755-1.195.969-1.702.614-1.454.751-2.919.42-4.486-.682-3.221-3.342-5.734-6.602-6.238-.39-.06-1.561-.11-1.8-.076m1.744 2.094c2.422.483 4.273 2.36 4.738 4.803.101.528.101 1.632 0 2.16-.423 2.224-2.017 4.014-4.143 4.654-.691.208-.967.246-1.779.243-.836-.002-1.192-.058-1.904-.296a5.966 5.966 0 0 1-3.77-3.803c-.221-.681-.282-1.083-.282-1.878 0-1.01.173-1.791.582-2.627.921-1.886 2.658-3.089 4.834-3.349.313-.038 1.353.018 1.724.093" fill="#667085" fill-rule="evenodd"/></svg>