<svg width="24" height="24" fill="none" xmlns="http://www.w3.org/2000/svg"><path d="M20.66 1.467c-.353.108-18.028 7.013-18.365 7.174-.589.283-.9.744-.901 1.338-.002.617.292 1.073.875 1.361.127.063 1.858.748 3.846 1.523l3.615 1.408 1.397 3.595c.769 1.976 1.462 3.725 1.54 3.885.274.557.746.858 1.342.856.606-.003 1.059-.305 1.35-.901.178-.363 6.943-17.678 7.13-18.246.247-.754.081-1.37-.48-1.783a1.55 1.55 0 0 0-1.349-.21m-6.584 7.037-3.823 3.823L7.356 11.2 4.36 10.034c-.085-.034.856-.412 6.7-2.695 3.74-1.46 6.809-2.656 6.82-2.657.011-.001-1.701 1.719-3.804 3.822m5.169-2.194c-3.925 10.062-5.222 13.37-5.241 13.37-.013 0-.543-1.336-1.177-2.968l-1.152-2.967 3.812-3.812c2.097-2.097 3.817-3.813 3.822-3.813.006 0-.024.085-.064.19" fill="#667085" fill-rule="evenodd"/></svg>