<svg width="24" height="24" fill="none" xmlns="http://www.w3.org/2000/svg"><path d="M2.559 2.501c-.457.141-.86.576-.987 1.066-.06.234-.063.305-.019.56.027.161.619 2.003 1.315 4.093l1.265 3.8-1.264 3.8c-.696 2.09-1.286 3.913-1.312 4.051-.084.441.064.901.399 1.245.425.436.985.552 1.608.334.593-.207 17.956-8.045 18.24-8.233.445-.295.653-.681.654-1.217.001-.299-.014-.372-.125-.606-.158-.335-.369-.542-.763-.746-.517-.268-17.894-8.074-18.127-8.143a1.72 1.72 0 0 0-.884-.004m9.31 5.951c4.317 1.94 7.849 3.537 7.85 3.548.001.03-15.8 7.132-15.821 7.111-.014-.013 1.62-4.941 1.963-5.92l.066-.189 2.526-.011c2.502-.011 2.529-.012 2.687-.097a1.01 1.01 0 0 0 .539-.897c.002-.42-.315-.845-.71-.955C10.874 11.015 9.931 11 8.36 11H5.899l-.986-2.97c-1.174-3.534-1.061-3.169-.968-3.134.041.015 3.607 1.616 7.924 3.556" fill="#667085" fill-rule="evenodd"/></svg>