<svg width="24" height="24" fill="none" xmlns="http://www.w3.org/2000/svg"><path d="M11.72 1.576a1.444 1.444 0 0 0-.972.714c-.16.273-8.058 17.75-8.193 18.13-.202.569-.135 1.065.203 1.493.321.406.852.616 1.352.535.149-.024 1.99-.614 4.092-1.311l3.822-1.269 3.798 1.264c2.089.695 3.911 1.285 4.049 1.311.441.084.901-.064 1.245-.399.419-.408.548-.982.352-1.564-.097-.288-7.771-17.45-8.056-18.015-.261-.519-.643-.823-1.133-.902-.303-.049-.277-.05-.559.013m3.881 10.637c1.94 4.329 3.519 7.88 3.51 7.889-.014.014-5.369-1.762-5.98-1.983l-.13-.046-.01-3.267c-.01-3.05-.016-3.276-.083-3.41-.259-.52-.884-.727-1.378-.458a1.174 1.174 0 0 0-.312.248c-.224.294-.218.194-.218 3.69v3.225l-3.043 1.013c-1.674.557-3.052 1.004-3.062.994-.011-.01 1.588-3.575 3.553-7.922 1.964-4.346 3.584-7.89 3.599-7.874.015.015 1.614 3.571 3.554 7.901" fill="#667085" fill-rule="evenodd"/></svg>