<svg width="24" height="24" fill="none" xmlns="http://www.w3.org/2000/svg"><path d="M5.34 3.046c-.701.089-1.483.389-2.121.814C1.456 5.033.615 7.267 1.182 9.271c.133.472.479 1.156.792 1.569.249.329.675.765 1.006 1.03l.16.128-.18.15c-1.11.924-1.756 2.024-1.924 3.281-.196 1.469.408 3.133 1.519 4.181a5.3 5.3 0 0 0 2.231 1.242l.474.128h13.48l.48-.13c2.138-.578 3.664-2.436 3.768-4.59a4.467 4.467 0 0 0-.486-2.32c-.332-.67-.793-1.235-1.462-1.792l-.18-.15.16-.128c1.931-1.548 2.509-3.938 1.463-6.05a5 5 0 0 0-3.891-2.779c-.412-.051-12.844-.047-13.252.005m13.44 2.048c1.051.315 1.845 1.116 2.125 2.146.097.359.097 1.161 0 1.52a3.074 3.074 0 0 1-2.145 2.147c-.247.069-.592.073-6.76.073s-6.513-.004-6.76-.073A3.074 3.074 0 0 1 3.095 8.76c-.097-.359-.097-1.161 0-1.52.309-1.135 1.257-2.004 2.395-2.196.117-.02 3.043-.032 6.63-.029 6.052.007 6.434.011 6.66.079M5.643 7.066C5.288 7.197 5 7.615 5 8c0 .575.526 1.048 1.1.988 1.009-.104 1.237-1.424.327-1.895-.178-.092-.57-.105-.784-.027m13.137 6.028c1.051.315 1.845 1.116 2.125 2.146.097.359.097 1.161 0 1.52a3.074 3.074 0 0 1-2.145 2.147c-.247.069-.592.073-6.76.073s-6.513-.004-6.76-.073a3.074 3.074 0 0 1-2.145-2.147c-.097-.359-.097-1.161 0-1.52.309-1.135 1.257-2.004 2.395-2.196.117-.02 3.043-.032 6.63-.029 6.052.007 6.434.011 6.66.079M5.643 15.066C5.288 15.197 5 15.615 5 16c0 .575.526 1.048 1.1.988 1.009-.104 1.237-1.424.327-1.895-.178-.092-.57-.105-.784-.027" fill="#667085" fill-rule="evenodd"/></svg>