<svg width="24" height="24" fill="none" xmlns="http://www.w3.org/2000/svg"><path d="M3.61 1.044c-1.319.155-2.378 1.202-2.569 2.536-.022.158-.039 1.211-.039 2.42 0 1.209.017 2.262.039 2.42a2.976 2.976 0 0 0 2.539 2.539c.403.057 16.431.055 16.845-.002a2.977 2.977 0 0 0 2.534-2.537c.022-.158.039-1.211.039-2.42 0-1.209-.017-2.262-.039-2.42-.173-1.215-1.022-2.155-2.246-2.488-.235-.065-.829-.07-8.533-.076-4.554-.004-8.41.009-8.57.028m16.378 1.995c.468.043.649.131.831.407.09.135.111.227.143.607.048.58.048 3.315-.001 3.897-.033.403-.049.467-.158.626-.175.254-.338.34-.73.385-.45.052-15.699.052-16.15 0-.386-.045-.56-.137-.735-.389-.155-.224-.185-.642-.185-2.572 0-1.892.031-2.347.176-2.566.171-.258.362-.356.768-.392.506-.044 15.546-.047 16.041-.003M5.643 5.066C5.288 5.197 5 5.615 5 6c0 .575.526 1.048 1.1.988 1.009-.104 1.237-1.424.327-1.895-.178-.092-.57-.105-.784-.027M3.61 13.044c-1.319.155-2.378 1.202-2.569 2.536-.022.158-.039 1.211-.039 2.42 0 1.209.017 2.262.039 2.42a2.976 2.976 0 0 0 2.539 2.539c.403.057 16.431.055 16.845-.002a2.977 2.977 0 0 0 2.534-2.537c.022-.158.039-1.211.039-2.42 0-1.209-.017-2.262-.039-2.42-.173-1.215-1.022-2.155-2.246-2.488-.235-.065-.829-.07-8.533-.076-4.554-.004-8.41.009-8.57.028m16.378 1.995c.468.043.649.131.831.407.09.135.111.227.143.607.048.58.048 3.315-.001 3.897-.033.403-.049.467-.158.626-.175.254-.338.34-.73.385-.45.052-15.699.052-16.15 0-.386-.045-.56-.137-.735-.389-.155-.224-.185-.642-.185-2.572 0-1.892.031-2.347.176-2.566.171-.258.362-.356.768-.392.506-.044 15.546-.047 16.041-.003M5.643 17.066C5.288 17.197 5 17.615 5 18c0 .575.526 1.048 1.1.988 1.009-.104 1.237-1.424.327-1.895-.178-.092-.57-.105-.784-.027" fill="#667085" fill-rule="evenodd"/></svg>