<svg width="24" height="24" fill="none" xmlns="http://www.w3.org/2000/svg"><path d="m11.42 1.025-.5.059c-.813.093-1.896.442-2.679.864-3.605 1.94-5.179 6.234-3.661 9.987.707 1.749 2.143 3.257 3.909 4.104a8.67 8.67 0 0 0 2.361.739l.15.026v.308l-.001.308-.232.108a2.68 2.68 0 0 0-1.214 1.195l-.133.272-3.283.002c-3.697.003-3.526-.01-3.838.302a.984.984 0 0 0 0 1.402c.312.312.14.299 3.84.299h3.285l.047.13c.181.496.718 1.158 1.192 1.469.43.281.776.38 1.337.38.4 0 .503-.014.787-.112a2.76 2.76 0 0 0 1.11-.753c.231-.254.543-.74.632-.984l.047-.13h3.285c3.7 0 3.528.013 3.84-.299.18-.18.299-.459.299-.701 0-.242-.119-.521-.299-.701-.312-.312-.141-.299-3.838-.302l-3.283-.002-.133-.272a2.68 2.68 0 0 0-1.214-1.195l-.232-.108-.001-.308v-.308l.15-.026c1.832-.312 3.34-1.076 4.585-2.323 1.393-1.396 2.23-3.322 2.239-5.155a8.836 8.836 0 0 0-.839-3.738 7.898 7.898 0 0 0-5.335-4.28c-.71-.167-1.998-.306-2.38-.257m-1.5 2.431c0 .009-.065.131-.145.27-.079.14-.248.479-.374.754-.516 1.121-.779 2.021-.982 3.35L8.393 8H6.198l.026-.11c.322-1.417.832-2.36 1.749-3.237.442-.422.88-.725 1.463-1.01.391-.19.484-.226.484-.187m4.7.214a5.794 5.794 0 0 1 2.495 2.386c.302.546.482 1.045.661 1.834l.026.11h-2.197l-.025-.19c-.18-1.352-.71-2.951-1.355-4.084a2.604 2.604 0 0 1-.145-.273c0-.035.179.037.54.217m-2.349.62a9.689 9.689 0 0 1 1.268 3.4l.05.31h-3.177l.034-.23c.175-1.18.63-2.404 1.307-3.52.123-.204.235-.37.248-.37.013 0 .135.184.27.41m-3.852 5.88c.203 1.329.466 2.229.982 3.35.126.275.295.615.375.756.081.14.138.263.129.272-.028.028-.565-.213-.864-.388a5.975 5.975 0 0 1-2.182-2.26c-.279-.511-.462-1.026-.635-1.79L6.198 10H8.393l.026.17m5.12.14a9.292 9.292 0 0 1-.783 2.49c-.236.494-.709 1.32-.755 1.32-.013 0-.125-.166-.248-.37-.677-1.116-1.132-2.34-1.307-3.52l-.034-.23h3.177l-.05.31m4.237-.2c-.173.764-.356 1.279-.635 1.79a5.975 5.975 0 0 1-2.182 2.26c-.299.175-.836.416-.864.388-.009-.009.048-.132.129-.272.646-1.136 1.176-2.733 1.356-4.086l.025-.19h2.197l-.026.11M12.5 19.138c.672.394.652 1.389-.035 1.753-.246.13-.701.125-.943-.011-.749-.42-.659-1.524.148-1.825.229-.086.607-.048.83.083" fill="#667085" fill-rule="evenodd"/></svg>