<svg width="24" height="24" fill="none" xmlns="http://www.w3.org/2000/svg"><path d="M4.98 1.584c-.873.135-1.53.477-2.181 1.132-.585.588-.9 1.218-1.078 2.15-.045.239-.225 1.574-.4 2.967-.25 1.989-.308 2.549-.272 2.607.035.056.035.124-.001.28-.1.43-.023 1.051.21 1.702.238.667.578 1.173 1.167 1.739l.355.341-.395.379c-.641.614-1.032 1.276-1.276 2.158-.069.251-.083.414-.083.981.001.614.012.719.11 1.08.129.475.43 1.126.692 1.494.273.385.78.875 1.177 1.138a4.43 4.43 0 0 0 2.135.75c.296.029 2.652.038 7.18.028 6.294-.013 6.76-.018 7.04-.085 1.419-.337 2.484-1.136 3.111-2.336.392-.749.552-1.454.516-2.269-.05-1.125-.512-2.115-1.372-2.939l-.395-.379.355-.341c.59-.567.929-1.072 1.168-1.74.345-.965.337-1.445-.081-4.739-.168-1.329-.342-2.605-.386-2.835-.177-.918-.495-1.547-1.075-2.131-.66-.665-1.315-.999-2.221-1.135-.576-.087-13.442-.084-14 .003m13.612 1.978c.874.095 1.472.626 1.666 1.478.048.214.168 1.004.284 1.869l.022.168-.372-.174a5.633 5.633 0 0 0-.712-.268l-.34-.095H4.86l-.34.095a5.633 5.633 0 0 0-.712.268l-.372.174.022-.168c.116-.865.236-1.655.284-1.869.187-.821.796-1.383 1.598-1.473.469-.053 12.767-.057 13.252-.005m.456 5.002c.285.058.808.315 1.044.512a2.517 2.517 0 0 1 .326 3.528 2.595 2.595 0 0 1-1.301.823c-.244.069-.604.073-7.117.073s-6.873-.004-7.117-.073c-.859-.244-1.459-.804-1.754-1.638-.088-.251-.102-.355-.102-.789 0-.434.014-.538.102-.789A2.454 2.454 0 0 1 4.365 8.78c.512-.269.038-.253 7.603-.257 4.813-.002 6.931.01 7.08.041M5.667 10.063a.956.956 0 0 0-.364.232.993.993 0 0 0 .208 1.574c.162.095.232.111.489.11.228-.001.338-.021.46-.086.733-.391.715-1.413-.031-1.799-.175-.09-.533-.105-.762-.031m6 .002c-.402.123-.699.584-.658 1.018.038.395.344.776.702.875.097.027 1.25.042 3.292.042 3.541 0 3.387.013 3.698-.299a.984.984 0 0 0-.004-1.406c-.305-.305-.179-.295-3.714-.292-2.642.002-3.153.012-3.316.062m7.381 5.499c.285.058.808.315 1.044.512a2.517 2.517 0 0 1 .326 3.528 2.595 2.595 0 0 1-1.301.823c-.244.069-.604.073-7.117.073s-6.873-.004-7.117-.073c-.859-.244-1.459-.804-1.754-1.638-.088-.251-.102-.355-.102-.789 0-.434.014-.538.102-.789a2.454 2.454 0 0 1 1.236-1.431c.512-.269.038-.253 7.603-.257 4.813-.002 6.931.01 7.08.041M5.667 17.063a.956.956 0 0 0-.364.232.993.993 0 0 0 .208 1.574c.162.095.232.111.489.11.228-.001.338-.021.46-.086.733-.391.715-1.413-.031-1.799-.175-.09-.533-.105-.762-.031m6 .002c-.402.123-.699.584-.658 1.018.038.395.344.776.702.875.097.027 1.25.042 3.292.042 3.541 0 3.387.013 3.698-.299a.984.984 0 0 0-.004-1.406c-.305-.305-.179-.295-3.714-.292-2.642.002-3.153.012-3.316.062" fill="#667085" fill-rule="evenodd"/></svg>