<svg width="24" height="24" fill="none" xmlns="http://www.w3.org/2000/svg"><path d="M5.443 2.044c-1.675.149-3.053 1.281-3.461 2.843-.178.683-.132.14-.647 7.643-.322 4.682-.347 5.142-.304 5.482a4.541 4.541 0 0 0 3.873 3.947c.227.032 2.277.042 7.296.033l6.98-.012.391-.108a4.534 4.534 0 0 0 2.086-1.233 4.38 4.38 0 0 0 1.197-2.299c.166-.887.181-.483-.231-6.46-.209-3.047-.409-5.785-.443-6.084-.136-1.188-.449-1.9-1.14-2.598a3.741 3.741 0 0 0-1.132-.8c-.421-.202-.831-.304-1.418-.356-.569-.05-12.482-.048-13.047.002M18.689 4.09c.677.138 1.236.675 1.386 1.33.06.264.111.653.163 1.24.043.486.482 6.807.482 6.938 0 .059-.059.041-.37-.115-.45-.225-.8-.343-1.256-.423-.519-.09-13.669-.09-14.188 0-.456.08-.806.198-1.256.423-.311.156-.37.174-.37.115 0-.131.439-6.452.482-6.938.085-.96.155-1.331.307-1.635.203-.407.701-.812 1.113-.907.416-.096 1.295-.108 7.158-.1 5.316.008 6.077.017 6.349.072m.331 10.97c.885.185 1.622.873 1.884 1.76.098.333.099 1.035.001 1.358-.271.898-.914 1.514-1.821 1.746-.286.073-.551.076-7.08.075-7.326 0-6.985.009-7.497-.207-.667-.281-1.192-.881-1.412-1.612-.098-.326-.097-1.027.001-1.36.199-.671.668-1.24 1.266-1.535.601-.297.105-.278 7.618-.281 5.789-.002 6.8.006 7.04.056M5.617 16.577c-.509.221-.751.837-.522 1.323.18.379.504.591.905.592a.98.98 0 0 0 .998-.992c0-.4-.218-.742-.577-.905-.193-.088-.623-.097-.804-.018m6 0c-.346.15-.616.556-.616.923 0 .386.303.818.664.945.126.045.744.055 3.335.055s3.209-.01 3.335-.055c.361-.127.664-.559.664-.945 0-.372-.274-.779-.625-.925-.192-.08-6.573-.079-6.757.002" fill="#667085" fill-rule="evenodd"/></svg>