<svg width="24" height="24" fill="none" xmlns="http://www.w3.org/2000/svg"><path d="M3.44 1.057a2.93 2.93 0 0 0-1.561.859A2.924 2.924 0 0 0 1.114 3.2c-.135.431-.135 1.169 0 1.6.17.546.385.902.784 1.302.579.578 1.249.875 1.982.877.378.001.381 0 .73-.189.193-.105.35-.182.35-.171 0 .011-.089.141-.197.29-1.548 2.129-2.097 4.55-1.556 6.871.253 1.089.826 2.307 1.556 3.311.108.149.197.28.197.292 0 .012-.157-.065-.35-.171-.347-.19-.353-.192-.71-.19-.455.003-.778.087-1.26.326-.508.252-1.02.75-1.268 1.232-.277.538-.352.841-.352 1.42s.075.882.352 1.42c.23.447.761.978 1.208 1.208.538.277.841.352 1.42.352s.882-.075 1.42-.352c.447-.23.978-.761 1.208-1.208.252-.491.35-.851.351-1.3.001-.378 0-.381-.189-.73-.105-.192-.179-.35-.166-.35.013 0 .09.052.17.115.52.41 1.457.941 2.146 1.217 2.047.821 4.073.821 6.12 0 .689-.276 1.626-.807 2.146-1.217a.857.857 0 0 1 .17-.115c.013 0-.061.158-.166.35-.189.349-.19.352-.189.73.001.449.099.809.351 1.3.23.447.761.978 1.208 1.208.538.277.841.352 1.42.352s.882-.075 1.42-.352c.447-.23.978-.761 1.208-1.208.277-.538.352-.841.352-1.42s-.075-.882-.352-1.42c-.248-.482-.76-.98-1.268-1.232-.482-.239-.805-.323-1.26-.326-.357-.002-.363 0-.71.19-.192.106-.35.183-.35.171 0-.012.089-.143.197-.292.976-1.342 1.568-2.836 1.725-4.352.049-.473.042-.67-.055-1.483-.196-1.634-.732-3.04-1.643-4.308a4.113 4.113 0 0 1-.224-.331c0-.009.158.068.35.173.349.189.352.19.73.189.449-.001.809-.099 1.3-.351.447-.23.978-.761 1.208-1.208.277-.538.352-.841.352-1.42s-.075-.882-.352-1.42c-.248-.482-.76-.98-1.268-1.232-.522-.259-.8-.326-1.36-.326s-.838.067-1.36.326c-.317.158-.44.249-.742.55-.578.579-.875 1.249-.877 1.982-.001.378 0 .381.189.73.105.193.181.35.17.35-.012 0-.142-.088-.291-.196-1.285-.933-2.89-1.539-4.405-1.663a2.508 2.508 0 0 1-.433-.064c-.151-.058-1.269.028-1.822.14-1.233.251-2.477.816-3.571 1.625a1.76 1.76 0 0 1-.236.158c-.013 0 .063-.157.168-.35.189-.349.19-.352.189-.73-.002-.733-.299-1.403-.877-1.982-.303-.302-.424-.392-.742-.55a4.324 4.324 0 0 0-.62-.251c-.336-.087-.981-.107-1.3-.04M4.5 3.138c.672.394.652 1.389-.035 1.753-.246.13-.701.125-.943-.011-.749-.42-.659-1.524.148-1.825.229-.086.607-.048.83.083m16 0c.672.394.652 1.389-.035 1.753-.246.13-.701.125-.943-.011-.749-.42-.659-1.524.148-1.825.229-.086.607-.048.83.083M9.797 5.67a6.665 6.665 0 0 1-.159.27c-.069.094-.602 1.188-.731 1.5a13.392 13.392 0 0 0-.888 3.35l-.027.21h-2.79l.023-.13A7.113 7.113 0 0 1 6.323 8.1c.215-.327.429-.579.833-.983.582-.58 1.092-.954 1.738-1.274.362-.179.893-.397.979-.401.034-.001.008.078-.076.228m4.677-.107c.457.174.963.44 1.426.748.572.382 1.392 1.207 1.776 1.789a7.09 7.09 0 0 1 1.099 2.77l.023.13h-2.787l-.049-.37a13.262 13.262 0 0 0-.86-3.17c-.137-.329-.67-1.425-.74-1.52-.101-.138-.281-.5-.248-.5.021 0 .184.055.36.123m-2.285.569c.885 1.347 1.472 2.811 1.709 4.268l.081.49.019.11h-3.996l.019-.11.081-.49a10.959 10.959 0 0 1 1.359-3.704c.244-.413.51-.816.539-.816.013 0 .098.114.189.252m-4.17 7.078c.215 1.723.817 3.474 1.735 5.05.09.154.147.286.126.293-.058.02-.749-.265-1.12-.462-.624-.333-1.037-.644-1.603-1.209-.399-.399-.619-.658-.833-.982a7.093 7.093 0 0 1-1.099-2.77L5.202 13h2.79l.027.21m5.96-.1-.081.49a10.715 10.715 0 0 1-1.094 3.22c-.213.405-.602 1.052-.744 1.238-.059.077-.061.077-.12 0-.142-.186-.531-.833-.744-1.238a10.715 10.715 0 0 1-1.094-3.22l-.081-.49-.019-.11h3.996l-.019.11m4.796.02a7.093 7.093 0 0 1-1.099 2.77c-.214.324-.434.583-.833.982-.566.565-.979.876-1.603 1.209-.338.18-1.027.469-1.117.469-.026 0 .017-.112.096-.25.929-1.612 1.525-3.3 1.743-4.94l.049-.37h2.787l-.023.13M4.5 19.138c.672.394.652 1.389-.035 1.753-.246.13-.701.125-.943-.011-.749-.42-.659-1.524.148-1.825.229-.086.607-.048.83.083m16 0c.672.394.652 1.389-.035 1.753-.246.13-.701.125-.943-.011-.749-.42-.659-1.524.148-1.825.229-.086.607-.048.83.083" fill="#667085" fill-rule="evenodd"/></svg>