<svg width="24" height="24" fill="none" xmlns="http://www.w3.org/2000/svg"><path d="M11.42 1.059c-.84.157-1.651.691-2.098 1.382a6.88 6.88 0 0 0-.361.705c-.636 1.419-.73 1.562-1.174 1.775-.342.165-.516.174-1.387.077-.985-.11-1.513-.11-1.94.001-1.976.512-2.985 2.716-2.074 4.534.079.158.379.611.667 1.007.613.843.705 1.035.705 1.46 0 .425-.092.617-.705 1.46-.821 1.129-.992 1.547-.991 2.42 0 .527.049.787.234 1.246.162.401.35.676.705 1.032.532.534 1.129.824 1.901.925.317.042.468.035 1.322-.057 1.264-.136 1.482-.101 1.924.305.196.181.298.369.712 1.301.412.928.644 1.269 1.12 1.648a3.21 3.21 0 0 0 4.04-.001c.475-.376.708-.719 1.12-1.647.149-.336.331-.731.403-.876.25-.501.715-.798 1.255-.803.144-.001.64.039 1.102.089.953.104 1.313.084 1.85-.098 1.686-.575 2.6-2.389 2.036-4.046-.148-.435-.261-.627-.821-1.398-.696-.959-.704-.976-.705-1.5 0-.517.001-.52.7-1.48.28-.385.575-.829.654-.987a3.199 3.199 0 0 0-1.434-4.291c-.69-.346-1.22-.396-2.58-.244-.87.097-1.043.088-1.388-.075-.394-.187-.543-.394-.992-1.384-.443-.976-.589-1.223-.926-1.568a3.248 3.248 0 0 0-2.874-.912m1.119 2.079c.121.059.281.179.357.268.081.095.297.513.529 1.024.215.475.457.964.537 1.087a3.47 3.47 0 0 0 2.678 1.547c.227.014.634-.011 1.225-.076.982-.108 1.188-.098 1.473.069.391.229.602.602.599 1.063-.002.381-.057.488-.696 1.36-.779 1.063-1.007 1.637-1.005 2.535.001.547.121 1.061.355 1.528.088.174.389.63.67 1.014.609.832.674.963.674 1.343 0 .602-.44 1.114-1.035 1.202-.088.013-.511-.015-.94-.062-1.296-.143-1.809-.105-2.485.18a3.572 3.572 0 0 0-1.478 1.205c-.127.184-.365.671-.755 1.542-.115.256-.271.539-.346.627-.33.386-.953.505-1.425.274-.311-.153-.467-.351-.712-.901-.467-1.049-.709-1.505-.946-1.786a3.382 3.382 0 0 0-2.149-1.206c-.432-.066-.479-.064-1.708.068-.797.086-.966.075-1.272-.081-.192-.098-.43-.362-.538-.597-.063-.138-.084-.261-.083-.485.002-.383.058-.492.695-1.36.776-1.057 1.007-1.636 1.007-2.52 0-.884-.231-1.463-1.007-2.52-.637-.868-.693-.977-.695-1.36a1.171 1.171 0 0 1 .599-1.063c.285-.167.489-.177 1.492-.069.597.064 1.016.09 1.228.075a3.464 3.464 0 0 0 2.26-1.048c.384-.406.491-.591.984-1.694.162-.362.339-.725.393-.806.314-.475.982-.641 1.52-.377m-.983 4.901c-2.471.309-4.097 2.77-3.369 5.099.452 1.447 1.601 2.475 3.113 2.786.331.068 1.137.059 1.48-.018 1.482-.33 2.628-1.388 3.038-2.804.642-2.213-.753-4.524-3.018-5.001a4.62 4.62 0 0 0-1.244-.062m.983 2.022c.33.086.601.243.862.499.406.399.599.863.599 1.44s-.193 1.041-.599 1.44c-.39.383-.833.56-1.401.56-1.147 0-2-.853-2-2 0-.909.536-1.649 1.392-1.923.287-.092.827-.099 1.147-.016" fill="#667085" fill-rule="evenodd"/></svg>