<svg width="24" height="24" fill="none" xmlns="http://www.w3.org/2000/svg"><path d="M17.08 2.027c-.665.069-1.497.403-2.11.849L14.801 3h-4.775c-4.093 0-4.825.009-5.124.061A3.538 3.538 0 0 0 2.317 5.06c-.23.507-.295.825-.295 1.44 0 .462.016.616.091.88.353 1.241 1.224 2.117 2.494 2.508l.293.091 4.95.011 4.949.012.251.174c.99.688 2.088.952 3.175.762a4.417 4.417 0 0 0 2.519-1.347 4.37 4.37 0 0 0 1.194-2.366c.201-1.154-.107-2.425-.821-3.388-.244-.33-.781-.847-1.097-1.057-.886-.586-1.938-.856-2.94-.753m.94 2.033c1.335.279 2.202 1.615 1.92 2.96-.123.59-.536 1.214-1.015 1.534-1.281.858-2.977.424-3.648-.934-.93-1.88.695-3.989 2.743-3.56m-4.757 1.03c-.219.743-.237.85-.237 1.41 0 .56.018.667.237 1.41l.026.09H9.292c-4.403 0-4.216.01-4.622-.248-.23-.146-.395-.347-.54-.659-.093-.199-.109-.286-.109-.593-.001-.321.013-.389.125-.626.2-.422.57-.728 1.004-.831.082-.019 1.948-.037 4.145-.039L13.289 5l-.026.09M5.8 13.058A4.585 4.585 0 0 0 2.526 15.4c-.77 1.431-.682 3.2.228 4.58a4.648 4.648 0 0 0 2.306 1.776c1.366.456 2.681.26 3.89-.58l.251-.174 4.949-.012 4.95-.011.3-.092c1.259-.384 2.13-1.265 2.489-2.515.129-.451.128-1.295-.002-1.752-.383-1.345-1.452-2.326-2.789-2.559-.299-.052-1.031-.061-5.124-.061H9.199l-.169-.124a5.003 5.003 0 0 0-1.672-.774 5.051 5.051 0 0 0-1.558-.044m1.22 2.002c1.335.279 2.202 1.615 1.92 2.96a2.512 2.512 0 0 1-2.44 1.979c-1.58 0-2.765-1.466-2.44-3.019.279-1.336 1.614-2.202 2.96-1.92m12.106 1.086c.338.16.568.39.728.728.112.237.126.305.125.626 0 .307-.016.394-.109.593-.145.312-.31.513-.54.659-.406.258-.219.248-4.622.248h-3.997l.026-.09c.219-.743.237-.85.237-1.41 0-.56-.018-.665-.237-1.411l-.027-.091 4.075.011 4.075.011.266.126" fill="#667085" fill-rule="evenodd"/></svg>