<svg width="24" height="24" fill="none" xmlns="http://www.w3.org/2000/svg"><path d="M11.8 1.027c-1.434.135-2.506 1.226-2.586 2.633-.026.451-.071.598-.211.698a.807.807 0 0 1-.535.107c-.053-.013-.224-.131-.38-.261A3.078 3.078 0 0 0 7 3.593c-.395-.122-1.168-.132-1.54-.019-.805.245-1.399.746-1.762 1.486-.507 1.037-.346 2.178.44 3.112.232.276.262.331.262.48 0 .092-.032.23-.07.305-.118.232-.239.291-.671.327-.768.065-1.29.304-1.821.835-.552.551-.807 1.172-.807 1.962 0 .475.077.794.306 1.259.38.774 1.068 1.294 1.952 1.476.169.035.417.064.551.064.142 0 .294.026.364.062.23.119.345.454.23.668a3.072 3.072 0 0 1-.255.333A3.037 3.037 0 0 0 3.593 17c-.078.251-.093.384-.091.82.002.462.014.556.113.84.263.758.733 1.293 1.445 1.641.805.395 1.624.394 2.443-.001.199-.096.451-.253.56-.349.108-.096.249-.214.312-.263.216-.165.619-.085.798.159.057.079.087.211.111.494.065.768.304 1.29.835 1.821.552.552 1.172.807 1.963.807a2.77 2.77 0 0 0 2.495-1.549c.182-.372.261-.68.29-1.14.013-.209.049-.43.08-.492.112-.222.452-.336.663-.222.047.025.197.139.333.255.314.267.676.467 1.057.586.251.078.384.093.82.091.462-.002.556-.014.84-.113.758-.263 1.293-.733 1.641-1.445a2.85 2.85 0 0 0 .299-1.22c0-.57-.252-1.285-.604-1.716-.38-.465-.396-.492-.396-.661 0-.196.114-.398.268-.476.062-.031.274-.066.472-.079.876-.055 1.686-.514 2.155-1.222.33-.496.475-.975.475-1.566 0-.591-.145-1.07-.475-1.566a2.791 2.791 0 0 0-2.155-1.22c-.451-.026-.598-.071-.698-.211a.807.807 0 0 1-.107-.535c.013-.053.131-.224.261-.38.296-.353.49-.699.611-1.088.122-.395.132-1.168.019-1.54a2.953 2.953 0 0 0-.919-1.412c-.454-.377-1.202-.648-1.787-.648-.633 0-1.346.278-1.892.738-.276.232-.331.262-.48.262-.201 0-.402-.113-.481-.268-.031-.062-.066-.274-.079-.472a2.807 2.807 0 0 0-1.738-2.433c-.368-.149-.896-.234-1.25-.2m.543 2.037c.185.088.403.339.454.523.023.084.043.254.043.377 0 .663.394 1.455.929 1.868.251.193.719.417 1.022.487.275.064.817.066 1.092.003.339-.078.832-.336 1.11-.58.336-.296.461-.358.727-.359a.827.827 0 0 1 .802 1.049c-.029.108-.121.254-.247.393-.481.532-.678.987-.705 1.635-.038.898.264 1.618.895 2.14.412.34 1.012.56 1.531.56.354.001.539.058.723.224.199.18.281.359.281.616s-.082.436-.281.616c-.178.161-.369.223-.683.224-.281 0-.763.122-1.042.263a2.49 2.49 0 0 0-1.367 2.217c-.001.187.021.439.05.56.08.345.337.836.581 1.113.296.336.358.461.359.727a.827.827 0 0 1-1.049.802c-.108-.029-.254-.121-.393-.247-.532-.481-.987-.678-1.636-.705-.53-.023-.806.035-1.29.273-.768.376-1.326 1.252-1.328 2.085-.002.536-.184.878-.54 1.014-.571.218-1.14-.19-1.142-.82a2.545 2.545 0 0 0-.725-1.728c-.309-.305-.821-.586-1.272-.698a2.922 2.922 0 0 0-1.125-.018c-.339.078-.832.336-1.11.58-.336.296-.461.358-.727.359a.827.827 0 0 1-.802-1.049c.029-.108.121-.254.247-.393.481-.532.678-.987.705-1.636.023-.53-.035-.806-.273-1.29-.376-.768-1.252-1.326-2.085-1.328-.512-.002-.826-.156-.997-.492-.121-.235-.093-.6.061-.823.153-.22.447-.366.742-.367a2.534 2.534 0 0 0 1.721-.721c.311-.311.591-.817.705-1.276.078-.31.086-.828.018-1.125-.078-.339-.336-.832-.58-1.11-.296-.336-.358-.461-.359-.727a.827.827 0 0 1 1.049-.802c.108.029.254.121.393.247.532.481.987.678 1.635.705.898.038 1.618-.264 2.14-.895.34-.412.56-1.012.56-1.531 0-.145.02-.333.043-.417.05-.181.265-.432.447-.521.168-.083.521-.084.693-.002m-.91 4.979a4.22 4.22 0 0 0-1.941.856 4.272 4.272 0 0 0-1.38 2.161c-.128.513-.128 1.367 0 1.88.2.801.739 1.645 1.38 2.161.401.323 1.078.665 1.548.781 2.23.55 4.462-.908 4.897-3.197.314-1.657-.57-3.437-2.097-4.222a4.013 4.013 0 0 0-2.407-.42m.95 2c.578.106 1.157.55 1.41 1.082a2.001 2.001 0 0 1-.354 2.25c-.778.831-2.1.831-2.878 0-.754-.806-.739-2.004.035-2.779.489-.488 1.102-.678 1.787-.553" fill="#667085" fill-rule="evenodd"/></svg>