<svg width="24" height="24" fill="none" xmlns="http://www.w3.org/2000/svg"><path d="M5.9 2.026c-.973.077-1.532.256-2.2.707-.578.389-1.181 1.16-1.417 1.811-.279.77-.263.33-.263 7.456 0 6.02.004 6.442.072 6.773.108.531.284.971.553 1.389.595.92 1.488 1.523 2.582 1.746.331.068.753.072 6.773.072s6.442-.004 6.773-.072c1.084-.221 1.98-.822 2.568-1.725.268-.41.435-.811.55-1.323.076-.334.083-.528.098-2.67.02-2.626.024-2.579-.287-2.89a.984.984 0 0 0-1.403-.001c-.294.294-.299.329-.299 2.218 0 1.786-.044 2.767-.139 3.134-.142.544-.638 1.05-1.181 1.206-.442.126-1.17.142-6.68.142s-6.238-.016-6.68-.142c-.543-.156-1.039-.662-1.181-1.206C4.022 18.2 4 17.167 4 12s.022-6.2.139-6.651c.144-.553.656-1.065 1.209-1.209C5.716 4.044 6.694 4 8.483 4c1.889 0 1.924-.005 2.218-.299a.984.984 0 0 0 0-1.402c-.302-.302-.284-.3-2.598-.292-1.124.003-2.115.012-2.203.019m8.743.043C14.291 2.193 14 2.614 14 3c0 .242.119.521.299.701.298.298.306.299 2.418.299h1.862l-3.725 3.73c-3.408 3.413-3.73 3.747-3.789 3.927-.128.39-.044.766.234 1.044s.654.362 1.044.234c.18-.059.514-.381 3.927-3.789L20 5.421v1.862c0 2.112.001 2.12.299 2.418a.984.984 0 0 0 1.403-.001c.314-.314.302-.154.289-3.764L21.98 2.74l-.109-.208a1.14 1.14 0 0 0-.243-.309c-.301-.229-.201-.223-3.643-.22-2.759.003-3.188.011-3.342.066" fill="#667085" fill-rule="evenodd"/></svg>