<svg width="24" height="24" fill="none" xmlns="http://www.w3.org/2000/svg"><path d="M17.433 1.043c-.426.063-.732.161-1.173.376a3.883 3.883 0 0 0-1.842 1.841 3.708 3.708 0 0 0-.405 1.521c-.021.351-.01.455.085.834.059.238.102.438.095.445-.043.041-5.314 3.1-5.342 3.1-.019 0-.151-.098-.293-.219a4.224 4.224 0 0 0-1.628-.828c-.457-.124-1.369-.124-1.87 0a4.257 4.257 0 0 0-2.161 1.379 4.677 4.677 0 0 0-.787 1.568c-.128.513-.128 1.367 0 1.88.2.801.739 1.645 1.38 2.161.401.324 1.079.665 1.548.78 1.252.308 2.618-.024 3.565-.865.109-.097.216-.176.239-.176.033 0 5.299 3.052 5.349 3.1.007.007-.036.207-.095.445-.095.379-.106.483-.085.834.031.555.151 1.004.405 1.521a3.885 3.885 0 0 0 1.842 1.842 3.67 3.67 0 0 0 1.58.406c1.972.093 3.72-1.315 4.097-3.303.364-1.922-.849-3.899-2.762-4.499a3.989 3.989 0 0 0-3.733.755c-.142.121-.274.219-.293.219-.028 0-5.299-3.059-5.342-3.1-.008-.007.033-.197.09-.422.129-.515.129-.761 0-1.276-.057-.225-.098-.414-.09-.42.051-.045 5.319-3.102 5.345-3.102.018 0 .129.082.246.182 1.086.927 2.543 1.217 3.862.77 1.862-.633 3.034-2.592 2.677-4.477-.405-2.133-2.398-3.581-4.504-3.272m.95 2c.578.106 1.157.55 1.41 1.082a2.001 2.001 0 0 1-.354 2.25c-.778.831-2.1.831-2.878 0-.754-.806-.739-2.004.035-2.779.489-.488 1.102-.678 1.787-.553m-12 7c.578.106 1.157.55 1.41 1.082a2.001 2.001 0 0 1-.354 2.25c-.778.831-2.1.831-2.878 0-.754-.806-.739-2.004.035-2.779.489-.488 1.102-.678 1.787-.553m12 7c.578.106 1.157.55 1.41 1.082a2.001 2.001 0 0 1-.354 2.25c-.778.831-2.1.831-2.878 0-.754-.806-.739-2.004.035-2.779.489-.488 1.102-.678 1.787-.553" fill="#667085" fill-rule="evenodd"/></svg>