<svg width="24" height="24" fill="none" xmlns="http://www.w3.org/2000/svg"><path d="M11.64 2.068c-.154.053-.487.367-2.293 2.167-1.162 1.158-2.158 2.181-2.213 2.273-.22.37-.15.878.164 1.192.279.28.656.364 1.045.234.174-.057.342-.21 1.427-1.288L11 5.423v4.861c0 5.465-.02 5.098.299 5.417a.984.984 0 0 0 1.402 0c.319-.319.299.048.299-5.417V5.423l1.23 1.223c1.085 1.078 1.253 1.231 1.427 1.288.389.13.766.046 1.045-.234a.99.99 0 0 0 .186-1.144c-.061-.125-.701-.79-2.217-2.301-1.924-1.919-2.15-2.131-2.328-2.19a1.053 1.053 0 0 0-.703.003m-8.976 8.995a1.005 1.005 0 0 0-.533.448l-.111.189v3.36c0 3.075.006 3.39.072 3.713.108.531.284.971.553 1.389a3.926 3.926 0 0 0 2.609 1.749c.338.064.862.069 6.746.069s6.408-.005 6.746-.069a3.937 3.937 0 0 0 3.161-3.124c.057-.284.068-.761.082-3.62.014-3.009.009-3.311-.052-3.497a1.007 1.007 0 0 0-1.02-.661c-.395.038-.776.344-.875.702-.027.096-.042 1.1-.042 2.809 0 2.725-.034 3.727-.139 4.131-.142.544-.638 1.05-1.181 1.206-.442.126-1.17.142-6.68.142s-6.238-.016-6.68-.142c-.543-.156-1.039-.662-1.181-1.206C4.034 18.247 4 17.244 4 14.517c0-3.005.009-2.91-.299-3.218a.996.996 0 0 0-1.037-.236" fill="#667085" fill-rule="evenodd"/></svg>