<svg width="24" height="24" fill="none" xmlns="http://www.w3.org/2000/svg"><path d="M5.9 2.026c-.973.077-1.532.256-2.2.707-.578.389-1.181 1.16-1.417 1.811-.279.77-.263.33-.263 7.456 0 6.02.004 6.442.072 6.773.108.531.284.971.553 1.389.595.92 1.488 1.523 2.582 1.746.331.068.753.072 6.773.072s6.442-.004 6.773-.072c1.084-.221 1.98-.822 2.568-1.725.268-.41.435-.811.55-1.323.076-.334.083-.528.098-2.67.02-2.626.024-2.579-.287-2.89a.984.984 0 0 0-1.403-.001c-.294.294-.299.329-.299 2.218 0 1.786-.044 2.767-.139 3.134-.142.544-.638 1.05-1.181 1.206-.442.126-1.17.142-6.68.142s-6.238-.016-6.68-.142c-.543-.156-1.039-.662-1.181-1.206C4.022 18.2 4 17.167 4 12s.022-6.2.139-6.651c.144-.553.656-1.065 1.209-1.209C5.716 4.044 6.694 4 8.483 4c1.889 0 1.924-.005 2.218-.299a.984.984 0 0 0 0-1.402c-.302-.302-.284-.3-2.598-.292-1.124.003-2.115.012-2.203.019m11.743.043C17.291 2.193 17 2.614 17 3c0 .364.089.496.849 1.265l.717.726-1.473.02c-1.847.025-2.194.076-2.893.429-.85.428-1.566 1.2-1.892 2.037-.259.665-.277.84-.297 2.831-.021 2.067-.019 2.086.287 2.392a.984.984 0 0 0 1.403.001c.281-.281.299-.384.299-1.718 0-1.325.052-2.298.14-2.635.144-.553.656-1.065 1.209-1.209.312-.081 1.288-.139 2.349-.139h.877l-.721.73c-.611.618-.732.76-.788.927-.13.388-.046.765.233 1.044.278.278.655.363 1.044.234.176-.059.368-.236 1.809-1.67 1.786-1.779 1.817-1.817 1.82-2.276.002-.433-.035-.479-1.819-2.254-1.441-1.433-1.634-1.611-1.81-1.67a1.032 1.032 0 0 0-.7.004" fill="#667085" fill-rule="evenodd"/></svg>