<svg width="24" height="24" fill="none" xmlns="http://www.w3.org/2000/svg"><path d="M14.643 2.069C14.291 2.193 14 2.614 14 3c0 .242.119.521.299.701.298.298.306.299 2.418.299h1.862l-3.225 3.23c-2.942 2.948-3.23 3.247-3.289 3.427-.128.39-.044.766.234 1.044s.654.362 1.044.234c.18-.059.479-.347 3.427-3.289L20 5.421v1.862c0 2.112.001 2.12.299 2.418a.984.984 0 0 0 1.403-.001c.314-.314.301-.151.289-3.783L21.98 2.7l-.111-.189a1.19 1.19 0 0 0-.243-.289c-.299-.228-.201-.222-3.641-.219-2.759.003-3.188.011-3.342.066M5.64 4.047c-.857.081-1.479.324-2.151.842-.484.373-.997 1.078-1.208 1.662-.271.749-.261.49-.261 6.449 0 4.936.006 5.41.069 5.746a3.926 3.926 0 0 0 3.165 3.165c.336.063.81.069 5.746.069s5.41-.006 5.746-.069a3.932 3.932 0 0 0 2.595-1.728c.268-.41.435-.811.55-1.323.076-.334.083-.528.098-2.664.012-1.606.004-2.354-.027-2.469-.192-.714-1.134-.957-1.662-.429-.296.296-.3.324-.301 2.259 0 1.798-.041 2.714-.138 3.092-.139.543-.637 1.052-1.181 1.208-.432.123-1.173.142-5.68.142s-5.248-.019-5.68-.142c-.543-.156-1.039-.662-1.181-1.206C4.026 18.216 4 17.173 4 13s.026-5.216.139-5.651c.145-.554.659-1.068 1.21-1.209.38-.098 1.293-.139 3.094-.139 1.935-.001 1.963-.005 2.259-.301a.989.989 0 0 0-.38-1.639c-.146-.052-.482-.06-2.237-.056-1.136.003-2.236.022-2.445.042" fill="#667085" fill-rule="evenodd"/></svg>