<svg width="24" height="24" fill="none" xmlns="http://www.w3.org/2000/svg"><path d="M10.882 2.679c-.509.188-.874.63-.959 1.161-.026.158-.043 1.097-.043 2.384v2.124l-.27.071c-.811.214-2.049.752-2.83 1.23-1.311.802-2.311 1.784-3.191 3.133a10.583 10.583 0 0 0-1.426 3.378c-.179.757-.248 1.334-.272 2.265-.018.704-.012.876.041 1.029.085.25.244.449.464.578.156.091.23.108.484.108.4 0 .565-.099 1.013-.609a10.37 10.37 0 0 1 2.851-2.243 6.412 6.412 0 0 1 1.656-.642c.428-.104 1.35-.286 1.449-.286.017 0 .031.797.031 1.77 0 1.043.018 1.876.043 2.029.114.705.652 1.192 1.36 1.233.372.021.624-.047.932-.255.341-.229 9.509-8.105 9.632-8.274.142-.194.273-.61.273-.863 0-.24-.126-.654-.258-.847-.093-.136-9.013-7.815-9.502-8.18-.378-.282-.54-.346-.92-.361-.267-.011-.387.004-.558.067m5.054 5.961A448.555 448.555 0 0 1 19.835 12c0 .011-1.785 1.548-3.967 3.416L11.9 18.812l-.02-2.016c-.02-1.97-.022-2.02-.106-2.176a1.006 1.006 0 0 0-.512-.463c-.178-.079-.24-.085-.598-.062-.974.064-2.22.33-3.204.684-.947.341-2.173.989-2.931 1.549-.119.088-.225.15-.237.138-.028-.028.196-.783.375-1.265.202-.543.65-1.398.964-1.838a8.815 8.815 0 0 1 1.446-1.516c1.147-.923 2.31-1.469 3.851-1.807.455-.1.651-.222.819-.508l.113-.192.011-2.074c.012-2.036.013-2.073.089-2.02.042.03 1.831 1.557 3.976 3.394" fill="#667085" fill-rule="evenodd"/></svg>