<svg width="24" height="24" fill="none" xmlns="http://www.w3.org/2000/svg"><path d="M11.64 2.068c-.154.053-.487.367-2.293 2.167-1.162 1.158-2.158 2.181-2.213 2.273-.22.37-.15.878.164 1.192.279.28.656.364 1.045.234.174-.057.342-.21 1.427-1.288L11 5.423v4.861c0 5.465-.02 5.098.299 5.417a.984.984 0 0 0 1.402 0c.319-.319.299.048.299-5.417V5.423l1.23 1.223c1.085 1.078 1.253 1.231 1.427 1.288.389.13.766.046 1.045-.234a.99.99 0 0 0 .186-1.144c-.061-.125-.701-.79-2.217-2.301-1.924-1.919-2.15-2.131-2.328-2.19a1.053 1.053 0 0 0-.703.003M5.5 10.042c-.991.114-2.002.675-2.611 1.45a4.08 4.08 0 0 0-.794 1.648c-.069.294-.075.52-.075 2.8 0 2.229.007 2.516.072 2.833.108.531.284.971.553 1.389a3.926 3.926 0 0 0 2.609 1.749c.338.064.862.069 6.746.069s6.408-.005 6.746-.069a3.926 3.926 0 0 0 3.165-3.165c.061-.322.069-.661.069-2.846 0-2.462-.001-2.482-.092-2.829-.336-1.27-1.065-2.152-2.223-2.691-.637-.296-1.116-.379-2.19-.38-.458 0-.671.016-.797.061a.989.989 0 0 0-.38 1.639c.243.243.447.3 1.079.301 1.163.001 1.545.114 2.027.595.349.35.508.678.558 1.155.049.467.048 3.271-.002 4.05-.058.915-.152 1.193-.535 1.591-.363.378-.685.504-1.445.567-.641.053-11.319.053-11.96 0-.76-.063-1.082-.189-1.445-.567-.383-.398-.477-.676-.535-1.591-.05-.779-.051-3.583-.002-4.05.05-.477.209-.805.558-1.155.482-.481.864-.594 2.027-.595.632-.001.836-.058 1.078-.3a.984.984 0 0 0 0-1.402c-.259-.259-.432-.3-1.238-.294-.376.003-.809.02-.963.037" fill="#667085" fill-rule="evenodd"/></svg>