<svg width="24" height="24" fill="none" xmlns="http://www.w3.org/2000/svg"><path d="M11.54 1.147c-.341.093-6.679 2.502-6.96 2.646A2.84 2.84 0 0 0 3.347 5.04c-.344.7-.323.45-.339 4.08-.014 3.359-.001 3.722.158 4.5.106.52.351 1.274.589 1.813 1.036 2.344 3.328 4.741 6.385 6.678.611.387 1.073.633 1.345.716.271.082.753.084 1.017.003.68-.206 2.406-1.341 3.818-2.509.644-.532 1.885-1.777 2.335-2.341 1.375-1.725 2.125-3.417 2.306-5.2.03-.298.04-1.483.031-3.66-.016-3.63.005-3.38-.339-4.08a2.84 2.84 0 0 0-1.233-1.247c-.198-.101-1.836-.738-3.64-1.415L12.5 1.146l-.44-.01a3.74 3.74 0 0 0-.52.011M11 11.821v8.34l-.17-.107c-1.334-.836-2.24-1.543-3.097-2.418-1.339-1.364-2.183-2.744-2.537-4.145-.19-.751-.203-1.058-.189-4.331.013-3.006.013-3.021.099-3.18.116-.215.273-.357.514-.466.196-.089 5.291-2.022 5.35-2.03.017-.002.03 3.749.03 8.337m4.54-7.395c1.32.495 2.543.962 2.718 1.038.353.152.507.277.636.516l.086.16v3.3c0 3.3 0 3.3-.092 3.72-.382 1.736-1.372 3.32-3.08 4.929-.615.579-1.503 1.242-2.578 1.924l-.23.146v-8.344c0-7.93.003-8.342.07-8.316l2.47.927" fill="#667085" fill-rule="evenodd"/></svg>