<svg width="24" height="24" fill="none" xmlns="http://www.w3.org/2000/svg"><path d="M11.54 1.147c-.275.077-3.111 1.157-3.252 1.238a.992.992 0 0 0-.37 1.291c.175.344.651.605.999.549.081-.013.794-.267 1.585-.564.791-.297 1.464-.54 1.495-.541.069 0 5.958 2.206 6.323 2.369.299.133.451.264.574.491.086.159.086.175.099 3.16.014 3.28.001 3.558-.199 4.395-.088.368-.117.565-.1.69a.988.988 0 0 0 1.719.535c.145-.162.192-.258.279-.567.304-1.088.315-1.275.299-5.033-.015-3.675.006-3.419-.338-4.12a2.84 2.84 0 0 0-1.233-1.247c-.198-.101-1.836-.738-3.64-1.415L12.5 1.146l-.44-.01a3.74 3.74 0 0 0-.52.011m-8.94.976a.989.989 0 0 0-.539 1.24c.061.184.154.299.658.816l.587.601-.143.32-.143.32-.012 3.48c-.007 2.15.004 3.636.03 3.888.112 1.126.521 2.389 1.12 3.453 1.173 2.086 3.292 4.165 5.982 5.87.611.387 1.073.633 1.345.716.275.083.755.083 1.03 0 .846-.257 3.089-1.878 4.573-3.303l.498-.479 1.374 1.375c.934.934 1.44 1.411 1.578 1.487.682.377 1.531-.189 1.451-.966a1.234 1.234 0 0 0-.103-.366c-.049-.094-3.661-3.734-9.193-9.263C5.51 4.133 3.542 2.186 3.4 2.122a1.046 1.046 0 0 0-.8.001m13.18 15.904a21.18 21.18 0 0 1-2.86 2.285c-.925.618-.892.602-1.052.509-1.196-.692-2.626-1.742-3.551-2.608-1.808-1.691-2.798-3.251-3.204-5.048-.085-.375-.088-.47-.102-3.545l-.014-3.16 5.592 5.593 5.591 5.593-.4.381" fill="#667085" fill-rule="evenodd"/></svg>