<svg width="24" height="24" fill="none" xmlns="http://www.w3.org/2000/svg"><path d="M11.54 1.147c-.341.093-6.679 2.502-6.96 2.646A2.84 2.84 0 0 0 3.347 5.04c-.344.7-.323.45-.339 4.08-.014 3.359-.001 3.722.158 4.5.106.52.351 1.274.589 1.813 1.036 2.344 3.328 4.741 6.385 6.678.611.387 1.073.633 1.345.716.271.082.753.084 1.017.003.68-.206 2.406-1.341 3.818-2.509.644-.532 1.885-1.777 2.335-2.341 1.375-1.725 2.125-3.417 2.306-5.2.03-.298.04-1.483.031-3.66-.016-3.63.005-3.38-.339-4.08a2.84 2.84 0 0 0-1.233-1.247c-.198-.101-1.836-.738-3.64-1.415L12.5 1.146l-.44-.01a3.74 3.74 0 0 0-.52.011m3.517 3.099c1.652.62 3.12 1.179 3.263 1.243.299.133.451.264.574.491.086.159.086.174.099 3.18.008 1.972-.002 3.166-.03 3.441-.236 2.297-1.879 4.671-4.703 6.798-.776.584-2.144 1.481-2.26 1.481-.052 0-.761-.433-1.288-.787-1.681-1.127-3.181-2.504-4.133-3.793-.658-.891-1.152-1.895-1.383-2.809-.19-.751-.203-1.058-.189-4.331.013-3.006.013-3.021.099-3.18.116-.215.273-.357.514-.466.34-.155 6.275-2.386 6.357-2.39.042-.002 1.428.503 3.08 1.122m-3.277 3.31c-.325.084-.618.343-.717.635-.051.148-.063.388-.063 1.253v1.07l-1.13.013c-1.081.012-1.137.017-1.298.103-.656.351-.764 1.188-.214 1.659.252.215.356.231 1.554.231h1.083l.013 1.15c.011 1.098.016 1.157.101 1.316.38.711 1.402.711 1.782 0 .085-.159.09-.218.101-1.316l.013-1.15h1.083c1.198 0 1.302-.016 1.554-.231.55-.471.442-1.308-.214-1.659-.161-.086-.217-.091-1.298-.103L13 10.514v-1.07c0-1.203-.021-1.33-.265-1.581-.252-.259-.649-.387-.955-.307" fill="#667085" fill-rule="evenodd"/></svg>