<svg width="24" height="24" fill="none" xmlns="http://www.w3.org/2000/svg"><path d="M11.444 1.343c-.301.081-.551.226-.956.553-.846.685-1.699 1.166-2.548 1.437-.513.164-.72.214-1.776.426-.431.087-.9.197-1.043.243-.991.327-1.706 1.053-2.007 2.039-.091.298-.091.312-.105 3.219-.01 1.958 0 3.065.03 3.36.288 2.842 2.124 5.616 5.367 8.11.971.747 2.469 1.705 2.945 1.882.181.068.318.086.649.086.517 0 .684-.056 1.361-.457 2.275-1.346 4.382-3.176 5.667-4.921.441-.6.715-1.051 1.054-1.74.492-.998.775-1.957.88-2.98.028-.274.039-1.434.029-3.34-.014-2.907-.014-2.921-.105-3.219-.301-.986-1.016-1.712-2.007-2.039a14.18 14.18 0 0 0-1.039-.241c-1.038-.208-1.261-.262-1.78-.428-.849-.271-1.702-.752-2.548-1.437-.414-.334-.655-.472-.973-.555a2.64 2.64 0 0 0-1.095.002m1.042 2.304c.776.558 1.153.792 1.774 1.096.754.37 1.441.599 2.56.856 1.219.279 1.735.428 1.888.544.264.202.264.203.282 3.216.017 2.737.005 3.083-.134 3.756-.217 1.047-.86 2.303-1.758 3.43-.386.484-1.496 1.601-2.038 2.05a22.483 22.483 0 0 1-2.67 1.898l-.39.233-.39-.233a23.233 23.233 0 0 1-1.83-1.234c-1.909-1.437-3.297-2.995-4.062-4.559a6.81 6.81 0 0 1-.607-1.729c-.09-.426-.091-.467-.091-3.351 0-2.679.006-2.939.071-3.148.05-.163.108-.257.201-.328.153-.117.668-.266 1.888-.545 1.855-.425 2.812-.856 4.334-1.952.249-.18.468-.327.486-.327.018 0 .237.147.486.327" fill="#667085" fill-rule="evenodd"/></svg>