<svg width="24" height="24" fill="none" xmlns="http://www.w3.org/2000/svg"><path d="M11.54 1.147c-.341.093-6.679 2.502-6.96 2.646A2.84 2.84 0 0 0 3.347 5.04c-.344.7-.323.45-.339 4.08-.014 3.359-.001 3.722.158 4.5.106.52.351 1.274.589 1.813 1.036 2.344 3.328 4.741 6.385 6.678.611.387 1.073.633 1.345.716.271.082.753.084 1.017.003.68-.206 2.406-1.341 3.818-2.509.644-.532 1.885-1.777 2.335-2.341 1.375-1.725 2.125-3.417 2.306-5.2.03-.298.04-1.483.031-3.66-.016-3.63.005-3.38-.339-4.08a2.84 2.84 0 0 0-1.233-1.247c-.198-.101-1.836-.738-3.64-1.415L12.5 1.146l-.44-.01a3.74 3.74 0 0 0-.52.011m3.517 3.099c1.652.62 3.12 1.179 3.263 1.243.299.133.451.264.574.491.086.159.086.174.099 3.18.008 1.972-.002 3.166-.03 3.441-.236 2.297-1.879 4.671-4.703 6.798-.776.584-2.144 1.481-2.26 1.481-.052 0-.761-.433-1.288-.787-1.681-1.127-3.181-2.504-4.133-3.793-.658-.891-1.152-1.895-1.383-2.809-.19-.751-.203-1.058-.189-4.331.013-3.006.013-3.021.099-3.18.116-.215.273-.357.514-.466.34-.155 6.275-2.386 6.357-2.39.042-.002 1.428.503 3.08 1.122m-2.277 2.31a1.569 1.569 0 0 0-.26.101c-.077.039-.871.802-1.765 1.697-1.516 1.518-1.629 1.64-1.695 1.841-.128.395-.019.817.281 1.08.079.07.776.443 1.547.829l1.402.701-1.079 1.088c-.986.992-1.086 1.106-1.15 1.302-.219.665.249 1.323.939 1.323.411 0 .448-.029 2.193-1.77.914-.912 1.647-1.675 1.693-1.763.186-.358.121-.842-.151-1.122-.104-.107-.531-.341-1.579-.865-.79-.395-1.436-.732-1.436-.748 0-.017.469-.498 1.043-1.07.573-.572 1.079-1.11 1.123-1.195a1.002 1.002 0 0 0-.442-1.343c-.177-.09-.492-.131-.664-.086" fill="#667085" fill-rule="evenodd"/></svg>