<svg width="24" height="24" fill="none" xmlns="http://www.w3.org/2000/svg"><path d="M11.54 1.147c-.341.093-6.679 2.502-6.96 2.646A2.84 2.84 0 0 0 3.347 5.04c-.344.7-.323.45-.339 4.08-.014 3.359-.001 3.722.158 4.5.106.52.351 1.274.589 1.813 1.036 2.344 3.328 4.741 6.385 6.678.611.387 1.073.633 1.345.716.271.082.753.084 1.017.003.68-.206 2.406-1.341 3.818-2.509.644-.532 1.885-1.777 2.335-2.341 1.375-1.725 2.125-3.417 2.306-5.2.03-.298.04-1.483.031-3.66-.016-3.63.005-3.38-.339-4.08a2.84 2.84 0 0 0-1.233-1.247c-.198-.101-1.836-.738-3.64-1.415L12.5 1.146l-.44-.01a3.74 3.74 0 0 0-.52.011m3.517 3.099c1.652.62 3.12 1.179 3.263 1.243.299.133.451.264.574.491.086.159.086.174.099 3.18.008 1.972-.002 3.166-.03 3.441-.236 2.297-1.879 4.671-4.703 6.798-.776.584-2.144 1.481-2.26 1.481-.052 0-.761-.433-1.288-.787-1.681-1.127-3.181-2.504-4.133-3.793-.658-.891-1.152-1.895-1.383-2.809-.19-.751-.203-1.058-.189-4.331.013-3.006.013-3.021.099-3.18.116-.215.273-.357.514-.466.34-.155 6.275-2.386 6.357-2.39.042-.002 1.428.503 3.08 1.122m-3.457.877c-.413.187-.568.451-.592 1.007-.02.442.014.407-.428.446-.575.051-1.229.382-1.7.862-.848.863-1.099 2.03-.678 3.157.309.828 1.025 1.501 1.911 1.798.3.101.337.104 1.727.125l1.42.022.217.12a.932.932 0 0 1 .484.625.986.986 0 0 1-.319 1.004c-.256.22-.343.231-1.727.23-1.554-.001-1.496.016-1.903-.571-.348-.502-1.122-.54-1.54-.076-.285.316-.332.73-.128 1.142.419.844 1.475 1.506 2.402 1.506H11v.335c0 .543.149.838.53 1.048a.96.96 0 0 0 .94 0c.379-.209.53-.506.53-1.042v-.329l.296-.025c1.115-.095 2.148-.904 2.523-1.977a2.88 2.88 0 0 0 .168-1.188 2.995 2.995 0 0 0-2.687-2.783c-.198-.02-.835-.038-1.415-.038-1.168-.001-1.276-.017-1.527-.232a.986.986 0 0 1-.319-1.004.932.932 0 0 1 .484-.625l.217-.12 1.173-.013c1.499-.016 1.688.022 1.928.389.293.448.606.628 1.04.596.602-.043 1.038-.672.864-1.244-.152-.499-.706-1.097-1.296-1.4a2.954 2.954 0 0 0-1.154-.329l-.286-.026-.017-.387c-.013-.291-.037-.426-.101-.546A.997.997 0 0 0 12 5.042c-.136 0-.289.031-.4.081" fill="#667085" fill-rule="evenodd"/></svg>