<svg width="24" height="24" fill="none" xmlns="http://www.w3.org/2000/svg"><path d="M11.54 1.147c-.341.093-6.679 2.502-6.96 2.646A2.84 2.84 0 0 0 3.347 5.04c-.344.7-.323.45-.339 4.08-.014 3.359-.001 3.722.158 4.5.106.52.351 1.274.589 1.813 1.036 2.344 3.328 4.741 6.385 6.678.611.387 1.073.633 1.345.716.271.082.753.084 1.017.003.68-.206 2.406-1.341 3.818-2.509.644-.532 1.885-1.777 2.335-2.341 1.375-1.725 2.125-3.417 2.306-5.2.03-.298.04-1.483.031-3.66-.016-3.63.005-3.38-.339-4.08a2.84 2.84 0 0 0-1.233-1.247c-.198-.101-1.836-.738-3.64-1.415L12.5 1.146l-.44-.01a3.74 3.74 0 0 0-.52.011m3.517 3.099c1.652.62 3.12 1.179 3.263 1.243.299.133.451.264.574.491.086.159.086.174.099 3.18.008 1.972-.002 3.166-.03 3.441-.236 2.297-1.879 4.671-4.703 6.798-.776.584-2.144 1.481-2.26 1.481-.052 0-.761-.433-1.288-.787-1.681-1.127-3.181-2.504-4.133-3.793-.658-.891-1.152-1.895-1.383-2.809-.19-.751-.203-1.058-.189-4.331.013-3.006.013-3.021.099-3.18.116-.215.273-.357.514-.466.34-.155 6.275-2.386 6.357-2.39.042-.002 1.428.503 3.08 1.122m.141 3.83a1.59 1.59 0 0 0-.2.083c-.054.028-.975.925-2.047 1.994l-1.949 1.944-.691-.683c-.787-.778-.92-.866-1.311-.866a.985.985 0 0 0-.886 1.437c.126.242 2.266 2.354 2.486 2.452.251.113.566.108.82-.013.297-.142 4.947-4.811 5.023-5.044.155-.476-.062-1.022-.497-1.247-.142-.073-.594-.108-.748-.057" fill="#667085" fill-rule="evenodd"/></svg>