<svg width="24" height="24" fill="none" xmlns="http://www.w3.org/2000/svg"><path d="M11.48 1.025a4.795 4.795 0 0 0-2.884 1.411A4.943 4.943 0 0 0 7.26 4.78l-.092.36-.734.024c-.797.027-1.139.087-1.484.26-.996.5-1.751 1.402-2.029 2.424-.142.523-.194.992-.642 5.752-.456 4.855-.499 5.519-.399 6.14.167 1.039.811 2 1.759 2.624.365.241.808.416 1.34.53l.401.086h13.24l.401-.086c.532-.114.975-.289 1.34-.53.947-.624 1.593-1.587 1.759-2.623.1-.626.057-1.286-.399-6.161-.443-4.727-.495-5.189-.642-5.732-.279-1.025-1.03-1.923-2.029-2.424-.345-.173-.687-.233-1.484-.26l-.734-.024-.092-.36a4.973 4.973 0 0 0-1.336-2.344c-.684-.684-1.457-1.115-2.364-1.32-.333-.075-1.259-.129-1.56-.091m1.318 2.109c.691.24 1.204.713 1.603 1.476l.204.39h-2.582C10.28 5 9.44 4.987 9.44 4.959c0-.023.056-.153.125-.29.451-.893 1.163-1.483 1.965-1.627.348-.063.949-.019 1.268.092M15 8.073c0 1.235.021 1.35.299 1.628a.984.984 0 0 0 1.402 0c.276-.276.299-.399.299-1.574V7.108l.522.026c.597.03.757.088 1.1.398.427.386.55.75.697 2.068.144 1.297.757 7.952.801 8.701.071 1.204-.007 1.556-.45 2.043-.396.433-.702.55-1.61.615-.748.054-11.372.054-12.12 0-.908-.065-1.214-.182-1.61-.615-.298-.327-.409-.566-.452-.974-.036-.345-.002-1.248.082-2.17.252-2.752.696-7.414.744-7.82.131-1.103.269-1.482.674-1.848.343-.31.503-.368 1.1-.398L7 7.108v1.019c0 1.175.023 1.298.299 1.574a.984.984 0 0 0 1.402 0C8.979 9.423 9 9.308 9 8.073V7h6v1.073" fill="#667085" fill-rule="evenodd"/></svg>