<svg width="24" height="24" fill="none" xmlns="http://www.w3.org/2000/svg"><path d="M6.403 2.044c-1.243.111-2.316.746-2.978 1.763-.372.572-.534 1.062-.645 1.955-.034.274-.27 2.991-.524 6.038-.426 5.109-.461 5.596-.444 6.26.013.494.039.794.084.956a4.064 4.064 0 0 0 1.676 2.322c.417.272.802.429 1.348.549l.42.093h13.32l.42-.093c.546-.12.931-.277 1.348-.549a3.986 3.986 0 0 0 1.637-2.206c.092-.309.108-.441.123-1.072.016-.663-.02-1.174-.465-6.48-.265-3.168-.509-5.922-.542-6.12-.163-.989-.475-1.63-1.101-2.262a3.741 3.741 0 0 0-1.132-.8c-.421-.202-.831-.304-1.418-.356-.567-.05-10.564-.048-11.127.002M17.731 4.09c.718.146 1.253.692 1.403 1.43.103.505.17 1.205.592 6.2.377 4.473.407 4.896.41 5.88l.004 1.06-.12.237c-.239.473-.677.848-1.121.961-.493.125-1.312.142-6.899.142s-6.406-.017-6.899-.142c-.444-.113-.882-.488-1.121-.961l-.12-.237.004-1.06c.004-.978.036-1.431.41-5.88.504-6.002.534-6.261.752-6.691.214-.423.711-.825 1.127-.912.46-.096 1.132-.107 6.147-.099 4.487.008 5.158.017 5.431.072M7.643 7.069a1.066 1.066 0 0 0-.577.591c-.115.339-.063 1.021.135 1.74.114.418.505 1.198.793 1.584.98 1.311 2.587 2.078 4.201 2.006 1.311-.06 2.399-.539 3.328-1.467.901-.902 1.394-1.987 1.464-3.223.027-.472-.016-.667-.198-.906a1 1 0 0 0-1.49-.095c-.203.203-.283.43-.316.901a2.806 2.806 0 0 1-.489 1.444 2.978 2.978 0 0 1-3.612 1.134A3.04 3.04 0 0 1 9.34 9.347c-.216-.442-.29-.715-.337-1.257-.029-.329-.057-.446-.14-.589a1.005 1.005 0 0 0-1.22-.432" fill="#667085" fill-rule="evenodd"/></svg>