<svg width="24" height="24" fill="none" xmlns="http://www.w3.org/2000/svg"><path d="M1.76 1.036c-.314.099-.591.362-.674.638-.064.214-.058.528.014.7.091.217.297.428.52.532.182.085.255.093.826.094h.626l.024.27c.014.149.223 3.465.465 7.37.327 5.281.456 7.151.502 7.3.137.442.51.826.955.983.214.075.403.077 7.194.077 7.749 0 7.185.02 7.487-.271.283-.274.386-.634.283-.987a1.095 1.095 0 0 0-.519-.635l-.163-.087-6.67-.01-6.67-.011v-.116c0-.136-.069-1.221-.102-1.613L5.835 15h6.793c4.442 0 6.882-.015 7.052-.042a2.965 2.965 0 0 0 1.706-.883c.437-.453.669-.906.79-1.549.114-.598.793-6.888.774-7.166-.035-.513-.368-.979-.87-1.217l-.26-.123-8.325-.01-8.325-.011-.023-.229a17.712 17.712 0 0 1-.049-.75c-.032-.693-.081-.955-.227-1.231-.154-.289-.366-.482-.706-.643L3.9 1.02l-1.02-.008c-.561-.004-1.065.007-1.12.024M20.595 8.79c-.171 1.535-.34 2.97-.376 3.19-.108.656-.32.909-.825.982-.146.021-3.097.037-6.96.037L5.728 13l-.025-.31c-.014-.17-.105-1.615-.203-3.21a440.32 440.32 0 0 0-.202-3.19L5.273 6h15.632l-.31 2.79M7.19 20.041c-.416.105-.826.44-1.017.829-.127.26-.168.698-.094 1.006.071.296.312.645.577.834.903.647 2.144.128 2.35-.982.079-.431-.122-1.011-.457-1.313-.348-.315-.945-.479-1.359-.374m9 0c-.416.105-.826.44-1.017.829-.127.26-.168.698-.094 1.006.162.675.864 1.172 1.575 1.115.847-.068 1.505-.914 1.346-1.729-.06-.311-.249-.665-.451-.847-.348-.315-.945-.479-1.359-.374" fill="#667085" fill-rule="evenodd"/></svg>