<svg width="24" height="24" fill="none" xmlns="http://www.w3.org/2000/svg"><path d="M1.657 1.576a1.241 1.241 0 0 0-.508.48c-.065.123-.087.234-.087.444 0 .329.09.534.323.739.262.23.367.256 1.121.273l.687.016.022.126c.012.069.645 4.086 1.407 8.926 1.25 7.94 1.397 8.824 1.499 9.048.2.439.599.748 1.099.852.134.028 2.144.038 6.12.031 6.713-.012 6.098.021 6.433-.351.359-.399.357-.96-.005-1.333-.303-.314.279-.285-6.128-.307L7.9 20.5l-.147-.92a36.5 36.5 0 0 1-.15-.99c-.003-.066.273-.07 5.267-.07 3.254 0 5.434-.016 5.698-.041.847-.08 1.344-.308 1.913-.878.418-.418.611-.738.761-1.261.043-.154.431-2.206.861-4.56a789 789 0 0 1 .818-4.44 1.336 1.336 0 0 0-.04-.747 1.501 1.501 0 0 0-.927-.999c-.198-.075-.395-.077-8.296-.075-4.451.001-8.101-.011-8.111-.028-.01-.017-.121-.679-.247-1.471-.254-1.607-.294-1.737-.622-2.066a2.033 2.033 0 0 0-.403-.301L4.06 1.54l-1.14-.01c-.895-.007-1.166.003-1.263.046m19.17 6.034c-.012.05-.33 1.791-.706 3.87-.377 2.079-.729 3.948-.783 4.154-.114.435-.196.566-.445.712-.158.093-.244.11-.687.138-.278.018-2.85.033-5.715.034l-5.209.002-.021-.09c-.011-.049-.326-2.043-.701-4.43-.375-2.387-.689-4.371-.697-4.41-.015-.066.362-.07 7.485-.07h7.501l-.022.09" fill="#667085" fill-rule="evenodd"/></svg>