<svg width="24" height="24" fill="none" xmlns="http://www.w3.org/2000/svg"><path d="M1.748 1.056c-.262.096-.445.245-.559.454-.225.414-.172.856.143 1.18.258.266.431.31 1.206.31h.644l.13.91c.071.5.444 3.205.828 6.01.402 2.94.733 5.227.782 5.399.142.51.371.897.757 1.281.554.552 1.076.795 1.881.878.563.058 10.522.057 11.086 0 .762-.079 1.35-.349 1.855-.855.436-.437.665-.861.82-1.522.06-.25 1.408-7.267 1.607-8.361a1.516 1.516 0 0 0-.139-.897c-.118-.251-.441-.564-.729-.705l-.24-.118-8.17-.01c-4.494-.006-8.17-.024-8.17-.04 0-.017-.09-.669-.201-1.45-.179-1.26-.215-1.448-.32-1.664a1.66 1.66 0 0 0-.75-.729c-.228-.106-.234-.107-1.269-.117-.809-.007-1.074.003-1.192.046M20.821 7.09c-.011.05-.309 1.611-.662 3.47-.709 3.733-.813 4.232-.922 4.446-.09.177-.326.379-.517.443-.182.06-9.891.094-10.715.037-.618-.043-.715-.076-.935-.321-.234-.258-.21-.126-.808-4.545-.254-1.87-.47-3.45-.48-3.51L5.762 7h15.08l-.021.09M8.585 19.063c-.987.24-1.676 1.252-1.513 2.227.272 1.628 2.22 2.272 3.369 1.113.41-.415.599-.856.599-1.403 0-.54-.188-.987-.586-1.39a1.966 1.966 0 0 0-1.869-.547m8 0c-.987.24-1.676 1.252-1.513 2.227.272 1.628 2.22 2.272 3.369 1.113.41-.415.599-.856.599-1.403 0-.54-.188-.987-.586-1.39a1.966 1.966 0 0 0-1.869-.547" fill="#667085" fill-rule="evenodd"/></svg>