<svg width="24" height="24" fill="none" xmlns="http://www.w3.org/2000/svg"><path d="M17.643 2.069C17.291 2.193 17 2.614 17 3c0 .364.088.496.854 1.27l.721.73-.517.001c-1.049.001-1.533.093-2.198.418-.53.259-.99.618-1.317 1.026-.129.162-1.585 2.32-3.235 4.795s-3.121 4.663-3.268 4.862c-.306.413-.566.624-.954.773l-.266.102-2.04.022c-2.037.021-2.04.021-2.23.115-.602.296-.73 1.108-.25 1.588.308.308.291.306 2.649.288 1.947-.015 2.09-.021 2.392-.1.843-.221 1.601-.699 2.11-1.33.133-.165 1.592-2.325 3.242-4.8a510.473 510.473 0 0 1 3.255-4.848c.295-.402.459-.543.832-.718.306-.143.623-.188 1.338-.192L18.575 7l-.721.73c-.611.618-.732.76-.788.927-.13.388-.046.765.233 1.044.278.278.655.363 1.044.234.176-.059.369-.237 1.828-1.69 1.113-1.109 1.658-1.679 1.714-1.795.057-.117.083-.255.086-.44.005-.456-.017-.483-1.818-2.275-1.441-1.433-1.634-1.611-1.81-1.67a1.032 1.032 0 0 0-.7.004m-15 3C2.291 5.193 2 5.614 2 6c0 .242.119.521.299.701.295.295.32.299 2.298.301.959.001 1.881.017 2.049.034a2.06 2.06 0 0 1 1.015.423c.153.125.521.618 1.09 1.46.196.29.262.356.459.457a.988.988 0 0 0 1.417-.616c.11-.375.05-.544-.481-1.339-.599-.898-.859-1.218-1.245-1.529-.359-.289-1.06-.652-1.446-.75-.454-.114-.988-.141-2.815-.138-1.542.002-1.847.012-1.997.065m15 9c-.352.124-.643.545-.643.931 0 .364.088.495.856 1.275l.724.734-.7-.02c-.615-.017-.732-.031-.966-.118-.523-.193-.76-.442-1.547-1.619-.392-.587-.545-.701-.969-.725-.495-.028-.889.245-1.025.712-.11.376-.05.545.48 1.34.25.375.563.816.696.981a3.982 3.982 0 0 0 2.111 1.326c.243.061.511.086 1.112.103l.792.022-.716.725c-.759.768-.848.9-.848 1.264 0 .563.523 1.044 1.078.991.376-.036.463-.109 2.167-1.82 1.514-1.519 1.63-1.646 1.695-1.845.084-.26.066-.525-.052-.77-.06-.124-.572-.66-1.717-1.801-1.459-1.453-1.652-1.631-1.828-1.69a1.032 1.032 0 0 0-.7.004" fill="#667085" fill-rule="evenodd"/></svg>