<svg width="24" height="24" fill="none" xmlns="http://www.w3.org/2000/svg"><path d="M2.643 2.069C2.291 2.193 2 2.614 2 3c0 .08.029.234.065.343.059.18.34.473 3.19 3.328 2.254 2.258 3.174 3.155 3.301 3.216.858.417 1.748-.473 1.331-1.331-.061-.127-.958-1.047-3.216-3.301-2.855-2.85-3.148-3.131-3.328-3.19a1.038 1.038 0 0 0-.7.004m13 0C15.291 2.193 15 2.614 15 3c0 .396.291.808.66.934.166.056.393.066 1.557.066h1.363l-8.225 8.23c-7.599 7.603-8.23 8.245-8.29 8.427-.128.39-.044.766.234 1.044s.654.362 1.044.234c.182-.06.824-.691 8.427-8.29L20 5.42v1.363c0 1.556.012 1.631.299 1.918a.984.984 0 0 0 1.402 0c.308-.307.299-.215.299-3.201s.009-2.894-.299-3.201c-.308-.308-.213-.299-3.218-.296-2.304.003-2.687.012-2.84.066m-1 12c-.352.124-.643.545-.643.931 0 .08.029.234.065.343.059.178.278.41 2.289 2.427L18.578 20h-1.362c-1.163 0-1.39.01-1.556.066-.369.126-.66.538-.66.934 0 .242.119.521.299.701.307.308.215.299 3.201.299s2.894.009 3.201-.299c.308-.307.299-.215.299-3.201s.009-2.894-.299-3.201a.984.984 0 0 0-1.402 0c-.287.287-.299.362-.299 1.917v1.362l-2.23-2.224c-2.017-2.011-2.249-2.23-2.427-2.289a1.032 1.032 0 0 0-.7.004" fill="#667085" fill-rule="evenodd"/></svg>