<svg width="24" height="24" fill="none" xmlns="http://www.w3.org/2000/svg"><path d="M10.8 2.54a10.923 10.923 0 0 0-8.661 6.08 10.95 10.95 0 0 0-.781 7.593c.38 1.467 1.133 2.974 2.062 4.125.772.956 1.064 1.183 1.518 1.181a.879.879 0 0 0 .727-.331.95.95 0 0 0 .254-.693c-.001-.279-.111-.486-.454-.852-1.07-1.145-1.818-2.499-2.181-3.947-.21-.84-.261-1.27-.262-2.216 0-.953.056-1.437.26-2.249.764-3.037 3.179-5.535 6.196-6.408.932-.27 1.339-.322 2.522-.322.935 0 1.117.011 1.54.091 2.519.477 4.586 1.835 5.969 3.922a8.983 8.983 0 0 1 1.21 7.172 9.024 9.024 0 0 1-2.184 3.957c-.166.177-.335.397-.377.489-.155.342-.072.805.194 1.083a.907.907 0 0 0 .71.304c.369.001.587-.126 1.01-.593.787-.868 1.27-1.574 1.768-2.586A10.831 10.831 0 0 0 22.885 15c.127-.832.128-2.248 0-3.08-.447-2.929-1.945-5.477-4.249-7.226a10.987 10.987 0 0 0-5.471-2.155 13.342 13.342 0 0 0-2.365.001m.44 3.965c-3.05.375-5.453 2.554-6.082 5.515-.476 2.24.2 4.622 1.775 6.256.373.387.692.501 1.085.386.261-.075.505-.276.634-.519.064-.122.086-.234.086-.443 0-.331-.058-.46-.351-.78-.859-.94-1.314-2.005-1.376-3.224-.088-1.741.757-3.411 2.229-4.404.279-.188.867-.47 1.22-.585.505-.164.935-.227 1.54-.227.879 0 1.506.15 2.28.545 1.355.691 2.301 1.94 2.63 3.473.097.454.096 1.478-.004 1.942a5.22 5.22 0 0 1-1.293 2.48c-.293.32-.351.449-.351.78 0 .332.088.529.333.75.147.133.474.27.645.27.219 0 .505-.138.732-.354 1.523-1.448 2.292-3.847 1.929-6.026a6.992 6.992 0 0 0-4.709-5.517c-.721-.236-1.193-.311-2.052-.324a14.374 14.374 0 0 0-.9.006m.1 4.04c-.36.076-.934.355-1.239.603a3.144 3.144 0 0 0-1.006 1.572c-.106.393-.098 1.128.017 1.532.186.652.631 1.311 1.026 1.52.227.12.658.119.885 0 .483-.256.697-.855.467-1.312a1.998 1.998 0 0 0-.196-.288c-.401-.495-.382-1.071.047-1.447.209-.184.373-.245.659-.245.286 0 .45.061.659.245.421.369.447.981.061 1.421-.276.314-.363.645-.262.994.075.259.277.504.519.632.227.119.658.12.885 0 .402-.212.857-.899 1.043-1.574.096-.353.097-1.121 0-1.478a2.976 2.976 0 0 0-1.605-1.941 3.097 3.097 0 0 0-1.96-.234" fill="#667085" fill-rule="evenodd"/></svg>