<svg width="24" height="24" fill="none" xmlns="http://www.w3.org/2000/svg"><path d="M4.7 1.997c-.218.054-.359.153-.667.469a8.23 8.23 0 0 0-.924 1.101A11.011 11.011 0 0 0 1.014 10.4c.106 2.754 1.205 5.364 3.044 7.227.319.323.389.375.591.433.605.173 1.219-.245 1.263-.859.028-.379-.058-.562-.479-1.021-2.022-2.208-2.825-5.04-2.249-7.94.316-1.59 1.045-3.004 2.243-4.349.425-.477.493-.609.493-.956-.002-.612-.616-1.085-1.22-.938m14.06.022c-.516.167-.795.727-.633 1.27.031.103.177.303.424.58.729.819 1.119 1.386 1.532 2.231 1.637 3.347 1.05 7.288-1.499 10.06-.457.496-.482.545-.483.943-.001.291.011.343.12.52a1 1 0 0 0 1.127.437c.265-.078.544-.325 1.079-.96 1.559-1.848 2.461-4.203 2.558-6.68a11.033 11.033 0 0 0-2.518-7.4c-.374-.449-.792-.861-.961-.947a1.08 1.08 0 0 0-.746-.054M7.338 4.893C6.923 5.091 6.208 6 5.76 6.9a6.815 6.815 0 0 0-.717 2.428c-.219 1.993.523 4.145 1.916 5.555.277.281.512.397.801.397.396 0 .808-.291.934-.66.143-.419.056-.728-.323-1.149-.677-.753-1.111-1.601-1.296-2.531-.072-.367-.072-1.431 0-1.8.188-.96.607-1.782 1.289-2.53.381-.418.475-.735.335-1.132-.142-.405-.456-.639-.892-.666-.222-.014-.301 0-.469.081m8.572-.036a1.001 1.001 0 0 0-.613 1.253c.046.139.151.293.338.499.864.947 1.297 1.976 1.353 3.211.062 1.348-.398 2.583-1.359 3.651-.379.421-.466.73-.323 1.149.126.369.538.66.934.66.289 0 .524-.116.801-.397 1.356-1.373 2.104-3.472 1.927-5.413a6.706 6.706 0 0 0-.728-2.57c-.45-.903-1.166-1.813-1.578-2.005a1.025 1.025 0 0 0-.752-.038m-4.53 2.248c-.456.096-1.034.401-1.392.735-1.24 1.158-1.318 2.949-.175 4.03.258.244.756.576 1.007.672l.18.069v4.287c0 4.822-.018 4.526.299 4.843a.984.984 0 0 0 1.402 0c.317-.317.299-.021.299-4.843v-4.287l.18-.069c.251-.096.749-.428 1.007-.672 1.142-1.08 1.064-2.873-.175-4.03a3.005 3.005 0 0 0-2.632-.735m1.081 2.046c.352.181.517.464.518.889.001.257-.015.327-.11.489a.986.986 0 0 1-.547.45.993.993 0 0 1-1.191-.45c-.095-.162-.111-.232-.11-.489.001-.49.235-.813.699-.965.165-.054.569-.013.741.076" fill="#667085" fill-rule="evenodd"/></svg>