<svg width="24" height="24" fill="none" xmlns="http://www.w3.org/2000/svg"><path d="M4.7 3.956c-.23.059-.367.161-.723.532-1.515 1.587-2.506 3.648-2.862 5.956-.128.829-.128 2.283 0 3.112.356 2.308 1.347 4.369 2.863 5.956.507.531.779.645 1.226.514.544-.159.836-.716.669-1.275-.03-.098-.163-.287-.35-.499-.793-.892-1.183-1.453-1.605-2.312a8.934 8.934 0 0 1 0-7.88c.422-.859.812-1.42 1.605-2.312.187-.212.32-.401.35-.499.143-.48-.039-.949-.459-1.177-.211-.116-.523-.166-.714-.116m14.16 0c-.595.155-.908.708-.733 1.293.03.098.163.287.35.499.793.891 1.182 1.452 1.605 2.312a8.947 8.947 0 0 1 0 7.88c-.426.866-.784 1.382-1.605 2.31-.186.211-.32.403-.35.501-.167.559.125 1.116.669 1.275.437.128.718.016 1.186-.472 1.578-1.645 2.575-3.738 2.924-6.134.097-.668.097-2.172 0-2.84-.301-2.069-1.07-3.88-2.3-5.42-.453-.566-.922-1.041-1.112-1.126-.198-.089-.468-.122-.634-.078M7.43 6.815c-.22.082-.4.232-.714.599-1.259 1.465-1.879 3.426-1.673 5.298a7.118 7.118 0 0 0 1.677 3.879c.458.534.723.68 1.152.636a.977.977 0 0 0 .827-.665c.143-.405.047-.716-.361-1.167a5.11 5.11 0 0 1-1.244-2.403c-.053-.245-.072-.505-.072-.992s.019-.747.072-.992c.199-.917.6-1.691 1.244-2.403.408-.451.504-.762.361-1.167a.95.95 0 0 0-.871-.663 1.046 1.046 0 0 0-.398.04m8.475.004a1.01 1.01 0 0 0-.607 1.255c.047.143.154.299.363.53A5.154 5.154 0 0 1 16.903 11c.092.429.104 1.485.022 1.9a5.236 5.236 0 0 1-1.263 2.495c-.408.451-.504.762-.361 1.167a.992.992 0 0 0 1.531.479c.407-.295 1.103-1.248 1.463-2.001a6.967 6.967 0 0 0 0-6.08c-.347-.727-1.033-1.676-1.433-1.981a1.021 1.021 0 0 0-.957-.16M11.44 9.057c-.623.132-1.1.395-1.567.863-.298.3-.374.407-.547.764-.438.904-.437 1.729.001 2.634.178.368.247.463.568.782.403.401.76.616 1.305.786.431.135 1.169.135 1.6 0 .546-.17.902-.385 1.302-.784.399-.4.614-.756.784-1.302.135-.431.135-1.169 0-1.6a2.887 2.887 0 0 0-.784-1.302c-.303-.302-.424-.392-.742-.55a4.324 4.324 0 0 0-.62-.251c-.336-.087-.981-.107-1.3-.04m1.06 2.081c.672.394.652 1.389-.035 1.753-.246.13-.701.125-.943-.011-.749-.42-.659-1.524.148-1.825.229-.086.607-.048.83.083" fill="#667085" fill-rule="evenodd"/></svg>