<svg width="24" height="24" fill="none" xmlns="http://www.w3.org/2000/svg"><path d="M6.692 1.044c-.835.074-1.498.323-2.126.796-.698.526-1.233 1.341-1.424 2.166-.139.601-.146 1.071-.132 8.314.013 6.494.021 7.17.082 7.467.199.97.73 1.824 1.48 2.384.539.402.985.601 1.656.737.328.067.717.072 5.772.072 5.067 0 5.443-.005 5.775-.072 1.635-.333 2.8-1.498 3.133-3.133.067-.332.072-.706.072-5.715 0-5.997.018-5.594-.288-6.34-.289-.706-.4-.834-2.849-3.294-1.244-1.25-2.407-2.389-2.583-2.53a3.97 3.97 0 0 0-2.031-.853c-.454-.051-5.968-.05-6.537.001m6.728 2.073c.132.052.312.14.4.193.088.054 1.214 1.154 2.503 2.444 2.122 2.125 2.354 2.37 2.467 2.606.069.143.144.377.167.52.056.343.058 9.105.003 9.96-.023.341-.066.715-.097.831-.105.393-.455.821-.872 1.065-.407.238-.352.236-5.611.253-4.838.016-5.573.001-6.051-.126-.531-.141-1.048-.668-1.19-1.213-.119-.455-.138-1.532-.138-7.65 0-6.131.019-7.195.139-7.654.144-.552.666-1.067 1.226-1.211.407-.104 1.131-.126 4.034-.12l2.78.006.24.096m-5.211 8.925a1.792 1.792 0 0 0-.794.449c-.079.088-.2.278-.269.424l-.126.265v4.64l.126.265c.175.37.368.568.727.745l.303.15h3.802c3.638 0 3.811-.003 4.007-.076.422-.157.762-.497.919-.919.071-.193.076-.343.076-2.507v-2.302l-.15-.303c-.177-.359-.375-.552-.745-.727l-.265-.126-3.72-.006c-2.046-.004-3.797.009-3.891.028M15 15.5V17H9v-3h6v1.5" fill="#667085" fill-rule="evenodd"/></svg>