<svg width="24" height="24" fill="none" xmlns="http://www.w3.org/2000/svg"><path d="M4.558 2.055a1.949 1.949 0 0 0-.961.544c-.282.28-.435.548-.536.939-.089.346-.089 2.578 0 2.924.1.389.254.659.536.941.345.344.604.47 1.036.504.33.025.331.025.309.129-.013.057-.329 1.823-.703 3.924a2121.8 2121.8 0 0 1-.701 3.924c-.022.103-.026.104-.49.128-.527.027-.8.104-1.135.318-.419.268-.72.696-.852 1.208-.089.346-.089 2.578 0 2.924.194.755.794 1.34 1.531 1.494.283.059 2.533.059 2.816 0 .369-.077.709-.266.995-.552.354-.355.479-.618.507-1.063L6.931 20h8.138l.021.341c.028.445.153.708.507 1.063.286.286.626.475.995.552.127.026.689.044 1.408.044 1.301 0 1.473-.019 1.88-.211.326-.153.743-.559.892-.869.209-.435.228-.595.228-1.92s-.019-1.485-.228-1.92c-.129-.267-.559-.705-.816-.83a.96.96 0 0 0-.35-.09c-.146 0-.166-.011-.164-.09 0-.05.258-1.888.572-4.085l.572-3.994.397-.012c.661-.02 1.095-.207 1.494-.643.224-.245.373-.527.462-.874.089-.346.089-2.578 0-2.924-.1-.39-.254-.659-.536-.939a1.952 1.952 0 0 0-1.02-.556c-.311-.056-2.455-.056-2.766 0-.37.068-.722.259-1.02.556-.354.351-.479.614-.507 1.06L17.069 4H8.931l-.021-.341c-.028-.446-.153-.709-.507-1.06a1.952 1.952 0 0 0-1.02-.556c-.328-.059-2.536-.051-2.825.012m2.401 2.022c.044.083.058 1.676.016 1.833L6.951 6H6c-.831 0-.955-.008-.976-.063-.048-.127-.027-1.838.024-1.889.035-.035.304-.048.959-.048.859 0 .913.004.952.077m14 0c.044.083.058 1.676.016 1.833l-.024.09H20c-.831 0-.955-.008-.976-.063-.048-.127-.027-1.838.024-1.889.035-.035.304-.048.959-.048.859 0 .913.004.952.077M17.09 6.341c.028.445.153.708.507 1.062.299.298.552.437.796.437.132 0 .167.014.167.07 0 .079-1.11 7.901-1.141 8.04-.02.086-.039.09-.413.09-.639 0-1.082.186-1.48.621-.296.324-.41.586-.436.998l-.021.341H6.931l-.021-.341c-.016-.257-.047-.394-.127-.557-.216-.442-.709-.867-1.056-.913a.812.812 0 0 1-.186-.036c-.009-.009 1.437-8.161 1.457-8.217.001-.003.155-.014.343-.026.445-.028.708-.153 1.062-.507.354-.354.479-.617.507-1.062L8.931 6h8.138l.021.341M4.959 18.077c.044.083.058 1.676.016 1.833l-.024.09H4c-.831 0-.955-.008-.976-.063-.048-.127-.027-1.838.024-1.889.035-.035.304-.048.959-.048.859 0 .913.004.952.077m14 0c.044.083.058 1.676.016 1.833l-.024.09H18c-.831 0-.955-.008-.976-.063-.048-.127-.027-1.838.024-1.889.035-.035.304-.048.959-.048.859 0 .913.004.952.077" fill="#667085" fill-rule="evenodd"/></svg>