<svg width="24" height="24" fill="none" xmlns="http://www.w3.org/2000/svg"><path d="M18.643 4.069a1.118 1.118 0 0 0-.343.229c-.325.325-.3-.323-.3 7.702 0 8.023-.025 7.377.299 7.701a.984.984 0 0 0 1.402 0c.324-.324.299.322.299-7.701s.025-7.377-.299-7.701a.998.998 0 0 0-1.058-.23M5.68 4.105c-.8.154-1.364.673-1.587 1.458-.069.244-.073.577-.073 6.437 0 5.873.004 6.193.073 6.44.11.387.292.698.552.938.543.503 1.322.67 1.97.422.129-.049.399-.2.6-.335.511-.344 7.355-5.819 7.63-6.103a1.96 1.96 0 0 0 0-2.724c-.27-.28-7.156-5.786-7.651-6.117a3.759 3.759 0 0 0-.58-.321c-.23-.086-.72-.136-.934-.095m.7 2.291c.516.391 6.804 5.437 6.876 5.518.075.085.075.087 0 .172-.071.081-6.309 5.088-6.914 5.55-.248.189-.281.204-.307.138C6 17.686 5.99 6.38 6.025 6.25c.028-.102.028-.102.355.146" fill="#667085" fill-rule="evenodd"/></svg>