<svg width="24" height="24" fill="none" xmlns="http://www.w3.org/2000/svg"><path d="M4.643 4.069a1.118 1.118 0 0 0-.343.229C3.975 4.623 4 3.975 4 12c0 8.023-.025 7.377.299 7.701a.984.984 0 0 0 1.402 0C6.025 19.377 6 20.023 6 12s.025-7.377-.299-7.701a.998.998 0 0 0-1.058-.23m12.927.07c-.246.069-.46.175-.767.376-.385.253-7.413 5.879-7.648 6.123a1.96 1.96 0 0 0 0 2.724c.191.197 6.78 5.493 7.452 5.989.692.51 1.25.663 1.855.508.745-.191 1.257-.702 1.447-1.443.066-.258.071-.673.071-6.416 0-5.701-.005-6.159-.07-6.41-.174-.679-.593-1.144-1.248-1.387-.311-.115-.808-.144-1.092-.064M17.994 12c0 3.135-.013 5.733-.029 5.774-.026.066-.059.051-.307-.138-.605-.462-6.843-5.469-6.914-5.55-.075-.085-.075-.087 0-.172.077-.087 6.168-4.976 6.834-5.486.313-.239.363-.265.388-.201.015.04.028 2.638.028 5.773" fill="#667085" fill-rule="evenodd"/></svg>