<svg width="24" height="24" fill="none" xmlns="http://www.w3.org/2000/svg"><path d="M11.26 1.023c-1.717.171-2.87.493-4.22 1.178C3.214 4.144.865 8.104 1.013 12.36c.136 3.913 2.267 7.366 5.736 9.296 3.274 1.821 7.48 1.775 10.721-.119.973-.569 2.29-1.629 2.479-1.996.035-.066.161-.229.281-.361.292-.322.829-1.037 1.109-1.48.286-.452.809-1.516 1-2.034 1.181-3.205.747-6.827-1.159-9.686-1.801-2.7-4.44-4.38-7.64-4.864-.497-.075-1.887-.132-2.28-.093m1.947 2.074c1.371.212 2.759.809 3.969 1.704l.346.257-2.761 2.761L12 10.58 9.239 7.819 6.478 5.058l.346-.257c1.249-.924 2.775-1.563 4.1-1.717.207-.024.43-.052.496-.061.236-.033 1.407.015 1.787.074M7.819 14.761l-2.761 2.761-.257-.346c-.731-.988-1.29-2.153-1.557-3.246-.169-.694-.222-1.149-.222-1.93 0-.781.053-1.236.222-1.93.267-1.093.826-2.258 1.557-3.246l.257-.346 2.761 2.761L10.58 12l-2.761 2.761m11.419-7.884c.889 1.21 1.491 2.653 1.686 4.043.069.489.069 1.671 0 2.16-.198 1.411-.807 2.856-1.725 4.096l-.257.346-2.761-2.761L13.42 12l2.759-2.759c1.517-1.518 2.771-2.746 2.785-2.73.014.016.138.181.274.366m-4.466 9.315 2.751 2.751-.28.209c-1.233.92-2.521 1.485-4.003 1.756-.535.097-1.945.097-2.48 0-1.482-.271-2.77-.836-4.003-1.756l-.28-.209 2.751-2.751A273.035 273.035 0 0 1 12 13.44c.011 0 1.258 1.238 2.772 2.752" fill="#667085" fill-rule="evenodd"/></svg>