<svg width="24" height="24" fill="none" xmlns="http://www.w3.org/2000/svg"><path d="M11.26 1.026c-3.142.255-5.897 1.699-7.833 4.107a10.961 10.961 0 0 0-1.771 10.594c.568 1.566 1.378 2.832 2.581 4.036 1.716 1.715 3.762 2.749 6.183 3.124.683.106 2.271.127 2.9.039 2.161-.303 3.916-1.049 5.56-2.361.492-.393.99-.87 1.069-1.024.035-.066.161-.229.281-.361.292-.322.829-1.037 1.109-1.48.286-.452.809-1.516 1-2.034 1.278-3.467.679-7.314-1.612-10.346-.421-.558-1.32-1.474-1.875-1.912A10.989 10.989 0 0 0 12.9 1.043a13.126 13.126 0 0 0-1.64-.017m2.06 2.076a9.024 9.024 0 0 1 5.664 3.218c.816 1.005 1.483 2.358 1.771 3.6.221.947.293 2.295.17 3.16a8.803 8.803 0 0 1-1.176 3.263c-.211.355-.65.996-.785 1.146-.014.016-2.83-2.774-6.256-6.201l-6.23-6.23.346-.257c1.249-.924 2.775-1.563 4.1-1.717.207-.024.43-.052.496-.061.246-.035 1.494.017 1.9.079m4.089 15.927c-.307.257-1.232.837-1.7 1.066-1.178.579-2.208.848-3.429.893-2.72.102-5.425-1.099-7.15-3.175a9.04 9.04 0 0 1-2.035-4.533c-.087-.571-.098-1.811-.02-2.36.202-1.417.809-2.856 1.726-4.096l.257-.346 6.23 6.23 6.23 6.23-.109.091" fill="#667085" fill-rule="evenodd"/></svg>