<svg width="24" height="24" fill="none" xmlns="http://www.w3.org/2000/svg"><path d="M4.643 2.069a1.118 1.118 0 0 0-.343.229C3.997 2.601 4 2.572 4 5c0 2.427-.003 2.399.299 2.701a.984.984 0 0 0 1.402 0C6.003 7.399 6 7.427 6 5s.003-2.399-.299-2.701a.998.998 0 0 0-1.058-.23m7 0a1.066 1.066 0 0 0-.577.591c-.058.169-.066.423-.066 1.982v1.787l-.18.069c-.25.096-.748.427-1.011.674a2.833 2.833 0 0 0-.691 1.071c-.081.247-.097.377-.098.777 0 .557.078.867.352 1.4.23.447.761.978 1.208 1.208.538.277.841.352 1.42.352s.882-.075 1.42-.352c.447-.23.978-.761 1.208-1.208.274-.533.352-.843.352-1.4-.001-.4-.017-.53-.098-.777a2.833 2.833 0 0 0-.691-1.071c-.263-.247-.761-.578-1.011-.674L13 6.429V4.642c0-2.029-.002-2.046-.299-2.343a.998.998 0 0 0-1.058-.23m7 0a1.118 1.118 0 0 0-.343.229c-.313.313-.3.157-.3 3.702 0 3.544-.013 3.39.299 3.701a.984.984 0 0 0 1.402 0C20.013 9.39 20 9.544 20 6s.013-3.39-.299-3.701a.998.998 0 0 0-1.058-.23M12.5 8.138c.672.394.652 1.389-.035 1.753-.246.13-.701.125-.943-.011-.749-.42-.659-1.524.148-1.825.229-.086.607-.048.83.083m-8.06 1.919a2.93 2.93 0 0 0-1.561.859 2.924 2.924 0 0 0-.765 1.284c-.136.434-.134 1.135.004 1.557.126.385.401.8.736 1.113.262.244.756.564 1.016.659l.13.047v2.785c0 3.141-.01 3.031.299 3.34a.984.984 0 0 0 1.402 0c.309-.309.299-.199.299-3.34v-2.785l.13-.047c.251-.091.746-.409.992-.638.346-.32.611-.713.746-1.104.098-.287.112-.386.112-.807 0-.557-.078-.867-.352-1.4-.248-.482-.76-.98-1.268-1.232a4.324 4.324 0 0 0-.62-.251c-.336-.087-.981-.107-1.3-.04m1.06 2.081c.672.394.652 1.389-.035 1.753-.246.13-.701.125-.943-.011-.749-.42-.659-1.524.148-1.825.229-.086.607-.048.83.083m12.94-.081a2.93 2.93 0 0 0-1.561.859 2.924 2.924 0 0 0-.765 1.284c-.136.434-.134 1.135.004 1.557.126.385.401.8.736 1.113.262.244.756.564 1.016.659l.13.047v1.785c0 2.025.002 2.043.299 2.34.18.18.459.299.701.299.242 0 .521-.119.701-.299.297-.297.299-.315.299-2.34v-1.785l.13-.047c.251-.091.746-.409.992-.638.346-.32.611-.713.746-1.104.098-.287.112-.386.112-.807 0-.557-.078-.867-.352-1.4-.248-.482-.76-.98-1.268-1.232a4.324 4.324 0 0 0-.62-.251c-.336-.087-.981-.107-1.3-.04m-6.797 2.012a1.118 1.118 0 0 0-.343.229c-.313.313-.3.157-.3 3.702 0 3.544-.013 3.39.299 3.701a.984.984 0 0 0 1.402 0c.312-.311.299-.157.299-3.701s.013-3.39-.299-3.701a.998.998 0 0 0-1.058-.23m7.857.069c.672.394.652 1.389-.035 1.753-.246.13-.701.125-.943-.011-.749-.42-.659-1.524.148-1.825.229-.086.607-.048.83.083" fill="#667085" fill-rule="evenodd"/></svg>