<svg width="24" height="24" fill="none" xmlns="http://www.w3.org/2000/svg"><path d="M17.34 4.063c-1.398.246-2.594 1.295-3.054 2.677l-.08.24L8.473 7l-5.733.02-.19.094a.988.988 0 0 0-.489 1.211.982.982 0 0 0 .489.561l.19.094L8.473 9l5.733.02.08.24c.464 1.394 1.654 2.434 3.069 2.681C19.735 12.357 22 10.435 22 8c0-2.442-2.268-4.357-4.66-3.937m1.043 1.98c.578.106 1.157.55 1.41 1.082a2.001 2.001 0 0 1-.354 2.25c-.778.831-2.1.831-2.878 0-.754-.806-.739-2.004.035-2.779.489-.488 1.102-.678 1.787-.553m-12.95 6c-.426.063-.732.161-1.173.376a3.883 3.883 0 0 0-1.842 1.841c-.308.628-.396 1.013-.396 1.74 0 .727.088 1.112.396 1.74.975 1.986 3.342 2.818 5.278 1.856a4.09 4.09 0 0 0 2.018-2.336l.08-.24 5.733-.02 5.733-.02.19-.094a.982.982 0 0 0 .489-.561.988.988 0 0 0-.489-1.211l-.19-.094-5.733-.02-5.733-.02-.08-.24c-.606-1.823-2.426-2.969-4.281-2.697m.95 2c.578.106 1.157.55 1.41 1.082a2.001 2.001 0 0 1-.354 2.25c-.778.831-2.1.831-2.878 0-.754-.806-.739-2.004.035-2.779.489-.488 1.102-.678 1.787-.553" fill="#667085" fill-rule="evenodd"/></svg>