<svg width="24" height="24" fill="none" xmlns="http://www.w3.org/2000/svg"><path d="M4.643 2.069a1.118 1.118 0 0 0-.343.229c-.316.315-.3.097-.3 4.202 0 4.104-.015 3.887.299 4.201a.984.984 0 0 0 1.402 0C6.015 10.387 6 10.604 6 6.5c0-4.104.015-3.887-.299-4.201a.998.998 0 0 0-1.058-.23m7 0a1.118 1.118 0 0 0-.343.229c-.302.302-.3.282-.3 2.629V7H9.927c-1.235 0-1.35.021-1.628.299a.984.984 0 0 0 0 1.402C8.61 9.013 8.456 9 12 9s3.39.013 3.701-.299a.984.984 0 0 0 0-1.402C15.423 7.021 15.308 7 14.073 7H13V4.927c0-2.346.002-2.327-.299-2.628a.998.998 0 0 0-1.058-.23m7 0a1.118 1.118 0 0 0-.343.229c-.32.32-.3-.022-.3 5.202 0 5.223-.02 4.883.299 5.201a.984.984 0 0 0 1.402 0c.319-.318.299.022.299-5.201s.02-4.883-.299-5.201a.998.998 0 0 0-1.058-.23m-7 9a1.118 1.118 0 0 0-.343.229c-.32.32-.3-.022-.3 5.202 0 5.223-.02 4.883.299 5.201a.984.984 0 0 0 1.402 0c.319-.318.299.022.299-5.201s.02-4.883-.299-5.201a.998.998 0 0 0-1.058-.23m-10 2C1.291 13.193 1 13.614 1 14c0 .396.291.808.66.934.162.055.373.066 1.267.066H4v3.073c0 3.463-.012 3.317.299 3.628a.984.984 0 0 0 1.402 0c.311-.311.299-.165.299-3.628V15h1.073c1.235 0 1.35-.021 1.628-.299a.984.984 0 0 0 0-1.402c-.312-.312-.154-.299-3.718-.296-2.757.003-3.186.011-3.34.066m14 2c-.352.124-.643.545-.643.931 0 .396.291.808.66.934.162.055.373.066 1.267.066H18v2.073c0 2.346-.002 2.327.299 2.628a.984.984 0 0 0 1.402 0c.301-.301.299-.282.299-2.628V17h1.073c1.235 0 1.35-.021 1.628-.299a.984.984 0 0 0 0-1.402c-.312-.312-.154-.299-3.718-.296-2.757.003-3.186.011-3.34.066" fill="#667085" fill-rule="evenodd"/></svg>