<svg width="24" height="24" fill="none" xmlns="http://www.w3.org/2000/svg"><path d="M8.643 1.069C8.291 1.193 8 1.614 8 2c0 .08.029.234.065.343.059.175.225.356 1.5 1.638L11 5.422v4.849L8.93 9.077c-1.138-.656-2.091-1.226-2.116-1.265-.026-.04-.265-.891-.531-1.892-.267-1.001-.526-1.901-.576-2-.337-.663-1.345-.676-1.728-.022-.208.355-.196.448.293 2.262.241.891.434 1.624.431 1.629-.004.004-.744.206-1.644.448-1.802.485-1.86.509-2.078.861-.107.173-.121.231-.121.499 0 .259.016.33.111.492.179.305.525.511.859.511.077 0 .988-.228 2.025-.506a98.619 98.619 0 0 1 1.925-.507c.066 0 4.181 2.389 4.17 2.421-.005.017-.942.568-2.081 1.225l-2.07 1.195-1.844-.494a78.154 78.154 0 0 0-1.996-.519c-.364-.058-.786.153-.986.493-.097.165-.113.235-.113.495 0 .268.014.326.121.499.219.354.279.379 2.082.864.9.242 1.638.443 1.641.447.003.004-.191.736-.431 1.627-.38 1.408-.435 1.65-.419 1.85.067.838 1.09 1.208 1.688.61.207-.207.21-.215.78-2.36.246-.924.462-1.708.479-1.742.029-.054 4.111-2.438 4.175-2.438.013 0 .024 1.084.024 2.409v2.409l-1.435 1.441c-1.275 1.282-1.441 1.463-1.5 1.638-.129.389-.044.766.234 1.044s.655.363 1.044.233c.174-.057.342-.21 1.427-1.288L12 20.423l1.23 1.223c1.085 1.078 1.253 1.231 1.427 1.288.389.13.766.045 1.044-.233s.363-.655.234-1.044c-.059-.175-.225-.356-1.5-1.638L13 18.578v-2.414c0-1.93.01-2.409.051-2.393.082.032 4.086 2.35 4.125 2.389.019.02.24.797.489 1.728.616 2.295.587 2.206.79 2.409.601.601 1.624.234 1.691-.607.016-.2-.039-.442-.419-1.85-.24-.891-.434-1.623-.431-1.627.003-.004.741-.205 1.641-.447 1.803-.485 1.863-.51 2.082-.864.107-.173.121-.231.121-.499 0-.26-.016-.33-.113-.495-.2-.34-.622-.551-.986-.493a78.88 78.88 0 0 0-1.997.519l-1.844.494-2.07-1.195c-1.138-.657-2.075-1.208-2.08-1.225-.014-.04 4.091-2.408 4.176-2.408.038 0 .909.225 1.936.5 1.026.275 1.93.5 2.007.5.335 0 .68-.206.86-.511.095-.162.111-.233.111-.492 0-.268-.014-.326-.121-.499-.218-.352-.276-.376-2.078-.861-.9-.242-1.64-.444-1.644-.448-.003-.005.19-.738.43-1.629.38-1.408.435-1.65.419-1.85-.062-.778-.97-1.169-1.599-.689a1.009 1.009 0 0 0-.26.308c-.046.094-.302.99-.569 1.991-.268 1.001-.502 1.849-.521 1.883-.029.057-4.103 2.437-4.17 2.437-.015 0-.027-1.084-.027-2.409V5.422l1.435-1.441c1.275-1.282 1.441-1.463 1.5-1.638.129-.389.044-.766-.234-1.044s-.655-.363-1.044-.233c-.174.057-.342.21-1.427 1.288L12 3.577l-1.23-1.223C9.685 1.276 9.517 1.123 9.343 1.066a1.026 1.026 0 0 0-.7.003" fill="#667085" fill-rule="evenodd"/></svg>