<svg width="24" height="24" fill="none" xmlns="http://www.w3.org/2000/svg"><path d="M11.643 1.069a1.066 1.066 0 0 0-.577.591c-.058.17-.066.428-.066 2.056v1.862L9.27 3.854c-1.551-1.545-1.75-1.73-1.927-1.789-.389-.129-.766-.044-1.044.234s-.363.654-.234 1.044c.059.179.293.425 2.5 2.638L11 8.421V11H8.421l-2.44-2.435c-2.213-2.207-2.459-2.441-2.638-2.5-.39-.129-.766-.044-1.044.234s-.363.655-.234 1.044c.059.177.244.376 1.789 1.927L5.578 11H3.716c-2.111 0-2.119.001-2.417.299a.984.984 0 0 0 0 1.402c.298.298.306.299 2.417.299h1.862l-1.724 1.73c-1.545 1.551-1.73 1.75-1.789 1.927-.129.389-.044.766.234 1.044s.654.363 1.044.234c.179-.059.425-.293 2.638-2.5L8.421 13H11V15.579l-2.435 2.44c-2.207 2.213-2.441 2.459-2.5 2.638-.129.39-.044.766.234 1.044s.655.363 1.044.234c.177-.059.376-.244 1.927-1.789L11 18.422v1.862c0 2.111.001 2.119.299 2.417a.984.984 0 0 0 1.402 0c.298-.298.299-.306.299-2.417v-1.862l1.73 1.724c1.551 1.545 1.75 1.73 1.927 1.789.389.129.766.044 1.044-.234s.363-.654.234-1.044c-.059-.179-.293-.425-2.5-2.638L13 15.579V13H15.579l2.44 2.435c2.213 2.207 2.459 2.441 2.638 2.5.39.129.766.044 1.044-.234s.363-.655.234-1.044c-.059-.177-.244-.376-1.789-1.927L18.422 13h1.862c2.111 0 2.119-.001 2.417-.299a.984.984 0 0 0 0-1.402c-.298-.298-.306-.299-2.417-.299h-1.862l1.724-1.73c1.545-1.551 1.73-1.75 1.789-1.927.129-.389.044-.766-.234-1.044s-.654-.363-1.044-.234c-.179.059-.425.293-2.638 2.5L15.579 11H13V8.421l2.435-2.44c2.207-2.213 2.441-2.459 2.5-2.638.129-.39.044-.766-.234-1.044s-.655-.363-1.044-.234c-.177.059-.376.244-1.927 1.789L13 5.578V3.716c0-2.111-.001-2.119-.299-2.417a.998.998 0 0 0-1.058-.23" fill="#667085" fill-rule="evenodd"/></svg>