<svg width="24" height="24" fill="none" xmlns="http://www.w3.org/2000/svg"><path d="M2.643 2.069C2.291 2.193 2 2.614 2 3c0 .242.119.521.299.701C2.625 4.027 1.736 4 12 4c10.264 0 9.375.027 9.701-.299a.984.984 0 0 0 0-1.402c-.326-.327.567-.299-9.718-.296-8.192.003-9.182.01-9.34.066m5.974 3.508c-.346.15-.616.556-.616.923 0 .373.264.768.619.928.139.062.307.073 1.27.085l1.11.013v8.994H9.879c-1.232 0-1.266.005-1.538.245-.448.393-.444 1.073.007 1.48.295.265.145.255 3.652.255s3.357.01 3.652-.255c.451-.407.455-1.087.007-1.48-.272-.24-.306-.245-1.538-.245H13V7.526l1.11-.013c.963-.012 1.131-.023 1.27-.085.355-.16.619-.555.619-.928 0-.372-.274-.779-.625-.925-.192-.08-6.573-.079-6.757.002M2.643 20.069C2.291 20.193 2 20.614 2 21c0 .242.119.521.299.701.326.326-.563.299 9.701.299 10.264 0 9.375.027 9.701-.299a.984.984 0 0 0 0-1.402c-.326-.327.567-.299-9.718-.296-8.192.003-9.182.01-9.34.066" fill="#667085" fill-rule="evenodd"/></svg>