<svg width="24" height="24" fill="none" xmlns="http://www.w3.org/2000/svg"><path d="M2.643 2.069a1.066 1.066 0 0 0-.577.591C2.005 2.839 2 3.592 2 12c0 10.264-.027 9.375.299 9.701a.984.984 0 0 0 1.402 0C4.027 21.375 4 22.264 4 12c0-10.264.027-9.375-.299-9.701a.998.998 0 0 0-1.058-.23m18 0a1.066 1.066 0 0 0-.577.591C20.005 2.839 20 3.592 20 12c0 10.264-.027 9.375.299 9.701a.984.984 0 0 0 1.402 0c.326-.326.299.563.299-9.701 0-10.264.027-9.375-.299-9.701a.998.998 0 0 0-1.058-.23M6.24 8.035c-.311.102-.589.358-.685.63-.081.229-.081 6.441 0 6.67.127.361.559.664.945.664.373 0 .768-.264.928-.619.062-.139.073-.307.085-1.27L7.526 13h8.948l.013 1.11c.015 1.227.027 1.293.285 1.565a.99.99 0 0 0 1.473-.023c.265-.295.255-.145.255-3.652 0-3.503.01-3.358-.252-3.648-.219-.242-.417-.33-.748-.33-.319 0-.515.082-.728.304-.258.269-.27.337-.285 1.564L16.474 11H7.526l-.013-1.11c-.012-.963-.023-1.131-.085-1.27a1.134 1.134 0 0 0-.485-.508c-.172-.088-.544-.129-.703-.077" fill="#667085" fill-rule="evenodd"/></svg>