<svg width="24" height="24" fill="none" xmlns="http://www.w3.org/2000/svg"><path d="M2.643 2.069a1.066 1.066 0 0 0-.577.591C2.005 2.839 2 3.592 2 12c0 10.264-.027 9.375.299 9.701a.984.984 0 0 0 1.402 0C4.027 21.375 4 22.264 4 12c0-10.264.027-9.375-.299-9.701a.998.998 0 0 0-1.058-.23m18 0a1.066 1.066 0 0 0-.577.591C20.005 2.839 20 3.592 20 12c0 10.264-.027 9.375.299 9.701a.984.984 0 0 0 1.402 0c.326-.326.299.563.299-9.701 0-10.264.027-9.375-.299-9.701a.998.998 0 0 0-1.058-.23M7.668 8.061a1.466 1.466 0 0 0-.273.142c-.122.088-2.203 3.163-2.217 3.277a1.269 1.269 0 0 1-.092.24c-.106.226-.106.334 0 .56.047.099.088.207.092.24.014.113 2.095 3.189 2.216 3.276.067.047.196.112.288.145.762.269 1.529-.493 1.261-1.251-.031-.089-.283-.5-.56-.915l-.503-.755 2.06-.01c1.133-.006 2.987-.006 4.12 0l2.06.01-.503.755c-.277.415-.529.826-.56.915-.268.758.499 1.52 1.261 1.251.092-.033.221-.098.288-.145.143-.102 2.254-3.251 2.337-3.486a.857.857 0 0 0-.037-.68c-.141-.32-2.16-3.326-2.3-3.426a1.462 1.462 0 0 0-.288-.145c-.762-.269-1.529.493-1.261 1.251.031.089.283.5.56.915l.503.755-2.06.01c-1.133.006-2.987.006-4.12 0l-2.06-.01.503-.755c.277-.415.529-.826.56-.915.269-.762-.513-1.528-1.275-1.249" fill="#667085" fill-rule="evenodd"/></svg>