<svg width="24" height="24" fill="none" xmlns="http://www.w3.org/2000/svg"><path d="M2.643 2.069C2.291 2.193 2 2.614 2 3c0 .242.119.521.299.701C2.625 4.027 1.736 4 12 4c10.264 0 9.375.027 9.701-.299a.984.984 0 0 0 0-1.402c-.326-.327.567-.299-9.718-.296-8.192.003-9.182.01-9.34.066m9.184 2.972a.572.572 0 0 0-.168.08.335.335 0 0 1-.148.056c-.134.015-3.204 2.073-3.307 2.217a1.462 1.462 0 0 0-.145.288c-.269.762.493 1.529 1.251 1.261.089-.031.5-.283.915-.56l.755-.503.01 2.06c.006 1.133.006 2.987 0 4.12l-.01 2.06-.755-.503c-.415-.277-.826-.529-.915-.56-.758-.268-1.52.499-1.251 1.261.033.092.098.221.145.288.087.121 3.163 2.202 3.276 2.216.033.004.141.045.24.092.226.106.334.106.56 0 .099-.047.207-.088.24-.092.113-.014 3.189-2.095 3.276-2.216.047-.067.112-.196.145-.288.269-.762-.493-1.529-1.251-1.261-.089.031-.5.283-.915.56l-.755.503-.01-2.06a471.513 471.513 0 0 1 0-4.12l.01-2.06.755.503c.415.277.826.529.915.56.758.268 1.52-.499 1.251-1.261a1.462 1.462 0 0 0-.145-.288c-.106-.149-3.13-2.174-3.436-2.301-.232-.096-.348-.108-.533-.052M2.643 20.069C2.291 20.193 2 20.614 2 21c0 .242.119.521.299.701.326.326-.563.299 9.701.299 10.264 0 9.375.027 9.701-.299a.984.984 0 0 0 0-1.402c-.326-.327.567-.299-9.718-.296-8.192.003-9.182.01-9.34.066" fill="#667085" fill-rule="evenodd"/></svg>