<svg width="24" height="24" fill="none" xmlns="http://www.w3.org/2000/svg"><path d="M5.692 1.043c-.838.077-1.499.324-2.124.796a3.916 3.916 0 0 0-1.475 2.373c-.06.294-.069.859-.082 5.468-.018 5.94-.013 6.061.296 6.834.431 1.08 1.494 2.051 2.415 2.206l.278.047v1.228c0 .966.013 1.278.06 1.46a2.016 2.016 0 0 0 1.3 1.43l.26.095h10.8l.237-.09a2.025 2.025 0 0 0 1.282-1.428c.048-.189.061-.495.061-1.466v-1.228l.264-.046c.36-.062.538-.138.936-.394.881-.568 1.489-1.477 1.708-2.555.067-.329.072-.715.072-5.773 0-5.998.012-5.702-.258-6.441-.389-1.065-1.342-1.984-2.422-2.332-.642-.208-.406-.201-7.06-.209-3.399-.005-6.345.007-6.548.025M17.78 3.04c.352.021.744.066.872.099.432.113.893.496 1.102.916.217.436.216.426.235 5.425.017 4.696-.004 5.692-.128 6.17-.142.545-.639 1.052-1.181 1.206-.451.127-1.221.144-6.68.144s-6.229-.017-6.68-.144c-.634-.18-1.127-.773-1.244-1.496-.035-.218-.053-1.542-.065-4.82-.017-4.614.006-5.726.129-6.194.103-.394.412-.789.819-1.046.232-.146.577-.223 1.156-.258.761-.046 10.919-.048 11.665-.002M11.3 4.046c-1.319.146-2.534.743-3.523 1.731-.879.879-1.399 1.837-1.662 3.063-.129.599-.13 1.715-.003 2.304.268 1.245.783 2.197 1.665 3.079.882.881 1.836 1.397 3.077 1.665.584.126 1.707.126 2.29 0 1.651-.356 3.053-1.32 3.944-2.712.334-.521.644-1.298.8-2.002.126-.57.127-1.777.001-2.344-.283-1.278-.836-2.269-1.758-3.154a5.943 5.943 0 0 0-4.831-1.63M13 6.133a3.82 3.82 0 0 1 1.825 1.042A3.872 3.872 0 0 1 15.871 9c.088.329.101.463.101 1 0 .537-.013.671-.101 1a3.833 3.833 0 0 1-1.066 1.841 3.867 3.867 0 0 1-1.871 1.047c-.527.133-1.403.125-1.934-.017a3.99 3.99 0 0 1-2.868-2.863c-.142-.538-.151-1.411-.019-1.943.397-1.602 1.669-2.765 3.31-3.024.395-.062 1.147-.018 1.577.092m-1.446 2.44c-.558.209-.941.656-1.026 1.199-.159 1.012.768 1.897 1.767 1.688.334-.07.571-.21.821-.483a1.34 1.34 0 0 0 .375-.977c0-.567-.31-1.065-.827-1.33-.21-.107-.295-.126-.604-.138-.236-.009-.41.006-.506.041M17 19.937c0 .515-.011.965-.024 1-.022.057-.498.063-4.976.063H7.049l-.024-.09c-.013-.049-.024-.5-.024-1L7 19h10v.937" fill="#667085" fill-rule="evenodd"/></svg>