<svg width="24" height="24" fill="none" xmlns="http://www.w3.org/2000/svg"><path d="M4.692 1.043c-.838.076-1.499.324-2.126.797-.698.526-1.233 1.341-1.424 2.166-.139.601-.146 1.071-.132 8.314.013 6.494.021 7.17.082 7.467.199.97.73 1.824 1.48 2.384.539.402.985.601 1.656.737.331.068.794.072 7.772.072 6.995 0 7.44-.004 7.775-.072 1.635-.333 2.8-1.498 3.133-3.133.068-.335.072-.78.072-7.775 0-8.242.017-7.681-.263-8.456-.371-1.024-1.365-1.978-2.417-2.317-.649-.21-.311-.201-8.06-.21-3.949-.004-7.345.008-7.548.026M18.78 3.04c.352.021.744.066.872.099.554.145 1.067.659 1.209 1.212.121.471.138 1.423.138 7.629.001 6.199-.018 7.249-.136 7.691-.105.393-.455.821-.872 1.065-.421.246-.147.237-7.611.254-6.854.015-7.559.004-8.051-.127-.531-.141-1.048-.668-1.19-1.213-.119-.455-.138-1.532-.138-7.65 0-6.131.019-7.195.139-7.654.103-.394.412-.789.819-1.046.232-.146.577-.223 1.156-.258.764-.046 12.916-.048 13.665-.002M5.667 5.063C5.298 5.18 5 5.601 5 6.002c0 .702.749 1.194 1.393.917.792-.34.813-1.423.036-1.825-.175-.09-.533-.105-.762-.031m12 0c-.369.117-.667.538-.667.939 0 .702.749 1.194 1.393.917.792-.34.813-1.423.036-1.825-.175-.09-.533-.105-.762-.031m-6.187.964a6.777 6.777 0 0 0-1.364.292c-.935.311-1.616.736-2.339 1.458-.882.882-1.397 1.834-1.665 3.079-.127.589-.126 1.705.003 2.304.247 1.15.76 2.133 1.539 2.948.712.745 1.493 1.253 2.412 1.568.715.244 1.07.3 1.934.3.653 0 .844-.015 1.17-.087 1.251-.277 2.155-.771 3.051-1.668.897-.896 1.391-1.8 1.668-3.051.125-.566.124-1.772-.002-2.347-.281-1.271-.844-2.276-1.778-3.168a5.833 5.833 0 0 0-2.669-1.469c-.639-.157-1.384-.217-1.96-.159m1.527 2.109c1.403.356 2.483 1.435 2.864 2.864.088.329.101.463.101 1 0 .537-.013.671-.101 1-.384 1.441-1.434 2.485-2.904 2.889-.445.123-1.489.123-1.934 0-.763-.21-1.339-.543-1.874-1.084a3.895 3.895 0 0 1-1.047-1.874c-.131-.528-.122-1.403.02-1.939A4.004 4.004 0 0 1 11.45 8.04c.409-.058 1.125-.014 1.557.096m-1.453 2.437c-.894.334-1.289 1.269-.885 2.095.143.291.5.619.8.734.319.123.745.122 1.071-.003.335-.128.731-.524.859-.859.124-.325.126-.752.004-1.07-.116-.301-.41-.62-.731-.791-.224-.12-.292-.137-.612-.148-.234-.008-.411.007-.506.042m-5.887 6.49c-.369.117-.667.538-.667.939 0 .702.749 1.194 1.393.917.792-.34.813-1.423.036-1.825-.175-.09-.533-.105-.762-.031m12 0c-.369.117-.667.538-.667.939 0 .702.749 1.194 1.393.917.792-.34.813-1.423.036-1.825-.175-.09-.533-.105-.762-.031" fill="#667085" fill-rule="evenodd"/></svg>