<svg width="24" height="24" fill="none" xmlns="http://www.w3.org/2000/svg"><path d="M6.692 1.043c-.839.077-1.499.324-2.126.797-.698.526-1.233 1.341-1.424 2.166-.139.601-.146 1.071-.132 8.314.013 6.494.021 7.17.082 7.467.199.97.73 1.824 1.48 2.384.539.402.985.601 1.656.737.328.067.717.072 5.772.072 5.067 0 5.443-.005 5.775-.072 1.635-.333 2.8-1.498 3.133-3.133.068-.335.072-.78.072-7.775 0-8.242.017-7.681-.263-8.456-.371-1.024-1.365-1.978-2.417-2.317-.632-.205-.502-.2-6.06-.209-2.849-.005-5.345.006-5.548.025M16.78 3.04c.352.021.743.066.87.099.555.145 1.069.659 1.21 1.21.122.473.139 1.419.139 7.631.001 6.199-.018 7.249-.136 7.691-.105.393-.455.821-.872 1.065-.407.238-.352.236-5.611.253-4.838.016-5.573.001-6.051-.126-.531-.141-1.048-.668-1.19-1.213-.119-.455-.138-1.532-.138-7.65 0-6.131.019-7.195.139-7.654.103-.394.412-.789.819-1.046.232-.146.577-.223 1.156-.258.757-.045 8.924-.047 9.665-.002m-5.226 1.533c-.894.334-1.289 1.269-.885 2.095.143.291.5.619.8.734.319.123.745.122 1.071-.003.335-.128.731-.524.859-.859.124-.325.126-.752.004-1.07-.116-.301-.41-.62-.731-.791-.224-.12-.292-.137-.612-.148-.234-.008-.411.007-.506.042m-.034 4.452c-1.222.156-2.207.623-3.023 1.434-1.018 1.012-1.542 2.327-1.483 3.721.034.806.188 1.393.55 2.1a5.067 5.067 0 0 0 3.222 2.569c.446.117.517.124 1.194.125.537.001.794-.016 1.014-.067 1.013-.234 1.82-.676 2.529-1.384.708-.709 1.15-1.516 1.384-2.529.051-.22.068-.477.067-1.014-.001-.679-.008-.748-.127-1.2a5.053 5.053 0 0 0-3.807-3.663c-.333-.074-1.232-.129-1.52-.092m1.005 2.034a2.981 2.981 0 0 1 2.38 2.181c.097.359.097 1.161 0 1.52-.28 1.027-1.068 1.836-2.066 2.12-1.722.489-3.475-.601-3.78-2.352a2.53 2.53 0 0 1 0-1.054 2.963 2.963 0 0 1 2.381-2.412 2.752 2.752 0 0 1 1.085-.003" fill="#667085" fill-rule="evenodd"/></svg>