<svg width="24" height="24" fill="none" xmlns="http://www.w3.org/2000/svg"><path d="M11.041 1.045c-1.802.159-3.57.778-5.092 1.782A11.43 11.43 0 0 0 2.842 5.92C.956 8.739.489 12.343 1.595 15.535a11.065 11.065 0 0 0 2.262 3.825c.409.458.325.374.783.783 3.809 3.407 9.228 3.806 13.464.993.729-.484 1.633-1.262 1.836-1.58.066-.103.279-.374.473-.602.74-.868 1.537-2.228 1.927-3.288.417-1.135.704-2.722.648-3.586-.057-.891-.194-1.89-.352-2.56-1.091-4.64-4.986-8-9.736-8.401a6.8 6.8 0 0 1-.66-.081c-.164-.044-.663-.041-1.199.007M11 3.95c.001.701.007.763.094.95.051.11.166.265.254.345.497.448 1.268.277 1.558-.345.087-.187.093-.248.094-.952v-.752l.15.025c1.725.281 2.909.754 4.123 1.648l.293.216-1.774 1.748a961.89 961.89 0 0 1-2.224 2.186l-.45.439-.424-.219-.424-.219-.365.003c-.461.003-.784.086-1.265.325-.508.252-1.02.75-1.268 1.232-.277.538-.352.841-.352 1.42s.075.882.352 1.42c.23.447.761.978 1.208 1.208.538.277.841.352 1.42.352s.882-.075 1.42-.352c.447-.23.978-.761 1.208-1.208.252-.491.349-.85.351-1.306l.001-.387-.219-.424-.219-.425.559-.553 2.211-2.185 1.653-1.631.2.275a9.115 9.115 0 0 1 1.611 4.043l.024.167-.79.013c-.721.012-.804.021-.953.1a.994.994 0 0 0 .043 1.799c.187.087.248.093.952.094h.752l-.025.15c-.281 1.724-.755 2.909-1.647 4.121l-.215.292-.39-.355a4.355 4.355 0 0 0-1.944-1.045C16.025 16.018 15.53 16 12 16c-3.53 0-4.025.018-4.583.163a4.355 4.355 0 0 0-1.944 1.045l-.39.355-.215-.292c-.892-1.212-1.366-2.397-1.647-4.121L3.196 13h.752c.704-.001.765-.007.952-.094a.994.994 0 0 0 .043-1.799c-.149-.079-.232-.088-.953-.1l-.79-.013.024-.167c.14-.979.412-1.871.833-2.727.273-.555.784-1.384.926-1.502.051-.043.138.026.571.454.568.562.75.674 1.103.674a.98.98 0 0 0 .991-.976c.004-.364-.108-.547-.693-1.134l-.522-.524.154-.12c.761-.595 1.816-1.135 2.794-1.431.41-.125 1.217-.297 1.569-.336.038-.004.05.169.05.745m1.5 7.188c.672.394.652 1.389-.035 1.753-.246.13-.701.125-.943-.011-.749-.42-.659-1.524.148-1.825.229-.086.607-.048.83.083m3.6 6.954c.421.121.859.365 1.132.633.139.136.237.258.218.271l-.432.309a9.068 9.068 0 0 1-3.778 1.603c-.535.097-1.945.097-2.48 0a9.068 9.068 0 0 1-3.778-1.603 79.923 79.923 0 0 0-.433-.309c-.055-.038.429-.482.683-.626a2.741 2.741 0 0 1 1.021-.33c.158-.017 1.934-.028 3.947-.024 3.324.007 3.682.014 3.9.076" fill="#667085" fill-rule="evenodd"/></svg>