<svg width="24" height="24" fill="none" xmlns="http://www.w3.org/2000/svg"><path d="M11.041 1.045c-1.47.13-2.98.585-4.26 1.283-.985.538-1.77 1.13-2.583 1.947-1.682 1.693-2.712 3.742-3.086 6.145-.073.467-.087.73-.087 1.58 0 .85.014 1.113.087 1.58.378 2.425 1.41 4.467 3.125 6.183 1.716 1.715 3.758 2.747 6.183 3.125.809.126 2.351.126 3.16 0 2.413-.376 4.471-1.417 6.181-3.127.923-.923 1.563-1.811 2.116-2.941a10.92 10.92 0 0 0 0-9.64 11.163 11.163 0 0 0-3.826-4.353 11.032 11.032 0 0 0-7.01-1.782m2.279 2.057a9.023 9.023 0 0 1 5.664 3.218c.816 1.005 1.483 2.358 1.771 3.6.167.718.222 1.229.222 2.08 0 1.511-.264 2.654-.917 3.98-.896 1.818-2.252 3.179-4.067 4.079a8.986 8.986 0 0 1-6.453.597C7.08 19.955 5.103 18.309 3.946 16c-.642-1.283-.923-2.498-.923-4 0-1.502.281-2.717.923-4 .91-1.819 2.235-3.143 4.056-4.055 1.025-.514 2.001-.783 3.338-.921.324-.033 1.573.016 1.98.078m-1.9.921c-.066.009-.291.037-.5.061-.524.06-1.35.277-1.889.497-4.314 1.76-6.245 6.722-4.235 10.884.44.91.808 1.383 1.156 1.488a1.01 1.01 0 0 0 1.043-.294.85.85 0 0 0 .245-.632c0-.273-.053-.422-.266-.753a6.44 6.44 0 0 1-.88-2.214c-.099-.506-.097-1.62.003-2.14.533-2.775 2.803-4.757 5.617-4.906.3-.015.623-.005.906.03.606.075.846.068 1.04-.033.568-.297.745-.981.382-1.482-.174-.239-.422-.368-.833-.433-.352-.055-1.566-.104-1.789-.073m4.66 2.58c-.135.061-.613.513-1.93 1.828l-1.75 1.747-.178-.097c-.17-.093-.194-.095-.479-.054-.44.063-.852.271-1.158.585-.783.801-.777 1.996.015 2.788.633.633 1.505.772 2.32.369.282-.14.709-.567.849-.849.129-.262.231-.637.231-.853a.755.755 0 0 0-.088-.313l-.088-.157 1.746-1.748c1.893-1.895 1.922-1.931 1.921-2.348a.97.97 0 0 0-.989-.98c-.156 0-.306.03-.422.082m2.33 3.001c-.216.107-.462.384-.523.588-.063.21-.059.34.021.778.104.566.093 1.642-.024 2.19a6.268 6.268 0 0 1-.862 2.12c-.209.325-.262.475-.262.747 0 .26.065.428.245.632.255.29.667.407 1.043.294.348-.105.716-.578 1.156-1.488a8.167 8.167 0 0 0 .759-2.685c.093-.863-.035-2.331-.237-2.728a1.174 1.174 0 0 0-.512-.477c-.203-.085-.603-.07-.804.029" fill="#667085" fill-rule="evenodd"/></svg>