<svg width="24" height="24" fill="none" xmlns="http://www.w3.org/2000/svg"><path d="M11.041 1.045c-1.802.159-3.57.778-5.092 1.782A11.43 11.43 0 0 0 2.842 5.92C.956 8.739.489 12.343 1.595 15.535c.489 1.408 1.262 2.723 2.216 3.769.163.178.321.358.352.401.095.131.851.79 1.245 1.086a10.976 10.976 0 0 0 8.455 2.047 11.016 11.016 0 0 0 5.101-2.343c.618-.514.843-.73.976-.939.066-.103.279-.374.473-.602.74-.868 1.537-2.228 1.927-3.288.417-1.135.704-2.722.648-3.586-.108-1.695-.378-2.983-.891-4.246-1.523-3.759-5.105-6.374-9.197-6.715a5.107 5.107 0 0 1-.636-.081c-.135-.044-.683-.041-1.223.007M11 3.95c.001.701.007.763.094.95.051.11.166.265.254.345.497.448 1.268.277 1.558-.345.087-.187.093-.248.094-.952v-.752l.15.025c1.725.281 2.909.754 4.123 1.648l.293.216-1.774 1.748a961.89 961.89 0 0 1-2.224 2.186l-.45.439-.424-.219-.424-.219-.365.003c-.461.003-.784.086-1.265.325-.508.252-1.02.75-1.268 1.232-.277.538-.352.841-.352 1.42s.075.882.352 1.42c.23.447.761.978 1.208 1.208.538.277.841.352 1.42.352s.882-.075 1.42-.352c.447-.23.978-.761 1.208-1.208.252-.491.349-.85.351-1.306l.001-.387-.219-.424-.219-.425.559-.553 2.211-2.185 1.653-1.631.2.275a9.115 9.115 0 0 1 1.611 4.043l.024.167-.79.013c-.721.012-.804.021-.953.1a.994.994 0 0 0 .043 1.799c.187.087.249.093.95.094h.751l-.024.17a9.014 9.014 0 0 1-1.609 4.041l-.222.311-.525-.519c-.592-.587-.748-.681-1.121-.681a.95.95 0 0 0-.978.978c0 .373.094.529.681 1.121l.519.525-.326.235a9.054 9.054 0 0 1-4.006 1.598l-.19.026v-.753c-.001-.703-.007-.765-.094-.952a1.146 1.146 0 0 0-.532-.525c-.169-.071-.579-.071-.748 0-.207.087-.43.307-.532.525-.087.187-.093.249-.094.952v.753l-.19-.026c-1.491-.207-2.982-.816-4.14-1.692l-.19-.143.519-.524c.576-.582.687-.762.687-1.117a.96.96 0 0 0-.984-.982c-.376.001-.531.096-1.123.682l-.525.519-.222-.311a7.603 7.603 0 0 1-.793-1.339 9.154 9.154 0 0 1-.816-2.702L3.199 13h.751c.701-.001.763-.007.95-.094a.994.994 0 0 0 .043-1.799c-.149-.079-.232-.088-.953-.1l-.79-.013.024-.167c.14-.979.412-1.871.833-2.727.273-.555.784-1.384.926-1.502.051-.043.138.026.571.454.568.562.75.674 1.103.674a.98.98 0 0 0 .991-.976c.004-.364-.108-.547-.693-1.134l-.522-.524.154-.12c.761-.595 1.816-1.135 2.794-1.431.41-.125 1.217-.297 1.569-.336.038-.004.05.169.05.745m1.5 7.188c.672.394.652 1.389-.035 1.753-.246.13-.701.125-.943-.011-.749-.42-.659-1.524.148-1.825.229-.086.607-.048.83.083" fill="#667085" fill-rule="evenodd"/></svg>