<svg width="24" height="24" fill="none" xmlns="http://www.w3.org/2000/svg"><path d="M11.643 1.069a1.118 1.118 0 0 0-.343.229c-.248.248-.3.442-.3 1.129V3H7.51c-2.112.001-3.631.017-3.846.041-1.376.158-2.429 1.177-2.623 2.539-.024.173-.039 2.05-.039 4.92s.015 4.747.039 4.92a2.976 2.976 0 0 0 2.539 2.539c.154.021.892.04 1.639.04L6.578 18l-1.724 1.73c-1.545 1.551-1.73 1.75-1.789 1.927-.129.389-.044.766.234 1.044s.654.363 1.044.234c.179-.059.425-.293 2.638-2.5L9.421 18H11v2.073c0 2.346-.002 2.327.299 2.628a.984.984 0 0 0 1.402 0c.301-.301.299-.282.299-2.628V18H14.579l2.44 2.435c2.213 2.207 2.459 2.441 2.638 2.5.39.129.766.044 1.044-.234s.363-.655.234-1.044c-.059-.177-.244-.376-1.789-1.927L17.422 18h1.346c.745 0 1.485-.019 1.657-.043a2.977 2.977 0 0 0 2.534-2.537c.053-.379.053-9.461 0-9.84-.173-1.215-1.027-2.161-2.246-2.487-.227-.061-.629-.07-3.983-.083L13 2.996v-.571c0-.684-.052-.879-.299-1.126a.998.998 0 0 0-1.058-.23m8.345 3.97c.468.043.649.131.831.407.09.135.111.227.143.607.048.584.048 8.312-.001 8.897-.033.403-.049.467-.158.626-.175.254-.338.34-.73.385-.45.052-15.699.052-16.15 0-.386-.045-.56-.137-.735-.389-.094-.136-.116-.222-.148-.576-.049-.542-.049-8.45 0-8.992.031-.34.056-.445.139-.57.171-.258.362-.356.768-.392.506-.044 15.546-.047 16.041-.003" fill="#667085" fill-rule="evenodd"/></svg>