<svg width="24" height="24" fill="none" xmlns="http://www.w3.org/2000/svg"><path d="M11.493 1.595c-.415.154-.688.4-.891.801-.063.123-.548.98-1.078 1.904l-.965 1.68L6.19 6l-2.37.02-.231.113c-.302.149-.586.43-.729.724-.094.191-.119.304-.133.585-.019.412.041.634.268.985.083.128.586.984 1.119 1.903L5.082 12l-.967 1.67a88.458 88.458 0 0 1-1.089 1.849c-.293.429-.387.96-.25 1.415.13.432.505.823.951.992.204.078.297.081 2.516.076l2.303-.005 1.002 1.751c.551.964 1.053 1.848 1.115 1.966.137.256.385.485.692.635.202.1.267.111.645.111s.443-.011.645-.111c.307-.15.555-.379.692-.635.062-.118.564-1.002 1.115-1.966l1.002-1.751 2.303.005c2.219.005 2.312.002 2.516-.076.983-.373 1.314-1.51.701-2.407a88.458 88.458 0 0 1-1.089-1.849L18.918 12l.968-1.67a112.71 112.71 0 0 1 1.119-1.903c.227-.351.287-.573.268-.985-.014-.281-.039-.394-.133-.585a1.677 1.677 0 0 0-.729-.724l-.231-.113L17.81 6l-2.369-.02-.956-1.666a146.964 146.964 0 0 1-1.107-1.952 1.546 1.546 0 0 0-.733-.709c-.304-.146-.842-.173-1.152-.058m1.467 4.09c.524.918 1.016 1.73 1.113 1.839.109.122.27.242.439.325l.266.131 2.067.02 2.067.02-.92 1.58c-1.167 2.004-1.13 1.926-1.131 2.38-.001.198.021.423.049.5.027.077.489.896 1.025 1.82l.976 1.68-2.066.02-2.067.02-.266.131a1.48 1.48 0 0 0-.439.326c-.095.108-.596.935-1.113 1.839-.517.903-.949 1.643-.96 1.643-.011 0-.443-.74-.96-1.643-.517-.904-1.018-1.731-1.113-1.839a1.48 1.48 0 0 0-.439-.326l-.266-.131L7.155 16l-2.066-.02.976-1.68c.574-.987 1.003-1.77 1.041-1.898.088-.297.054-.73-.079-1.012A64.157 64.157 0 0 0 6.008 9.6l-.92-1.58L7.155 8l2.067-.02.266-.131c.169-.083.33-.203.439-.325.097-.109.589-.921 1.113-1.839.517-.904.949-1.644.96-1.644.011 0 .443.74.96 1.644" fill="#667085" fill-rule="evenodd"/></svg>