<svg width="24" height="24" fill="none" xmlns="http://www.w3.org/2000/svg"><path d="M6.24 1.035a1.086 1.086 0 0 0-.465.292c-.07.073-.399.677-.734 1.346-.832 1.658-.712 1.537-2.325 2.348-.68.342-1.3.678-1.378.746-.226.199-.316.407-.316.733 0 .319.084.518.304.725.074.07.68.399 1.354.737 1.148.576 1.236.627 1.483.875.248.247.299.335.875 1.483.338.674.667 1.28.737 1.354.207.22.406.304.725.304.319 0 .518-.084.725-.304.07-.074.399-.68.737-1.354.823-1.641.717-1.535 2.358-2.358.674-.338 1.28-.667 1.354-.737.22-.207.304-.406.304-.725 0-.326-.09-.534-.316-.733-.078-.068-.698-.404-1.378-.746-1.613-.811-1.493-.69-2.325-2.348-.335-.669-.664-1.273-.734-1.347a1.288 1.288 0 0 0-.282-.214c-.172-.088-.544-.129-.703-.077m12 1a1.107 1.107 0 0 0-.667.585c-.059.133-.073.305-.085 1.03l-.015.87h-.858c-.944 0-1.01.013-1.274.245a.987.987 0 0 0-.016 1.463c.258.245.366.268 1.302.284l.846.015.015.846c.012.702.026.874.085 1.007.157.354.554.619.927.619s.77-.265.927-.619c.059-.133.073-.305.085-1.007l.015-.846.846-.015c.936-.016 1.044-.039 1.302-.284a.987.987 0 0 0-.016-1.463c-.264-.232-.33-.245-1.274-.245h-.858l-.015-.87c-.012-.725-.026-.897-.085-1.03a1.132 1.132 0 0 0-.484-.508c-.172-.088-.544-.129-.703-.077M6.701 4.598c.413.799.949 1.326 1.769 1.737.16.081.29.155.29.165 0 .01-.112.075-.25.145-.849.426-1.396.958-1.809 1.757a3.087 3.087 0 0 1-.201.358c-.009 0-.099-.161-.201-.358-.413-.799-.96-1.331-1.809-1.757a1.412 1.412 0 0 1-.25-.145c0-.01.13-.084.29-.165.82-.411 1.356-.938 1.769-1.737.102-.197.192-.358.201-.358.009 0 .099.161.201.358m9.979 6.463c-.371.116-.417.183-1.206 1.751-.961 1.911-.759 1.708-2.634 2.647-1.538.77-1.654.849-1.775 1.205a.946.946 0 0 0-.004.661c.127.373.188.415 1.751 1.201 1.91.96 1.702.752 2.662 2.662.786 1.563.828 1.624 1.201 1.751.337.115.697.048.976-.182.119-.098.286-.397.875-1.569.96-1.91.752-1.702 2.662-2.662 1.563-.786 1.624-.828 1.751-1.201a.946.946 0 0 0-.004-.661c-.121-.356-.237-.435-1.775-1.205-1.875-.939-1.673-.736-2.634-2.647-.795-1.58-.834-1.637-1.223-1.753a.92.92 0 0 0-.623.002m.599 3.724c.478.928 1.008 1.458 1.936 1.936.277.142.504.268.504.279 0 .011-.168.106-.374.21-1.064.542-1.589 1.055-2.09 2.046-.129.255-.244.464-.255.463-.011 0-.128-.211-.26-.469-.51-.999-1.02-1.498-2.085-2.04-.206-.104-.374-.199-.374-.21 0-.011.227-.137.504-.28.924-.475 1.46-1.011 1.936-1.935.142-.277.268-.504.279-.504.011 0 .137.227.279.504m-12.039.25a1.107 1.107 0 0 0-.667.585c-.059.133-.073.305-.085 1.03l-.015.87h-.858c-.944 0-1.01.013-1.274.245a.987.987 0 0 0-.016 1.463c.258.245.366.268 1.302.284l.846.015.015.846c.012.702.026.874.085 1.007.157.354.554.619.927.619s.77-.265.927-.619c.059-.133.073-.305.085-1.007l.015-.846.846-.015c.936-.016 1.044-.039 1.302-.284a.987.987 0 0 0-.016-1.463c-.264-.232-.33-.245-1.274-.245h-.858l-.015-.87c-.012-.725-.026-.897-.085-1.03a1.132 1.132 0 0 0-.484-.508c-.172-.088-.544-.129-.703-.077" fill="#667085" fill-rule="evenodd"/></svg>