<svg width="24" height="24" fill="none" xmlns="http://www.w3.org/2000/svg"><path d="M11.67 1.059c-.2.076-.412.241-.506.395-.042.069-.557 1.377-1.144 2.906-1.4 3.649-1.374 3.588-1.672 3.907a1.642 1.642 0 0 1-.564.412c-.178.085-1.665.67-3.304 1.299-2.015.773-3.025 1.18-3.119 1.257-.457.37-.456 1.161.001 1.531.098.079 1.096.482 3.157 1.275 1.658.638 3.143 1.222 3.299 1.297.368.177.699.516.87.891.067.149.642 1.62 1.277 3.269.788 2.048 1.19 3.042 1.269 3.14.371.458 1.161.458 1.532 0 .079-.098.481-1.092 1.269-3.14.635-1.649 1.21-3.12 1.278-3.27.169-.371.544-.746.915-.915.15-.068 1.619-.642 3.265-1.276 1.721-.662 3.05-1.196 3.129-1.256.075-.057.186-.189.247-.292.095-.161.111-.233.111-.489s-.016-.328-.111-.489a1.24 1.24 0 0 0-.248-.293c-.08-.061-1.396-.588-3.149-1.261-1.657-.636-3.141-1.22-3.298-1.297a1.962 1.962 0 0 1-.866-.9c-.066-.143-.638-1.609-1.273-3.258-.788-2.048-1.19-3.042-1.269-3.14-.238-.294-.749-.436-1.096-.303m1.005 5.491c.36.94.742 1.89.848 2.111a3.946 3.946 0 0 0 1.816 1.816c.221.106 1.17.488 2.111.848.94.36 1.71.664 1.71.675 0 .011-.491.208-1.09.438-1.932.74-2.76 1.079-3.028 1.239a3.97 3.97 0 0 0-1.519 1.663c-.106.22-.488 1.169-.848 2.11-.36.94-.664 1.71-.675 1.71-.011 0-.315-.77-.676-1.71a61.842 61.842 0 0 0-.824-2.07c-.409-.88-1.101-1.54-2.046-1.954a91.747 91.747 0 0 0-2.004-.789c-.886-.339-1.61-.626-1.61-.637 0-.011.769-.316 1.71-.676.94-.361 1.86-.725 2.044-.809A3.92 3.92 0 0 0 10.5 8.62c.092-.198.463-1.13.824-2.07.361-.94.665-1.71.676-1.71.011 0 .315.77.675 1.71" fill="#667085" fill-rule="evenodd"/></svg>