<svg width="24" height="24" fill="none" xmlns="http://www.w3.org/2000/svg"><path d="M11.6 2.075a1.64 1.64 0 0 0-.892.714c-.053.083-.46.853-.906 1.711a76.338 76.338 0 0 1-.839 1.591c-.016.018-.82-.125-1.786-.317-1.475-.293-1.821-.35-2.157-.352-.364-.002-.422.009-.638.115-.314.154-.56.407-.714.735-.11.233-.126.309-.124.588.003.393-.008.364.918 2.441.398.893.691 1.599.669 1.614-.021.014-.679.57-1.463 1.237-1.423 1.211-1.652 1.44-1.769 1.77-.265.752.12 1.603.851 1.879.127.048 1.022.294 1.99.547.968.253 1.763.463 1.767.466.003.003.026.717.051 1.586.053 1.874.089 2.35.203 2.652.116.311.383.596.711.757.245.12.297.131.648.131.349 0 .404-.011.641-.128.142-.07.921-.624 1.729-1.23.809-.606 1.488-1.102 1.51-1.102.022 0 .701.496 1.51 1.102.808.606 1.587 1.16 1.729 1.23.237.117.292.128.641.128.351 0 .403-.011.648-.131.328-.161.595-.446.711-.757.113-.301.149-.773.203-2.652.024-.869.048-1.583.051-1.586.004-.003.799-.213 1.767-.466.968-.253 1.868-.501 2-.551.328-.123.693-.485.813-.808.127-.339.148-.606.07-.91-.116-.457-.236-.585-1.822-1.931l-1.474-1.251c-.008-.005.33-.785.751-1.733.848-1.912.922-2.134.843-2.535a1.51 1.51 0 0 0-.832-1.097c-.206-.101-.269-.112-.629-.11-.337.002-.678.058-2.157.351-.966.192-1.77.336-1.786.318a71.085 71.085 0 0 1-.839-1.591c-.865-1.667-1.005-1.908-1.222-2.098-.276-.243-.52-.336-.916-.348-.198-.006-.405.003-.46.021m1.172 4.02c.817 1.58.917 1.726 1.333 1.929.115.056.322.121.462.145.241.04.333.026 1.892-.281a85.837 85.837 0 0 1 1.647-.315c.003.004-.271.628-.611 1.387-.701 1.567-.775 1.762-.775 2.029.001.347.155.77.369 1.015.064.073 2.295 1.98 2.508 2.143.009.007.007.022-.004.033-.011.012-.712.2-1.557.418-.924.239-1.621.441-1.748.506a1.69 1.69 0 0 0-.694.774c-.075.192-.091.349-.121 1.162l-.064 1.692-.029.752-1.337-1.001c-1.468-1.099-1.54-1.139-2.043-1.139-.503 0-.575.04-2.04 1.137-.734.549-1.338.994-1.344.989-.005-.006-.03-.721-.056-1.59-.032-1.105-.064-1.652-.105-1.819a1.546 1.546 0 0 0-.786-.984c-.093-.044-.86-.259-1.705-.478-.845-.219-1.546-.407-1.557-.419-.011-.011-.013-.026-.004-.033.303-.235 2.384-2.028 2.487-2.142.192-.212.292-.414.355-.717.087-.421.034-.59-.697-2.228a66.778 66.778 0 0 1-.653-1.488c.004-.004.636.118 1.406.27 1.935.384 1.895.378 2.168.323a1.57 1.57 0 0 0 .821-.43c.151-.151.33-.463.938-1.64.414-.799.761-1.453.772-1.453.011 0 .358.654.772 1.453" fill="#667085" fill-rule="evenodd"/></svg>