<svg width="24" height="24" fill="none" xmlns="http://www.w3.org/2000/svg"><path d="M11.643 1.069a1.066 1.066 0 0 0-.577.591c-.098.288-.098 2.392 0 2.68.126.369.538.66.934.66s.808-.291.934-.66c.098-.288.098-2.392 0-2.68-.173-.508-.762-.778-1.291-.591M4.7 3.956a.995.995 0 0 0-.486.291c-.269.286-.344.599-.235.977.066.225.108.275.895 1.07.932.94 1.073 1.04 1.466 1.039a.92.92 0 0 0 .67-.25.99.99 0 0 0 .22-1.183c-.13-.25-1.612-1.732-1.854-1.853-.189-.095-.501-.137-.676-.091m14.16.002a1.534 1.534 0 0 0-.28.112c-.229.12-1.755 1.669-1.841 1.87-.102.236-.094.602.016.83a.973.973 0 0 0 .905.563c.393.001.534-.099 1.466-1.039.787-.795.829-.845.895-1.07.116-.401.016-.753-.296-1.034a1.091 1.091 0 0 0-.37-.208c-.224-.066-.307-.071-.495-.024m-7.182 2.104c-.374.115-.434.202-1.197 1.742L9.78 9.22l-1.554.228c-1.356.2-1.576.242-1.728.331-.419.246-.593.727-.433 1.198.073.213.106.249 1.465 1.576.553.54.87.878.87.929 0 .043-.108.705-.24 1.471-.132.767-.24 1.483-.24 1.592 0 .585.583 1.061 1.153.942.14-.029.674-.286 1.548-.746.734-.385 1.355-.701 1.379-.701.024 0 .645.316 1.379.701.874.46 1.408.717 1.548.746.57.119 1.153-.357 1.153-.942 0-.109-.108-.825-.24-1.592a46.137 46.137 0 0 1-.24-1.471c0-.051.317-.389.87-.929 1.359-1.327 1.392-1.363 1.465-1.576a.993.993 0 0 0-.433-1.198c-.152-.089-.372-.131-1.728-.331L14.22 9.22l-.701-1.416c-.769-1.552-.822-1.628-1.214-1.745a.925.925 0 0 0-.627.003m.663 3.907c.367.747.559.992.853 1.088.102.034.501.107.886.164.385.056.715.106.733.111.018.006-.228.264-.547.575-.835.814-.841.831-.665 1.858.066.382.13.746.143.808.023.11.007.104-.73-.28-.728-.379-.763-.392-1.014-.392s-.286.013-1.014.392c-.737.384-.753.39-.73.28.013-.062.077-.426.143-.808.176-1.026.172-1.038-.663-1.854-.32-.313-.567-.573-.549-.579.018-.005.348-.055.733-.111.385-.057.784-.13.886-.164.294-.096.486-.341.853-1.088.175-.357.329-.649.341-.649.012 0 .166.292.341.649m-10.698 1.1C1.291 11.193 1 11.614 1 12c0 .396.291.808.66.934.163.055.378.066 1.34.066 1.316 0 1.421-.018 1.701-.299a.984.984 0 0 0 0-1.402c-.282-.282-.383-.299-1.718-.296-.945.003-1.196.015-1.34.066m18 0c-.352.124-.643.545-.643.931 0 .396.291.808.66.934.163.055.378.066 1.34.066 1.316 0 1.421-.018 1.701-.299a.984.984 0 0 0 0-1.402c-.282-.282-.383-.299-1.718-.296-.945.003-1.196.015-1.34.066M5.86 16.797c-.118.068-.531.449-1.006.929-.767.775-.809.825-.875 1.05-.112.387-.019.741.267 1.01.287.269.601.344.978.235.225-.066.275-.108 1.07-.895.94-.932 1.04-1.073 1.039-1.466-.001-.583-.408-.98-1.003-.98-.225.001-.303.02-.47.117m11.361-.035a.96.96 0 0 0-.555.896c.002.402.082.515 1.025 1.451.811.805.86.846 1.085.912.378.109.691.034.978-.235.286-.269.379-.623.267-1.01-.066-.225-.108-.275-.875-1.05-.944-.953-1.076-1.046-1.486-1.044-.197.001-.327.025-.439.08m-5.578 2.307a1.066 1.066 0 0 0-.577.591c-.098.288-.098 2.392 0 2.68.126.369.538.66.934.66s.808-.291.934-.66c.098-.288.098-2.392 0-2.68-.173-.508-.762-.778-1.291-.591" fill="#667085" fill-rule="evenodd"/></svg>