<svg width="24" height="24" fill="none" xmlns="http://www.w3.org/2000/svg"><path d="M11.752 2.046a1.33 1.33 0 0 0-.816.442c-.164.178-.399.618-1.456 2.732L8.22 7.74l-2.658.387c-1.463.213-2.738.408-2.835.432-.412.104-.801.396-.971.729-.299.586-.223 1.188.214 1.696.116.134.984.996 1.93 1.915l1.872 1.819.153.148-.467 2.717c-.522 3.047-.53 3.128-.322 3.552.287.587.958.942 1.56.826.325-.063.593-.194 3.134-1.532L12 19.286l2.17 1.143c2.541 1.338 2.809 1.469 3.134 1.532.602.116 1.273-.239 1.56-.826.208-.424.2-.505-.322-3.552l-.467-2.717.153-.148c2.58-2.505 3.632-3.537 3.802-3.735.437-.506.513-1.109.214-1.695-.17-.333-.559-.625-.971-.729-.097-.024-1.372-.219-2.835-.432L15.78 7.74l-1.26-2.519c-.89-1.779-1.306-2.571-1.418-2.696-.357-.4-.793-.555-1.35-.479m.598 3.304c.177.369.661 1.353 1.076 2.187.632 1.272.784 1.548.942 1.706.357.359.367.361 2.963.739 1.281.186 2.368.348 2.416.359.074.016-.179.28-1.6 1.665-.928.904-1.745 1.719-1.817 1.809-.153.195-.29.599-.29.857 0 .101.181 1.236.401 2.521.221 1.286.396 2.344.389 2.351-.008.007-.94-.475-2.072-1.071-1.132-.596-2.144-1.118-2.248-1.158-.259-.102-.761-.102-1.02 0-.104.04-1.116.562-2.248 1.158-1.132.596-2.064 1.078-2.072 1.071-.007-.007.168-1.065.389-2.351.22-1.285.401-2.42.401-2.521 0-.258-.137-.662-.29-.857-.072-.09-.889-.905-1.817-1.809-1.421-1.385-1.674-1.649-1.6-1.665.048-.011 1.135-.173 2.416-.359 2.596-.378 2.606-.38 2.963-.739.158-.158.31-.434.942-1.706.415-.834.899-1.818 1.076-2.187.177-.369.335-.67.35-.67.015 0 .173.301.35.67" fill="#667085" fill-rule="evenodd"/></svg>