<svg width="24" height="24" fill="none" xmlns="http://www.w3.org/2000/svg"><path d="M14.789 1.043a.9.9 0 0 0-.513.304c-.112.125-.277.516-.891 2.113-.415 1.078-.809 2.067-.874 2.198a2.08 2.08 0 0 1-.824.834c-.147.077-1.149.479-2.227.893-1.709.657-1.982.773-2.128.907a.985.985 0 0 0-.238 1.079c.146.382.208.415 2.366 1.245 1.078.415 2.067.808 2.198.873.326.165.665.498.834.824.077.147.468 1.122.869 2.167.401 1.045.753 1.946.781 2.003.079.155.348.381.523.439a.994.994 0 0 0 1.043-.254c.134-.146.25-.419.907-2.128.414-1.078.816-2.08.893-2.227a2.08 2.08 0 0 1 .834-.824c.131-.065 1.12-.458 2.198-.873 1.708-.657 1.982-.774 2.128-.908a.97.97 0 0 0 0-1.416c-.146-.134-.419-.25-2.128-.907-1.078-.414-2.08-.816-2.227-.893a2.08 2.08 0 0 1-.824-.834c-.065-.131-.459-1.12-.874-2.198-.621-1.614-.779-1.988-.894-2.116a.997.997 0 0 0-.932-.301m.508 4.467c.449 1.166.714 1.624 1.211 2.093.49.462.86.668 1.982 1.1.391.15.71.284.71.297 0 .013-.319.147-.71.297-1.166.449-1.624.714-2.093 1.211-.462.49-.668.86-1.1 1.982-.15.39-.284.71-.297.71-.013 0-.147-.32-.297-.71-.432-1.122-.638-1.492-1.1-1.982-.469-.497-.927-.762-2.093-1.211-.39-.15-.71-.284-.71-.297 0-.013.32-.147.71-.297 1.122-.432 1.492-.638 1.982-1.1.497-.469.762-.927 1.211-2.093.15-.39.284-.71.297-.71.013 0 .147.32.297.71M6.24 12.035a1.086 1.086 0 0 0-.465.292c-.07.073-.399.677-.734 1.346-.832 1.658-.712 1.536-2.328 2.349-.711.358-1.303.682-1.391.761-.42.379-.418 1.046.004 1.442.074.07.68.399 1.354.737 1.641.823 1.535.717 2.358 2.358.338.674.667 1.28.737 1.354.207.22.406.304.725.304.319 0 .518-.084.725-.304.07-.074.399-.68.737-1.354.823-1.641.717-1.535 2.358-2.358.674-.338 1.28-.667 1.354-.737.22-.207.304-.406.304-.725 0-.326-.09-.534-.316-.733-.078-.068-.698-.404-1.378-.746-1.613-.811-1.493-.69-2.325-2.348-.335-.669-.664-1.273-.734-1.347a1.288 1.288 0 0 0-.282-.214c-.172-.088-.544-.129-.703-.077m.461 3.563c.413.799.949 1.326 1.769 1.737.16.081.29.155.29.165 0 .01-.112.075-.25.144-.859.429-1.426.991-1.845 1.826-.081.16-.155.29-.165.29-.01 0-.084-.13-.165-.29-.419-.835-.986-1.397-1.845-1.826a1.374 1.374 0 0 1-.25-.144c0-.01.13-.084.29-.165.82-.411 1.356-.938 1.769-1.737.102-.197.192-.358.201-.358.009 0 .099.161.201.358" fill="#667085" fill-rule="evenodd"/></svg>