<svg width="24" height="24" fill="none" xmlns="http://www.w3.org/2000/svg"><path d="M4.24 1.035a1.107 1.107 0 0 0-.667.585c-.059.133-.073.305-.085 1.03l-.015.87h-.858c-.944 0-1.01.013-1.274.245a.987.987 0 0 0-.016 1.463c.258.245.366.268 1.302.284l.846.015.015.846c.012.702.026.874.085 1.007.157.354.554.619.927.619s.77-.265.927-.619c.059-.133.073-.305.085-1.007l.015-.846.846-.015c.936-.016 1.044-.039 1.302-.284a.987.987 0 0 0-.016-1.463c-.264-.232-.33-.245-1.274-.245h-.858l-.015-.87c-.012-.725-.026-.897-.085-1.03a1.132 1.132 0 0 0-.484-.508c-.172-.088-.544-.129-.703-.077m8.424 1.028a1.004 1.004 0 0 0-.496.386c-.044.072-.471 1.148-.948 2.391-1.083 2.82-1.27 3.282-1.419 3.498a1.966 1.966 0 0 1-.757.631c-.141.064-1.442.574-2.892 1.131-1.508.58-2.695 1.059-2.774 1.118-.075.058-.186.19-.247.293-.095.161-.111.233-.111.489s.016.328.111.489c.061.103.172.235.247.292.077.059 1.21.517 2.609 1.056 3.347 1.288 3.25 1.247 3.567 1.539.33.306.303.244 1.611 3.642.643 1.672.991 2.524 1.069 2.62.371.458 1.161.458 1.532 0 .078-.096.426-.951 1.075-2.64 1.276-3.32 1.275-3.316 1.605-3.622.317-.292.22-.251 3.572-1.541 1.672-.643 2.524-.991 2.62-1.069.458-.371.458-1.161-.001-1.533-.096-.078-.988-.44-2.784-1.131a173.099 173.099 0 0 1-2.897-1.133 1.97 1.97 0 0 1-.752-.623c-.16-.233-.249-.452-1.331-3.266-.528-1.375-.995-2.557-1.037-2.626-.225-.367-.755-.544-1.172-.391m.89 5.167c.294.765.613 1.553.71 1.753a4.029 4.029 0 0 0 1.752 1.754c.2.097.989.417 1.754.71.764.293 1.39.543 1.39.555 0 .012-.625.262-1.39.555-.764.293-1.559.616-1.765.718a3.977 3.977 0 0 0-1.742 1.741c-.097.2-.417.989-.71 1.754-.293.764-.542 1.39-.553 1.39-.011 0-.26-.626-.554-1.39a38.14 38.14 0 0 0-.709-1.75c-.349-.719-.981-1.351-1.737-1.737-.209-.106-1.005-.433-1.77-.726-.765-.293-1.39-.543-1.39-.555 0-.012.626-.262 1.39-.555a37.17 37.17 0 0 0 1.754-.71 4.029 4.029 0 0 0 1.752-1.754c.097-.2.416-.988.71-1.753.294-.764.543-1.39.554-1.39.011 0 .26.626.554 1.39M4.24 16.035a1.107 1.107 0 0 0-.667.585c-.059.133-.073.305-.085 1.03l-.015.87h-.858c-.944 0-1.01.013-1.274.245a.987.987 0 0 0-.016 1.463c.258.245.366.268 1.302.284l.846.015.015.846c.012.702.026.874.085 1.007.157.354.554.619.927.619s.77-.265.927-.619c.059-.133.073-.305.085-1.007l.015-.846.846-.015c.936-.016 1.044-.039 1.302-.284a.987.987 0 0 0-.016-1.463c-.264-.232-.33-.245-1.274-.245h-.858l-.015-.87c-.012-.725-.026-.897-.085-1.03a1.132 1.132 0 0 0-.484-.508c-.172-.088-.544-.129-.703-.077" fill="#667085" fill-rule="evenodd"/></svg>