<svg width="24" height="24" fill="none" xmlns="http://www.w3.org/2000/svg"><path d="M11.659 1.064a.978.978 0 0 0-.533.466c-.045.093-.424 1.538-.842 3.21-.787 3.146-.904 3.57-1.063 3.84a2.301 2.301 0 0 1-.641.641c-.272.159-.585.245-3.837 1.062-3.483.875-3.362.833-3.603 1.219-.106.17-.12.227-.12.498s.014.329.121.502c.235.379.121.341 3.601 1.215 3.253.817 3.566.903 3.838 1.062.205.12.521.436.641.641.159.272.245.585 1.062 3.838.874 3.48.836 3.366 1.215 3.601.173.107.231.121.502.121s.329-.014.502-.121c.379-.234.341-.121 1.214-3.601.436-1.737.84-3.29.896-3.452.057-.162.152-.366.213-.453.128-.185.498-.532.652-.611.242-.125.765-.267 3.781-1.025 3.48-.874 3.367-.836 3.601-1.215.107-.173.121-.231.121-.502s-.014-.329-.121-.502c-.235-.379-.121-.341-3.601-1.215-3.257-.818-3.564-.903-3.842-1.064-.221-.129-.61-.555-.708-.778-.131-.295-.275-.835-1.032-3.861-.396-1.584-.757-2.957-.802-3.05-.202-.421-.75-.632-1.215-.466m.638 6.243c.479 1.923.662 2.33 1.364 3.032.7.7 1.131.894 3.029 1.365.61.151 1.11.284 1.11.296 0 .012-.498.145-1.107.297-1.923.479-2.33.662-3.032 1.364-.702.702-.885 1.109-1.364 3.032-.152.609-.285 1.107-.297 1.107-.012 0-.136-.463-.276-1.03-.283-1.145-.438-1.668-.606-2.04-.278-.615-.892-1.291-1.514-1.666-.426-.257-.952-.432-2.297-.767C6.698 12.145 6.2 12.012 6.2 12c0-.012.463-.136 1.03-.276 1.145-.283 1.668-.438 2.04-.606.746-.337 1.512-1.103 1.85-1.853.166-.367.322-.893.604-2.035.14-.567.264-1.03.276-1.03.012 0 .145.498.297 1.107" fill="#667085" fill-rule="evenodd"/></svg>