<svg width="24" height="24" fill="none" xmlns="http://www.w3.org/2000/svg"><path d="M11.136 1.082c-2.578.142-5.106 1.254-6.988 3.074C2.792 5.468 1.881 6.895 1.299 8.62c-.318.944-.326 1.326-.04 1.934.143.303.193.355 6.013 6.169 6.436 6.431 6.025 6.049 6.657 6.182.404.085.698.046 1.391-.185a10.4 10.4 0 0 0 2.699-1.323 10.758 10.758 0 0 0 1.821-1.541 10.255 10.255 0 0 0 1.961-2.796c1.133-2.312 1.43-4.779.879-7.29-.843-3.847-3.727-6.991-7.524-8.203-1.223-.391-2.635-.561-4.02-.485M12.9 3.124a8.884 8.884 0 0 1 3.045.916 9.03 9.03 0 0 1 4.056 4.1 8.742 8.742 0 0 1 .916 3.517c.091 1.658-.222 3.167-.96 4.623a9.05 9.05 0 0 1-4.223 4.127c-.267.128-.494.233-.503.233-.009 0-.018-.328-.019-.73-.003-1.281-.173-2.356-.552-3.494a10.84 10.84 0 0 0-2.7-4.376 10.918 10.918 0 0 0-5.208-2.937C5.788 8.866 4.58 8.74 3.73 8.79l-.37.021.048-.135c.101-.293.558-1.137.845-1.565A8.898 8.898 0 0 1 7.72 4.043c1.621-.821 3.315-1.122 5.18-.919m-7.36 7.735c3.427.529 6.312 3.031 7.317 6.346.227.749.405 1.886.376 2.405l-.013.231-4.54-4.545-4.54-4.545.5.023c.275.013.68.051.9.085" fill="#667085" fill-rule="evenodd"/></svg>