<svg width="24" height="24" fill="none" xmlns="http://www.w3.org/2000/svg"><path d="M5.9 2.026c-.973.077-1.532.256-2.2.707-.578.389-1.181 1.16-1.417 1.811-.279.77-.263.33-.263 7.456 0 6.02.004 6.442.072 6.773.108.531.284.971.553 1.389.595.92 1.488 1.523 2.582 1.746.331.068.753.072 6.773.072s6.442-.004 6.773-.072c1.084-.221 1.98-.822 2.568-1.725a3.86 3.86 0 0 0 .551-1.323c.079-.344.083-.505.098-3.58.01-2.22.001-3.324-.03-3.555a4.168 4.168 0 0 0-.71-1.805c-.219-.314-6.522-6.647-6.99-7.024a4.013 4.013 0 0 0-2-.852c-.323-.039-5.89-.055-6.36-.018m5.887 2 .207.024.017 2.225c.015 2.055.023 2.253.098 2.585a3.935 3.935 0 0 0 1.708 2.481c.411.268.812.435 1.323.55.332.075.53.083 2.585.098l2.225.017.024.207c.041.337.029 4.913-.014 5.588-.058.915-.152 1.193-.535 1.591-.363.378-.685.504-1.445.567-.641.053-11.319.053-11.96 0-.76-.063-1.082-.189-1.445-.567-.383-.398-.477-.676-.535-1.591-.052-.819-.052-10.783 0-11.602.022-.341.067-.724.1-.851.103-.397.416-.8.811-1.044.239-.148.575-.225 1.142-.261.59-.038 5.403-.052 5.694-.017m5.823 5.966c-1.064.014-1.964-.039-2.292-.135-.545-.16-1.037-.664-1.179-1.206C14.058 8.339 14 7.363 14 6.3v-.88l2.28 2.28 2.28 2.28-.95.012" fill="#667085" fill-rule="evenodd"/></svg>