<svg width="24" height="24" fill="none" xmlns="http://www.w3.org/2000/svg"><path d="M5.692 2.043c-.839.077-1.499.324-2.126.797-.698.526-1.233 1.341-1.424 2.166-.138.595-.147 1.089-.132 7.314.014 5.55.021 6.171.082 6.467.199.969.73 1.824 1.48 2.384.539.402.985.601 1.656.737.33.067.756.072 6.772.072 6.031 0 6.441-.004 6.775-.072 1.635-.333 2.8-1.498 3.133-3.133.068-.334.072-.744.072-6.775 0-7.126.016-6.686-.263-7.456-.371-1.024-1.365-1.978-2.417-2.317-.642-.208-.406-.201-7.06-.209-3.399-.005-6.345.007-6.548.025M17.78 4.04c.352.021.743.066.87.099.555.145 1.069.659 1.21 1.21.119.463.139 1.416.139 6.631.001 5.203-.021 6.26-.136 6.691-.105.393-.455.821-.872 1.065-.415.243-.25.237-6.611.253-5.845.016-6.565.003-7.051-.126-.531-.141-1.048-.668-1.19-1.213-.116-.443-.138-1.526-.138-6.65 0-5.135.022-6.207.139-6.654.103-.394.412-.789.819-1.046.232-.146.577-.223 1.156-.258.761-.046 10.919-.048 11.665-.002M8.736 7.039a1.947 1.947 0 0 0-1.124.557c-.235.231-.37.45-.499.806l-.093.258v3.32c0 3.313 0 3.321.088 3.6.2.633.656 1.095 1.292 1.311.258.088.284.088 3.419.1 2.061.008 3.254-.002 3.43-.03.804-.124 1.406-.628 1.64-1.373l.091-.288V12c0-3.293 0-3.301-.088-3.58A1.983 1.983 0 0 0 15.6 7.109c-.259-.087-.278-.088-3.46-.094-1.76-.004-3.292.007-3.404.024M15 12v3H9V9h6v3" fill="#667085" fill-rule="evenodd"/></svg>