<svg width="24" height="24" fill="none" xmlns="http://www.w3.org/2000/svg"><path d="M9.34 3.046c-.974.124-2.006.617-2.756 1.318-.904.844-1.502 2.108-1.571 3.319-.031.53.036.768.285 1.017a.983.983 0 0 0 1.404 0c.201-.201.282-.431.313-.889.088-1.301.957-2.362 2.225-2.718.239-.067.463-.073 2.76-.073 2.297 0 2.521.006 2.76.073 1.268.356 2.137 1.417 2.225 2.718.031.458.112.688.313.889a.983.983 0 0 0 1.404 0c.249-.249.316-.487.285-1.017-.069-1.211-.667-2.475-1.571-3.319a5.082 5.082 0 0 0-2.824-1.323c-.403-.05-4.85-.046-5.252.005m-6.697 8.023a1.118 1.118 0 0 0-.343.229c-.48.48-.352 1.292.25 1.588l.19.094 5.9.021c5.518.02 5.916.026 6.14.093.852.255 1.556.843 1.92 1.605.216.452.276.734.276 1.301s-.06.849-.276 1.301a3.077 3.077 0 0 1-1.94 1.606c-.239.067-.463.073-2.76.073-2.297 0-2.521-.006-2.76-.073-1.268-.356-2.137-1.417-2.225-2.718-.031-.458-.112-.688-.313-.889a.983.983 0 0 0-1.404 0c-.249.249-.316.487-.285 1.017.064 1.123.57 2.272 1.377 3.128.603.638 1.496 1.164 2.39 1.405l.48.13h5.48l.48-.13c1.793-.484 3.175-1.871 3.624-3.636.342-1.345.104-2.659-.698-3.85a6.024 6.024 0 0 1-.226-.35c0-.008.726-.014 1.613-.014 1.834 0 1.875-.006 2.168-.299a.984.984 0 0 0 0-1.402c-.326-.327.567-.299-9.718-.296-8.192.003-9.182.01-9.34.066" fill="#667085" fill-rule="evenodd"/></svg>