<svg width="24" height="24" fill="none" xmlns="http://www.w3.org/2000/svg"><path d="M5.9 2.025c-.991.083-1.531.257-2.2.708-.578.389-1.181 1.16-1.417 1.811-.279.77-.263.33-.263 7.456 0 6.02.004 6.442.072 6.773.223 1.094.826 1.987 1.746 2.582.418.269.858.445 1.389.553.331.068.753.072 6.773.072s6.442-.004 6.773-.072c1.094-.223 1.987-.826 2.582-1.746.269-.418.445-.858.553-1.389.068-.331.072-.753.072-6.773s-.004-6.442-.072-6.773c-.289-1.42-1.291-2.57-2.618-3.005-.611-.2-.432-.195-7.05-.203a802.572 802.572 0 0 0-6.34.006M17.801 4.04c.341.022.723.066.85.099.553.144 1.065.656 1.209 1.209.118.452.14 1.48.14 6.652 0 5.167-.022 6.2-.139 6.651-.142.544-.638 1.05-1.181 1.206-.442.126-1.17.142-6.68.142s-6.238-.016-6.68-.142c-.543-.156-1.039-.662-1.181-1.206C4.022 18.2 4 17.167 4 12c0-5.172.022-6.2.14-6.652.103-.397.416-.8.811-1.044.239-.148.575-.225 1.142-.261.734-.047 10.98-.05 11.708-.003M10.46 6.045c-1.085.158-2.123.924-2.601 1.922-.156.327-.185.645-.081.894.223.534.852.786 1.354.543.223-.108.376-.276.551-.604.159-.298.455-.568.757-.691.213-.086.263-.089 1.64-.089 1.371 0 1.426.003 1.607.086.289.134.536.388.72.742.091.176.221.359.291.413.594.453 1.405.204 1.607-.494.081-.276.051-.475-.129-.85a3.325 3.325 0 0 0-2.434-1.856c-.275-.047-.65-.06-1.697-.056-.74.003-1.453.02-1.585.04m-4.817 5.024a1.118 1.118 0 0 0-.343.229c-.48.48-.352 1.292.25 1.588l.19.094 3.82.02 3.82.02.227.106c.303.143.553.38.717.684.131.241.136.266.136.69 0 .424-.005.449-.136.69a1.58 1.58 0 0 1-.717.684l-.227.106h-1.42c-1.304 0-1.436-.006-1.619-.077-.286-.11-.555-.381-.748-.752-.237-.455-.502-.631-.953-.631a.966.966 0 0 0-.945.714c-.081.275-.051.474.129.849a3.316 3.316 0 0 0 1.907 1.72c.51.175.749.196 2.215.197 1.495 0 1.705-.021 2.274-.231 1.832-.674 2.774-2.806 2.006-4.539l-.102-.23h1.011c1.166 0 1.291-.024 1.566-.299a.984.984 0 0 0 0-1.402c-.323-.323.205-.299-6.718-.296-5.475.003-6.183.01-6.34.066" fill="#667085" fill-rule="evenodd"/></svg>