<svg width="24" height="24" fill="none" xmlns="http://www.w3.org/2000/svg"><path d="M9.34 3.046c-.974.124-2.006.617-2.756 1.318-.904.844-1.502 2.108-1.571 3.319-.031.53.036.768.285 1.017a.983.983 0 0 0 1.404 0c.2-.2.282-.431.313-.88.057-.851.516-1.619 1.257-2.104.405-.266 1.234-.577 1.145-.43l-.171.272c-.614.965-.916 2.368-.628 2.916.151.289.547.524.882.525.372.001.777-.269.92-.612.035-.084.081-.349.102-.589.072-.817.333-1.384.895-1.938a2.881 2.881 0 0 1 1.283-.747c.283-.082.405-.093 1.06-.092.588.001.793.016 1 .073a3.002 3.002 0 0 1 2.225 2.717c.031.458.112.688.313.889a.983.983 0 0 0 1.404 0c.249-.249.316-.487.285-1.017-.069-1.211-.667-2.475-1.571-3.319a5.082 5.082 0 0 0-2.824-1.323c-.403-.05-4.85-.046-5.252.005m-6.697 8.023a1.118 1.118 0 0 0-.343.229c-.48.48-.352 1.292.25 1.588l.19.094 4.14.021 4.14.021.3.092a3.077 3.077 0 0 1 2.032 1.955c.094.281.104.37.105.931.001.576-.007.643-.11.94-.25.719-.793 1.37-1.407 1.687-.594.307-.813.353-1.68.353-.613 0-.81-.014-1.02-.073-1.268-.355-2.137-1.417-2.225-2.718-.031-.458-.112-.688-.313-.889a.983.983 0 0 0-1.404 0c-.249.249-.316.487-.285 1.017.064 1.123.57 2.272 1.377 3.128.603.638 1.496 1.164 2.39 1.405l.48.13h5.48l.48-.13c1.793-.484 3.175-1.871 3.624-3.636.342-1.345.104-2.659-.698-3.85a6.024 6.024 0 0 1-.226-.35c0-.008.726-.014 1.613-.014 1.834 0 1.875-.006 2.168-.299a.984.984 0 0 0 0-1.402c-.326-.327.567-.299-9.718-.296-8.192.003-9.182.01-9.34.066m12.485 2.338c.852.325 1.503 1.004 1.758 1.833.131.426.131 1.094 0 1.52-.23.745-.758 1.352-1.507 1.731-.206.104-.771.29-.798.263-.009-.008.048-.114.126-.235.413-.64.704-1.455.768-2.155.085-.915-.184-1.962-.721-2.806l-.171-.272c-.045-.075.145-.033.545.121" fill="#667085" fill-rule="evenodd"/></svg>