<svg width="24" height="24" fill="none" xmlns="http://www.w3.org/2000/svg"><path d="M2.643 4.069C2.291 4.193 2 4.614 2 5c0 .08.029.234.065.343.059.178.278.41 2.289 2.427L6.578 10l-2.224 2.23c-2.011 2.017-2.23 2.249-2.289 2.427-.129.39-.044.766.234 1.044s.654.363 1.044.234c.178-.059.41-.278 2.427-2.289L8 11.422l2.23 2.224c2.017 2.011 2.249 2.23 2.427 2.289.39.129.766.044 1.044-.234s.363-.654.234-1.044c-.059-.178-.278-.41-2.289-2.427L9.422 10l2.224-2.23c2.011-2.017 2.23-2.249 2.289-2.427.129-.39.044-.766-.234-1.044s-.654-.363-1.044-.234c-.178.059-.41.278-2.427 2.289L8 8.578 5.77 6.354c-2.017-2.011-2.249-2.23-2.427-2.289a1.032 1.032 0 0 0-.7.004m15.857 6.96a3.057 3.057 0 0 0-2.282 1.633c-.297.598-.284.967.047 1.336.206.228.43.329.735.332.411.003.713-.202.928-.63.143-.286.314-.476.532-.593.211-.113.733-.122.929-.016.393.213.587.514.59.912.001.228-.015.287-.116.433-.191.275-.668.597-1.563 1.054-.462.236-.964.522-1.115.636-.736.556-1.118 1.367-1.173 2.496-.029.597.031.823.286 1.078.303.303.273.3 2.702.3 2.427 0 2.399.003 2.701-.299a.984.984 0 0 0 0-1.402c-.29-.29-.35-.299-2.028-.299-1.247 0-1.473-.009-1.473-.057 0-.117.342-.342 1.054-.695.806-.399 1.341-.737 1.711-1.079.929-.86 1.25-1.977.883-3.071a2.752 2.752 0 0 0-.725-1.181 3.097 3.097 0 0 0-2.623-.888" fill="#667085" fill-rule="evenodd"/></svg>