<svg width="24" height="24" fill="none" xmlns="http://www.w3.org/2000/svg"><path d="M11.643 3.069a1.066 1.066 0 0 0-.577.591c-.098.288-.098 2.392 0 2.68.126.369.538.66.934.66s.808-.291.934-.66c.098-.288.098-2.392 0-2.68-.173-.508-.762-.778-1.291-.591M3.447 6.024c-.341.17-.539.503-.537.903.002.366.119.527 1.044 1.444.741.733.848.825 1.041.888.776.255 1.519-.488 1.264-1.264-.063-.193-.155-.301-.893-1.046C4.438 6.012 4.306 5.92 3.9 5.92a.893.893 0 0 0-.453.104m16.209-.005c-.141.071-.436.339-1.022.93-.738.745-.83.853-.893 1.046a1.001 1.001 0 0 0 1.264 1.264c.193-.063.301-.155 1.047-.894.922-.914 1.04-1.079 1.039-1.457a.971.971 0 0 0-.991-.988.894.894 0 0 0-.444.099M11.42 9.024c-1.684.172-3.121.864-4.284 2.061-.975 1.004-1.614 2.246-1.897 3.685l-.045.23h-1.67c-1.897 0-1.931.004-2.225.299a.984.984 0 0 0 0 1.402C1.626 17.028.615 17 12 17s10.374.028 10.701-.299a.984.984 0 0 0 0-1.402c-.294-.295-.328-.299-2.225-.299h-1.67l-.046-.23c-.302-1.527-.982-2.802-2.045-3.834a6.728 6.728 0 0 0-3.575-1.837c-.353-.061-1.405-.107-1.72-.075m1.54 2.074a4.887 4.887 0 0 1 3.415 2.68c.133.273.341.849.401 1.112l.026.11H7.198l.027-.11c.082-.346.247-.798.416-1.141a4.875 4.875 0 0 1 3.726-2.709c.354-.05 1.235-.018 1.593.058m-8.317 7.971C4.291 19.193 4 19.614 4 20c0 .242.119.521.299.701.324.324-.322.299 7.701.299s7.377.025 7.701-.299a.984.984 0 0 0 0-1.402c-.324-.324.325-.299-7.718-.296-6.381.003-7.182.01-7.34.066" fill="#667085" fill-rule="evenodd"/></svg>