<svg width="24" height="24" fill="none" xmlns="http://www.w3.org/2000/svg"><path d="M11.617 2.577a1.156 1.156 0 0 0-.523.523c-.091.195-.093.227-.093 1.4 0 1.173.002 1.204.093 1.4.051.11.166.265.254.345.497.448 1.268.277 1.558-.345.091-.196.093-.227.093-1.4 0-1.173-.002-1.205-.093-1.4a1.146 1.146 0 0 0-.532-.525c-.166-.07-.596-.069-.757.002M4.64 5.435a1.074 1.074 0 0 0-.488.317.923.923 0 0 0-.246.648c0 .376.047.443.969 1.374.549.555.923.902 1.025.95.186.086.516.098.755.027.235-.07.515-.361.604-.629a.98.98 0 0 0-.041-.73c-.092-.185-1.684-1.78-1.875-1.879-.171-.089-.544-.13-.703-.078m14.14.024c-.088.033-.168.06-.178.06-.059.002-1.742 1.729-1.807 1.854-.197.379-.118.828.201 1.146.111.11.25.203.349.232.239.071.569.059.755-.027.102-.048.476-.395 1.025-.95.922-.931.969-.998.969-1.374 0-.371-.213-.716-.548-.887-.21-.107-.559-.132-.766-.054m-7.74 2.12c-2.054.34-3.857 1.786-4.602 3.692-.284.726-.438 1.483-.437 2.149 0 .753.65 1.251 1.334 1.022.366-.122.664-.553.665-.962.001-.334.105-.946.215-1.268.467-1.363 1.594-2.345 3.026-2.635.495-.1 1.377-.064 1.845.077.475.142.751.27 1.138.527a3.94 3.94 0 0 1 1.563 2.039c.109.315.212.929.213 1.26.001.281.133.571.348.765.519.467 1.336.252 1.592-.419.14-.366.01-1.473-.264-2.254-.606-1.723-1.932-3.085-3.603-3.698-.669-.245-1.098-.319-1.933-.336-.53-.011-.863.002-1.1.041m-9.423 4.998c-.346.15-.616.556-.616.923 0 .386.303.818.664.945.118.042.438.055 1.335.055s1.217-.013 1.335-.055c.361-.127.664-.559.664-.945 0-.372-.274-.779-.625-.925-.188-.078-2.576-.077-2.757.002m18 0c-.346.15-.616.556-.616.923 0 .386.303.818.664.945.118.042.438.055 1.335.055s1.217-.013 1.335-.055c.361-.127.664-.559.664-.945 0-.372-.274-.779-.625-.925-.188-.078-2.576-.077-2.757.002M1.643 16.069C1.291 16.193 1 16.614 1 17c0 .396.291.808.66.934.179.061 1.001.066 10.34.066 11.385 0 10.374.028 10.701-.299a.984.984 0 0 0 0-1.402c-.327-.327.687-.299-10.718-.296-9.098.003-10.182.01-10.34.066m1.974 3.508c-.346.15-.616.556-.616.923 0 .386.303.818.664.945.231.082 16.439.082 16.67 0 .361-.127.664-.559.664-.945 0-.372-.274-.779-.625-.925-.193-.081-16.571-.079-16.757.002" fill="#667085" fill-rule="evenodd"/></svg>