<svg width="24" height="24" fill="none" xmlns="http://www.w3.org/2000/svg"><path d="M11.643 1.069a1.066 1.066 0 0 0-.577.591c-.098.288-.098 2.392 0 2.68.126.369.538.66.934.66s.808-.291.934-.66c.098-.288.098-2.392 0-2.68-.173-.508-.762-.778-1.291-.591M4.447 4.024c-.341.17-.539.503-.537.903.002.366.119.527 1.044 1.444.741.733.848.825 1.041.888.776.255 1.519-.488 1.264-1.264-.063-.193-.155-.301-.893-1.046C5.438 4.012 5.306 3.92 4.9 3.92a.893.893 0 0 0-.453.104m14.209-.005c-.141.071-.436.339-1.022.93-.738.745-.83.853-.893 1.046a1.001 1.001 0 0 0 1.264 1.264c.193-.063.301-.155 1.047-.894.922-.914 1.04-1.079 1.039-1.457a.971.971 0 0 0-.991-.988.894.894 0 0 0-.444.099M11.32 6.044a5.949 5.949 0 0 0-3.429 1.611c-.743.71-1.252 1.493-1.566 2.408-.243.711-.299 1.073-.299 1.937 0 .843.054 1.206.276 1.871.681 2.036 2.379 3.543 4.527 4.017.566.125 1.776.125 2.342 0 1.223-.27 2.177-.791 3.052-1.665.874-.875 1.396-1.831 1.664-3.052.128-.58.127-1.738-.001-2.331-.255-1.175-.758-2.131-1.564-2.973a5.956 5.956 0 0 0-5.002-1.823M13 8.134c.736.19 1.304.517 1.841 1.061a3.89 3.89 0 0 1 1.047 1.874c.124.499.124 1.363 0 1.862a3.89 3.89 0 0 1-1.047 1.874c-.533.54-1.078.856-1.834 1.066-.343.095-.458.107-1.007.107-.523.001-.673-.014-.96-.091-.768-.208-1.323-.526-1.862-1.065a3.863 3.863 0 0 1-1.066-1.891c-.124-.499-.124-1.363 0-1.862a3.89 3.89 0 0 1 1.047-1.874 3.942 3.942 0 0 1 2.264-1.154c.397-.062 1.147-.018 1.577.093M1.643 11.069C1.291 11.193 1 11.614 1 12c0 .396.291.808.66.934.163.055.378.066 1.34.066 1.316 0 1.421-.018 1.701-.299a.984.984 0 0 0 0-1.402c-.282-.282-.383-.299-1.718-.296-.945.003-1.196.015-1.34.066m18 0c-.352.124-.643.545-.643.931 0 .396.291.808.66.934.163.055.378.066 1.34.066 1.316 0 1.421-.018 1.701-.299a.984.984 0 0 0 0-1.402c-.282-.282-.383-.299-1.718-.296-.945.003-1.196.015-1.34.066m-13.55 5.647c-.257.066-.491.256-1.241 1.011-.85.856-.945.997-.944 1.393.001.388.247.756.609.911.215.092.591.081.806-.023.122-.059.453-.363 1.023-.937.758-.765.85-.873.913-1.066a.997.997 0 0 0-.843-1.301 1.182 1.182 0 0 0-.323.012m11.367 0c-.569.147-.9.739-.719 1.289.063.193.155.301.913 1.066.57.574.901.878 1.023.937.215.104.591.115.806.023a1.01 1.01 0 0 0 .608-.916c.003-.396-.106-.555-.999-1.44-.452-.449-.862-.821-.956-.868-.189-.095-.501-.137-.676-.091m-5.817 2.353a1.066 1.066 0 0 0-.577.591c-.098.288-.098 2.392 0 2.68.126.369.538.66.934.66s.808-.291.934-.66c.098-.288.098-2.392 0-2.68-.173-.508-.762-.778-1.291-.591" fill="#667085" fill-rule="evenodd"/></svg>