<svg width="24" height="24" fill="none" xmlns="http://www.w3.org/2000/svg"><path d="M11.62 1.915a1.085 1.085 0 0 0-.512.46c-.084.158-.089.216-.1 1.378-.014 1.378.005 1.5.268 1.763a.918.918 0 0 0 .724.302.901.901 0 0 0 .725-.308c.257-.264.275-.376.275-1.667 0-.664-.018-1.205-.042-1.292-.108-.391-.539-.712-.953-.71-.131 0-.292.031-.385.074M4.683 4.764c-.51.099-.873.645-.761 1.147.024.104.085.261.137.349.133.225 1.607 1.674 1.801 1.771a.92.92 0 0 0 .72.071.996.996 0 0 0 .679-1.267c-.063-.193-.155-.301-.913-1.066-.537-.542-.902-.877-1.005-.925a1.069 1.069 0 0 0-.658-.08m14.204-.001c-.095.019-.23.069-.3.113-.07.043-.498.453-.951.911-.74.747-.832.855-.895 1.048-.276.841.603 1.592 1.399 1.196.089-.045.509-.426.952-.866.893-.885 1.002-1.044.999-1.44-.006-.637-.567-1.085-1.204-.962M11.24 6.881c-.722.1-1.319.293-2 .644a6 6 0 0 0-3.226 4.957c-.031.558.031.803.262 1.034a.918.918 0 0 0 .724.302.902.902 0 0 0 .726-.309c.185-.191.26-.422.289-.892.104-1.655 1.146-3.039 2.685-3.564a4.01 4.01 0 0 1 4.189 1.021c.672.703 1.021 1.521 1.103 2.589.042.545.133.761.403.959.576.422 1.35.165 1.566-.52.067-.209.025-.957-.08-1.453a6.034 6.034 0 0 0-3.121-4.124c-.907-.468-1.579-.64-2.6-.665a8.284 8.284 0 0 0-.92.021m-9.62 5.034c-.406.185-.596.472-.598.905-.002.363.113.612.373.802.282.206.447.226 1.725.211 1.036-.012 1.154-.02 1.298-.091a1.002 1.002 0 0 0-.069-1.841c-.121-.05-.359-.061-1.358-.06-1.086.001-1.228.008-1.371.074m18 0c-.406.185-.596.472-.598.905-.002.363.113.612.373.802.282.206.447.226 1.725.211 1.036-.012 1.154-.02 1.298-.091a1.002 1.002 0 0 0-.069-1.841c-.121-.05-.359-.061-1.358-.06-1.086.001-1.228.008-1.371.074M3.16 15.899c-.725.123-1.481.39-1.723.609a.983.983 0 0 0-.012 1.46c.309.296.664.34 1.182.149.544-.2.833-.249 1.473-.249.684 0 .971.055 1.615.308.955.377 1.451.478 2.345.478.894 0 1.39-.101 2.345-.478.644-.253.931-.308 1.615-.308.684 0 .971.055 1.615.308.955.377 1.451.478 2.345.478.894 0 1.39-.101 2.345-.478.644-.253.931-.308 1.615-.308.64 0 .929.049 1.473.249.183.068.41.123.505.123.715 0 1.213-.777.906-1.411-.133-.275-.341-.439-.768-.603a5.48 5.48 0 0 0-2.116-.386c-.852 0-1.43.116-2.34.471-.631.246-1.047.329-1.634.328-.572 0-1.029-.095-1.646-.34-.848-.338-1.453-.459-2.3-.459-.852 0-1.43.116-2.34.471-.631.246-1.047.329-1.634.328-.572 0-1.029-.095-1.646-.34-.869-.346-1.457-.461-2.34-.455a7.173 7.173 0 0 0-.88.055m8.2 3.461a5.718 5.718 0 0 0-1.3.306c-1.045.375-1.17.41-1.59.459-.595.068-1.129.006-1.757-.207-.573-.194-.803-.205-1.106-.054-.62.309-.727 1.182-.2 1.633.263.225 1.146.521 1.853.622a7.723 7.723 0 0 0 1.565-.002 6.594 6.594 0 0 0 1.491-.413c.708-.289.887-.324 1.684-.324.797 0 .976.035 1.684.324a5.695 5.695 0 0 0 2.276.456c.763 0 1.462-.131 2.146-.402.51-.202.688-.376.792-.777a.972.972 0 0 0-.493-1.11c-.308-.16-.535-.15-1.118.047-.628.213-1.162.275-1.757.207-.421-.049-.546-.085-1.599-.462a6.78 6.78 0 0 0-.814-.226c-.469-.09-1.323-.128-1.757-.077" fill="#667085" fill-rule="evenodd"/></svg>