<svg width="24" height="24" fill="none" xmlns="http://www.w3.org/2000/svg"><path d="M11.64 1.068c-.154.053-.488.369-2.311 2.187-1.516 1.511-2.156 2.176-2.217 2.301A.99.99 0 0 0 7.298 6.7c.279.28.656.364 1.045.234.174-.057.342-.21 1.427-1.288L11 4.423v2.361c0 2.668-.006 2.612.299 2.917.18.18.459.299.701.299.242 0 .521-.119.701-.299.305-.305.299-.249.299-2.917V4.423l1.23 1.223c1.085 1.078 1.253 1.231 1.427 1.288.389.13.766.046 1.045-.234a.99.99 0 0 0 .186-1.144c-.061-.125-.701-.79-2.217-2.301-1.924-1.919-2.15-2.131-2.328-2.19a1.053 1.053 0 0 0-.703.003m-7.193 8.956c-.341.17-.539.503-.537.903.002.366.119.527 1.044 1.444.741.733.848.825 1.041.888.776.255 1.519-.488 1.264-1.264-.063-.193-.155-.301-.893-1.046-.928-.937-1.06-1.029-1.466-1.029a.893.893 0 0 0-.453.104m14.209-.005c-.141.071-.436.339-1.022.93-.738.745-.83.853-.893 1.046a1.001 1.001 0 0 0 1.264 1.264c.193-.063.301-.155 1.047-.894.922-.914 1.04-1.079 1.039-1.457a.971.971 0 0 0-.991-.988.894.894 0 0 0-.444.099m-7.336 2.025a5.949 5.949 0 0 0-3.429 1.611c-.743.71-1.252 1.493-1.566 2.408-.278.814-.4 1.85-.265 2.256.129.389.532.681.94.681.401 0 .815-.295.931-.664.034-.108.073-.37.086-.583a3.902 3.902 0 0 1 1.178-2.594 3.89 3.89 0 0 1 1.874-1.047c.28-.07.469-.088.931-.088.462 0 .651.018.931.088a3.89 3.89 0 0 1 1.874 1.047 3.902 3.902 0 0 1 1.178 2.594c.013.213.052.475.086.583.116.369.53.664.931.664.407 0 .811-.292.94-.681.058-.173.067-.294.049-.636-.138-2.584-1.985-4.841-4.485-5.481a6.074 6.074 0 0 0-2.184-.158m-9.677 5.025C1.291 17.193 1 17.614 1 18c0 .396.291.808.66.934.163.055.378.066 1.34.066 1.316 0 1.421-.018 1.701-.299a.984.984 0 0 0 0-1.402c-.282-.282-.383-.299-1.718-.296-.945.003-1.196.015-1.34.066m18 0c-.352.124-.643.545-.643.931 0 .396.291.808.66.934.163.055.378.066 1.34.066 1.316 0 1.421-.018 1.701-.299a.984.984 0 0 0 0-1.402c-.282-.282-.383-.299-1.718-.296-.945.003-1.196.015-1.34.066m-18 4C1.291 21.193 1 21.614 1 22c0 .396.291.808.66.934.179.061 1.001.066 10.34.066 11.385 0 10.374.028 10.701-.299a.984.984 0 0 0 0-1.402c-.327-.327.687-.299-10.718-.296-9.098.003-10.182.01-10.34.066" fill="#667085" fill-rule="evenodd"/></svg>