<svg width="24" height="24" fill="none" xmlns="http://www.w3.org/2000/svg"><path d="M7.64 2.068c-.154.053-.488.369-2.311 2.187-1.516 1.511-2.156 2.176-2.217 2.301a1.018 1.018 0 0 0-.052.77c.065.201.198.342 2.195 2.345 1.511 1.516 2.176 2.156 2.301 2.217a.99.99 0 0 0 1.144-.186c.28-.279.364-.656.234-1.045-.057-.174-.21-.342-1.288-1.427L6.423 8h6.861c7.705 0 7.093.025 7.417-.299a.984.984 0 0 0 0-1.402c-.324-.324.288-.299-7.417-.299H6.423l1.223-1.23c1.078-1.085 1.231-1.253 1.288-1.427.13-.389.045-.766-.233-1.044a1.005 1.005 0 0 0-1.061-.231m8.003 10.001c-.352.124-.643.545-.643.931 0 .08.03.234.066.343.057.174.21.342 1.288 1.427L17.577 16h-6.861c-7.705 0-7.093-.025-7.417.299a.984.984 0 0 0 0 1.402c.324.324-.288.299 7.417.299h6.861l-1.223 1.23c-1.078 1.085-1.231 1.253-1.288 1.427-.13.389-.046.766.234 1.045a.99.99 0 0 0 1.144.186c.125-.061.79-.701 2.301-2.217 1.997-2.003 2.13-2.144 2.195-2.345a1.018 1.018 0 0 0-.052-.77c-.061-.125-.701-.79-2.217-2.301-1.924-1.919-2.15-2.131-2.328-2.19a1.032 1.032 0 0 0-.7.004" fill="#667085" fill-rule="evenodd"/></svg>