<svg width="24" height="24" fill="none" xmlns="http://www.w3.org/2000/svg"><path d="M6.64 3.068c-.154.053-.488.369-2.311 2.187-1.516 1.511-2.156 2.176-2.217 2.301A.99.99 0 0 0 2.298 8.7c.279.28.656.364 1.045.234.174-.057.342-.21 1.427-1.288L6 6.423v6.861c0 7.705-.025 7.093.299 7.417a.984.984 0 0 0 1.402 0c.324-.324.299.288.299-7.417V6.423l1.23 1.223c1.085 1.078 1.253 1.231 1.427 1.288.389.13.766.046 1.045-.234a.99.99 0 0 0 .186-1.144c-.061-.125-.701-.79-2.217-2.301-1.924-1.919-2.15-2.131-2.328-2.19a1.053 1.053 0 0 0-.703.003m10.003.001a1.118 1.118 0 0 0-.343.229c-.325.325-.3-.288-.3 7.418v6.861l-1.23-1.223c-1.085-1.078-1.253-1.231-1.427-1.288-.389-.13-.766-.045-1.044.233s-.363.654-.234 1.044c.059.178.271.404 2.19 2.328 1.511 1.516 2.176 2.156 2.301 2.217.244.118.509.136.77.052.201-.065.342-.198 2.345-2.195 1.516-1.511 2.156-2.176 2.217-2.301a.99.99 0 0 0-.186-1.144c-.279-.28-.656-.364-1.045-.234-.174.057-.342.21-1.427 1.288L18 17.577v-6.861c0-7.705.025-7.093-.299-7.417a.998.998 0 0 0-1.058-.23" fill="#667085" fill-rule="evenodd"/></svg>