<svg width="24" height="24" fill="none" xmlns="http://www.w3.org/2000/svg"><path d="M15.643 2.069C15.291 2.193 15 2.614 15 3c0 .08.03.234.066.343.057.174.21.342 1.288 1.427L17.577 6h-6.861c-7.705 0-7.093-.025-7.417.299a.984.984 0 0 0 0 1.402c.324.324-.288.299 7.417.299h6.861l-1.223 1.23c-1.078 1.085-1.231 1.253-1.288 1.427-.13.389-.045.766.233 1.044s.655.363 1.044.234c.178-.059.403-.27 2.309-2.17 2.329-2.323 2.317-2.307 2.32-2.776.003-.442.004-.44-2.319-2.754-1.907-1.899-2.132-2.111-2.31-2.17a1.032 1.032 0 0 0-.7.004M7.64 12.068c-.154.053-.488.369-2.311 2.187-1.516 1.511-2.156 2.176-2.217 2.301a1.018 1.018 0 0 0-.052.77c.065.201.198.342 2.195 2.345 1.511 1.516 2.176 2.156 2.301 2.217a.99.99 0 0 0 1.144-.186c.28-.279.364-.656.234-1.045-.057-.174-.21-.342-1.288-1.427L6.423 18h6.861c7.705 0 7.093.025 7.417-.299a.984.984 0 0 0 0-1.402c-.324-.324.288-.299-7.417-.299H6.423l1.223-1.23c1.078-1.085 1.231-1.253 1.288-1.427.13-.389.045-.766-.233-1.044a1.005 1.005 0 0 0-1.061-.231" fill="#667085" fill-rule="evenodd"/></svg>