<svg width="24" height="24" fill="none" xmlns="http://www.w3.org/2000/svg"><path d="M5.656 1.04a2.876 2.876 0 0 0-1.676.768 2.9 2.9 0 0 0-.939 1.832c-.031.239-.041 2.79-.033 8.6l.012 8.26.112.36a3.005 3.005 0 0 0 2.448 2.1c.19.029 2.309.038 6.6.03 5.889-.012 6.338-.017 6.579-.083a3.082 3.082 0 0 0 2.15-2.168c.067-.264.071-.746.071-8.739 0-8.163-.003-8.47-.075-8.74-.293-1.086-1.083-1.867-2.192-2.168-.234-.064-.733-.069-6.513-.076-3.443-.003-6.388.007-6.544.024m12.276 2c.426.036.49.051.647.159.265.183.336.33.381.787.051.531.051 15.5-.001 16.032-.03.316-.059.428-.139.549-.155.234-.358.347-.702.392-.397.051-11.836.052-12.232 0-.349-.045-.522-.141-.687-.38-.108-.157-.123-.221-.159-.647-.052-.632-.052-15.23 0-15.862.033-.401.055-.494.143-.627.179-.271.366-.363.81-.4.571-.047 11.373-.05 11.939-.003m-6.263 13.001c-.873.22-1.378 1.149-1.07 1.969.452 1.203 2.114 1.327 2.71.203.246-.463.256-.88.033-1.362-.272-.585-1.056-.965-1.673-.81" fill="#667085" fill-rule="evenodd"/></svg>