<svg width="24" height="24" fill="none" xmlns="http://www.w3.org/2000/svg"><path d="M3.752 1.162c-1.069.124-2.044.877-2.415 1.863-.211.559-.217.68-.217 4.242 0 2.848.009 3.338.063 3.602.08.388.223.745.425 1.062.219.343 9.664 9.786 10.152 10.149.419.312.951.569 1.422.688.533.133 1.405.126 1.941-.017a4.02 4.02 0 0 0 1.361-.675c.46-.341 5.25-5.132 5.596-5.596.313-.42.57-.952.687-1.422.128-.51.128-1.366 0-1.876a4.23 4.23 0 0 0-.687-1.422c-.347-.466-9.802-9.924-10.137-10.141a3.03 3.03 0 0 0-1.121-.438c-.299-.052-.84-.06-3.577-.056-1.774.003-3.345.02-3.493.037m7.008 2.085c.234.139 9.297 9.22 9.654 9.672.298.378.411.633.45 1.014.031.301-.035.734-.145.948-.173.341-.673.881-2.635 2.852-2.651 2.663-2.979 2.953-3.487 3.088-.388.104-.92.059-1.243-.104a4.124 4.124 0 0 1-.46-.321c-.432-.339-9.511-9.408-9.647-9.636l-.107-.18-.012-2.9c-.014-3.302.01-3.869.174-4.116.18-.272.366-.364.811-.401.213-.018 1.755-.031 3.427-.028l3.04.005.18.107M7.674 6.693c-.894.334-1.289 1.269-.885 2.095.143.291.5.619.8.734.319.123.745.122 1.071-.003.335-.128.731-.524.859-.859.124-.325.126-.752.004-1.07-.116-.301-.41-.62-.731-.791-.224-.12-.292-.137-.612-.148-.234-.008-.411.007-.506.042" fill="#667085" fill-rule="evenodd"/></svg>