<svg width="24" height="24" fill="none" xmlns="http://www.w3.org/2000/svg"><path d="M5.67.976c-.835.304-.89 1.448-.088 1.846.151.075.279.079 2.898.099 3 .023 2.832.01 3.279.265.112.065 1.794 1.713 4.421 4.333 2.752 2.744 4.291 4.252 4.387 4.295.868.394 1.755-.52 1.319-1.359-.101-.196-8.449-8.536-8.792-8.784a4.435 4.435 0 0 0-1.326-.622L11.38.943 8.6.932C6.331.923 5.792.931 5.67.976m-.873 3.468c-.798.061-1.38.329-1.938.892a2.88 2.88 0 0 0-.749 1.293c-.083.299-.087.396-.101 2.508-.012 1.909-.005 2.239.052 2.52.078.387.23.764.439 1.086.159.246 8.626 8.771 9.387 9.451.467.419.722.577 1.181.735.856.296 1.856.152 2.617-.375.38-.263 4.659-4.534 4.93-4.92a2.858 2.858 0 0 0 .545-1.739 2.88 2.88 0 0 0-.67-1.855c-.134-.165-2.212-2.264-4.617-4.664-3.41-3.404-4.428-4.397-4.623-4.513a3.005 3.005 0 0 0-1.363-.423c-.554-.046-4.483-.043-5.09.004m5.283 2.063c.137.064 1.215 1.122 4.502 4.419 2.377 2.383 4.375 4.413 4.44 4.511.105.157.118.21.118.483 0 .299-.004.312-.176.543-.229.309-4.112 4.192-4.421 4.421-.231.172-.244.176-.543.176-.299 0-.312-.004-.543-.176-.13-.096-2.283-2.22-4.784-4.72-4.444-4.441-4.549-4.549-4.61-4.761-.053-.183-.063-.484-.062-1.88.002-1.74.036-2.405.134-2.591.069-.132.284-.341.424-.414.154-.079 1.171-.11 3.361-.102 1.924.006 1.985.009 2.16.091" fill="#667085" fill-rule="evenodd"/></svg>