<svg width="24" height="24" fill="none" xmlns="http://www.w3.org/2000/svg"><path d="M5.9 1.179c-.345.066-.542.137-.912.327-.258.133-.444.304-1.811 1.671C1.743 4.61 1.643 4.719 1.491 5.02c-.09.176-.205.446-.256.6-.092.278-.093.296-.106 2.597-.011 2.008-.005 2.36.051 2.636.081.398.223.757.428 1.078.218.342 9.665 9.787 10.146 10.143.417.31.958.572 1.426.692.508.13 1.361.131 1.878.001a4.24 4.24 0 0 0 1.422-.687c.465-.346 5.254-5.135 5.6-5.6.312-.42.57-.951.687-1.422.13-.517.129-1.37-.001-1.878a4.38 4.38 0 0 0-.692-1.426c-.284-.383-9.423-9.569-9.906-9.958a3.362 3.362 0 0 0-1.108-.58c-.215-.063-.485-.071-2.56-.081-1.814-.008-2.381.002-2.6.044m4.86 2.068c.234.139 9.297 9.22 9.654 9.672.358.455.438.669.442 1.181.004.511-.067.723-.387 1.153-.329.443-4.775 4.889-5.216 5.216-.424.315-.645.391-1.133.391-.489 0-.709-.076-1.133-.391-.417-.31-9.585-9.449-9.74-9.709l-.107-.18v-4.4L3.235 6c.115-.219 2.518-2.636 2.725-2.741.077-.039.185-.085.24-.102.055-.018 1.063-.028 2.24-.024l2.14.007.18.107M7.674 6.693c-.748.279-1.169.99-1.016 1.716.07.33.205.567.457.802.243.228.385.301.722.371.508.106.989-.051 1.36-.442.36-.381.487-.815.383-1.311a1.335 1.335 0 0 0-.434-.779c-.306-.282-.55-.383-.966-.398-.236-.009-.41.006-.506.041" fill="#667085" fill-rule="evenodd"/></svg>