<svg width="24" height="24" fill="none" xmlns="http://www.w3.org/2000/svg"><path d="M11.041 1.045c-1.47.13-2.98.585-4.26 1.283-.985.538-1.77 1.13-2.583 1.947-1.682 1.693-2.712 3.742-3.086 6.145-.073.467-.087.73-.087 1.58 0 .85.014 1.113.087 1.58.378 2.425 1.41 4.467 3.125 6.183 1.716 1.715 3.758 2.747 6.183 3.125.809.126 2.351.126 3.16 0a11.12 11.12 0 0 0 5.1-2.159c.593-.447 1.602-1.456 2.049-2.049 1.296-1.722 2.035-3.624 2.23-5.74.092-.997.038-1.346-.258-1.641a.984.984 0 0 0-1.403.001c-.221.221-.285.44-.315 1.08-.063 1.331-.343 2.423-.923 3.6-.896 1.818-2.252 3.179-4.067 4.079a8.986 8.986 0 0 1-6.453.597C7.08 19.955 5.103 18.309 3.946 16c-.642-1.283-.923-2.498-.923-4 0-1.502.281-2.717.923-4C4.856 6.182 6.182 4.856 8 3.946c1.133-.567 2.299-.866 3.62-.929.64-.03.859-.094 1.08-.315a.984.984 0 0 0 .001-1.403c-.294-.294-.631-.346-1.66-.254m7.599.023c-.153.052-.428.31-1.845 1.727-1.495 1.495-1.672 1.685-1.73 1.862-.055.166-.065.41-.065 1.559v1.362l-1.935 1.941c-1.742 1.747-1.941 1.961-2 2.138-.129.389-.044.766.234 1.044s.655.363 1.044.234c.177-.059.391-.258 2.138-2L16.422 9h1.362c1.153 0 1.392-.01 1.559-.065.176-.059.369-.237 1.828-1.69 1.145-1.141 1.657-1.677 1.717-1.801.118-.244.136-.51.053-.762-.117-.352-.265-.464-1.281-.973l-.92-.461-.44-.892c-.488-.99-.626-1.176-.96-1.29a1.039 1.039 0 0 0-.7.002m.307 3.064c.112.226.252.468.31.537.061.073.293.221.554.354.247.125.457.235.467.244.01.009-.368.402-.839.874L18.581 7H17V5.421l.85-.851c.467-.467.859-.85.871-.85.011 0 .113.185.226.412M11.32 6.044a5.949 5.949 0 0 0-3.429 1.611c-.743.71-1.252 1.493-1.566 2.408-.243.711-.299 1.073-.299 1.937 0 .843.054 1.206.276 1.871.681 2.036 2.379 3.543 4.527 4.017.566.125 1.776.125 2.342 0 1.223-.27 2.177-.791 3.052-1.665 1.08-1.08 1.684-2.41 1.764-3.885.03-.553-.034-.787-.285-1.038a.983.983 0 0 0-1.404 0c-.208.208-.283.434-.315.947a3.924 3.924 0 0 1-1.158 2.578c-.523.522-1.074.839-1.818 1.046-.343.095-.458.107-1.007.107-.523.001-.673-.014-.96-.091-.768-.208-1.323-.526-1.862-1.065a3.863 3.863 0 0 1-1.066-1.891c-.124-.499-.124-1.363 0-1.862a3.89 3.89 0 0 1 1.047-1.874 3.902 3.902 0 0 1 2.594-1.178c.513-.032.739-.107.947-.315a.984.984 0 0 0 .001-1.403c-.284-.284-.601-.342-1.381-.255" fill="#667085" fill-rule="evenodd"/></svg>