<svg width="24" height="24" fill="none" xmlns="http://www.w3.org/2000/svg"><path d="M11.041 1.045c-1.47.13-2.98.585-4.26 1.283-.985.538-1.77 1.13-2.583 1.947-1.682 1.693-2.712 3.742-3.086 6.145-.073.467-.087.73-.087 1.58 0 .85.014 1.113.087 1.58.378 2.425 1.41 4.467 3.125 6.183 1.716 1.715 3.758 2.747 6.183 3.125.809.126 2.351.126 3.16 0 2.413-.376 4.471-1.417 6.181-3.127.923-.923 1.563-1.811 2.116-2.941a10.92 10.92 0 0 0 0-9.64 11.163 11.163 0 0 0-3.826-4.353 11.032 11.032 0 0 0-7.01-1.782m2.279 2.057a9.023 9.023 0 0 1 5.664 3.218c.816 1.005 1.483 2.358 1.771 3.6.167.718.222 1.229.222 2.08 0 1.511-.264 2.654-.917 3.98-.896 1.818-2.252 3.179-4.067 4.079a8.986 8.986 0 0 1-6.453.597C7.08 19.955 5.103 18.309 3.946 16c-.642-1.283-.923-2.498-.923-4 0-1.502.281-2.717.923-4 .91-1.819 2.235-3.143 4.056-4.055 1.025-.514 2.001-.783 3.338-.921.324-.033 1.573.016 1.98.078m-1.9 1.942a7.189 7.189 0 0 0-3.46 1.267c-.485.343-1.302 1.159-1.65 1.649-.318.447-.776 1.351-.943 1.862a7.033 7.033 0 0 0 .944 6.218c.345.488 1.161 1.304 1.649 1.649a6.994 6.994 0 0 0 8.08 0c.488-.345 1.304-1.161 1.649-1.649a6.994 6.994 0 0 0 0-8.08c-.345-.488-1.161-1.304-1.649-1.649a7.403 7.403 0 0 0-2.624-1.146c-.358-.074-1.301-.173-1.512-.159l-.484.038m1.783 2.087c1.143.301 2.052.888 2.736 1.769.463.596.725 1.129.933 1.897.095.354.103.446.103 1.203 0 .757-.008.849-.103 1.203-.313 1.158-.893 2.053-1.772 2.736-.596.463-1.129.725-1.897.933-.354.095-.446.103-1.203.103-.757 0-.849-.008-1.203-.103-1.158-.313-2.053-.893-2.736-1.772-.463-.596-.725-1.129-.933-1.897-.095-.354-.103-.446-.103-1.203 0-.757.008-.849.103-1.203.483-1.784 1.717-3.082 3.421-3.597.547-.165.831-.198 1.571-.184.591.012.76.03 1.083.115M11.68 9.042a2.995 2.995 0 0 0-2.411 1.78 3.037 3.037 0 0 0 0 2.356 2.975 2.975 0 0 0 4.391 1.286c1.544-1.03 1.759-3.249.442-4.566a3.008 3.008 0 0 0-2.422-.856m.741 2.033c.367.166.577.504.577.925 0 .593-.405.998-.998.998s-.998-.405-.998-.998.405-.998.998-.998c.166 0 .318.026.421.073" fill="#667085" fill-rule="evenodd"/></svg>