<svg width="24" height="24" fill="none" xmlns="http://www.w3.org/2000/svg"><path d="M11.041 1.045c-1.47.13-2.98.585-4.26 1.283-.985.538-1.77 1.13-2.583 1.947-1.682 1.693-2.712 3.742-3.086 6.145-.073.467-.087.73-.087 1.58 0 .85.014 1.113.087 1.58.378 2.425 1.41 4.467 3.125 6.183 1.716 1.715 3.758 2.747 6.183 3.125.809.126 2.351.126 3.16 0 2.413-.376 4.471-1.417 6.181-3.127 1.881-1.88 2.966-4.208 3.2-6.864.05-.56.042-.81-.055-1.697-.091-.827-.137-1.114-.27-1.68-1.091-4.64-4.986-8-9.736-8.401a6.8 6.8 0 0 1-.66-.081c-.164-.044-.663-.041-1.199.007M11 4.673c0 1.678.009 1.738.299 2.028.18.18.459.299.701.299.242 0 .521-.119.701-.299.29-.29.299-.35.299-2.029V3.199l.17.025c2 .288 3.712 1.133 5.093 2.513 1.38 1.381 2.225 3.093 2.513 5.093l.025.17h-1.473c-1.679 0-1.739.009-2.029.299a.984.984 0 0 0 0 1.402c.29.29.35.299 2.029.299h1.473l-.025.17c-.579 4.024-3.596 7.049-7.586 7.608l-.19.027V19.33c0-1.682-.009-1.741-.299-2.031a.984.984 0 0 0-1.402 0c-.29.29-.299.349-.299 2.031v1.475l-.19-.027c-2.909-.407-5.377-2.154-6.683-4.729a8.935 8.935 0 0 1-.903-2.879L3.199 13h1.473c1.679 0 1.739-.009 2.029-.299a.984.984 0 0 0 0-1.402c-.29-.29-.35-.299-2.029-.299H3.199l.025-.17a9.97 9.97 0 0 1 .523-2.046 8.864 8.864 0 0 1 3.434-4.223c.385-.252 1.314-.713 1.772-.88.511-.186 1.63-.454 1.997-.478.039-.002.05.316.05 1.47" fill="#667085" fill-rule="evenodd"/></svg>