<svg width="24" height="24" fill="none" xmlns="http://www.w3.org/2000/svg"><path d="M11.643 1.069a1.066 1.066 0 0 0-.577.591c-.051.15-.066.346-.066.865v.671l-.15.026c-1.179.197-1.866.407-2.75.838-2.617 1.278-4.376 3.684-4.86 6.65l-.047.29h-.669c-.792 0-.97.043-1.225.299a.984.984 0 0 0 0 1.402c.255.256.433.299 1.225.299h.669l.047.29c.318 1.944 1.172 3.646 2.498 4.972 1.322 1.321 3.05 2.19 4.972 2.499l.29.046v.669c0 .792.043.97.299 1.225a.984.984 0 0 0 1.402 0c.256-.255.299-.433.299-1.225v-.669l.29-.046c3.926-.632 6.839-3.545 7.471-7.471l.046-.29h.669c.792 0 .97-.043 1.225-.299a.984.984 0 0 0 0-1.402c-.255-.256-.433-.299-1.225-.299h-.669l-.046-.29c-.474-2.948-2.248-5.374-4.861-6.65-.884-.431-1.571-.641-2.75-.838L13 3.196v-.671c0-.793-.043-.97-.299-1.226a.998.998 0 0 0-1.058-.23M11 5.673c0 .578.062.791.299 1.028a.984.984 0 0 0 1.402 0c.237-.237.299-.45.299-1.027v-.472l.13.023c.747.13 1.397.35 2.069.699A6.387 6.387 0 0 1 16.86 7.14c1.005 1.005 1.663 2.286 1.915 3.73l.023.13h-.472c-.577 0-.79.062-1.027.299a.984.984 0 0 0 0 1.402c.237.237.45.299 1.027.299h.472l-.023.13c-.283 1.618-1.121 3.109-2.308 4.106a7.048 7.048 0 0 1-3.317 1.542l-.15.026v-.475c0-.58-.062-.793-.299-1.03a.984.984 0 0 0-1.402 0c-.237.237-.299.45-.299 1.03v.475l-.15-.026a11.458 11.458 0 0 1-.603-.141 6.678 6.678 0 0 1-4.323-3.438 6.92 6.92 0 0 1-.699-2.069L5.202 13h.472c.577 0 .79-.062 1.027-.299.18-.18.299-.459.299-.701 0-.242-.119-.521-.299-.701-.237-.237-.45-.299-1.027-.299h-.472l.023-.13a9.24 9.24 0 0 1 .335-1.269 8.312 8.312 0 0 1 .871-1.641c.344-.486 1.042-1.184 1.529-1.529.753-.533 1.738-.967 2.6-1.146.209-.044.394-.081.41-.082.017-.002.03.21.03.47" fill="#667085" fill-rule="evenodd"/></svg>