<svg width="24" height="24" fill="none" xmlns="http://www.w3.org/2000/svg"><path d="M19.56 1.421c-1.503.405-1.935.572-2.365.914-.184.146-.26.247-.416.552l-.19.373-6.044 1.615C7.22 5.763 4.406 6.534 4.29 6.588c-.395.184-.746.641-.804 1.046l-.026.179-.88.234c-.739.197-.915.258-1.099.384A1.495 1.495 0 0 0 .814 9.58c-.02.213.012.372.287 1.4.17.638.345 1.231.388 1.317.112.222.455.549.691.66.11.052.326.112.48.134.275.04.298.036 1.196-.207.908-.246.98-.255.983-.115.002.067.418.352.631.432.408.153.597.129 2.043-.26.711-.192 1.302-.339 1.313-.328.011.011-.002.062-.029.112-.146.274.048.932.452 1.528.087.128.149.254.139.28A374.36 374.36 0 0 1 7.12 17.88c-1.238 1.815-2.277 3.362-2.309 3.438-.078.184-.075.548.007.744.205.492.812.745 1.293.538.116-.05.274-.163.358-.256.083-.092 1.158-1.645 2.388-3.452l2.237-3.286.272.137c.15.075.318.137.374.137.056 0 .225-.062.375-.137l.272-.138 2.283 3.348c1.256 1.841 2.334 3.395 2.396 3.455.254.24.638.328.983.224.212-.063.525-.351.612-.562.086-.209.091-.562.011-.75-.033-.077-1.073-1.625-2.311-3.44a388.633 388.633 0 0 1-2.269-3.347c-.01-.026.052-.152.139-.28.662-.977.671-1.758.029-2.734-.131-.199-.196-.33-.167-.341.146-.052 4.242-1.138 4.294-1.138.035 0 .149.062.255.137.303.219.495.3.82.351.375.058.877.004 1.52-.165 1.397-.367 1.426-.378 1.725-.654.305-.281.491-.697.493-1.099 0-.199-1.604-6.227-1.723-6.476a1.676 1.676 0 0 0-.298-.372c-.446-.421-.937-.525-1.619-.341m.853 4.359c.342 1.276.627 2.354.634 2.397.015.088-.089.122-.878.284l-.492.102-.188-.084c-.259-.114-.362-.219-.49-.499-.226-.493-.833-2.792-.867-3.282-.019-.274-.01-.345.061-.485.135-.263.284-.356.879-.547.484-.156.694-.217.714-.209.003.002.286 1.047.627 2.323m-3.842 1.108c.213.796.383 1.45.378 1.453A2262.06 2262.06 0 0 1 6.374 11.16c-.025 0-.083-.139-.128-.31-.511-1.905-.679-2.55-.669-2.561.011-.011 10.53-2.84 10.585-2.846.013-.002.197.649.409 1.445m-12.57 3.317c.064.228.117.443.118.477.001.046-.11.091-.418.171-.231.06-.443.118-.473.129-.038.015-.085-.103-.17-.431a7.391 7.391 0 0 1-.118-.49c0-.035.9-.304.932-.279.007.005.065.195.129.423m8.177 1.777c.347.165.54.485.54.898 0 .313-.087.527-.297.731a.976.976 0 0 1-1.329.014c-.24-.212-.33-.415-.33-.745 0-.478.248-.811.718-.965.15-.049.53-.013.698.067" fill="#667085" fill-rule="evenodd"/></svg>