<svg width="24" height="24" fill="none" xmlns="http://www.w3.org/2000/svg"><path d="M14.24 2.037c-.193.06-.347.159-.488.315-.445.493-.272 1.265.348 1.554.19.088.244.093 1.05.094H16V19.995l-.89.012c-.824.012-.902.019-1.053.1a.994.994 0 0 0 .043 1.799l.2.093h5.4l.2-.093a.994.994 0 0 0 .043-1.799c-.151-.081-.229-.088-1.053-.1l-.89-.012V18h1.057c.582 0 1.197-.019 1.368-.043a2.977 2.977 0 0 0 2.534-2.537c.023-.167.039-1.547.039-3.42s-.016-3.253-.039-3.42a2.981 2.981 0 0 0-2.246-2.484c-.195-.05-.535-.069-1.483-.085L18 5.991V4h.85c.806-.001.86-.006 1.05-.094a.994.994 0 0 0 .043-1.799c-.162-.087-.172-.087-2.883-.094-1.496-.004-2.765.007-2.82.024M3.61 6.044c-1.317.153-2.378 1.202-2.569 2.536-.053.374-.053 6.466 0 6.84a2.976 2.976 0 0 0 2.539 2.539c.173.024 2.055.04 4.923.04 5.22.001 4.879.021 5.198-.298a.984.984 0 0 0 0-1.402c-.318-.318-.003-.299-4.998-.299-2.601 0-4.583-.017-4.78-.039-.386-.045-.56-.137-.735-.389-.165-.238-.185-.63-.185-3.572 0-2.895.021-3.332.176-3.566.178-.268.351-.351.825-.394.229-.02 2.379-.038 4.779-.039 4.906-.001 4.601.017 4.918-.3a.984.984 0 0 0 0-1.402c-.319-.319.021-.3-5.178-.294-2.543.003-4.753.021-4.913.039m16.378 1.995c.468.043.649.131.831.407.09.135.111.227.143.607.048.582.048 5.313-.001 5.897-.033.403-.049.467-.158.626-.254.369-.502.423-1.933.424H18V8l.79.001c.435.001.974.018 1.198.038" fill="#667085" fill-rule="evenodd"/></svg>