<svg width="24" height="24" fill="none" xmlns="http://www.w3.org/2000/svg"><path d="M17.44 1.057a2.93 2.93 0 0 0-1.561.859c-.368.371-.586.732-.765 1.264l-.094.28-.011 5.352-.011 5.352-.149.126c-.745.627-1.328 1.457-1.61 2.293-.645 1.909.078 4.129 1.759 5.403a5.589 5.589 0 0 0 1.782.861c.456.121.517.127 1.22.127s.764-.006 1.22-.127c2.137-.564 3.667-2.436 3.768-4.609.069-1.487-.585-2.894-1.837-3.948l-.149-.126-.011-5.352-.011-5.352-.094-.28c-.184-.548-.394-.892-.784-1.282-.303-.302-.424-.392-.742-.55a4.324 4.324 0 0 0-.62-.251c-.336-.087-.981-.107-1.3-.04M8.643 3.069a1.066 1.066 0 0 0-.577.591C8.01 3.826 8 4.053 8 5.215v1.36l-.73-.721c-.618-.611-.76-.732-.927-.788-.388-.13-.765-.046-1.044.233-.278.278-.363.655-.234 1.044.059.175.225.356 1.5 1.638L8 9.422V11H6.422L4.981 9.565c-1.282-1.275-1.463-1.441-1.638-1.5-.389-.129-.766-.044-1.044.234-.279.279-.363.656-.233 1.044.056.167.177.309.788.927l.721.73h-.86c-1.001 0-1.148.031-1.416.299a.984.984 0 0 0 0 1.402c.268.268.415.299 1.416.299h.86l-.721.73c-.611.618-.732.76-.788.927-.13.388-.046.765.233 1.044.278.278.655.363 1.044.234.175-.059.356-.225 1.638-1.5L6.422 13H8v1.578l-1.435 1.441c-1.275 1.282-1.441 1.463-1.5 1.638-.129.389-.044.766.234 1.044.279.279.656.363 1.044.233.167-.056.309-.177.927-.788l.73-.721v1.36c0 1.162.01 1.389.066 1.555.126.369.538.66.934.66s.808-.291.934-.66c.056-.166.066-.397.066-1.607 0-.777.007-1.413.015-1.413s.084.029.168.064c.245.102.639.063.881-.086a.956.956 0 0 0 .427-.788c0-.377-.106-.539-.833-1.271L10 14.577V13h1.073c1.235 0 1.35-.021 1.628-.299a.984.984 0 0 0 0-1.402c-.278-.278-.393-.299-1.628-.299H10V9.422l1.435-1.441c1.275-1.282 1.441-1.463 1.5-1.638.129-.389.044-.766-.234-1.044-.279-.279-.656-.363-1.044-.233-.167.056-.309.177-.927.788l-.73.721v-1.36c0-1.554-.012-1.629-.299-1.916a.998.998 0 0 0-1.058-.23m9.687-.012c.221.079.414.241.539.454l.111.189.02 5.56.02 5.56.086.16c.104.192.232.314.563.535a3.095 3.095 0 0 1 1.256 1.805c.079.317.068 1.113-.02 1.44a3.065 3.065 0 0 1-1.604 1.94c-.455.217-.735.277-1.301.277s-.846-.06-1.301-.277a3.048 3.048 0 0 1-1.397-1.396 3.005 3.005 0 0 1 1.026-3.787c.334-.223.462-.344.566-.537l.086-.16.02-5.56.02-5.56.111-.189A.997.997 0 0 1 18 3.004c.099 0 .248.024.33.053" fill="#667085" fill-rule="evenodd"/></svg>