<svg width="24" height="24" fill="none" xmlns="http://www.w3.org/2000/svg"><path d="M17.44 1.057a2.93 2.93 0 0 0-1.561.859c-.368.371-.586.732-.765 1.264l-.094.28-.011 5.352-.011 5.352-.149.126c-.745.627-1.328 1.457-1.61 2.293-.645 1.909.078 4.129 1.759 5.403a5.589 5.589 0 0 0 1.782.861c.456.121.517.127 1.22.127s.764-.006 1.22-.127c2.137-.564 3.667-2.436 3.768-4.609.069-1.487-.585-2.894-1.837-3.948l-.149-.126-.011-5.352-.011-5.352-.094-.28c-.184-.548-.394-.892-.784-1.282-.303-.302-.424-.392-.742-.55a4.324 4.324 0 0 0-.62-.251c-.336-.087-.981-.107-1.3-.04m-5.797 1.012a1.066 1.066 0 0 0-.577.591c-.098.288-.098 2.392 0 2.68.126.369.538.66.934.66s.808-.291.934-.66c.098-.288.098-2.392 0-2.68-.173-.508-.762-.778-1.291-.591m6.687.988c.221.079.414.241.539.454l.111.189.02 5.56.02 5.56.086.16c.104.192.232.314.563.535a3.095 3.095 0 0 1 1.256 1.805c.079.317.068 1.113-.02 1.44a3.065 3.065 0 0 1-1.604 1.94c-.455.217-.735.277-1.301.277s-.846-.06-1.301-.277a3.048 3.048 0 0 1-1.397-1.396 3.005 3.005 0 0 1 1.026-3.787c.334-.223.462-.344.566-.537l.086-.16.02-5.56.02-5.56.111-.189A.997.997 0 0 1 18 3.004c.099 0 .248.024.33.053M4.864 5.263a1.005 1.005 0 0 0-.533.448c-.095.161-.111.233-.111.489 0 .253.017.328.107.48.058.099.472.542.92.984.695.687.842.814 1.01.87.25.084.437.084.683 0 .403-.137.692-.587.651-1.012-.034-.351-.145-.501-1.02-1.368-.712-.705-.859-.831-1.028-.888a1.014 1.014 0 0 0-.679-.003m6.296 2.803c-2.083.319-3.737 1.933-4.146 4.047-.141.729-.072 1.707.171 2.431.354 1.053 1.061 1.996 1.94 2.585.439.294.604.363.876.361.722-.004 1.207-.749.904-1.39-.111-.234-.217-.337-.627-.61a3.046 3.046 0 0 1-1.185-1.55c-.104-.297-.112-.364-.112-.94s.008-.643.112-.94c.163-.468.398-.839.745-1.18a2.973 2.973 0 0 1 2.085-.879c.476-.003.875-.264 1.011-.661a.978.978 0 0 0-.233-1.041c-.299-.299-.707-.361-1.541-.233m-9.517 4.003C1.291 12.193 1 12.614 1 13c0 .396.291.808.66.934.163.055.378.066 1.34.066 1.316 0 1.421-.018 1.701-.299a.984.984 0 0 0 0-1.402c-.282-.282-.383-.299-1.718-.296-.945.003-1.196.015-1.34.066m4.597 5.4c-.145.05-.339.219-.993.867-.448.442-.858.88-.913.972a1.08 1.08 0 0 0-.121.38.99.99 0 0 0 1.312 1.051c.193-.063.3-.155 1.046-.893.554-.549.859-.882.916-1 .396-.819-.381-1.678-1.247-1.377" fill="#667085" fill-rule="evenodd"/></svg>