<svg width="24" height="24" fill="none" xmlns="http://www.w3.org/2000/svg"><path d="M7.106 1.064c-1.207.218-2.259 1.133-2.669 2.323-.196.57-.197.595-.198 5.468v4.565l-.343.338c-.812.801-1.355 1.784-1.563 2.831-.103.517-.093 1.425.021 1.959.246 1.155.751 2.076 1.58 2.882 1.007.979 2.201 1.497 3.586 1.557.899.039 1.88-.165 2.645-.549a5.651 5.651 0 0 0 2.743-3.035c.304-.808.415-1.91.273-2.709-.195-1.092-.691-2.03-1.531-2.893l-.409-.421-.001-4.632c0-5.053.006-4.915-.23-5.508-.362-.912-1.165-1.696-2.075-2.026a3.621 3.621 0 0 0-1.829-.15m7.319.995a1.021 1.021 0 0 0-.664.938c.001.381.203.715.539.897.16.086.168.086 3.377.097 3.579.012 3.455.02 3.739-.255.228-.221.321-.434.322-.736a.977.977 0 0 0-.737-.96c-.087-.025-1.344-.039-3.281-.038-2.566.001-3.168.012-3.295.057M8.141 3.062c.439.114.791.415.988.841l.091.197.02 4.96.02 4.96.088.165c.049.091.182.244.295.34 1.126.952 1.525 1.652 1.584 2.775.055 1.045-.289 1.955-1.01 2.677-1.385 1.384-3.672 1.355-4.999-.064-.644-.689-.949-1.455-.951-2.393-.003-1.19.5-2.16 1.522-2.93.149-.113.285-.256.34-.359l.091-.171.02-4.94.02-4.94.093-.23c.053-.131.18-.326.296-.452.396-.433.918-.586 1.492-.436m6.284 2.997a1.021 1.021 0 0 0-.664.938c.001.381.203.715.539.897.16.086.168.086 3.377.097 3.579.012 3.455.02 3.739-.255.228-.221.321-.434.322-.736a.977.977 0 0 0-.737-.96c-.087-.025-1.344-.039-3.281-.038-2.566.001-3.168.012-3.295.057m0 4a1.021 1.021 0 0 0-.664.938c.001.381.203.715.539.897.16.086.168.086 3.377.097 3.579.012 3.455.02 3.739-.255.228-.221.321-.434.322-.736a.977.977 0 0 0-.737-.96c-.087-.025-1.344-.039-3.281-.038-2.566.001-3.168.012-3.295.057M7.16 15.595A2.005 2.005 0 0 0 5.761 17.5c0 1.452 1.498 2.414 2.812 1.807.34-.157.711-.486.896-.794.143-.237.291-.753.291-1.013 0-.241-.143-.763-.266-.974a2.156 2.156 0 0 0-1.165-.927c-.33-.101-.859-.103-1.169-.004" fill="#667085" fill-rule="evenodd"/></svg>