<svg width="24" height="24" fill="none" xmlns="http://www.w3.org/2000/svg"><path d="M11.58 1.024c-1.318.195-2.411 1.061-2.859 2.265-.229.616-.216.324-.231 5.428l-.013 4.696-.396.412a7.69 7.69 0 0 0-.602.703c-.894 1.271-1.179 2.71-.833 4.212.421 1.832 1.849 3.397 3.628 3.978.651.212.965.26 1.726.26s1.075-.048 1.726-.26c1.506-.492 2.816-1.733 3.388-3.212.668-1.724.458-3.484-.593-4.978a7.69 7.69 0 0 0-.602-.703l-.396-.412-.013-4.696c-.015-5.104-.002-4.812-.231-5.428a3.54 3.54 0 0 0-2.347-2.15c-.346-.101-1.046-.16-1.352-.115m1.035 2.108c.294.135.545.375.709.678l.136.25.02 4.96c.016 3.898.031 4.985.071 5.075.095.214.217.35.564.623.7.553 1.14 1.252 1.307 2.079.052.259.063.456.046.86-.026.62-.087.868-.346 1.403a3.329 3.329 0 0 1-1.542 1.558c-.58.288-.896.36-1.58.36s-1-.072-1.58-.36a3.504 3.504 0 0 1-1.781-2.14c-.124-.426-.153-1.227-.061-1.681.167-.827.607-1.526 1.307-2.079.347-.273.469-.409.564-.623.04-.09.055-1.177.071-5.075l.02-4.96.111-.211c.214-.405.543-.682.946-.797.278-.079.752-.041 1.018.08m-1.082 12.445a2.037 2.037 0 0 0-1.49 1.645c-.167 1.172.774 2.258 1.957 2.258.96 0 1.823-.751 1.957-1.702.194-1.367-1.082-2.526-2.424-2.201" fill="#667085" fill-rule="evenodd"/></svg>