<svg width="24" height="24" fill="none" xmlns="http://www.w3.org/2000/svg"><path d="M5.81 1.043c-1.002.091-1.814.452-2.504 1.114-.653.627-.973 1.247-1.182 2.286-.118.588-1.029 6.405-1.086 6.937-.057.521-.029 1.262.061 1.6.364 1.382 1.47 2.494 2.821 2.836.592.15 1.127.184 2.897.185.904 0 1.683.011 1.733.024l.09.024v1.793c0 1.051.018 1.922.043 2.105a3.525 3.525 0 0 0 3.297 3.04c.767.044 1.39-.238 1.779-.806.06-.089.878-1.849 1.817-3.912a904.95 904.95 0 0 1 1.829-4.007l.122-.256 1.447-.016c1.337-.014 1.47-.022 1.764-.103.869-.24 1.543-.787 1.94-1.576.313-.619.302-.446.302-4.811 0-4.364.011-4.19-.301-4.811-.304-.606-.744-1.038-1.379-1.352-.684-.339-.028-.313-8.02-.32-3.905-.004-7.266.008-7.47.026M15.839 7.97v4.97l-.17.282c-.093.154-.933 1.959-1.867 4.01-1.278 2.804-1.715 3.728-1.766 3.728-.164 0-.593-.172-.776-.311a1.628 1.628 0 0 1-.501-.728c-.022-.083-.039-.945-.039-2.081-.001-2.104-.014-2.262-.222-2.7-.154-.326-.519-.699-.858-.877-.461-.242-.63-.261-2.32-.263-2.252-.001-2.972-.071-3.368-.325a2.447 2.447 0 0 1-.732-.817c-.118-.233-.12-.25-.116-.818.004-.682.049-1.029.54-4.16.39-2.487.547-3.347.678-3.696.168-.45.672-.91 1.148-1.048.377-.11.985-.124 5.74-.13L15.84 3l-.001 4.97m4.418-4.894a.912.912 0 0 1 .632.673c.02.105.046 1.514.058 3.131.022 3.106-.012 4.377-.122 4.59-.087.169-.356.398-.532.452-.094.028-.591.055-1.283.067l-1.13.021V2.988l1.11.025c.611.013 1.181.041 1.267.063" fill="#667085" fill-rule="evenodd"/></svg>