<svg width="24" height="24" fill="none" xmlns="http://www.w3.org/2000/svg"><path d="M11.333 1.054a1.91 1.91 0 0 0-1.247 1.017c-.085.17-.932 2.022-1.883 4.116l-1.73 3.807-1.466.016c-1.37.015-1.486.022-1.76.104-1.052.316-1.813 1.06-2.133 2.086l-.094.3v8l.094.3c.321 1.027 1.058 1.75 2.128 2.086l.298.094h14.88l.32-.086c.529-.141.947-.322 1.324-.571.888-.588 1.515-1.476 1.735-2.458.118-.528 1.169-7.344 1.188-7.705.096-1.832-1.186-3.527-3.047-4.028l-.4-.108-2.108-.015-2.108-.015-.014-2.067c-.017-2.339-.005-2.239-.349-2.947a3.346 3.346 0 0 0-1.581-1.583 4.436 4.436 0 0 0-.72-.279c-.408-.104-1.049-.135-1.327-.064m1.054 2.112c.301.113.613.41.757.722l.116.252.021 2.14c.021 2.052.025 2.149.106 2.364a2.127 2.127 0 0 0 1.525 1.312c.137.028.916.044 2.2.045 2.198 0 2.337.013 2.771.244.458.244.768.599.957 1.095.169.445.15.625-.475 4.559-.31 1.958-.593 3.644-.627 3.748-.147.442-.581.934-.997 1.131-.49.232-.245.222-5.629.222H8.16v-9.976l.094-.102c.051-.056.828-1.722 1.727-3.702l1.767-3.894.134-.295.146.028c.08.015.241.063.359.107M6.12 16.502v4.501l-1.17-.011c-1.14-.012-1.175-.014-1.363-.107a1.062 1.062 0 0 1-.505-.633c-.059-.235-.058-7.291.002-7.512.086-.322.362-.602.682-.694.074-.021.633-.04 1.244-.042L6.12 12v4.502" fill="#667085" fill-rule="evenodd"/></svg>