<svg width="24" height="24" fill="none" xmlns="http://www.w3.org/2000/svg"><path d="M4.9 3.025c-.989.083-1.531.257-2.2.708-.578.389-1.181 1.16-1.417 1.811-.276.763-.263.446-.263 6.456 0 5.058.005 5.444.072 5.773.108.531.284.971.553 1.389.595.92 1.488 1.523 2.582 1.746.332.068.791.072 7.773.072 6.982 0 7.441-.004 7.773-.072 1.094-.223 1.987-.826 2.582-1.746.269-.418.445-.858.553-1.389.067-.329.072-.715.072-5.773s-.005-5.444-.072-5.773c-.289-1.42-1.291-2.57-2.618-3.005-.618-.202-.343-.195-8.05-.203a1071.16 1071.16 0 0 0-7.34.006M18.801 5.04c.341.022.724.067.851.1.553.144 1.065.656 1.209 1.209.113.435.139 1.478.139 5.651s-.026 5.216-.139 5.651c-.142.544-.638 1.05-1.181 1.206-.45.128-1.166.142-7.68.142-6.514 0-7.23-.014-7.68-.142-.543-.156-1.039-.662-1.181-1.206C3.026 17.216 3 16.173 3 12c0-4.178.026-5.215.14-5.652.103-.397.416-.8.811-1.044.239-.148.575-.225 1.142-.261.736-.047 12.976-.05 13.708-.003M7.643 6.069a1.066 1.066 0 0 0-.577.591c-.094.278-.094 1.402 0 1.68.126.369.538.66.934.66s.808-.291.934-.66c.094-.278.094-1.402 0-1.68-.173-.508-.762-.778-1.291-.591m-.026 4.508a1.156 1.156 0 0 0-.523.523c-.086.185-.093.251-.093.9 0 .65.007.714.093.9.051.11.166.265.254.345.497.448 1.268.277 1.558-.345.086-.186.093-.25.093-.9 0-.649-.007-.715-.093-.9a1.146 1.146 0 0 0-.532-.525c-.166-.07-.596-.069-.757.002m.026 4.492a1.066 1.066 0 0 0-.577.591c-.094.278-.094 1.402 0 1.68.126.369.538.66.934.66s.808-.291.934-.66c.094-.278.094-1.402 0-1.68-.173-.508-.762-.778-1.291-.591" fill="#667085" fill-rule="evenodd"/></svg>