<svg width="24" height="24" fill="none" xmlns="http://www.w3.org/2000/svg"><path d="M3.61 3.044c-1.319.155-2.378 1.202-2.569 2.536-.021.154-.04.919-.04 1.7 0 1.411 0 1.421.094 1.62.113.237.306.432.518.52.084.035.336.08.56.1.679.06 1.14.269 1.59.718.475.473.717 1.068.717 1.762 0 .706-.242 1.292-.736 1.78-.453.447-.863.627-1.636.717-.607.07-.838.211-1.025.623-.077.17-.081.257-.081 1.6 0 .781.018 1.546.039 1.7a2.976 2.976 0 0 0 2.539 2.539c.403.057 16.431.055 16.845-.002a2.977 2.977 0 0 0 2.534-2.537c.021-.154.039-.919.039-1.7 0-1.343-.004-1.43-.081-1.6-.187-.412-.418-.553-1.025-.623-.787-.092-1.185-.269-1.653-.737-.495-.495-.719-1.043-.719-1.76 0-.703.225-1.263.7-1.743.462-.467.917-.676 1.607-.737.224-.02.476-.065.56-.1.212-.088.405-.283.518-.52.094-.199.094-.209.094-1.62 0-.781-.019-1.546-.04-1.7-.173-1.215-1.022-2.155-2.246-2.488-.235-.065-.829-.07-8.533-.076-4.554-.004-8.41.009-8.57.028m16.378 1.995c.468.043.649.131.831.407.09.135.111.227.143.607.02.246.037.718.037 1.049l.001.602-.31.091c-.904.265-1.84.933-2.392 1.706a4.364 4.364 0 0 0-.57 3.879c.449 1.329 1.579 2.408 2.962 2.826l.309.094v.6c0 .33-.017.802-.038 1.05-.033.403-.049.467-.158.626-.175.254-.338.34-.73.385-.45.052-15.699.052-16.15 0-.386-.045-.56-.137-.735-.389-.094-.136-.116-.222-.148-.576-.02-.229-.038-.704-.039-1.056L3 16.299l.257-.074c2.29-.655 3.678-2.999 3.116-5.259-.37-1.486-1.576-2.733-3.065-3.172L3 7.704l.001-.642c.002-.969.054-1.44.178-1.628.171-.258.362-.356.768-.392.506-.044 15.546-.047 16.041-.003M9.643 6.069a1.066 1.066 0 0 0-.577.591c-.094.278-.094 1.402 0 1.68.126.369.538.66.934.66s.808-.291.934-.66c.094-.278.094-1.402 0-1.68-.173-.508-.762-.778-1.291-.591m-.026 4.508a1.156 1.156 0 0 0-.523.523c-.086.185-.093.251-.093.9 0 .65.007.714.093.9.051.11.166.265.254.345.497.448 1.268.277 1.558-.345.086-.186.093-.25.093-.9 0-.649-.007-.715-.093-.9a1.146 1.146 0 0 0-.532-.525c-.166-.07-.596-.069-.757.002m.026 4.492a1.066 1.066 0 0 0-.577.591c-.051.149-.066.344-.066.84 0 .766.045.947.299 1.201a.984.984 0 0 0 1.402 0c.254-.254.299-.435.299-1.201s-.045-.947-.299-1.201a.998.998 0 0 0-1.058-.23" fill="#667085" fill-rule="evenodd"/></svg>