<svg width="24" height="24" fill="none" xmlns="http://www.w3.org/2000/svg"><path d="M6.32 6.044a5.949 5.949 0 0 0-3.429 1.611c-.743.71-1.252 1.493-1.566 2.408-.243.711-.299 1.073-.299 1.937 0 .843.054 1.206.276 1.871.681 2.036 2.384 3.548 4.527 4.016.535.117 1.633.127 2.122.02.634-.139 1.431-.456 1.905-.757l.204-.13 4.34-.021 4.34-.02.48-.129a5.097 5.097 0 0 0 3.629-3.636c.118-.449.125-.513.125-1.214 0-.703-.006-.764-.127-1.22a5.053 5.053 0 0 0-4.255-3.739C18.384 7.015 16.753 7 14.187 7h-4.075l-.386-.218c-1.119-.633-2.218-.871-3.406-.738M8 8.134c.736.19 1.304.517 1.841 1.061a3.89 3.89 0 0 1 1.047 1.874c.124.499.124 1.363 0 1.862a3.89 3.89 0 0 1-1.047 1.874c-.533.54-1.078.856-1.834 1.066-.343.095-.458.107-1.007.107-.523.001-.673-.014-.96-.091-.768-.208-1.323-.526-1.862-1.065a3.863 3.863 0 0 1-1.066-1.891c-.124-.499-.124-1.363 0-1.862a3.89 3.89 0 0 1 1.047-1.874 3.942 3.942 0 0 1 2.264-1.154C6.82 7.979 7.57 8.023 8 8.134m10.78.961a3.087 3.087 0 0 1 2.125 2.145c.097.359.097 1.161 0 1.52a3.066 3.066 0 0 1-1.604 1.94c-.608.29-.405.275-3.987.29l-3.226.013.254-.503a6.816 6.816 0 0 0 .583-1.64c.031-.158.055-.532.055-.86 0-.328-.024-.702-.055-.86a6.8 6.8 0 0 0-.583-1.64l-.254-.503 3.226.013c2.951.013 3.246.02 3.466.085" fill="#667085" fill-rule="evenodd"/></svg>