<svg width="24" height="24" fill="none" xmlns="http://www.w3.org/2000/svg"><path d="M7.26 5.043a7.027 7.027 0 0 0-4.201 2.016 6.964 6.964 0 0 0 0 9.882 6.968 6.968 0 0 0 4.055 2.001c.627.083 9.145.083 9.772 0 3.496-.466 6.112-3.437 6.112-6.942a7.017 7.017 0 0 0-3.447-6.021c-.69-.41-1.485-.705-2.391-.885-.306-.061-.803-.069-4.96-.076-2.541-.005-4.764.006-4.94.025M17 7.095c1.064.252 1.798.653 2.525 1.38.989.989 1.453 2.114 1.453 3.525s-.464 2.536-1.453 3.525c-.756.756-1.565 1.185-2.645 1.403-.38.076-9.38.076-9.76 0-1.08-.218-1.889-.647-2.645-1.403-.991-.991-1.453-2.112-1.453-3.525 0-.666.057-1.039.243-1.6a5.06 5.06 0 0 1 2.23-2.729 5.265 5.265 0 0 1 1.85-.626c.152-.02 2.304-.033 4.815-.029 4.191.008 4.563.014 4.84.079M7.433 8.558c-.49.09-1.085.338-1.448.603a5.17 5.17 0 0 0-.809.804c-.2.273-.438.77-.543 1.135-.132.462-.132 1.338 0 1.8.105.365.343.862.543 1.135a3.715 3.715 0 0 0 1.942 1.336c.432.119 1.332.119 1.764 0 .993-.274 1.8-.95 2.268-1.9.234-.476.304-.813.304-1.471 0-.469-.016-.639-.085-.89A3.582 3.582 0 0 0 8.91 8.638c-.325-.094-1.158-.138-1.477-.08m1.147 2.045c.177.067.304.154.484.333.322.323.43.59.43 1.064 0 .474-.108.741-.43 1.064-.323.322-.59.43-1.064.43-.474 0-.741-.108-1.064-.43-.322-.323-.43-.59-.43-1.064 0-.426.104-.713.361-.999.437-.487 1.078-.635 1.713-.398" fill="#667085" fill-rule="evenodd"/></svg>