<svg width="24" height="24" fill="none" xmlns="http://www.w3.org/2000/svg"><path d="M6.32 6.044a5.952 5.952 0 0 0-3.429 1.611c-.743.71-1.252 1.493-1.566 2.408-.243.711-.299 1.073-.299 1.937 0 .843.054 1.206.276 1.871.684 2.045 2.389 3.552 4.549 4.02l.409.089h11.48l.409-.089c1.235-.267 2.193-.787 3.074-1.668.875-.875 1.397-1.833 1.664-3.052.117-.535.128-1.697.02-2.23-.252-1.244-.765-2.206-1.645-3.081-.506-.504-.857-.769-1.422-1.072-.658-.353-1.199-.528-2.1-.679-.514-.086-.576-.087-5.82-.093-2.915-.003-5.435.009-5.6.028m6.087 2.186c-.619.716-1.097 1.71-1.314 2.73-.102.477-.102 1.603 0 2.08.217 1.021.695 2.014 1.315 2.732l.2.231-3.134-.012c-3.131-.013-3.134-.013-3.454-.105-.771-.221-1.312-.534-1.842-1.064a3.863 3.863 0 0 1-1.066-1.891c-.124-.499-.124-1.363 0-1.862a3.89 3.89 0 0 1 1.047-1.874 3.919 3.919 0 0 1 2.264-1.151c.131-.019 1.575-.036 3.21-.039L12.605 8l-.198.23M18 8.134c.736.19 1.304.517 1.841 1.061a3.89 3.89 0 0 1 1.047 1.874c.124.499.124 1.363 0 1.862a3.89 3.89 0 0 1-1.047 1.874c-.533.54-1.078.856-1.834 1.066-.343.095-.458.107-1.007.107-.523.001-.673-.014-.96-.091-.768-.208-1.323-.526-1.862-1.065a3.863 3.863 0 0 1-1.066-1.891c-.124-.499-.124-1.363 0-1.862a3.89 3.89 0 0 1 1.047-1.874 3.942 3.942 0 0 1 2.264-1.154c.397-.062 1.147-.018 1.577.093" fill="#667085" fill-rule="evenodd"/></svg>