<svg width="24" height="24" fill="none" xmlns="http://www.w3.org/2000/svg"><path d="M16.384 6.046c-.662.084-1.425.35-2.115.735L13.877 7H9.808c-2.568 0-4.195.015-4.409.042a5.069 5.069 0 0 0-3.382 1.953 5.58 5.58 0 0 0-.864 1.785c-.121.456-.127.517-.127 1.22 0 .701.007.765.125 1.214a5.248 5.248 0 0 0 1.239 2.231c.603.639 1.497 1.164 2.39 1.405l.48.129 4.34.02 4.34.021.204.13c.474.301 1.271.618 1.905.757.489.107 1.587.097 2.122-.02 1.218-.266 2.177-.789 3.052-1.664.874-.875 1.396-1.831 1.664-3.052.128-.58.127-1.738-.001-2.331-.432-1.994-1.72-3.568-3.572-4.367-.877-.378-2.018-.544-2.93-.427M18 8.134c.736.19 1.304.517 1.841 1.061a3.89 3.89 0 0 1 1.047 1.874c.124.499.124 1.363 0 1.862a3.89 3.89 0 0 1-1.047 1.874c-.533.54-1.078.856-1.834 1.066-.343.095-.458.107-1.007.107-.523.001-.673-.014-.96-.091-.768-.208-1.323-.526-1.862-1.065a3.863 3.863 0 0 1-1.066-1.891c-.124-.499-.124-1.363 0-1.862a3.89 3.89 0 0 1 1.047-1.874 3.942 3.942 0 0 1 2.264-1.154c.397-.062 1.147-.018 1.577.093m-6.343 1.367a6.832 6.832 0 0 0-.582 1.639 5.806 5.806 0 0 0-.055.86c0 .328.024.702.055.86.095.489.32 1.122.583 1.64l.254.503-3.226-.013c-3.582-.015-3.379 0-3.987-.29a3.066 3.066 0 0 1-1.604-1.94c-.097-.359-.097-1.161 0-1.52.309-1.135 1.259-2.006 2.395-2.196.115-.019 1.607-.037 3.315-.039L11.911 9l-.254.501" fill="#667085" fill-rule="evenodd"/></svg>