<svg width="24" height="24" fill="none" xmlns="http://www.w3.org/2000/svg"><path d="M6.32 6.044a5.949 5.949 0 0 0-3.429 1.611c-.743.71-1.252 1.493-1.566 2.408-.243.711-.299 1.073-.299 1.937 0 .843.054 1.206.276 1.871.684 2.045 2.389 3.552 4.549 4.02l.409.089h11.48l.409-.089c1.235-.267 2.193-.787 3.074-1.668.874-.875 1.396-1.831 1.664-3.052.128-.58.127-1.738-.001-2.331-.255-1.175-.758-2.131-1.564-2.973a5.926 5.926 0 0 0-3.674-1.823c-.491-.053-10.857-.053-11.328 0M8 8.134c.736.19 1.304.517 1.841 1.061a3.89 3.89 0 0 1 1.047 1.874c.124.499.124 1.363 0 1.862a3.89 3.89 0 0 1-1.047 1.874c-.533.54-1.078.856-1.834 1.066-.343.095-.458.107-1.007.107-.523.001-.673-.014-.96-.091-.768-.208-1.323-.526-1.862-1.065a3.863 3.863 0 0 1-1.066-1.891c-.124-.499-.124-1.363 0-1.862a3.89 3.89 0 0 1 1.047-1.874 3.942 3.942 0 0 1 2.264-1.154C6.82 7.979 7.57 8.023 8 8.134m10-.007c.756.209 1.31.53 1.841 1.068a3.89 3.89 0 0 1 1.047 1.874c.124.499.124 1.363 0 1.862a3.89 3.89 0 0 1-1.047 1.874c-.524.53-1.062.846-1.813 1.065l-.368.107-3.134.013-3.134.013.2-.231c.62-.718 1.098-1.711 1.315-2.732.102-.477.102-1.603 0-2.08-.217-1.021-.695-2.014-1.315-2.732l-.201-.232 3.115.013 3.114.013.38.105" fill="#667085" fill-rule="evenodd"/></svg>