<svg width="24" height="24" fill="none" xmlns="http://www.w3.org/2000/svg"><path d="M2.664 1.506c-.166.051-.289.152-.829.682-.681.67-.797.838-.827 1.194-.015.181.047.399.529 1.848.592 1.779.64 1.883.971 2.077l.192.113 1.44.011 1.44.012 1.75 1.748 1.749 1.748L5.825 14.2c-1.789 1.793-3.312 3.347-3.383 3.453-.175.26-.379.71-.466 1.027-.109.397-.101 1.164.017 1.578a3.135 3.135 0 0 0 2.19 2.19c.45.129 1.184.129 1.634 0 .359-.104.802-.315 1.041-.497.089-.068 1.283-1.241 2.652-2.607L12 16.861l2.49 2.483c1.37 1.366 2.563 2.539 2.652 2.607.239.182.682.393 1.041.497.45.129 1.184.129 1.634 0a3.135 3.135 0 0 0 2.19-2.19c.127-.449.128-1.185.001-1.63a3.63 3.63 0 0 0-.46-.988c-.066-.099-.868-.931-1.781-1.849-1.04-1.044-1.64-1.675-1.604-1.685.783-.239 1.392-.518 1.965-.902 1.479-.992 2.432-2.412 2.778-4.144.1-.501.101-1.731.002-2.24-.081-.414-.322-1.212-.43-1.424a1.178 1.178 0 0 0-.51-.464c-.211-.088-.608-.074-.815.03-.114.057-.678.589-1.663 1.571L18 8.019l-.52-.519c-.286-.285-.52-.537-.52-.558 0-.022.701-.742 1.558-1.601 1.695-1.698 1.733-1.745 1.733-2.168 0-.259-.161-.611-.344-.75-.214-.163-.913-.494-1.351-.639a6.452 6.452 0 0 0-4.922.339c-2.15 1.078-3.522 3.176-3.623 5.537-.02.466.032 1.223.097 1.414.012.036-.681-.635-1.541-1.492L7.003 6.023 6.991 4.6 6.98 3.178l-.102-.198c-.175-.34-.29-.394-2.101-.995-.908-.301-1.704-.544-1.78-.542-.075.001-.225.03-.333.063M16.98 3.55l.276.105c.064.023-.092.198-.942 1.056-.56.566-1.065 1.11-1.122 1.209-.252.439-.338 1.049-.214 1.515.128.48.232.623 1.058 1.45.707.708.814.799 1.087.929.597.285 1.19.283 1.77-.005.249-.124.408-.262 1.202-1.046l.915-.903-.027.377c-.116 1.614-1.038 3.015-2.447 3.72-.918.459-1.773.571-2.976.39-1.021-.153-1.028-.153-1.454-.029-.236.069-.444.158-.531.228-.079.063-.182.14-.229.171-.048.031-1.805 1.771-3.906 3.866s-3.883 3.842-3.96 3.883c-.104.054-.228.073-.48.074-.299 0-.362-.013-.527-.11-.496-.292-.705-.835-.528-1.373.06-.18.402-.535 4.012-4.157 4.26-4.274 4.068-4.062 4.219-4.646.089-.343.08-.64-.037-1.195a7.389 7.389 0 0 1-.124-.919 4.482 4.482 0 0 1 2.558-4.261c.841-.394 1.875-.536 2.407-.329m-12.83.333.85.284V5.44H3.727l-.287-.861c-.232-.696-.278-.873-.239-.92.027-.033.06-.059.074-.059.014 0 .407.127.875.283M15.139 14.3l.36.059 2.211 2.211c1.592 1.591 2.236 2.26 2.299 2.389.255.525.047 1.16-.482 1.471-.164.097-.228.11-.527.11-.298 0-.362-.013-.52-.107-.1-.06-1.262-1.191-2.62-2.55l-2.439-2.443.599-.6c.379-.38.629-.6.679-.599.045 0 .243.027.44.059" fill="#667085" fill-rule="evenodd"/></svg>