<svg width="24" height="24" fill="none" xmlns="http://www.w3.org/2000/svg"><path d="M14.714 1.5a7.025 7.025 0 0 0-5.811 4.787c-.259.793-.323 1.223-.321 2.173.003.811.008.864.15 1.539l.148.7-3.374 3.38c-1.856 1.86-3.429 3.462-3.495 3.561a3.718 3.718 0 0 0-.46.988c-.127.444-.127 1.181.001 1.626.315 1.098 1.095 1.878 2.194 2.195.441.127 1.178.126 1.626-.001.332-.095.694-.263.988-.459.099-.066 1.701-1.639 3.561-3.495l3.38-3.374.68.141c1.175.245 2.266.232 3.317-.041a7.031 7.031 0 0 0 5.033-5.04c.174-.676.208-.962.208-1.74 0-.984-.123-1.654-.47-2.556-.249-.649-.544-.901-1.048-.896-.429.004-.479.044-2.281 1.849-.902.904-1.658 1.643-1.68 1.643-.052 0-1.54-1.488-1.54-1.539 0-.022.763-.804 1.696-1.74 1.623-1.627 1.7-1.71 1.76-1.918.08-.271.08-.335 0-.606-.098-.334-.333-.538-.856-.743a7.078 7.078 0 0 0-3.406-.434m1.078 1.986c.104.025.196.052.205.06.01.009-.478.514-1.083 1.125-1.164 1.172-1.243 1.274-1.376 1.774a2.265 2.265 0 0 0 0 .99c.131.49.223.612 1.237 1.636.529.534 1.053 1.033 1.163 1.11a2.124 2.124 0 0 0 1.536.3c.542-.118.658-.206 1.848-1.387A40.137 40.137 0 0 1 20.446 8c.063 0 .12.48.095.796a4.93 4.93 0 0 1-1.538 3.257 4.9 4.9 0 0 1-3.423 1.386c-.494-.001-.821-.046-1.446-.2-.752-.185-1.224-.157-1.769.104-.192.092-.732.614-3.725 3.598-3.329 3.319-3.511 3.493-3.715 3.559-.269.087-.64.065-.869-.052a1.448 1.448 0 0 1-.519-.534c-.103-.199-.12-.583-.037-.839.066-.205.239-.385 3.56-3.715 3.888-3.899 3.68-3.662 3.802-4.355.065-.376.044-.601-.115-1.207-.464-1.768-.023-3.532 1.202-4.803.537-.557 1.019-.89 1.692-1.168.738-.306 1.684-.455 2.151-.341" fill="#667085" fill-rule="evenodd"/></svg>