<svg width="24" height="24" fill="none" xmlns="http://www.w3.org/2000/svg"><path d="M7.643 1.069C7.291 1.193 7 1.614 7 2c0 .242.119.521.299.701.292.293.339.299 2.128.299H11v.993l-2.19.017c-2.32.019-2.595.039-3.143.227-1.095.377-2.021 1.284-2.401 2.351-.253.71-.246.554-.246 5.412 0 4.095.005 4.446.072 4.773a3.995 3.995 0 0 0 1.082 2.05c.334.334.895.713 1.16.784.102.027.186.063.186.08 0 .016-.228.488-.507 1.048-.474.955-.506 1.034-.506 1.252 0 .296.109.547.32.737.429.386 1.037.355 1.416-.073.078-.088.404-.694.756-1.403L7.619 20h8.762l.62 1.248c.352.709.678 1.315.756 1.403.612.691 1.735.261 1.736-.664 0-.218-.032-.297-.506-1.252a26.802 26.802 0 0 1-.507-1.048c0-.017.084-.053.186-.08.265-.071.826-.45 1.16-.784a3.995 3.995 0 0 0 1.082-2.05c.067-.327.072-.678.072-4.773s-.005-4.446-.072-4.773c-.254-1.25-1.003-2.234-2.128-2.796-.748-.373-.935-.395-3.57-.419L13 3.993V3h1.573c1.789 0 1.836-.006 2.128-.299a.984.984 0 0 0 0-1.402c-.317-.317-.035-.299-4.718-.296-3.663.003-4.184.011-4.34.066m9.158 4.971c.341.022.723.066.85.099.553.144 1.065.656 1.209 1.209.087.331.14 1.305.14 2.562V11H5V9.91c0-1.257.053-2.231.14-2.562.103-.397.416-.8.811-1.044.239-.148.575-.225 1.142-.261.73-.047 8.984-.049 9.708-.003M19 14.09c0 1.255-.053 2.231-.139 2.561-.142.544-.638 1.05-1.181 1.206-.432.123-1.173.142-5.68.142s-5.248-.019-5.68-.142c-.543-.156-1.039-.662-1.181-1.206C5.053 16.321 5 15.345 5 14.09V13h14v1.09m-10.883-.038a1.629 1.629 0 0 0-.991.861c-.09.193-.106.281-.106.588 0 .326.012.386.13.624.156.317.442.598.761.748.195.091.282.107.59.107.326 0 .386-.012.624-.13a1.67 1.67 0 0 0 .748-.761c.091-.195.107-.282.107-.589s-.016-.394-.107-.589c-.244-.519-.733-.862-1.277-.894-.176-.01-.37.004-.479.035m7 0a1.629 1.629 0 0 0-.991.861c-.09.193-.106.281-.106.588 0 .326.012.386.13.624.156.317.442.598.761.748.195.091.282.107.59.107.326 0 .386-.012.624-.13a1.67 1.67 0 0 0 .748-.761c.091-.195.107-.282.107-.589s-.016-.394-.107-.589c-.244-.519-.733-.862-1.277-.894-.176-.01-.37.004-.479.035M9.24 21.037c-.193.06-.347.159-.488.315-.445.493-.272 1.265.348 1.554l.2.093h5.4l.2-.093a.994.994 0 0 0 .043-1.799c-.162-.087-.172-.087-2.883-.094-1.496-.004-2.765.007-2.82.024" fill="#667085" fill-rule="evenodd"/></svg>