<svg width="24" height="24" fill="none" xmlns="http://www.w3.org/2000/svg"><path d="M7.578 1.058c-.492.076-.801.195-1.78.684-.696.347-.934.486-1.045.609a.967.967 0 0 0-.001 1.297c.217.24.417.329.748.33.276.002.291-.004 1.1-.407.967-.483 1.085-.528 1.48-.557l.3-.023.49.985c.269.541.49.991.49.999 0 .009-.616.025-1.37.036-1.736.026-2.103.082-2.79.429-.871.439-1.606 1.246-1.917 2.104-.272.753-.263.561-.263 5.456 0 4.095.005 4.446.072 4.773a3.995 3.995 0 0 0 1.082 2.05c.334.334.895.713 1.16.784.102.027.186.064.186.082 0 .018-.112.252-.249.522-.238.469-.249.501-.25.789-.001.257.015.327.11.489.284.482.899.649 1.373.371.239-.14.332-.28.755-1.134L7.618 21h8.764l.359.726c.423.854.516.994.755 1.134a1.008 1.008 0 0 0 1.373-.371c.093-.158.111-.235.111-.471 0-.266-.015-.314-.25-.793a7.807 7.807 0 0 1-.25-.54c0-.015.084-.051.186-.078.265-.071.826-.45 1.16-.784a3.995 3.995 0 0 0 1.082-2.05c.067-.327.072-.678.072-4.773s-.005-4.446-.072-4.773c-.252-1.241-.999-2.228-2.108-2.787-.687-.347-1.054-.403-2.79-.429-.753-.011-1.37-.027-1.37-.036 0-.008.221-.458.49-.999l.49-.985.3.023c.391.029.504.072 1.478.558.808.403.822.408 1.1.406.333-.001.532-.089.75-.33a.967.967 0 0 0-.001-1.297c-.11-.122-.348-.261-1.025-.6-1.005-.504-1.288-.611-1.822-.693-.517-.078-8.315-.079-8.822 0M13.36 3.02c0 .011-.22.461-.49 1l-.489.98h-.762l-.489-.98c-.27-.539-.49-.989-.49-1 0-.011.612-.02 1.36-.02.748 0 1.36.009 1.36.02m3.441 4.02c.341.022.723.066.85.099.553.144 1.065.656 1.209 1.209.087.331.14 1.305.14 2.562V12H5v-1.09c0-1.257.053-2.231.14-2.562.103-.397.416-.8.811-1.044.239-.148.575-.225 1.142-.261.73-.047 8.984-.049 9.708-.003M19 15.09c0 1.255-.053 2.231-.139 2.561-.142.544-.638 1.05-1.181 1.206-.432.123-1.173.142-5.68.142s-5.248-.019-5.68-.142c-.543-.156-1.039-.662-1.181-1.206C5.053 17.321 5 16.345 5 15.09V14h14v1.09m-10.883-.038a1.629 1.629 0 0 0-.991.861c-.09.193-.106.281-.106.588 0 .326.012.386.13.624.156.317.442.598.761.748.195.091.282.107.59.107.326 0 .386-.012.624-.13a1.67 1.67 0 0 0 .748-.761c.091-.195.107-.282.107-.589s-.016-.394-.107-.589c-.244-.519-.733-.862-1.277-.894-.176-.01-.37.004-.479.035m7 0a1.629 1.629 0 0 0-.991.861c-.09.193-.106.281-.106.588 0 .326.012.386.13.624.156.317.442.598.761.748.195.091.282.107.59.107.326 0 .386-.012.624-.13a1.67 1.67 0 0 0 .748-.761c.091-.195.107-.282.107-.589s-.016-.394-.107-.589c-.244-.519-.733-.862-1.277-.894-.176-.01-.37.004-.479.035" fill="#667085" fill-rule="evenodd"/></svg>