<svg width="24" height="24" fill="none" xmlns="http://www.w3.org/2000/svg"><path d="M6.617 1.577c-.346.15-.616.556-.616.923 0 .386.303.818.664.945.216.076 1.454.076 1.67 0 .361-.127.664-.559.664-.945 0-.372-.274-.779-.625-.925-.183-.077-1.581-.075-1.757.002m-5 3c-.346.15-.616.556-.616.923 0 .373.263.768.619.928.15.068.413.073 4.33.083l4.17.011-.444.669c-.416.625-.5.724-1.29 1.519-.465.468-.863.85-.885.85-.021 0-.471-.431-1-.958-.622-.62-1.013-.98-1.11-1.02-.184-.077-.589-.081-.765-.007-.351.147-.626.553-.625.925.001.368.088.486 1.13 1.53l.968.97-1.468 1.47c-1.574 1.577-1.629 1.645-1.63 2.03-.001.374.268.775.619.924.222.094.558.088.78-.013.133-.061.553-.457 1.62-1.527.792-.794 1.458-1.444 1.48-1.444.022 0 .463.425.98.944.673.677.991.968 1.12 1.027.222.101.558.107.78.013.351-.149.62-.55.619-.924-.001-.368-.088-.486-1.13-1.53L8.901 11l.965-.97.966-.97.842-1.267.842-1.266.852-.015c.707-.012.879-.026 1.012-.085.354-.157.619-.554.619-.927 0-.372-.274-.779-.625-.925-.193-.081-12.572-.079-12.757.002M16.08 9.715c-.355.116-.61.315-.818.64-.094.146-1.31 2.648-2.702 5.56-2.706 5.657-2.629 5.477-2.519 5.867.065.234.344.547.569.639.377.154.845.051 1.11-.245.093-.103.424-.749.978-1.906l.837-1.75h5.929l.826 1.73c.548 1.149.876 1.789.975 1.906a.974.974 0 0 0 1.459.017c.08-.089.177-.244.215-.346.153-.398.268-.125-2.498-5.909-1.393-2.914-2.609-5.417-2.703-5.563a1.367 1.367 0 0 0-.618-.558c-.144-.074-.257-.095-.56-.103-.209-.007-.425.003-.48.021m1.436 4.727c.53 1.111.964 2.034.964 2.05 0 .015-.892.028-1.983.028-1.922 0-1.982-.002-1.959-.075.014-.041.377-.811.808-1.71.431-.899.863-1.805.96-2.012.103-.221.19-.362.211-.34.019.02.468.947.999 2.059" fill="#667085" fill-rule="evenodd"/></svg>