<svg width="24" height="24" fill="none" xmlns="http://www.w3.org/2000/svg"><path d="M3.558 2.055a1.949 1.949 0 0 0-.961.544c-.282.28-.435.548-.536.939-.089.346-.089 2.578 0 2.924.1.389.254.659.536.941.354.354.617.479 1.062.507L4 7.931V16.08h-.175c-.499 0-.855.151-1.228.52a1.869 1.869 0 0 0-.536.938c-.089.346-.089 2.578 0 2.924.194.755.794 1.34 1.531 1.494.283.059 2.533.059 2.816 0 .369-.077.709-.266.995-.552.354-.355.479-.618.507-1.063L7.931 20h8.138l.021.341c.028.445.153.708.507 1.063.286.286.626.475.995.552.283.059 2.533.059 2.816 0 .546-.114 1.135-.562 1.364-1.036.209-.435.228-.595.228-1.92s-.019-1.485-.228-1.92c-.129-.267-.559-.705-.816-.83a1.954 1.954 0 0 0-.781-.17H20V7.931l.341-.021c.445-.028.708-.153 1.062-.507.282-.282.436-.552.536-.941.089-.346.089-2.578 0-2.924-.1-.39-.254-.659-.536-.939a1.952 1.952 0 0 0-1.02-.556c-.311-.056-2.455-.056-2.766 0-.37.068-.722.259-1.02.556-.354.351-.479.614-.507 1.06L16.069 4H7.931l-.021-.341c-.028-.446-.153-.709-.507-1.06a1.952 1.952 0 0 0-1.02-.556c-.328-.059-2.536-.051-2.825.012m2.401 2.022c.044.083.058 1.676.016 1.833L5.951 6H5c-.831 0-.955-.008-.976-.063-.048-.127-.027-1.838.024-1.889.035-.035.304-.048.959-.048.859 0 .913.004.952.077m14 0c.044.083.058 1.676.016 1.833l-.024.09H19c-.831 0-.955-.008-.976-.063-.048-.127-.027-1.838.024-1.889.035-.035.304-.048.959-.048.859 0 .913.004.952.077M16.09 6.341c.028.445.153.708.507 1.062.354.354.617.479 1.062.507l.341.021V16.08h-.175c-.499 0-.855.151-1.228.52-.354.35-.479.612-.507 1.059l-.021.341H7.931l-.021-.341c-.028-.447-.153-.709-.507-1.059-.373-.369-.729-.52-1.228-.52H6V7.931l.341-.021c.445-.028.708-.153 1.062-.507.354-.354.479-.617.507-1.062L7.931 6h8.138l.021.341M5.959 18.077c.044.083.058 1.676.016 1.833l-.024.09H5c-.831 0-.955-.008-.976-.063-.048-.127-.027-1.838.024-1.889.035-.035.304-.048.959-.048.859 0 .913.004.952.077m14 0c.044.083.058 1.676.016 1.833l-.024.09H19c-.831 0-.955-.008-.976-.063-.048-.127-.027-1.838.024-1.889.035-.035.304-.048.959-.048.859 0 .913.004.952.077" fill="#667085" fill-rule="evenodd"/></svg>