<svg width="24" height="24" fill="none" xmlns="http://www.w3.org/2000/svg"><path d="M7.643 2.069a1.118 1.118 0 0 0-.343.229c-.248.248-.3.442-.3 1.129V4H4.427c-2.904 0-2.821-.008-3.128.299a.984.984 0 0 0 0 1.402c.317.317.037.299 4.708.299 2.284 0 4.153.011 4.153.023 0 .066-.183.739-.326 1.197a18.313 18.313 0 0 1-1.618 3.611l-.271.451-.237-.231c-.676-.658-1.317-1.511-1.677-2.229-.116-.232-.265-.463-.352-.547A1.085 1.085 0 0 0 5 8c-.536 0-1.002.474-.999 1.017.001.32.419 1.156.945 1.89.355.496.942 1.172 1.405 1.618l.415.399-.271.308a22.823 22.823 0 0 1-1.984 1.935 15.71 15.71 0 0 1-2.651 1.78c-.4.214-.55.318-.649.448-.53.694.024 1.682.893 1.593.299-.031 1.165-.489 2.116-1.119 1.399-.927 2.494-1.898 3.86-3.421l.26-.29.44.284c.74.478.872.536 1.223.537.269.001.326-.013.5-.12a.998.998 0 0 0 .336-1.394c-.118-.186-.179-.231-.809-.596a6.905 6.905 0 0 1-.422-.262l-.093-.071.238-.379a19.202 19.202 0 0 0 2.349-5.547l.151-.61h.946c1.096 0 1.23-.027 1.502-.299a.984.984 0 0 0 0-1.402C14.394 3.992 14.477 4 11.573 4H9v-.573c0-.686-.052-.881-.299-1.128a.998.998 0 0 0-1.058-.23m8.474 7.143c-.383.109-.707.371-.93.753-.056.096-1.241 2.551-2.632 5.455l-2.531 5.28-.002.3c-.002.259.013.326.111.492.13.222.369.409.603.473.377.101.837-.056 1.056-.362.059-.083.477-.928.928-1.877l.82-1.725h5.92l.82 1.725c.451.949.869 1.794.928 1.877.219.306.679.463 1.056.362.234-.064.473-.251.603-.473.098-.166.113-.233.111-.492l-.002-.3-2.472-5.16a944.162 944.162 0 0 0-2.614-5.433c-.31-.592-.735-.897-1.294-.93-.176-.01-.37.004-.479.035m1.449 4.84c.503 1.051.914 1.92.914 1.93 0 .01-.893.018-1.984.018-1.571 0-1.981-.01-1.965-.05.01-.027.456-.965.991-2.083l.973-2.034.079.154c.043.084.49 1.013.992 2.065" fill="#667085" fill-rule="evenodd"/></svg>