<svg width="24" height="24" fill="none" xmlns="http://www.w3.org/2000/svg"><path d="M8.643 2.069C8.291 2.193 8 2.614 8 3c0 .242.119.521.299.701C8.61 4.013 8.456 4 12 4s3.39.013 3.701-.299a.984.984 0 0 0 0-1.402c-.312-.312-.154-.299-3.718-.296-2.757.003-3.186.011-3.34.066m-6 3C2.291 5.193 2 5.614 2 6c0 .242.119.521.299.701.25.25.439.299 1.158.299h.603l.373 5.57c.205 3.063.398 5.741.429 5.95.207 1.384.964 2.452 2.158 3.043.46.228.853.337 1.425.396.538.055 6.572.055 7.11 0 .572-.059.965-.168 1.425-.396 1.188-.588 1.948-1.655 2.155-3.025.033-.219.227-2.905.432-5.968L19.94 7h.603c.719 0 .908-.049 1.158-.299a.984.984 0 0 0 0-1.402c-.326-.327.567-.299-9.718-.296-8.192.003-9.182.01-9.34.066M17.92 7.056c0 .268-.693 10.372-.74 10.789-.105.93-.204 1.19-.599 1.578-.286.281-.492.391-.906.488-.266.062-.62.069-3.635.069-3.607 0-3.718-.006-4.16-.212-.272-.126-.673-.519-.812-.793-.112-.221-.202-.651-.267-1.275-.034-.332-.721-10.468-.721-10.644C6.08 7.008 6.939 7 12 7s5.92.008 5.92.056" fill="#667085" fill-rule="evenodd"/></svg>