<svg width="24" height="24" fill="none" xmlns="http://www.w3.org/2000/svg"><path d="M9.76 1.025c-.966.104-1.733.551-2.25 1.31-.355.521-.47.995-.482 1.975l-.008.689L4.957 5c-2.355 0-2.36.001-2.655.296a.998.998 0 0 0 .091 1.492c.237.181.388.212 1.036.212h.568l.013 6.25c.013 6.169.014 6.255.097 6.61.222.961.731 1.763 1.465 2.311.539.402.985.601 1.656.737.326.067.679.072 4.772.072 4.095 0 4.446-.005 4.773-.072 1.084-.221 1.98-.822 2.568-1.725.266-.408.433-.807.552-1.323.083-.355.084-.441.097-6.61L20.003 7h.571c.685 0 .88-.052 1.127-.299a.984.984 0 0 0-.004-1.406c-.294-.294-.3-.295-2.654-.295H16.98l-.006-.638a8.32 8.32 0 0 0-.054-.929c-.187-1.13-1.037-2.031-2.207-2.339-.22-.058-.549-.068-2.533-.076a109.87 109.87 0 0 0-2.42.007m4.187 2.013c.511.043.684.123.873.409.098.149.108.2.124.687.01.289.025.602.032.696l.014.17H9.006l.016-.21c.009-.115.024-.429.035-.698.017-.442.029-.502.124-.647.179-.27.374-.369.795-.404.534-.044 3.45-.046 3.971-.003M18 12.59c0 5.575-.021 6.605-.139 7.061-.142.544-.638 1.05-1.181 1.206-.416.119-1.173.142-4.68.142-3.507 0-4.264-.023-4.68-.142-.543-.156-1.039-.662-1.181-1.206C6.021 19.195 6 18.165 6 12.59V7h12v5.59m-8.383-2.013a1.156 1.156 0 0 0-.523.523l-.093.2v5.4l.093.2a.988.988 0 0 0 1.812 0l.093-.2v-5.4l-.093-.2a1.146 1.146 0 0 0-.532-.525c-.166-.07-.596-.069-.757.002m4 0a1.156 1.156 0 0 0-.523.523l-.093.2v5.4l.093.2a.988.988 0 0 0 1.812 0l.093-.2v-5.4l-.093-.2a1.146 1.146 0 0 0-.532-.525c-.166-.07-.596-.069-.757.002" fill="#667085" fill-rule="evenodd"/></svg>