<svg width="24" height="24" fill="none" xmlns="http://www.w3.org/2000/svg"><path d="M14.643 6.069C14.291 6.193 14 6.614 14 7c0 .242.119.521.299.701.305.305.248.299 2.918.299h2.363l-3.26 3.26c-1.793 1.793-3.286 3.26-3.319 3.26-.032 0-.897-.835-1.92-1.855-1.157-1.153-1.933-1.896-2.052-1.964-.659-.378-1.522-.355-2.135.057-.139.093-1.36 1.286-2.999 2.93-2.514 2.521-2.771 2.79-2.83 2.969-.129.39-.044.766.234 1.044s.654.363 1.044.234c.179-.059.443-.31 2.898-2.76 1.485-1.482 2.726-2.695 2.758-2.695.032 0 .905.844 1.94 1.875 1.791 1.785 1.895 1.882 2.181 2.018.597.284 1.162.284 1.76.001.292-.139.395-.238 3.71-3.548L21 9.422v2.362c0 2.669-.006 2.612.299 2.917a.984.984 0 0 0 1.403-.001c.317-.316.301-.094.289-4.263L22.98 6.74l-.109-.208a1.14 1.14 0 0 0-.243-.309c-.304-.231-.154-.223-4.143-.22-3.212.003-3.687.011-3.842.066" fill="#667085" fill-rule="evenodd"/></svg>