<svg width="24" height="24" fill="none" xmlns="http://www.w3.org/2000/svg"><path d="M1.643 6.069c-.53.187-.786.849-.531 1.375.062.127.875.963 2.897 2.981 2.718 2.713 2.821 2.811 3.111 2.948.598.284 1.163.284 1.76 0 .286-.136.39-.233 2.181-2.018 1.035-1.031 1.908-1.875 1.94-1.875.033 0 1.526 1.467 3.319 3.26L19.58 16h-2.363c-2.67 0-2.613-.006-2.918.299a.984.984 0 0 0 0 1.402c.314.314.097.299 4.203.299 3.963 0 3.823.007 4.122-.22a1.12 1.12 0 0 0 .243-.33l.113-.23.011-3.676c.013-4.147.028-3.927-.289-4.244a.984.984 0 0 0-1.403-.001c-.305.305-.299.248-.299 2.918v2.362l-3.39-3.385c-2.207-2.203-3.457-3.422-3.581-3.494a2.114 2.114 0 0 0-2.058.001c-.119.068-.895.811-2.052 1.964C8.896 10.685 8.032 11.52 8 11.52c-.032 0-1.274-1.213-2.759-2.695-2.455-2.45-2.719-2.701-2.898-2.76a1.032 1.032 0 0 0-.7.004" fill="#667085" fill-rule="evenodd"/></svg>