<svg width="24" height="24" fill="none" xmlns="http://www.w3.org/2000/svg"><path d="M11.49 2.059c-.659.186-1.02.52-1.497 1.387-.29.527-8.334 14.422-8.716 15.055-.436.725-.529.979-.533 1.459-.002.296.018.439.088.644.171.5.517.912.962 1.15.497.264-.263.246 10.206.246 10.487 0 9.706.019 10.216-.251.312-.166.665-.524.819-.831.066-.133.151-.378.188-.545.128-.576.008-1.028-.494-1.862-.382-.636-8.273-14.267-8.689-15.011a8.039 8.039 0 0 0-.465-.746c-.196-.256-.545-.506-.886-.636-.298-.114-.898-.143-1.199-.059m.718 2.331c.272.411 8.707 14.993 8.84 15.284.064.14.105.266.091.28-.036.036-18.246.033-18.282-.003-.016-.016.051-.187.149-.38.223-.438 8.542-14.812 8.787-15.181.098-.148.191-.27.207-.27.016 0 .109.122.208.27" fill="#667085" fill-rule="evenodd"/></svg>