<svg width="24" height="24" fill="none" xmlns="http://www.w3.org/2000/svg"><path d="M3.632 2.041c-1.072.128-2.044.878-2.415 1.864C.999 4.482 1 4.467 1 9.5c0 4.971 0 4.981.199 5.557.176.511.637 1.094 1.132 1.43.306.208.503.273.832.273.15 0 .283.017.296.038.013.022-.029.143-.093.27a5.302 5.302 0 0 0-.229.572c-.1.304-.112.398-.113.88-.001.441.015.597.087.852.361 1.259 1.254 2.155 2.509 2.516.271.078.408.092.9.089.513-.002.622-.015.94-.112 1.455-.443 2.444-1.688 2.527-3.185.03-.544-.059-.985-.326-1.61C9.633 17.004 9.76 17 12 17c2.241 0 2.367.004 2.337.07-.017.038-.095.25-.173.47-.138.389-.142.415-.14.98.001.513.014.62.109.932.366 1.196 1.219 2.049 2.415 2.415.311.095.419.108.932.109.487.002.631-.012.9-.089 1.332-.379 2.304-1.429 2.557-2.761.119-.629.059-1.2-.19-1.827l-.128-.321.362-.004c.915-.009 1.56-.454 1.903-1.314l.096-.24.012-2.085c.01-1.783.003-2.125-.051-2.356-.128-.555-.194-.637-1.738-2.184C19.351 6.941 19.461 7 17.875 7H17V5.963c0-1.137-.035-1.511-.186-1.963-.292-.881-1.093-1.622-2.043-1.891l-.311-.088-5.28-.006c-2.904-.003-5.4.008-5.548.026m10.315 1.997c.38.032.472.053.607.143.287.189.361.353.406.889.022.27.039 2.485.039 5.2L15 15H9.63c-3.159 0-5.507-.016-5.703-.039-.392-.045-.555-.131-.73-.385-.109-.159-.125-.223-.158-.626-.049-.585-.049-8.313-.001-8.897.032-.38.053-.472.143-.607.179-.271.374-.37.795-.405.533-.043 9.445-.046 9.971-.003m5.843 6.172L21 11.42v1.665c0 .916-.011 1.721-.025 1.79L20.95 15H17V9h1.58l1.21 1.21M7.138 17.153c.325.152.557.386.716.721.112.237.126.305.125.626 0 .309-.016.394-.111.598-.147.315-.271.473-.495.627a1.55 1.55 0 0 1-1.703.027c-.23-.146-.395-.347-.54-.659-.093-.199-.109-.286-.109-.593-.001-.321.013-.389.125-.626a1.517 1.517 0 0 1 1.004-.833c.272-.069.706-.02.988.112m11 0c.319.15.558.392.718.727.11.232.123.299.123.62-.001.385-.066.591-.287.911-.231.334-.747.589-1.191.589-1.111 0-1.82-1.152-1.339-2.175.173-.369.56-.677.983-.783.277-.07.71-.021.993.111" fill="#667085" fill-rule="evenodd"/></svg>