<svg width="24" height="24" fill="none" xmlns="http://www.w3.org/2000/svg"><path d="M3.632 3.041C2.521 3.174 1.528 3.969 1.186 5c-.188.566-.191.646-.178 5.72l.012 4.78.111.3c.153.413.323.678.628.981.339.335.518.463.926.661.184.09.359.175.389.191.03.016.095.181.144.368.191.723.479 1.24.993 1.783a3.815 3.815 0 0 0 4.121.974c1.075-.389 2.005-1.363 2.382-2.498l.08-.24 1.9-.01 1.899-.011.043.199c.349 1.629 1.765 2.805 3.372 2.801a3.337 3.337 0 0 0 2.319-.951 3.517 3.517 0 0 0 1.029-1.823l.07-.325.19-.027c.389-.056.943-.515 1.159-.961.219-.453.225-.52.225-2.712 0-2.226-.003-2.263-.248-2.737-.106-.205-.504-.621-2.549-2.668-2.323-2.325-2.435-2.431-2.723-2.57a2.567 2.567 0 0 0-.515-.185C16.846 6.018 16.322 6 15.8 6h-.948l-.022-.49c-.014-.303-.048-.566-.09-.688-.255-.739-1.089-1.464-1.969-1.712-.311-.088-.317-.088-4.591-.095-2.354-.003-4.4.008-4.548.026m8.315 1.997c.38.032.472.053.607.143.285.188.365.361.408.872.02.246.037 2.585.037 5.198l.001 4.75-1.102-.01-1.102-.011-.094-.27c-.288-.825-.869-1.588-1.555-2.044-1.976-1.311-4.604-.587-5.673 1.563-.112.225-.22.4-.24.388a.914.914 0 0 1-.125-.19l-.089-.167-.011-4.34c-.007-2.531.005-4.543.027-4.827.034-.423.053-.508.145-.647.179-.271.374-.37.795-.405.533-.044 7.446-.046 7.971-.003m6.843 5.172L21 12.42v3.396l-.125-.198c-.454-.716-1.295-1.327-2.095-1.524-.379-.094-1.18-.094-1.556-.001-.794.197-1.597.766-2.056 1.457a1.56 1.56 0 0 1-.154.21c-.008 0-.014-1.746-.014-3.88V8h1.58l2.21 2.21M7.383 15.043c.802.147 1.456.829 1.584 1.652a1.956 1.956 0 0 1-.53 1.681 1.972 1.972 0 0 1-2.876-.001c-.754-.806-.739-2.004.035-2.779.489-.488 1.102-.678 1.787-.553m11.185 1.076c.315.118.599.383.761.713.123.25.131.293.131.687 0 .403-.006.432-.136.671a1.58 1.58 0 0 1-.717.684c-.196.091-.279.106-.607.106-.329 0-.411-.015-.609-.107a1.657 1.657 0 0 1-.734-.702c-.108-.214-.117-.264-.117-.671 0-.404.009-.457.111-.651.382-.725 1.15-1.017 1.917-.73" fill="#667085" fill-rule="evenodd"/></svg>