<svg width="24" height="24" fill="none" xmlns="http://www.w3.org/2000/svg"><path d="M6.667 2.063c-.401.127-.699.588-.658 1.015.042.434.073.467 1.659 1.736L9.126 5.98l-2.253.023c-2.703.028-2.9.052-3.677.44a3.918 3.918 0 0 0-2.107 2.811c-.063.333-.069.759-.069 4.746 0 3.987.006 4.413.069 4.746a3.926 3.926 0 0 0 1.749 2.609c.418.269.858.445 1.389.553.332.068.791.072 7.773.072 6.995 0 7.44-.004 7.775-.072 1.635-.333 2.8-1.498 3.133-3.133.067-.33.072-.672.072-4.775 0-4.103-.005-4.445-.072-4.775-.256-1.258-.982-2.217-2.108-2.785-.758-.382-.967-.407-3.673-.436l-2.253-.024 1.444-1.154C17.977 3.499 17.98 3.496 17.98 3c0-.256-.016-.328-.111-.489a1 1 0 0 0-1.305-.401c-.079.039-1.139.868-2.354 1.841L12 5.721l-2.21-1.77c-1.215-.973-2.28-1.805-2.366-1.848-.203-.101-.514-.117-.757-.04M18.801 8.04c.341.022.724.067.851.1.432.112.893.495 1.102.915.209.422.215.522.234 4.405.019 3.662-.008 4.775-.125 5.211-.142.53-.7 1.077-1.228 1.203-.466.112-1.286.125-7.615.125-6.533 0-7.25-.014-7.7-.142-.544-.156-1.039-.662-1.181-1.207-.107-.411-.138-1.453-.138-4.65 0-3.205.031-4.239.139-4.654.071-.27.275-.598.501-.802.387-.35.684-.452 1.452-.501.736-.047 12.976-.05 13.708-.003" fill="#667085" fill-rule="evenodd"/></svg>