<svg width="24" height="24" fill="none" xmlns="http://www.w3.org/2000/svg"><path d="M4.692 2.043c-.838.076-1.499.324-2.126.797-.698.526-1.233 1.341-1.424 2.166-.134.578-.147 1.121-.131 5.314.013 3.66.023 4.178.082 4.467.196.966.728 1.824 1.479 2.384.532.397.976.597 1.634.734.287.061.656.074 2.627.093l2.293.022-1.458 1.166c-1.27 1.016-1.468 1.189-1.548 1.353-.241.499-.079 1.054.388 1.328.165.097.234.113.492.112.21 0 .339-.022.432-.072.073-.039 1.131-.87 2.353-1.847l2.221-1.776 2.201 1.762c1.211.969 2.262 1.798 2.335 1.841.168.099.508.135.722.078.234-.064.473-.251.603-.473.097-.165.113-.235.113-.492 0-.496-.003-.499-1.662-1.826l-1.444-1.154 2.313-.024c2.139-.021 2.34-.029 2.673-.105.688-.157 1.198-.404 1.71-.828.692-.575 1.148-1.354 1.338-2.288.067-.33.072-.672.072-4.775 0-4.895.009-4.703-.263-5.456-.371-1.024-1.365-1.978-2.417-2.317-.649-.21-.311-.201-8.06-.21-3.949-.004-7.345.008-7.548.026M18.78 4.04c.352.021.744.066.872.099.554.145 1.067.659 1.209 1.212.109.427.138 1.38.138 4.629.001 3.239-.03 4.294-.136 4.691-.105.393-.455.821-.872 1.065-.421.246-.147.237-7.611.254-6.854.015-7.559.004-8.051-.127-.531-.141-1.048-.668-1.19-1.213-.107-.411-.138-1.453-.138-4.65 0-3.205.031-4.239.139-4.654.103-.394.412-.789.819-1.046.232-.146.577-.223 1.156-.258.764-.046 12.916-.048 13.665-.002" fill="#667085" fill-rule="evenodd"/></svg>