<svg width="24" height="24" fill="none" xmlns="http://www.w3.org/2000/svg"><path d="M4.692 2.043c-.837.076-1.499.324-2.124.796A3.879 3.879 0 0 0 1.09 5.252c-.064.336-.07.751-.07 4.708 0 4.588.003 4.675.187 5.275.313 1.02 1.094 1.905 2.088 2.365.403.187.722.269 1.275.33l.43.047V19.1c0 .872.013 1.175.06 1.355a2.016 2.016 0 0 0 1.3 1.43l.26.095h10.8l.237-.09a2.025 2.025 0 0 0 1.282-1.428c.048-.187.061-.484.061-1.362v-1.123l.43-.047c.746-.081 1.222-.242 1.769-.599.886-.577 1.49-1.481 1.709-2.558.067-.327.072-.678.072-4.773 0-4.885.008-4.712-.258-5.441-.389-1.065-1.342-1.984-2.422-2.332-.649-.21-.311-.201-8.06-.21-3.949-.004-7.345.008-7.548.026M18.801 4.04c.341.022.724.067.851.1.432.112.893.495 1.102.915.21.422.215.52.234 4.421.019 3.693-.006 4.709-.127 5.174-.142.545-.639 1.052-1.181 1.206-.46.13-1.212.144-7.68.144s-7.22-.014-7.68-.144c-.634-.18-1.128-.774-1.243-1.496-.033-.209-.053-1.367-.066-3.814-.018-3.612.01-4.746.129-5.2.103-.394.412-.789.819-1.046.232-.146.577-.223 1.156-.258.772-.046 12.961-.048 13.686-.002M17 18.937c0 .515-.011.965-.024 1-.022.057-.498.063-4.976.063H7.049l-.024-.09c-.013-.05-.024-.5-.024-1L7 18h10v.937" fill="#667085" fill-rule="evenodd"/></svg>