<svg width="24" height="24" fill="none" xmlns="http://www.w3.org/2000/svg"><path d="M2.643 2.069C2.291 2.193 2 2.614 2 3c0 .358.093.5.793 1.209l.661.67-.217.41-.217.411-.013.71c-.016.844.024 1.024.291 1.29a.984.984 0 0 0 1.403.001c.222-.222.299-.459.299-.918V6.42l3 3 3 3V19H9.927c-1.235 0-1.35.021-1.628.299a.984.984 0 0 0 0 1.402c.311.312.157.299 3.701.299s3.39.013 3.701-.299a.984.984 0 0 0 0-1.402c-.278-.278-.393-.299-1.628-.299H13V14.421l3.73 3.725c3.413 3.408 3.747 3.73 3.927 3.789.39.129.766.044 1.045-.235a.986.986 0 0 0 .185-1.144c-.063-.129-2.503-2.593-9.216-9.301-8.441-8.436-9.146-9.13-9.328-9.19a1.038 1.038 0 0 0-.7.004m6.597.968c-.194.06-.347.159-.488.315-.445.493-.272 1.265.348 1.554.19.088.244.093 1.05.094H11v.85c.001.806.006.86.094 1.05.051.11.166.265.254.345.497.448 1.268.277 1.558-.345.088-.19.093-.244.094-1.053v-.853l2.63.013 2.63.013.189.093a.954.954 0 0 1 .458.478c.036.086.063.377.078.84.015.47.043.775.084.905.116.369.53.664.931.664.396 0 .808-.291.934-.66.087-.257.092-1.381.007-1.866A2.914 2.914 0 0 0 19.3 3.315c-.658-.314-.259-.292-5.38-.301-2.519-.005-4.625.005-4.68.023" fill="#667085" fill-rule="evenodd"/></svg>