<svg width="24" height="24" fill="none" xmlns="http://www.w3.org/2000/svg"><path d="M2.643 2.069C2.291 2.193 2 2.614 2 3c0 .358.093.5.793 1.209l.661.67-.217.41-.217.411-.013.71c-.016.844.024 1.024.291 1.29a.984.984 0 0 0 1.403.001c.222-.222.299-.459.299-.918V6.42l2.12 2.12 2.12 2.12V19h-.693c-.817 0-.991.042-1.248.299a.984.984 0 0 0 0 1.402c.317.317.038.299 4.701.299 4.663 0 4.384.018 4.701-.299a.984.984 0 0 0 0-1.402c-.257-.257-.431-.299-1.248-.299h-.693v-2.819l2.85 2.845c2.594 2.588 2.868 2.85 3.047 2.909.39.129.766.044 1.045-.235a.986.986 0 0 0 .185-1.144c-.063-.129-2.503-2.593-9.216-9.301-8.441-8.436-9.146-9.13-9.328-9.19a1.038 1.038 0 0 0-.7.004m6.597.968c-.581.181-.879.772-.65 1.29.096.216.332.454.509.513.119.039.132.061.154.243.122 1.028 1.48 1.254 1.904.317a.918.918 0 0 0 .082-.29L11.24 5h1.52l.001 1.61c.001 1.533.005 1.619.082 1.79.354.781 1.396.797 1.807.028.088-.165.09-.197.102-1.802l.011-1.634 1.749.014c1.733.014 1.75.015 1.937.107a.954.954 0 0 1 .458.478c.036.086.063.377.078.84.015.47.043.775.084.905.116.369.53.664.931.664.396 0 .808-.291.934-.66.087-.257.092-1.381.007-1.866A2.914 2.914 0 0 0 19.3 3.315c-.658-.314-.259-.292-5.38-.301-2.519-.005-4.625.005-4.68.023m3.52 13.553V19h-1.52v-6.339l.76.759.76.759v2.411" fill="#667085" fill-rule="evenodd"/></svg>