<svg width="24" height="24" fill="none" xmlns="http://www.w3.org/2000/svg"><path d="M5.566 3.043c-.316.041-.591.13-.926.299-.321.162-.474.275-.772.568a2.813 2.813 0 0 0-.809 1.564c-.077.439-.078 1.643-.002 1.856a1.001 1.001 0 0 0 1.549.459c.093-.072.215-.219.271-.327.094-.183.104-.253.133-.977.034-.866.074-1.02.323-1.23.287-.242.168-.233 3.037-.247L11 4.994V19H9.947c-1.237 0-1.374.025-1.645.296a.998.998 0 0 0 .368 1.647c.12.043.774.054 3.31.055 2.059.001 3.212-.013 3.309-.04.22-.061.473-.273.585-.489a.985.985 0 0 0-.176-1.173c-.271-.271-.408-.296-1.645-.296H13V4.994l2.63.014c2.869.014 2.75.005 3.037.247.249.21.288.361.325 1.25.031.774.036.808.143.99a.995.995 0 0 0 1.804-.173c.082-.233.084-1.381.002-1.847-.2-1.145-1.019-2.032-2.201-2.383-.225-.066-.628-.071-6.58-.077-3.487-.003-6.454.009-6.594.028" fill="#667085" fill-rule="evenodd"/></svg>