<svg width="24" height="24" fill="none" xmlns="http://www.w3.org/2000/svg"><path d="M5.566 3.043c-.316.041-.591.13-.926.299-.321.162-.474.275-.772.568a2.813 2.813 0 0 0-.809 1.564c-.077.439-.078 1.643-.002 1.856a1.001 1.001 0 0 0 1.549.459c.093-.072.215-.219.271-.327.094-.183.104-.253.133-.977.034-.866.074-1.02.323-1.23.274-.231.26-.23 2.157-.247l1.75-.016V19h-.673c-.821 0-1.014.045-1.265.296a.998.998 0 0 0 .368 1.647c.122.043.939.054 4.31.055 2.748.001 4.211-.012 4.309-.04.22-.061.473-.273.585-.489a.985.985 0 0 0-.176-1.173c-.251-.251-.444-.296-1.265-.296h-.673V4.992l1.75.016c1.897.017 1.883.016 2.157.247.249.21.288.361.325 1.25.031.774.036.808.143.99a.995.995 0 0 0 1.804-.173c.082-.233.084-1.381.002-1.847-.2-1.145-1.019-2.032-2.201-2.383-.225-.066-.628-.071-6.58-.077-3.487-.003-6.454.009-6.594.028M12.76 12v7h-1.52V5h1.52v7" fill="#667085" fill-rule="evenodd"/></svg>