<svg width="24" height="24" fill="none" xmlns="http://www.w3.org/2000/svg"><path d="M11.34 1.023c-1.913.184-3.265.578-4.675 1.364a10.758 10.758 0 0 0-2.507 1.92c-1.037 1.062-1.33 1.521-1.415 2.216-.072.591.278 1.343.803 1.725.107.078 1.745 1.036 3.64 2.13l3.446 1.988-.477.827L7.669 17.5l-2.01 3.48L3.7 21c-1.499.015-1.988.032-2.08.073-.656.289-.822 1.127-.322 1.627.328.328-.686.3 10.702.3 11.385 0 10.374.028 10.701-.299.479-.479.35-1.291-.251-1.587l-.19-.094-7.145-.02-7.145-.02 2.19-3.793a380.365 380.365 0 0 1 2.209-3.8c.011-.004 1.589.899 3.506 2.006 1.917 1.107 3.589 2.05 3.715 2.096.289.104.823.138 1.125.072.523-.115 1.033-.518 1.292-1.021.459-.89.845-2.361.955-3.64.057-.65.029-1.758-.059-2.36-.309-2.121-1.149-4.02-2.484-5.62a15.02 15.02 0 0 0-1.559-1.519 11.099 11.099 0 0 0-5.445-2.302c-.457-.061-1.743-.108-2.075-.076m1.506 2.017c.68.067.673.056.194.302-.54.276-.951.606-1.72 1.377-.927.929-1.722 1.917-2.628 3.267l-.461.686-.765-.443c-.729-.42-2.362-1.367-2.596-1.505-.06-.035-.109-.073-.109-.084 0-.011.193-.244.43-.518a9.108 9.108 0 0 1 6.069-3.095 12.377 12.377 0 0 1 1.586.013m3.659 1.181c.215.126.348.347.461.762.115.425.127 1.539.023 2.199-.208 1.323-.794 3.031-1.6 4.665l-.369.748-2.509-1.448c-1.379-.796-2.509-1.465-2.51-1.487 0-.022.164-.283.365-.58 1.346-1.99 2.619-3.37 3.895-4.222.998-.667 1.803-.895 2.244-.637m2.872 2.639c1.559 2.206 2.025 5.119 1.237 7.74-.145.484-.333.96-.379.96a.64.64 0 0 1-.167-.065c-.091-.047-2.93-1.676-3.277-1.882-.016-.009.106-.287.271-.617.848-1.694 1.446-3.315 1.787-4.842.116-.521.128-.633.124-1.211-.004-.734-.049-.725.404-.083" fill="#667085" fill-rule="evenodd"/></svg>