<svg width="24" height="24" fill="none" xmlns="http://www.w3.org/2000/svg"><path d="M11.041 1.045c-1.802.159-3.57.778-5.092 1.782A11.43 11.43 0 0 0 2.842 5.92a10.928 10.928 0 0 0-1.826 5.62c-.02.496-.013.631.041.777a1 1 0 0 0 .454.552c.161.095.233.111.489.111.285 0 .316-.009.62-.188.681-.4 1.26-.63 1.841-.731.436-.076.64-.077 1.064-.002.57.099 1.118.319 1.966.787.374.206.545.2 1.189-.038.809-.299 1.152-.399 1.746-.508.297-.055.547-.1.557-.1.009 0 .017 1.661.017 3.692 0 3.187-.008 3.723-.061 3.927-.129.493-.418.851-.852 1.055-.193.09-.281.106-.587.106-.306 0-.394-.016-.587-.106a1.538 1.538 0 0 1-.702-.664c-.142-.27-.167-.365-.21-.781-.038-.382-.163-.641-.392-.816-.485-.369-1.21-.211-1.485.323-.184.358-.155.934.082 1.651.368 1.107 1.318 1.998 2.474 2.318.365.1 1.275.1 1.64 0a3.681 3.681 0 0 0 2.149-1.619 4.12 4.12 0 0 0 .488-1.326c.028-.169.043-1.577.043-4.01 0-2.062.008-3.75.017-3.75.01 0 .26.045.557.1.594.109.937.209 1.746.508.644.238.815.244 1.189.038.44-.243 1.112-.561 1.357-.643.301-.1.878-.203 1.134-.203.648 0 1.525.291 2.368.785.519.304.973.276 1.332-.083.297-.297.351-.644.259-1.642-.239-2.599-1.322-4.931-3.139-6.765a10.699 10.699 0 0 0-2.601-1.967 11.058 11.058 0 0 0-6.178-1.283M12.8 3.042a8.572 8.572 0 0 1 5.214 2.395c.541.526.862.909 1.252 1.49.338.505.822 1.464 1.015 2.013.169.48.401 1.397.358 1.413-.019.007-.23-.051-.469-.128-.64-.207-1.011-.25-1.658-.194-.854.074-1.609.302-2.287.691l-.325.186-.162-.069c-.55-.235-1.838-.597-2.639-.742-.551-.1-1.647-.1-2.198 0-.801.145-2.089.507-2.639.742l-.162.069-.325-.186c-.678-.389-1.433-.617-2.287-.691-.647-.056-1.018-.013-1.658.194-.239.077-.45.135-.469.128-.043-.016.189-.933.358-1.413.312-.885.979-2.059 1.575-2.773.35-.418 1.056-1.097 1.457-1.401A8.709 8.709 0 0 1 12.8 3.042" fill="#667085" fill-rule="evenodd"/></svg>