<svg width="24" height="24" fill="none" xmlns="http://www.w3.org/2000/svg"><path d="M11.28 1.024c-2.278.196-4.154.898-5.911 2.211-.579.433-1.601 1.43-2.018 1.969a11.271 11.271 0 0 0-2.177 4.833c-.22 1.156-.115 1.769.395 2.309.238.252.491.421.814.544l.237.09 4.19.011 4.19.011v3.349c0 2.152.016 3.442.043 3.609a3.672 3.672 0 0 0 2.637 2.945c.365.1 1.275.1 1.64 0 1.156-.32 2.106-1.211 2.474-2.318.237-.717.266-1.293.082-1.651-.275-.534-1-.692-1.485-.323-.234.179-.353.433-.394.837-.073.715-.362 1.167-.912 1.425-.191.089-.28.105-.585.105-.306 0-.394-.016-.587-.106a1.595 1.595 0 0 1-.869-1.106c-.03-.145-.044-1.244-.044-3.489v-3.277l4.19-.011 4.19-.011.237-.09c.323-.123.576-.292.814-.544.508-.538.615-1.158.395-2.309a11.03 11.03 0 0 0-1.664-4.103 10.562 10.562 0 0 0-1.556-1.862c-1.684-1.623-3.79-2.638-6.166-2.971-.44-.062-1.783-.11-2.16-.077m2.04 2.077a9.018 9.018 0 0 1 6.169 3.919c.732 1.102 1.298 2.594 1.417 3.741l.025.239H3.069l.025-.239c.077-.742.398-1.82.776-2.609.9-1.878 2.343-3.337 4.188-4.233 1.039-.506 2.052-.783 3.262-.894.356-.033 1.589.014 2 .076" fill="#667085" fill-rule="evenodd"/></svg>