<svg width="24" height="24" fill="none" xmlns="http://www.w3.org/2000/svg"><path d="M5.617 2.577a1.156 1.156 0 0 0-.523.523l-.093.2v3.8c0 4.447.004 4.517.364 5.6a7.01 7.01 0 0 0 6.138 4.777c3.156.239 6.129-1.752 7.132-4.777.36-1.083.364-1.153.364-5.6V3.3l-.093-.2a1.146 1.146 0 0 0-.532-.525c-.169-.071-.579-.071-.748 0a1.21 1.21 0 0 0-.518.481l-.088.164-.022 3.98c-.022 3.855-.025 3.991-.106 4.34-.345 1.484-1.234 2.668-2.532 3.371-.817.442-1.884.66-2.79.568-1.245-.125-2.243-.589-3.091-1.438A4.944 4.944 0 0 1 7.266 12.1c-.251-.767-.237-.513-.263-4.88l-.023-4-.088-.164a1.21 1.21 0 0 0-.518-.481c-.166-.07-.596-.069-.757.002m-2 17c-.346.15-.616.556-.616.923 0 .386.303.818.664.945.231.082 16.439.082 16.67 0 .361-.127.664-.559.664-.945 0-.372-.274-.779-.625-.925-.193-.081-16.571-.079-16.757.002" fill="#667085" fill-rule="evenodd"/></svg>