<svg width="24" height="24" fill="none" xmlns="http://www.w3.org/2000/svg"><path d="M2.617 2.577c-.346.15-.616.556-.616.923 0 .245.135.549.324.728.238.225.389.266 1.065.284l.61.017v2.697c0 3.301.029 3.626.422 4.808 1.143 3.436 4.525 5.701 8.127 5.444 3.875-.277 6.986-3.287 7.409-7.166.025-.234.042-1.461.042-3.086V4.529l.61-.017c.676-.018.827-.059 1.065-.284a.987.987 0 0 0-.016-1.463c-.288-.253-.201-.245-2.659-.245-2.458 0-2.371-.008-2.659.245a.987.987 0 0 0-.016 1.463c.238.225.389.266 1.067.284l.613.017-.016 2.865c-.015 2.713-.02 2.886-.099 3.247-.257 1.191-.76 2.115-1.607 2.96a6.128 6.128 0 0 1-2.299 1.46l-.315.114-.205-.072c-.883-.309-1.856-.969-2.471-1.679a5.955 5.955 0 0 1-1.395-2.898c-.072-.42-.078-.66-.078-3.226V4.529l.61-.016c.492-.013.637-.03.75-.089.254-.133.381-.252.499-.468.28-.515.048-1.142-.51-1.375-.128-.053-.642-.061-4.138-.059-3.245.001-4.014.011-4.114.055M7.49 7.37c.015 2.445.027 2.904.085 3.23.288 1.622.909 2.885 2.064 4.202.254.289.227.291-.321.016a6.025 6.025 0 0 1-3.205-4.166c-.088-.421-.091-.504-.104-3.282l-.013-2.85H7.473l.017 2.85M3.617 19.577c-.346.15-.616.556-.616.923 0 .386.303.818.664.945.231.082 16.439.082 16.67 0 .361-.127.664-.559.664-.945 0-.372-.274-.779-.625-.925-.193-.081-16.571-.079-16.757.002" fill="#667085" fill-rule="evenodd"/></svg>