<svg width="24" height="24" fill="none" xmlns="http://www.w3.org/2000/svg"><path d="M5.9 2.025c-.991.083-1.531.257-2.2.708-.578.389-1.181 1.16-1.417 1.811-.279.77-.263.33-.263 7.456 0 6.02.004 6.442.072 6.773.223 1.094.826 1.987 1.746 2.582.418.269.858.445 1.389.553.331.068.753.072 6.773.072s6.442-.004 6.773-.072c1.094-.223 1.987-.826 2.582-1.746.269-.418.445-.858.553-1.389.068-.331.072-.753.072-6.773s-.004-6.442-.072-6.773c-.289-1.42-1.291-2.57-2.618-3.005-.611-.2-.432-.195-7.05-.203a802.572 802.572 0 0 0-6.34.006M17.801 4.04c.341.022.723.066.85.099.553.144 1.065.656 1.209 1.209.118.452.14 1.48.14 6.652 0 5.167-.022 6.2-.139 6.651-.142.544-.638 1.05-1.181 1.206-.442.126-1.17.142-6.68.142s-6.238-.016-6.68-.142c-.543-.156-1.039-.662-1.181-1.206C4.022 18.2 4 17.167 4 12c0-5.172.022-6.2.14-6.652.103-.397.416-.8.811-1.044.239-.148.575-.225 1.142-.261.734-.047 10.98-.05 11.708-.003M8.24 6.035c-.311.102-.589.358-.685.63-.044.124-.055.575-.055 2.235 0 2.266.007 2.348.247 3.06.519 1.54 1.922 2.717 3.552 2.981 2.121.344 4.268-.947 4.954-2.981.24-.712.247-.794.247-3.06 0-2.296.003-2.266-.252-2.548-.219-.242-.417-.33-.748-.33-.319 0-.515.082-.728.304-.277.29-.27.223-.294 2.594-.025 2.318-.019 2.255-.262 2.721a2.491 2.491 0 0 1-4.434-.001c-.242-.474-.235-.406-.26-2.72-.02-1.946-.029-2.155-.094-2.3a1.134 1.134 0 0 0-.485-.508c-.172-.088-.544-.129-.703-.077m-.597 10.034C7.291 16.193 7 16.614 7 17c0 .242.119.521.299.701.317.317.038.299 4.701.299 4.663 0 4.384.018 4.701-.299a.984.984 0 0 0 0-1.402c-.317-.317-.035-.299-4.718-.296-3.663.003-4.184.011-4.34.066" fill="#667085" fill-rule="evenodd"/></svg>