<svg width="24" height="24" fill="none" xmlns="http://www.w3.org/2000/svg"><path d="M8.68 2.04c-4.044.421-7.194 3.563-7.64 7.62-.189 1.723.26 3.714 1.178 5.22a8.57 8.57 0 0 0 1.12 1.461c.262.267.362.341.537.399.835.272 1.595-.609 1.2-1.39a3.331 3.331 0 0 0-.379-.48c-2.111-2.307-2.258-5.839-.346-8.335 1.674-2.185 4.57-3.067 7.204-2.192 1.379.458 2.547 1.36 3.398 2.625.293.435.416.582.596.711.27.193.655.321.967.321.61 0 1.346.169 1.918.441 1.713.814 2.742 2.647 2.534 4.517-.123 1.108-.557 1.99-1.385 2.812-.463.46-.542.585-.571.908-.056.616.558 1.173 1.152 1.045.319-.068.428-.144.939-.658a6.135 6.135 0 0 0 1.576-2.576c.243-.746.302-1.147.299-2.029-.002-.628-.018-.833-.092-1.18-.285-1.336-.834-2.352-1.783-3.302-1.167-1.167-2.402-1.738-4.151-1.92l-.228-.023-.228-.328a8.54 8.54 0 0 0-1.141-1.328A8.376 8.376 0 0 0 10.76 2.1c-.496-.078-1.599-.109-2.08-.06m2.96 9.028c-.154.053-.488.369-2.311 2.187-1.516 1.511-2.156 2.176-2.217 2.301a.99.99 0 0 0 .186 1.144c.279.28.656.364 1.045.234.174-.057.342-.21 1.427-1.288L11 14.423v3.361c0 3.786-.014 3.604.299 3.917a.984.984 0 0 0 1.402 0c.313-.313.299-.131.299-3.917v-3.361l1.23 1.223c1.085 1.078 1.253 1.231 1.427 1.288.389.13.766.046 1.045-.234a.99.99 0 0 0 .186-1.144c-.061-.125-.701-.79-2.217-2.301-1.924-1.919-2.15-2.131-2.328-2.19a1.053 1.053 0 0 0-.703.003" fill="#667085" fill-rule="evenodd"/></svg>