<svg width="24" height="24" fill="none" xmlns="http://www.w3.org/2000/svg"><path d="M11.36 1.364C8.22 1.533 5.277 3.08 3.324 5.59 1.298 8.193.557 11.48 1.265 14.72c.344 1.574 1.145 3.237 2.177 4.519.802.996 2.157 2.153 3.076 2.627.725.374 1.552-.176 1.469-.977-.039-.382-.169-.535-.818-.969-1.557-1.039-2.518-2.131-3.293-3.74-.605-1.258-.85-2.361-.852-3.84-.002-1.227.183-2.244.596-3.286 1.233-3.112 3.992-5.243 7.32-5.655.463-.058 1.657-.058 2.12 0 2.977.368 5.539 2.133 6.913 4.761.685 1.311 1.003 2.628 1.004 4.16.001 1.558-.283 2.756-.976 4.114-.897 1.76-2.201 3.029-4.173 4.062-.332.174-.369.184-.671.184-.694 0-1.599-.497-1.894-1.042-.246-.453-.237-.273-.252-4.778l-.015-4.12 1.252 1.243C15.59 13.315 15.596 13.32 16 13.32c.376 0 .717-.205.89-.534.116-.222.123-.657.014-.886-.111-.232-4.222-4.341-4.464-4.462a.902.902 0 0 0-.44-.09.902.902 0 0 0-.44.09c-.242.121-4.353 4.23-4.464 4.462-.109.229-.102.664.014.886.173.329.514.534.89.534.404 0 .41-.005 1.75-1.336L11 10.743v3.978c.001 3.972.014 4.424.144 4.939.303 1.201.978 1.98 2.276 2.623.571.283.921.366 1.56.37.411.003.594-.015.871-.084 1.478-.37 3.444-1.761 4.707-3.33a11.461 11.461 0 0 0 1.995-3.801c.514-1.695.582-3.754.183-5.498a11.017 11.017 0 0 0-5.099-7.038c-1.915-1.145-4.016-1.659-6.277-1.538" fill="#667085" fill-rule="evenodd"/></svg>