<svg width="24" height="24" fill="none" xmlns="http://www.w3.org/2000/svg"><path d="M11.64 2.068c-.155.053-.544.425-2.793 2.667C7.41 6.168 6.189 7.416 6.135 7.508c-.221.37-.151.878.163 1.192.279.279.655.364 1.045.235.177-.059.376-.244 1.927-1.789L11 5.422v4.862c0 5.465-.02 5.098.299 5.417a.984.984 0 0 0 1.402 0c.319-.319.299.048.299-5.417V5.422l1.73 1.724c1.551 1.545 1.75 1.73 1.927 1.789.39.129.766.044 1.045-.235a.986.986 0 0 0 .185-1.144c-.061-.126-.829-.919-2.716-2.801-2.39-2.384-2.649-2.631-2.828-2.69a1.053 1.053 0 0 0-.703.003M2.664 14.063a1.005 1.005 0 0 0-.533.448l-.111.189v1.86c.001 1.627.01 1.904.072 2.213.108.53.283.971.553 1.389a3.926 3.926 0 0 0 2.609 1.749c.338.064.862.069 6.746.069s6.408-.005 6.746-.069a3.93 3.93 0 0 0 3.159-3.124c.052-.26.068-.693.083-2.116.017-1.617.012-1.809-.05-1.997a1.005 1.005 0 0 0-1.021-.665c-.395.038-.776.344-.875.702-.024.087-.042.634-.042 1.309 0 1.32-.052 2.296-.139 2.631-.142.544-.638 1.05-1.181 1.206-.442.126-1.17.142-6.68.142s-6.238-.016-6.68-.142c-.543-.156-1.039-.662-1.181-1.206C4.052 18.315 4 17.339 4 16.017c0-1.334-.018-1.437-.299-1.718a.996.996 0 0 0-1.037-.236" fill="#667085" fill-rule="evenodd"/></svg>