<svg width="24" height="24" fill="none" xmlns="http://www.w3.org/2000/svg"><path d="M2.643 2.069C2.291 2.193 2 2.614 2 3c0 .242.119.521.299.701C2.625 4.027 1.736 4 12 4c10.264 0 9.375.027 9.701-.299a.984.984 0 0 0 0-1.402c-.326-.327.567-.299-9.718-.296-8.192.003-9.182.01-9.34.066m8.997 3.999c-.156.053-.603.483-3.311 3.187-2.258 2.253-3.155 3.174-3.216 3.301a.986.986 0 0 0 .185 1.144c.279.279.655.364 1.045.235.178-.059.41-.278 2.427-2.289L11 9.422v5.862c0 6.585-.023 6.095.299 6.417a.984.984 0 0 0 1.402 0c.322-.322.299.168.299-6.417V9.422l2.23 2.224c2.017 2.011 2.249 2.23 2.427 2.289.39.129.766.044 1.045-.235a.986.986 0 0 0 .185-1.144c-.061-.127-.958-1.047-3.216-3.301-2.855-2.85-3.148-3.131-3.328-3.19a1.053 1.053 0 0 0-.703.003" fill="#667085" fill-rule="evenodd"/></svg>