<svg width="24" height="24" fill="none" xmlns="http://www.w3.org/2000/svg"><path d="M6.576 1.059c-.547.12-1.123.555-1.348 1.021C4.999 2.557 5 2.536 5 5.524c0 3.018.019 2.796-.236 2.796-.155 0-.56.258-.85.54a2.934 2.934 0 0 0-.876 1.76c-.028.215-.038 1.725-.028 4.6.014 4.158.017 4.29.097 4.64.119.515.285.914.552 1.323a3.932 3.932 0 0 0 2.595 1.728c.336.063.81.069 5.746.069s5.41-.006 5.746-.069a3.936 3.936 0 0 0 3.161-3.124c.059-.29.069-.813.082-4.587.01-2.892.001-4.365-.028-4.586a2.994 2.994 0 0 0-.42-1.194c-.31-.498-1.024-1.099-1.308-1.1-.251-.001-.233.219-.233-2.796 0-2.336-.009-2.783-.061-2.986a2 2 0 0 0-1.534-1.48c-.38-.081-10.458-.079-10.829.001M16.961 3.08c.023.036.038 1.032.038 2.5L17 8.02H7V3.077l.09-.036c.053-.021 2.105-.033 4.961-.029 4.281.007 4.877.015 4.91.068m-7.288.981a1.05 1.05 0 0 0-.611.612c-.057.172-.066.328-.055.92l.013.714.121.196a.998.998 0 0 0 1.718 0l.121-.196.013-.714c.011-.59.002-.748-.055-.918-.165-.498-.746-.78-1.265-.614m4 0a1.05 1.05 0 0 0-.611.612c-.057.172-.066.328-.055.92l.013.714.121.196a.998.998 0 0 0 1.718 0l.121-.196.013-.714c.011-.59.002-.748-.055-.918-.165-.498-.746-.78-1.265-.614m4.274 5.977c.511.043.684.123.872.408.09.135.111.227.143.607.049.6.048 6.965-.002 7.748-.058.915-.152 1.193-.535 1.591-.367.382-.691.507-1.466.567-.654.051-9.264.051-9.918 0-.775-.06-1.099-.185-1.466-.567-.383-.398-.477-.676-.535-1.591-.05-.78-.05-7.238-.001-7.789.043-.469.131-.649.41-.833.133-.088.229-.113.527-.138.534-.044 11.443-.046 11.971-.003" fill="#667085" fill-rule="evenodd"/></svg>