<svg width="24" height="24" fill="none" xmlns="http://www.w3.org/2000/svg"><path d="M18.64 2.068c-.152.053-.431.312-1.811 1.687-1.711 1.704-1.784 1.791-1.82 2.167C14.956 6.477 15.437 7 16 7c.364 0 .496-.088 1.27-.854l.73-.721v1.86c0 2.11.001 2.118.299 2.416a.984.984 0 0 0 1.402 0c.298-.298.299-.306.299-2.416v-1.86l.73.721c.774.766.906.854 1.27.854.746 0 1.243-.856.866-1.492-.055-.092-.826-.89-1.713-1.773-1.441-1.433-1.634-1.611-1.81-1.67a1.053 1.053 0 0 0-.703.003m-10.232.975c-1.649.214-3.123 1.421-3.66 2.997a4.056 4.056 0 0 0-.236 1.46c.001 1.227.453 2.309 1.328 3.18 2.088 2.079 5.528 1.63 7.043-.92.874-1.471.816-3.294-.151-4.755-.929-1.405-2.639-2.181-4.324-1.962m1.39 2.091c.818.284 1.432.949 1.622 1.756.075.32.075.899 0 1.22a2.497 2.497 0 0 1-4.344.982c-.197-.236-.454-.759-.512-1.044A3.411 3.411 0 0 1 6.58 6.89c.216-.915 1.026-1.682 1.954-1.849.344-.062.946-.018 1.264.093M4.64 14.047c-.857.081-1.479.324-2.151.842-.484.373-.997 1.078-1.208 1.661-.231.639-.249.821-.269 2.779-.022 2.044-.019 2.066.286 2.371a.984.984 0 0 0 1.403.001c.281-.281.299-.384.299-1.718 0-1.322.052-2.298.139-2.634.145-.554.659-1.068 1.21-1.209.43-.111 1.38-.139 4.651-.139 3.286 0 4.22.028 4.658.141.55.14 1.061.654 1.203 1.209.089.348.138 1.259.138 2.592.001 1.379.018 1.476.3 1.758a.984.984 0 0 0 1.403-.001c.306-.306.308-.325.287-2.392-.016-1.63-.026-1.843-.099-2.168-.253-1.122-.874-1.989-1.836-2.563-.545-.326-1.02-.469-1.777-.536-.567-.05-8.099-.045-8.637.006" fill="#667085" fill-rule="evenodd"/></svg>