<svg width="24" height="24" fill="none" xmlns="http://www.w3.org/2000/svg"><path d="M9.1 2.043C7.23 2.301 5.615 3.631 5.024 5.4A4.756 4.756 0 0 0 4.76 7c0 2.371 1.651 4.392 4.006 4.903.457.099 1.258.117 1.734.039 1.98-.325 3.566-1.75 4.079-3.665.733-2.738-.981-5.532-3.779-6.16-.404-.091-1.297-.13-1.7-.074m6.455.265a1.257 1.257 0 0 0-.319.144.931.931 0 0 0-.468.73c-.042.505.174.82.76 1.109.803.397 1.329 1.012 1.598 1.87.079.252.094.384.094.839 0 .454-.015.588-.094.84-.269.862-.814 1.492-1.639 1.892-.373.182-.604.406-.68.66-.167.558.126 1.115.669 1.274.268.078.422.059.811-.103.485-.202 1.005-.568 1.477-1.039.724-.724 1.11-1.41 1.364-2.424.077-.309.09-.465.09-1.1s-.013-.791-.09-1.1c-.243-.971-.628-1.674-1.295-2.363a4.786 4.786 0 0 0-1.333-.99c-.494-.247-.644-.285-.945-.239m-5.229 1.754c.228.043.466.126.752.265.368.178.463.247.782.568.415.417.647.812.784 1.334.113.427.113 1.112.002 1.536a2.977 2.977 0 0 1-3.045 2.223c-1.308-.079-2.333-.887-2.727-2.148-.079-.252-.094-.386-.094-.84 0-.454.015-.588.094-.84.474-1.518 1.901-2.386 3.452-2.098m-4.393 9.981c-1.338.103-2.32.541-3.214 1.436-.798.798-1.247 1.713-1.405 2.861-.03.22-.05.859-.052 1.64-.002 1.252 0 1.284.088 1.448.411.769 1.466.752 1.804-.028.068-.158.081-.314.103-1.28.041-1.715.102-2.106.412-2.64.083-.143.304-.414.491-.601.28-.281.407-.375.72-.531.626-.313.65-.315 4.42-.343 3.22-.025 3.241-.026 3.4-.111a1.01 1.01 0 0 0 .539-.897c.002-.42-.315-.845-.71-.955-.176-.049-5.96-.048-6.596.001m10.492 1.013a1.034 1.034 0 0 0-.665.941c.001.399.092.524 1.136 1.563l.944.939-.958.961c-1.045 1.047-1.12 1.15-1.12 1.54 0 .69.658 1.158 1.323.939.195-.064.307-.162 1.196-1.044l.982-.973.938.942c.517.518 1.009.978 1.094 1.022.085.045.25.091.366.103.778.08 1.343-.769.966-1.452-.072-.131-.436-.526-1.029-1.119l-.917-.917.935-.94c.585-.589.97-1.008 1.028-1.121a.995.995 0 0 0-.025-.917c-.263-.479-.895-.66-1.353-.387-.091.054-.58.514-1.085 1.021l-.92.922-.94-.935c-.6-.596-1.005-.967-1.118-1.024-.223-.112-.572-.141-.778-.064" fill="#667085" fill-rule="evenodd"/></svg>