<svg width="24" height="24" fill="none" xmlns="http://www.w3.org/2000/svg"><path d="M9.46 2.04a5.425 5.425 0 0 0-3.203 1.579c-2.227 2.219-2.181 5.701.104 7.875.745.71 1.652 1.18 2.719 1.41.478.103 1.601.104 2.08 0 1.127-.242 2.015-.722 2.823-1.524 1.379-1.368 1.929-3.288 1.479-5.162a5.383 5.383 0 0 0-1.331-2.46 5.514 5.514 0 0 0-2.908-1.641c-.42-.09-1.343-.13-1.763-.077m1.167 2.003c1.356.184 2.501 1.201 2.879 2.557.103.368.103 1.428.001 1.8-.102.371-.431 1.018-.667 1.31-.433.537-1.132.988-1.82 1.176-.469.129-1.348.129-1.8.002-.963-.273-1.754-.908-2.196-1.764-.298-.577-.364-.872-.364-1.624 0-.546.013-.686.09-.951.494-1.704 2.108-2.747 3.877-2.506m8.913 5.261c-.154.032-.451.14-.66.241l-.38.184-3.543 3.538c-2.321 2.317-3.587 3.61-3.67 3.747-.094.155-.259.672-.646 2.026-.287.999-.521 1.882-.521 1.961 0 .526.473.999.999.999.213 0 3.737-1.019 3.957-1.144.277-.158 7.123-7 7.341-7.336.214-.33.327-.6.403-.96a2.735 2.735 0 0 0-1.476-3.02 2.735 2.735 0 0 0-1.804-.236m.99 2.055a.8.8 0 0 1 .31.906c-.04.126-.68.787-3.387 3.498l-3.338 3.343-.741.21c-.407.116-.75.201-.761.191-.01-.011.075-.353.191-.761l.21-.741 3.323-3.321c2.074-2.072 3.376-3.344 3.463-3.383.202-.09.555-.062.73.058M5.52 14.548c-1.086.116-2.156.641-2.958 1.451a4.999 4.999 0 0 0-1.345 2.528c-.086.427-.131 2.48-.06 2.741.194.719 1.133.964 1.664.433.262-.262.288-.397.315-1.601.025-1.145.066-1.429.264-1.852a2.997 2.997 0 0 1 1.92-1.637c.181-.052.561-.068 2.12-.088 2.101-.027 2.068-.023 2.355-.295a.987.987 0 0 0-.016-1.463c-.285-.251-.236-.246-2.268-.239a80.266 80.266 0 0 0-1.991.022" fill="#667085" fill-rule="evenodd"/></svg>