<svg width="24" height="24" fill="none" xmlns="http://www.w3.org/2000/svg"><path d="M9.34 2.04c-2.278.287-4.184 2-4.694 4.22-.573 2.492.635 5.023 2.948 6.178.386.193.88.361 1.366.466.479.104 1.601.104 2.08 0 2.168-.468 3.834-2.076 4.314-4.164.691-3.002-1.218-5.976-4.251-6.623-.42-.09-1.343-.13-1.763-.077m1.544 2.075a3.504 3.504 0 0 1 2.486 2.434c.077.265.09.405.09.951 0 .752-.066 1.047-.364 1.624-.442.856-1.233 1.491-2.196 1.764-.46.13-1.34.13-1.792.001-1.05-.301-1.824-.949-2.265-1.895-.225-.482-.286-.744-.311-1.337-.026-.622.04-1.028.247-1.51.213-.495.377-.739.743-1.105.534-.535 1.219-.892 1.918-.998.371-.057 1.084-.021 1.444.071M5.4 14.548c-1.85.198-3.486 1.51-4.114 3.299-.217.618-.254.907-.276 2.138-.023 1.307-.003 1.424.288 1.715a.983.983 0 0 0 1.404 0c.261-.261.287-.397.314-1.6.025-1.145.066-1.429.264-1.852a3.047 3.047 0 0 1 1.966-1.654c.125-.034 1.128-.054 3.574-.071 3.777-.026 3.553-.008 3.855-.295a.987.987 0 0 0-.016-1.463c-.294-.258-.092-.246-3.768-.239-1.843.004-3.414.014-3.491.022m16.24.52c-.153.053-.442.323-1.909 1.785l-1.73 1.724-.73-.723c-.619-.611-.761-.732-.928-.788-.388-.13-.765-.046-1.044.233-.279.278-.363.655-.233 1.044.057.173.203.336 1.189 1.328.771.775 1.179 1.158 1.3 1.216.246.119.51.137.771.053.201-.065.342-.198 2.345-2.195 1.516-1.511 2.156-2.176 2.217-2.301.396-.818-.38-1.674-1.248-1.376" fill="#667085" fill-rule="evenodd"/></svg>