<svg width="24" height="24" fill="none" xmlns="http://www.w3.org/2000/svg"><path d="M8.86 2.045C6.391 2.357 4.511 4.499 4.511 7c0 1.702.839 3.244 2.279 4.189 2.056 1.348 4.774.98 6.435-.87 1.566-1.745 1.695-4.395.306-6.26-1.106-1.484-2.863-2.242-4.671-2.014m6.373.289c-.494.137-.819.653-.712 1.13.083.369.28.607.639.769.897.405 1.533 1.158 1.764 2.087.031.122.055.425.055.68 0 .663-.132 1.113-.48 1.64a2.872 2.872 0 0 1-1.236 1.078c-.382.183-.561.342-.676.602-.241.544.065 1.176.652 1.347.284.083.521.038.967-.185a5.016 5.016 0 0 0 2.446-2.671c.259-.659.325-1.023.325-1.811 0-.597-.014-.756-.094-1.08-.377-1.54-1.332-2.743-2.703-3.404-.447-.215-.671-.258-.947-.182M10.32 4.121a3.048 3.048 0 0 1 2.032 1.948c.095.282.104.369.104.931s-.009.649-.104.931c-.236.704-.797 1.379-1.412 1.696-.54.279-.838.352-1.44.352-.432 0-.571-.016-.82-.093-.976-.304-1.696-.995-2.027-1.946-.103-.297-.111-.364-.11-.94.001-.561.011-.65.105-.931.3-.896 1.051-1.644 1.918-1.912.147-.046.354-.098.46-.118.3-.054.956-.013 1.294.082m-4.48 9.905c-.806.051-1.386.186-1.944.451-1.393.662-2.361 1.822-2.712 3.25-.138.565-.184 1.148-.184 2.376 0 1.202.022 1.321.299 1.598a.984.984 0 0 0 1.402 0c.256-.256.299-.432.3-1.238 0-.911.064-1.967.138-2.285.216-.93 1.109-1.823 2.039-2.039.447-.104 1.519-.138 4.322-.138 3.736 0 4.259.036 4.854.336.736.37 1.336 1.102 1.506 1.836.075.322.139 1.374.139 2.29.001.806.044.982.3 1.238a.984.984 0 0 0 1.402 0c.277-.277.299-.396.299-1.598 0-1.77-.104-2.449-.501-3.28-.337-.706-1.033-1.514-1.675-1.943-.395-.264-1.042-.573-1.384-.662-.721-.187-.735-.188-4.66-.197a290.089 290.089 0 0 0-3.94.005m12.875.149c-.694.248-.932.996-.497 1.566.147.192.245.25.684.401 1.001.344 1.711 1.083 2.001 2.084.056.191.073.489.093 1.634.023 1.362.027 1.405.118 1.59.296.602 1.108.73 1.588.25.297-.297.307-.368.288-2.011-.017-1.388-.02-1.441-.124-1.841-.396-1.538-1.345-2.697-2.762-3.371-.424-.202-.919-.358-1.123-.355a1.026 1.026 0 0 0-.266.053" fill="#667085" fill-rule="evenodd"/></svg>