<svg width="24" height="24" fill="none" xmlns="http://www.w3.org/2000/svg"><path d="M8.277 2.558a4.586 4.586 0 0 0-2.359 1.188C4.994 4.629 4.509 5.749 4.509 7c0 1.176.426 2.232 1.245 3.09.875.915 2 1.401 3.246 1.401 1.249 0 2.369-.484 3.246-1.401A4.374 4.374 0 0 0 13.493 7c0-1.175-.426-2.23-1.247-3.09a4.475 4.475 0 0 0-2.166-1.277c-.334-.089-1.469-.136-1.803-.075M9.622 4.58a2.54 2.54 0 0 1 1.798 1.798c.077.306.077.938 0 1.244a2.534 2.534 0 0 1-1.8 1.8c-.311.081-.929.082-1.24 0-.63-.165-1.25-.638-1.554-1.186-.406-.733-.406-1.741.001-2.472.181-.326.594-.744.913-.925.523-.298 1.304-.405 1.882-.259m5.995.997c-.346.15-.616.556-.616.923 0 .386.303.818.664.945.229.081 6.441.081 6.67 0 .361-.127.664-.559.664-.945 0-.372-.274-.779-.625-.925-.192-.08-6.573-.079-6.757.002M4.464 13.565a3.562 3.562 0 0 0-1.169.332c-.469.222-.676.366-1.067.739a3.825 3.825 0 0 0-1.111 1.985c-.081.37-.089.53-.106 2.213-.021 2.046-.024 2.024.278 2.352a.972.972 0 0 0 1.422 0c.277-.302.282-.334.305-2.126.021-1.671.056-2.12.188-2.417.218-.495.719-.913 1.236-1.033.276-.064.647-.07 4.56-.07 3.859 0 4.287.006 4.549.068a1.8 1.8 0 0 1 1.372 1.512c.024.165.053 1.029.064 1.92.022 1.815.026 1.844.304 2.146.476.515 1.312.367 1.617-.286.093-.199.093-.208.094-1.792 0-2.142-.06-2.627-.419-3.368a3.97 3.97 0 0 0-2.635-2.112c-.359-.083-.448-.084-4.786-.092-2.451-.004-4.543.009-4.696.029" fill="#667085" fill-rule="evenodd"/></svg>