<svg width="24" height="24" fill="none" xmlns="http://www.w3.org/2000/svg"><path d="M11.34 2.04c-2.278.287-4.184 2-4.694 4.22-.573 2.492.635 5.023 2.948 6.178.386.193.88.361 1.366.466.479.104 1.601.104 2.08 0 2.168-.468 3.834-2.076 4.314-4.164.691-3.002-1.218-5.976-4.251-6.623-.42-.09-1.343-.13-1.763-.077m1.167 2.003a3.42 3.42 0 0 1 1.971.999c.366.366.53.61.743 1.105.207.482.273.888.247 1.51-.026.62-.087.868-.346 1.403a3.329 3.329 0 0 1-1.542 1.558c-.58.288-.896.36-1.58.36s-1-.072-1.58-.36a3.506 3.506 0 0 1-1.788-2.161c-.079-.272-.092-.408-.092-.957 0-.549.013-.685.092-.957.49-1.693 2.113-2.74 3.875-2.5M7.4 14.547c-1.864.209-3.486 1.51-4.114 3.3-.217.618-.254.907-.276 2.138-.023 1.307-.003 1.424.288 1.715a.983.983 0 0 0 1.404 0c.261-.261.287-.397.314-1.6.025-1.145.066-1.429.264-1.852.432-.923 1.286-1.566 2.24-1.686.463-.058 8.497-.058 8.96 0 .954.12 1.808.763 2.24 1.686.198.423.239.707.264 1.852.027 1.203.053 1.339.314 1.6a.983.983 0 0 0 1.404 0c.291-.291.311-.408.288-1.715-.022-1.231-.059-1.52-.276-2.138-.566-1.612-1.888-2.796-3.594-3.219-.335-.082-.409-.084-4.96-.09-2.541-.004-4.683 0-4.76.009" fill="#667085" fill-rule="evenodd"/></svg>