<svg width="24" height="24" fill="none" xmlns="http://www.w3.org/2000/svg"><path d="M8.86 2.045C6.391 2.357 4.511 4.499 4.511 7c0 1.702.839 3.244 2.279 4.189 2.056 1.348 4.774.98 6.435-.87 1.566-1.745 1.695-4.395.306-6.26-1.106-1.484-2.863-2.242-4.671-2.014m6.373.289c-.494.137-.819.653-.712 1.13.083.369.28.607.639.769.897.405 1.533 1.158 1.764 2.087.031.122.055.425.055.68 0 .663-.132 1.113-.48 1.64a2.872 2.872 0 0 1-1.236 1.078c-.382.183-.561.342-.676.602-.241.544.065 1.176.652 1.347.284.083.521.038.967-.185a5.016 5.016 0 0 0 2.446-2.671c.259-.659.325-1.023.325-1.811 0-.597-.014-.756-.094-1.08-.377-1.54-1.332-2.743-2.703-3.404-.447-.215-.671-.258-.947-.182M10.32 4.121a3.048 3.048 0 0 1 2.032 1.948c.095.282.104.369.104.931s-.009.649-.104.931c-.236.704-.797 1.379-1.412 1.696-.54.279-.838.352-1.44.352-.432 0-.571-.016-.82-.093-.976-.304-1.696-.995-2.027-1.946-.103-.297-.111-.365-.111-.94s.008-.643.111-.94c.16-.46.396-.836.744-1.184a2.999 2.999 0 0 1 1.629-.837c.3-.054.956-.013 1.294.082m-4.48 9.906c-.785.045-1.384.184-1.944.45-1.393.662-2.361 1.822-2.712 3.25-.138.565-.184 1.148-.184 2.376 0 1.202.022 1.321.299 1.598a.984.984 0 0 0 1.402 0c.256-.256.299-.432.3-1.238 0-.911.064-1.967.138-2.285.216-.93 1.109-1.823 2.039-2.039.445-.103 1.516-.138 4.285-.138 3.027-.001 2.93.008 3.238-.3.18-.18.299-.459.299-.701 0-.242-.119-.521-.299-.701-.312-.312-.167-.3-3.598-.292-1.674.004-3.142.013-3.263.02m12.8.041c-.152.053-.431.312-1.811 1.687-1.145 1.14-1.657 1.677-1.717 1.801-.118.245-.136.51-.052.77.065.199.181.326 1.695 1.845 1.704 1.711 1.791 1.784 2.167 1.82.555.053 1.078-.428 1.078-.991 0-.364-.088-.496-.854-1.27l-.721-.73h1.86c2.11 0 2.118-.001 2.416-.299a.984.984 0 0 0 0-1.402c-.298-.298-.306-.299-2.416-.299h-1.86l.721-.73c.766-.774.854-.906.854-1.27 0-.686-.694-1.161-1.36-.932" fill="#667085" fill-rule="evenodd"/></svg>