<svg width="24" height="24" fill="none" xmlns="http://www.w3.org/2000/svg"><path d="M8.96 2.025c-1.19.151-2.238.611-3.061 1.344-.938.835-1.517 1.83-1.789 3.07-.11.504-.118 1.578-.015 2.061.24 1.118.711 2.019 1.463 2.794.799.825 1.665 1.317 2.772 1.576.392.091.541.105 1.15.107.791.003 1.142-.052 1.817-.286a5.302 5.302 0 0 0 2.083-1.31C14.438 10.321 15 8.974 15 7.5a5.503 5.503 0 0 0-4.48-5.401c-.335-.063-1.287-.109-1.56-.074m6.617.548c-.496.236-.71.855-.461 1.337.102.199.284.361.629.562a3.313 3.313 0 0 1 1.378 1.468c.281.567.362.918.362 1.56 0 .643-.082.994-.362 1.56a3.329 3.329 0 0 1-1.366 1.462c-.632.353-.855.761-.703 1.282.129.442.501.715.973.716.206 0 .291-.023.52-.144 1.487-.786 2.5-2.142 2.859-3.828.123-.577.123-1.519 0-2.096-.312-1.469-1.113-2.681-2.306-3.49-.712-.483-1.111-.585-1.523-.389M10.02 4.041c1.362.194 2.479 1.183 2.867 2.539.133.464.133 1.376 0 1.84-.463 1.616-1.923 2.664-3.579 2.568a3.495 3.495 0 0 1-2.992-2.051c-.388-.856-.389-2.016-.003-2.869a3.5 3.5 0 0 1 3.707-2.027M8.64 14.047c-1.687.159-3.392.88-4.84 2.048-.964.777-2.213 2.307-2.562 3.138a2.088 2.088 0 0 0-.054 1.497c.139.423.651.933 1.109 1.104.449.168.561.17 7.427.158 6.292-.012 6.59-.015 6.8-.087.853-.288 1.358-.898 1.425-1.719.045-.549-.111-.977-.638-1.76-1.065-1.578-2.355-2.73-3.927-3.507a8.79 8.79 0 0 0-4.74-.872m9.025.849c-.464.173-.753.708-.63 1.165.1.372.222.486 1.005.944 1.014.593 2.056 1.635 2.734 2.735l.148.24-.351.023c-.413.028-.615.115-.82.355-.41.479-.259 1.237.303 1.532.134.069.253.09.61.102.245.009.542-.004.662-.029.901-.187 1.6-1.046 1.6-1.965 0-.518-.138-.86-.662-1.634a9.292 9.292 0 0 0-1.222-1.498 9.732 9.732 0 0 0-2.38-1.811c-.398-.211-.718-.262-.997-.159m-7.317 1.166c.948.124 1.702.379 2.578.871.731.411 1.615 1.168 2.18 1.867.237.293.814 1.127.814 1.175 0 .014-2.88.025-6.4.025-4.642 0-6.4-.012-6.4-.044 0-.067.577-.895.861-1.236 1.14-1.369 2.713-2.319 4.299-2.597.782-.137 1.36-.154 2.068-.061" fill="#667085" fill-rule="evenodd"/></svg>