<svg width="24" height="24" fill="none" xmlns="http://www.w3.org/2000/svg"><path d="M9.72 2.025c-.937.119-1.742.404-2.451.866-1.211.789-2.014 1.931-2.381 3.387-.097.387-.106.488-.106 1.222s.009.835.106 1.222c.126.5.247.831.451 1.237a5.5 5.5 0 0 0 5.141 3.028c1.385-.06 2.579-.578 3.586-1.557a5.482 5.482 0 0 0 1.598-2.97c.101-.54.101-1.38 0-1.92-.413-2.211-2.137-3.978-4.314-4.422-.396-.081-1.315-.133-1.63-.093m1.132 2.035c1.119.195 2.056.9 2.55 1.92.431.89.448 2.062.042 2.957-1.008 2.224-3.938 2.762-5.661 1.04-1.677-1.678-1.229-4.536.877-5.592a3.458 3.458 0 0 1 2.192-.325M5.42 14.583c-1.817.279-3.361 1.621-3.932 3.417-.189.592-.225.939-.226 2.16-.002 1.064.001 1.105.088 1.268.343.642 1.178.764 1.639.239.217-.248.24-.383.283-1.647.037-1.11.043-1.174.15-1.495a3.028 3.028 0 0 1 1.454-1.681c.605-.314.38-.297 4.184-.322 3.34-.022 3.403-.023 3.58-.106.381-.176.598-.508.598-.916 0-.4-.218-.742-.577-.905-.152-.069-.349-.073-3.521-.07-2.646.002-3.437.014-3.72.058m11.005.473a1.034 1.034 0 0 0-.665.941c.001.399.092.524 1.136 1.563l.944.939-.958.961c-1.045 1.047-1.12 1.15-1.12 1.54 0 .69.658 1.158 1.323.939.195-.064.307-.162 1.196-1.044l.982-.973.938.942c.517.518 1.009.978 1.094 1.022.085.045.25.091.366.103.778.08 1.343-.769.966-1.452-.072-.131-.436-.526-1.029-1.119l-.917-.917.935-.94c.585-.589.97-1.008 1.028-1.121a.995.995 0 0 0-.025-.917c-.263-.479-.895-.66-1.353-.387-.091.054-.58.514-1.085 1.021l-.92.922-.94-.935c-.6-.596-1.005-.967-1.118-1.024-.223-.112-.572-.141-.778-.064" fill="#667085" fill-rule="evenodd"/></svg>