<svg width="24" height="24" fill="none" xmlns="http://www.w3.org/2000/svg"><path d="M8.34 2.601c-.91.191-1.624.588-2.3 1.278-.576.588-.935 1.222-1.168 2.067-.074.27-.086.419-.086 1.054 0 .818.038 1.033.306 1.7.722 1.797 2.66 2.974 4.576 2.779a4.542 4.542 0 0 0 3.91-3.255c.661-2.28-.628-4.71-2.911-5.489-.66-.225-1.628-.281-2.327-.134m7.997-.005a1.104 1.104 0 0 0-.521.549c-.082.214-.061.612.044.817.039.076.494.565 1.013 1.088l.943.949-.962.971c-1.084 1.093-1.121 1.149-1.085 1.602.011.138.049.307.085.376.162.314.531.542.885.545.4.004.445-.029 1.511-1.086l.99-.983.95.943c.522.518 1.007.972 1.076 1.007.623.317 1.318-.015 1.461-.697.038-.182.034-.256-.024-.457-.067-.233-.098-.269-1.055-1.23l-.985-.989.984-.991c.919-.924.989-1.004 1.049-1.207.079-.27.08-.336.002-.598-.125-.419-.494-.686-.948-.684-.42.001-.506.063-1.559 1.109l-.952.947-.969-.965c-.659-.655-1.02-.985-1.125-1.028-.211-.087-.604-.081-.808.012M9.808 4.564c.847.174 1.633.936 1.857 1.801.086.333.086.937 0 1.27-.174.674-.688 1.302-1.305 1.595-.43.205-.678.261-1.135.258a2.446 2.446 0 0 1-2.386-1.872c-.341-1.332.475-2.715 1.79-3.033.282-.069.892-.079 1.179-.019M4.88 13.545l-.393.059c-.782.115-1.469.485-2.107 1.134-.567.577-.882 1.188-1.042 2.022-.099.516-.134 3.696-.044 4.006a.992.992 0 0 0 1.662.431c.265-.264.282-.348.285-1.397.002-1.154.06-2.546.117-2.836.023-.118.083-.298.132-.398.131-.265.511-.654.779-.797.432-.23.403-.229 5.011-.229 4.647 0 4.567-.004 4.994.246.24.141.558.462.701.708.198.339.228.64.258 2.526.027 1.691.029 1.723.12 1.908a.99.99 0 0 0 1.618.253c.28-.288.277-.266.258-2.365-.015-1.497-.031-1.933-.08-2.156a3.974 3.974 0 0 0-1.686-2.479 3.662 3.662 0 0 0-1.28-.554c-.356-.082-.454-.084-4.783-.091-2.431-.003-4.465 0-4.52.009" fill="#667085" fill-rule="evenodd"/></svg>