<svg width="24" height="24" fill="none" xmlns="http://www.w3.org/2000/svg"><path d="M18.64 2.068c-.152.053-.431.312-1.811 1.687-1.145 1.14-1.657 1.677-1.717 1.801-.118.245-.136.51-.052.77.065.199.181.326 1.695 1.845 1.704 1.711 1.791 1.784 2.167 1.82C19.477 10.044 20 9.563 20 9c0-.364-.088-.496-.854-1.27L18.425 7h1.86c2.111 0 2.118-.001 2.417-.3a.989.989 0 0 0-.38-1.639C22.178 5.01 21.851 5 20.287 5h-1.862l.721-.73C19.912 3.496 20 3.364 20 3c0-.686-.694-1.161-1.36-.932m-10.08.957c-.687.099-1.075.212-1.56.456-1.651.832-2.65 2.609-2.479 4.409.246 2.598 2.633 4.464 5.18 4.051 1.736-.281 3.188-1.585 3.638-3.264a4.369 4.369 0 0 0 0-2.352c-.52-1.944-2.371-3.347-4.379-3.318-.165.002-.345.01-.4.018m1.229 2.109a2.422 2.422 0 0 1 1.434 1.236c.18.353.256.687.256 1.13 0 .443-.076.777-.256 1.13a2.49 2.49 0 0 1-3.316 1.114A2.385 2.385 0 0 1 6.761 8.58c-.185-.385-.241-.635-.241-1.08 0-.445.056-.695.241-1.08A2.448 2.448 0 0 1 8.56 5.038c.314-.059.91-.013 1.229.096M4.9 14.026c-.088.007-.322.033-.52.058-1.628.205-2.959 1.472-3.285 3.129-.052.26-.068.693-.083 2.116-.022 2.044-.019 2.066.286 2.371a.984.984 0 0 0 1.403.001c.281-.281.299-.384.299-1.718 0-1.322.052-2.298.139-2.634.144-.553.656-1.065 1.209-1.209C4.766 16.031 5.78 16 9 16s4.234.031 4.652.14c.554.144 1.067.658 1.209 1.211.089.348.138 1.259.138 2.592.001 1.379.018 1.476.3 1.758a.984.984 0 0 0 1.403-.001c.306-.306.308-.325.287-2.392-.016-1.63-.026-1.843-.099-2.168-.253-1.122-.874-1.989-1.836-2.563-.551-.329-1.01-.464-1.818-.536-.406-.036-7.901-.049-8.336-.015" fill="#667085" fill-rule="evenodd"/></svg>