<svg width="24" height="24" fill="none" xmlns="http://www.w3.org/2000/svg"><path d="M11.041 1.045c-1.47.13-2.98.585-4.26 1.283-.985.538-1.77 1.13-2.583 1.947-1.683 1.693-2.715 3.749-3.085 6.145-.106.684-.127 2.237-.04 2.86a10.822 10.822 0 0 0 2.097 5.1c.386.516.97 1.165 1.371 1.526.168.151.322.315.341.364.022.053.07.09.12.09.046 0 .231.115.411.255 1.582 1.231 3.338 2.001 5.227 2.292.642.099 2.078.099 2.72 0 1.889-.291 3.645-1.061 5.227-2.292.221-.172.363-.255.437-.255.089 0 .208-.102.617-.53.279-.292.614-.656.745-.81 2.56-3.009 3.293-7.052 1.952-10.766-.785-2.173-2.342-4.144-4.287-5.427a11.032 11.032 0 0 0-7.01-1.782m2.279 2.057a9.023 9.023 0 0 1 5.664 3.218c1.008 1.241 1.666 2.748 1.921 4.4.098.632.098 1.887.001 2.516a9.146 9.146 0 0 1-2.053 4.469l-.173.204-.35-.358c-.681-.698-1.491-1.196-2.31-1.421l-.4-.11H8.38l-.4.11c-.819.225-1.629.723-2.31 1.421l-.35.358-.173-.204C2.818 14.96 2.351 11.186 3.946 8c.91-1.819 2.235-3.143 4.056-4.055 1.025-.514 2.001-.783 3.338-.921.324-.033 1.573.016 1.98.078m-2.216 1.482c-1.803.326-3.325 1.678-3.88 3.449C6.226 11.213 8.65 14.49 12 14.49a5.008 5.008 0 0 0 4.942-4.25c.401-2.659-1.427-5.196-4.077-5.658-.441-.077-1.329-.076-1.761.002m1.827 2.067A3.036 3.036 0 0 1 14.886 8.7c.128.452.128 1.148 0 1.6a2.808 2.808 0 0 1-.766 1.3c-.386.386-.721.598-1.172.741-.826.262-1.747.169-2.468-.25-.389-.226-.903-.76-1.107-1.151-.26-.495-.35-.867-.35-1.44 0-.379.019-.547.091-.8a3.016 3.016 0 0 1 2.221-2.123c.395-.09 1.208-.052 1.596.074m2.572 11.411c.544.112 1.001.374 1.452.832l.255.258-.308.214C15.388 20.419 13.646 21 12 21c-1.646 0-3.388-.581-4.902-1.634l-.308-.214.255-.258c.44-.447.907-.718 1.426-.83.415-.089 6.602-.091 7.032-.002" fill="#667085" fill-rule="evenodd"/></svg>