<svg width="24" height="24" fill="none" xmlns="http://www.w3.org/2000/svg"><path d="M18.643 2.069C18.291 2.193 18 2.614 18 3c0 .364.088.496.854 1.27l.721.73h-1.86c-2.11 0-2.118.001-2.416.299a.984.984 0 0 0 0 1.402c.298.298.306.299 2.416.299h1.86l-.721.73c-.611.618-.732.76-.788.927-.13.388-.046.765.233 1.044.278.278.655.363 1.044.234.176-.059.369-.237 1.828-1.69 1.113-1.109 1.658-1.679 1.714-1.795.117-.241.117-.649.001-.892-.063-.131-.533-.625-1.716-1.804-1.458-1.452-1.651-1.63-1.827-1.689a1.032 1.032 0 0 0-.7.004M8.56 3.025c-.687.099-1.075.212-1.56.456-1.651.832-2.65 2.609-2.479 4.409.246 2.599 2.633 4.464 5.181 4.051 1.734-.281 3.188-1.587 3.637-3.266a4.369 4.369 0 0 0 0-2.352c-.52-1.942-2.372-3.344-4.379-3.316-.165.002-.345.01-.4.018m1.229 2.109a2.436 2.436 0 0 1 1.446 1.256c.169.335.244.677.244 1.11 0 .443-.076.777-.256 1.13a2.49 2.49 0 0 1-3.316 1.114A2.385 2.385 0 0 1 6.761 8.58c-.185-.385-.241-.635-.241-1.08 0-.445.056-.695.241-1.08A2.448 2.448 0 0 1 8.56 5.038c.314-.059.91-.013 1.229.096M4.88 14.026c-.8.075-1.198.172-1.66.404a3.926 3.926 0 0 0-2.125 2.783c-.052.26-.068.693-.083 2.116-.017 1.617-.012 1.809.05 1.997.138.417.583.707 1.021.665.395-.038.776-.344.875-.702.024-.087.042-.634.042-1.309 0-1.32.052-2.296.139-2.631.144-.553.656-1.065 1.209-1.209C4.766 16.031 5.78 16 9 16s4.234.031 4.652.14c.554.144 1.067.658 1.209 1.211.089.348.138 1.259.138 2.592.001 1.38.017 1.476.301 1.759a1 1 0 0 0 1.489-.096c.215-.283.22-.337.2-2.304-.02-1.963-.039-2.149-.283-2.792-.439-1.155-1.56-2.126-2.741-2.371-.591-.124-1.174-.139-5.045-.133-2.145.004-3.963.013-4.04.02" fill="#667085" fill-rule="evenodd"/></svg>