<svg width="24" height="24" fill="none" xmlns="http://www.w3.org/2000/svg"><path d="M11.06 2.583c-2.269.398-4.077 2.211-4.483 4.497-.088.5-.088 1.34 0 1.84a5.544 5.544 0 0 0 3.717 4.3 5.038 5.038 0 0 0 1.706.269c.638 0 1.133-.078 1.706-.269a5.54 5.54 0 0 0 3.716-4.3 6.445 6.445 0 0 0 0-1.84c-.402-2.289-2.23-4.116-4.499-4.497-.465-.078-1.417-.078-1.863 0m2.02 2.092c.594.201.922.407 1.38.865.456.456.66.781.868 1.38.129.373.131.392.131 1.08 0 .688-.002.707-.131 1.08-.208.599-.412.924-.868 1.38-.532.532-.913.75-1.65.945-.433.115-1.187.115-1.62 0-.737-.195-1.118-.413-1.65-.945-.456-.456-.66-.781-.868-1.38-.129-.373-.131-.392-.131-1.08 0-.688.002-.707.131-1.08.184-.532.416-.919.784-1.308a3.405 3.405 0 0 1 1.243-.857c.52-.201.735-.235 1.401-.221.552.012.63.023.98.141m-2.18 10.87c-2.426.245-4.551 1.04-6.53 2.443-.493.35-.837.63-1.39 1.131-.527.477-.852.846-.926 1.049-.13.358-.007.805.294 1.077a.927.927 0 0 0 .652.249c.336 0 .462-.075 1.016-.603C5.075 19.881 6 19.221 7.14 18.66c1.624-.799 3.072-1.139 4.86-1.139 1.067 0 1.923.112 2.886.376.726.199 1.202.383 1.974.763 1.14.561 2.065 1.221 3.124 2.231.554.528.68.603 1.016.603a.993.993 0 0 0 .906-.594c.215-.46.095-.813-.471-1.381-1.788-1.799-3.983-3.052-6.371-3.638-1.087-.267-1.602-.328-2.884-.341a28.95 28.95 0 0 0-1.28.005" fill="#667085" fill-rule="evenodd"/></svg>