<svg width="24" height="24" fill="none" xmlns="http://www.w3.org/2000/svg"><path d="M11.48 2.042A5.506 5.506 0 0 0 7.087 5.09a5.463 5.463 0 0 0 2.467 7.307 6.193 6.193 0 0 0 1.526.507 6.445 6.445 0 0 0 1.84 0c2.942-.521 4.934-3.275 4.497-6.218a5.5 5.5 0 0 0-2.971-4.083c-.892-.448-2.004-.659-2.966-.561m1.232 2.016c.65.137 1.204.427 1.678.876a3.53 3.53 0 0 1 1.016 1.686c.124.457.124 1.303 0 1.76a3.53 3.53 0 0 1-1.016 1.686c-.662.629-1.45.934-2.411.934-.921 0-1.715-.313-2.369-.934A3.53 3.53 0 0 1 8.594 8.38c-.124-.457-.124-1.303 0-1.76.18-.66.505-1.2 1.016-1.686a3.458 3.458 0 0 1 1.649-.873c.331-.073 1.113-.074 1.453-.003m-1.452 9.967c-2.326.194-4.354 1.015-6.126 2.481-.727.602-1.62 1.591-2.089 2.314-.359.553-.478 1.125-.348 1.676.088.375.229.619.52.898.265.255.511.397.885.512.227.071.576.074 7.898.074s7.671-.003 7.9-.074c.392-.12.684-.299.947-.579.64-.685.68-1.625.108-2.507-.28-.432-.807-1.076-1.273-1.554A10.733 10.733 0 0 0 13.42 14.1c-.47-.063-1.764-.108-2.16-.075M13.3 16.1c1.916.297 3.621 1.192 5.001 2.624.405.421.979 1.141.979 1.228 0 .037-1.684.048-7.28.048s-7.28-.011-7.28-.048c0-.087.574-.807.979-1.228 1.529-1.587 3.416-2.493 5.621-2.699.35-.033 1.585.014 1.98.075" fill="#667085" fill-rule="evenodd"/></svg>