<svg width="24" height="24" fill="none" xmlns="http://www.w3.org/2000/svg"><path d="M8.6 2.576c-2.018.357-3.697 1.795-4.318 3.698-.214.655-.261.966-.261 1.726s.047 1.071.261 1.726c.773 2.369 3.205 3.982 5.657 3.752 2.492-.233 4.432-1.968 4.965-4.438.056-.257.074-.511.074-1.04s-.018-.783-.074-1.04c-.475-2.201-2.106-3.861-4.264-4.34-.405-.09-1.629-.116-2.04-.044m7.173.42c-.626.159-.951.863-.66 1.429.107.207.242.325.643.559a3.546 3.546 0 0 1 1.664 2.297c.077.366.077 1.074 0 1.441-.214 1.016-.931 1.943-1.88 2.429a.987.987 0 0 0-.234 1.588c.179.18.459.301.691.301.301-.001.898-.317 1.468-.775 1.007-.812 1.731-2.05 1.956-3.345a6.518 6.518 0 0 0 0-1.84c-.223-1.284-.948-2.532-1.929-3.321-.759-.611-1.326-.862-1.719-.763m-5.295 1.642a3.498 3.498 0 0 1 2.49 3.762 3.445 3.445 0 0 1-1.857 2.703 3.51 3.51 0 0 1-3.222 0 3.48 3.48 0 0 1-1.873-3.351C6.14 6.118 7.28 4.86 8.92 4.545c.055-.01.361-.013.68-.006.449.009.647.032.878.099M8.3 15.583c-1.722.233-3.287.895-4.78 2.021-.94.709-2.214 2.024-2.438 2.519-.215.473.041 1.092.537 1.299.222.093.561.089.781-.01.184-.082.285-.182.88-.872 1.28-1.483 3.049-2.545 4.844-2.907.397-.081.574-.092 1.376-.092.802 0 .979.011 1.376.092 1.795.362 3.564 1.424 4.844 2.907.759.88.859.955 1.281.951.406-.004.724-.212.904-.591.26-.549.047-.956-1.117-2.134-1.804-1.825-3.841-2.885-6.122-3.184-.578-.076-1.805-.076-2.366.001m9.3.778c-.618.287-.791 1.04-.354 1.537.114.128.295.249.665.442 1.182.617 2.139 1.397 3.112 2.54.422.495.612.614.973.611.411-.004.728-.21.909-.591.187-.395.108-.737-.283-1.22-1.035-1.282-2.414-2.416-3.793-3.119-.453-.231-.536-.26-.778-.271-.21-.01-.312.006-.451.071" fill="#667085" fill-rule="evenodd"/></svg>