<svg width="24" height="24" fill="none" xmlns="http://www.w3.org/2000/svg"><path d="M8.835 1.8c-1.887.3-3.433 1.598-4.032 3.384A5.079 5.079 0 0 0 4.84 8.42c.581 1.65 2.039 2.9 3.789 3.247.481.095 1.391.093 1.849-.004 1.008-.214 1.797-.627 2.518-1.32a5.015 5.015 0 0 0 1.315-2.103c.175-.553.227-.91.223-1.54-.008-1.323-.496-2.496-1.434-3.443a5.01 5.01 0 0 0-2.46-1.383c-.389-.089-1.437-.132-1.805-.074m6.445.275a1.076 1.076 0 0 0-.66.591c-.033.079-.06.234-.06.344 0 .484.185.736.753 1.029 1.065.546 1.622 1.376 1.723 2.564.04.471.111.656.33.863a.98.98 0 0 0 1.545-.22c.103-.176.109-.212.107-.686-.005-1.799-1.146-3.532-2.852-4.331-.348-.163-.682-.221-.886-.154m-4.833 1.816a2.942 2.942 0 0 1 2.077 2.83c.003.614-.119 1.082-.405 1.565-.606 1.021-1.806 1.605-2.953 1.437C8.115 9.57 7.31 8.989 6.859 8.06a3.025 3.025 0 0 1 .106-2.831 3.048 3.048 0 0 1 1.937-1.406c.414-.093 1.144-.061 1.545.068m9.505 6.529c-.125.031-.35.115-.5.186-.255.121-.496.352-3.944 3.791-3.463 3.455-3.68 3.679-3.814 3.95-.122.244-.181.479-.408 1.606-.249 1.244-.262 1.331-.214 1.513.069.265.234.489.463.631.316.195.498.186 1.87-.093 1.23-.25 1.491-.327 1.77-.522.091-.064 1.788-1.742 3.771-3.729 3.537-3.545 3.608-3.619 3.751-3.92.348-.733.343-1.45-.015-2.176a2.417 2.417 0 0 0-1.333-1.178c-.322-.114-1.057-.145-1.397-.059m.744 1.956c.281.117.343.386.148.648-.064.086-1.616 1.653-3.45 3.482-3.331 3.324-3.334 3.326-3.543 3.37a15.23 15.23 0 0 1-.372.069c-.157.025-.162.022-.141-.07.012-.052.048-.219.079-.371l.056-.277 3.393-3.397c1.867-1.869 3.448-3.422 3.514-3.452.152-.069.156-.069.316-.002M5.76 13.786c-.846.079-1.349.206-1.912.481a4.954 4.954 0 0 0-2.717 3.673c-.049.305-.065.72-.067 1.74-.004 1.485-.009 1.457.27 1.754a.984.984 0 0 0 1.577-.188c.1-.171.11-.225.12-.666.026-1.169.094-2.382.147-2.63.194-.904 1.103-1.843 1.983-2.047.475-.11 1.313-.143 3.663-.143 2.521 0 2.547-.002 2.834-.221.307-.234.451-.688.343-1.076-.067-.24-.291-.493-.539-.608l-.202-.094-2.68.006c-1.474.003-2.743.012-2.82.019" fill="#667085" fill-rule="evenodd"/></svg>