<svg width="24" height="24" fill="none" xmlns="http://www.w3.org/2000/svg"><path d="M9.34 2.04c-2.278.287-4.184 2-4.694 4.22-.573 2.492.635 5.023 2.948 6.178.386.193.88.361 1.366.466.479.104 1.601.104 2.08 0 2.168-.468 3.834-2.076 4.314-4.164.691-3.002-1.218-5.976-4.251-6.623-.42-.09-1.343-.13-1.763-.077m1.167 2.003a3.463 3.463 0 0 1 2.591 1.837c.296.574.362.87.361 1.62-.001.753-.045.957-.337 1.56a3.329 3.329 0 0 1-1.542 1.558c-.58.288-.896.36-1.58.36s-1-.072-1.58-.36A3.329 3.329 0 0 1 6.878 9.06c-.259-.535-.32-.783-.346-1.403-.026-.622.04-1.028.247-1.51.213-.495.377-.739.743-1.105.805-.806 1.849-1.156 2.985-.999m8.136 10.026c-.352.124-.643.545-.643.931 0 .364.088.496.854 1.27l.721.73h-1.86c-2.11 0-2.118.001-2.416.299a.984.984 0 0 0 0 1.402c.298.298.306.299 2.416.299h1.86l-.721.73c-.766.774-.854.906-.854 1.27 0 .563.523 1.044 1.078.991.376-.036.463-.109 2.167-1.82 1.514-1.519 1.63-1.646 1.695-1.845.084-.26.066-.525-.052-.77-.06-.124-.572-.66-1.717-1.801-1.459-1.453-1.652-1.631-1.828-1.69a1.032 1.032 0 0 0-.7.004M5.4 14.548c-1.85.198-3.486 1.51-4.114 3.299-.217.618-.254.907-.276 2.138-.023 1.307-.003 1.424.288 1.715a.983.983 0 0 0 1.404 0c.261-.261.287-.397.314-1.6.025-1.145.066-1.429.264-1.852a3.047 3.047 0 0 1 1.966-1.654c.125-.034 1.128-.054 3.574-.071 3.777-.026 3.553-.008 3.855-.295a.987.987 0 0 0-.016-1.463c-.294-.258-.092-.246-3.768-.239-1.843.004-3.414.014-3.491.022" fill="#667085" fill-rule="evenodd"/></svg>