<svg width="24" height="24" fill="none" xmlns="http://www.w3.org/2000/svg"><path d="M9.34 2.04c-2.278.287-4.184 2-4.694 4.22-.573 2.492.635 5.023 2.948 6.178.386.193.88.361 1.366.466.479.104 1.601.104 2.08 0 2.168-.468 3.834-2.076 4.314-4.164.691-3.002-1.218-5.976-4.251-6.623-.42-.09-1.343-.13-1.763-.077m1.167 2.003a3.463 3.463 0 0 1 2.591 1.837c.296.574.362.87.361 1.62-.001.753-.045.957-.337 1.56a3.329 3.329 0 0 1-1.542 1.558c-.58.288-.896.36-1.58.36s-1-.072-1.58-.36A3.329 3.329 0 0 1 6.878 9.06c-.292-.603-.336-.807-.337-1.56-.001-.55.012-.685.091-.957.49-1.693 2.117-2.743 3.875-2.5m8.133 10.025c-.152.053-.431.312-1.811 1.687-1.145 1.14-1.657 1.677-1.717 1.801-.118.245-.136.51-.052.77.065.199.181.326 1.695 1.845 1.704 1.711 1.791 1.784 2.167 1.82.555.053 1.078-.428 1.078-.991 0-.364-.088-.496-.854-1.27l-.721-.73h1.86c2.11 0 2.118-.001 2.416-.299a.984.984 0 0 0 0-1.402c-.298-.298-.306-.299-2.416-.299h-1.86l.721-.73c.766-.774.854-.906.854-1.27 0-.686-.694-1.161-1.36-.932m-13.48.518c-1.75.269-3.274 1.551-3.874 3.261-.217.618-.254.907-.276 2.138-.023 1.307-.003 1.424.288 1.715a.983.983 0 0 0 1.404 0c.261-.261.287-.397.314-1.6.025-1.145.066-1.429.264-1.852a3.047 3.047 0 0 1 1.966-1.654c.125-.034 1.128-.054 3.574-.071 3.159-.021 3.411-.028 3.56-.095.356-.16.619-.555.619-.928 0-.372-.274-.779-.625-.925-.199-.083-6.665-.073-7.214.011" fill="#667085" fill-rule="evenodd"/></svg>