<svg width="24" height="24" fill="none" xmlns="http://www.w3.org/2000/svg"><path d="M3.84 2.035c-.373.122-.541.308-.834.925-1.018 2.145-1.672 4.577-1.933 7.18-.069.689-.069 3.031 0 3.72.262 2.614.921 5.055 1.944 7.2.199.418.284.552.435.685a.968.968 0 0 0 1.399-.105c.312-.364.304-.726-.029-1.441-.962-2.064-1.508-4.099-1.749-6.519-.065-.645-.065-2.715 0-3.36.241-2.42.787-4.455 1.749-6.519.256-.549.304-.793.218-1.1a1.074 1.074 0 0 0-.491-.587c-.177-.09-.549-.132-.709-.079m15.8 0c-.329.108-.598.371-.68.666-.086.306-.038.552.217 1.1.97 2.088 1.53 4.182 1.75 6.539.066.715.066 2.593-.001 3.32-.215 2.345-.778 4.45-1.749 6.539-.332.716-.339 1.077-.028 1.441a.968.968 0 0 0 1.399.105c.151-.133.235-.266.435-.685.78-1.638 1.394-3.595 1.713-5.46.73-4.269.12-8.793-1.703-12.64-.25-.529-.394-.716-.65-.848-.172-.088-.544-.129-.703-.077M8.365 7.686c-.189.054-.536.414-.596.619-.148.498.056.984.505 1.204.222.109.24.111 1.075.124l.849.013.079.267c.044.147.216.749.382 1.338l.303 1.071-1.242 1.457c-1.176 1.379-1.256 1.464-1.491 1.579a1.39 1.39 0 0 1-.549.144c-.423.033-.607.109-.811.337-.363.403-.363.919 0 1.322.238.266.447.341.911.331a3.295 3.295 0 0 0 1.909-.694c.162-.13.595-.596 1.097-1.185.456-.535.832-.968.837-.962.004.005.102.342.217.749s.265.848.334.98c.251.48.766.887 1.326 1.051.271.079 1.797.116 2.11.051.409-.085.71-.389.797-.805a.98.98 0 0 0-.53-1.058c-.188-.096-.221-.099-1.031-.099-.637 0-.846-.012-.879-.052-.042-.05-.767-2.553-.767-2.644 0-.037 1.519-1.842 2.27-2.699.281-.32.598-.485.933-.485.358 0 .629-.101.843-.315a.972.972 0 0 0-.184-1.544c-.191-.118-.209-.121-.699-.12-.58 0-.89.076-1.407.344-.473.245-.755.512-1.616 1.526-.44.518-.806.936-.813.929a16.998 16.998 0 0 1-.23-.757c-.118-.408-.263-.837-.322-.953-.143-.282-.616-.748-.9-.885-.417-.203-.575-.224-1.615-.221-.528.002-1.021.021-1.095.042" fill="#667085" fill-rule="evenodd"/></svg>