<svg width="24" height="24" fill="none" xmlns="http://www.w3.org/2000/svg"><path d="M4.88 4.041c-1.2.083-1.911.39-2.68 1.159-.651.651-.956 1.247-1.11 2.165-.063.376-.07.816-.07 4.635s.007 4.259.07 4.635c.153.917.458 1.511 1.11 2.164.65.652 1.245.957 2.165 1.111.378.064.835.07 5.135.07s4.757-.006 5.135-.07c.919-.154 1.514-.459 2.165-1.11.479-.479.74-.878.924-1.412.166-.482.233-.998.263-2.039l.026-.911 1.263 1.253c.695.689 1.354 1.309 1.464 1.378.264.166.52.225.872.203.67-.044 1.191-.489 1.328-1.137.088-.412.087-7.861 0-8.275-.196-.926-1.258-1.421-2.101-.978-.214.112-.485.359-1.549 1.414L18 9.574l-.001-.517c-.001-1.248-.113-2.084-.355-2.66-.387-.921-1.319-1.798-2.251-2.119-.745-.256-.64-.251-5.573-.26-2.464-.005-4.687.006-4.94.023m9.7 2.051c.478.116.944.49 1.194.961.203.382.206.447.206 4.987 0 4.831.015 4.593-.329 5.097-.222.325-.612.634-.912.724-.405.12-1.039.137-5.219.138-4.251.001-4.892-.017-5.271-.144-.449-.151-.953-.656-1.104-1.106-.133-.394-.15-1.045-.135-5.089.018-4.516.003-4.305.339-4.797.224-.328.612-.635.92-.726a3.64 3.64 0 0 1 .54-.095c.182-.018 2.392-.029 4.911-.025 4.141.007 4.607.014 4.86.075M21 12.01v2.57l-1.29-1.29L18.42 12l1.28-1.28c.704-.704 1.284-1.28 1.29-1.28.005 0 .01 1.156.01 2.57" fill="#667085" fill-rule="evenodd"/></svg>