<svg width="24" height="24" fill="none" xmlns="http://www.w3.org/2000/svg"><path d="M1.643 1.069C1.291 1.193 1 1.614 1 2c0 .08.03.234.066.343.057.171.195.327 1.057 1.197l.992 1-.281.179A4.154 4.154 0 0 0 1.11 7.08l-.09.34v9.16l.091.36c.124.492.462 1.164.788 1.568.515.64 1.357 1.178 2.161 1.381l.36.091h5.06c5.735 0 5.229.029 5.982-.341a4.531 4.531 0 0 0 1.291-1l.219-.245 2.244 2.238c2.03 2.024 2.263 2.244 2.441 2.303.39.129.766.044 1.045-.235a.986.986 0 0 0 .185-1.144c-.063-.13-2.761-2.85-10.216-10.301C3.299 1.888 2.525 1.125 2.343 1.065a1.038 1.038 0 0 0-.7.004M9.24 4.036a1.067 1.067 0 0 0-.488.316c-.445.493-.272 1.265.348 1.554l.2.093L11.24 6c2.05 0 3.032.041 3.412.14.553.144 1.065.656 1.209 1.209.095.367.139 1.348.139 3.134 0 1.429.009 1.69.065 1.86.059.177.265.397 2.07 2.211 1.103 1.108 2.137 2.129 2.299 2.269.439.379.581.437 1.066.437.351 0 .428-.013.629-.108.274-.128.581-.423.701-.672a1.98 1.98 0 0 0 .128-.44c.026-.167.041-1.614.041-4.04s-.015-3.873-.041-4.04a1.428 1.428 0 0 0-.819-1.102c-.216-.107-.277-.118-.639-.118-.631 0-.661.021-2.204 1.551l-1.285 1.272-.022-.991c-.014-.641-.044-1.115-.085-1.339-.253-1.388-1.284-2.575-2.614-3.011-.545-.178-.749-.19-3.41-.205-1.397-.007-2.585.001-2.64.019m.912 7.536 5.451 5.451-.115.159c-.161.219-.486.515-.672.61-.426.217-.205.208-5.313.207-5.197 0-4.992.009-5.471-.246-.47-.251-.891-.833-.989-1.37-.057-.315-.06-8.44-.003-8.748.121-.649.719-1.267 1.404-1.452a5.07 5.07 0 0 1 .236-.06c.011-.002 2.473 2.45 5.472 5.449M21 12.01v2.57l-1.29-1.29L18.42 12l1.28-1.28c.704-.704 1.284-1.28 1.29-1.28.005 0 .01 1.156.01 2.57" fill="#667085" fill-rule="evenodd"/></svg>