<svg width="24" height="24" fill="none" xmlns="http://www.w3.org/2000/svg"><path d="m11.28 1.023-.56.06c-.521.056-1.123.176-1.276.255-.168.087-.423.393-.477.574-.106.355-.015.73.245 1.001.261.273.515.335 1.068.262.209-.027.457-.051.55-.052L11 3.12v3.078l-.11.025c-.761.169-1.484.453-1.995.784l-.284.184-1.065-1.065L6.48 5.06l.307-.3.476-.466c.395-.39.382-1.007-.029-1.402a1 1 0 0 0-1.159-.147c-.225.121-.691.562-1.203 1.137-.289.325-.311.342-.446.326-.18-.021-.32.108-.387.357l-.061.221c-.007.025-.216.228-.465.451-.735.658-.962 1.028-.892 1.452.136.813 1.108 1.147 1.673.574l.466-.476.3-.307 1.064 1.064 1.065 1.064-.139.206c-.358.531-.643 1.246-.827 2.076l-.025.11H3.12l.001-.15a5.06 5.06 0 0 1 .042-.45c.085-.623.035-.893-.215-1.154-.213-.222-.409-.304-.728-.304-.332 0-.529.088-.751.333-.174.193-.237.393-.356 1.125-.127.785-.128 2.37-.001 3.182.128.822.176.96.422 1.199.32.312.704.384 1.086.204.511-.242.651-.598.543-1.385a5.06 5.06 0 0 1-.042-.45L3.12 13h3.078l.025.11c.184.83.469 1.545.827 2.076l.139.206-1.067 1.066-1.068 1.067-.441-.462c-.492-.516-.624-.595-.995-.597a.982.982 0 0 0-.96.714c-.151.521.03.84.947 1.669.329.297.388.37.409.502a.805.805 0 0 0 .635.635c.132.021.205.08.503.409.485.537.677.717.908.849.267.153.477.18.758.098.717-.208.977-1.108.465-1.615l-.476-.467-.327-.319 1.064-1.065 1.064-1.065.206.139c.531.358 1.246.643 2.076.827l.11.025v3.089l-.33-.026c-1.002-.081-.97-.082-1.166.013-.618.299-.775 1.093-.312 1.577.203.212.389.287.949.382a10.7 10.7 0 0 0 3.714.001c.551-.094.715-.154.899-.33.222-.213.304-.409.304-.728 0-.325-.09-.534-.311-.729-.229-.201-.458-.267-.818-.236l-.619.052-.31.024v-3.089l.11-.025c.847-.188 1.696-.536 2.152-.882l.122-.092 1.07 1.071 1.069 1.07-.437.418c-.554.53-.626.648-.625 1.018.002.319.085.519.305.726.218.204.385.271.674.271.441.001.738-.208 1.491-1.047.472-.526.477-.53.649-.53.142 0 .19-.02.261-.11.102-.13.199-.35.199-.452 0-.04.163-.219.37-.405.519-.467.702-.663.834-.893.153-.267.18-.477.098-.759a1 1 0 0 0-1.734-.351 6.36 6.36 0 0 1-.408.434l-.26.253-1.068-1.067-1.069-1.066.092-.122c.346-.456.694-1.305.882-2.152l.025-.11h3.078l-.003.17a6.626 6.626 0 0 1-.052.55c-.073.553-.011.807.262 1.068.409.392.972.389 1.379-.007.246-.239.294-.377.422-1.199.126-.811.126-2.353 0-3.164-.115-.736-.181-.947-.358-1.143-.221-.245-.418-.333-.75-.333-.311 0-.471.063-.693.272-.272.256-.335.513-.262 1.066.027.209.051.457.052.55l.003.17h-3.078l-.025-.11c-.187-.842-.533-1.69-.879-2.153l-.092-.124 1.068-1.067 1.067-1.067.461.474c.396.408.491.485.675.546a.994.994 0 0 0 1.265-.681c.141-.484-.002-.763-.759-1.478-.299-.281-.543-.543-.543-.581 0-.317-.432-.755-.747-.758-.058-.001-.202-.128-.439-.391-.732-.809-.973-.979-1.389-.981-.288-.001-.51.082-.699.263a.976.976 0 0 0-.265 1.031c.061.184.138.279.546.675l.474.461-1.066 1.066-1.066 1.066-.284-.184c-.511-.331-1.234-.615-1.995-.784L13 6.198V3.12l.17.003c.093.001.341.025.55.052.553.073.807.011 1.068-.262.26-.271.351-.646.245-1.001-.054-.18-.309-.487-.476-.574-.143-.074-.568-.164-1.137-.242-.421-.058-1.846-.106-2.14-.073m1.728 7.112a4.002 4.002 0 0 1 2.861 2.857c.09.338.103.468.103 1.008s-.013.67-.103 1.008a4.056 4.056 0 0 1-2.215 2.638 5.62 5.62 0 0 1-.647.225c-.343.095-.457.107-1.007.107-.554 0-.662-.012-1.02-.11-1.416-.392-2.475-1.455-2.849-2.86-.09-.338-.103-.468-.103-1.008s.013-.67.103-1.008a4.016 4.016 0 0 1 3.292-2.951c.398-.062 1.147-.018 1.585.094" fill="#667085" fill-rule="evenodd"/></svg>