<svg width="24" height="24" fill="none" xmlns="http://www.w3.org/2000/svg"><path d="M5.34 7.046c-.974.124-2.006.617-2.756 1.318a5.236 5.236 0 0 0-1.431 2.416c-.121.456-.127.517-.127 1.22s.006.764.127 1.22c.469 1.779 1.837 3.146 3.633 3.632l.474.128h13.48l.48-.13a5.097 5.097 0 0 0 3.629-3.636c.118-.449.125-.513.125-1.214 0-.703-.006-.764-.127-1.22a5.236 5.236 0 0 0-1.431-2.416c-1.488-1.389-3.687-1.75-5.492-.9a4.973 4.973 0 0 0-2.407 2.356c-.788 1.591-.666 3.326.337 4.816.124.185.226.342.226.35 0 .008-.936.014-2.08.014-1.144 0-2.08-.006-2.08-.014s.102-.165.226-.35c.803-1.193 1.04-2.504.696-3.856-.621-2.445-2.991-4.054-5.502-3.734m1.44 2.056c1.014.271 1.844 1.106 2.125 2.138.097.359.097 1.161 0 1.52a3.069 3.069 0 0 1-1.604 1.94c-.455.217-.735.277-1.301.277s-.846-.06-1.301-.277a3.069 3.069 0 0 1-1.604-1.94c-.097-.359-.097-1.161 0-1.52A3.042 3.042 0 0 1 5.49 9.042c.286-.052.997-.019 1.29.06m12 0c1.014.271 1.844 1.106 2.125 2.138.097.359.097 1.161 0 1.52a3.069 3.069 0 0 1-1.604 1.94c-.455.217-.735.277-1.301.277s-.846-.06-1.301-.277a3.069 3.069 0 0 1-1.604-1.94c-.097-.359-.097-1.161 0-1.52a3.042 3.042 0 0 1 2.395-2.198c.286-.052.997-.019 1.29.06" fill="#667085" fill-rule="evenodd"/></svg>