<svg width="24" height="24" fill="none" xmlns="http://www.w3.org/2000/svg"><path d="M10.074 3.773c-.371.139-.588.333-2.516 2.253L5.576 8H4.215c-1.492 0-1.692.02-2.093.213-.331.158-.747.562-.894.867C1.003 9.548 1 9.585 1 12s.003 2.452.228 2.92c.149.31.566.716.892.869.415.195.568.211 2.071.211h1.386l1.962 1.954c1.078 1.075 2.049 2.013 2.156 2.085.672.453 1.62.255 2.059-.429.256-.399.245-.055.245-7.61 0-7.547.01-7.211-.243-7.606a1.556 1.556 0 0 0-.659-.561c-.246-.11-.802-.142-1.023-.06M10 12.008v5.569l-1.61-1.603c-1.509-1.503-1.629-1.612-1.91-1.748a2.516 2.516 0 0 0-.515-.186c-.119-.022-.823-.04-1.566-.04h-1.35l-.024-.09c-.043-.163-.028-3.749.016-3.833.04-.074.098-.077 1.412-.077 1.485 0 1.608-.014 2.06-.228.19-.09.494-.374 1.847-1.72.891-.886 1.625-1.611 1.63-1.612.005 0 .01 2.506.01 5.568m5.643-3.939C15.291 8.193 15 8.614 15 9c0 .08.03.234.066.343.057.174.21.342 1.288 1.427L17.577 12l-1.223 1.23c-1.078 1.085-1.231 1.253-1.288 1.427-.13.389-.045.766.233 1.044s.655.363 1.044.233c.174-.057.342-.21 1.427-1.288L19 13.423l1.23 1.223c1.085 1.078 1.253 1.231 1.427 1.288.482.161.959-.014 1.212-.445.095-.162.111-.232.11-.489 0-.213-.022-.341-.074-.44-.041-.077-.616-.684-1.279-1.35L20.422 12l1.204-1.21c.663-.665 1.238-1.273 1.279-1.35.052-.099.074-.227.074-.44.001-.257-.015-.327-.11-.489-.253-.431-.73-.606-1.212-.445-.174.057-.342.21-1.427 1.288L19 10.577l-1.23-1.223c-1.085-1.078-1.253-1.231-1.427-1.288a1.026 1.026 0 0 0-.7.003" fill="#667085" fill-rule="evenodd"/></svg>