<svg width="24" height="24" fill="none" xmlns="http://www.w3.org/2000/svg"><path d="M12.511 3.795c-.103.042-.274.14-.38.218-.105.078-1.055 1.007-2.111 2.065L8.1 8l-1.4.001c-1.551 0-1.723.02-2.149.247-.442.236-.768.628-.958 1.154L3.5 9.66v4.68l.093.258c.19.526.516.918.958 1.154.439.234.56.248 2.126.248h1.421l2.021 2.014c2.343 2.335 2.228 2.246 2.901 2.246.363-.001.422-.011.633-.118.353-.178.643-.514.756-.874l.091-.288V5.02l-.09-.287a1.477 1.477 0 0 0-.738-.854c-.224-.12-.292-.137-.612-.148-.282-.009-.401.005-.549.064m-.031 8.214v5.569l-1.63-1.624c-1.468-1.462-1.656-1.636-1.89-1.746-.401-.187-.61-.208-2.087-.208H5.52v-1.976c0-1.764.007-1.978.063-2 .035-.013.667-.024 1.404-.024 1.451 0 1.611-.018 2.03-.227.154-.077.598-.495 1.823-1.717a214.1 214.1 0 0 1 1.63-1.616c.006 0 .01 2.506.01 5.569m5.486-4.963c-.489.141-.806.669-.693 1.157.026.112.128.329.228.483A5.84 5.84 0 0 1 18.48 12c0 1.23-.31 2.28-.979 3.314-.226.349-.293.608-.229.886.171.738.993 1.037 1.593.579.304-.232.966-1.454 1.235-2.279.32-.982.461-2.103.382-3.05-.091-1.103-.336-2.004-.801-2.95-.337-.683-.623-1.131-.816-1.279a.998.998 0 0 0-.899-.175" fill="#667085" fill-rule="evenodd"/></svg>