<svg width="24" height="24" fill="none" xmlns="http://www.w3.org/2000/svg"><path d="M10.074 3.773c-.371.139-.588.333-2.516 2.253L5.576 8H4.215c-1.492 0-1.692.02-2.093.213-.331.158-.747.562-.894.867C1.003 9.548 1 9.585 1 12s.003 2.452.228 2.92c.149.31.566.716.892.869.415.195.568.211 2.071.211h1.386l1.962 1.954c1.078 1.075 2.049 2.013 2.156 2.085.672.453 1.62.255 2.059-.429.256-.399.245-.055.245-7.61 0-7.547.01-7.211-.243-7.606a1.556 1.556 0 0 0-.659-.561c-.246-.11-.802-.142-1.023-.06M10 12.008v5.569l-1.61-1.603c-1.509-1.503-1.629-1.612-1.91-1.748a2.516 2.516 0 0 0-.515-.186c-.119-.022-.823-.04-1.566-.04h-1.35l-.024-.09c-.043-.163-.028-3.749.016-3.833.04-.074.098-.077 1.412-.077 1.485 0 1.608-.014 2.06-.228.19-.09.494-.374 1.847-1.72.891-.886 1.625-1.611 1.63-1.612.005 0 .01 2.506.01 5.568m4.643-.939c-.352.124-.643.545-.643.931 0 .242.119.521.299.701.314.314.097.299 4.203.299 3.967 0 3.823.008 4.124-.222a1.19 1.19 0 0 0 .243-.289c.095-.161.111-.233.111-.489s-.016-.328-.111-.489a1.19 1.19 0 0 0-.243-.289c-.301-.23-.154-.222-4.141-.219-3.212.003-3.687.011-3.842.066" fill="#667085" fill-rule="evenodd"/></svg>