<svg width="24" height="24" fill="none" xmlns="http://www.w3.org/2000/svg"><path d="M10.074 3.773c-.371.139-.588.333-2.516 2.253L5.576 8H4.215c-1.492 0-1.692.02-2.093.213-.331.158-.747.562-.894.867C1.003 9.548 1 9.585 1 12s.003 2.452.228 2.92c.149.31.566.716.892.869.415.195.568.211 2.071.211h1.386l1.962 1.954c1.078 1.075 2.049 2.013 2.156 2.085.672.453 1.62.255 2.059-.429.256-.399.245-.055.245-7.61 0-7.547.01-7.211-.243-7.606a1.556 1.556 0 0 0-.659-.561c-.246-.11-.802-.142-1.023-.06m9.356.284a.976.976 0 0 0-.669.959c.001.25.077.423.391.888 2.467 3.665 2.456 8.536-.028 12.234-.303.451-.364.594-.364.853 0 .532.37.943.899.997.44.046.718-.128 1.095-.683a13.014 13.014 0 0 0 .986-12.89c-.459-.966-1.149-2.051-1.414-2.226a1.01 1.01 0 0 0-.896-.132M10 12.008v5.569l-1.61-1.603c-1.509-1.503-1.629-1.612-1.91-1.748a2.516 2.516 0 0 0-.515-.186c-.119-.022-.823-.04-1.566-.04h-1.35l-.024-.09c-.043-.163-.028-3.749.016-3.833.04-.074.098-.077 1.412-.077 1.485 0 1.608-.014 2.06-.228.19-.09.494-.374 1.847-1.72.891-.886 1.625-1.611 1.63-1.612.005 0 .01 2.506.01 5.568m5.48-4.971c-.31.094-.591.36-.674.637-.059.199-.059.477.001.65.026.075.123.253.215.396.415.644.717 1.387.865 2.129.128.642.128 1.66 0 2.302a6.246 6.246 0 0 1-.865 2.129c-.203.315-.262.476-.262.711 0 .532.37.943.899.997.426.044.715-.133 1.055-.648 1.363-2.065 1.662-4.775.786-7.12-.307-.823-.884-1.826-1.16-2.014-.267-.183-.599-.248-.86-.169" fill="#667085" fill-rule="evenodd"/></svg>