<svg width="24" height="24" fill="none" xmlns="http://www.w3.org/2000/svg"><path d="M7.86 1.82a2.959 2.959 0 0 0-1.712 1.071 3.034 3.034 0 0 0-.638 1.736c-.007.32-.002.34.181.702.104.205.189.397.189.426 0 .043-.054.049-.252.027a3.125 3.125 0 0 0-.587.016c-.47.058-.779.211-1.118.552a1.91 1.91 0 0 0-.547.97c-.104.409-.059.72.262 1.82l.28.96-1.083 1.808c-.595.994-1.143 1.95-1.218 2.123a3.939 3.939 0 0 0-.28 2.208c.09.514 1.004 3.258 1.26 3.781.581 1.187 1.632 1.965 2.923 2.162.567.086 12.393.086 12.96 0a3.806 3.806 0 0 0 2.084-1.012c.626-.579.87-1.059 1.493-2.93.64-1.92.643-1.931.639-2.66-.006-1.065-.088-1.261-1.532-3.673l-1.084-1.809.242-.819c.38-1.293.415-1.522.297-1.981a1.91 1.91 0 0 0-.542-.948c-.339-.341-.648-.494-1.118-.552a3.125 3.125 0 0 0-.587-.016c-.198.022-.252.016-.252-.027 0-.029.084-.22.188-.424.179-.353.187-.384.18-.681-.021-1.024-.617-2.01-1.521-2.518-.954-.536-2.217-.484-3.259.134-.439.261-1.165.984-1.468 1.461-.121.191-.229.348-.24.348-.011 0-.119-.157-.24-.348-.303-.477-1.029-1.2-1.468-1.461-.738-.438-1.688-.612-2.432-.446m1.316 2.095c.312.153.572.379.831.722.202.267.49.811.537 1.015l.026.113-1.175-.013c-1.12-.011-1.183-.016-1.339-.1a1.21 1.21 0 0 1-.481-.518 1.228 1.228 0 0 1-.055-.374c0-.414.181-.722.529-.899.192-.098.241-.106.543-.089.267.016.383.044.584.143m6.847-.013c.281.174.431.432.45.78.009.149-.005.333-.03.409-.062.188-.297.453-.497.56-.159.085-.217.09-1.341.101l-1.175.013.026-.113c.047-.204.335-.748.535-1.012.471-.622.949-.89 1.553-.869.236.008.317.03.479.131m2.548 4.058a5.254 5.254 0 0 1-.164.72l-.155.54H5.749l-.133-.46c-.167-.578-.229-.869-.201-.943.02-.05.901-.056 6.594-.047l6.571.01-.009.18m.797 4.85a136.2 136.2 0 0 1 1.084 1.831c.188.339.283.739.255 1.079-.035.43-.836 2.858-1.148 3.48-.273.545-.78.912-1.379.998-.382.055-11.978.055-12.36 0a1.85 1.85 0 0 1-1.379-.988c-.265-.544-1.048-2.854-1.131-3.34-.065-.378.003-.759.203-1.151.085-.166.583-1.017 1.106-1.89l.952-1.589h12.858l.939 1.57" fill="#667085" fill-rule="evenodd"/></svg>