<svg width="24" height="24" fill="none" xmlns="http://www.w3.org/2000/svg"><path d="M3.61 3.044c-1.319.155-2.378 1.202-2.569 2.536-.054.381-.054 12.459 0 12.84a2.976 2.976 0 0 0 2.539 2.539c.403.057 16.431.055 16.845-.002a2.977 2.977 0 0 0 2.534-2.537c.054-.381.054-12.459 0-12.84-.173-1.215-1.022-2.155-2.246-2.488-.235-.065-.829-.07-8.533-.076-4.554-.004-8.41.009-8.57.028m16.378 1.995c.468.043.649.131.831.407.09.135.111.227.143.607.02.246.037.677.037.957l.001.51H3l.001-.55c.003-.88.057-1.353.178-1.536.171-.258.362-.356.768-.392.506-.044 15.546-.047 16.041-.003M21 10.518v.998l-1.91.013-1.91.013-.351.109c-.556.173-.784.296-1.867 1.005-1.365.894-1.189.844-2.962.844-1.773 0-1.599.05-2.963-.844-1.083-.71-1.311-.833-1.866-1.005l-.351-.109-1.91-.013L3 11.516V9.52h18v.998M6.689 13.6c.191.058.51.246 1.234.723 1.092.72 1.196.778 1.677.947.616.215.768.23 2.4.23s1.784-.015 2.4-.23c.481-.169.585-.227 1.677-.947.724-.477 1.043-.665 1.234-.723.24-.075.374-.08 1.973-.08H21l-.001 1.99c0 1.095-.017 2.192-.038 2.44-.033.403-.049.467-.158.626-.175.254-.338.34-.73.385-.45.052-15.699.052-16.15 0-.386-.045-.56-.137-.735-.389-.16-.232-.185-.635-.187-3.022L3 13.52h1.716c1.599 0 1.733.005 1.973.08" fill="#667085" fill-rule="evenodd"/></svg>