<svg width="24" height="24" fill="none" xmlns="http://www.w3.org/2000/svg"><path d="M4.44 2.06c-.611.123-1.099.39-1.561.856A2.924 2.924 0 0 0 2.114 4.2l-.094.3v15l.094.3c.17.546.385.902.784 1.302.4.399.756.614 1.302.784l.3.094h15l.3-.094c.546-.17.902-.385 1.302-.784.399-.4.614-.756.784-1.302l.094-.3v-11l-.094-.3a2.887 2.887 0 0 0-.784-1.302c-.303-.302-.424-.392-.742-.55-.724-.359.084-.325-8.26-.348l-7.4-.02-.178-.1c-.748-.42-.658-1.535.148-1.823.123-.044 1.269-.054 6.313-.055 6.921-.002 6.396.021 6.718-.301.18-.18.299-.459.299-.701 0-.242-.119-.521-.299-.701-.323-.323.212-.299-6.778-.295-4.948.003-6.276.014-6.483.056m-.05 5.73.35.19 7.28.02 7.28.02.189.111c.213.125.375.318.454.539.044.122.054 1.104.055 5.31.001 3.437-.012 5.21-.04 5.309-.059.212-.272.474-.48.591l-.178.1H4.7l-.178-.1c-.208-.117-.421-.379-.48-.591C4 19.137 3.978 7.6 4.02 7.6c.012 0 .178.085.37.19m11.606 4.806a1.5 1.5 0 0 0-.916.958c-.139.44-.081.864.171 1.261.567.893 1.931.893 2.498 0 .252-.397.31-.821.171-1.261a1.493 1.493 0 0 0-.927-.96c-.257-.098-.745-.097-.997.002" fill="#667085" fill-rule="evenodd"/></svg>