<svg width="24" height="24" fill="none" xmlns="http://www.w3.org/2000/svg"><path d="M3.76 3.026c-1.437.141-2.52 1.158-2.719 2.554-.054.381-.054 12.459 0 12.84a2.976 2.976 0 0 0 2.547 2.539c.373.054 14.454.053 14.832 0a2.976 2.976 0 0 0 2.539-2.539c.021-.154.04-.937.041-1.74l.001-1.46.23-.099a2.993 2.993 0 0 0 1.636-1.741l.113-.32v-2.12l-.113-.32a2.83 2.83 0 0 0-.617-1.024 3.513 3.513 0 0 0-1.036-.722L21 8.785l-.001-1.462c0-.805-.019-1.589-.04-1.743a2.984 2.984 0 0 0-.863-1.713 2.924 2.924 0 0 0-1.76-.826c-.325-.037-14.201-.051-14.576-.015M17.996 5.04c.474.043.647.126.825.394.136.205.176.667.178 2.036L19 8.52l-1.19.001c-1.378 0-1.561.026-2.11.294-.787.385-1.32 1.011-1.586 1.865-.088.282-.094.362-.094 1.32 0 .958.006 1.038.094 1.32.327 1.05 1.103 1.802 2.148 2.085.283.077.451.089 1.528.105l1.21.019-.001 1.025c-.002 1.345-.043 1.808-.178 2.012-.164.247-.358.35-.744.395-.45.051-13.701.052-14.15 0-.392-.045-.555-.131-.73-.385-.109-.159-.125-.223-.158-.626-.049-.586-.049-11.312-.001-11.897.032-.38.053-.472.143-.607.175-.265.374-.368.774-.404.505-.045 13.543-.047 14.041-.002m2.378 5.535c.188.078.416.291.518.481.082.153.088.218.088.944 0 .883-.023.969-.332 1.248-.277.25-.29.252-2.148.252s-1.871-.002-2.148-.252c-.309-.279-.332-.365-.332-1.248 0-.726.006-.791.088-.944.099-.186.327-.4.509-.479.182-.08 3.567-.081 3.757-.002" fill="#667085" fill-rule="evenodd"/></svg>