<svg width="24" height="24" fill="none" xmlns="http://www.w3.org/2000/svg"><path d="M9.38 1.025c-.571.073-.971.211-1.382.475a2.944 2.944 0 0 0-1.173 1.501c-.061.183-.268 1.118-.46 2.078l-.349 1.746-.234.292C4.633 8.557 4.001 10.291 4.001 12c0 1.72.639 3.465 1.79 4.89l.22.273.353 1.755c.194.965.402 1.903.462 2.084.302.915 1.09 1.638 2.074 1.903.262.07.463.075 3.1.075s2.838-.005 3.1-.075c.983-.265 1.767-.99 2.081-1.924.055-.165.259-1.088.453-2.051l.351-1.75.32-.42c.611-.804 1.013-1.545 1.295-2.39.822-2.459.372-4.936-1.295-7.13l-.32-.42-.351-1.75c-.194-.963-.399-1.89-.456-2.06-.311-.932-1.099-1.649-2.105-1.917-.224-.06-.561-.068-2.913-.075a133.816 133.816 0 0 0-2.78.007m5.07 2.012c.462.048.716.245.831.643.074.256.282 1.211.267 1.226-.009.008-.173-.059-.366-.15-1.21-.566-2.552-.829-3.704-.725a8.048 8.048 0 0 0-2.66.725c-.193.091-.358.158-.366.149-.018-.018.163-.854.251-1.165.128-.447.369-.656.81-.701.383-.039 4.567-.041 4.937-.002m-1.286 3.08c2.422.483 4.273 2.36 4.738 4.803.101.528.101 1.632 0 2.16-.423 2.224-2.017 4.014-4.143 4.654-.691.208-.967.246-1.779.243-.836-.002-1.192-.058-1.904-.296a5.966 5.966 0 0 1-3.77-3.803c-.221-.681-.282-1.083-.282-1.878 0-1.01.173-1.791.582-2.627.921-1.886 2.658-3.089 4.834-3.349.313-.038 1.353.018 1.724.093m-1.521 1.952a1.066 1.066 0 0 0-.577.591c-.057.168-.066.413-.066 1.84 0 1.422.009 1.673.066 1.843.057.17.186.318.93 1.069.656.662.915.897 1.076.976a.987.987 0 0 0 1.419-.889c.001-.364-.111-.533-.833-1.26L13 11.577v-1.361c0-1.555-.012-1.63-.299-1.917a.998.998 0 0 0-1.058-.23m-2.83 11.172c.776.364 1.726.638 2.501.723 1.237.135 2.759-.16 3.98-.772.129-.064.242-.109.251-.1.017.017-.184.952-.264 1.228-.107.37-.362.583-.767.642-.14.02-1.271.036-2.514.036-1.243 0-2.374-.016-2.514-.036-.428-.062-.658-.268-.784-.702a22.423 22.423 0 0 1-.262-1.163c0-.029.02-.021.373.144" fill="#667085" fill-rule="evenodd"/></svg>