<svg width="24" height="24" fill="none" xmlns="http://www.w3.org/2000/svg"><path d="M9.069 1.044A2.948 2.948 0 0 0 6.813 2.71c-.075.16-.254.701-.399 1.203l-.262.912-.166.088c-.236.125-.613.457-.838.738-.37.461-.562.969-.627 1.661-.055.573-.055 8.803 0 9.376.066.699.256 1.198.639 1.677.212.265.692.677.88.755.101.042.128.112.373.962.145.505.325 1.048.4 1.208a2.923 2.923 0 0 0 1.367 1.39c.649.313.478.3 3.82.3 3.342 0 3.171.013 3.82-.3a2.923 2.923 0 0 0 1.367-1.39c.075-.16.254-.7.398-1.201l.262-.91.187-.105c.392-.223.833-.675 1.076-1.104.192-.338.323-.792.369-1.279.055-.579.055-8.803 0-9.382-.046-.487-.177-.941-.369-1.279-.243-.429-.684-.881-1.076-1.104l-.187-.105-.265-.921c-.294-1.02-.471-1.429-.782-1.81-.368-.451-.979-.841-1.561-.996-.232-.061-.553-.069-3.079-.077-1.551-.005-2.942.007-3.091.027m5.547 1.994c.328.042.557.182.692.423.073.13.231.583.348.999.023.08.004.08-3.656.08s-3.679 0-3.656-.08c.117-.416.275-.869.348-.999a.87.87 0 0 1 .654-.421c.335-.042 4.94-.044 5.27-.002M16.7 6.56c.309.05.525.201.658.459l.102.199v9.564l-.102.199c-.15.295-.391.443-.787.486-.406.043-8.736.043-9.142 0-.396-.043-.637-.191-.787-.486l-.102-.199V7.218l.102-.199a.863.863 0 0 1 .62-.457c.289-.048 9.144-.05 9.438-.002m-5.057 1.509a1.066 1.066 0 0 0-.577.591c-.057.168-.066.413-.066 1.84 0 1.422.009 1.673.066 1.843.057.17.186.318.93 1.069.656.662.915.897 1.076.976a.987.987 0 0 0 1.419-.889c.001-.364-.111-.533-.833-1.26L13 11.577v-1.361c0-1.555-.012-1.63-.299-1.917a.998.998 0 0 0-1.058-.23m.21 11.442c2.008.007 3.477-.004 3.6-.026.114-.021.212-.034.217-.028.019.019-.217.764-.305.963-.108.242-.214.36-.425.474-.159.086-.17.086-2.94.086s-2.781 0-2.94-.086c-.215-.116-.318-.233-.432-.494-.082-.188-.132-.34-.295-.896-.018-.063-.009-.07.052-.04.042.02 1.562.041 3.468.047" fill="#667085" fill-rule="evenodd"/></svg>