<svg width="24" height="24" fill="none" xmlns="http://www.w3.org/2000/svg"><path d="M8.816 4.058c-.905.141-1.584.478-2.613 1.298-.225.179-.5.372-.611.428-.574.291-1.689.288-2.229-.006a4.617 4.617 0 0 1-.527-.381c-.184-.152-.411-.302-.511-.336-.856-.291-1.614.598-1.199 1.408.226.44 1.407 1.173 2.254 1.398.359.095.471.106 1.1.107.629.001.739-.01 1.083-.103.788-.212 1.31-.494 2.156-1.166.545-.432.869-.605 1.241-.664.543-.085 1.229-.027 1.579.133.11.051.444.288.741.526.297.238.638.496.758.573.36.231.936.485 1.351.596.35.093.465.104 1.091.105.629.001.739-.01 1.083-.103.788-.212 1.31-.494 2.156-1.166.545-.432.869-.605 1.241-.664.542-.085 1.229-.027 1.579.133.11.051.372.23.581.398.528.425.799.505 1.22.362.369-.126.66-.538.66-.934 0-.416-.22-.706-.875-1.155-.96-.657-2.004-.932-3.083-.812-1.027.114-1.736.444-2.839 1.323-.225.179-.5.372-.611.428-.573.29-1.689.288-2.228-.005a5.812 5.812 0 0 1-.605-.445c-.542-.447-.932-.707-1.376-.917a4.495 4.495 0 0 0-2.567-.359m0 6c-.905.141-1.584.478-2.613 1.298-.225.179-.5.372-.611.428-.574.291-1.689.288-2.229-.006a4.617 4.617 0 0 1-.527-.381c-.184-.152-.411-.302-.511-.336-.856-.291-1.614.598-1.199 1.408.226.44 1.407 1.173 2.254 1.398.359.095.471.106 1.1.107.629.001.739-.01 1.083-.103.788-.212 1.31-.494 2.156-1.166.545-.432.869-.605 1.241-.664.543-.085 1.229-.027 1.579.133.11.051.444.288.741.526.297.238.638.496.758.573.36.231.936.485 1.351.596.35.093.465.104 1.091.105.629.001.739-.01 1.083-.103.788-.212 1.31-.494 2.156-1.166.545-.432.869-.605 1.241-.664.542-.085 1.229-.027 1.579.133.11.051.372.23.581.398.528.425.799.505 1.22.362.369-.126.66-.538.66-.934 0-.416-.22-.706-.875-1.155-.96-.657-2.004-.932-3.083-.812-1.027.114-1.736.444-2.839 1.323-.225.179-.5.372-.611.428-.573.29-1.689.288-2.228-.005a5.812 5.812 0 0 1-.605-.445c-.542-.447-.932-.707-1.376-.917a4.495 4.495 0 0 0-2.567-.359m0 6c-.905.141-1.584.478-2.613 1.298-.225.179-.5.372-.611.428-.574.291-1.689.288-2.229-.006a4.617 4.617 0 0 1-.527-.381c-.184-.152-.411-.302-.511-.336-.856-.291-1.614.598-1.199 1.408.226.44 1.407 1.173 2.254 1.398.359.095.471.106 1.1.107.629.001.739-.01 1.083-.103.792-.213 1.311-.495 2.168-1.175.545-.433.844-.593 1.229-.654.54-.086 1.228-.028 1.579.132.11.051.444.288.741.526.297.238.638.496.758.573.36.231.936.485 1.351.596.35.093.465.104 1.091.105.629.001.739-.01 1.083-.103.792-.213 1.311-.495 2.168-1.175.545-.433.844-.593 1.229-.654.54-.086 1.228-.028 1.579.132.11.051.372.23.581.398.528.425.799.505 1.22.362.369-.126.66-.538.66-.934 0-.416-.22-.706-.875-1.155-.96-.657-2.004-.932-3.083-.812-1.027.114-1.736.444-2.839 1.323-.225.179-.5.372-.611.428-.573.29-1.689.288-2.228-.005a5.812 5.812 0 0 1-.605-.445c-.542-.447-.932-.707-1.376-.917a4.495 4.495 0 0 0-2.567-.359" fill="#667085" fill-rule="evenodd"/></svg>