<svg width="24" height="24" fill="none" xmlns="http://www.w3.org/2000/svg"><path d="M11.133 1.041A9.516 9.516 0 0 0 5.23 3.856a9.12 9.12 0 0 0-1.746 2.465 9.115 9.115 0 0 0-.973 4.179c0 3.019 1.391 5.786 3.829 7.617a9.632 9.632 0 0 0 4.301 1.789c.642.101 2.076.101 2.718 0 3.153-.493 5.749-2.392 7.171-5.246.98-1.965 1.224-4.327.673-6.501-.847-3.346-3.543-6.033-6.882-6.861-.298-.074-.73-.163-.961-.197-.512-.076-1.727-.109-2.227-.06m1.593 2.001c1.296.131 2.607.618 3.631 1.349a9.262 9.262 0 0 1 1.441 1.347 7.632 7.632 0 0 1 1.465 2.907 7.966 7.966 0 0 1 0 3.71c-.621 2.456-2.504 4.483-4.883 5.257-.873.285-1.403.366-2.38.366-.977 0-1.507-.081-2.38-.366-2.38-.775-4.261-2.8-4.883-5.257a7.966 7.966 0 0 1 0-3.71 7.632 7.632 0 0 1 1.465-2.907 9.262 9.262 0 0 1 1.441-1.347 7.627 7.627 0 0 1 5.083-1.349m-1.428 3.334a4.348 4.348 0 0 0-2.146 1.061c-.531.48-1.017 1.305-1.219 2.07-.09.34-.104.474-.104.993s.014.653.104.993c.202.765.688 1.59 1.219 2.07.52.471 1.154.815 1.849 1.004.29.079.435.092.999.092.564 0 .709-.013.999-.092a4.516 4.516 0 0 0 1.849-1.004c.531-.48 1.017-1.305 1.219-2.07.09-.34.104-.474.104-.993s-.014-.653-.104-.993c-.4-1.513-1.542-2.665-3.027-3.054-.472-.124-1.304-.161-1.742-.077m1.218 2.005a2.22 2.22 0 0 1 1.567 1.456c.114.363.114.963 0 1.326a2.236 2.236 0 0 1-1.313 1.387c-.242.096-.322.107-.77.107s-.528-.011-.77-.107a2.236 2.236 0 0 1-1.313-1.387c-.114-.363-.114-.963 0-1.326.335-1.075 1.484-1.718 2.599-1.456M7.643 21.069C7.291 21.193 7 21.614 7 22c0 .242.119.521.299.701.317.317.038.299 4.701.299 4.663 0 4.384.018 4.701-.299a.984.984 0 0 0 0-1.402c-.317-.317-.035-.299-4.718-.296-3.663.003-4.184.011-4.34.066" fill="#667085" fill-rule="evenodd"/></svg>