<svg width="24" height="24" fill="none" xmlns="http://www.w3.org/2000/svg"><path d="M11.14 1.042a9.063 9.063 0 0 0-4.8 1.979c-3.229 2.612-4.251 7.111-2.456 10.803.958 1.971 2.705 3.57 4.796 4.389.644.252 1.484.475 2.13.565l.19.027V21H8.927c-2.346 0-2.327-.002-2.628.299a.984.984 0 0 0 0 1.402c.32.32-.082.299 5.701.299 5.783 0 5.381.021 5.701-.299a.984.984 0 0 0 0-1.402c-.301-.301-.282-.299-2.628-.299H13V18.805l.19-.027a9.285 9.285 0 0 0 5.192-2.558c1.353-1.338 2.166-2.901 2.505-4.817.118-.664.129-2.025.022-2.703a9.016 9.016 0 0 0-.85-2.68 8.475 8.475 0 0 0-1.804-2.46A8.905 8.905 0 0 0 13.3 1.099c-.494-.076-1.676-.107-2.16-.057m1.546 2c2.442.247 4.487 1.663 5.592 3.872.949 1.897.949 4.275 0 6.172-1.025 2.047-2.841 3.408-5.098 3.818-.56.102-1.8.102-2.36 0-2.259-.41-4.073-1.77-5.098-3.818-.949-1.897-.949-4.275 0-6.172.582-1.163 1.405-2.096 2.438-2.765a7.007 7.007 0 0 1 4.526-1.107m-1.253 3.001a4.22 4.22 0 0 0-1.941.856 4.272 4.272 0 0 0-1.38 2.161c-.128.513-.128 1.367 0 1.88.2.801.739 1.645 1.38 2.161.401.323 1.078.665 1.548.781 2.23.55 4.462-.908 4.897-3.197.314-1.657-.57-3.437-2.097-4.222a4.013 4.013 0 0 0-2.407-.42m.95 2c.578.106 1.157.55 1.41 1.082a2.001 2.001 0 0 1-.354 2.25c-.778.831-2.1.831-2.878 0-.754-.806-.739-2.004.035-2.779.489-.488 1.102-.678 1.787-.553" fill="#667085" fill-rule="evenodd"/></svg>