<svg width="24" height="24" fill="none" xmlns="http://www.w3.org/2000/svg"><path d="M2.785 2.056c-.539.201-.813.831-.582 1.344.058.13.358.458 1.087 1.188.553.555.998 1.015.988 1.023-.01.008-.297.165-.638.348C1.951 6.869.649 7.796.422 8.25c-.22.442-.085.991.309 1.257.242.163.53.227.775.172.246-.056.295-.085.636-.382.447-.39 1.12-.884 1.666-1.223.516-.32 1.393-.801 1.73-.95l.199-.087 1.131 1.131A42.143 42.143 0 0 1 7.999 9.32c-.001.011-.211.101-.467.2-.57.221-1.542.704-2.05 1.02-.47.292-1.099.763-1.339 1.003a.964.964 0 0 0-.242 1.019c.085.241.23.418.45.547.162.095.232.111.489.11.356-.001.429-.034.89-.41a10.495 10.495 0 0 1 3.497-1.828l.352-.102 1.311 1.311 1.311 1.31-.558.047c-.977.082-1.669.259-2.263.581a9.916 9.916 0 0 1-.58.287c-.363.159-.76.382-.76.426 0 .02-.059.066-.13.103-.184.092-.343.25-.442.436-.182.343-.066.969.203 1.101.062.031.263.057.469.061.198.003.468.019.6.034.239.028.242.027.62-.196 1.143-.674 1.881-.887 2.94-.848.844.031 1.557.248 2.32.705.176.106.401.232.5.281.128.064.932.839 2.8 2.702 1.441 1.436 2.681 2.642 2.755 2.679.348.175.833.099 1.114-.173a.978.978 0 0 0 .273-1.03l-.067-.236-9.148-9.144C6.468 4.938 3.653 2.15 3.545 2.102c-.212-.096-.568-.117-.76-.046m7.875 1.509c-.242.021-.53.064-.64.095-.528.151-.818.715-.653 1.268.068.227.313.485.561.592.211.091.215.091.953.04 4.143-.289 7.884.928 11.029 3.588.307.259.485.338.77.341a.968.968 0 0 0 1-.989c0-.388-.121-.583-.611-.989-2.026-1.674-4.157-2.783-6.587-3.429a16.931 16.931 0 0 0-2.442-.467c-.565-.072-2.755-.105-3.38-.05m4.5 5.472a1.065 1.065 0 0 0-.66.589c-.075.18-.078.574-.005.748.07.167.285.414.423.485.058.03.339.139.624.242.991.358 1.792.8 2.758 1.52.484.36.612.419.918.419.71 0 1.191-.795.866-1.432-.256-.501-1.965-1.617-3.375-2.202-.828-.345-1.277-.451-1.549-.369m-3.46 9.559c-.34.158-.58.532-.58.904 0 .541.457.995 1 .992a.928.928 0 0 0 .733-.332.961.961 0 0 0 .22-.968c-.062-.205-.328-.504-.531-.597-.218-.099-.629-.098-.842.001" fill="#667085" fill-rule="evenodd"/></svg>