<svg width="24" height="24" fill="none" xmlns="http://www.w3.org/2000/svg"><path d="M10.76 3.545c-2.414.213-4.375.758-6.4 1.778-1.393.701-2.79 1.656-3.727 2.55-.228.217-.323.339-.37.477-.128.375-.062.726.188.997.273.297.59.406.951.329.216-.047.277-.09 1.142-.805A14.894 14.894 0 0 1 8.42 5.939c1.346-.322 2.038-.399 3.58-.399 1.542 0 2.234.077 3.58.399a14.894 14.894 0 0 1 5.876 2.932c.865.715.926.758 1.142.805.361.077.678-.032.951-.329.25-.271.316-.622.188-.997-.072-.212-.418-.562-1.079-1.092a17.091 17.091 0 0 0-7.578-3.473c-1.025-.189-1.545-.233-2.88-.245a36.638 36.638 0 0 0-1.44.005m-.1 5.037a11.986 11.986 0 0 0-5.837 2.307c-.88.656-1.079.905-1.081 1.351a.977.977 0 0 0 1.078.989c.269-.028.409-.101.78-.408a9.997 9.997 0 0 1 4.12-2.056c.827-.191 1.175-.225 2.28-.225 1.105 0 1.453.034 2.28.225a9.997 9.997 0 0 1 4.12 2.056c.371.307.511.38.78.408.4.041.762-.154.963-.519.149-.271.161-.641.028-.893-.107-.203-.445-.519-.994-.928a11.94 11.94 0 0 0-5.897-2.311c-.661-.07-1.967-.068-2.62.004m.295 4.997a7.2 7.2 0 0 0-2.86 1.122c-.518.345-.713.552-.799.847-.079.273-.044.51.118.78.177.294.431.445.783.465.325.018.436-.024.863-.332A4.908 4.908 0 0 1 12 15.52c1.075 0 2.015.295 2.894.908.4.28.529.332.817.332.928 0 1.331-1.178.605-1.768-.75-.609-1.858-1.119-2.94-1.354-.517-.112-1.89-.145-2.421-.059m.662 4.998c-.509.221-.751.837-.522 1.323.18.379.504.591.905.592a.98.98 0 0 0 .998-.992c0-.572-.415-.979-.998-.978a1.252 1.252 0 0 0-.383.055" fill="#667085" fill-rule="evenodd"/></svg>