<svg width="24" height="24" fill="none" xmlns="http://www.w3.org/2000/svg"><path d="M8.433 2.043a3.702 3.702 0 0 0-1.098.335 3.81 3.81 0 0 0-1.158.802c-.403.402-.5.722-.351 1.16.141.413.59.694 1.035.648.276-.028.407-.1.743-.409a1.99 1.99 0 0 1 3.363 1.116c.158 1.019-.5 2.01-1.491 2.243-.218.052-.795.061-3.939.061-4.145.001-3.924-.015-4.238.3a.984.984 0 0 0 0 1.402c.315.315.085.299 4.304.299 3.252 0 3.792-.008 4.082-.063 2.415-.458 3.882-2.913 3.107-5.197-.618-1.817-2.485-2.972-4.359-2.697m9.792 2.537a3.93 3.93 0 0 0-1.966 1.027c-.395.374-.477.528-.477.893 0 .329.09.534.323.739a.908.908 0 0 0 .631.251c.309.007.481-.072.814-.372.5-.45.866-.598 1.474-.598.411 0 .763.104 1.091.323.314.209.502.428.669.777.276.576.278 1.184.006 1.749a1.942 1.942 0 0 1-1.187 1.041c-.261.088-.289.088-3.603.109l-3.34.021-.14.087c-.597.372-.69 1.131-.195 1.601.302.286.111.271 3.535.284 3.287.012 3.653-.003 4.237-.172.692-.201 1.201-.51 1.743-1.059.432-.438.7-.852.905-1.396.817-2.177-.425-4.588-2.705-5.246-.392-.113-1.398-.146-1.815-.059M1.643 14.069C1.291 14.193 1 14.614 1 15c0 .242.119.521.299.701.321.321-.142.299 6.201.299 3.882 0 5.719.014 5.883.043.802.147 1.456.829 1.584 1.652.158 1.019-.5 2.01-1.491 2.243-.688.163-1.322-.013-1.872-.517-.336-.309-.467-.381-.743-.409-.572-.059-1.101.416-1.101.988 0 .293.116.52.424.828 1.062 1.062 2.668 1.442 4.076.964C15.873 21.244 17 19.684 17 18c0-1.962-1.504-3.685-3.455-3.957-.212-.029-2.126-.042-6.018-.04-5.062.003-5.727.01-5.884.066" fill="#667085" fill-rule="evenodd"/></svg>