<svg width="24" height="24" fill="none" xmlns="http://www.w3.org/2000/svg"><path d="M16.1 4.025c-1.193.099-2.307.356-4.32.996-2.551.811-3.587 1.017-4.854.967-.948-.038-1.597-.189-2.945-.687-.841-.31-.967-.334-1.278-.244-.709.206-.932 1.116-.404 1.644.18.18.346.254 1.461.646 1.392.49 2.163.632 3.44.631 1.527-.001 2.475-.19 5.02-.998 2.456-.779 3.326-.96 4.62-.957 1.098.002 1.613.111 3.133.661.505.183.936.316 1.023.316.245 0 .524-.118.705-.299a.985.985 0 0 0 .002-1.4c-.134-.134-.266-.203-.724-.378-1.215-.463-2.065-.708-2.859-.823-.419-.061-1.641-.106-2.02-.075m0 6c-1.182.098-2.32.359-4.26.977-2.602.828-3.642 1.037-4.914.986-.948-.038-1.597-.189-2.945-.687-.841-.31-.967-.334-1.278-.244-.709.206-.932 1.116-.404 1.644.18.18.346.254 1.461.646 1.392.49 2.163.632 3.44.631 1.527-.001 2.475-.19 5.02-.998 2.456-.779 3.326-.96 4.62-.957 1.098.002 1.613.111 3.133.661.505.183.936.316 1.023.316.245 0 .524-.118.705-.299a.985.985 0 0 0 .002-1.4c-.134-.134-.266-.203-.724-.378-1.215-.463-2.065-.708-2.859-.823-.419-.061-1.641-.106-2.02-.075m0 6c-1.182.098-2.32.359-4.26.977-2.602.828-3.642 1.037-4.914.986-.948-.038-1.597-.189-2.945-.687-.841-.31-.967-.334-1.278-.244-.709.206-.932 1.116-.404 1.644.18.18.346.254 1.461.646 1.392.49 2.163.632 3.44.631 1.527-.001 2.475-.19 5.02-.998 2.456-.779 3.326-.96 4.62-.957 1.098.002 1.613.111 3.133.661.505.183.936.316 1.023.316.245 0 .524-.118.705-.299a.985.985 0 0 0 .002-1.4c-.134-.134-.266-.203-.724-.378-1.215-.463-2.065-.708-2.859-.823-.419-.061-1.641-.106-2.02-.075" fill="#667085" fill-rule="evenodd"/></svg>