<svg width="24" height="24" fill="none" xmlns="http://www.w3.org/2000/svg"><path d="M10.62 3.022a9.935 9.935 0 0 1-.298.063c-.68.138-1.57.758-1.744 1.215-.103.268-.067.639.085.885.347.562 1.043.641 1.557.175.322-.291.43-.338.783-.339.268-.001.326.013.5.12.496.305.641.936.325 1.407a.965.965 0 0 1-.543.411C11.192 6.985 9.484 7 6.497 7c-5.219 0-4.88-.02-5.198.299A.984.984 0 0 0 1.3 8.702c.321.321-.043.301 5.403.289l4.837-.011.28-.094c.548-.184.892-.394 1.282-.784.399-.4.614-.756.784-1.302.135-.431.135-1.169 0-1.6a2.887 2.887 0 0 0-.784-1.302c-.303-.302-.424-.392-.742-.55a4.324 4.324 0 0 0-.62-.251c-.237-.062-.965-.11-1.12-.075m7.813 2.021a3.702 3.702 0 0 0-1.098.335 3.81 3.81 0 0 0-1.158.802c-.403.402-.5.722-.351 1.16.141.413.59.694 1.035.648.276-.028.407-.1.743-.409.499-.458 1.076-.643 1.701-.546.634.099 1.22.529 1.488 1.092.546 1.147-.1 2.527-1.317 2.813-.224.053-1.336.061-8.939.061-9.745.001-8.912-.026-9.238.3a.984.984 0 0 0 0 1.402c.326.326-.515.299 9.304.299 9.478 0 9.013.01 9.657-.208 1.862-.633 3.034-2.592 2.677-4.477-.405-2.133-2.398-3.581-4.504-3.272M1.643 15.068C1.29 15.194 1 15.614 1 16c0 .242.119.521.299.701.322.322-.203.299 6.718.301 6.658.002 6.308-.01 6.602.215.297.226.445.679.344 1.051a1.113 1.113 0 0 1-.485.612c-.146.082-.231.1-.478.099-.345-.001-.453-.046-.766-.325-.269-.238-.436-.306-.743-.303-.561.007-.972.429-.97.998.001.3.096.504.355.763a2.97 2.97 0 0 0 2.283.876c.76-.044 1.386-.33 1.943-.886.399-.4.614-.756.784-1.302.135-.431.135-1.169 0-1.6a2.887 2.887 0 0 0-.784-1.302c-.303-.302-.424-.392-.742-.55-.722-.358-.046-.327-7.2-.335-5.669-.007-6.359-.001-6.517.055" fill="#667085" fill-rule="evenodd"/></svg>