<svg width="24" height="24" fill="none" xmlns="http://www.w3.org/2000/svg"><path d="M6.643 6.069C6.291 6.193 6 6.614 6 7c0 .08.029.234.065.343.059.178.278.41 2.289 2.427L10.578 12l-2.224 2.23c-2.011 2.017-2.23 2.249-2.289 2.427-.129.39-.044.766.234 1.044s.654.363 1.044.234c.178-.059.41-.278 2.427-2.289L12 13.422l2.23 2.224c2.017 2.011 2.249 2.23 2.427 2.289.39.129.766.044 1.044-.234s.363-.654.234-1.044c-.059-.178-.278-.41-2.289-2.427L13.422 12l2.224-2.23c2.011-2.017 2.23-2.249 2.289-2.427.129-.39.044-.766-.234-1.044s-.654-.363-1.044-.234c-.178.059-.41.278-2.427 2.289L12 10.578 9.77 8.354c-2.017-2.011-2.249-2.23-2.427-2.289a1.032 1.032 0 0 0-.7.004" fill="#667085" fill-rule="evenodd"/></svg>