<svg width="24" height="24" fill="none" xmlns="http://www.w3.org/2000/svg"><path d="M10.68 3.987c-1.154.013-3.647.09-4.38.135-.883.054-1.64.145-2.157.26-1.269.282-2.257 1.181-2.635 2.398-.114.367-.316 1.713-.41 2.74-.088.961-.12 3.102-.061 4.1.072 1.223.21 2.428.379 3.307.208 1.08 1.035 2.067 2.101 2.505.882.362 2.207.481 6.353.573a84.03 84.03 0 0 0 4.26 0c4.493-.099 5.621-.217 6.57-.686a3.491 3.491 0 0 0 1.774-2.039c.104-.319.257-1.259.363-2.22a28.637 28.637 0 0 0-.179-7.5c-.104-.651-.203-1.007-.369-1.34-.417-.835-1.19-1.504-2.052-1.776-.85-.268-2.34-.373-6.317-.444a130.67 130.67 0 0 0-2.3-.03c-.088.004-.511.012-.94.017M13.92 6c2.141.039 3.041.077 4.36.183 1.269.102 1.535.17 1.881.483.282.255.399.517.502 1.128.2 1.183.336 2.855.336 4.146.001 1.783-.262 4.362-.499 4.887-.215.477-.65.774-1.283.873-1.544.243-5.808.384-9.247.305-1.904-.044-3.304-.11-4.344-.205-1.262-.116-1.501-.192-1.883-.601-.265-.284-.332-.466-.442-1.208-.401-2.694-.4-5.298.002-7.951.117-.769.227-1.048.52-1.318.37-.342.682-.42 2.137-.539a59.824 59.824 0 0 1 3.98-.181 492.46 492.46 0 0 0 1.74-.034c.099-.003 1.107.011 2.24.032M9.91 7.441c-.413.104-.811.43-1.014.831L8.78 8.5v6.96l.113.214c.325.618.967.949 1.632.842.274-.044.477-.137.774-.354.111-.08 1.137-.745 2.281-1.478a394.388 394.388 0 0 0 2.299-1.478c.897-.599.835-2.002-.112-2.551-.3-.173-3.95-2.52-4.366-2.806a4.838 4.838 0 0 0-.555-.339c-.203-.09-.707-.127-.936-.069m2.534 3.429c.92.588 1.673 1.082 1.674 1.096.002.019-3.099 2.029-3.348 2.17-.04.023-.05-.419-.05-2.154 0-1.2.012-2.182.026-2.182.015 0 .779.482 1.698 1.07" fill="#667085" fill-rule="evenodd"/></svg>