<svg width="24" height="24" fill="none" xmlns="http://www.w3.org/2000/svg"><path d="M12.76 1.027c-.341.119-.391.171-1.685 1.723-.708.849-1.329 1.617-1.38 1.707-.338.594.079 1.367.783 1.45.312.037.578-.074.852-.358.127-.131.23-.214.23-.184.001.03-.039.382-.088.782-.086.709-.086.734-.017.955.127.402.528.698.945.698.387 0 .808-.292.928-.643.033-.097.202-1.313.375-2.702l.315-2.525-.073-.23a1.01 1.01 0 0 0-1.185-.673M2.643 2.069C2.291 2.193 2 2.614 2 3c0 .08.029.234.065.343.059.178.28.413 2.32 2.458L6.64 8.062l-1.88 2.259c-2.152 2.585-2.182 2.629-2.177 3.177.005.457.118.73.433 1.046.172.171.315.271.484.34l.24.096 3.562.011 3.562.011-.441 3.534-.441 3.533.073.23a.997.997 0 0 0 1.023.692c.441-.042.373.028 2.772-2.852l2.21-2.655 2.2 2.193c1.988 1.981 2.219 2.199 2.397 2.258.39.129.766.044 1.045-.235a.986.986 0 0 0 .185-1.144c-.063-.129-2.503-2.593-9.216-9.301-8.441-8.436-9.146-9.13-9.328-9.19a1.038 1.038 0 0 0-.7.004m12.705 6.989a.985.985 0 0 0-.568.466 1.01 1.01 0 0 0 .487 1.406c.082.036.584.055 1.849.07l1.736.02-.572.68c-.315.374-.605.752-.645.84-.097.211-.096.589 0 .801.23.506.87.74 1.353.494.159-.081.36-.298 1.163-1.256 1.16-1.384 1.271-1.566 1.266-2.077-.004-.419-.114-.707-.382-1a1.42 1.42 0 0 0-.875-.46c-.417-.066-4.621-.052-4.812.016M9.96 12.99c-.88.006-2.322.006-3.205 0l-1.605-.01 1.455-1.748L8.06 9.484l1.75 1.748 1.75 1.748-1.6.01m4.627 3.13c-.246.343-2.13 2.558-2.138 2.514-.01-.05.427-3.657.495-4.089l.025-.155.833.832c.714.714.826.841.785.898" fill="#667085" fill-rule="evenodd"/></svg>