<svg width="24" height="24" fill="none" xmlns="http://www.w3.org/2000/svg"><path d="M12.657 1.064a1.085 1.085 0 0 0-.288.167c-.069.06-2.233 2.638-4.808 5.729-5.226 6.272-4.984 5.954-4.978 6.538.005.457.118.73.433 1.046.172.171.315.271.484.34l.24.096 3.562.011 3.562.011-.441 3.534-.441 3.533.073.23a.997.997 0 0 0 1.023.692c.456-.044.15.296 5.213-5.784 2.559-3.073 4.711-5.662 4.781-5.754a2.5 2.5 0 0 0 .238-.4c.09-.194.107-.287.106-.553-.003-.416-.113-.705-.381-.998a1.42 1.42 0 0 0-.875-.46C19.997 9.016 18.639 9 16.518 9h-3.383l.442-3.535.441-3.534-.073-.23a.997.997 0 0 0-1.288-.637m-1.38 6.644c-.272 2.181-.289 2.366-.239 2.544.073.261.241.48.47.615l.192.113 3.575.02 3.575.02-3.192 3.83c-1.755 2.107-3.199 3.822-3.21 3.812-.01-.01.114-1.079.276-2.375.293-2.355.294-2.358.226-2.572a.975.975 0 0 0-.5-.601l-.19-.094L8.705 13l-3.555-.02 3.192-3.83c1.755-2.107 3.199-3.822 3.21-3.812.01.01-.114 1.077-.275 2.37" fill="#667085" fill-rule="evenodd"/></svg>