<svg width="24" height="24" fill="none" xmlns="http://www.w3.org/2000/svg"><path d="M11.34 1.041c-4.765.295-8.813 3.645-9.979 8.256A10.993 10.993 0 0 0 1.36 14.7c.971 3.87 4.07 6.969 7.94 7.94 3.601.903 7.332-.032 10.095-2.531A11.058 11.058 0 0 0 22.64 14.7c1.084-4.322-.497-8.792-4.063-11.482a10.964 10.964 0 0 0-7.237-2.177m1.652 2.001c3.084.334 5.789 2.259 7.149 5.088.4.832.714 1.941.819 2.89.051.463.051 1.497 0 1.96a9.37 9.37 0 0 1-1.244 3.687c-.487.806-1.299 1.741-2.016 2.321a9.197 9.197 0 0 1-4.708 1.97 12.17 12.17 0 0 1-1.984 0A9.17 9.17 0 0 1 6.3 18.987a11.291 11.291 0 0 1-1.447-1.488 9.095 9.095 0 0 1-1.389-2.614A8.551 8.551 0 0 1 3 12c0-1.056.135-1.895.464-2.885.638-1.914 1.927-3.568 3.677-4.714 1.025-.671 2.553-1.214 3.819-1.357.439-.049 1.583-.05 2.032-.002m-1.415 1.559a1.232 1.232 0 0 0-.287.21c-.184.192-5.065 7.311-5.197 7.579-.099.203-.113.274-.113.61 0 .327.015.411.105.605.191.407.501.683.919.818.19.062.445.072 2.105.087l1.888.017.012 2.127c.011 2.092.012 2.129.097 2.286.048.088.147.218.22.288a.991.991 0 0 0 1.382-.038c.186-.195 5.067-7.31 5.198-7.578.101-.205.114-.276.114-.613 0-.349-.011-.403-.13-.645a1.515 1.515 0 0 0-.723-.708l-.227-.106-1.969-.012-1.968-.012-.012-2.148c-.011-2.123-.012-2.15-.099-2.312a1.21 1.21 0 0 0-.518-.481c-.199-.083-.603-.07-.797.026m-.471 6.339c.112.207.313.397.514.488.146.065.331.073 2.053.084 1.041.006 1.887.026 1.88.044-.007.018-.58.857-1.273 1.864l-1.26 1.831-.02-1.015c-.022-1.141-.037-1.205-.345-1.475-.28-.246-.233-.241-2.317-.241-1.578 0-1.902-.009-1.891-.054.007-.03.58-.878 1.273-1.886l1.26-1.831.02 1.015c.019.944.026 1.027.106 1.176" fill="#667085" fill-rule="evenodd"/></svg>