<svg width="24" height="24" fill="none" xmlns="http://www.w3.org/2000/svg"><path d="M5.9 2.025c-.991.083-1.531.257-2.2.708-.578.389-1.181 1.16-1.417 1.811-.279.77-.263.33-.263 7.456 0 6.02.004 6.442.072 6.773.223 1.094.826 1.987 1.746 2.582.418.269.858.445 1.389.553.331.068.753.072 6.773.072s6.442-.004 6.773-.072c1.094-.223 1.987-.826 2.582-1.746.269-.418.445-.858.553-1.389.068-.331.072-.753.072-6.773s-.004-6.442-.072-6.773c-.289-1.42-1.291-2.57-2.618-3.005-.611-.2-.432-.195-7.05-.203a802.572 802.572 0 0 0-6.34.006M17.801 4.04c.341.022.723.066.85.099.553.144 1.065.656 1.209 1.209.118.452.14 1.48.14 6.652 0 5.167-.022 6.2-.139 6.651-.142.544-.638 1.05-1.181 1.206-.442.126-1.17.142-6.68.142s-6.238-.016-6.68-.142c-.543-.156-1.039-.662-1.181-1.206C4.022 18.2 4 17.167 4 12c0-5.172.022-6.2.14-6.652.103-.397.416-.8.811-1.044.239-.148.575-.225 1.142-.261.734-.047 10.98-.05 11.708-.003m-5.988 1.004a.858.858 0 0 0-.518.283c-.151.16-4.705 6.366-4.981 6.788-.321.489-.387.87-.231 1.333.107.317.277.562.51.733.384.28.336.275 2.475.29l1.928.013.012 1.868c.013 2.07.009 2.032.284 2.323.375.396 1.046.396 1.413 0 .123-.133 4.625-6.259 4.938-6.719.219-.323.317-.569.345-.863.044-.47-.216-1.023-.606-1.291-.384-.265-.328-.259-2.45-.273l-1.928-.013-.012-1.868c-.013-2.056-.007-2-.269-2.298a.98.98 0 0 0-.91-.306m-.683 5.904a.978.978 0 0 0 .54.475c.117.042.559.054 2 .055 1.018.001 1.849.015 1.849.032-.001.017-.566.8-1.257 1.74l-1.255 1.71-.014-.85-.013-.85-.119-.215a1.184 1.184 0 0 0-.25-.314c-.267-.205-.299-.207-2.284-.209-1.2-.001-1.849-.016-1.84-.041a91.05 91.05 0 0 1 1.253-1.732l1.24-1.692.021.841c.02.819.024.848.129 1.05" fill="#667085" fill-rule="evenodd"/></svg>