<svg width="24" height="24" fill="none" xmlns="http://www.w3.org/2000/svg"><path d="M16.72 2.037a1.068 1.068 0 0 0-.449.27c-.234.247-6.999 9.768-7.141 10.051-.14.279-.15.322-.15.661 0 .328.012.388.13.627.25.508.664.775 1.301.836.203.02 1.283.036 2.401.037l2.032.001-.023.13c-.082.484-.821 6.183-.821 6.338.001.282.061.456.228.65.361.422.967.48 1.374.131.197-.169 7.096-9.814 7.262-10.153.324-.661.064-1.504-.587-1.905-.298-.184-.401-.191-2.822-.191-1.26 0-2.297-.013-2.306-.03-.009-.017.179-1.479.417-3.25.281-2.09.425-3.276.409-3.38-.088-.579-.712-.988-1.255-.823M3.527 5.624c-.343.171-.527.482-.527.89 0 .474.329.864.815.965.147.031 1.019.041 2.809.033L9.22 7.5l.191-.095a1.07 1.07 0 0 0 .53-.621c.074-.248.074-.32 0-.567a.995.995 0 0 0-.504-.598l-.194-.099H3.736l-.209.104m11.694 3.017C15.1 9.551 15 10.396 15 10.52c0 .404.222.728.622.909.144.065.367.073 2.522.091l2.365.02-1.98 2.771c-1.089 1.525-1.986 2.766-1.993 2.758-.008-.007.095-.827.228-1.821.235-1.757.24-1.813.18-2.017a.99.99 0 0 0-.507-.612l-.194-.099h-2.405c-1.323 0-2.399-.015-2.391-.034.039-.1 3.973-5.566 3.983-5.535.007.02-.087.781-.209 1.69M1.72 11.037a1.1 1.1 0 0 0-.665.589c-.067.161-.071.491-.009.7.061.2.279.453.488.565.166.089.173.089 2.622.1 2.702.012 2.673.015 2.972-.231.209-.172.352-.482.352-.761 0-.422-.316-.847-.711-.957-.174-.049-4.891-.053-5.049-.005m1.377 5.54c-.183.079-.41.294-.508.479-.065.123-.087.234-.087.444 0 .329.09.534.323.739.314.276.118.261 3.415.261h2.98l.191-.095a1.07 1.07 0 0 0 .53-.621c.074-.248.074-.32 0-.567a.995.995 0 0 0-.504-.598l-.194-.099-3.012.002c-2.426.001-3.035.012-3.134.055" fill="#667085" fill-rule="evenodd"/></svg>