<svg width="24" height="24" fill="none" xmlns="http://www.w3.org/2000/svg"><path d="M10.14 2.042c-2.157.222-4.067 1.15-5.603 2.724-3.061 3.136-3.386 8.033-.768 11.579.412.558 1.328 1.474 1.886 1.886 2.206 1.628 5.043 2.172 7.555 1.449a9.514 9.514 0 0 0 2.949-1.482 2.91 2.91 0 0 1 .35-.238c.016 0 .912.88 1.99 1.955 1.766 1.76 1.981 1.961 2.158 2.02.389.129.766.044 1.044-.234s.363-.655.234-1.044c-.059-.177-.26-.392-2.02-2.158-1.075-1.078-1.955-1.974-1.955-1.99 0-.016.107-.173.238-.35a9.22 9.22 0 0 0 1.691-3.839c.114-.614.124-1.956.02-2.62a9.006 9.006 0 0 0-.85-2.68 8.475 8.475 0 0 0-1.804-2.46A8.905 8.905 0 0 0 12.3 2.099c-.494-.076-1.676-.107-2.16-.057m1.546 2c2.442.247 4.487 1.663 5.592 3.872.811 1.622.936 3.602.338 5.363a8.193 8.193 0 0 1-.927 1.803c-.315.445-1.061 1.209-1.489 1.525a7.219 7.219 0 0 1-3.02 1.299c-.56.102-1.8.102-2.36 0-2.259-.41-4.073-1.77-5.098-3.818-.949-1.897-.949-4.275 0-6.172.582-1.163 1.405-2.096 2.438-2.765a7.007 7.007 0 0 1 4.526-1.107m-4.043 6.027C7.291 10.193 7 10.614 7 11c0 .242.119.521.299.701.311.312.157.299 3.701.299s3.39.013 3.701-.299a.984.984 0 0 0 0-1.402c-.312-.312-.154-.299-3.718-.296-2.757.003-3.186.011-3.34.066" fill="#667085" fill-rule="evenodd"/></svg>