<svg width="16" height="16" viewBox="0 0 16 16" fill="none" xmlns="http://www.w3.org/2000/svg">
<path d="M9.33325 6.00016H7.66659C7.1143 6.00016 6.66659 6.44788 6.66659 7.00016C6.66659 7.55245 7.1143 8.00016 7.66659 8.00016H8.33325C8.88554 8.00016 9.33325 8.44788 9.33325 9.00016C9.33325 9.55245 8.88554 10.0002 8.33325 10.0002H6.66659M7.99992 5.3335V6.00016M7.99992 10.0002V10.6668M11.9999 8.00016H12.0066M3.99992 8.00016H4.00659M1.33325 5.46683L1.33325 10.5335C1.33325 11.2802 1.33325 11.6536 1.47858 11.9388C1.60641 12.1897 1.81038 12.3937 2.06126 12.5215C2.34648 12.6668 2.71985 12.6668 3.46658 12.6668L12.5333 12.6668C13.28 12.6668 13.6534 12.6668 13.9386 12.5215C14.1895 12.3937 14.3934 12.1897 14.5213 11.9388C14.6666 11.6536 14.6666 11.2802 14.6666 10.5335V5.46683C14.6666 4.72009 14.6666 4.34673 14.5213 4.06151C14.3934 3.81063 14.1895 3.60665 13.9386 3.47882C13.6534 3.3335 13.28 3.3335 12.5333 3.3335L3.46659 3.3335C2.71985 3.3335 2.34648 3.3335 2.06126 3.47882C1.81038 3.60665 1.60641 3.81063 1.47858 4.06151C1.33325 4.34672 1.33325 4.72009 1.33325 5.46683ZM12.3333 8.00016C12.3333 8.18426 12.184 8.3335 11.9999 8.3335C11.8158 8.3335 11.6666 8.18426 11.6666 8.00016C11.6666 7.81607 11.8158 7.66683 11.9999 7.66683C12.184 7.66683 12.3333 7.81607 12.3333 8.00016ZM4.33325 8.00016C4.33325 8.18426 4.18401 8.3335 3.99992 8.3335C3.81582 8.3335 3.66659 8.18426 3.66659 8.00016C3.66659 7.81607 3.81582 7.66683 3.99992 7.66683C4.18401 7.66683 4.33325 7.81607 4.33325 8.00016Z" stroke="#667085" stroke-linecap="round" stroke-linejoin="round"/>
</svg>
