<svg width="16" height="16" viewBox="0 0 16 16" fill="none" xmlns="http://www.w3.org/2000/svg">
<g id="bank-note-03">
<path id="Icon" d="M9.33325 5.99967H7.66659C7.1143 5.99967 6.66659 6.44739 6.66659 6.99967C6.66659 7.55196 7.1143 7.99967 7.66659 7.99967H8.33325C8.88554 7.99967 9.33325 8.44739 9.33325 8.99967C9.33325 9.55196 8.88554 9.99967 8.33325 9.99967H6.66659M7.99992 5.33301V5.99967M7.99992 9.99967V10.6663M11.9999 7.99967H12.0066M3.99992 7.99967H4.00659M1.33325 5.46634L1.33325 10.533C1.33325 11.2797 1.33325 11.6531 1.47858 11.9383C1.60641 12.1892 1.81038 12.3932 2.06126 12.521C2.34648 12.6663 2.71985 12.6663 3.46658 12.6663L12.5333 12.6663C13.28 12.6663 13.6534 12.6663 13.9386 12.521C14.1895 12.3932 14.3934 12.1892 14.5213 11.9383C14.6666 11.6531 14.6666 11.2797 14.6666 10.533V5.46634C14.6666 4.71961 14.6666 4.34624 14.5213 4.06102C14.3934 3.81014 14.1895 3.60616 13.9386 3.47833C13.6534 3.33301 13.28 3.33301 12.5333 3.33301L3.46659 3.33301C2.71985 3.33301 2.34648 3.33301 2.06126 3.47833C1.81038 3.60616 1.60641 3.81014 1.47858 4.06102C1.33325 4.34624 1.33325 4.7196 1.33325 5.46634ZM12.3333 7.99967C12.3333 8.18377 12.184 8.33301 11.9999 8.33301C11.8158 8.33301 11.6666 8.18377 11.6666 7.99967C11.6666 7.81558 11.8158 7.66634 11.9999 7.66634C12.184 7.66634 12.3333 7.81558 12.3333 7.99967ZM4.33325 7.99967C4.33325 8.18377 4.18401 8.33301 3.99992 8.33301C3.81582 8.33301 3.66659 8.18377 3.66659 7.99967C3.66659 7.81558 3.81582 7.66634 3.99992 7.66634C4.18401 7.66634 4.33325 7.81558 4.33325 7.99967Z" stroke="#667085" stroke-linecap="round" stroke-linejoin="round"/>
</g>
</svg>
