<svg width="24" height="24" viewBox="0 0 24 24" fill="none" xmlns="http://www.w3.org/2000/svg">
<path d="M2.43597 5.18404L1.54497 4.73005H1.54497L2.43597 5.18404ZM4.18404 3.43597L3.73005 2.54497L3.73005 2.54497L4.18404 3.43597ZM19.816 20.564L19.362 19.673H19.362L19.816 20.564ZM21.564 18.816L20.673 18.362V18.362L21.564 18.816ZM4.18404 20.564L4.63803 19.673H4.63803L4.18404 20.564ZM2.43597 18.816L3.32698 18.362H3.32698L2.43597 18.816ZM18 8C18 8.55228 18.4477 9 19 9C19.5523 9 20 8.55228 20 8H18ZM20 2C20 1.44772 19.5523 1 19 1C18.4477 1 18 1.44772 18 2H20ZM16 4C15.4477 4 15 4.44772 15 5C15 5.55228 15.4477 6 16 6V4ZM22 6C22.5523 6 23 5.55228 23 5C23 4.44772 22.5523 4 22 4V6ZM15 12C15 13.6569 13.6569 15 12 15V17C14.7614 17 17 14.7614 17 12H15ZM12 15C10.3431 15 9 13.6569 9 12H7C7 14.7614 9.23858 17 12 17V15ZM9 12C9 10.3431 10.3431 9 12 9V7C9.23858 7 7 9.23858 7 12H9ZM12 9C13.6569 9 15 10.3431 15 12H17C17 9.23858 14.7614 7 12 7V9ZM8.4 22H15.6V20H8.4V22ZM1 9.4V14.6H3V9.4H1ZM23 14.6V11.5H21V14.6H23ZM12.5 2H8.4V4H12.5V2ZM3 9.4C3 8.26339 3.00078 7.47108 3.05118 6.85424C3.10062 6.24907 3.19279 5.90138 3.32698 5.63803L1.54497 4.73005C1.24318 5.32234 1.11737 5.96253 1.05782 6.69138C0.999222 7.40855 1 8.2964 1 9.4H3ZM8.4 2C7.2964 2 6.40855 1.99922 5.69138 2.05782C4.96253 2.11737 4.32234 2.24318 3.73005 2.54497L4.63803 4.32698C4.90138 4.19279 5.24907 4.10062 5.85424 4.05118C6.47108 4.00078 7.26339 4 8.4 4V2ZM3.32698 5.63803C3.6146 5.07354 4.07354 4.6146 4.63803 4.32698L3.73005 2.54497C2.78924 3.02433 2.02433 3.78924 1.54497 4.73005L3.32698 5.63803ZM15.6 22C16.7036 22 17.5914 22.0008 18.3086 21.9422C19.0375 21.8826 19.6777 21.7568 20.27 21.455L19.362 19.673C19.0986 19.8072 18.7509 19.8994 18.1458 19.9488C17.5289 19.9992 16.7366 20 15.6 20V22ZM21 14.6C21 15.7366 20.9992 16.5289 20.9488 17.1458C20.8994 17.7509 20.8072 18.0986 20.673 18.362L22.455 19.27C22.7568 18.6777 22.8826 18.0375 22.9422 17.3086C23.0008 16.5914 23 15.7036 23 14.6H21ZM20.27 21.455C21.2108 20.9757 21.9757 20.2108 22.455 19.27L20.673 18.362C20.3854 18.9265 19.9265 19.3854 19.362 19.673L20.27 21.455ZM8.4 20C7.26339 20 6.47108 19.9992 5.85424 19.9488C5.24907 19.8994 4.90138 19.8072 4.63803 19.673L3.73005 21.455C4.32234 21.7568 4.96253 21.8826 5.69138 21.9422C6.40855 22.0008 7.2964 22 8.4 22V20ZM1 14.6C1 15.7036 0.999222 16.5914 1.05782 17.3086C1.11737 18.0375 1.24318 18.6777 1.54497 19.27L3.32698 18.362C3.19279 18.0986 3.10062 17.7509 3.05118 17.1458C3.00078 16.5289 3 15.7366 3 14.6H1ZM4.63803 19.673C4.07354 19.3854 3.6146 18.9265 3.32698 18.362L1.54497 19.27C2.02433 20.2108 2.78924 20.9757 3.73005 21.455L4.63803 19.673ZM20 8V2H18V8H20ZM16 6H22V4H16V6Z" fill="#98A2B3"/>
</svg>
