<svg width="16" height="16" viewBox="0 0 16 16" fill="none" xmlns="http://www.w3.org/2000/svg">
<path d="M5.0005 1.33273C4.82369 1.33273 4.65412 1.40297 4.5291 1.52799C4.40408 1.65302 4.33384 1.82258 4.33384 1.99939C4.33384 2.1762 4.40408 2.34577 4.5291 2.47079C4.65412 2.59581 4.82369 2.66605 5.0005 2.66605H9.7335C11.227 2.66605 11.8805 2.69968 12.2413 2.8835C12.6176 3.07528 12.9245 3.38208 13.1163 3.75848C13.3001 4.11921 13.3337 4.7728 13.3337 6.26625V10.9993C13.3337 11.1761 13.4039 11.3456 13.529 11.4707C13.654 11.5957 13.8236 11.6659 14.0004 11.6659C14.1772 11.6659 14.3467 11.5957 14.4718 11.4707C14.5968 11.3456 14.667 11.1761 14.667 10.9993V6.26625C14.667 4.7728 14.7013 3.93315 14.3037 3.15303C13.9842 2.52591 13.4738 2.01557 12.8468 1.69604C12.0666 1.29858 11.227 1.33277 9.73354 1.33277L5.0005 1.33273ZM4.13331 3.66604C3.38658 3.66604 2.92119 3.63131 2.42633 3.88348C2.05007 4.07519 1.74307 4.38222 1.55134 4.75847C1.29917 5.25338 1.3339 5.71873 1.3339 6.46545V11.8664C1.3339 12.6132 1.29915 13.0786 1.55134 13.5734C1.74304 13.9496 2.04999 14.2567 2.42633 14.4484C2.92124 14.7006 3.38658 14.6659 4.13331 14.6659H9.53431C10.281 14.6659 10.7464 14.7006 11.2413 14.4484C11.6176 14.2567 11.9246 13.9497 12.1163 13.5734C12.3685 13.0785 12.3337 12.6132 12.3337 11.8664V6.46545C12.3337 5.71873 12.3685 5.25333 12.1163 4.75847C11.9246 4.38214 11.6175 4.07515 11.2413 3.88348C10.7464 3.63129 10.281 3.66604 9.53431 3.66604H4.13331ZM4.13331 4.99936H9.53431C10.281 4.99936 10.5604 5.03382 10.6358 5.07227C10.7613 5.13623 10.8636 5.23851 10.9275 5.36394C10.966 5.43945 11.0004 5.71875 11.0004 6.46546V11.8665C11.0004 12.6132 10.9659 12.8925 10.9275 12.968C10.8636 13.0934 10.7613 13.1957 10.6358 13.2596C10.5604 13.2981 10.281 13.3326 9.53431 13.3326H4.13331C3.38658 13.3326 3.10725 13.2981 3.03179 13.2596C2.90636 13.1957 2.80408 13.0935 2.74013 12.968C2.70167 12.8925 2.66721 12.6132 2.66721 11.8665V6.46546C2.66721 5.71873 2.70165 5.4394 2.74013 5.36394C2.80407 5.23843 2.90628 5.13622 3.03179 5.07227C3.1073 5.0338 3.38661 4.99936 4.13331 4.99936Z" fill="#1570EF"/>
</svg>
