<svg width="10" height="10" viewBox="0 0 10 10" fill="none" xmlns="http://www.w3.org/2000/svg">
<g id="vuesax/bulk/crown">
<g id="crown">
<path id="Vector" opacity="0.8" d="M6.78872 7.61715H3.21122C3.05372 7.61715 2.91122 7.5159 2.85872 7.36965L1.29872 3.0009C1.17497 2.65215 1.57247 2.3559 1.86872 2.56965L3.36872 3.64215C3.56747 3.78465 3.85247 3.6984 3.93872 3.46965L4.64747 1.57965C4.76747 1.2534 5.22872 1.2534 5.34872 1.57965L6.05747 3.46965C6.14372 3.70215 6.42497 3.78465 6.62747 3.64215L8.12747 2.56965C8.42747 2.3559 8.82122 2.6559 8.69747 3.0009L7.13747 7.36965C7.08872 7.5159 6.94622 7.61715 6.78872 7.61715Z" fill="url(#paint0_linear_5012_16636)"/>
<path id="Vector_2" d="M6.875 8.75H3.125C2.97125 8.75 2.84375 8.6225 2.84375 8.46875C2.84375 8.315 2.97125 8.1875 3.125 8.1875H6.875C7.02875 8.1875 7.15625 8.315 7.15625 8.46875C7.15625 8.6225 7.02875 8.75 6.875 8.75Z" fill="url(#paint1_linear_5012_16636)"/>
<path id="Vector_3" opacity="0.6" d="M5.9375 6.03125H4.0625C3.90875 6.03125 3.78125 5.90375 3.78125 5.75C3.78125 5.59625 3.90875 5.46875 4.0625 5.46875H5.9375C6.09125 5.46875 6.21875 5.59625 6.21875 5.75C6.21875 5.90375 6.09125 6.03125 5.9375 6.03125Z" fill="white"/>
</g>
</g>
<defs>
<linearGradient id="paint0_linear_5012_16636" x1="2.39231" y1="-2.76591" x2="9.23984" y2="-1.55027" gradientUnits="userSpaceOnUse">
<stop stop-color="#FEAD34"/>
<stop offset="1" stop-color="#FF7041"/>
</linearGradient>
<linearGradient id="paint1_linear_5012_16636" x1="3.49062" y1="7.82031" x2="5.25494" y2="9.8465" gradientUnits="userSpaceOnUse">
<stop stop-color="#FEAD34"/>
<stop offset="1" stop-color="#FF7041"/>
</linearGradient>
</defs>
</svg>
