<svg width="16" height="10" viewBox="0 0 16 10" fill="none" xmlns="http://www.w3.org/2000/svg">
<g id="Group">
<g id="Vector">
<path d="M15.2088 4.78271C15.2046 4.77034 15.1982 4.76025 15.1933 4.74835C15.1223 4.5617 15.0242 4.39144 14.9036 4.2454L13.521 2.59569C13.3851 2.43264 13.2235 2.30338 13.0455 2.21537C12.8675 2.12737 12.6767 2.08237 12.484 2.083H10.9333C10.9329 1.61903 10.7782 1.17421 10.5032 0.846131C10.2283 0.518054 9.85548 0.333517 9.46662 0.333008H2.62218C2.49252 0.333008 2.36817 0.394466 2.27648 0.503861C2.1848 0.613257 2.13329 0.761629 2.13329 0.916338C2.13329 1.07105 2.1848 1.21942 2.27648 1.32881C2.36817 1.43821 2.49252 1.49967 2.62218 1.49967H9.46662C9.59625 1.49981 9.72053 1.56131 9.81219 1.67068C9.90385 1.78004 9.9554 1.92833 9.95551 2.083V7.33297H6.44319C6.34357 6.99211 6.15753 6.69668 5.91088 6.48762C5.66423 6.27857 5.36917 6.16626 5.06663 6.16626C4.76408 6.16626 4.46902 6.27857 4.22237 6.48762C3.97572 6.69668 3.78968 6.99211 3.69006 7.33297H2.62218C2.49252 7.33297 2.36817 7.39443 2.27648 7.50382C2.1848 7.61322 2.13329 7.76159 2.13329 7.9163C2.13329 8.07101 2.1848 8.21938 2.27648 8.32878C2.36817 8.43818 2.49252 8.49963 2.62218 8.49963H3.69006C3.78968 8.84049 3.97572 9.13593 4.22237 9.34498C4.46902 9.55403 4.76408 9.66634 5.06663 9.66634C5.36917 9.66634 5.66423 9.55403 5.91088 9.34498C6.15753 9.13593 6.34357 8.84049 6.44319 8.49963H11.5123C11.6139 8.84741 11.8054 9.14773 12.0592 9.3573C12.313 9.56688 12.616 9.67489 12.9246 9.66577C13.2332 9.65665 13.5314 9.53086 13.7762 9.30655C14.021 9.08223 14.1998 8.77097 14.2868 8.41762C14.5883 8.31065 14.8529 8.09065 15.0414 7.79023C15.2298 7.4898 15.3322 7.12492 15.3333 6.74964V5.483C15.3329 5.2418 15.2905 5.00333 15.2088 4.78271ZM5.06663 8.49963C4.96993 8.49963 4.87541 8.46542 4.79501 8.40132C4.71462 8.33723 4.65195 8.24612 4.61495 8.13953C4.57795 8.03294 4.56827 7.91565 4.58713 7.8025C4.60599 7.68934 4.65256 7.5854 4.72093 7.50382C4.7893 7.42224 4.87641 7.36669 4.97125 7.34418C5.06608 7.32167 5.16438 7.33322 5.25372 7.37737C5.34305 7.42153 5.4194 7.49629 5.47312 7.59222C5.52684 7.68815 5.55551 7.80093 5.55551 7.9163C5.55544 8.07098 5.5039 8.2193 5.41224 8.32868C5.32057 8.43805 5.19626 8.49954 5.06663 8.49963ZM12.8888 8.49963C12.7922 8.49963 12.6976 8.46542 12.6172 8.40132C12.5368 8.33723 12.4742 8.24612 12.4372 8.13953C12.4002 8.03294 12.3905 7.91565 12.4094 7.8025C12.4282 7.68934 12.4748 7.5854 12.5431 7.50382C12.6115 7.42224 12.6986 7.36669 12.7935 7.34418C12.8883 7.32167 12.9866 7.33322 13.0759 7.37737C13.1653 7.42153 13.2416 7.49629 13.2953 7.59222C13.3491 7.68815 13.3777 7.80093 13.3777 7.9163C13.3777 8.07098 13.3261 8.2193 13.2345 8.32868C13.1428 8.43805 13.0185 8.49954 12.8888 8.49963ZM14.2081 7.16538C14.0848 6.85269 13.8863 6.5909 13.6378 6.41337C13.3893 6.23585 13.1022 6.15065 12.813 6.16863C12.5238 6.1866 12.2456 6.30695 12.0139 6.51433C11.7823 6.7217 11.6076 7.00669 11.5123 7.33297H10.9333V3.24966H12.484C12.6136 3.25024 12.7377 3.31163 12.8296 3.42058L13.6642 4.41632H12.4C12.2703 4.41632 12.1459 4.47778 12.0543 4.58717C11.9626 4.69657 11.9111 4.84494 11.9111 4.99965C11.9111 5.15436 11.9626 5.30273 12.0543 5.41213C12.1459 5.52152 12.2703 5.58298 12.4 5.58298H14.3555V6.74964C14.3555 6.82718 14.3424 6.90391 14.3171 6.97532C14.2917 7.04673 14.2547 7.11135 14.2081 7.16538Z" fill="#475467"/>
<path d="M5.55551 4.41634C5.55551 4.26163 5.50401 4.11326 5.41232 4.00386C5.32064 3.89447 5.19629 3.83301 5.06663 3.83301H1.15551C1.02585 3.83301 0.901503 3.89447 0.809818 4.00386C0.718134 4.11326 0.666626 4.26163 0.666626 4.41634C0.666626 4.57105 0.718134 4.71942 0.809818 4.82881C0.901503 4.93821 1.02585 4.99967 1.15551 4.99967H5.06663C5.19629 4.99967 5.32064 4.93821 5.41232 4.82881C5.50401 4.71942 5.55551 4.57105 5.55551 4.41634Z" fill="#475467"/>
<path d="M2.13329 3.24967H3.11107C3.24073 3.24967 3.36508 3.18821 3.45677 3.07881C3.54845 2.96942 3.59996 2.82105 3.59996 2.66634C3.59996 2.51163 3.54845 2.36326 3.45677 2.25386C3.36508 2.14447 3.24073 2.08301 3.11107 2.08301H2.13329C2.00363 2.08301 1.87928 2.14447 1.7876 2.25386C1.69591 2.36326 1.6444 2.51163 1.6444 2.66634C1.6444 2.82105 1.69591 2.96942 1.7876 3.07881C1.87928 3.18821 2.00363 3.24967 2.13329 3.24967Z" fill="#475467"/>
<path d="M3.11107 6.74967C3.24073 6.74967 3.36508 6.68821 3.45677 6.57882C3.54845 6.46942 3.59996 6.32105 3.59996 6.16634C3.59996 6.01163 3.54845 5.86326 3.45677 5.75386C3.36508 5.64447 3.24073 5.58301 3.11107 5.58301H2.13329C2.00363 5.58301 1.87928 5.64447 1.7876 5.75386C1.69591 5.86326 1.6444 6.01163 1.6444 6.16634C1.6444 6.32105 1.69591 6.46942 1.7876 6.57882C1.87928 6.68821 2.00363 6.74967 2.13329 6.74967H3.11107Z" fill="#475467"/>
</g>
</g>
</svg>
