<svg width="28" height="28" viewBox="0 0 28 28" fill="none" xmlns="http://www.w3.org/2000/svg">
<path d="M14 14.6668C14.3681 14.6668 14.6666 14.3684 14.6666 14.0002C14.6666 13.632 14.3681 13.3335 14 13.3335C13.6318 13.3335 13.3333 13.632 13.3333 14.0002C13.3333 14.3684 13.6318 14.6668 14 14.6668Z" stroke="#475467" stroke-width="1.66667" stroke-linecap="round" stroke-linejoin="round"/>
<path d="M18.6666 14.6668C19.0348 14.6668 19.3333 14.3684 19.3333 14.0002C19.3333 13.632 19.0348 13.3335 18.6666 13.3335C18.2984 13.3335 18 13.632 18 14.0002C18 14.3684 18.2984 14.6668 18.6666 14.6668Z" stroke="#475467" stroke-width="1.66667" stroke-linecap="round" stroke-linejoin="round"/>
<path d="M9.33329 14.6668C9.70148 14.6668 9.99996 14.3684 9.99996 14.0002C9.99996 13.632 9.70148 13.3335 9.33329 13.3335C8.9651 13.3335 8.66663 13.632 8.66663 14.0002C8.66663 14.3684 8.9651 14.6668 9.33329 14.6668Z" stroke="#475467" stroke-width="1.66667" stroke-linecap="round" stroke-linejoin="round"/>
</svg>
