<svg width="28" height="28" viewBox="0 0 28 28" fill="none" xmlns="http://www.w3.org/2000/svg">
<path d="M14 19.3332H20M8 19.3332H9.11636C9.44248 19.3332 9.60554 19.3332 9.75899 19.2963C9.89504 19.2637 10.0251 19.2098 10.1444 19.1367C10.279 19.0542 10.3943 18.9389 10.6249 18.7083L19 10.3332C19.5523 9.78087 19.5523 8.88544 19 8.33316C18.4477 7.78087 17.5523 7.78087 17 8.33316L8.62484 16.7083C8.39424 16.9389 8.27894 17.0542 8.19648 17.1888C8.12338 17.3081 8.0695 17.4381 8.03684 17.5742C8 17.7276 8 17.8907 8 18.2168V19.3332Z" stroke="#475467" stroke-width="1.66667" stroke-linecap="round" stroke-linejoin="round"/>
</svg>
