<svg width="20" height="20" viewBox="0 0 20 20" fill="none" xmlns="http://www.w3.org/2000/svg">
<g id="face-smile" clip-path="url(#clip0_5010_23548)">
<path id="Icon" d="M6.66669 11.666C6.66669 11.666 7.91669 13.3327 10 13.3327C12.0834 13.3327 13.3334 11.666 13.3334 11.666M12.5 7.49935H12.5084M7.50002 7.49935H7.50835M18.3334 9.99935C18.3334 14.6017 14.6024 18.3327 10 18.3327C5.39765 18.3327 1.66669 14.6017 1.66669 9.99935C1.66669 5.39698 5.39765 1.66602 10 1.66602C14.6024 1.66602 18.3334 5.39698 18.3334 9.99935ZM12.9167 7.49935C12.9167 7.72947 12.7301 7.91602 12.5 7.91602C12.2699 7.91602 12.0834 7.72947 12.0834 7.49935C12.0834 7.26923 12.2699 7.08268 12.5 7.08268C12.7301 7.08268 12.9167 7.26923 12.9167 7.49935ZM7.91669 7.49935C7.91669 7.72947 7.73014 7.91602 7.50002 7.91602C7.2699 7.91602 7.08335 7.72947 7.08335 7.49935C7.08335 7.26923 7.2699 7.08268 7.50002 7.08268C7.73014 7.08268 7.91669 7.26923 7.91669 7.49935Z" stroke="#667085" stroke-width="1.5" stroke-linecap="round" stroke-linejoin="round"/>
</g>
<defs>
<clipPath id="clip0_5010_23548">
<rect width="20" height="20" fill="white"/>
</clipPath>
</defs>
</svg>
