<svg width="173" height="172" viewBox="0 0 173 172" fill="none" xmlns="http://www.w3.org/2000/svg">
<g id="Frame 5">
<g id="Empty Cart">
<g id="Group 47197">
<g id="Group">
<g id="63">
<g id="Group 870">
<g id="Group 867">
<g id="Group_2">
<path id="Vector" d="M61.7389 100.298C61.742 100.352 61.7482 100.46 61.8057 100.51C61.8088 100.563 61.8694 100.667 61.8725 100.721C61.93 100.771 61.9362 100.879 61.9937 100.929C62.0512 100.979 62.1088 101.029 62.1694 101.132C62.4631 101.49 62.9713 101.778 63.5339 102.062C63.6458 102.108 63.8121 102.151 63.924 102.197C63.9815 102.247 64.0903 102.239 64.1478 102.289C64.2053 102.339 64.3141 102.331 64.3716 102.381L64.5923 102.42C64.8705 102.508 65.2031 102.593 65.5325 102.623C65.6988 102.666 65.8076 102.658 65.9739 102.7C66.0827 102.692 66.1946 102.739 66.3578 102.727C66.4666 102.719 66.5785 102.765 66.6873 102.758C67.5638 102.804 68.3766 102.692 69.0682 102.373C71.4632 101.285 72.3335 99.3322 72.3335 99.3322C72.3335 99.3322 72.9955 99.4475 74.0353 99.4819C76.009 99.6124 79.2945 99.7581 82.1075 99.2888C83.026 99.1157 83.9927 98.8311 85.0106 98.4889C85.3308 98.3582 85.6509 98.2275 86.0255 98.0929C86.6658 97.8315 87.2486 97.52 87.8858 97.2048C89.5829 96.3282 91.1557 95.1903 92.4503 93.9639C92.6072 93.8448 92.7611 93.6718 92.9181 93.5526C93.6392 92.7991 94.2484 91.9996 94.6944 91.2116C95.5772 89.4741 96.8018 87.9826 98.1384 86.5371C100.145 84.3959 102.547 82.4968 104.726 80.5055C105.402 79.9173 106.075 79.2754 106.697 78.691C108.713 76.7113 110.492 74.424 111.655 71.8563C112.913 69.0655 112.767 66.5364 112.379 63.5921C112.369 63.4307 111.931 61.5165 112.037 61.455C112.979 60.74 113.633 59.7751 113.948 58.6181C114.688 56.2964 114.194 53.4136 113.052 51.6034C112.93 51.3958 112.809 51.1883 112.691 51.0345C111.494 49.2281 110.061 47.1142 108.509 45.7653L105.691 43.3171L82.5188 44.9573C82.5188 44.9573 82.337 46.5372 82.0681 48.5013C82.0231 48.6666 82.0324 48.8281 81.9873 48.9933C81.9516 49.3201 81.9158 49.6468 81.8257 49.9774C81.7806 50.1427 81.7899 50.3041 81.7449 50.4694C81.748 50.5232 81.748 50.5232 81.6967 50.5809C81.6641 50.9614 81.5739 51.292 81.5413 51.6725C81.3859 52.7641 81.1699 53.752 80.8901 54.5823C80.8932 54.6361 80.8451 54.7476 80.8482 54.8014C80.7099 55.2434 80.5684 55.6317 80.4208 55.9123C79.2366 58.1034 72.9486 64.6 68.5208 68.3175C64.0931 72.0349 62.3043 77.943 61.6455 87.3372C60.8203 96.6891 61.4187 98.5379 61.7389 100.298Z" fill="#D6E2FF"/>
<path id="Vector_2" opacity="0.3" d="M61.7542 100.291C62.0208 102.06 66.5921 103.415 68.9947 102.325C71.4518 101.23 72.2703 99.2769 72.2703 99.2769C72.2703 99.2769 77.735 99.9736 82.0786 99.2874C85.334 98.7323 89.6449 96.532 92.3967 93.9005L91.5407 85.7295C91.5407 85.7295 90.7985 78.5794 90.2903 75.4744C89.8365 72.3655 92.3498 72.2419 92.0068 68.2046C91.6092 64.1711 92.8315 56.8821 94.5792 50.1517L86.8398 45.1752L81.9302 48.3925C81.595 51.124 80.973 54.5797 80.3353 55.8704C79.1473 58.0664 72.8392 64.5778 68.3974 68.3036C63.9555 72.0294 62.161 77.9509 61.5 87.3664C60.8328 96.674 61.433 98.527 61.7542 100.291Z" fill="#3370FF"/>
<path id="Vector_3" d="M61.7727 100.299C61.7758 100.353 61.7821 100.461 61.8395 100.511C61.8426 100.564 61.9032 100.668 61.9063 100.722C61.9638 100.772 61.97 100.879 62.0275 100.929C62.0849 100.979 62.1424 101.029 62.203 101.133C62.4965 101.49 63.0044 101.778 63.5667 102.062C63.6785 102.108 63.8447 102.151 63.9565 102.197C64.014 102.247 64.1227 102.239 64.1802 102.289C64.2377 102.339 64.3464 102.331 64.4039 102.381L64.6244 102.419C64.9024 102.508 65.2348 102.592 65.5641 102.623C65.7303 102.665 65.839 102.657 66.0052 102.7C66.7383 102.162 67.1546 101.808 67.1546 101.808C67.1546 101.808 67.1546 101.808 66.7165 99.8955C66.5736 99.3117 66.4183 98.5127 66.1931 97.4488C65.2285 93.0354 65.2083 84.1817 71.258 84.0235C70.3447 79.5526 72.5564 74.3745 74.5475 71.0479C76.5962 67.7712 78.3265 69.3766 80.3534 71.3929C80.518 70.4634 79.3282 66.8759 77.9459 63.734C80.5599 66.4648 82.7934 67.3326 88.6412 67.4587C85.9076 65.4923 85.5161 64.3862 83.1226 59.804C85.8578 60.8523 91.3779 61.9195 94.6644 62.1188C102.606 62.5827 109.379 61.7253 113.787 58.6596C114.527 56.3395 114.033 53.4587 112.891 51.6497C112.77 51.4423 112.649 51.2349 112.531 51.0813C108.323 51.0011 101.168 50.9136 94.4469 50.7953C89.5295 50.7114 84.8295 50.612 81.661 50.5663C81.6641 50.6201 81.6641 50.6201 81.6129 50.6777C81.5803 51.058 81.4902 51.3883 81.4576 51.7686C81.3023 52.8595 81.0864 53.8467 80.8068 54.6764C80.8099 54.7302 80.7618 54.8416 80.7649 54.8953C80.6266 55.3371 80.4853 55.7251 80.3377 56.0055C79.1542 58.195 72.87 64.6872 68.445 68.4021C64.02 72.117 62.2323 78.0209 61.5738 87.4087C60.8548 96.6927 61.4528 98.5402 61.7727 100.299Z" fill="#709BFF"/>
</g>
<g id="Group_3">
<path id="Vector_4" d="M107.741 56.8672C107.212 57.2712 106.628 57.6239 106.041 57.9227C105.241 58.3398 104.385 58.7057 103.526 59.0176C100.896 59.956 98.1432 60.522 95.3082 60.3893C92.9641 60.2869 90.5009 59.9199 88.288 59.0003C87.5149 58.7136 86.7375 58.3189 86.0688 57.9189C82.2215 55.5652 80.0812 53.7232 80.2293 49.1757C80.3773 44.6282 80.9478 41.1413 80.9478 41.1413C80.9873 40.761 81.4571 40.2517 81.6074 39.9201C81.8641 39.5293 82.0644 39.0872 82.3212 38.6964C82.7804 37.9174 83.2918 37.0818 83.8074 36.3541C84.9431 34.7855 86.3066 33.4762 87.9586 32.5853C90.6235 31.1587 93.7111 30.7927 96.7027 30.7556C98.8774 30.7041 101.113 30.8118 103.211 31.5749C105.033 32.2432 106.544 33.3049 107.85 34.7009C109.27 36.1995 110.319 37.9863 111.528 39.6573C111.528 39.6573 112.369 43.0758 112.873 47.5916C113.377 52.1075 111.387 54.0958 107.741 56.8672Z" fill="#EBF1FF"/>
<path id="Vector_5" d="M90.5038 48.1454C89.8729 48.7168 89.1341 50.6994 86.0989 49.657C81.7926 48.1355 82.0113 42.609 84.28 40.7684C88.3413 37.4347 92.6913 38.6837 93.5043 42.7542C94.328 47.0945 91.7677 47.0566 90.5038 48.1454Z" fill="#99B8FF"/>
<path id="Vector_6" d="M83.2412 34.2668C84.5998 32.7384 86.3134 33.3053 85.5122 35.1316C84.2088 38.0657 82.0772 39.3607 80.7677 50.4741C80.5174 52.4363 74.1705 47.815 74.6066 40.8605C74.6646 39.5577 76.2877 39.2082 76.2877 39.2082C77.2616 38.9984 81.0997 36.6998 83.2412 34.2668Z" fill="#3370FF"/>
<path id="Vector_7" d="M105.844 54.8993C105.897 56.2467 105.567 57.5587 104.958 58.6682C104.265 59.0258 103.516 59.3322 102.767 59.6385C100.46 60.4524 98.0321 60.9482 95.6352 60.8485C93.6204 60.7842 91.43 60.4045 89.4963 59.6343C88.6898 58.4854 88.259 57.2103 88.2019 55.7551C88.0283 51.3355 91.8513 47.5861 96.7367 47.3491C101.568 47.1147 105.67 50.4797 105.844 54.8993Z" fill="#99B8FF"/>
<path id="Vector_8" d="M88.0364 47.6688C89.8069 47.5829 91.1863 46.0875 91.1172 44.3288C91.0482 42.5701 89.5569 41.2141 87.7864 41.3C86.0159 41.3859 84.6365 42.8813 84.7056 44.64C84.7746 46.3987 86.2658 47.7547 88.0364 47.6688Z" fill="white"/>
<path id="Vector_9" d="M90.8039 44.6718C90.8569 46.0212 89.7603 47.21 88.4019 47.2759C87.0435 47.3418 85.8579 46.2638 85.805 44.9144C86.0308 45.1198 86.3088 45.2685 86.6348 45.2527C87.2326 45.2237 87.7569 44.7116 87.7314 44.0639C87.7081 43.4702 87.2 43.0081 86.6002 42.9832C87.0201 42.5842 87.6093 42.3393 88.207 42.3103C89.6198 42.2418 90.7489 43.2685 90.8039 44.6718Z" fill="#0049F5"/>
<path id="Vector_10" d="M105.78 46.892C107.55 46.806 108.929 45.3107 108.86 43.552C108.791 41.7933 107.3 40.4372 105.53 40.5231C103.759 40.6091 102.38 42.1044 102.449 43.8631C102.518 45.6218 104.009 46.9779 105.78 46.892Z" fill="white"/>
<path id="Vector_11" d="M102.79 44.1708C102.843 45.5201 104.028 46.5982 105.387 46.5323C106.745 46.4663 107.842 45.2775 107.789 43.9282C107.58 44.1546 107.315 44.3297 106.989 44.3455C106.391 44.3746 105.828 43.9152 105.803 43.2675C105.78 42.6738 106.25 42.1643 106.845 42.0813C106.396 41.7246 105.79 41.5377 105.192 41.5667C103.833 41.6326 102.735 42.7675 102.79 44.1708Z" fill="#0049F5"/>
<path id="Vector_12" d="M96.7366 47.8603C96.3027 47.8813 95.8709 47.9561 95.4413 48.0848C94.9052 48.2724 94.1023 48.5808 94.1297 49.2801C94.1636 50.1408 96.2563 50.8478 96.7987 50.8215C97.341 50.7952 99.3724 49.9423 99.3365 49.0278C99.3026 48.1671 98.4785 47.9376 97.7692 47.8642C97.4417 47.8261 97.0599 47.7907 96.7366 47.8603Z" fill="#0049F5"/>
<path id="Vector_13" d="M97.0227 50.6632L96.8481 50.4005L96.6948 50.6791C96.6948 50.6791 96.6054 52.5815 96.1917 53.1981C96.4798 53.5638 96.753 53.5506 96.8602 53.4911C97.0263 53.5373 97.2995 53.5241 97.5032 53.1346C97.154 52.6092 97.0227 50.6632 97.0227 50.6632Z" fill="#0049F5"/>
<path id="Vector_14" d="M87.2994 37.6087C86.5476 37.8613 85.9044 38.1087 85.3782 38.5665C84.8521 39.0244 84.4431 39.6927 84.2534 40.4044C84.2555 40.4584 84.2012 40.461 84.1469 40.4636C84.0926 40.4663 84.0904 40.4123 84.0904 40.4123C84.0756 40.0348 84.2216 39.5954 84.3718 39.2638C84.5199 38.8784 84.7787 38.5416 85.094 38.2561C85.4092 37.9706 85.7266 37.739 86.1004 37.5588C86.4763 37.4325 86.9087 37.3575 87.293 37.4469C87.3495 37.4982 87.4059 37.5495 87.2994 37.6087C87.3537 37.6061 87.3537 37.6061 87.2994 37.6087Z" fill="#3370FF"/>
<path id="Vector_15" d="M105.624 36.8221C106.393 37.001 107.053 37.1851 107.613 37.5902C108.173 37.9954 108.633 38.6215 108.878 39.3121C108.88 39.3661 108.934 39.3634 108.988 39.3608C109.043 39.3582 109.041 39.3042 109.041 39.3042C109.026 38.9267 108.846 38.5031 108.67 38.1874C108.493 37.8178 108.208 37.5073 107.872 37.2535C107.535 36.9996 107.201 36.7997 106.815 36.6563C106.43 36.5669 105.994 36.534 105.618 36.6603C105.566 36.7169 105.568 36.7708 105.624 36.8221C105.624 36.8221 105.57 36.8248 105.624 36.8221Z" fill="#3370FF"/>
<path id="Vector_16" d="M109.139 32.6197C107.666 31.2287 106.003 31.9594 106.944 33.7012C108.473 36.4979 110.698 37.5816 112.874 48.526C113.277 50.4564 119.237 45.2382 118.258 38.3524C118.098 37.0602 116.453 36.8691 116.453 36.8691C115.467 36.7545 111.463 34.8362 109.139 32.6197Z" fill="#3370FF"/>
</g>
<g id="Group_4">
<path id="Vector_17" d="M102.589 56.6194C102.975 59.3448 100.739 60.402 97.8089 60.7697C94.879 61.1373 92.4271 60.6683 92.0416 57.9429C91.6561 55.2174 93.6916 52.743 96.6216 52.3754C99.5516 52.0078 102.204 53.894 102.589 56.6194Z" fill="#EBF1FF"/>
</g>
</g>
</g>
</g>
<path id="Vector_18" d="M41.8024 49.5691C42.8061 49.5691 43.5868 48.6649 43.5868 47.6476C43.5868 46.6303 42.8061 45.7261 41.6909 45.7261C40.6871 45.7261 39.7949 46.5173 39.7949 47.6476C39.9064 48.6649 40.7987 49.5691 41.8024 49.5691Z" fill="#EBF1FF"/>
</g>
<path id="Vector_19" d="M39.8867 148H144.571" stroke="#C2D4FF" stroke-width="2" stroke-miterlimit="10" stroke-linejoin="round"/>
<path id="Vector_20" d="M27.98 148H36.9243" stroke="#C2D4FF" stroke-width="2" stroke-miterlimit="10" stroke-linejoin="round"/>
</g>
<g id="Group 47198">
<g id="Group_5">
<path id="Vector_21" d="M41.3792 47.9383L36.7349 48.873L40.1966 66.2955L44.8409 65.3607L41.3792 47.9383Z" fill="#3370FF"/>
<path id="Vector_22" d="M58.4497 66.4316L55.4358 51.0479H31.1091C30.0327 51.0479 29.1715 50.6146 28.5257 49.9645L26.8034 48.0145C26.1576 47.3645 26.5882 46.0645 27.6646 46.0645H57.3733C58.4497 46.0645 59.5261 46.9311 59.7414 48.0145L63.1859 65.3483L58.4497 66.4316Z" fill="#3370FF"/>
<path id="Vector_23" d="M129.277 147.684C133.914 147.684 137.673 143.9 137.673 139.233C137.673 134.566 133.914 130.783 129.277 130.783C124.64 130.783 120.881 134.566 120.881 139.233C120.881 143.9 124.64 147.684 129.277 147.684Z" fill="url(#paint0_linear_7813_23387)"/>
<path id="Vector_24" d="M70.0747 147.684C74.7116 147.684 78.4706 143.9 78.4706 139.233C78.4706 134.566 74.7116 130.783 70.0747 130.783C65.4377 130.783 61.6787 134.566 61.6787 139.233C61.6787 143.9 65.4377 147.684 70.0747 147.684Z" fill="url(#paint1_linear_7813_23387)"/>
<path id="Vector_25" d="M69.3446 119.233L64.7031 120.182L68.6465 139.717L73.2879 138.768L69.3446 119.233Z" fill="#3370FF"/>
<path id="Vector_26" d="M129.062 141.617H56.2968C55.2204 141.617 54.144 140.75 53.9287 139.667L48.762 114.533C48.5467 113.233 49.4078 111.933 50.6995 111.716C51.9912 111.5 53.2829 112.366 53.4982 113.666L58.2343 136.85H129.277C130.569 136.85 131.645 137.934 131.645 139.234C131.645 140.534 130.569 141.617 129.062 141.617Z" fill="#3370FF"/>
<path id="Vector_27" d="M55.8671 147.684C60.5041 147.684 64.2631 143.9 64.2631 139.233C64.2631 134.566 60.5041 130.783 55.8671 130.783C51.2302 130.783 47.4712 134.566 47.4712 139.233C47.4712 143.9 51.2302 147.684 55.8671 147.684Z" fill="url(#paint2_linear_7813_23387)"/>
<path id="Vector_28" d="M55.8667 143.35C58.1257 143.35 59.957 141.507 59.957 139.233C59.957 136.96 58.1257 135.117 55.8667 135.117C53.6077 135.117 51.7764 136.96 51.7764 139.233C51.7764 141.507 53.6077 143.35 55.8667 143.35Z" fill="#0049F5"/>
<path id="Vector_29" d="M115.068 147.684C119.705 147.684 123.464 143.9 123.464 139.233C123.464 134.566 119.705 130.783 115.068 130.783C110.431 130.783 106.672 134.566 106.672 139.233C106.672 143.9 110.431 147.684 115.068 147.684Z" fill="url(#paint3_linear_7813_23387)"/>
<path id="Vector_30" d="M115.068 143.35C117.327 143.35 119.159 141.507 119.159 139.233C119.159 136.96 117.327 135.117 115.068 135.117C112.809 135.117 110.978 136.96 110.978 139.233C110.978 141.507 112.809 143.35 115.068 143.35Z" fill="#0049F5"/>
<path id="Vector_31" d="M146.499 64.6982L137.673 115.616C137.027 118.866 134.444 121.033 131.214 121.033H55.4356C52.2064 121.033 49.623 118.866 48.9771 115.616L39.0742 64.6982H146.499Z" fill="#C2D4FF"/>
<path id="Vector_32" d="M84.0678 114.099C85.1443 114.099 86.2207 113.232 86.2207 111.932V74.0149C86.2207 72.9315 85.3595 71.8481 84.0678 71.8481C82.9914 71.8481 81.915 72.7148 81.915 74.0149V111.932C81.915 113.232 82.7762 114.099 84.0678 114.099Z" fill="#EBF1FF"/>
<path id="Vector_33" d="M95.0479 114.099C96.1243 114.316 97.2007 113.449 97.416 112.149L101.076 74.4483C101.291 73.3649 100.43 72.2816 99.1382 72.0649C98.0618 71.8482 96.9854 72.7149 96.7701 74.015L93.1104 111.716C93.1104 113.016 93.7562 113.883 95.0479 114.099Z" fill="#EBF1FF"/>
<path id="Vector_34" d="M106.242 113.883C107.319 114.099 108.395 113.233 108.61 112.149L115.499 74.8817C115.715 73.7983 114.854 72.7149 113.777 72.4983C112.701 72.2816 111.624 73.1483 111.409 74.2316L104.735 111.499C104.305 112.583 105.166 113.666 106.242 113.883Z" fill="#EBF1FF"/>
<path id="Vector_35" d="M72.8733 114.099C71.7969 114.316 70.7205 113.449 70.5052 112.149L66.8455 74.4483C66.6302 73.3649 67.4913 72.2816 68.783 72.0649C69.8594 71.8482 70.9358 72.7149 71.1511 74.015L74.8109 111.716C74.8109 113.016 74.165 113.883 72.8733 114.099Z" fill="#EBF1FF"/>
<path id="Vector_36" d="M61.679 113.883C60.6026 114.099 59.5262 113.233 59.3109 112.149L52.4219 74.8817C52.2066 73.7983 53.0677 72.7149 54.1441 72.4983C55.2205 72.2816 56.2969 73.1483 56.5122 74.2316L63.1859 111.499C63.6165 112.583 62.7554 113.666 61.679 113.883Z" fill="#EBF1FF"/>
</g>
<path id="Vector_37" d="M146.5 64.6973L137.674 115.615C137.028 118.865 134.445 121.032 131.215 121.032H111.194C114.854 121.032 117.868 118.432 118.514 114.965L127.771 64.6973H146.5Z" fill="#85A9FF"/>
</g>
</g>
</g>
<defs>
<linearGradient id="paint0_linear_7813_23387" x1="120.874" y1="139.235" x2="137.676" y2="139.235" gradientUnits="userSpaceOnUse">
<stop stop-color="#F1F6FF"/>
<stop offset="1" stop-color="#9DBEFF"/>
</linearGradient>
<linearGradient id="paint1_linear_7813_23387" x1="61.671" y1="139.235" x2="78.4737" y2="139.235" gradientUnits="userSpaceOnUse">
<stop stop-color="#F1F6FF"/>
<stop offset="1" stop-color="#9DBEFF"/>
</linearGradient>
<linearGradient id="paint2_linear_7813_23387" x1="47.4635" y1="139.235" x2="64.2662" y2="139.235" gradientUnits="userSpaceOnUse">
<stop stop-color="#F1F6FF"/>
<stop offset="1" stop-color="#9DBEFF"/>
</linearGradient>
<linearGradient id="paint3_linear_7813_23387" x1="106.665" y1="139.235" x2="123.467" y2="139.235" gradientUnits="userSpaceOnUse">
<stop stop-color="#F1F6FF"/>
<stop offset="1" stop-color="#9DBEFF"/>
</linearGradient>
</defs>
</svg>
