<svg width="173" height="172" viewBox="0 0 173 172" fill="none" xmlns="http://www.w3.org/2000/svg">
<path d="M138.875 63.124L73.1534 128.837C64.8286 137.17 51.3266 137.17 42.9932 128.837C34.6598 120.512 34.6598 107.001 42.9932 98.6764L108.706 32.9552C117.039 24.6304 130.541 24.6304 138.875 32.9552C147.199 41.2886 147.199 54.7906 138.875 63.124Z" fill="#EBF1FF"/>
<path d="M145.16 79.7478L92.7863 132.13C86.4567 138.46 76.1969 138.46 69.8673 132.13C63.5377 125.801 63.5377 115.541 69.8673 109.211L122.241 56.8288C128.571 50.4992 138.839 50.4992 145.16 56.8288C151.49 63.1584 151.49 73.4182 145.16 79.7478Z" fill="#EBF1FF"/>
<path d="M88.3406 40.936L42.0812 87.1954C37.7296 91.547 30.6862 91.547 26.3432 87.1954C22.0002 82.8524 22.0002 75.809 26.3432 71.466L72.6112 25.2066C76.9542 20.8636 83.9976 20.8636 88.3406 25.2066C92.6836 29.5496 92.6836 36.593 88.3406 40.936Z" fill="#EBF1FF"/>
<path d="M138.221 147.026C138.221 148.651 117.125 149.967 91.11 149.967C65.095 149.967 44.0078 148.651 44.0078 147.026C44.0078 145.409 65.095 144.093 91.11 144.093C117.125 144.093 138.221 145.409 138.221 147.026Z" fill="#C2D4FF"/>
<path d="M134.316 87.2384C134.316 89.1992 135.125 90.9794 136.423 92.2522C137.472 93.2842 138.848 93.9808 140.371 94.1958C140.93 94.2732 141.342 94.7548 141.342 95.3224V108.627C141.342 111.568 138.96 113.941 136.028 113.941H46.2005C43.2679 113.941 40.8857 111.568 40.8857 108.627V95.3224C40.8857 94.7548 41.2985 94.2732 41.8575 94.1958C45.2803 93.7228 47.9119 90.7816 47.9119 87.2384C47.9119 85.9398 47.5593 84.7272 46.9487 83.6866C45.8909 81.872 44.0333 80.5734 41.8575 80.2724C41.2985 80.195 40.8857 79.7048 40.8857 79.1458V67.1058C40.8857 64.1646 43.2679 61.7824 46.2005 61.7824H136.028C138.96 61.7824 141.342 64.1646 141.342 67.1058V79.1458C141.342 79.7048 140.93 80.195 140.371 80.2724C136.948 80.7454 134.316 83.6866 134.316 87.2384Z" fill="#3370FF"/>
<path d="M141.342 67.1058V79.1458C141.342 79.7048 140.929 80.195 140.37 80.2724C136.947 80.7454 134.316 83.6866 134.316 87.2384C134.316 89.1992 135.124 90.9794 136.423 92.2522C136.148 92.2579 135.872 92.2608 135.597 92.2608C115.559 92.2608 98.4967 79.5672 91.9951 61.7824H136.027C138.96 61.7824 141.342 64.1646 141.342 67.1058Z" fill="#2E90FA"/>
<path d="M112.851 75.5854C113.487 75.5854 113.995 75.078 113.995 74.4502V68.241C113.995 67.6132 113.487 67.1058 112.851 67.1058C112.223 67.1058 111.716 67.6132 111.716 68.241V74.4502C111.716 75.078 112.223 75.5854 112.851 75.5854Z" fill="white"/>
<path d="M112.851 92.106C113.487 92.106 113.995 91.5986 113.995 90.9622V84.7616C113.995 84.1338 113.487 83.6264 112.851 83.6264C112.223 83.6264 111.716 84.1338 111.716 84.7616V90.9622C111.716 91.5986 112.223 92.106 112.851 92.106Z" fill="white"/>
<path d="M112.851 108.627C113.487 108.627 113.995 108.111 113.995 107.483V101.282C113.995 100.654 113.487 100.138 112.851 100.138C112.223 100.138 111.716 100.654 111.716 101.282V107.483C111.716 108.111 112.223 108.627 112.851 108.627Z" fill="white"/>
<path fill-rule="evenodd" clip-rule="evenodd" d="M68.0016 87.505C65.8115 87.505 64.0456 86.731 62.704 85.183C61.3681 83.635 60.7002 81.5395 60.7002 78.8964C60.7002 76.282 61.3681 74.2094 62.704 72.6786C64.0456 71.1478 65.8115 70.3824 68.0016 70.3824C70.1917 70.3824 71.9576 71.1478 73.2992 72.6786C74.6351 74.2094 75.303 76.282 75.303 78.8964C75.303 81.5395 74.6351 83.635 73.2992 85.183C71.9576 86.731 70.1917 87.505 68.0016 87.505ZM67.0384 103.897C66.0981 105.118 65.2897 105.488 64.6132 105.006C63.908 104.524 63.9911 103.639 64.8626 102.349L86.8098 71.7842C87.2283 71.1707 87.6555 70.7694 88.0912 70.5802C88.5269 70.3853 88.9082 70.4168 89.235 70.6748C89.9746 71.2252 89.8915 72.0938 88.9856 73.2806L67.0384 103.897ZM68.0102 84.1252C69.2658 84.1252 70.2319 83.6723 70.9084 82.7664C71.5849 81.8663 71.9232 80.5763 71.9232 78.8964C71.9232 77.2567 71.5849 75.9839 70.9084 75.078C70.2319 74.1779 69.2658 73.7278 68.0102 73.7278C66.7202 73.7278 65.7369 74.1779 65.0604 75.078C64.3839 75.9839 64.0456 77.2567 64.0456 78.8964C64.0456 80.5763 64.3839 81.8663 65.0604 82.7664C65.7369 83.6723 66.7202 84.1252 68.0102 84.1252ZM85.8982 105.35C83.7425 105.35 81.9881 104.585 80.635 103.054C79.2762 101.523 78.5968 99.4504 78.5968 96.836C78.5968 94.2273 79.2762 92.149 80.635 90.601C81.9881 89.053 83.7425 88.279 85.8982 88.279C88.0941 88.279 89.8599 89.053 91.1958 90.601C92.5317 92.149 93.2025 94.2273 93.2082 96.836C93.2025 99.4504 92.5317 101.523 91.1958 103.054C89.8599 104.585 88.0941 105.35 85.8982 105.35ZM85.8982 102.065C87.1882 102.065 88.1715 101.612 88.848 100.706C89.5303 99.8059 89.8714 98.5159 89.8714 96.836C89.8714 95.1619 89.5303 93.8747 88.848 92.9746C88.1715 92.0687 87.1882 91.6158 85.8982 91.6158C84.6082 91.6158 83.6249 92.0687 82.9484 92.9746C82.2719 93.8747 81.9336 95.1619 81.9336 96.836C81.9336 98.5159 82.2719 99.8059 82.9484 100.706C83.6249 101.612 84.6082 102.065 85.8982 102.065Z" fill="white"/>
<path opacity="0.1" d="M76.8079 113.941H46.2005C43.2679 113.941 40.8857 111.559 40.8857 108.627V95.3224C40.8857 94.7548 41.2985 94.2732 41.8575 94.1958C45.2803 93.7228 47.9119 90.7816 47.9119 87.2298C47.9119 85.9398 47.5593 84.7272 46.9487 83.6866C63.4779 83.9016 76.8079 97.3692 76.8079 113.941Z" fill="white"/>
<path d="M93.0703 121.475C93.0703 135.588 104.508 147.026 118.621 147.026C132.734 147.026 144.18 135.588 144.18 121.475C144.18 107.362 132.734 95.9158 118.621 95.9158C104.508 95.9158 93.0703 107.362 93.0703 121.475Z" fill="#85A9FF"/>
<path d="M128.864 120.624V132.449C128.864 133.412 128.082 134.194 127.11 134.194H110.133C109.162 134.194 108.379 133.412 108.379 132.449V120.727C108.379 120.202 108.8 119.772 109.325 119.772L127.91 119.678C128.434 119.669 128.864 120.099 128.864 120.624Z" fill="white"/>
<path d="M130.378 115.206V116.831C130.378 117.657 129.715 118.319 128.89 118.319H108.353C107.536 118.319 106.865 117.657 106.865 116.831V115.206C106.865 114.38 107.536 113.718 108.353 113.718H128.89C129.715 113.718 130.378 114.38 130.378 115.206Z" fill="white"/>
<path d="M119.155 112.815C119.155 112.815 117.658 105.298 112.834 105.212C108.009 105.126 108.86 112.307 116.523 112.815H117.813C117.813 112.815 112.885 111.989 111.965 109.014C111.165 106.442 116.231 107.681 117.478 112.815H118.553H119.155Z" fill="white"/>
<path d="M116.162 111.516C115.629 111.396 114.958 111.284 114.493 111.215C114.448 111.209 114.407 111.192 114.373 111.164C114.253 111.069 114.141 110.957 114.038 110.854C113.883 110.699 113.995 110.433 114.218 110.441C114.872 110.45 115.577 110.553 116.067 110.708C116.119 110.725 116.162 110.759 116.196 110.802C116.265 110.906 116.342 111.026 116.42 111.146C116.54 111.327 116.377 111.559 116.162 111.516Z" fill="white"/>
<path d="M111.699 112.118C111.636 112.176 111.567 112.247 111.492 112.333C111.441 112.393 111.363 112.419 111.277 112.411C111.191 112.399 111.105 112.391 111.019 112.385C110.839 112.368 110.735 112.153 110.847 111.998C110.942 111.877 111.036 111.748 111.14 111.637C111.226 111.542 111.372 111.525 111.466 111.602C111.524 111.648 111.59 111.694 111.664 111.74C111.793 111.826 111.81 112.006 111.699 112.118Z" fill="white"/>
<path d="M117.856 112.815C117.856 112.815 119.344 105.298 124.169 105.212C128.993 105.126 128.151 112.307 120.479 112.815H119.189C119.189 112.815 124.126 111.989 125.046 109.014C125.837 106.442 120.78 107.681 119.525 112.815H118.458H117.856Z" fill="white"/>
<path d="M120.841 111.516C121.383 111.396 122.045 111.284 122.518 111.215C122.558 111.209 122.595 111.192 122.63 111.164C122.75 111.069 122.862 110.957 122.965 110.854C123.12 110.699 123.008 110.433 122.793 110.441C122.131 110.45 121.426 110.553 120.935 110.708C120.884 110.725 120.841 110.759 120.815 110.802C120.738 110.906 120.66 111.026 120.583 111.146C120.462 111.327 120.626 111.559 120.841 111.516Z" fill="white"/>
<path d="M125.304 112.118C125.373 112.176 125.441 112.247 125.51 112.333C125.562 112.393 125.648 112.419 125.725 112.411C125.811 112.399 125.897 112.391 125.983 112.385C126.172 112.368 126.267 112.153 126.155 111.998C126.069 111.877 125.966 111.748 125.863 111.637C125.777 111.542 125.639 111.525 125.536 111.602C125.479 111.648 125.416 111.694 125.347 111.74C125.209 111.826 125.192 112.006 125.304 112.118Z" fill="white"/>
<path fill-rule="evenodd" clip-rule="evenodd" d="M77.814 55.04C75.793 55.04 74.1504 53.3888 74.1504 51.3678C74.1504 49.3468 75.793 47.7042 77.814 47.7042C79.835 47.7042 81.4862 49.3468 81.4862 51.3678C81.4862 53.3888 79.835 55.04 77.814 55.04ZM77.814 49.321C76.6874 49.321 75.7586 50.2412 75.7586 51.3678C75.7586 52.503 76.6874 53.4232 77.814 53.4232C78.9492 53.4232 79.8694 52.503 79.8694 51.3678C79.8694 50.2412 78.9492 49.321 77.814 49.321Z" fill="#8ECAE6"/>
<path d="M130.798 48.7276C130.317 48.7276 129.93 48.332 129.93 47.8504V39.1128C129.93 38.6312 130.317 38.2442 130.798 38.2442C131.28 38.2442 131.675 38.6312 131.675 39.1128V47.8504C131.675 48.332 131.28 48.7276 130.798 48.7276Z" fill="#FFB703"/>
<path d="M135.168 44.3588H126.43C125.948 44.3588 125.553 43.9632 125.553 43.4816C125.553 43 125.948 42.613 126.43 42.613H135.168C135.649 42.613 136.045 43 136.045 43.4816C136.045 43.9632 135.649 44.3588 135.168 44.3588Z" fill="#FFB703"/>
<path d="M32.0195 137.497C31.5809 137.497 31.2197 137.136 31.2197 136.697V128.759C31.2197 128.321 31.5809 127.959 32.0195 127.959C32.4581 127.959 32.8107 128.321 32.8107 128.759V136.697C32.8107 137.136 32.4581 137.497 32.0195 137.497Z" fill="#219EBC"/>
<path d="M35.9839 133.524H28.0461C27.6075 133.524 27.2549 133.171 27.2549 132.732C27.2549 132.294 27.6075 131.933 28.0461 131.933H35.9839C36.4225 131.933 36.7837 132.294 36.7837 132.732C36.7837 133.171 36.4225 133.524 35.9839 133.524Z" fill="#219EBC"/>
<path d="M110.786 47.0506C110.786 48.0396 109.978 48.848 108.989 48.848C108 48.848 107.191 48.0396 107.191 47.0506C107.191 46.0616 108 45.2532 108.989 45.2532C109.978 45.2532 110.786 46.0616 110.786 47.0506Z" fill="#FB8500"/>
<path d="M34.6934 45.5714C34.6934 46.569 33.885 47.3688 32.896 47.3688C31.907 47.3688 31.0986 46.569 31.0986 45.5714C31.0986 44.5824 31.907 43.7826 32.896 43.7826C33.885 43.7826 34.6934 44.5824 34.6934 45.5714Z" fill="#023047"/>
<path d="M62.5922 123.943C62.5922 125.001 61.7322 125.861 60.6658 125.861C59.608 125.861 58.748 125.001 58.748 123.943C58.748 122.877 59.608 122.017 60.6658 122.017C61.7322 122.017 62.5922 122.877 62.5922 123.943Z" fill="#FFB703"/>
</svg>
