<svg width="16" height="16" viewBox="0 0 16 16" fill="none" xmlns="http://www.w3.org/2000/svg">
<path d="M9.33329 1.51314V4.26683C9.33329 4.6402 9.33329 4.82688 9.40595 4.96949C9.46987 5.09493 9.57186 5.19692 9.6973 5.26083C9.83991 5.3335 10.0266 5.3335 10.4 5.3335H13.1537M13.3333 6.65898V11.4668C13.3333 12.5869 13.3333 13.147 13.1153 13.5748C12.9236 13.9511 12.6176 14.2571 12.2413 14.4488C11.8134 14.6668 11.2534 14.6668 10.1333 14.6668H5.86663C4.74652 14.6668 4.18647 14.6668 3.75864 14.4488C3.38232 14.2571 3.07636 13.9511 2.88461 13.5748C2.66663 13.147 2.66663 12.5869 2.66663 11.4668V4.5335C2.66663 3.41339 2.66663 2.85334 2.88461 2.42552C3.07636 2.04919 3.38232 1.74323 3.75864 1.55148C4.18647 1.3335 4.74652 1.3335 5.86663 1.3335H8.00781C8.49699 1.3335 8.74158 1.3335 8.97176 1.38876C9.17583 1.43775 9.37092 1.51856 9.54986 1.62822C9.7517 1.7519 9.92465 1.92485 10.2706 2.27075L12.396 4.39624C12.7419 4.74214 12.9149 4.91509 13.0386 5.11693C13.1482 5.29587 13.229 5.49096 13.278 5.69503C13.3333 5.92521 13.3333 6.1698 13.3333 6.65898Z" stroke="#667085" stroke-width="1.2" stroke-linecap="round" stroke-linejoin="round"/>
</svg>
