<svg width="48" height="48" viewBox="0 0 48 48" fill="none" xmlns="http://www.w3.org/2000/svg">
<rect width="48" height="48" rx="8" fill="#ECFDF3"/>
<path d="M26.6666 17.333H29.783C30.1091 17.333 30.2722 17.333 30.4256 17.3698C30.5617 17.4025 30.6917 17.4564 30.811 17.5295C30.9456 17.6119 31.0609 17.7272 31.2915 17.9578L36.7085 23.3748C36.9391 23.6054 37.0544 23.7207 37.1368 23.8553C37.2099 23.9746 37.2638 24.1046 37.2965 24.2407C37.3333 24.3941 37.3333 24.5572 37.3333 24.8833V28.6663C37.3333 29.2876 37.3333 29.5982 37.2318 29.8433C37.0965 30.17 36.8369 30.4295 36.5102 30.5648C36.2652 30.6663 35.9545 30.6663 35.3333 30.6663M28.6666 30.6663H26.6666M26.6666 30.6663V17.5997C26.6666 16.1062 26.6666 15.3595 26.376 14.789C26.1203 14.2873 25.7124 13.8793 25.2106 13.6237C24.6402 13.333 23.8934 13.333 22.4 13.333H14.9333C13.4398 13.333 12.6931 13.333 12.1227 13.6237C11.6209 13.8793 11.2129 14.2873 10.9573 14.789C10.6666 15.3595 10.6666 16.1062 10.6666 17.5997V27.9997C10.6666 29.4724 11.8605 30.6663 13.3333 30.6663M26.6666 30.6663H21.3333M21.3333 30.6663C21.3333 32.8755 19.5424 34.6663 17.3333 34.6663C15.1242 34.6663 13.3333 32.8755 13.3333 30.6663M21.3333 30.6663C21.3333 28.4572 19.5424 26.6663 17.3333 26.6663C15.1242 26.6663 13.3333 28.4572 13.3333 30.6663M35.3333 31.333C35.3333 33.174 33.8409 34.6663 32 34.6663C30.159 34.6663 28.6666 33.174 28.6666 31.333C28.6666 29.4921 30.159 27.9997 32 27.9997C33.8409 27.9997 35.3333 29.4921 35.3333 31.333Z" stroke="#039855" stroke-width="2" stroke-linecap="round" stroke-linejoin="round"/>
</svg>
