<svg width="36" height="36" viewBox="0 0 36 36" fill="none" xmlns="http://www.w3.org/2000/svg">
<rect width="36" height="36" rx="6" fill="#ECFDF3"/>
<path opacity="0.4" d="M19.6659 13.0024C19.4449 13.0024 19.233 13.0902 19.0768 13.2465C18.9205 13.4027 18.8328 13.6146 18.8328 13.8356C18.8328 14.0566 18.9205 14.2685 19.0768 14.4248C19.233 14.5811 19.4449 14.6689 19.6659 14.6689H21.6137C21.8174 14.6689 21.8547 14.6771 21.8203 14.6689C21.7902 14.6504 21.8227 14.6713 21.9668 14.8153L25.3513 18.2003C25.4954 18.3443 25.5164 18.3771 25.4978 18.3467C25.4895 18.3125 25.4978 18.3497 25.4978 18.5534V20.918C25.4978 21.3062 25.466 21.4114 25.4978 21.3346C25.5746 21.3028 25.4694 21.3346 25.0812 21.3346C24.8603 21.3346 24.6484 21.4224 24.4921 21.5787C24.3359 21.7349 24.2481 21.9469 24.2481 22.1679C24.2481 22.3888 24.3359 22.6008 24.4921 22.757C24.6484 22.9133 24.8603 23.0011 25.0812 23.0011C25.4694 23.0011 25.7526 23.0328 26.1356 22.8742C26.5436 22.7051 26.8681 22.3806 27.0371 21.9726C27.1957 21.5895 27.164 21.3063 27.164 20.9181V18.5535C27.164 18.3498 27.1726 18.1839 27.1184 17.9579C27.0776 17.7877 27.0098 17.6253 26.9183 17.4762C26.7967 17.2776 26.6734 17.1662 26.5294 17.0221L23.1448 13.6371C23.0007 13.493 22.889 13.3697 22.6908 13.2482C22.5419 13.1569 22.3793 13.0889 22.2092 13.048C21.983 12.9937 21.8173 13.0025 21.6136 13.0025L19.6659 13.0024Z" fill="#099250"/>
<path d="M10.4275 11.2193L10.4275 11.2193C10.0514 11.4109 9.74421 11.7182 9.55252 12.0944L10.4275 11.2193ZM10.4275 11.2193C10.8627 10.9975 11.2539 10.9988 12.0453 11.0014C12.1359 11.0017 12.2319 11.002 12.3337 11.002H17.0006C17.1025 11.002 17.1985 11.0017 17.2893 11.0014C18.0805 10.9988 18.4716 10.9975 18.9068 11.2193L18.9068 11.2193C19.2829 11.4109 19.5902 11.7181 19.7818 12.0943L19.7818 12.0944C20.0036 12.5296 20.0023 12.9209 19.9997 13.7123C19.9994 13.803 19.9991 13.899 19.9991 14.0009V21.1777V22.5003M10.4275 11.2193L19.9991 22.5003M19.9991 22.5003H16.9973H16.6135L16.5143 22.8712C16.1867 24.0964 15.1214 25 13.834 25C12.456 25 11.3302 23.9667 11.1019 22.6144L11.0526 22.3221L10.7725 22.2251C9.91608 21.9287 9.33527 21.304 9.33527 20.5007V14.0009C9.33527 13.899 9.33495 13.803 9.33465 13.7123C9.33204 12.921 9.33075 12.5297 9.55252 12.0944L19.9991 22.5003ZM19.3327 21.8339H18.8328H16.9973H16.6134L16.5143 21.4631C16.1866 20.2379 15.1215 19.3342 13.834 19.3342C12.6231 19.3342 11.5959 20.1242 11.198 21.227L10.9162 22.0079L10.3577 21.3936C10.158 21.1739 10.0015 20.8699 10.0015 20.5007V14.0009C10.0015 13.5287 10.0123 13.1935 10.0305 12.9592C10.0396 12.8423 10.0511 12.7428 10.0659 12.6601C10.0787 12.5879 10.1005 12.4887 10.1471 12.3972L19.3327 21.8339ZM19.3327 21.8339V21.3339M19.3327 21.8339V21.3339M19.3327 21.3339V14.0009C19.3327 13.5287 19.3219 13.1935 19.3037 12.9592C19.2946 12.8423 19.2831 12.7428 19.2684 12.6601C19.2555 12.5878 19.2338 12.4887 19.1872 12.3972M19.3327 21.3339L19.1872 12.3972M12.3337 11.6685H17.0006C17.4727 11.6685 17.8079 11.6793 18.0422 11.6975C18.1591 11.7066 18.2585 11.7181 18.3412 11.7329C18.4135 11.7457 18.5126 11.7675 18.6042 11.8141L12.3337 11.6685ZM12.3337 11.6685C11.8616 11.6685 11.5264 11.6793 11.2921 11.6975C11.1752 11.7066 11.0758 11.7181 10.993 11.7329C10.9208 11.7458 10.8216 11.7675 10.7301 11.8141L12.3337 11.6685ZM19.1872 12.3972C19.0594 12.1463 18.8551 11.942 18.6042 11.8141L19.1872 12.3972ZM20.597 22.5003H20.3214L20.9336 21.425C21.3606 20.6749 22.1207 20.1674 22.9984 20.1674C24.3228 20.1674 25.4144 21.2591 25.4144 22.5837C25.4144 23.9083 24.3228 25 22.9984 25C21.8126 25 20.8395 24.0991 20.6615 22.9254L20.597 22.5003ZM10.7301 11.8141C10.4792 11.942 10.275 12.1462 10.1472 12.3971L10.7301 11.8141ZM16.0003 22.1671C16.0003 20.9608 15.0403 20.0007 13.834 20.0007C12.6277 20.0007 11.6678 20.9608 11.6678 22.1671C11.6678 23.3735 12.6277 24.3336 13.834 24.3336C15.0403 24.3336 16.0003 23.3735 16.0003 22.1671ZM24.7481 22.5837C24.7481 21.6075 23.9746 20.8339 22.9984 20.8339C22.0222 20.8339 21.2487 21.6075 21.2487 22.5837C21.2487 23.5599 22.0222 24.3336 22.9984 24.3336C23.9746 24.3336 24.7481 23.5599 24.7481 22.5837Z" fill="#099250" stroke="#099250" stroke-width="0.999987"/>
</svg>
