<svg width="19" height="20" viewBox="0 0 19 20" fill="none" xmlns="http://www.w3.org/2000/svg">
<path d="M5.83341 18.3334V9.16675M1.66675 10.8334V16.6667C1.66675 17.5872 2.41294 18.3334 3.33341 18.3334H14.522C15.7559 18.3334 16.8053 17.4331 16.9929 16.2136L17.8903 10.3802C18.1233 8.86583 16.9516 7.50008 15.4194 7.50008H12.5001C12.0398 7.50008 11.6667 7.12699 11.6667 6.66675V3.72161C11.6667 2.58674 10.7468 1.66675 9.61188 1.66675C9.3412 1.66675 9.0959 1.82616 8.98596 2.07352L6.05336 8.67186C5.91961 8.9728 5.62118 9.16675 5.29185 9.16675H3.33341C2.41294 9.16675 1.66675 9.91294 1.66675 10.8334Z" stroke="#98A2B3" stroke-width="1.66667" stroke-linecap="round" stroke-linejoin="round" fill="#FFFFFF"/>
</svg>
