<svg width="12" height="12" viewBox="0 0 12 12" fill="none" xmlns="http://www.w3.org/2000/svg">
<g clip-path="url(#clip0_1781_114899)">
<path d="M4.06301 7.00036C4.28503 7.86297 5.06808 8.50036 6 8.50036C6.93192 8.50036 7.71497 7.86297 7.93699 7.00036M5.50885 1.38237L2.1177 4.01993C1.89101 4.19624 1.77767 4.28439 1.69601 4.39479C1.62368 4.49259 1.5698 4.60276 1.53701 4.71989C1.5 4.85213 1.5 4.99571 1.5 5.28289V8.90036C1.5 9.46041 1.5 9.74044 1.60899 9.95435C1.70487 10.1425 1.85785 10.2955 2.04601 10.3914C2.25992 10.5004 2.53995 10.5004 3.1 10.5004H8.9C9.46005 10.5004 9.74008 10.5004 9.95399 10.3914C10.1422 10.2955 10.2951 10.1425 10.391 9.95435C10.5 9.74044 10.5 9.46041 10.5 8.90036V5.28289C10.5 4.99571 10.5 4.85213 10.463 4.71989C10.4302 4.60276 10.3763 4.49259 10.304 4.39479C10.2223 4.28439 10.109 4.19624 9.88231 4.01993L6.49115 1.38237C6.31549 1.24574 6.22766 1.17743 6.13067 1.15117C6.0451 1.128 5.9549 1.128 5.86933 1.15117C5.77234 1.17743 5.68451 1.24574 5.50885 1.38237Z" stroke="#2E90FA" stroke-width="1.5" stroke-linecap="round" stroke-linejoin="round"/>
</g>
<defs>
<clipPath id="clip0_1781_114899">
<rect width="12" height="12" fill="white"/>
</clipPath>
</defs>
</svg>
