<svg width="20" height="20" viewBox="0 0 20 20" fill="none" xmlns="http://www.w3.org/2000/svg">
<g id="Icon">
<path id="Icon_2" d="M6.66674 0.832031C6.44573 0.832031 6.23377 0.919827 6.0775 1.07611C5.92122 1.23238 5.83342 1.44434 5.83342 1.66535V2.51009C4.86743 2.51152 4.12994 2.53377 3.48645 2.86166C2.85934 3.18119 2.3493 3.69124 2.0298 4.3183C1.62376 5.11519 1.66685 5.93245 1.66685 7.3326V14.3312C1.66685 15.7313 1.62381 16.5486 2.0298 17.3455C2.34933 17.9726 2.85939 18.4826 3.48645 18.8021C4.28334 19.2082 5.1006 19.1651 6.50075 19.1651H13.4993C14.8995 19.1651 15.7167 19.2081 16.5136 18.8021C17.1407 18.4826 17.6508 17.9726 17.9703 17.3455C18.3763 16.5486 18.3332 15.7313 18.3332 14.3312V7.3326C18.3332 5.93245 18.3763 5.11521 17.9703 4.3183C17.6508 3.6912 17.1407 3.18115 16.5136 2.86166C15.8701 2.53382 15.1326 2.51153 14.1666 2.51009V1.66535C14.1666 1.44434 14.0789 1.23238 13.9226 1.07611C13.7663 0.919827 13.5543 0.832031 13.3333 0.832031C13.1123 0.832031 12.9004 0.919827 12.7441 1.07611C12.5878 1.23238 12.5 1.44434 12.5 1.66535V2.49868H7.50007V1.66535C7.50007 1.44434 7.41227 1.23238 7.25599 1.07611C7.09971 0.919827 6.88775 0.832031 6.66674 0.832031ZM7.50007 4.16532H12.5V4.99865C12.5 5.21966 12.5878 5.43161 12.7441 5.58789C12.9004 5.74417 13.1123 5.83197 13.3333 5.83197C13.5543 5.83197 13.7663 5.74417 13.9226 5.58789C14.0789 5.43161 14.1666 5.21966 14.1666 4.99865V4.21903C14.844 4.24011 15.5646 4.24972 15.7568 4.34761C16.0705 4.50744 16.3245 4.76144 16.4843 5.07514C16.6233 5.34778 16.6666 5.93247 16.6666 7.33262V7.49863H3.33345V7.33262C3.33345 5.93247 3.37682 5.34781 3.51574 5.07514C3.67557 4.76145 3.92958 4.50745 4.24327 4.34761C4.43533 4.24975 5.15601 4.24012 5.83342 4.21903V4.99865C5.83342 5.21966 5.92122 5.43161 6.0775 5.58789C6.23377 5.74417 6.44573 5.83197 6.66674 5.83197C6.88775 5.83197 7.09971 5.74417 7.25599 5.58789C7.41227 5.43161 7.50007 5.21966 7.50007 4.99865V4.16532ZM3.33345 9.16526H16.6666V14.3312C16.6666 15.7313 16.6233 16.3159 16.4843 16.5887C16.3245 16.9024 16.0705 17.1564 15.7568 17.3162C15.484 17.4552 14.8995 17.4985 13.4993 17.4985H6.50075C5.1006 17.4985 4.51594 17.4551 4.24327 17.3162C3.92957 17.1564 3.67557 16.9024 3.51574 16.5887C3.37677 16.3159 3.33345 15.7313 3.33345 14.3312V9.16526Z" fill="#667085"/>
</g>
</svg>
