<svg width="36" height="36" viewBox="0 0 36 36" fill="none" xmlns="http://www.w3.org/2000/svg">
<rect width="36" height="36" rx="6" fill="#FFF1F3"/>
<path opacity="0.4" d="M25.8195 13.5916C25.4475 13.6209 25.2409 13.7956 25.0822 13.9285C24.9234 14.0614 24.7854 14.2025 24.6069 14.381L21.578 17.41C21.4217 17.5662 21.334 17.7782 21.334 17.9992C21.334 18.2201 21.4217 18.4321 21.578 18.5884L24.6069 21.6173C24.7854 21.7958 24.9235 21.9369 25.0822 22.0698C25.2409 22.2027 25.4476 22.3774 25.8195 22.4067C26.2178 22.4382 26.6082 22.2761 26.8676 21.9721C27.1099 21.6885 27.1326 21.4183 27.1508 21.2121C27.1691 21.0058 27.1671 20.8086 27.1671 20.5561V15.4423C27.1671 15.1899 27.1691 14.9926 27.1508 14.7864C27.1326 14.5801 27.1099 14.31 26.8676 14.0263C26.6081 13.7223 26.2177 13.5603 25.8195 13.5916ZM25.5005 15.8442V20.154L23.3456 17.9991L25.5005 15.8442Z" fill="#D92D20"/>
<path d="M10.2375 22.317L10.2375 22.317C10.1199 22.0863 10.07 21.7859 10.0413 21.4236C10.0114 21.047 10.0007 20.5337 10.0007 19.8326V16.1673C10.0007 15.4661 10.0114 14.9528 10.0413 14.5762C10.0701 14.2139 10.1199 13.9136 10.2375 13.6828L10.2375 13.6828C10.4452 13.275 10.7757 12.9446 11.1835 12.7368C11.4142 12.6192 11.7146 12.5694 12.0769 12.5406C12.4535 12.5107 12.9668 12.5 13.668 12.5H18.1666C18.8677 12.5 19.3811 12.5107 19.7577 12.5406C20.1199 12.5694 20.4203 12.6192 20.6511 12.7368L20.4241 13.1823L20.6511 12.7368C21.0588 12.9446 21.3893 13.275 21.5971 13.6828C21.7147 13.9136 21.7645 14.214 21.7933 14.5762C21.8232 14.9528 21.8339 15.4661 21.8339 16.1673V19.8326C21.8339 20.5337 21.8232 21.047 21.7933 21.4237C21.7645 21.7859 21.7147 22.0863 21.5971 22.317M10.2375 22.317L10.683 22.0901C10.8428 22.4037 11.0968 22.6578 11.4105 22.8176M10.2375 22.317C10.4452 22.7248 10.7757 23.0553 11.1835 23.2631M10.2375 22.317L11.1835 23.2631M21.5971 22.317L21.1516 22.0901M21.5971 22.317C21.5971 22.317 21.5971 22.317 21.5971 22.317L21.1516 22.0901M21.5971 22.317C21.3893 22.7248 21.0588 23.0553 20.651 23.2631C20.651 23.2631 20.651 23.2631 20.651 23.2631L20.4241 22.8176M21.1516 22.0901C20.9918 22.4037 20.7378 22.6578 20.4241 22.8176M21.1516 22.0901C21.2906 21.8173 21.3339 21.2327 21.3339 19.8326V16.1673C21.3339 14.7671 21.2905 14.1825 21.1516 13.9098L20.4241 22.8176M20.4241 22.8176C20.1513 22.9566 19.5667 22.9999 18.1666 22.9999H13.668C12.2678 22.9999 11.6832 22.9565 11.4105 22.8176M11.4105 22.8176L11.1835 23.2631M11.4105 22.8176L11.1835 23.2631C11.1835 23.2631 11.1835 23.2631 11.1835 23.2631M9.64254 13.3799L9.64254 13.3799C9.9141 12.847 10.3476 12.4134 10.8807 12.1418C11.4927 11.83 12.1066 11.831 13.3432 11.833C13.4469 11.8332 13.5551 11.8333 13.668 11.8333H18.1666C18.2793 11.8333 18.3873 11.8332 18.491 11.833C19.7278 11.831 20.3418 11.83 20.9539 12.1418C21.4869 12.4134 21.9205 12.8469 22.192 13.3799L22.192 13.38C22.5039 13.9919 22.5029 14.6058 22.5008 15.8422C22.5007 15.9461 22.5005 16.0543 22.5005 16.1672V19.8325C22.5005 19.9454 22.5007 20.0535 22.5008 20.1572C22.5029 21.3939 22.5039 22.0078 22.192 22.6198L22.6375 22.8468L22.192 22.6199C21.9205 23.1529 21.4869 23.5864 20.9539 23.858L20.9539 23.858C20.3419 24.1698 19.7279 24.1688 18.4912 24.1668C18.3875 24.1666 18.2794 24.1664 18.1666 24.1664H13.668C13.555 24.1664 13.4468 24.1666 13.343 24.1668C12.1065 24.1688 11.4927 24.1698 10.8807 23.858L10.8807 23.858C10.3477 23.5864 9.91414 23.1529 9.64255 22.6199C9.33071 22.0078 9.33171 21.3938 9.33373 20.157C9.3339 20.0533 9.33408 19.9453 9.33408 19.8325V16.1672C9.33408 16.0544 9.3339 15.9462 9.33373 15.8425C9.33171 14.6059 9.3307 13.992 9.64254 13.3799Z" fill="#D92D20" stroke="#D92D20" stroke-width="0.999987"/>
</svg>
