<svg width="20" height="20" viewBox="0 0 20 20" fill="none" xmlns="http://www.w3.org/2000/svg">
<g id="Icon Leading">
<path id="Icon" d="M9.99997 1.66602C7.24842 1.66602 5.00003 3.9144 5.00003 6.66595V8.51818C4.77508 8.57192 4.53135 8.58774 4.3197 8.69559C3.6926 9.01508 3.18255 9.52514 2.86305 10.1522C2.45706 10.9491 2.5001 11.7664 2.5001 13.1665V13.4986C2.5001 14.8987 2.45706 15.7159 2.86305 16.5129C3.18258 17.14 3.69264 17.65 4.3197 17.9695C5.11659 18.3756 5.93384 18.3325 7.33399 18.3325H12.6659C14.0661 18.3325 14.8833 18.3755 15.6802 17.9695C16.3073 17.65 16.8174 17.1399 17.1369 16.5129C17.5429 15.716 17.4998 14.8987 17.4998 13.4986V13.1665C17.4998 11.7664 17.5429 10.9491 17.1369 10.1522C16.8174 9.52511 16.3073 9.01508 15.6802 8.69559C15.4686 8.58775 15.2248 8.57191 14.9999 8.51818V6.66595C14.9999 3.9144 12.7514 1.66602 9.99997 1.66602ZM9.99997 3.33266C11.8508 3.33266 13.3333 4.81514 13.3333 6.66595V8.34401C13.103 8.34367 12.9355 8.33262 12.666 8.33262H7.33402C7.06451 8.33262 6.89697 8.34368 6.66671 8.34401V6.66595C6.66671 4.81514 8.14916 3.33266 9.99997 3.33266ZM7.334 9.99924H12.6659C14.0661 9.99924 14.6507 10.0426 14.9234 10.1815C15.2371 10.3414 15.4911 10.5954 15.6509 10.9091C15.7899 11.1818 15.8332 11.7664 15.8332 13.1665V13.4986C15.8332 14.8987 15.7899 15.4833 15.6509 15.756C15.4911 16.0697 15.2371 16.3237 14.9234 16.4836C14.6506 16.6225 14.0661 16.6659 12.6659 16.6659H7.334C5.93385 16.6659 5.34919 16.6225 5.07653 16.4836C4.76283 16.3237 4.50883 16.0697 4.349 15.756C4.21002 15.4833 4.16671 14.8987 4.16671 13.4986V13.1665C4.16671 11.7664 4.21003 11.1818 4.349 10.9091C4.50883 10.5954 4.76283 10.3414 5.07653 10.1815C5.34917 10.0426 5.93385 9.99924 7.334 9.99924Z" fill="#475467"/>
</g>
</svg>
