<svg width="20" height="20" viewBox="0 0 20 20" fill="none" xmlns="http://www.w3.org/2000/svg">
<g clip-path="url(#clip0_1193_27453)">
<path d="M4.16699 11.9056C2.62419 12.5862 1.66699 13.5346 1.66699 14.5837C1.66699 16.6547 5.39795 18.3337 10.0003 18.3337C14.6027 18.3337 18.3337 16.6547 18.3337 14.5837C18.3337 13.5346 17.3765 12.5862 15.8337 11.9056M15.0003 6.66699C15.0003 10.0534 11.2503 11.667 10.0003 14.167C8.75033 11.667 5.00033 10.0534 5.00033 6.66699C5.00033 3.90557 7.2389 1.66699 10.0003 1.66699C12.7617 1.66699 15.0003 3.90557 15.0003 6.66699ZM10.8337 6.66699C10.8337 7.12723 10.4606 7.50033 10.0003 7.50033C9.54009 7.50033 9.16699 7.12723 9.16699 6.66699C9.16699 6.20676 9.54009 5.83366 10.0003 5.83366C10.4606 5.83366 10.8337 6.20676 10.8337 6.66699Z" stroke="#027A48" stroke-width="1.5" stroke-linecap="round" stroke-linejoin="round"/>
</g>
<defs>
<clipPath id="clip0_1193_27453">
<rect width="20" height="20" fill="white"/>
</clipPath>
</defs>
</svg>
