<svg width="17" height="16" viewBox="0 0 17 16" fill="none" xmlns="http://www.w3.org/2000/svg">
<path d="M5.75 7.00024H5.75667M8.75 7.00024H8.75667M11.75 7.00024H11.7567M5.41667 12.0002V13.5572C5.41667 13.9125 5.41667 14.0901 5.48949 14.1813C5.55282 14.2607 5.64885 14.3068 5.75036 14.3067C5.86708 14.3066 6.00578 14.1956 6.28317 13.9737L7.87348 12.7015C8.19834 12.4416 8.36078 12.3116 8.54166 12.2192C8.70213 12.1372 8.87295 12.0773 9.04948 12.0411C9.24845 12.0002 9.45646 12.0002 9.8725 12.0002H11.55C12.6701 12.0002 13.2302 12.0002 13.658 11.7823C14.0343 11.5905 14.3403 11.2845 14.532 10.9082C14.75 10.4804 14.75 9.92035 14.75 8.80024V5.20024C14.75 4.08014 14.75 3.52009 14.532 3.09226C14.3403 2.71594 14.0343 2.40998 13.658 2.21823C13.2302 2.00024 12.6701 2.00024 11.55 2.00024H5.95C4.8299 2.00024 4.26984 2.00024 3.84202 2.21823C3.46569 2.40998 3.15973 2.71594 2.96799 3.09226C2.75 3.52009 2.75 4.08014 2.75 5.20024V9.33358C2.75 9.95356 2.75 10.2635 2.81815 10.5179C3.00308 11.2081 3.54218 11.7472 4.23236 11.9321C4.4867 12.0002 4.79669 12.0002 5.41667 12.0002ZM6.08333 7.00024C6.08333 7.18434 5.9341 7.33358 5.75 7.33358C5.56591 7.33358 5.41667 7.18434 5.41667 7.00024C5.41667 6.81615 5.56591 6.66691 5.75 6.66691C5.9341 6.66691 6.08333 6.81615 6.08333 7.00024ZM9.08333 7.00024C9.08333 7.18434 8.9341 7.33358 8.75 7.33358C8.56591 7.33358 8.41667 7.18434 8.41667 7.00024C8.41667 6.81615 8.56591 6.66691 8.75 6.66691C8.9341 6.66691 9.08333 6.81615 9.08333 7.00024ZM12.0833 7.00024C12.0833 7.18434 11.9341 7.33358 11.75 7.33358C11.5659 7.33358 11.4167 7.18434 11.4167 7.00024C11.4167 6.81615 11.5659 6.66691 11.75 6.66691C11.9341 6.66691 12.0833 6.81615 12.0833 7.00024Z" stroke="#475467" stroke-width="1.66667" stroke-linecap="round" stroke-linejoin="round"/>
</svg>
