<svg width="20" height="20" viewBox="0 0 20 20" fill="none" xmlns="http://www.w3.org/2000/svg">
<path d="M16.6667 10.0001C16.6667 13.682 13.682 16.6667 10.0001 16.6667M16.6667 10.0001C16.6667 6.31818 13.682 3.33341 10.0001 3.33341M16.6667 10.0001H18.3334M10.0001 16.6667C6.31818 16.6667 3.33341 13.682 3.33341 10.0001M10.0001 16.6667V18.3334M3.33341 10.0001C3.33341 6.31818 6.31818 3.33341 10.0001 3.33341M3.33341 10.0001H1.66675M10.0001 3.33341V1.66675M12.5001 10.0001C12.5001 11.3808 11.3808 12.5001 10.0001 12.5001C8.61937 12.5001 7.50008 11.3808 7.50008 10.0001C7.50008 8.61937 8.61937 7.50008 10.0001 7.50008C11.3808 7.50008 12.5001 8.61937 12.5001 10.0001Z" stroke="#475467" stroke-width="1.66667" stroke-linecap="round" stroke-linejoin="round"/>
</svg>
