<svg width="36" height="36" viewBox="0 0 36 36" fill="none" xmlns="http://www.w3.org/2000/svg">
<rect width="36" height="36" rx="6" fill="#EFF8FF"/>
<g opacity="0.1">
<path d="M24.6667 20.4993C24.6667 20.0391 24.2936 19.666 23.8334 19.666C23.3731 19.666 23 20.0391 23 20.4993V22.166H21.3334C20.8731 22.166 20.5 22.5391 20.5 22.9993C20.5 23.4596 20.8731 23.8327 21.3334 23.8327H23V25.4993C23 25.9596 23.3731 26.3327 23.8334 26.3327C24.2936 26.3327 24.6667 25.9596 24.6667 25.4993V23.8327H26.3334C26.7936 23.8327 27.1667 23.4596 27.1667 22.9993C27.1667 22.5391 26.7936 22.166 26.3334 22.166H24.6667V20.4993Z" fill="#1570EF"/>
<path fill-rule="evenodd" clip-rule="evenodd" d="M18.1509 19.8023C18.3861 19.9221 18.5773 20.1133 18.6971 20.3485C18.8247 20.5989 18.8335 20.8724 18.8334 21.1467C18.8334 21.1533 18.8334 21.1597 18.8334 21.166C18.8334 22.3947 18.8329 23.6233 18.8334 24.852C18.8334 24.9512 18.8335 25.0698 18.8249 25.1742C18.815 25.2952 18.7897 25.4685 18.6971 25.6502C18.5773 25.8854 18.3861 26.0766 18.1509 26.1964C17.9692 26.289 17.7959 26.3144 17.6749 26.3242C17.5705 26.3328 17.4519 26.3327 17.3527 26.3327C15.0065 26.3318 12.6603 26.3318 10.3141 26.3327C10.2147 26.3327 10.0959 26.3328 9.99117 26.3242C9.86974 26.3142 9.69606 26.2887 9.51417 26.1957C9.27866 26.0753 9.08694 25.8827 8.96761 25.6466C8.8757 25.4648 8.85077 25.2916 8.84129 25.1698C8.83316 25.0653 8.83374 24.9468 8.83423 24.8481C8.83853 23.982 8.81271 23.0538 9.15055 22.2382C9.57344 21.2172 10.3846 20.4061 11.4055 19.9832C11.8303 19.8072 12.2788 19.7343 12.7861 19.6997C13.2795 19.666 13.8857 19.666 14.6371 19.666C15.5423 19.666 16.4475 19.6664 17.3527 19.666C17.627 19.6659 17.9005 19.6747 18.1509 19.8023Z" fill="#1570EF"/>
<path fill-rule="evenodd" clip-rule="evenodd" d="M20.1443 10.429C20.317 10.0024 20.8028 9.79651 21.2294 9.9692C22.7549 10.5867 23.8334 12.0827 23.8334 13.8327C23.8334 15.5826 22.7549 17.0787 21.2294 17.6962C20.8028 17.8689 20.317 17.663 20.1443 17.2364C19.9716 16.8098 20.1774 16.324 20.604 16.1513C21.5218 15.7798 22.1667 14.8806 22.1667 13.8327C22.1667 12.7848 21.5218 11.8856 20.604 11.5141C20.1774 11.3414 19.9716 10.8556 20.1443 10.429Z" fill="#1570EF"/>
<path fill-rule="evenodd" clip-rule="evenodd" d="M11.75 13.8327C11.75 11.5315 13.6155 9.66602 15.9167 9.66602C18.2179 9.66602 20.0834 11.5315 20.0834 13.8327C20.0834 16.1339 18.2179 17.9993 15.9167 17.9993C13.6155 17.9993 11.75 16.1339 11.75 13.8327Z" fill="#1570EF"/>
</g>
<path d="M21.0418 10.4322L21.0419 10.4322C22.3879 10.9771 23.3336 12.3015 23.3336 13.8327C23.3336 15.3638 22.388 16.6883 21.0419 17.2331L21.0418 17.2331C21.0012 17.2495 20.9578 17.2578 20.914 17.2575C20.8701 17.2571 20.8268 17.2481 20.7865 17.231L20.5967 17.6782L20.7865 17.231C20.7462 17.2139 20.7096 17.189 20.6789 17.1577C20.6483 17.1265 20.6241 17.0896 20.6077 17.0491C20.5747 16.9671 20.5755 16.8755 20.6101 16.7942C20.6446 16.7129 20.71 16.6486 20.7919 16.6155L20.7921 16.6154C21.8877 16.1719 22.667 15.1008 22.667 13.8326C22.667 12.5645 21.8878 11.4934 20.7921 11.0499L20.7919 11.0498C20.71 11.0167 20.6446 10.9524 20.6101 10.8711C20.5755 10.7898 20.5747 10.6981 20.6077 10.6162C20.6241 10.5757 20.6483 10.5387 20.6789 10.5075C20.7096 10.4763 20.7462 10.4514 20.7865 10.4343C20.8268 10.4172 20.8701 10.4082 20.914 10.4078C20.9578 10.4075 21.0012 10.4157 21.0418 10.4322ZM9.61307 22.4288L9.61307 22.4288C9.98506 21.5307 10.6985 20.8172 11.5967 20.4452C12.2763 20.1637 12.9675 20.1644 14.3597 20.1657C14.4585 20.1658 14.5609 20.1659 14.667 20.1659C14.6671 20.1659 14.6671 20.1659 14.6671 20.1659L18.0002 20.166H18.0002C18.0886 20.166 18.1734 20.2011 18.2359 20.2636C18.2984 20.3261 18.3336 20.4109 18.3336 20.4993C18.3336 20.5877 18.2984 20.6725 18.2359 20.735L18.5895 21.0886L18.2359 20.735C18.1734 20.7975 18.0886 20.8326 18.0002 20.8326H14.6669C13.8911 20.8326 13.3154 20.8405 12.8827 20.8696C12.4571 20.8981 12.1218 20.9494 11.852 21.0611C11.1166 21.3657 10.5335 21.9489 10.2289 22.6842C10.1171 22.954 10.0659 23.2894 10.0373 23.7149C10.0083 24.1476 10.0004 24.7233 10.0004 25.4992C10.0004 25.5876 9.96529 25.6724 9.90277 25.7349C9.84026 25.7974 9.75548 25.8325 9.66708 25.8325C9.57867 25.8325 9.49389 25.7974 9.43138 25.7349C9.36886 25.6724 9.33375 25.5876 9.33375 25.4992C9.33375 25.3932 9.33365 25.2909 9.33356 25.1922C9.33224 23.7997 9.33158 23.1084 9.61307 22.4288ZM23.0003 22.6658H23.5003V22.1658V20.4992C23.5003 20.4108 23.5354 20.326 23.5979 20.2635C23.6604 20.201 23.7452 20.1659 23.8336 20.1659C23.922 20.1659 24.0068 20.201 24.0693 20.2635C24.1318 20.326 24.1669 20.4108 24.1669 20.4992V22.1658V22.6658H24.6669H26.3336C26.422 22.6658 26.5068 22.701 26.5693 22.7635C26.6318 22.826 26.6669 22.9108 26.6669 22.9992C26.6669 23.0876 26.6318 23.1724 26.5693 23.2349C26.5068 23.2974 26.422 23.3325 26.3336 23.3325H24.6669H24.1669V23.8325V25.4991C24.1669 25.5875 24.1318 25.6723 24.0693 25.7348C24.0068 25.7973 23.922 25.8325 23.8336 25.8325C23.7452 25.8325 23.6604 25.7973 23.5979 25.7348C23.5354 25.6723 23.5003 25.5875 23.5003 25.4991V23.8325V23.3325H23.0003H21.3336C21.2452 23.3325 21.1605 23.2974 21.0979 23.2349C21.0354 23.1724 21.0003 23.0876 21.0003 22.9992C21.0003 22.9108 21.0354 22.826 21.0979 22.7635C21.1605 22.701 21.2452 22.6658 21.3336 22.6658H23.0003ZM12.2504 13.8326C12.2504 11.8175 13.9019 10.166 15.917 10.166C17.9321 10.166 19.5837 11.8175 19.5837 13.8326C19.5837 15.8478 17.9321 17.4993 15.917 17.4993C13.9019 17.4993 12.2504 15.8478 12.2504 13.8326ZM18.917 13.8326C18.917 12.1659 17.5837 10.8327 15.917 10.8327C14.2503 10.8327 12.9171 12.1659 12.9171 13.8326C12.9171 15.4993 14.2503 16.8326 15.917 16.8326C17.5837 16.8326 18.917 15.4993 18.917 13.8326Z" fill="#1570EF" stroke="#1570EF" stroke-width="0.999987"/>
</svg>
