<svg width="19" height="18" viewBox="0 0 19 18" fill="none" xmlns="http://www.w3.org/2000/svg">
<g id="package-search">
<path id="Icon" d="M15.875 5.45825L9.49998 8.99992M9.49998 8.99992L3.12498 5.45825M9.49998 8.99992L9.5 16.1249M16.25 8.99994V5.95603C16.25 5.69904 16.25 5.57055 16.2121 5.45595C16.1786 5.35457 16.1239 5.26151 16.0515 5.18299C15.9697 5.09424 15.8574 5.03184 15.6328 4.90704L10.0828 1.8237C9.87007 1.70553 9.76372 1.64645 9.65109 1.62329C9.55141 1.60278 9.4486 1.60278 9.34891 1.62329C9.23629 1.64645 9.12993 1.70554 8.91723 1.8237L3.36723 4.90704C3.14259 5.03184 3.03026 5.09424 2.94847 5.18299C2.87612 5.26151 2.82136 5.35457 2.78786 5.45595C2.75 5.57055 2.75 5.69904 2.75 5.95603V12.0439C2.75 12.3008 2.75 12.4293 2.78786 12.5439C2.82136 12.6453 2.87612 12.7384 2.94847 12.8169C3.03026 12.9056 3.14259 12.968 3.36723 13.0928L8.91723 16.1762C9.12993 16.2943 9.23628 16.3534 9.34891 16.3766C9.4486 16.3971 9.55141 16.3971 9.65109 16.3766C9.76372 16.3534 9.87007 16.2943 10.0828 16.1762L10.25 16.0833M6.125 3.37494L12.875 7.12494M17 16.1249L16.25 15.3749M17 13.4999C17 14.7426 15.9926 15.7499 14.75 15.7499C13.5074 15.7499 12.5 14.7426 12.5 13.4999C12.5 12.2573 13.5074 11.2499 14.75 11.2499C15.9926 11.2499 17 12.2573 17 13.4999Z" stroke="white" stroke-width="1.5" stroke-linecap="round" stroke-linejoin="round"/>
</g>
</svg>
