<svg width="18" height="18" viewBox="0 0 18 18" fill="none" xmlns="http://www.w3.org/2000/svg">
<g id="package-check">
<path id="Icon" d="M15.375 5.45825L8.99998 8.99992M8.99998 8.99992L2.62498 5.45825M8.99998 8.99992L9 16.1249M10.5 15.6666L9.58277 16.1762C9.37007 16.2943 9.26372 16.3534 9.15109 16.3766C9.05141 16.3971 8.9486 16.3971 8.84891 16.3766C8.73628 16.3534 8.62993 16.2943 8.41723 16.1762L2.86723 13.0928C2.64259 12.968 2.53026 12.9056 2.44847 12.8169C2.37612 12.7384 2.32136 12.6453 2.28786 12.5439C2.25 12.4293 2.25 12.3008 2.25 12.0439V5.95603C2.25 5.69904 2.25 5.57055 2.28786 5.45595C2.32136 5.35457 2.37612 5.26151 2.44847 5.18299C2.53026 5.09424 2.64259 5.03184 2.86723 4.90704L8.41723 1.8237C8.62993 1.70554 8.73629 1.64645 8.84891 1.62329C8.9486 1.60278 9.05141 1.60278 9.15109 1.62329C9.26372 1.64645 9.37007 1.70553 9.58277 1.8237L15.1328 4.90704C15.3574 5.03184 15.4697 5.09424 15.5515 5.18299C15.6239 5.26151 15.6786 5.35457 15.7121 5.45595C15.75 5.57055 15.75 5.69904 15.75 5.95603L15.75 9.37494M5.625 3.37494L12.375 7.12494M12 13.4999L13.5 14.9999L16.5 11.9999" stroke="#667085" stroke-width="1.5" stroke-linecap="round" stroke-linejoin="round"/>
</g>
</svg>
