<svg width="8" height="14" viewBox="0 0 8 14" fill="none" xmlns="http://www.w3.org/2000/svg">
<g id="PayPal">
<path id="Fill 7" fill-rule="evenodd" clip-rule="evenodd" d="M2.16639 13.4483L2.31994 11.9992L1.97789 11.9873H0.344543L1.47966 1.2937C1.4832 1.26132 1.49463 1.23126 1.51133 1.20987C1.5281 1.18849 1.54949 1.17676 1.57186 1.17676H4.32593C5.24031 1.17676 5.87127 1.45939 6.20066 2.01734C6.35511 2.27908 6.45347 2.55267 6.50109 2.85364C6.55101 3.16951 6.55184 3.54685 6.50315 4.00715L6.49961 4.04063V4.33561L6.65406 4.46563C6.78409 4.56815 6.88747 4.68546 6.96675 4.81975C7.09883 5.04361 7.18428 5.32808 7.22039 5.66521C7.25773 6.012 7.24539 6.42478 7.18428 6.89205C7.1138 7.42946 6.9999 7.89759 6.84602 8.28055C6.70456 8.63344 6.52428 8.92622 6.31021 9.15302C6.10583 9.36857 5.86305 9.53219 5.58852 9.63691C5.32247 9.7398 5.01915 9.79173 4.68648 9.79173H4.47216C4.31894 9.79173 4.17008 9.87372 4.05321 10.0207C3.93601 10.1708 3.85854 10.3758 3.83477 10.6L3.81857 10.7305L3.54725 13.2848L3.535 13.3785C3.53171 13.4082 3.52611 13.423 3.51789 13.433C3.51057 13.4422 3.50004 13.4483 3.48976 13.4483H2.16639Z" fill="#28356A"/>
<path id="Fill 8" fill-rule="evenodd" clip-rule="evenodd" d="M6.80045 4.0752C6.79231 4.15328 6.78285 4.23307 6.77233 4.31506C6.40914 7.0857 5.16653 8.04286 3.57957 8.04286H2.77153C2.57744 8.04286 2.41385 8.25217 2.38367 8.53664L1.85279 13.5399C1.83314 13.7267 1.93002 13.895 2.05684 13.895H3.49C3.65967 13.895 3.80384 13.7118 3.83057 13.4632L3.84464 13.355L4.11448 10.8108L4.13183 10.6713C4.15823 10.4217 4.30273 10.2384 4.4724 10.2384H4.68672C6.07523 10.2384 7.16224 9.40093 7.47995 6.97707C7.6126 5.96457 7.54393 5.1191 7.19275 4.52451C7.08649 4.34525 6.95466 4.19641 6.80045 4.0752Z" fill="#298FC2"/>
<path id="Fill 9" fill-rule="evenodd" clip-rule="evenodd" d="M6.42035 3.84993C6.36484 3.82586 6.3076 3.80411 6.24888 3.78443C6.18983 3.76525 6.12938 3.74826 6.06712 3.73335C5.84926 3.68106 5.61051 3.65625 5.35481 3.65625H3.19618C3.14297 3.65625 3.09247 3.67409 3.04732 3.70635C2.94772 3.77747 2.87379 3.9175 2.85586 4.08894L2.39661 8.41048L2.38345 8.53646C2.41364 8.25199 2.57722 8.04267 2.77131 8.04267H3.57935C5.16631 8.04267 6.40892 7.08503 6.77211 4.31488C6.78296 4.23289 6.79209 4.15309 6.80023 4.07501C6.70837 4.00255 6.60885 3.9406 6.50169 3.88781C6.47521 3.87473 6.4479 3.86215 6.42035 3.84993Z" fill="#22284F"/>
<path id="Fill 11" fill-rule="evenodd" clip-rule="evenodd" d="M2.85598 4.08911C2.8739 3.91767 2.94784 3.77764 3.04744 3.70701C3.09292 3.67463 3.14309 3.65679 3.1963 3.65679H5.35493C5.61062 3.65679 5.84938 3.68171 6.06724 3.73401C6.1295 3.7488 6.18994 3.76591 6.24899 3.78509C6.30772 3.80464 6.36496 3.82651 6.42047 3.85046C6.44802 3.86268 6.47533 3.87539 6.50206 3.88798C6.60922 3.94077 6.70882 4.00321 6.80068 4.07518C6.90875 3.05131 6.79978 2.35419 6.42722 1.72293C6.01641 1.02789 5.27507 0.730469 4.3264 0.730469H1.57224C1.37848 0.730469 1.21317 0.939788 1.18323 1.22475L0.0361084 12.0283C0.0134915 12.2421 0.124437 12.4349 0.269514 12.4349H1.96981L2.85598 4.08911Z" fill="#28356A"/>
</g>
</svg>
