<svg width="20" height="20" viewBox="0 0 20 20" fill="none" xmlns="http://www.w3.org/2000/svg">
<g id="globe-04">
<path id="Icon" d="M2.56328 6.23601L6.13665 8.78837C6.32259 8.92118 6.41556 8.98759 6.51286 9.00289C6.59847 9.01635 6.68615 9.00278 6.7637 8.96407C6.85182 8.92008 6.92037 8.82868 7.05747 8.64588L7.81255 7.63909C7.85132 7.5874 7.87071 7.56155 7.89349 7.53925C7.91372 7.51945 7.93592 7.50177 7.95974 7.48647C7.98656 7.46924 8.01608 7.45612 8.07513 7.42988L11.299 5.99707C11.4326 5.93767 11.4994 5.90798 11.5498 5.8616C11.5944 5.82057 11.6295 5.77033 11.6526 5.71436C11.6788 5.65108 11.6837 5.57812 11.6934 5.43221L11.9294 1.8915M11.25 11.2503L13.43 12.1846C13.6829 12.293 13.8094 12.3472 13.8764 12.4372C13.9351 12.5162 13.964 12.6135 13.958 12.7117C13.951 12.8237 13.8747 12.9382 13.7221 13.1672L12.6979 14.7035C12.6255 14.812 12.5893 14.8663 12.5415 14.9056C12.4992 14.9403 12.4505 14.9664 12.398 14.9824C12.3388 15.0003 12.2736 15.0003 12.1432 15.0003H10.4805C10.3077 15.0003 10.2213 15.0003 10.1478 14.9714C10.0829 14.9459 10.0254 14.9045 9.98064 14.851C9.92997 14.7904 9.90265 14.7084 9.84801 14.5445L9.25395 12.7623C9.22172 12.6656 9.20561 12.6173 9.20137 12.5681C9.19761 12.5246 9.20072 12.4807 9.21061 12.4381C9.22176 12.3901 9.24454 12.3445 9.29012 12.2533L9.74138 11.3508C9.83307 11.1674 9.87891 11.0758 9.94952 11.0188C10.0117 10.9687 10.0871 10.9375 10.1666 10.9289C10.2567 10.9193 10.354 10.9517 10.5485 11.0165L11.25 11.2503ZM18.3333 10.0003C18.3333 14.6027 14.6023 18.3337 9.99996 18.3337C5.39759 18.3337 1.66663 14.6027 1.66663 10.0003C1.66663 5.39795 5.39759 1.66699 9.99996 1.66699C14.6023 1.66699 18.3333 5.39795 18.3333 10.0003Z" stroke="#475467" stroke-width="1.2" stroke-linecap="round" stroke-linejoin="round"/>
</g>
</svg>
