<svg width="20" height="20" viewBox="0 0 20 20" fill="none" xmlns="http://www.w3.org/2000/svg">
<path d="M3.33325 17.5L3.33325 3.33333M3.33325 10.8333H9.49992C9.96663 10.8333 10.2 10.8333 10.3782 10.7425C10.535 10.6626 10.6625 10.5351 10.7424 10.3783C10.8333 10.2001 10.8333 9.96671 10.8333 9.5V3.83333C10.8333 3.36662 10.8333 3.13327 10.7424 2.95501C10.6625 2.79821 10.535 2.67072 10.3782 2.59083C10.2 2.5 9.96663 2.5 9.49992 2.5H4.66659C4.19987 2.5 3.96652 2.5 3.78826 2.59083C3.63146 2.67072 3.50397 2.79821 3.42408 2.95501C3.33325 3.13327 3.33325 3.36662 3.33325 3.83333V10.8333ZM10.8333 4.16667H16.1666C16.6333 4.16667 16.8667 4.16667 17.0449 4.25749C17.2017 4.33739 17.3292 4.46487 17.4091 4.62167C17.4999 4.79993 17.4999 5.03329 17.4999 5.5V11.1667C17.4999 11.6334 17.4999 11.8667 17.4091 12.045C17.3292 12.2018 17.2017 12.3293 17.0449 12.4092C16.8667 12.5 16.6333 12.5 16.1666 12.5H12.1666C11.6999 12.5 11.4665 12.5 11.2883 12.4092C11.1315 12.3293 11.004 12.2018 10.9241 12.045C10.8333 11.8667 10.8333 11.6334 10.8333 11.1667V4.16667Z" stroke="#98A2B3" stroke-width="1.66667" stroke-linecap="round" stroke-linejoin="round"/>
</svg>
