<svg width="20" height="20" viewBox="0 0 20 20" fill="none" xmlns="http://www.w3.org/2000/svg">
<path d="M13.3332 2.8898C14.5679 3.50343 15.4165 4.77762 15.4165 6.25C15.4165 7.72238 14.5679 8.99657 13.3332 9.6102M14.9998 13.972C16.2594 14.5419 17.3936 15.4708 18.3332 16.6667M1.6665 16.6667C3.28858 14.6021 5.49082 13.3333 7.9165 13.3333C10.3422 13.3333 12.5444 14.6021 14.1665 16.6667M11.6665 6.25C11.6665 8.32107 9.98757 10 7.9165 10C5.84544 10 4.1665 8.32107 4.1665 6.25C4.1665 4.17893 5.84544 2.5 7.9165 2.5C9.98757 2.5 11.6665 4.17893 11.6665 6.25Z" stroke="#667085" stroke-width="1.66667" stroke-linecap="round" stroke-linejoin="round"/>
</svg>
