<svg width="103" height="82" viewBox="0 0 103 82" fill="none" xmlns="http://www.w3.org/2000/svg">
<path opacity="0.1" d="M19.2784 81C19.0171 81 18.7691 80.9426 18.5419 80.8378L18.1228 81.7457C17.4126 81.4179 16.8474 80.797 16.5593 80.0249L17.4963 79.6754C17.403 79.4254 17.3506 79.1496 17.3506 78.8571C17.3506 78.5647 17.403 78.2889 17.4963 78.0389L16.5593 77.6894C16.8474 76.9173 17.4126 76.2964 18.1228 75.9686L18.5419 76.8765C18.7691 76.7716 19.0171 76.7143 19.2784 76.7143H20.0469V75.7143H21.584V76.7143H22.3526C22.7069 76.7143 23.0449 76.6357 23.3495 76.4951L22.9304 75.5872C23.2855 75.4232 23.5681 75.1128 23.7121 74.7268L24.649 75.0763C24.7578 74.7848 24.8165 74.4694 24.8165 74.1429C24.8165 73.9622 24.7994 73.7821 24.7657 73.6063L23.7836 73.7949C23.7378 73.5565 23.6452 73.335 23.5111 73.1565L24.3108 72.5561C24.1834 72.3864 24.0275 72.2285 23.8415 72.0965C23.3341 71.7363 22.833 71.3665 22.3386 70.9873L21.73 71.7808C20.7237 71.0089 19.7445 70.199 18.7943 69.353L19.4593 68.6061C18.5306 67.7792 17.6299 66.917 16.7591 66.0213L16.0421 66.7184C15.159 65.8101 14.3061 64.8683 13.4853 63.8947L14.2498 63.2501C13.4485 62.2998 12.6783 61.3185 11.9407 60.3083L11.133 60.8979C10.3865 59.8754 9.67292 58.8237 8.99409 57.7448L9.84049 57.2122C9.17882 56.1606 8.55068 55.0825 7.95774 53.9797L7.07698 54.4532C6.47795 53.3391 5.91426 52.2003 5.38756 51.0387L6.29831 50.6257C5.78533 49.4943 5.30802 48.3407 4.86798 47.1667L3.93159 47.5176C3.48803 46.3342 3.08171 45.1303 2.71417 43.9078L3.67182 43.6199C3.31448 42.4313 2.99443 41.2247 2.71315 40.0015L1.73859 40.2256C1.45563 38.9951 1.21126 37.7484 1.00693 36.4868L1.99407 36.327C1.79574 35.1025 1.63578 33.8638 1.51557 32.6124L0.52015 32.708C0.399549 31.4525 0.318293 30.1844 0.277726 28.9053L1.27722 28.8736C1.2575 28.2517 1.24756 27.6271 1.24756 27C1.24756 26.3119 1.25953 25.6269 1.28325 24.9452L0.283854 24.9104C0.332619 23.509 0.430228 22.1211 0.574907 20.7484L1.5694 20.8532C1.7138 19.4831 1.9059 18.1287 2.14383 16.7919L1.15931 16.6166C1.40469 15.238 1.69803 13.8775 2.03737 12.5375L3.00677 12.783C3.34433 11.45 3.72819 10.1375 4.15638 8.84782L3.20731 8.53274C3.64809 7.20508 4.13505 5.90095 4.66612 4.62257L5.5896 5.00621C6.11624 3.73849 6.68698 2.49666 7.29972 1.28296L6.40703 0.832283C7.03698 -0.415503 7.71057 -1.63419 8.42562 -2.82142L9.28225 -2.30549C9.98977 -3.48022 10.7385 -4.62347 11.5263 -5.73286L10.711 -6.31185C11.5193 -7.45006 12.3679 -8.55342 13.2547 -9.61946L14.0235 -8.97994C14.8995 -10.033 15.8132 -11.0487 16.7624 -12.0248L16.0455 -12.7219C17.0176 -13.7216 18.0264 -14.6805 19.0694 -15.5962L19.7291 -14.8447C20.7566 -15.7468 21.8178 -16.6058 22.9102 -17.4194L22.3129 -18.2214C23.4299 -19.0532 24.5791 -19.8386 25.7582 -20.5749L26.2879 -19.7267C27.4447 -20.449 28.6306 -21.1231 29.8433 -21.7463L29.3862 -22.6357C30.6223 -23.271 31.8858 -23.8546 33.1743 -24.384L33.5543 -23.459C34.8118 -23.9757 36.0934 -24.4395 37.3969 -24.8481L37.0978 -25.8023C38.4208 -26.2169 39.7659 -26.5759 41.1308 -26.8765L41.3459 -25.8999C42.6684 -26.1912 44.0098 -26.4267 45.3679 -26.6039L45.2385 -27.5955C46.6083 -27.7742 47.9948 -27.8948 49.3957 -27.9551L49.4387 -26.9561C50.1172 -26.9853 50.7992 -27 51.4844 -27C52.1697 -27 52.8516 -26.9853 53.5301 -26.9561L53.5731 -27.9551C54.974 -27.8948 56.3605 -27.7742 57.7303 -27.5955L57.6009 -26.6039C58.9591 -26.4267 60.3004 -26.1912 61.6229 -25.8999L61.838 -26.8765C63.2029 -26.5759 64.548 -26.2169 65.871 -25.8023L65.5719 -24.8481C66.8754 -24.4395 68.157 -23.9757 69.4145 -23.4591L69.7945 -24.384C71.083 -23.8546 72.3465 -23.271 73.5826 -22.6357L73.1255 -21.7463C74.3382 -21.1231 75.5241 -20.4491 76.6809 -19.7267L77.2106 -20.5749C78.3897 -19.8386 79.5389 -19.0533 80.6559 -18.2214L80.0586 -17.4194C81.151 -16.6058 82.2122 -15.7468 83.2397 -14.8447L83.8994 -15.5962C84.9424 -14.6805 85.9512 -13.7216 86.9233 -12.722L86.2064 -12.0248C87.1556 -11.0487 88.0693 -10.033 88.9453 -8.97995L89.7141 -9.61947C90.6009 -8.55343 91.4495 -7.45007 92.2578 -6.31186L91.4425 -5.73287C92.2303 -4.62348 92.979 -3.48023 93.6866 -2.3055L94.5432 -2.82143C95.2582 -1.6342 95.9318 -0.415514 96.5618 0.832272L95.6691 1.28295C96.2818 2.49665 96.8526 3.73848 97.3792 5.0062L98.3027 4.62256C98.8338 5.90094 99.3207 7.20508 99.7615 8.53274L98.8124 8.84782C99.2406 10.1375 99.6245 11.45 99.962 12.783L100.931 12.5375C101.271 13.8775 101.564 15.238 101.81 16.6166L100.825 16.7919C101.063 18.1287 101.255 19.4831 101.399 20.8532L102.394 20.7484C102.539 22.1211 102.636 23.509 102.685 24.9104L101.686 24.9452C101.709 25.6269 101.721 26.3119 101.721 27C101.721 27.6881 101.709 28.3731 101.686 29.0548L102.685 29.0896C102.636 30.491 102.539 31.879 102.394 33.2516L101.399 33.1468C101.255 34.5169 101.063 35.8713 100.825 37.2081L101.81 37.3834C101.564 38.7621 101.271 40.1225 100.931 41.4625L99.962 41.217C99.6245 42.55 99.2406 43.8625 98.8124 45.1522L99.7615 45.4673C99.3207 46.7949 98.8338 48.0991 98.3027 49.3774L97.3792 48.9938C96.8526 50.2615 96.2818 51.5033 95.6691 52.7171L96.5618 53.1677C95.9318 54.4155 95.2582 55.6342 94.5432 56.8214L93.6866 56.3055C92.979 57.4802 92.2303 58.6235 91.4425 59.7329L92.2578 60.3119C91.4496 61.4501 90.6009 62.5534 89.7141 63.6195L88.9453 62.9799C88.0693 64.033 87.1556 65.0487 86.2064 66.0248L86.9233 66.722C85.9512 67.7216 84.9424 68.6805 83.8994 69.5962L83.2397 68.8447C82.2122 69.7468 81.151 70.6058 80.0586 71.4194L80.6559 72.2214C79.5389 73.0533 78.3897 73.8386 77.2106 74.5749L76.6809 73.7267C75.5241 74.4491 74.3382 75.1231 73.1255 75.7463L73.5826 76.6357C72.3465 77.271 71.083 77.8546 69.7945 78.384L69.4145 77.4591C68.157 77.9757 66.8754 78.4395 65.5719 78.8481L65.871 79.8023C64.548 80.2169 63.2029 80.5759 61.838 80.8765L61.6229 79.8999C60.3004 80.1912 58.9591 80.4267 57.6009 80.6039L57.7303 81.5955C56.3605 81.7742 54.974 81.8948 53.5731 81.9551L53.5301 80.9561C52.8516 80.9853 52.1697 81 51.4844 81H49.4715V82H45.4458V81H41.42V82H37.3943V81H33.3685V82H29.3428V81H25.317V82H21.2913V81H19.2784Z" stroke="url(#paint0_linear_1135_2534)" stroke-width="2" stroke-dasharray="4 4"/>
<defs>
<linearGradient id="paint0_linear_1135_2534" x1="15.1062" y1="-28" x2="115.223" y2="-12.8302" gradientUnits="userSpaceOnUse">
<stop stop-color="#1879FF"/>
<stop offset="1" stop-color="#0658CC"/>
</linearGradient>
</defs>
</svg>
