<svg width="20" height="20" viewBox="0 0 20 20" fill="none" xmlns="http://www.w3.org/2000/svg">
<g id="Object">
<path id="Icon" d="M9.56375 1.30868C9.1727 1.41589 8.96297 1.61706 8.67018 1.84768L3.01758 6.29983C2.63978 6.59743 2.38579 6.78214 2.15659 7.09598C1.97577 7.34357 1.84143 7.62356 1.75946 7.92014C1.65556 8.29606 1.66669 8.61229 1.66669 9.09703V15.2041C1.66669 16.1494 1.62335 16.7385 1.93849 17.365C2.17812 17.8413 2.56181 18.23 3.03223 18.4727C3.65086 18.7919 4.23255 18.7479 5.16595 18.7479H14.8342C15.7676 18.7479 16.3492 18.7919 16.9679 18.4727C17.4382 18.23 17.822 17.8414 18.0616 17.365C18.3768 16.7385 18.3334 16.1494 18.3334 15.2041V9.09703C18.3334 8.61226 18.3445 8.29599 18.2407 7.92014C18.1587 7.62357 18.0242 7.3451 17.8435 7.09762C17.8435 7.09708 17.8435 7.09653 17.8435 7.09598C17.6143 6.7821 17.3604 6.59743 16.9825 6.29983L11.3299 1.84768C11.0372 1.61706 10.8274 1.41589 10.4364 1.30868C10.1511 1.23044 9.84901 1.23044 9.56375 1.30868ZM9.99994 2.93884C9.93223 2.92028 10.0148 2.94891 10.3076 3.1795L15.9585 7.63166C16.3363 7.92925 16.4608 8.04098 16.5037 8.09979C16.5641 8.18243 16.6082 8.27621 16.6356 8.37506C16.655 8.44558 16.6665 8.61226 16.6665 9.09703V15.2041C16.6665 16.1494 16.6235 16.5028 16.5753 16.5985C16.4955 16.7573 16.3676 16.8869 16.2108 16.9678C16.1164 17.0164 15.7672 17.0601 14.8339 17.0601H5.16564C4.23224 17.0601 3.88308 17.0165 3.78874 16.9678C3.63196 16.8869 3.50411 16.7574 3.42417 16.5985C3.376 16.5028 3.33302 16.1493 3.33302 15.2041V9.09703C3.33302 8.61226 3.34446 8.44553 3.36394 8.37506C3.39126 8.27621 3.4355 8.18231 3.49577 8.09979C3.53875 8.04094 3.66321 7.92926 4.04102 7.63166L9.69195 3.1795C9.98467 2.94891 10.0677 2.92029 9.99994 2.93884ZM6.66665 13.684C6.44564 13.684 6.23368 13.7729 6.0774 13.9312C5.92112 14.0894 5.83333 14.3041 5.83333 14.5279C5.83333 14.7517 5.92112 14.9664 6.0774 15.1247C6.23368 15.2829 6.44564 15.3719 6.66665 15.3719H13.3332C13.5542 15.3719 13.7662 15.2829 13.9225 15.1247C14.0788 14.9664 14.1666 14.7517 14.1666 14.5279C14.1666 14.3041 14.0788 14.0894 13.9225 13.9312C13.7662 13.7729 13.5542 13.684 13.3332 13.684H6.66665Z" fill="#344054"/>
</g>
</svg>
