<svg width="12" height="8" viewBox="0 0 12 8" fill="none" xmlns="http://www.w3.org/2000/svg">
<g id="Group">
<g id="Vector">
<path d="M11.4066 3.83728C11.4035 3.828 11.3987 3.82043 11.395 3.81151C11.3417 3.67152 11.2682 3.54383 11.1777 3.4343L10.1408 2.19701C10.0389 2.07473 9.91769 1.97778 9.78419 1.91177C9.65069 1.84577 9.50754 1.81202 9.36303 1.81249H8.2C8.19968 1.46452 8.08368 1.1309 7.87746 0.884842C7.67124 0.638785 7.39164 0.500382 7.1 0.5H1.96667C1.86942 0.5 1.77616 0.546093 1.70739 0.62814C1.63863 0.710187 1.6 0.821466 1.6 0.937498C1.6 1.05353 1.63863 1.16481 1.70739 1.24686C1.77616 1.3289 1.86942 1.375 1.96667 1.375H7.1C7.19722 1.3751 7.29043 1.42123 7.35918 1.50325C7.42792 1.58527 7.46658 1.69649 7.46667 1.81249V5.74997H4.83242C4.75771 5.49433 4.61818 5.27275 4.43319 5.11596C4.2482 4.95917 4.02691 4.87494 3.8 4.87494C3.57309 4.87494 3.3518 4.95917 3.16681 5.11596C2.98182 5.27275 2.84229 5.49433 2.76758 5.74997H1.96667C1.86942 5.74997 1.77616 5.79607 1.70739 5.87811C1.63863 5.96016 1.6 6.07144 1.6 6.18747C1.6 6.3035 1.63863 6.41478 1.70739 6.49683C1.77616 6.57888 1.86942 6.62497 1.96667 6.62497H2.76758C2.84229 6.88061 2.98182 7.10219 3.16681 7.25898C3.3518 7.41577 3.57309 7.5 3.8 7.5C4.02691 7.5 4.2482 7.41577 4.43319 7.25898C4.61818 7.10219 4.75771 6.88061 4.83242 6.62497H8.63424C8.71043 6.8858 8.85406 7.11104 9.04442 7.26822C9.23479 7.4254 9.46206 7.50641 9.69349 7.49957C9.92492 7.49273 10.1486 7.39839 10.3322 7.23016C10.5158 7.06192 10.6499 6.82847 10.7151 6.56346C10.9413 6.48323 11.1397 6.31823 11.2811 6.09291C11.4224 5.86759 11.4992 5.59393 11.5 5.31248V4.36249C11.4997 4.18159 11.4679 4.00274 11.4066 3.83728ZM3.8 6.62497C3.72748 6.62497 3.65659 6.59931 3.59629 6.55124C3.53599 6.50316 3.489 6.43484 3.46124 6.35489C3.43349 6.27495 3.42623 6.18698 3.44038 6.10212C3.45453 6.01725 3.48945 5.9393 3.54073 5.87811C3.59201 5.81693 3.65734 5.77526 3.72847 5.75838C3.79959 5.7415 3.87332 5.75016 3.94032 5.78328C4.00732 5.81639 4.06458 5.87246 4.10487 5.94441C4.14516 6.01636 4.16667 6.10094 4.16667 6.18747C4.16661 6.30348 4.12796 6.41472 4.05921 6.49675C3.99046 6.57878 3.89723 6.6249 3.8 6.62497ZM9.66667 6.62497C9.59415 6.62497 9.52326 6.59931 9.46296 6.55124C9.40266 6.50316 9.35566 6.43484 9.32791 6.35489C9.30016 6.27495 9.2929 6.18698 9.30704 6.10212C9.32119 6.01725 9.35611 5.9393 9.40739 5.87811C9.45867 5.81693 9.52401 5.77526 9.59513 5.75838C9.66626 5.7415 9.73998 5.75016 9.80698 5.78328C9.87398 5.81639 9.93125 5.87246 9.97154 5.94441C10.0118 6.01636 10.0333 6.10094 10.0333 6.18747C10.0333 6.30348 9.99463 6.41472 9.92587 6.49675C9.85712 6.57878 9.7639 6.6249 9.66667 6.62497ZM10.6561 5.62428C10.5636 5.38976 10.4147 5.19342 10.2284 5.06027C10.042 4.92713 9.82668 4.86323 9.60977 4.87671C9.39286 4.8902 9.18424 4.98046 9.01049 5.13599C8.83675 5.29152 8.70576 5.50526 8.63424 5.74997H8.2V2.68749H9.36303C9.4602 2.68792 9.55332 2.73397 9.62226 2.81568L10.2482 3.56248H9.3C9.20275 3.56248 9.10949 3.60858 9.04073 3.69062C8.97196 3.77267 8.93333 3.88395 8.93333 3.99998C8.93333 4.11601 8.97196 4.22729 9.04073 4.30934C9.10949 4.39139 9.20275 4.43748 9.3 4.43748H10.7667V5.31248C10.7666 5.37063 10.7568 5.42818 10.7378 5.48173C10.7188 5.53529 10.691 5.58376 10.6561 5.62428Z" fill="#039855"/>
<path d="M4.16667 3.5625C4.16667 3.44647 4.12804 3.33519 4.05927 3.25314C3.99051 3.17109 3.89725 3.125 3.8 3.125H0.866667C0.769421 3.125 0.676158 3.17109 0.607394 3.25314C0.538631 3.33519 0.5 3.44647 0.5 3.5625C0.5 3.67853 0.538631 3.78981 0.607394 3.87186C0.676158 3.9539 0.769421 4 0.866667 4H3.8C3.89725 4 3.99051 3.9539 4.05927 3.87186C4.12804 3.78981 4.16667 3.67853 4.16667 3.5625Z" fill="#039855"/>
<path d="M1.6 2.6875H2.33333C2.43058 2.6875 2.52384 2.6414 2.59261 2.55936C2.66137 2.47731 2.7 2.36603 2.7 2.25C2.7 2.13397 2.66137 2.02269 2.59261 1.94064C2.52384 1.85859 2.43058 1.8125 2.33333 1.8125H1.6C1.50275 1.8125 1.40949 1.85859 1.34073 1.94064C1.27196 2.02269 1.23333 2.13397 1.23333 2.25C1.23333 2.36603 1.27196 2.47731 1.34073 2.55936C1.40949 2.6414 1.50275 2.6875 1.6 2.6875Z" fill="#039855"/>
<path d="M2.33333 5.3125C2.43058 5.3125 2.52384 5.2664 2.59261 5.18436C2.66137 5.10231 2.7 4.99103 2.7 4.875C2.7 4.75897 2.66137 4.64769 2.59261 4.56564C2.52384 4.48359 2.43058 4.4375 2.33333 4.4375H1.6C1.50275 4.4375 1.40949 4.48359 1.34073 4.56564C1.27196 4.64769 1.23333 4.75897 1.23333 4.875C1.23333 4.99103 1.27196 5.10231 1.34073 5.18436C1.40949 5.2664 1.50275 5.3125 1.6 5.3125H2.33333Z" fill="#039855"/>
</g>
</g>
</svg>
