<svg width="36" height="36" viewBox="0 0 36 36" fill="none" xmlns="http://www.w3.org/2000/svg">
<rect width="36" height="36" rx="6" fill="#FFF4ED"/>
<path opacity="0.4" d="M14.6666 15.5C14.4456 15.5 14.2336 15.5878 14.0773 15.7441C13.921 15.9004 13.8333 16.1123 13.8333 16.3333C13.8333 17.4381 14.2728 18.4981 15.0539 19.2793C15.8351 20.0605 16.8951 20.4999 17.9999 20.4999C19.1046 20.4999 20.1647 20.0605 20.9458 19.2793C21.7271 18.4981 22.1665 17.4381 22.1665 16.3333C22.1665 16.1123 22.0787 15.9004 21.9224 15.7441C21.7661 15.5878 21.5542 15.5 21.3332 15.5C21.1121 15.5 20.9002 15.5878 20.7439 15.7441C20.5876 15.9004 20.4998 16.1123 20.4998 16.3333C20.4998 16.9967 20.2365 17.6319 19.7674 18.1009C19.2984 18.57 18.6633 18.8333 17.9999 18.8333C17.3365 18.8333 16.7014 18.57 16.2323 18.1009C15.7633 17.6319 15.4999 16.9967 15.4999 16.3333C15.4999 16.1123 15.4121 15.9004 15.2558 15.7441C15.0995 15.5878 14.8876 15.5 14.6666 15.5Z" fill="#FF4405"/>
<path d="M13.6671 8.8328C13.4227 8.8328 13.225 8.82032 12.9591 8.89627C12.7605 8.95301 12.5737 9.04638 12.409 9.17134C12.1888 9.33847 12.0804 9.50311 11.9338 9.69867L10.6334 11.4321C10.6305 11.4359 10.6281 11.4381 10.6252 11.4418L10.3664 11.7885C10.1686 12.0524 10.0333 12.2239 9.9156 12.4672C9.8221 12.6605 9.75499 12.8651 9.71378 13.0759C9.66193 13.3412 9.66658 13.5583 9.66658 13.8881V23.6663C9.66658 24.5997 9.62314 25.1814 9.93838 25.8C10.178 26.2703 10.5617 26.6541 11.0321 26.8938C11.6508 27.209 12.2324 27.1656 13.1658 27.1656H22.8341C23.7675 27.1656 24.3491 27.209 24.9678 26.8938C25.4381 26.6541 25.8219 26.2704 26.0615 25.8C26.3768 25.1814 26.3333 24.5997 26.3333 23.6663V13.8881C26.3333 13.5583 26.3381 13.3413 26.2861 13.0759C26.2449 12.8648 26.1777 12.6604 26.0843 12.4672C25.9667 12.2239 25.8314 12.0524 25.6335 11.7885L25.3747 11.4418L25.3665 11.4321L24.0661 9.69867C23.9195 9.50311 23.8111 9.33846 23.5909 9.17134C23.4262 9.04636 23.2393 8.953 23.0407 8.89627C22.7748 8.82031 22.5772 8.8328 22.3327 8.8328H13.6671ZM13.4165 10.4994C13.375 10.5113 13.4227 10.4994 13.6671 10.4994H22.332C22.5765 10.4994 22.6243 10.5113 22.5827 10.4994C22.5483 10.4734 22.5858 10.5041 22.7324 10.6996L23.8327 12.1661H12.1661L13.2664 10.6996C13.413 10.5041 13.4509 10.4733 13.4165 10.4994ZM11.3349 13.8197C11.495 13.8305 11.6464 13.8328 11.8329 13.8328H24.1669C24.3535 13.8328 24.5048 13.8305 24.665 13.8197C24.6652 13.8575 24.6666 13.8424 24.6666 13.8881V23.6663C24.6666 24.5997 24.6236 24.9489 24.5755 25.0432C24.4956 25.2 24.3677 25.3279 24.2109 25.4078C24.1165 25.4558 23.7673 25.4989 22.8339 25.4989H13.1657C12.2323 25.4989 11.8831 25.4559 11.7888 25.4078C11.632 25.3279 11.5042 25.2001 11.4242 25.0432C11.3762 24.9489 11.3331 24.5997 11.3331 23.6663V13.8881C11.3331 13.8424 11.3347 13.8575 11.3349 13.8197Z" fill="#FF4405"/>
</svg>
