<svg width="48" height="48" viewBox="0 0 48 48" fill="none" xmlns="http://www.w3.org/2000/svg">
<rect width="48" height="48" rx="8" fill="#FFF4ED"/>
<path fill-rule="evenodd" clip-rule="evenodd" d="M17.9136 9.6665H30.0862C30.8461 9.66648 31.4914 9.66646 32.0246 9.72159C32.5924 9.78029 33.1171 9.90776 33.6128 10.2141C34.1085 10.5205 34.4571 10.9328 34.7635 11.4143C35.0513 11.8666 35.3399 12.4438 35.6797 13.1236L35.7017 13.1675C35.7147 13.1934 35.7265 13.2199 35.7372 13.2468L37.6086 17.9777C37.8313 18.5406 38.0781 19.2429 38.1503 19.9615C38.2241 20.6966 38.1228 21.5387 37.5468 22.269C37.0757 22.8664 36.4206 23.3149 35.6666 23.5283V36.3332H37.3333C37.8856 36.3332 38.3333 36.7809 38.3333 37.3332C38.3333 37.8855 37.8856 38.3332 37.3333 38.3332H10.6666C10.1143 38.3332 9.66663 37.8855 9.66663 37.3332C9.66663 36.7809 10.1143 36.3332 10.6666 36.3332H12.3333V23.5284C11.5792 23.3149 10.9241 22.8665 10.453 22.269C9.87702 21.5387 9.77572 20.6966 9.84953 19.9615C9.9217 19.2429 10.1685 18.5406 10.3912 17.9777L12.2626 13.2468C12.2733 13.2199 12.2851 13.1934 12.2981 13.1675L12.3201 13.1235C12.6599 12.4438 12.9485 11.8666 13.2363 11.4143C13.5427 10.9328 13.8913 10.5205 14.387 10.2141C14.8827 9.90776 15.4074 9.78029 15.9752 9.72159C16.5084 9.66646 17.1537 9.66648 17.9136 9.6665ZM31.9998 22.5165C32.4478 22.991 33.021 23.3459 33.6666 23.5285V36.3332H28.3333V32.6235C28.3333 32.0372 28.3333 31.5313 28.2957 31.1163C28.2559 30.6774 28.1679 30.2428 27.9314 29.8332C27.6681 29.3771 27.2894 28.9984 26.8333 28.7351C26.4237 28.4986 25.9891 28.4105 25.5502 28.3708C25.1351 28.3331 24.6293 28.3332 24.0429 28.3332H23.957C23.3706 28.3332 22.8648 28.3331 22.4498 28.3708C22.0108 28.4105 21.5762 28.4986 21.1666 28.7351C20.7106 28.9984 20.3319 29.3771 20.0686 29.8332C19.8321 30.2428 19.744 30.6774 19.7042 31.1163C19.6666 31.5314 19.6666 32.0371 19.6666 32.6235L19.6666 36.3332H14.3333V23.5285C14.9788 23.3459 15.5519 22.9909 15.9998 22.5165C16.6684 23.2246 17.6158 23.6665 18.6665 23.6665C19.7172 23.6665 20.6647 23.2246 21.3332 22.5165C22.0017 23.2246 22.9492 23.6665 23.9998 23.6665C25.0505 23.6665 25.998 23.2246 26.6665 22.5165C27.335 23.2246 28.2825 23.6665 29.3332 23.6665C30.3839 23.6665 31.3313 23.2246 31.9998 22.5165ZM21.6666 36.3332H26.3333V32.6665C26.3333 32.025 26.3323 31.6108 26.3039 31.2968C26.2767 30.9966 26.2308 30.8877 26.1993 30.8332C26.1115 30.6812 25.9853 30.5549 25.8333 30.4671C25.7788 30.4357 25.6698 30.3898 25.3696 30.3626C25.0557 30.3341 24.6414 30.3332 24 30.3332C23.3585 30.3332 22.9442 30.3341 22.6303 30.3626C22.3301 30.3898 22.2211 30.4357 22.1666 30.4671C22.0146 30.5549 21.8884 30.6812 21.8006 30.8332C21.7691 30.8877 21.7232 30.9966 21.696 31.2968C21.6676 31.6108 21.6666 32.025 21.6666 32.6665V36.3332ZM16.9998 19.9998C16.9998 20.9203 17.746 21.6665 18.6665 21.6665C19.587 21.6665 20.3332 20.9203 20.3332 19.9998C20.3332 19.4476 20.7809 18.9998 21.3332 18.9998C21.8855 18.9998 22.3332 19.4476 22.3332 19.9998C22.3332 20.9203 23.0794 21.6665 23.9998 21.6665C24.9203 21.6665 25.6665 20.9203 25.6665 19.9998C25.6665 19.4476 26.1142 18.9998 26.6665 18.9998C27.2188 18.9998 27.6665 19.4476 27.6665 19.9998C27.6665 20.9203 28.4127 21.6665 29.3332 21.6665C30.2537 21.6665 30.9998 20.9203 30.9998 19.9998C30.9998 19.4476 31.4476 18.9998 31.9998 18.9998C32.5521 18.9998 32.9998 19.4476 32.9998 19.9998C32.9998 20.9203 33.746 21.6665 34.6665 21.6665C35.1971 21.6665 35.6695 21.4197 35.9764 21.0306C36.1283 20.838 36.2017 20.5744 36.1603 20.1614C36.1171 19.7319 35.9586 19.2435 35.7489 18.7134L33.8934 14.023C33.5364 13.3092 33.2979 12.8365 33.0762 12.488C32.8629 12.1528 32.71 12.0073 32.5613 11.9154C32.4126 11.8235 32.2142 11.7519 31.8189 11.711C31.4006 11.6677 30.8594 11.6665 30.037 11.6665H17.9628C17.1404 11.6665 16.5992 11.6677 16.1809 11.711C15.7856 11.7519 15.5872 11.8235 15.4385 11.9154C15.2898 12.0073 15.1369 12.1528 14.9236 12.488C14.7019 12.8365 14.4634 13.3092 14.1064 14.023L12.2509 18.7134C12.0412 19.2435 11.8827 19.7319 11.8395 20.1614C11.798 20.5744 11.8715 20.838 12.0234 21.0306C12.3302 21.4197 12.8026 21.6665 13.3332 21.6665C14.2537 21.6665 14.9998 20.9203 14.9998 19.9998C14.9998 19.4476 15.4476 18.9998 15.9998 18.9998C16.5521 18.9998 16.9998 19.4476 16.9998 19.9998Z" fill="#FF4405"/>
</svg>
