<svg width="22" height="22" viewBox="0 0 22 22" fill="none" xmlns="http://www.w3.org/2000/svg">
<path d="M5.24696 1.05576C4.15262 1.19855 3.16639 1.62304 2.39474 2.39472C0.851341 3.93812 0.696382 6.33675 1.40636 8.75089C1.61268 9.45239 2.04367 10.1749 2.39276 10.892C1.59644 12.4589 1.08626 14.0179 1.0102 15.4735C0.928145 17.0444 1.33665 18.5471 2.39469 19.6052C3.93808 21.1486 6.33669 21.3037 8.75082 20.5936C9.48792 20.3768 10.2473 19.9319 11.0009 19.5577C11.7543 19.9317 12.5121 20.3769 13.249 20.5936C15.6631 21.3037 18.0617 21.1486 19.6051 19.6052C21.1484 18.0618 21.3036 15.6632 20.5935 13.2491C20.3874 12.5483 19.9556 11.8282 19.6071 11.1119C20.4037 9.54526 20.913 7.98593 20.9896 6.53045C21.0724 4.95834 20.6639 3.45357 19.6051 2.39472C18.0618 0.851311 15.6631 0.696351 13.249 1.40633C12.5121 1.62307 11.7544 2.0682 11.0009 2.44227C10.2472 2.06807 9.48793 1.62315 8.75087 1.40633C7.54386 1.05132 6.34131 0.91296 5.24696 1.05576ZM5.56784 3.05826C6.30136 2.96986 7.17939 3.05956 8.1784 3.3534C8.39287 3.41648 8.63825 3.58865 8.85977 3.67031C7.87908 4.34946 6.89673 5.06292 5.97986 5.97979C5.64966 6.30998 5.33509 6.64684 5.03506 6.98798C4.94695 7.08796 4.87941 7.20433 4.8363 7.33043C4.79319 7.45653 4.77535 7.5899 4.78381 7.72289C4.79227 7.85589 4.82687 7.98592 4.88561 8.10554C4.94436 8.22516 5.0261 8.33203 5.12618 8.42004C5.22628 8.50803 5.34275 8.57543 5.46892 8.61838C5.59509 8.66133 5.7285 8.67898 5.8615 8.67034C5.9945 8.66169 6.12449 8.62691 6.24404 8.56799C6.36359 8.50907 6.47035 8.42716 6.55822 8.32694C6.82957 8.01841 7.11428 7.71541 7.41389 7.41581C7.41389 7.41515 7.41389 7.41449 7.41389 7.41383C8.56533 6.26238 9.78796 5.37532 10.999 4.66259C12.2106 5.37541 13.4341 6.26188 14.5861 7.41383C16.6587 9.48641 18.0589 11.8235 18.6465 13.8215C19.2342 15.8196 19.004 17.3383 18.1712 18.1712C17.3383 19.0041 15.8195 19.2342 13.8215 18.6466C13.607 18.5835 13.3616 18.4113 13.1401 18.3297C14.1211 17.6504 15.1029 16.9374 16.02 16.0202C16.3361 15.7042 16.6391 15.3833 16.9272 15.0576C17.0154 14.9577 17.0831 14.8414 17.1264 14.7154C17.1697 14.5894 17.1877 14.4561 17.1794 14.3231C17.1711 14.1901 17.1367 14.06 17.0781 13.9403C17.0196 13.8206 16.938 13.7137 16.8381 13.6255C16.6367 13.4477 16.3731 13.357 16.105 13.3733C15.8369 13.3897 15.5862 13.5117 15.4079 13.7127C15.147 14.0076 14.8724 14.2998 14.5859 14.5862C13.434 15.7381 12.2105 16.6246 10.9989 17.3374C9.78781 16.6247 8.56519 15.7376 7.41375 14.5862C5.34118 12.5137 3.94098 10.1765 3.35329 8.17848C2.76564 6.18044 2.9958 4.66168 3.82866 3.82877C4.24509 3.41234 4.83438 3.14667 5.56784 3.05826ZM16.4342 3.05826C17.1677 3.14666 17.7548 3.41233 18.1713 3.82877C18.7427 4.40015 19.0272 5.25261 18.9655 6.42353C18.9307 7.08445 18.5031 7.94462 18.2307 8.73696C17.5704 7.79966 16.8979 6.85758 16.0202 5.97974C15.103 5.06251 14.1213 4.34953 13.1403 3.67026C13.3618 3.58861 13.6072 3.41642 13.8217 3.35335C14.8207 3.05951 15.7007 2.96987 16.4342 3.05826ZM10.9793 8.95087C9.87118 8.95087 8.95107 9.87098 8.95107 10.9791C8.95107 12.0873 9.87117 13.0074 10.9793 13.0074C12.0875 13.0074 13.0076 12.0874 13.0076 10.9791C13.0076 9.87086 12.0875 8.95087 10.9793 8.95087ZM3.7695 13.2649C4.42971 14.2021 5.10236 15.1425 5.97998 16.0201C6.89689 16.937 7.87924 17.6505 8.8599 18.3296C8.63838 18.4112 8.393 18.5834 8.17853 18.6465C6.1805 19.2341 4.66174 19.004 3.82884 18.1711C3.25782 17.6 2.97347 16.75 3.03458 15.5803C3.06913 14.9189 3.49678 14.0581 3.7695 13.2649Z" stroke="white"/>
</svg>
