<svg width="80" height="80" viewBox="0 0 80 80" fill="none" xmlns="http://www.w3.org/2000/svg">
<rect x="0.5" y="0.5" width="79" height="79" rx="7.5" fill="white"/>
<path d="M30.436 33.184L29.545 32.73H29.545L30.436 33.184ZM32.184 31.436L31.73 30.545L31.73 30.545L32.184 31.436ZM47.816 48.564L47.362 47.673H47.362L47.816 48.564ZM49.564 46.816L48.673 46.362V46.362L49.564 46.816ZM32.184 48.564L32.638 47.673H32.638L32.184 48.564ZM30.436 46.816L31.327 46.362H31.327L30.436 46.816ZM46 36C46 36.5523 46.4477 37 47 37C47.5523 37 48 36.5523 48 36H46ZM48 30C48 29.4477 47.5523 29 47 29C46.4477 29 46 29.4477 46 30H48ZM44 32C43.4477 32 43 32.4477 43 33C43 33.5523 43.4477 34 44 34V32ZM50 34C50.5523 34 51 33.5523 51 33C51 32.4477 50.5523 32 50 32V34ZM43 40C43 41.6569 41.6569 43 40 43V45C42.7614 45 45 42.7614 45 40H43ZM40 43C38.3431 43 37 41.6569 37 40H35C35 42.7614 37.2386 45 40 45V43ZM37 40C37 38.3431 38.3431 37 40 37V35C37.2386 35 35 37.2386 35 40H37ZM40 37C41.6569 37 43 38.3431 43 40H45C45 37.2386 42.7614 35 40 35V37ZM36.4 50H43.6V48H36.4V50ZM29 37.4V42.6H31V37.4H29ZM51 42.6V39.5H49V42.6H51ZM40.5 30H36.4V32H40.5V30ZM31 37.4C31 36.2634 31.0008 35.4711 31.0512 34.8542C31.1006 34.2491 31.1928 33.9014 31.327 33.638L29.545 32.73C29.2432 33.3223 29.1174 33.9625 29.0578 34.6914C28.9992 35.4086 29 36.2964 29 37.4H31ZM36.4 30C35.2964 30 34.4086 29.9992 33.6914 30.0578C32.9625 30.1174 32.3223 30.2432 31.73 30.545L32.638 32.327C32.9014 32.1928 33.2491 32.1006 33.8542 32.0512C34.4711 32.0008 35.2634 32 36.4 32V30ZM31.327 33.638C31.6146 33.0735 32.0735 32.6146 32.638 32.327L31.73 30.545C30.7892 31.0243 30.0243 31.7892 29.545 32.73L31.327 33.638ZM43.6 50C44.7036 50 45.5914 50.0008 46.3086 49.9422C47.0375 49.8826 47.6777 49.7568 48.27 49.455L47.362 47.673C47.0986 47.8072 46.7509 47.8994 46.1458 47.9488C45.5289 47.9992 44.7366 48 43.6 48V50ZM49 42.6C49 43.7366 48.9992 44.5289 48.9488 45.1458C48.8994 45.7509 48.8072 46.0986 48.673 46.362L50.455 47.27C50.7568 46.6777 50.8826 46.0375 50.9422 45.3086C51.0008 44.5914 51 43.7036 51 42.6H49ZM48.27 49.455C49.2108 48.9757 49.9757 48.2108 50.455 47.27L48.673 46.362C48.3854 46.9265 47.9265 47.3854 47.362 47.673L48.27 49.455ZM36.4 48C35.2634 48 34.4711 47.9992 33.8542 47.9488C33.2491 47.8994 32.9014 47.8072 32.638 47.673L31.73 49.455C32.3223 49.7568 32.9625 49.8826 33.6914 49.9422C34.4086 50.0008 35.2964 50 36.4 50V48ZM29 42.6C29 43.7036 28.9992 44.5914 29.0578 45.3086C29.1174 46.0375 29.2432 46.6777 29.545 47.27L31.327 46.362C31.1928 46.0986 31.1006 45.7509 31.0512 45.1458C31.0008 44.5289 31 43.7366 31 42.6H29ZM32.638 47.673C32.0735 47.3854 31.6146 46.9265 31.327 46.362L29.545 47.27C30.0243 48.2108 30.7892 48.9757 31.73 49.455L32.638 47.673ZM48 36V30H46V36H48ZM44 34H50V32H44V34Z" fill="#98A2B3"/>
<rect x="0.5" y="0.5" width="79" height="79" rx="7.5" stroke="#D0D5DD" stroke-dasharray="5 5"/>
</svg>
