<svg width="64" height="64" viewBox="0 0 64 64" fill="none" xmlns="http://www.w3.org/2000/svg">
<rect x="0.5" y="0.5" width="63" height="63" rx="11.5" fill="white"/>
<rect x="12" y="12" width="40" height="40" rx="20" fill="#F2F4F7"/>
<path d="M35.3333 26.167L37.8333 23.667M37.8333 23.667L40.3333 26.167M37.8333 23.667V28.667M32.4167 24.5003H28.5C27.0999 24.5003 26.3998 24.5003 25.865 24.7728C25.3946 25.0125 25.0122 25.3949 24.7725 25.8653C24.5 26.4001 24.5 27.1002 24.5 28.5003V35.5003C24.5 36.9005 24.5 37.6005 24.7725 38.1353C25.0122 38.6057 25.3946 38.9882 25.865 39.2278C26.3998 39.5003 27.0999 39.5003 28.5 39.5003H36.1667C36.9416 39.5003 37.3291 39.5003 37.647 39.4151C38.5098 39.184 39.1836 38.5101 39.4148 37.6474C39.5 37.3295 39.5 36.942 39.5 36.167M30.75 29.0837C30.75 30.0041 30.0038 30.7503 29.0833 30.7503C28.1629 30.7503 27.4167 30.0041 27.4167 29.0837C27.4167 28.1632 28.1629 27.417 29.0833 27.417C30.0038 27.417 30.75 28.1632 30.75 29.0837ZM34.4917 31.9321L27.4426 38.3404C27.0461 38.7008 26.8479 38.881 26.8304 39.0372C26.8152 39.1725 26.867 39.3067 26.9693 39.3966C27.0873 39.5003 27.3552 39.5003 27.8911 39.5003H35.7133C36.9126 39.5003 37.5123 39.5003 37.9833 39.2988C38.5745 39.0459 39.0456 38.5749 39.2985 37.9836C39.5 37.5126 39.5 36.9129 39.5 35.7136C39.5 35.3101 39.5 35.1084 39.4559 34.9205C39.4005 34.6843 39.2941 34.4631 39.1444 34.2723C39.0252 34.1205 38.8677 33.9945 38.5526 33.7424L36.2215 31.8775C35.9062 31.6252 35.7485 31.4991 35.5748 31.4546C35.4218 31.4153 35.2607 31.4204 35.1104 31.4692C34.94 31.5246 34.7905 31.6604 34.4917 31.9321Z" stroke="#475467" stroke-width="1.66667" stroke-linecap="round" stroke-linejoin="round"/>
<rect x="12" y="12" width="40" height="40" rx="20" stroke="#F9FAFB" stroke-width="6"/>
<rect x="0.5" y="0.5" width="63" height="63" rx="11.5" stroke="#EAECF0" stroke-dasharray="3 3"/>
</svg>
