<svg width="16" height="16" viewBox="0 0 16 16" fill="none" xmlns="http://www.w3.org/2000/svg">
<g id="Icon Leading" clip-path="url(#clip0_1790_48190)">
<path id="Icon" d="M5.99992 6.00016H6.00659M9.99992 10.0002H10.0066M10.6666 5.3335L5.33325 10.6668M6.13452 13.7341C6.35302 13.7052 6.57374 13.7644 6.7478 13.8985L7.54996 14.5141C7.81512 14.7178 8.18398 14.7178 8.4484 14.5141L9.28092 13.8748C9.43647 13.7556 9.63275 13.703 9.8268 13.7289L10.8682 13.8659C11.1993 13.9096 11.5185 13.7252 11.6467 13.4163L12.0474 12.4474C12.1222 12.266 12.2659 12.1223 12.4473 12.0475L13.4161 11.6467C13.725 11.5193 13.9094 11.1993 13.8657 10.8682L13.7339 9.86456C13.705 9.64604 13.7643 9.42531 13.8983 9.25124L14.5138 8.44904C14.7175 8.18386 14.7175 7.81498 14.5138 7.55055L13.8746 6.71798C13.7554 6.56243 13.7028 6.36613 13.7287 6.17207L13.8657 5.13061C13.9094 4.79951 13.725 4.48026 13.4161 4.35212L12.4473 3.95139C12.2659 3.87657 12.1222 3.73287 12.0474 3.5514L11.6467 2.58254C11.5193 2.27366 11.1993 2.08922 10.8682 2.13292L9.8268 2.26995C9.63275 2.29662 9.43647 2.24403 9.28166 2.12551L8.44914 1.48627C8.18398 1.28257 7.81512 1.28257 7.5507 1.48627L6.71817 2.12551C6.56263 2.24403 6.36635 2.29662 6.17229 2.27143L5.1309 2.1344C4.79981 2.0907 4.48058 2.27514 4.35245 2.58402L3.95248 3.55288C3.87693 3.73361 3.73324 3.87731 3.55251 3.95287L2.5837 4.35286C2.27484 4.481 2.09041 4.80025 2.13411 5.13135L2.27114 6.17281C2.29632 6.36687 2.24373 6.56317 2.12522 6.71798L1.48602 7.55055C1.28233 7.81572 1.28233 8.1846 1.48602 8.44904L2.12522 9.28161C2.24447 9.43716 2.29706 9.63345 2.27114 9.82752L2.13411 10.869C2.09041 11.2001 2.27484 11.5193 2.5837 11.6475L3.55251 12.0482C3.73398 12.123 3.87767 12.2667 3.95248 12.4482L4.35319 13.417C4.48058 13.7259 4.80056 13.9104 5.13164 13.8667L6.13452 13.7341ZM6.33325 6.00016C6.33325 6.18426 6.18401 6.3335 5.99992 6.3335C5.81582 6.3335 5.66659 6.18426 5.66659 6.00016C5.66659 5.81607 5.81582 5.66683 5.99992 5.66683C6.18401 5.66683 6.33325 5.81607 6.33325 6.00016ZM10.3333 10.0002C10.3333 10.1843 10.184 10.3335 9.99992 10.3335C9.81582 10.3335 9.66659 10.1843 9.66659 10.0002C9.66659 9.81607 9.81582 9.66683 9.99992 9.66683C10.184 9.66683 10.3333 9.81607 10.3333 10.0002Z" stroke="#FF692E" stroke-width="1.66667" stroke-linecap="round" stroke-linejoin="round"/>
</g>
<defs>
<clipPath id="clip0_1790_48190">
<rect width="16" height="16" fill="white"/>
</clipPath>
</defs>
</svg>
