<svg width="20" height="17" viewBox="0 0 20 17" fill="none" xmlns="http://www.w3.org/2000/svg">
<path d="M9.99988 6.50019V9.83353M9.99988 13.1669H10.0082M8.84598 2.24329L1.9919 14.0821C1.61173 14.7388 1.42165 15.0671 1.44974 15.3366C1.47425 15.5716 1.59739 15.7852 1.78852 15.9242C2.00765 16.0835 2.38704 16.0835 3.14581 16.0835H16.8539C17.6127 16.0835 17.9921 16.0835 18.2112 15.9242C18.4024 15.7852 18.5255 15.5716 18.55 15.3366C18.5781 15.0671 18.388 14.7388 18.0078 14.0821L11.1538 2.24329C10.775 1.58899 10.5856 1.26184 10.3385 1.15196C10.1229 1.05612 9.87684 1.05612 9.66129 1.15196C9.41419 1.26184 9.22478 1.58899 8.84598 2.24329Z" stroke="#DC6803" stroke-width="1.66667" stroke-linecap="round" stroke-linejoin="round"/>
</svg>
