<svg width="20" height="20" viewBox="0 0 20 20" fill="none" xmlns="http://www.w3.org/2000/svg">
<g id="Icon Leading">
<path id="Accent" opacity="0.12" d="M2.44804 9.94804C2.15979 9.65979 2.01566 9.51566 1.91259 9.34747C1.82121 9.19835 1.75387 9.03577 1.71304 8.86571C1.66699 8.6739 1.66699 8.47007 1.66699 8.06242L1.66699 5.68823C1.66699 5.28058 1.66699 5.07675 1.71304 4.88494C1.75387 4.71488 1.82121 4.5523 1.91259 4.40318C2.01566 4.23499 2.15979 4.09086 2.44804 3.80261L3.80261 2.44804C4.09086 2.15979 4.23499 2.01566 4.40318 1.91259C4.5523 1.82121 4.71488 1.75387 4.88494 1.71304C5.07675 1.66699 5.28058 1.66699 5.68823 1.66699L8.06242 1.66699C8.47007 1.66699 8.6739 1.66699 8.86571 1.71304C9.03577 1.75387 9.19834 1.82121 9.34747 1.91259C9.51566 2.01566 9.65979 2.15979 9.94804 2.44804L16.3386 8.83856C17.3286 9.8286 17.8236 10.3236 18.0091 10.8944C18.1722 11.3966 18.1722 11.9374 18.0091 12.4395C17.8236 13.0104 17.3286 13.5054 16.3386 14.4954L14.4954 16.3386C13.5054 17.3286 13.0104 17.8236 12.4395 18.0091C11.9374 18.1722 11.3966 18.1722 10.8944 18.0091C10.3236 17.8236 9.8286 17.3286 8.83856 16.3386L2.44804 9.94804Z" fill="#6938EF"/>
<path id="Icon" d="M6.66699 6.66699H6.67533M3.80261 2.44804L2.44804 3.80261C2.15979 4.09086 2.01566 4.23499 1.91259 4.40318C1.82121 4.5523 1.75387 4.71488 1.71304 4.88494C1.66699 5.07675 1.66699 5.28058 1.66699 5.68823L1.66699 8.06242C1.66699 8.47007 1.66699 8.6739 1.71304 8.86571C1.75387 9.03577 1.82121 9.19835 1.91259 9.34747C2.01566 9.51566 2.15979 9.65979 2.44804 9.94804L8.83856 16.3386C9.8286 17.3286 10.3236 17.8236 10.8944 18.0091C11.3966 18.1722 11.9374 18.1722 12.4395 18.0091C13.0104 17.8236 13.5054 17.3286 14.4954 16.3386L16.3386 14.4954C17.3286 13.5054 17.8236 13.0104 18.0091 12.4395C18.1722 11.9374 18.1722 11.3966 18.0091 10.8944C17.8236 10.3236 17.3286 9.8286 16.3386 8.83856L9.94804 2.44804C9.65979 2.15979 9.51566 2.01566 9.34747 1.91259C9.19834 1.82121 9.03577 1.75387 8.86571 1.71304C8.6739 1.66699 8.47007 1.66699 8.06242 1.66699L5.68823 1.66699C5.28058 1.66699 5.07675 1.66699 4.88494 1.71304C4.71488 1.75387 4.5523 1.82121 4.40318 1.91259C4.23499 2.01566 4.09086 2.15979 3.80261 2.44804ZM7.08366 6.66699C7.08366 6.89711 6.89711 7.08366 6.66699 7.08366C6.43687 7.08366 6.25033 6.89711 6.25033 6.66699C6.25033 6.43687 6.43687 6.25033 6.66699 6.25033C6.89711 6.25033 7.08366 6.43687 7.08366 6.66699Z" stroke="#6938EF" stroke-width="1.5" stroke-linecap="round" stroke-linejoin="round"/>
</g>
</svg>
