<svg width="20" height="16" viewBox="0 0 20 16" fill="none" xmlns="http://www.w3.org/2000/svg">
<path id="Icon" d="M4.1665 8.83325H6.6665M1.6665 5.49992L3.33317 6.33325L4.39204 3.15664C4.6106 2.50096 4.71988 2.17312 4.92258 1.93074C5.10157 1.7167 5.33143 1.55102 5.59109 1.4489C5.88514 1.33325 6.23071 1.33325 6.92186 1.33325H13.0778C13.769 1.33325 14.1145 1.33325 14.4086 1.4489C14.6682 1.55102 14.8981 1.7167 15.0771 1.93074C15.2798 2.17312 15.3891 2.50096 15.6076 3.15664L16.6665 6.33325L18.3332 5.49992M13.3332 8.83325H15.8332M5.6665 6.33325H14.3332C15.7333 6.33325 16.4334 6.33325 16.9681 6.60574C17.4386 6.84542 17.821 7.22787 18.0607 7.69828C18.3332 8.23305 18.3332 8.93312 18.3332 10.3333V12.5833C18.3332 12.9705 18.3332 13.1641 18.3011 13.3251C18.1696 13.9862 17.6528 14.503 16.9917 14.6346C16.8307 14.6666 16.6371 14.6666 16.2498 14.6666H15.8332C14.9127 14.6666 14.1665 13.9204 14.1665 12.9999C14.1665 12.7698 13.98 12.5833 13.7498 12.5833H6.24984C6.01972 12.5833 5.83317 12.7698 5.83317 12.9999C5.83317 13.9204 5.08698 14.6666 4.1665 14.6666H3.74984C3.36262 14.6666 3.16902 14.6666 3.00802 14.6346C2.34687 14.503 1.83004 13.9862 1.69853 13.3251C1.6665 13.1641 1.6665 12.9705 1.6665 12.5833V10.3333C1.6665 8.93312 1.6665 8.23305 1.93899 7.69828C2.17867 7.22787 2.56112 6.84542 3.03153 6.60574C3.56631 6.33325 4.26637 6.33325 5.6665 6.33325Z" stroke="#EF6820" stroke-width="1.5" stroke-linecap="round" stroke-linejoin="round"/>
</svg>
