<svg width="20" height="20" viewBox="0 0 20 20" fill="none" xmlns="http://www.w3.org/2000/svg">
<g id="Atoms / Icon">
<path id="Icon" d="M16.2335 3.30012C17.0475 2.46511 18.3923 2.45431 19.2196 3.27613C20.0244 4.07543 20.0394 5.3667 19.2534 6.1842L16.9092 8.62245C16.7255 8.81356 16.6336 8.90912 16.577 9.02104C16.5269 9.12011 16.497 9.22808 16.4892 9.33868C16.4804 9.46363 16.5103 9.59237 16.5701 9.84986L18.0279 16.1241C18.0893 16.3884 18.12 16.5205 18.1101 16.6484C18.1013 16.7615 18.0695 16.8717 18.0165 16.9723C17.9567 17.0859 17.8602 17.1818 17.6671 17.3736L17.3543 17.6843C16.8429 18.1922 16.5872 18.4462 16.3255 18.4921C16.097 18.5323 15.862 18.4772 15.6757 18.3397C15.4623 18.1824 15.3479 17.8417 15.1193 17.1602L13.4237 12.108L10.6015 14.9112C10.433 15.0785 10.3488 15.1622 10.2924 15.2607C10.2425 15.348 10.2088 15.4435 10.1929 15.5426C10.1749 15.6545 10.1881 15.7721 10.2144 16.0073L10.3694 17.3927C10.3957 17.6279 10.4088 17.7455 10.3909 17.8574C10.375 17.9565 10.3412 18.052 10.2913 18.1393C10.235 18.2378 10.1507 18.3215 9.98227 18.4888L9.81565 18.6543C9.41656 19.0507 9.21701 19.2489 8.99526 19.3063C8.80076 19.3567 8.59456 19.3364 8.41378 19.2491C8.20767 19.1497 8.05113 18.9164 7.73805 18.45L6.41495 16.4787C6.35902 16.3954 6.33105 16.3537 6.29858 16.3159C6.26974 16.2824 6.23828 16.2511 6.20448 16.2225C6.16643 16.1902 6.12448 16.1624 6.04058 16.1069L4.05593 14.7927C3.58631 14.4817 3.35151 14.3263 3.25135 14.1215C3.1635 13.942 3.14308 13.7372 3.19377 13.544C3.25156 13.3237 3.45111 13.1255 3.8502 12.7291L4.01683 12.5636C4.18529 12.3963 4.26952 12.3126 4.36872 12.2567C4.45659 12.2071 4.55272 12.1736 4.65252 12.1578C4.76518 12.1399 4.88357 12.153 5.12036 12.1791L6.51523 12.3331C6.75201 12.3592 6.87041 12.3723 6.98306 12.3544C7.08287 12.3386 7.179 12.3051 7.26687 12.2555C7.36607 12.1996 7.4503 12.1159 7.61876 11.9486L10.441 9.14535L5.35447 7.46127C4.66839 7.23412 4.32536 7.12054 4.16692 6.90862C4.02858 6.72357 3.97309 6.49009 4.01351 6.26312C4.05979 6.00319 4.31548 5.74923 4.82685 5.24131L5.13964 4.93062C5.33275 4.73882 5.4293 4.64292 5.54369 4.58352C5.64494 4.53094 5.75588 4.49934 5.86979 4.49062C5.99849 4.48078 6.13154 4.51127 6.39764 4.57227L12.6905 6.01467C12.952 6.0746 13.0827 6.10457 13.2089 6.09566C13.3308 6.08705 13.4494 6.05225 13.5564 5.99366C13.6672 5.93298 13.7605 5.83723 13.9472 5.64573L16.2335 3.30012Z" fill="#B2DDFF"/>
<path id="Icon_2" d="M14.4972 2.68495C15.2704 1.8917 16.548 1.88144 17.334 2.66217C18.0985 3.4215 18.1127 4.6482 17.366 5.42483L15.1391 7.74117C14.9645 7.92273 14.8772 8.0135 14.8234 8.11983C14.7758 8.21395 14.7475 8.31652 14.7401 8.42159C14.7317 8.54029 14.7601 8.66259 14.817 8.90721L16.2018 14.8677C16.2601 15.1188 16.2893 15.2443 16.2799 15.3658C16.2715 15.4733 16.2413 15.578 16.191 15.6735C16.1342 15.7814 16.0425 15.8725 15.859 16.0547L15.5619 16.3499C15.0761 16.8324 14.8332 17.0737 14.5846 17.1174C14.3675 17.1555 14.1442 17.1031 13.9672 16.9726C13.7645 16.8231 13.6559 16.4994 13.4386 15.852L11.8279 11.0524L9.14673 13.7155C8.98669 13.8744 8.90667 13.9539 8.85314 14.0475C8.80572 14.1304 8.77368 14.2211 8.75856 14.3153C8.74149 14.4216 8.75399 14.5333 8.77898 14.7568L8.92622 16.0729C8.95121 16.2964 8.96371 16.4081 8.94664 16.5144C8.93152 16.6086 8.89949 16.6993 8.85206 16.7822C8.79854 16.8758 8.71852 16.9553 8.55848 17.1142L8.40018 17.2715C8.02105 17.648 7.83148 17.8363 7.62081 17.8909C7.43604 17.9387 7.24015 17.9194 7.0684 17.8365C6.8726 17.742 6.72389 17.5205 6.42647 17.0773L5.16952 15.2046C5.11638 15.1255 5.08982 15.0859 5.05897 15.05C5.03157 15.0181 5.00168 14.9884 4.96957 14.9612C4.93343 14.9305 4.89357 14.9041 4.81387 14.8514L2.92845 13.6029C2.48232 13.3075 2.25925 13.1598 2.1641 12.9653C2.08064 12.7947 2.06125 12.6001 2.1094 12.4166C2.1643 12.2074 2.35387 12.0191 2.73301 11.6425L2.8913 11.4853C3.05134 11.3263 3.13136 11.2468 3.2256 11.1937C3.30908 11.1466 3.4004 11.1147 3.49522 11.0997C3.60224 11.0828 3.71471 11.0952 3.93966 11.12L5.26478 11.2662C5.48973 11.2911 5.6022 11.3035 5.70923 11.2865C5.80404 11.2715 5.89536 11.2397 5.97885 11.1926C6.07308 11.1394 6.1531 11.0599 6.31314 10.901L8.99428 8.23792L4.16206 6.63805C3.51029 6.42225 3.1844 6.31436 3.03389 6.11303C2.90247 5.93723 2.84975 5.71542 2.88815 5.4998C2.93212 5.25287 3.17502 5.01161 3.66082 4.52909L3.95798 4.23393C4.14143 4.05172 4.23315 3.96062 4.34182 3.90418C4.43801 3.85423 4.5434 3.82421 4.65162 3.81593C4.77388 3.80658 4.90028 3.83555 5.15307 3.8935L11.1313 5.26378C11.3797 5.32072 11.5039 5.34919 11.6238 5.34071C11.7396 5.33254 11.8522 5.29948 11.9539 5.24382C12.0591 5.18618 12.1478 5.09521 12.3251 4.91328L14.4972 2.68495Z" stroke="#2E90FA" stroke-width="1.5" stroke-linecap="round" stroke-linejoin="round"/>
</g>
</svg>
