<svg width="21" height="20" viewBox="0 0 21 20" fill="none" xmlns="http://www.w3.org/2000/svg">
<g id="Atoms / Icon">
<g id="Vector">
<path d="M15.4136 3.13731C15.1608 2.95836 14.8718 2.96284 14.6497 3.10142C14.4351 3.23531 14.3 3.48226 14.3 3.7619V17.6829C14.3 18.6189 15.3025 19.1817 16.199 18.9466C16.6777 18.821 17.0209 18.5445 17.2231 18.179C17.4233 17.8172 17.48 17.3789 17.4127 16.9298L16.832 13.0538C17.4885 12.9101 17.9988 12.7249 18.3628 12.5637C18.8643 12.3417 19.122 11.8479 19.0985 11.3439C18.8966 7.01088 16.8877 4.18085 15.4136 3.13731Z" fill="#FCCEEE"/>
<path d="M7.16883 3C6.54884 3 6.00683 3.40444 5.90185 3.98692C5.7267 4.95879 5.48139 6.6583 5.50112 8.4757C5.51209 9.48547 6.23244 10.3931 7.36308 10.6309C7.52784 10.6655 7.70113 10.6976 7.88105 10.7252L7.18306 16.9633C7.07853 17.8975 7.69859 18.8365 8.73069 18.9712C8.86399 18.9887 8.99147 19 9.09999 19C9.20855 19 9.33603 18.9887 9.46933 18.9712C10.5014 18.8365 11.1215 17.8975 11.017 16.9633L10.319 10.7252C10.4989 10.6976 10.6722 10.6656 10.837 10.6309C11.9676 10.3931 12.6879 9.48551 12.6989 8.47581C12.7186 6.65815 12.4729 4.95843 12.2975 3.98658C12.1924 3.40426 11.6505 3 11.0306 3H10.9203C10.8685 3 10.819 3.01985 10.7833 3.05495C10.7475 3.09006 10.7287 3.13735 10.731 3.18585L10.8993 6.65929C10.9112 6.90452 10.7089 7.11234 10.4476 7.12347C10.1863 7.13463 9.96479 6.94487 9.95292 6.69968L9.78191 3.1697C9.77733 3.07476 9.69393 3 9.59264 3H8.60704C8.50575 3 8.42235 3.07476 8.41776 3.1697L8.24675 6.69968C8.23489 6.94487 8.01341 7.13463 7.75206 7.12347C7.49075 7.11234 7.28853 6.90452 7.30041 6.65929L7.46867 3.18585C7.47102 3.13735 7.45213 3.09006 7.41638 3.05495C7.38064 3.01985 7.33115 3 7.2794 3H7.16883Z" fill="#FCCEEE"/>
</g>
<g id="Vector_2">
<path d="M13.4136 2.13731C13.1608 1.95836 12.8718 1.96284 12.6497 2.10142C12.4351 2.23531 12.3 2.48226 12.3 2.7619V16.6829C12.3 17.6189 13.3025 18.1817 14.199 17.9466C14.6777 17.821 15.0209 17.5445 15.2231 17.179C15.4233 16.8172 15.48 16.3789 15.4127 15.9298L14.832 12.0538C15.4885 11.9101 15.9988 11.7249 16.3628 11.5637C16.8643 11.3417 17.122 10.8479 17.0985 10.3439C16.8966 6.01088 14.8877 3.18085 13.4136 2.13731Z" stroke="#EE46BC" stroke-width="1.5" stroke-linejoin="round"/>
<path d="M5.16883 2C4.54884 2 4.00683 2.40444 3.90185 2.98692C3.7267 3.95879 3.48139 5.6583 3.50112 7.4757C3.51209 8.48547 4.23244 9.39309 5.36308 9.63089C5.52784 9.66552 5.70113 9.69759 5.88105 9.72518L5.18306 15.9633C5.07853 16.8975 5.69859 17.8365 6.73069 17.9712C6.86399 17.9887 6.99147 18 7.09999 18C7.20855 18 7.33603 17.9887 7.46933 17.9712C8.50143 17.8365 9.12147 16.8975 9.01696 15.9633L8.31897 9.72522C8.49893 9.69763 8.67225 9.66555 8.83705 9.63089C9.96762 9.39309 10.6879 8.48551 10.6989 7.47581C10.7186 5.65815 10.4729 3.95843 10.2975 2.98658C10.1924 2.40426 9.65049 2 9.03064 2H8.92026C8.86853 2 8.81905 2.01985 8.78328 2.05495C8.74754 2.09006 8.72867 2.13735 8.73102 2.18585L8.89927 5.65929C8.91116 5.90452 8.70893 6.11234 8.44762 6.12347C8.18627 6.13463 7.96479 5.94487 7.95293 5.69968L7.78191 2.1697C7.77733 2.07476 7.69393 2 7.59264 2H6.60704C6.50575 2 6.42235 2.07476 6.41776 2.1697L6.24675 5.69968C6.23489 5.94487 6.01341 6.13463 5.75206 6.12347C5.49075 6.11234 5.28853 5.90452 5.30041 5.65929L5.46867 2.18585C5.47102 2.13735 5.45213 2.09006 5.41638 2.05495C5.38064 2.01985 5.33115 2 5.27941 2H5.16883Z" stroke="#EE46BC" stroke-width="1.5" stroke-linejoin="round"/>
</g>
</g>
</svg>
