<svg width="20" height="20" viewBox="0 0 20 20" fill="none" xmlns="http://www.w3.org/2000/svg">
<g id="Atoms / Icon">
<g id="Icon">
<path d="M12 19C16.4183 19 20 15.4183 20 11C20 6.58172 16.4183 3 12 3C7.58172 3 4 6.58172 4 11C4 15.4183 7.58172 19 12 19Z" fill="#FFD6AE"/>
<path d="M12 14.2C13.7673 14.2 15.2 12.7673 15.2 11C15.2 9.23269 13.7673 7.8 12 7.8C10.2327 7.8 8.8 9.23269 8.8 11C8.8 12.7673 10.2327 14.2 12 14.2Z" fill="#FFD6AE"/>
</g>
<path id="Icon_2" d="M7.70901 7.70903L4.34315 4.34316M4.34315 15.6569L7.73438 12.2656M12.2889 12.291L15.6547 15.6569M15.6547 4.34316L12.263 7.73489M18 10C18 14.4183 14.4183 18 10 18C5.58172 18 2 14.4183 2 10C2 5.58172 5.58172 2 10 2C14.4183 2 18 5.58172 18 10ZM13.2 10C13.2 11.7673 11.7673 13.2 10 13.2C8.23269 13.2 6.8 11.7673 6.8 10C6.8 8.23269 8.23269 6.8 10 6.8C11.7673 6.8 13.2 8.23269 13.2 10Z" stroke="#FF4405" stroke-width="1.5" stroke-linecap="round" stroke-linejoin="round"/>
</g>
</svg>
