<svg width="20" height="20" viewBox="0 0 20 20" fill="none" xmlns="http://www.w3.org/2000/svg">
<g id="Atoms / Icon">
<path id="Icon" d="M12.8732 3.44191C12.5609 3.19902 12.4047 3.07758 12.2323 3.03089C12.0802 2.9897 11.9198 2.9897 11.7677 3.03089C11.5953 3.07758 11.4391 3.19902 11.1268 3.44191L5.09812 8.13092C4.69513 8.44436 4.49363 8.60108 4.34847 8.79734C4.21988 8.9712 4.12409 9.16706 4.0658 9.37529C4 9.61038 4 9.86565 4 10.3762V16.8072C4 17.8029 4 18.3007 4.19377 18.681C4.36421 19.0155 4.63617 19.2875 4.97068 19.4579C5.35097 19.6517 5.8488 19.6517 6.84444 19.6517H8.62222C8.87113 19.6517 8.99559 19.6517 9.09066 19.6032C9.17429 19.5606 9.24228 19.4926 9.28489 19.409C9.33333 19.3139 9.33333 19.1895 9.33333 18.9406V13.0739C9.33333 12.5761 9.33333 12.3272 9.43022 12.137C9.51544 11.9698 9.65142 11.8338 9.81868 11.7486C10.0088 11.6517 10.2577 11.6517 10.7556 11.6517H13.2444C13.7423 11.6517 13.9912 11.6517 14.1813 11.7486C14.3486 11.8338 14.4846 11.9698 14.5698 12.137C14.6667 12.3272 14.6667 12.5761 14.6667 13.0739V18.9406C14.6667 19.1895 14.6667 19.3139 14.7151 19.409C14.7577 19.4926 14.8257 19.5606 14.9093 19.6032C15.0044 19.6517 15.1289 19.6517 15.3778 19.6517H17.1556C18.1512 19.6517 18.649 19.6517 19.0293 19.4579C19.3638 19.2875 19.6358 19.0155 19.8062 18.681C20 18.3007 20 17.8029 20 16.8072V10.3762C20 9.86565 20 9.61038 19.9342 9.37529C19.8759 9.16706 19.7801 8.9712 19.6515 8.79734C19.5064 8.60108 19.3049 8.44436 18.9019 8.13092L12.8732 3.44191Z" fill="#B2DDFF"/>
<path id="Icon_2" d="M10.8732 2.44191C10.5609 2.19902 10.4047 2.07758 10.2323 2.03089C10.0802 1.9897 9.91983 1.9897 9.76769 2.03089C9.59527 2.07758 9.43913 2.19902 9.12684 2.44191L3.09812 7.13092C2.69513 7.44436 2.49363 7.60108 2.34847 7.79734C2.21988 7.9712 2.12409 8.16706 2.0658 8.37529C2 8.61038 2 8.86565 2 9.37618V15.8072C2 16.8029 2 17.3007 2.19377 17.681C2.36421 18.0155 2.63617 18.2875 2.97068 18.4579C3.35097 18.6517 3.8488 18.6517 4.84444 18.6517H6.62222C6.87113 18.6517 6.99559 18.6517 7.09066 18.6032C7.17429 18.5606 7.24228 18.4926 7.28489 18.409C7.33333 18.3139 7.33333 18.1895 7.33333 17.9406V12.0739C7.33333 11.5761 7.33333 11.3272 7.43022 11.137C7.51544 10.9698 7.65142 10.8338 7.81868 10.7486C8.00882 10.6517 8.25773 10.6517 8.75556 10.6517H11.2444C11.7423 10.6517 11.9912 10.6517 12.1813 10.7486C12.3486 10.8338 12.4846 10.9698 12.5698 11.137C12.6667 11.3272 12.6667 11.5761 12.6667 12.0739V17.9406C12.6667 18.1895 12.6667 18.3139 12.7151 18.409C12.7577 18.4926 12.8257 18.5606 12.9093 18.6032C13.0044 18.6517 13.1289 18.6517 13.3778 18.6517H15.1556C16.1512 18.6517 16.649 18.6517 17.0293 18.4579C17.3638 18.2875 17.6358 18.0155 17.8062 17.681C18 17.3007 18 16.8029 18 15.8072V9.37618C18 8.86565 18 8.61038 17.9342 8.37529C17.8759 8.16706 17.7801 7.9712 17.6515 7.79734C17.5064 7.60108 17.3049 7.44436 16.9019 7.13092L10.8732 2.44191Z" stroke="#2E90FA" stroke-width="1.5" stroke-linecap="round" stroke-linejoin="round"/>
</g>
</svg>
