<svg width="21" height="20" viewBox="0 0 21 20" fill="none" xmlns="http://www.w3.org/2000/svg">
<g id="Atoms / Icon">
<path id="Vector" fill-rule="evenodd" clip-rule="evenodd" d="M14.4998 2.66675H16.1665C17.7379 2.66675 18.5235 2.66675 19.0117 3.1549C19.4998 3.64306 19.4998 4.42873 19.4998 6.00008V18.7084H20.3332C20.6784 18.7084 20.9582 18.9882 20.9582 19.3334C20.9582 19.6786 20.6784 19.9584 20.3332 19.9584H3.6665C3.32133 19.9584 3.0415 19.6786 3.0415 19.3334C3.0415 18.9882 3.32133 18.7084 3.6665 18.7084H4.49984V8.50008C4.49984 6.92873 4.49984 6.14306 4.98799 5.6549C5.47615 5.16675 6.26182 5.16675 7.83317 5.16675H11.1665C12.7379 5.16675 13.5235 5.16675 14.0117 5.6549C14.4998 6.14306 14.4998 6.92873 14.4998 8.50008V18.7084H15.7498V8.50008L15.7498 8.42551C15.7499 7.70415 15.75 7.04276 15.6777 6.50474C15.598 5.91227 15.4106 5.28606 14.8956 4.77102C14.3805 4.25598 13.7543 4.06857 13.1619 3.98891C12.6314 3.9176 11.981 3.91667 11.2715 3.91674C11.3418 3.59404 11.459 3.35057 11.6547 3.1549C12.1428 2.66675 12.9285 2.66675 14.4998 2.66675ZM6.37484 7.66675C6.37484 7.32157 6.65466 7.04175 6.99984 7.04175H11.9998C12.345 7.04175 12.6248 7.32157 12.6248 7.66675C12.6248 8.01193 12.345 8.29175 11.9998 8.29175H6.99984C6.65466 8.29175 6.37484 8.01193 6.37484 7.66675ZM6.37484 10.1667C6.37484 9.82157 6.65466 9.54175 6.99984 9.54175H11.9998C12.345 9.54175 12.6248 9.82157 12.6248 10.1667C12.6248 10.5119 12.345 10.7917 11.9998 10.7917H6.99984C6.65466 10.7917 6.37484 10.5119 6.37484 10.1667ZM6.37484 12.6667C6.37484 12.3216 6.65466 12.0417 6.99984 12.0417H11.9998C12.345 12.0417 12.6248 12.3216 12.6248 12.6667C12.6248 13.0119 12.345 13.2917 11.9998 13.2917H6.99984C6.65466 13.2917 6.37484 13.0119 6.37484 12.6667ZM9.49984 16.2084C9.84502 16.2084 10.1248 16.4882 10.1248 16.8334V18.7084H8.87484V16.8334C8.87484 16.4882 9.15466 16.2084 9.49984 16.2084Z" fill="#FECDD6"/>
<path id="Vector_2" d="M18.8332 19.0834C19.2474 19.0834 19.5832 18.7476 19.5832 18.3334C19.5832 17.9192 19.2474 17.5834 18.8332 17.5834V19.0834ZM2.1665 17.5834C1.75229 17.5834 1.4165 17.9192 1.4165 18.3334C1.4165 18.7476 1.75229 19.0834 2.1665 19.0834V17.5834ZM17.5117 2.1549L16.9814 2.68523L16.9814 2.68523L17.5117 2.1549ZM10.1547 2.1549L9.62433 1.62457V1.62457L10.1547 2.1549ZM8.9202 4.1559C8.91421 4.57007 9.24511 4.91068 9.65928 4.91667C10.0734 4.92266 10.4141 4.59177 10.42 4.1776L8.9202 4.1559ZM12.5117 4.6549L11.9813 5.18523L11.9814 5.18523L12.5117 4.6549ZM7.24984 18.3334C7.24984 18.7476 7.58562 19.0834 7.99984 19.0834C8.41405 19.0834 8.74984 18.7476 8.74984 18.3334H7.24984ZM8.74984 15.8334C8.74984 15.4192 8.41405 15.0834 7.99984 15.0834C7.58562 15.0834 7.24984 15.4192 7.24984 15.8334H8.74984ZM5.49984 5.91675C5.08562 5.91675 4.74984 6.25253 4.74984 6.66675C4.74984 7.08096 5.08562 7.41675 5.49984 7.41675V5.91675ZM10.4998 7.41675C10.9141 7.41675 11.2498 7.08096 11.2498 6.66675C11.2498 6.25253 10.9141 5.91675 10.4998 5.91675V7.41675ZM5.49984 8.41675C5.08562 8.41675 4.74984 8.75253 4.74984 9.16675C4.74984 9.58096 5.08562 9.91675 5.49984 9.91675V8.41675ZM10.4998 9.91675C10.9141 9.91675 11.2498 9.58096 11.2498 9.16675C11.2498 8.75253 10.9141 8.41675 10.4998 8.41675V9.91675ZM5.49984 10.9167C5.08562 10.9167 4.74984 11.2525 4.74984 11.6667C4.74984 12.081 5.08562 12.4167 5.49984 12.4167V10.9167ZM10.4998 12.4167C10.9141 12.4167 11.2498 12.081 11.2498 11.6667C11.2498 11.2525 10.9141 10.9167 10.4998 10.9167V12.4167ZM18.8332 17.5834H2.1665V19.0834H18.8332V17.5834ZM12.9998 2.41675H14.6665V0.916748H12.9998V2.41675ZM17.2498 5.00008V18.3334H18.7498V5.00008H17.2498ZM14.6665 2.41675C15.4734 2.41675 16.0031 2.41834 16.3954 2.47108C16.766 2.52092 16.8999 2.60373 16.9814 2.68523L18.042 1.62457C17.6354 1.21792 17.1322 1.05666 16.5952 0.984455C16.0798 0.915155 15.431 0.916748 14.6665 0.916748V2.41675ZM18.7498 5.00008C18.7498 4.23561 18.7514 3.58681 18.6821 3.07136C18.6099 2.53434 18.4487 2.03123 18.042 1.62457L16.9814 2.68523C17.0629 2.76673 17.1457 2.90054 17.1955 3.27123C17.2482 3.6635 17.2498 4.1932 17.2498 5.00008H18.7498ZM12.9998 0.916748C12.2354 0.916748 11.5866 0.915155 11.0711 0.984455C10.5341 1.05666 10.031 1.21792 9.62433 1.62457L10.685 2.68523C10.7665 2.60373 10.9003 2.52092 11.271 2.47108C11.6633 2.41834 12.193 2.41675 12.9998 2.41675V0.916748ZM10.42 4.1776C10.4357 3.09235 10.5392 2.83104 10.685 2.68523L9.62433 1.62457C8.98423 2.26467 8.9344 3.17484 8.9202 4.1559L10.42 4.1776ZM6.33317 4.91675H9.6665V3.41675H6.33317V4.91675ZM12.2498 7.50008V18.3334H13.7498V7.50008H12.2498ZM3.74984 18.3334V7.50008H2.24984V18.3334H3.74984ZM9.6665 4.91675C10.4734 4.91675 11.0031 4.91834 11.3954 4.97108C11.766 5.02092 11.8998 5.10373 11.9813 5.18523L13.042 4.12457C12.6354 3.71792 12.1322 3.55666 11.5952 3.48446C11.0798 3.41516 10.431 3.41675 9.6665 3.41675V4.91675ZM13.7498 7.50008C13.7498 6.73561 13.7514 6.08681 13.6821 5.57136C13.6099 5.03434 13.4487 4.53123 13.042 4.12457L11.9814 5.18523C12.0629 5.26674 12.1457 5.40054 12.1955 5.77123C12.2482 6.1635 12.2498 6.6932 12.2498 7.50008H13.7498ZM6.33317 3.41675C5.5687 3.41675 4.9199 3.41516 4.40445 3.48446C3.86743 3.55666 3.36432 3.71792 2.95766 4.12457L4.01832 5.18523C4.09982 5.10373 4.23363 5.02092 4.60432 4.97108C4.99659 4.91834 5.52629 4.91675 6.33317 4.91675V3.41675ZM3.74984 7.50008C3.74984 6.6932 3.75143 6.1635 3.80417 5.77123C3.85401 5.40054 3.93682 5.26673 4.01832 5.18523L2.95766 4.12457C2.55101 4.53123 2.38975 5.03434 2.31754 5.57136C2.24824 6.08681 2.24984 6.73561 2.24984 7.50008H3.74984ZM8.74984 18.3334V15.8334H7.24984V18.3334H8.74984ZM5.49984 7.41675H10.4998V5.91675H5.49984V7.41675ZM5.49984 9.91675H10.4998V8.41675H5.49984V9.91675ZM5.49984 12.4167H10.4998V10.9167H5.49984V12.4167Z" fill="#F63D68"/>
</g>
</svg>
