<svg width="26" height="26" viewBox="0 0 26 26" fill="none" xmlns="http://www.w3.org/2000/svg">
<path d="M2.8667 10.3334H23.1334V20.4667H2.8667V10.3334Z" fill="#B2CCFF"/>
<path d="M2.8667 20.4667H23.1334V22.6H2.8667V20.4667Z" fill="#155EEF"/>
<path d="M6.6001 13H19.4001V22.6H6.6001V13Z" fill="#F5F8FF"/>
<path d="M7.1333 13.5333H18.8666V22.6H7.1333V13.5333Z" fill="#528BFF"/>
<path d="M18.8666 22.6H7.1333V18.8667L18.8666 13.5333V22.6Z" fill="#B2CCFF"/>
<path d="M14.6 10.3333C14.6 11.2165 13.8837 11.9333 13 11.9333C12.1163 11.9333 11.4 11.2165 11.4 10.3333C11.4 9.45014 12.1163 8.73334 13 8.73334C13.8837 8.73334 14.6 9.45014 14.6 10.3333ZM21 10.3333C21 11.2165 20.2837 11.9333 19.4 11.9333C18.5163 11.9333 17.8 11.2165 17.8 10.3333C17.8 9.45014 18.5163 8.73334 19.4 8.73334C20.2837 8.73334 21 9.45014 21 10.3333ZM5 10.3333C5 11.2165 5.71627 11.9333 6.6 11.9333C7.48373 11.9333 8.2 11.2165 8.2 10.3333C8.2 9.45014 7.48373 8.73334 6.6 8.73334C5.71627 8.73334 5 9.45014 5 10.3333Z" fill="#0040C1"/>
<path d="M21.5335 3.40002H4.46681C3.87748 3.40002 3.40015 3.87736 3.40015 4.46669V6.06669H22.6001V4.46669C22.6001 3.87736 22.1223 3.40002 21.5335 3.40002ZM11.4001 6.06669H14.6001V10.3334H11.4001V6.06669ZM19.9335 6.06669H17.2668L17.8001 10.3334H21.0001L19.9335 6.06669ZM6.06681 6.06669H8.73348L8.20014 10.3334H5.00015L6.06681 6.06669Z" fill="#155EEF"/>
<path d="M17.8 10.3333C17.8 11.2165 17.0838 11.9333 16.2 11.9333C15.3163 11.9333 14.6 11.2165 14.6 10.3333C14.6 9.45014 15.3163 8.73334 16.2 8.73334C17.0838 8.73334 17.8 9.45014 17.8 10.3333ZM24.2 10.3333C24.2 11.2165 23.4838 11.9333 22.6 11.9333C21.7163 11.9333 21 11.2165 21 10.3333C21 9.45014 21.7163 8.73334 22.6 8.73334L24.2 10.3333ZM8.20004 10.3333C8.20004 11.2165 8.91631 11.9333 9.80004 11.9333C10.6838 11.9333 11.4 11.2165 11.4 10.3333C11.4 9.45014 10.6838 8.73334 9.80004 8.73334C8.91631 8.73334 8.20004 9.45014 8.20004 10.3333ZM1.80005 10.3333C1.80005 11.2165 2.51632 11.9333 3.40005 11.9333C4.28378 11.9333 5.00005 11.2165 5.00005 10.3333C5.00005 9.45014 4.28378 8.73334 3.40005 8.73334L1.80005 10.3333Z" fill="#155EEF"/>
<path d="M17.2667 6.06671H14.6V10.3334H17.8L17.2667 6.06671ZM22.6 6.06671H19.9334L21 10.3334H24.2L22.6 6.06671ZM8.73338 6.06671H11.4V10.3334H8.20004L8.73338 6.06671ZM3.40005 6.06671H6.06671L5.00005 10.3334H1.80005L3.40005 6.06671Z" fill="#B2CCFF"/>
<path d="M12.4668 13.5333H13.5335V22.6H12.4668V13.5333Z" fill="#155EEF"/>
<path d="M12.4668 16.4422V22.6H13.5335V15.9579L12.4668 16.4422ZM15.1335 17.8C14.8389 17.8 14.6002 18.0388 14.6002 18.3334C14.6002 18.6279 14.8389 18.8667 15.1335 18.8667C15.428 18.8667 15.6668 18.6279 15.6668 18.3334C15.6668 18.0388 15.428 17.8 15.1335 17.8ZM10.8668 17.8C10.5723 17.8 10.3335 18.0388 10.3335 18.3334C10.3335 18.6279 10.5723 18.8667 10.8668 18.8667C11.1614 18.8667 11.4002 18.6279 11.4002 18.3334C11.4002 18.0388 11.1614 17.8 10.8668 17.8Z" fill="#155EEF"/>
</svg>
