<svg width="26" height="26" viewBox="0 0 26 26" fill="none" xmlns="http://www.w3.org/2000/svg">
<path d="M24.2 18.8667C24.2 20.04 23.24 21 22.0667 21H3.93338C2.76005 21 1.80005 20.04 1.80005 18.8667V7.13333C1.80005 5.96 2.76005 5 3.93338 5H22.0667C23.24 5 24.2 5.96 24.2 7.13333V18.8667Z" fill="#155EEF"/>
<path d="M12.8934 12.1467L13.9067 13.16L8.36008 19.1867C8.04008 19.5067 7.61342 19.5067 7.29342 19.24L6.81342 18.76C6.54675 18.4933 6.54675 18.0133 6.86675 17.6933L12.8934 12.1467ZM14.3334 13.16L13.2134 14.28L17.6934 19.1867C18.0134 19.5067 18.4934 19.4533 18.8667 19.08L19.1334 18.8133C19.5067 18.44 19.5067 17.96 19.2401 17.64L14.3334 13.16Z" fill="#B2CCFF"/>
<path d="M17.3734 7.07998L14.0134 10.4933L14.3868 10.8666L17.7468 7.45331L18.4934 8.25331L15.1334 11.6133L15.5068 11.9866L18.9201 8.62664L19.4001 9.10664L15.8801 13.16L14.0134 13L13.0001 11.9866L12.8401 10.12L16.8934 6.59998L17.3734 7.07998Z" fill="#F5F8FF"/>
<path d="M14.3333 13.16L13.2133 14.28L6.06665 7.18669C6.59998 6.60002 10.76 6.81336 14.3333 13.16Z" fill="#F5F8FF"/>
<path d="M15.2933 12.68C14.6533 11.56 13.96 10.6 13.32 9.74664L12.8933 10.12L12.9466 11.0266C13.3733 11.6133 13.8533 12.2533 14.28 13L15.56 13.1066L15.2933 12.68Z" fill="#B2CCFF"/>
</svg>
