<svg width="26" height="26" viewBox="0 0 26 26" fill="none" xmlns="http://www.w3.org/2000/svg">
<path d="M15.3465 2.59998L15.7731 3.62116L16.8931 3.72866L16.0398 4.42737L16.3065 5.55605L15.3465 4.96483L14.3865 5.55605L14.6531 4.42737L13.7998 3.72866L14.9198 3.62116L15.3465 2.59998ZM19.3998 4.42737L19.7731 5.39481L20.7865 5.44855L20.0398 6.09352L20.2531 7.1147L19.3998 6.57724L18.5465 7.1147L18.7598 6.09352L18.0131 5.44855L19.0265 5.39481L19.3998 4.42737ZM10.6531 2.59998L10.2265 3.62116L9.10647 3.72866L9.9598 4.42737L9.69313 5.55605L10.6531 4.96483L11.6131 5.55605L11.3465 4.42737L12.1998 3.72866L11.0798 3.62116L10.6531 2.59998ZM6.5998 4.42737L6.22647 5.39481L5.21313 5.44855L5.9598 6.09352L5.74647 7.1147L6.5998 6.57724L7.45313 7.1147L7.2398 6.09352L7.98647 5.44855L6.97313 5.39481L6.5998 4.42737Z" fill="#155EEF"/>
<path d="M22.5999 22.325H3.3999V9.42573L12.9999 6.20093L22.5999 9.42573V22.325Z" fill="#155EEF"/>
<path d="M16.7332 12.1132H19.9332V14.8005H16.7332V12.1132ZM11.3999 12.1132H14.5999V14.8005H11.3999V12.1132ZM6.06657 12.1132H9.26657V14.8005H6.06657V12.1132ZM16.7332 16.4129H19.9332V19.1003H16.7332V16.4129ZM6.06657 16.4129H9.26657V19.1003H6.06657V16.4129ZM10.8666 16.4129H15.1332V23.4H10.8666V16.4129ZM12.9999 5.1261L3.3999 8.3509V9.42584L12.9999 6.20103L22.5999 9.42584V8.3509L12.9999 5.1261Z" fill="#B2CCFF"/>
<path d="M3.3999 22.3251H22.5999V23.4H3.3999V22.3251Z" fill="#155EEF"/>
</svg>
