<svg width="26" height="26" viewBox="0 0 26 26" fill="none" xmlns="http://www.w3.org/2000/svg">
<path d="M1.3999 21.3715C1.3999 21.3715 2.87627 18.2631 6.67263 18.2631C10.469 18.2631 11.9454 21.3715 11.9454 21.3715V23H1.3999V21.3715ZM24.5999 21.3715C24.5999 21.3715 23.1235 18.2631 19.3272 18.2631C15.5308 18.2631 14.0544 21.3715 14.0544 21.3715V23H24.5999V21.3715Z" fill="#155EEF"/>
<path d="M6.6725 11.9473C5.21647 11.9473 4.03613 13.1255 4.03613 14.5789C4.03613 16.0323 5.21647 17.2105 6.6725 17.2105C8.12852 17.2105 9.30886 16.0323 9.30886 14.5789C9.30886 13.1255 8.12852 11.9473 6.6725 11.9473ZM19.327 11.9473C17.871 11.9473 16.6907 13.1255 16.6907 14.5789C16.6907 16.0323 17.871 17.2105 19.327 17.2105C20.7831 17.2105 21.9634 16.0323 21.9634 14.5789C21.9634 13.1255 20.7831 11.9473 19.327 11.9473Z" fill="#B2CCFF"/>
<path d="M17.218 3H9.83621C8.96252 3 8.25439 3.70684 8.25439 4.57895V9.31579C8.25439 10.1826 8.96779 10.8879 9.83621 10.8947H11.9453L13.5271 13L15.1089 10.8947H17.218C18.0917 10.8947 18.7998 10.1879 18.7998 9.31579V4.57895C18.7998 3.70684 18.0917 3 17.218 3Z" fill="#155EEF"/>
<path d="M12.7888 9.421L10.9434 7.57889L11.6815 6.84205L12.7888 7.94731L15.6392 5.10205L16.3774 5.83889L12.7888 9.421Z" fill="#EFF4FF"/>
</svg>
