<svg width="26" height="26" viewBox="0 0 26 26" fill="none" xmlns="http://www.w3.org/2000/svg">
<path d="M7.13322 20.1998C7.13322 19.9049 6.89482 19.6665 6.59988 19.6665H4.99989C4.70495 19.6665 4.46655 19.9049 4.46655 20.1998V22.8665C4.46655 23.1614 4.70495 23.3998 4.99989 23.3998H6.59988C6.89482 23.3998 7.13322 23.1614 7.13322 22.8665V20.1998ZM21.5332 20.1998C21.5332 19.9049 21.2948 19.6665 20.9999 19.6665H19.3999C19.1049 19.6665 18.8665 19.9049 18.8665 20.1998V22.8665C18.8665 23.1614 19.1049 23.3998 19.3999 23.3998H20.9999C21.2948 23.3998 21.5332 23.1614 21.5332 22.8665V20.1998Z" fill="#0040C1"/>
<path d="M19.3998 16.4666H6.59985C6.59985 16.4666 8.39132 11.6666 8.73319 11.1332C9.07505 10.5999 9.62492 10.5999 9.79985 10.5999C9.88625 10.5999 11.4431 10.5999 13.5332 10.5999C15.667 10.5999 16.1998 10.5999 16.1998 10.5999C16.314 10.5999 16.9497 10.5834 17.2665 11.1332C17.5353 11.6004 19.3998 16.4666 19.3998 16.4666Z" fill="#EFF4FF"/>
<path d="M20.4665 15.9332L12.9999 15.3999L5.53322 15.9332C4.94442 15.9332 4.46655 16.4111 4.46655 16.9999V21.2666C4.46655 21.5615 4.70495 21.7999 4.99989 21.7999H20.9999C21.2948 21.7999 21.5332 21.5615 21.5332 21.2666V16.9999C21.5332 16.4111 21.0553 15.9332 20.4665 15.9332Z" fill="#155EEF"/>
<path d="M16.1999 11.1332C16.3807 11.1332 17.3108 11.2041 17.8778 12.6009C17.9914 12.8799 18.9423 15.2617 18.9423 15.2623L19.2106 15.9332H6.78977L7.0575 15.2607C7.37857 14.4537 8.01323 12.8612 8.11723 12.61C8.68897 11.2393 9.54977 11.1332 9.7999 11.1332H12.9999H16.1967H16.1999ZM16.2015 10.0665C16.2015 10.0665 16.201 10.0665 16.1999 10.0665C16.1999 10.0665 15.1338 10.0665 12.9999 10.0665C10.9098 10.0665 9.8863 10.0665 9.7999 10.0665C9.62497 10.0665 8.0223 10.0665 7.13323 12.1999C6.99777 12.5252 6.06657 14.8665 6.06657 14.8665H3.93324C3.6383 14.8665 3.3999 15.1049 3.3999 15.3999V16.4665C3.3999 16.7615 3.6383 16.9999 3.93324 16.9999H5.53323H6.06657H19.9332H20.4666H22.0666C22.3615 16.9999 22.5999 16.7615 22.5999 16.4665V15.3999C22.5999 15.1049 22.3615 14.8665 22.0666 14.8665H19.9332C19.9332 14.8665 18.9802 12.4793 18.8666 12.1999C17.9999 10.0665 16.361 10.0665 16.1999 10.0665C16.1972 10.0665 16.1967 10.0665 16.1967 10.0665H16.2015Z" fill="#155EEF"/>
<path d="M20.4665 19.1332C20.4665 19.4281 20.2281 19.6665 19.9332 19.6665H6.06654C5.7716 19.6665 5.5332 19.4281 5.5332 19.1332V17.5332C5.5332 17.2383 5.7716 16.9999 6.06654 16.9999H19.9332C20.2281 16.9999 20.4665 17.2383 20.4665 17.5332V19.1332Z" fill="#B2CCFF"/>
<path d="M6.86665 17.5332C6.42482 17.5332 6.06665 17.8914 6.06665 18.3332C6.06665 18.775 6.42482 19.1332 6.86665 19.1332C7.30848 19.1332 7.66665 18.775 7.66665 18.3332C7.66665 17.8914 7.30848 17.5332 6.86665 17.5332ZM19.1333 17.5332C18.6915 17.5332 18.3333 17.8914 18.3333 18.3332C18.3333 18.775 18.6915 19.1332 19.1333 19.1332C19.5751 19.1332 19.9333 18.775 19.9333 18.3332C19.9333 17.8914 19.5751 17.5332 19.1333 17.5332Z" fill="#EFF4FF"/>
<path d="M17.8 6.33316H10.8667V4.19983H13.5334V5.2665L14.6 4.19983H15.6667V5.2665L16.7334 4.19983H17.8L18.8667 4.7321V5.79983L17.8 6.33316Z" fill="#155EEF"/>
<path d="M9.79997 2.59985C8.3269 2.59985 7.1333 3.79345 7.1333 5.26652C7.1333 6.73958 8.3269 7.93318 9.79997 7.93318C11.273 7.93318 12.4666 6.73958 12.4666 5.26652C12.4666 3.79345 11.273 2.59985 9.79997 2.59985ZM8.7333 5.79985C8.43837 5.79985 8.19997 5.56145 8.19997 5.26652C8.19997 4.97159 8.43837 4.73319 8.7333 4.73319C9.02823 4.73319 9.26663 4.97159 9.26663 5.26652C9.26663 5.56145 9.02823 5.79985 8.7333 5.79985Z" fill="#155EEF"/>
<path d="M13.5332 6.33316V4.19983H12.2415C12.3849 4.52676 12.4665 4.88623 12.4665 5.2665C12.4665 5.64676 12.3849 6.00623 12.2415 6.33316H13.5332Z" fill="#0040C1"/>
</svg>
