<svg width="26" height="26" viewBox="0 0 26 26" fill="none" xmlns="http://www.w3.org/2000/svg">
<path d="M23.3999 13C23.3999 18.7902 18.6835 23.4 12.9999 23.4C7.31833 23.4 2.59985 18.7902 2.59985 13C2.59985 7.20978 7.20965 2.59998 12.9999 2.59998C18.7901 2.59998 23.3999 7.20978 23.3999 13Z" fill="#528BFF"/>
<path d="M12.5744 17.4708C11.9353 17.2571 11.2983 17.2571 10.7664 16.7252C10.6592 16.5135 10.6592 16.2998 10.5547 16.0882C10.3348 15.7299 9.87977 15.5999 9.42477 15.5999H7.27977C6.95944 15.4933 6.75977 15.0799 6.75977 14.8199C6.75977 14.7133 6.64641 14.5599 6.43477 14.5599C6.23977 14.5599 6.43477 14.5599 6.23977 14.5599C5.91477 14.5599 5.71977 14.2999 5.71977 14.0399C5.71977 13.7799 5.91477 13.5199 6.23977 13.5199C6.69477 13.5199 6.70101 13.5199 7.01977 13.5199C7.12637 13.5199 7.14977 13.3899 7.40717 13.3655C7.73477 13.3899 7.79977 13.5241 7.79977 13.8449V14.2999C7.79977 14.2999 7.79977 14.5599 8.05977 14.5599C8.31977 14.5599 8.31977 14.2999 8.31977 14.2999C8.31977 14.2999 8.31977 13.5849 8.31977 12.9349C8.3832 12.2989 8.83977 11.4399 10.0098 11.4399C10.9198 11.4399 11.4398 10.5949 11.4398 9.68489C11.4398 8.96989 11.1148 8.31989 10.2698 8.31989C9.87977 8.31989 8.83977 9.87989 8.31977 9.87989C7.92977 9.87989 7.79977 8.96989 7.79977 8.51489C7.79977 7.86489 8.83977 6.75989 9.35977 6.75989C9.87977 6.75989 10.601 7.27989 10.9198 7.27989C11.0264 7.27989 11.2047 7.25649 11.3098 7.14989C11.4164 7.04277 11.4398 6.99649 11.4398 6.88989C11.4398 6.57113 10.1985 5.95493 9.87977 5.84989C9.61301 5.76929 9.301 5.72041 8.96977 5.71989C7.98385 5.71885 6.82893 6.06465 6.19193 6.62313C6.12121 6.68501 6.04269 6.74845 5.96001 6.81241C4.52585 8.44625 3.65277 10.5871 3.64185 12.9552C3.68605 13.106 3.75209 13.2609 3.85349 13.4289C4.17225 14.068 4.80925 14.705 5.44833 15.1303C5.87369 15.4491 6.52941 15.5879 6.95477 16.1199C7.27352 16.5473 7.27977 16.8874 7.27977 17.4199C7.27977 18.0569 7.80393 18.6346 8.00048 19.1723C8.11592 19.4879 8.26672 19.9034 8.3208 20.2367C8.33744 20.3402 8.42585 20.9809 8.42585 21.0875C8.43573 21.1181 8.44612 21.1447 8.45652 21.1743C9.00148 21.478 9.57764 21.7307 10.1803 21.9221C10.2328 21.896 10.7716 21.4364 10.9198 21.2549C11.2058 20.9049 11.4049 20.4484 11.7237 20.2367C11.9353 20.1301 12.149 20.023 12.3607 19.8093C12.5744 19.5977 12.681 19.1723 12.786 18.8535C12.8926 18.6398 12.9998 18.3299 12.9998 17.9399C13.0003 17.7262 12.786 17.5774 12.5744 17.4708ZM12.9322 3.63989C12.8084 3.64093 12.6883 3.65237 12.5656 3.65809C12.3102 3.70125 12.0554 3.81461 11.9764 4.04289C11.8703 4.55093 12.2931 4.44901 12.7153 4.55093C12.7153 4.55093 12.8214 5.36317 12.8214 5.46509C12.9275 5.97313 12.6092 6.27733 12.6092 6.78381C12.6092 7.08957 12.6092 7.59761 12.8214 7.79989H12.9275C13.0336 7.79989 13.1376 7.69797 13.3502 7.59813C13.6669 7.39429 13.9852 7.09009 14.3018 6.88625C14.6185 6.68449 14.9347 6.37821 15.1468 6.17593C15.4635 5.97209 15.6757 5.56597 15.7818 5.26177C15.8858 5.05793 16.2045 4.65181 16.0984 4.34761C15.9924 4.14377 15.4635 4.04393 15.2534 3.94149C14.6414 3.79433 14.085 3.70333 13.5052 3.66277C13.4314 3.65913 13.3575 3.65393 13.2832 3.65185C13.1677 3.64561 13.0507 3.64145 12.9322 3.63989ZM22.3598 12.9999C22.3598 10.0401 21.0187 7.42497 18.907 5.71625C18.5898 5.97989 18.4993 6.75989 18.2648 6.75989C17.6148 6.75989 17.1598 7.95329 17.1598 8.05989C17.1598 8.31989 18.1998 8.38489 18.1998 8.64489C18.1998 9.03489 16.8992 9.99429 16.3798 10.3349C16.2279 10.4347 16.0548 10.5299 16.0548 10.9849C16.0548 11.4399 16.0548 11.4399 16.0548 11.4399H17.1598L17.1603 12.4799L14.0398 15.5999C14.54 16.0159 15.5998 16.1194 16.5311 16.1194C16.9648 16.1199 17.0214 16.2525 17.1598 16.4449C17.3548 16.8349 17.3594 17.5774 17.4666 17.8978C17.5716 18.3231 17.737 18.7235 17.8919 19.1739C18.0687 19.6866 18.3282 20.6725 18.3339 20.6793C20.755 18.9955 22.3598 16.2005 22.3598 12.9999Z" fill="#155EEF"/>
<path d="M2.80785 15.08C2.80785 15.08 2.59985 15.6488 2.59985 16.64C2.59985 18.2 3.63985 20.28 6.75985 20.28C10.9199 20.28 12.9999 16.64 12.9999 16.64C12.9999 16.64 11.4399 18.2 7.27985 18.2C3.24985 18.2 2.80785 15.08 2.80785 15.08Z" fill="#D1E0FF"/>
<path d="M19.1061 11.637L18.0026 10.5335L12.9997 9.87988L12.4797 10.3999L16.1644 12.3722L17.2674 13.4752L19.2397 17.1599L19.7597 16.6399L19.1061 11.637ZM11.9597 14.5599L12.4797 14.0399L14.5597 14.5599L15.0797 15.0799L15.5997 17.1599L15.0797 17.6799L13.9581 16.0492L13.5904 15.6815L11.9597 14.5599Z" fill="#D1E0FF"/>
<path d="M20.5661 9.0746C20.2535 8.76208 19.7476 8.76208 19.4351 9.0746C19.1225 9.38712 17.3613 11.1484 15.8533 12.6564C14.3453 14.1644 13.5913 15.6724 13.5913 15.6724L13.9683 16.0494C13.9683 16.0494 15.4763 15.2954 16.9843 13.7874C18.4923 12.2794 20.4127 10.359 20.5661 10.2056C20.8781 9.89308 20.8781 9.3866 20.5661 9.0746Z" fill="#EFF4FF"/>
</svg>
