<svg width="20" height="20" viewBox="0 0 20 20" fill="none" xmlns="http://www.w3.org/2000/svg">
<g id="Atoms / Icon">
<g id="Icon">
<path d="M16.3504 14.665H9.46574C8.66917 14.665 8.27089 14.665 7.9511 14.5181C7.66931 14.3886 7.43094 14.1805 7.26467 13.9187C7.07598 13.6217 7.02229 13.227 6.9149 12.4377L6.06867 6.21793H19.3119C19.5788 6.21793 19.7122 6.21793 19.8061 6.27265C19.8885 6.32065 19.9511 6.39634 19.9829 6.48623C20.019 6.58869 19.9941 6.71977 19.9441 6.98194L18.8793 12.5723C18.7374 13.3172 18.6665 13.6897 18.4745 13.9685C18.3052 14.2144 18.0708 14.4083 17.7977 14.5286C17.4878 14.665 17.1087 14.665 16.3504 14.665Z" fill="#FECDD6"/>
<path d="M9.63138 19.0897C10.0757 19.0897 10.4359 18.7295 10.4359 18.2852C10.4359 17.8409 10.0757 17.4807 9.63138 17.4807C9.18708 17.4807 8.8269 17.8409 8.8269 18.2852C8.8269 18.7295 9.18708 19.0897 9.63138 19.0897Z" fill="#FECDD6"/>
<path d="M16.0672 19.0897C16.5115 19.0897 16.8717 18.7295 16.8717 18.2852C16.8717 17.8409 16.5115 17.4807 16.0672 17.4807C15.6229 17.4807 15.2628 17.8409 15.2628 18.2852C15.2628 18.7295 15.6229 19.0897 16.0672 19.0897Z" fill="#FECDD6"/>
</g>
<path id="Icon_2" d="M2 2H3.05079C3.2487 2 3.34766 2 3.4273 2.0364C3.49748 2.06847 3.55695 2.12005 3.59863 2.18499C3.64592 2.25868 3.65992 2.35664 3.6879 2.55257L4.06867 5.21793M4.06867 5.21793L4.9149 11.4377C5.02229 12.227 5.07598 12.6217 5.26467 12.9187C5.43094 13.1805 5.66931 13.3886 5.9511 13.5181C6.27089 13.665 6.66917 13.665 7.46574 13.665H14.3504C15.1087 13.665 15.4878 13.665 15.7977 13.5286C16.0708 13.4083 16.3052 13.2144 16.4745 12.9685C16.6665 12.6897 16.7374 12.3172 16.8793 11.5723L17.9441 5.98194C17.9941 5.71977 18.019 5.58869 17.9829 5.48623C17.9511 5.39634 17.8885 5.32065 17.8061 5.27265C17.7122 5.21793 17.5788 5.21793 17.3119 5.21793H4.06867ZM8.43586 17.2852C8.43586 17.7295 8.07568 18.0897 7.63138 18.0897C7.18708 18.0897 6.8269 17.7295 6.8269 17.2852C6.8269 16.8409 7.18708 16.4807 7.63138 16.4807C8.07568 16.4807 8.43586 16.8409 8.43586 17.2852ZM14.8717 17.2852C14.8717 17.7295 14.5115 18.0897 14.0672 18.0897C13.6229 18.0897 13.2628 17.7295 13.2628 17.2852C13.2628 16.8409 13.6229 16.4807 14.0672 16.4807C14.5115 16.4807 14.8717 16.8409 14.8717 17.2852Z" stroke="#F63D68" stroke-width="1.5" stroke-linecap="round" stroke-linejoin="round"/>
</g>
</svg>
