<svg width="20" height="20" viewBox="0 0 20 20" fill="none" xmlns="http://www.w3.org/2000/svg">
<g id="Icon Leading">
<path id="Vector" fill-rule="evenodd" clip-rule="evenodd" d="M5.93726 3.93726C5 4.87452 5 6.38301 5 9.4V12.6C5 15.617 5 17.1255 5.93726 18.0627C6.87452 19 8.38301 19 11.4 19H13C16.017 19 17.5255 19 18.4627 18.0627C19.4 17.1255 19.4 15.617 19.4 12.6V9.4C19.4 6.38301 19.4 4.87452 18.4627 3.93726C17.5255 3 16.017 3 13 3H11.4C8.38301 3 6.87452 3 5.93726 3.93726ZM8.4 7.8C8.4 7.46863 8.66863 7.2 9 7.2H15.4C15.7314 7.2 16 7.46863 16 7.8C16 8.13137 15.7314 8.4 15.4 8.4H9C8.66863 8.4 8.4 8.13137 8.4 7.8ZM8.4 11C8.4 10.6686 8.66863 10.4 9 10.4H15.4C15.7314 10.4 16 10.6686 16 11C16 11.3314 15.7314 11.6 15.4 11.6H9C8.66863 11.6 8.4 11.3314 8.4 11ZM9 13.6C8.66863 13.6 8.4 13.8686 8.4 14.2C8.4 14.5314 8.66863 14.8 9 14.8H13C13.3314 14.8 13.6 14.5314 13.6 14.2C13.6 13.8686 13.3314 13.6 13 13.6H9Z" fill="#F9DBAF"/>
<path id="Vector_2" d="M7 9.25C6.58579 9.25 6.25 9.58579 6.25 10C6.25 10.4142 6.58579 10.75 7 10.75V9.25ZM13.4 10.75C13.8142 10.75 14.15 10.4142 14.15 10C14.15 9.58579 13.8142 9.25 13.4 9.25V10.75ZM7 6.05C6.58579 6.05 6.25 6.38579 6.25 6.8C6.25 7.21421 6.58579 7.55 7 7.55V6.05ZM13.4 7.55C13.8142 7.55 14.15 7.21421 14.15 6.8C14.15 6.38579 13.8142 6.05 13.4 6.05V7.55ZM7 12.45C6.58579 12.45 6.25 12.7858 6.25 13.2C6.25 13.6142 6.58579 13.95 7 13.95V12.45ZM11 13.95C11.4142 13.95 11.75 13.6142 11.75 13.2C11.75 12.7858 11.4142 12.45 11 12.45V13.95ZM9.4 2.75H11V1.25H9.4V2.75ZM16.65 8.4V11.6H18.15V8.4H16.65ZM11 17.25H9.4V18.75H11V17.25ZM3.75 11.6V8.4H2.25V11.6H3.75ZM9.4 17.25C7.8703 17.25 6.79848 17.2484 5.98867 17.1395C5.20043 17.0336 4.77364 16.8385 4.46759 16.5324L3.40693 17.5931C4.03813 18.2243 4.83422 18.4978 5.78879 18.6262C6.72179 18.7516 7.91271 18.75 9.4 18.75V17.25ZM2.25 11.6C2.25 13.0873 2.24841 14.2782 2.37385 15.2112C2.50218 16.1658 2.77572 16.9619 3.40693 17.5931L4.46759 16.5324C4.16154 16.2264 3.96645 15.7996 3.86047 15.0113C3.75159 14.2015 3.75 13.1297 3.75 11.6H2.25ZM16.65 11.6C16.65 13.1297 16.6484 14.2015 16.5395 15.0113C16.4336 15.7996 16.2385 16.2264 15.9324 16.5324L16.9931 17.5931C17.6243 16.9619 17.8978 16.1658 18.0262 15.2112C18.1516 14.2782 18.15 13.0873 18.15 11.6H16.65ZM11 18.75C12.4873 18.75 13.6782 18.7516 14.6112 18.6262C15.5658 18.4978 16.3619 18.2243 16.9931 17.5931L15.9324 16.5324C15.6264 16.8385 15.1996 17.0336 14.4113 17.1395C13.6015 17.2484 12.5297 17.25 11 17.25V18.75ZM11 2.75C12.5297 2.75 13.6015 2.75159 14.4113 2.86047C15.1996 2.96645 15.6264 3.16154 15.9324 3.46759L16.9931 2.40693C16.3619 1.77572 15.5658 1.50218 14.6112 1.37385C13.6782 1.24841 12.4873 1.25 11 1.25V2.75ZM18.15 8.4C18.15 6.91271 18.1516 5.72179 18.0262 4.78879C17.8978 3.83422 17.6243 3.03813 16.9931 2.40693L15.9324 3.46759C16.2385 3.77364 16.4336 4.20043 16.5395 4.98867C16.6484 5.79848 16.65 6.8703 16.65 8.4H18.15ZM9.4 1.25C7.91271 1.25 6.72179 1.24841 5.78879 1.37385C4.83422 1.50218 4.03813 1.77572 3.40693 2.40693L4.46759 3.46759C4.77364 3.16154 5.20043 2.96645 5.98867 2.86047C6.79848 2.75159 7.8703 2.75 9.4 2.75V1.25ZM3.75 8.4C3.75 6.8703 3.75159 5.79848 3.86047 4.98867C3.96645 4.20043 4.16154 3.77364 4.46759 3.46759L3.40693 2.40693C2.77572 3.03813 2.50218 3.83422 2.37385 4.78879C2.24841 5.72179 2.25 6.91271 2.25 8.4H3.75ZM7 10.75H13.4V9.25H7V10.75ZM7 7.55H13.4V6.05H7V7.55ZM7 13.95H11V12.45H7V13.95Z" fill="#EF6820"/>
</g>
</svg>
