<svg width="20" height="20" viewBox="0 0 20 20" fill="none" xmlns="http://www.w3.org/2000/svg">
<g id="Atoms / Icon">
<g id="Vector">
<path d="M5.88561 4.32445C5.74071 4.61329 5.66945 4.9696 5.52692 5.68223L5.04838 8.07496C4.74537 9.58999 5.90417 11.0035 7.4492 11.0035C8.70705 11.0035 9.76025 10.0504 9.88541 8.79874L9.94065 8.24641C9.81012 9.72598 10.9763 11.0035 12.466 11.0035C13.9658 11.0035 15.1377 9.70853 14.9885 8.21617L15.0469 8.79874C15.1721 10.0504 16.2253 11.0035 17.4831 11.0035C19.0281 11.0035 20.1869 9.58999 19.8839 8.07496L19.4054 5.68223C19.2629 4.96962 19.1916 4.61329 19.0467 4.32445C18.7414 3.71583 18.192 3.26546 17.5353 3.08544C17.2237 3 16.8603 3 16.1336 3H8.79872C8.07198 3 7.70861 3 7.39696 3.08544C6.74028 3.26546 6.19092 3.71583 5.88561 4.32445Z" fill="#D9D6FE"/>
<path d="M17.4831 12.204C18.1371 12.204 18.7447 12.034 19.2691 11.7389V12.6042C19.2691 15.6225 19.2691 17.1316 18.3314 18.0693C17.5766 18.8241 16.4515 18.9713 14.467 19V16.2058C14.467 15.4577 14.467 15.0837 14.3062 14.8051C14.2008 14.6226 14.0493 14.4711 13.8668 14.3657C13.5882 14.2049 13.2142 14.2049 12.4661 14.2049C11.7181 14.2049 11.3441 14.2049 11.0655 14.3657C10.883 14.4711 10.7315 14.6226 10.6261 14.8051C10.4653 15.0837 10.4653 15.4577 10.4653 16.2058V19C8.48075 18.9713 7.35564 18.8241 6.60085 18.0693C5.66318 17.1316 5.66318 15.6225 5.66318 12.6042V11.7389C6.1876 12.034 6.79519 12.204 7.44921 12.204C8.40729 12.204 9.28569 11.8329 9.94052 11.2211C10.6027 11.8295 11.4869 12.204 12.466 12.204C13.4451 12.204 14.3295 11.8294 14.9916 11.221C15.6465 11.8329 16.525 12.204 17.4831 12.204Z" fill="#D9D6FE"/>
</g>
<path id="Vector_2" d="M7.94152 7.2139L7.19524 7.13927V7.13927L7.94152 7.2139ZM12.9843 7.21389L12.238 7.28852V7.28852L12.9843 7.21389ZM3.04836 7.07275L2.31292 6.92566L3.04836 7.07275ZM7.88328 7.79622L7.13701 7.72159L7.88328 7.79622ZM5.39591 2.0854L5.5942 2.80871L5.39591 2.0854ZM3.52669 4.68106L4.26213 4.82815L3.52669 4.68106ZM3.88522 3.32387L3.21484 2.98758L3.88522 3.32387ZM17.8775 7.07275L18.6129 6.92566L17.8775 7.07275ZM13.0425 7.79622L12.2962 7.87084L13.0425 7.79622ZM15.5299 2.0854L15.3316 2.80871L15.5299 2.0854ZM17.3991 4.68106L16.6637 4.82815L17.3991 4.68106ZM17.0406 3.32387L17.711 2.98758L17.0406 3.32387ZM7.71291 17.6C7.71291 18.0142 8.04869 18.35 8.46291 18.35C8.87712 18.35 9.21291 18.0142 9.21291 17.6H7.71291ZM11.7129 17.6C11.7129 18.0142 12.0487 18.35 12.4629 18.35C12.8771 18.35 13.2129 18.0142 13.2129 17.6H11.7129ZM11.8629 13.3608L12.2379 12.7113V12.7113L11.8629 13.3608ZM12.3021 13.8L11.6526 14.175L12.3021 13.8ZM8.62368 13.8L9.27319 14.175L8.62368 13.8ZM9.06291 13.3608L9.43791 14.0103L9.06291 13.3608ZM10.8629 17.25H10.0629V18.75H10.8629V17.25ZM4.41291 11.6V9.2H2.91291V11.6H4.41291ZM16.5129 9.2V11.6H18.0129V9.2H16.5129ZM10.0629 17.25C8.53321 17.25 7.46138 17.2484 6.65157 17.1395C5.86333 17.0336 5.43655 16.8385 5.13049 16.5324L4.06983 17.5931C4.70104 18.2243 5.49713 18.4978 6.4517 18.6262C7.3847 18.7516 8.57561 18.75 10.0629 18.75V17.25ZM2.91291 11.6C2.91291 13.0873 2.91131 14.2782 3.03675 15.2112C3.16509 16.1658 3.43863 16.9619 4.06983 17.5931L5.13049 16.5324C4.82444 16.2264 4.62935 15.7996 4.52337 15.0113C4.4145 14.2015 4.41291 13.1297 4.41291 11.6H2.91291ZM10.8629 18.75C12.3502 18.75 13.5411 18.7516 14.4741 18.6262C15.4287 18.4978 16.2248 18.2243 16.856 17.5931L15.7953 16.5324C15.4893 16.8385 15.0625 17.0336 14.2742 17.1395C13.4644 17.2484 12.3926 17.25 10.8629 17.25V18.75ZM16.5129 11.6C16.5129 13.1297 16.5113 14.2015 16.4024 15.0113C16.2965 15.7996 16.1014 16.2264 15.7953 16.5324L16.856 17.5931C17.4872 16.9619 17.7607 16.1658 17.8891 15.2112C18.0145 14.2782 18.0129 13.0873 18.0129 11.6H16.5129ZM8.46291 2.75H12.4629V1.25H8.46291V2.75ZM11.7166 2.07463L12.238 7.28852L13.7306 7.13927L13.2092 1.92537L11.7166 2.07463ZM8.68779 7.28852L9.20918 2.07463L7.71663 1.92537L7.19524 7.13927L8.68779 7.28852ZM10.4629 9.25C9.40747 9.25 8.58277 8.33872 8.68779 7.28852L7.19524 7.13927C7.00192 9.07249 8.52004 10.75 10.4629 10.75V9.25ZM12.238 7.28852C12.343 8.33872 11.5183 9.25 10.4629 9.25V10.75C12.4058 10.75 13.9239 9.07249 13.7306 7.13927L12.238 7.28852ZM6.79706 2.75H8.46291V1.25H6.79706V2.75ZM7.71663 1.92537L7.13701 7.72159L8.62956 7.87084L9.20918 2.07463L7.71663 1.92537ZM3.78379 7.21983L4.26213 4.82815L2.79126 4.53397L2.31292 6.92566L3.78379 7.21983ZM5.44813 9.25C4.37706 9.25 3.57374 8.27011 3.78379 7.21983L2.31292 6.92566C1.91723 8.90412 3.43049 10.75 5.44813 10.75V9.25ZM7.13701 7.72159C7.05024 8.58925 6.32012 9.25 5.44813 9.25V10.75C7.09075 10.75 8.46612 9.50531 8.62956 7.87084L7.13701 7.72159ZM6.79706 1.25C6.11707 1.25 5.63041 1.24344 5.19763 1.36208L5.5942 2.80871C5.78445 2.75656 6.02421 2.75 6.79706 2.75V1.25ZM4.26213 4.82815C4.4137 4.07031 4.46715 3.83649 4.5556 3.66016L3.21484 2.98758C3.01363 3.38869 2.92462 3.86718 2.79126 4.53397L4.26213 4.82815ZM5.19763 1.36208C4.33611 1.59826 3.61539 2.18911 3.21484 2.98758L4.5556 3.66016C4.76541 3.24192 5.14293 2.93242 5.5942 2.80871L5.19763 1.36208ZM14.1288 1.25H12.4629V2.75H14.1288V1.25ZM11.7166 2.07463L12.2962 7.87084L13.7888 7.72159L13.2092 1.92537L11.7166 2.07463ZM18.6129 6.92566L18.1346 4.53397L16.6637 4.82815L17.142 7.21983L18.6129 6.92566ZM15.4777 10.75C17.4953 10.75 19.0086 8.90412 18.6129 6.92566L17.142 7.21983C17.3521 8.27011 16.5488 9.25 15.4777 9.25V10.75ZM12.2962 7.87084C12.4597 9.50531 13.8351 10.75 15.4777 10.75V9.25C14.6057 9.25 13.8756 8.58925 13.7888 7.72159L12.2962 7.87084ZM14.1288 2.75C14.9016 2.75 15.1414 2.75656 15.3316 2.80871L15.7282 1.36208C15.2954 1.24344 14.8087 1.25 14.1288 1.25V2.75ZM18.1346 4.53397C18.0012 3.86718 17.9122 3.38869 17.711 2.98758L16.3702 3.66016C16.4587 3.83649 16.5121 4.07031 16.6637 4.82815L18.1346 4.53397ZM15.3316 2.80871C15.7829 2.93242 16.1604 3.24192 16.3702 3.66016L17.711 2.98758C17.3104 2.18911 16.5897 1.59826 15.7282 1.36208L15.3316 2.80871ZM9.21291 17.6V15.2H7.71291V17.6H9.21291ZM11.7129 15.2V17.6H13.2129V15.2H11.7129ZM10.4629 13.95C10.8506 13.95 11.0911 13.9507 11.2712 13.967C11.4409 13.9824 11.4818 14.0068 11.4879 14.0103L12.2379 12.7113C11.9655 12.554 11.6803 12.498 11.4066 12.4732C11.1431 12.4493 10.8229 12.45 10.4629 12.45V13.95ZM13.2129 15.2C13.2129 14.84 13.2136 14.5198 13.1897 14.2563C13.1649 13.9826 13.1089 13.6974 12.9517 13.425L11.6526 14.175C11.6561 14.1811 11.6805 14.222 11.6959 14.3917C11.7122 14.5718 11.7129 14.8124 11.7129 15.2H13.2129ZM11.4879 14.0103C11.5563 14.0498 11.6131 14.1066 11.6526 14.175L12.9517 13.425C12.7805 13.1286 12.5343 12.8824 12.2379 12.7113L11.4879 14.0103ZM9.21291 15.2C9.21291 14.8124 9.21362 14.5718 9.22994 14.3917C9.24532 14.222 9.2697 14.1811 9.27319 14.175L7.97416 13.425C7.81688 13.6974 7.76087 13.9826 7.73606 14.2563C7.71219 14.5198 7.71291 14.84 7.71291 15.2H9.21291ZM10.4629 12.45C10.1029 12.45 9.78268 12.4493 9.51925 12.4732C9.2455 12.498 8.96031 12.554 8.68791 12.7113L9.43791 14.0103C9.44396 14.0068 9.48493 13.9824 9.65464 13.967C9.83466 13.9507 10.0753 13.95 10.4629 13.95V12.45ZM9.27319 14.175C9.31269 14.1066 9.3695 14.0498 9.43791 14.0103L8.68791 12.7113C8.39147 12.8824 8.1453 13.1286 7.97416 13.425L9.27319 14.175Z" fill="#7A5AF8"/>
</g>
</svg>
