<svg width="160" height="120" viewBox="0 0 160 120" fill="none" xmlns="http://www.w3.org/2000/svg">
<circle cx="81.5" cy="52" r="52" fill="#B2DDFF"/>
<g filter="url(#filter0_dd_4996_113251)">
<path d="M47.2266 79.1098L80.4651 63.6104C82.1339 62.8322 82.8559 60.8485 82.0777 59.1797L62.4484 17.0845L49.1563 12.2466L21.9611 24.9279C20.2923 25.7061 19.5703 27.6898 20.3485 29.3586L42.7959 77.4971C43.574 79.166 45.5577 79.888 47.2266 79.1098Z" fill="url(#paint0_linear_4996_113251)"/>
<path d="M49.1567 12.2471L62.4489 17.085L53.3838 21.3121L49.1567 12.2471Z" fill="#84CAFF"/>
</g>
<g filter="url(#filter1_dd_4996_113251)">
<path d="M63.1163 67.7831H99.7909C101.632 67.7831 103.125 66.2904 103.125 64.4491V18.0022L93.1228 8H63.1163C61.2749 8 59.7822 9.49271 59.7822 11.3341V64.4491C59.7822 66.2904 61.2749 67.7831 63.1163 67.7831Z" fill="url(#paint1_linear_4996_113251)"/>
<path d="M93.1226 8L103.125 18.0022H93.1226V8Z" fill="#84CAFF"/>
</g>
<g filter="url(#filter2_dd_4996_113251)">
<path d="M81.9745 63.5909L115.213 79.0903C116.882 79.8685 118.866 79.1465 119.644 77.4777L139.273 35.3825L134.435 22.0903L107.24 9.40903C105.571 8.63085 103.587 9.35286 102.809 11.0217L80.3619 59.1602C79.5837 60.8291 80.3057 62.8128 81.9745 63.5909Z" fill="url(#paint2_linear_4996_113251)"/>
<path d="M134.436 22.0898L139.273 35.382L130.208 31.1549L134.436 22.0898Z" fill="#84CAFF"/>
</g>
<circle cx="26.5" cy="11" r="5" fill="#D1E9FF"/>
<circle cx="23.5" cy="109" r="7" fill="#D1E9FF"/>
<circle cx="150.5" cy="35" r="7" fill="#D1E9FF"/>
<circle cx="139.5" cy="8" r="4" fill="#D1E9FF"/>
<g filter="url(#filter3_b_4996_113251)">
<rect x="57.5" y="62" width="48" height="48" rx="24" fill="#6941C6" fill-opacity="0.4"/>
<path d="M77.5 90L81.5 86M81.5 86L85.5 90M81.5 86V95M89.5 90.7428C90.7215 89.734 91.5 88.2079 91.5 86.5C91.5 83.4624 89.0376 81 86 81C85.7815 81 85.5771 80.886 85.4661 80.6977C84.1621 78.4848 81.7544 77 79 77C74.8579 77 71.5 80.3579 71.5 84.5C71.5 86.5661 72.3354 88.4371 73.6869 89.7935" stroke="white" stroke-width="2" stroke-linecap="round" stroke-linejoin="round"/>
</g>
<defs>
<filter id="filter0_dd_4996_113251" x="-1.06055" y="8.01953" width="104.547" height="112.499" filterUnits="userSpaceOnUse" color-interpolation-filters="sRGB">
<feFlood flood-opacity="0" result="BackgroundImageFix"/>
<feColorMatrix in="SourceAlpha" type="matrix" values="0 0 0 0 0 0 0 0 0 0 0 0 0 0 0 0 0 0 127 0" result="hardAlpha"/>
<feMorphology radius="4" operator="erode" in="SourceAlpha" result="effect1_dropShadow_4996_113251"/>
<feOffset dy="8"/>
<feGaussianBlur stdDeviation="4"/>
<feColorMatrix type="matrix" values="0 0 0 0 0.0627451 0 0 0 0 0.0941176 0 0 0 0 0.156863 0 0 0 0.03 0"/>
<feBlend mode="normal" in2="BackgroundImageFix" result="effect1_dropShadow_4996_113251"/>
<feColorMatrix in="SourceAlpha" type="matrix" values="0 0 0 0 0 0 0 0 0 0 0 0 0 0 0 0 0 0 127 0" result="hardAlpha"/>
<feMorphology radius="4" operator="erode" in="SourceAlpha" result="effect2_dropShadow_4996_113251"/>
<feOffset dy="20"/>
<feGaussianBlur stdDeviation="12"/>
<feColorMatrix type="matrix" values="0 0 0 0 0.0627451 0 0 0 0 0.0941176 0 0 0 0 0.156863 0 0 0 0.08 0"/>
<feBlend mode="normal" in2="effect1_dropShadow_4996_113251" result="effect2_dropShadow_4996_113251"/>
<feBlend mode="normal" in="SourceGraphic" in2="effect2_dropShadow_4996_113251" result="shape"/>
</filter>
<filter id="filter1_dd_4996_113251" x="39.7822" y="8" width="83.3428" height="99.7832" filterUnits="userSpaceOnUse" color-interpolation-filters="sRGB">
<feFlood flood-opacity="0" result="BackgroundImageFix"/>
<feColorMatrix in="SourceAlpha" type="matrix" values="0 0 0 0 0 0 0 0 0 0 0 0 0 0 0 0 0 0 127 0" result="hardAlpha"/>
<feMorphology radius="4" operator="erode" in="SourceAlpha" result="effect1_dropShadow_4996_113251"/>
<feOffset dy="8"/>
<feGaussianBlur stdDeviation="4"/>
<feColorMatrix type="matrix" values="0 0 0 0 0.0627451 0 0 0 0 0.0941176 0 0 0 0 0.156863 0 0 0 0.03 0"/>
<feBlend mode="normal" in2="BackgroundImageFix" result="effect1_dropShadow_4996_113251"/>
<feColorMatrix in="SourceAlpha" type="matrix" values="0 0 0 0 0 0 0 0 0 0 0 0 0 0 0 0 0 0 127 0" result="hardAlpha"/>
<feMorphology radius="4" operator="erode" in="SourceAlpha" result="effect2_dropShadow_4996_113251"/>
<feOffset dy="20"/>
<feGaussianBlur stdDeviation="12"/>
<feColorMatrix type="matrix" values="0 0 0 0 0.0627451 0 0 0 0 0.0941176 0 0 0 0 0.156863 0 0 0 0.08 0"/>
<feBlend mode="normal" in2="effect1_dropShadow_4996_113251" result="effect2_dropShadow_4996_113251"/>
<feBlend mode="normal" in="SourceGraphic" in2="effect2_dropShadow_4996_113251" result="shape"/>
</filter>
<filter id="filter2_dd_4996_113251" x="58.9526" y="8" width="104.547" height="112.499" filterUnits="userSpaceOnUse" color-interpolation-filters="sRGB">
<feFlood flood-opacity="0" result="BackgroundImageFix"/>
<feColorMatrix in="SourceAlpha" type="matrix" values="0 0 0 0 0 0 0 0 0 0 0 0 0 0 0 0 0 0 127 0" result="hardAlpha"/>
<feMorphology radius="4" operator="erode" in="SourceAlpha" result="effect1_dropShadow_4996_113251"/>
<feOffset dy="8"/>
<feGaussianBlur stdDeviation="4"/>
<feColorMatrix type="matrix" values="0 0 0 0 0.0627451 0 0 0 0 0.0941176 0 0 0 0 0.156863 0 0 0 0.03 0"/>
<feBlend mode="normal" in2="BackgroundImageFix" result="effect1_dropShadow_4996_113251"/>
<feColorMatrix in="SourceAlpha" type="matrix" values="0 0 0 0 0 0 0 0 0 0 0 0 0 0 0 0 0 0 127 0" result="hardAlpha"/>
<feMorphology radius="4" operator="erode" in="SourceAlpha" result="effect2_dropShadow_4996_113251"/>
<feOffset dy="20"/>
<feGaussianBlur stdDeviation="12"/>
<feColorMatrix type="matrix" values="0 0 0 0 0.0627451 0 0 0 0 0.0941176 0 0 0 0 0.156863 0 0 0 0.08 0"/>
<feBlend mode="normal" in2="effect1_dropShadow_4996_113251" result="effect2_dropShadow_4996_113251"/>
<feBlend mode="normal" in="SourceGraphic" in2="effect2_dropShadow_4996_113251" result="shape"/>
</filter>
<filter id="filter3_b_4996_113251" x="49.5" y="54" width="64" height="64" filterUnits="userSpaceOnUse" color-interpolation-filters="sRGB">
<feFlood flood-opacity="0" result="BackgroundImageFix"/>
<feGaussianBlur in="BackgroundImageFix" stdDeviation="4"/>
<feComposite in2="SourceAlpha" operator="in" result="effect1_backgroundBlur_4996_113251"/>
<feBlend mode="normal" in="SourceGraphic" in2="effect1_backgroundBlur_4996_113251" result="shape"/>
</filter>
<linearGradient id="paint0_linear_4996_113251" x1="45.2738" y1="79.2396" x2="18.7853" y2="31.4523" gradientUnits="userSpaceOnUse">
<stop stop-color="#E9D7FE"/>
<stop offset="1" stop-color="#F4EBFF"/>
</linearGradient>
<linearGradient id="paint1_linear_4996_113251" x1="61.2916" y1="67.0755" x2="57.4807" y2="12.571" gradientUnits="userSpaceOnUse">
<stop stop-color="#E9D7FE"/>
<stop offset="1" stop-color="#F4EBFF"/>
</linearGradient>
<linearGradient id="paint2_linear_4996_113251" x1="80.6199" y1="62.1785" x2="100.201" y2="11.17" gradientUnits="userSpaceOnUse">
<stop stop-color="#E9D7FE"/>
<stop offset="1" stop-color="#F4EBFF"/>
</linearGradient>
</defs>
</svg>
