<svg width="20" height="20" viewBox="0 0 20 20" fill="none" xmlns="http://www.w3.org/2000/svg">
<g id="Atoms / Icon">
<path id="Icon" d="M11.9025 18.7322C12.0815 18.8366 12.171 18.8888 12.2972 18.9159C12.3952 18.9369 12.5382 18.9369 12.6362 18.9159C12.7625 18.8888 12.852 18.8366 13.0309 18.7322C14.6056 17.8135 18.9335 14.9278 18.9335 10.9601V7.09428C18.9335 6.448 18.9335 6.12486 18.8278 5.84709C18.7344 5.60171 18.5827 5.38276 18.3857 5.20917C18.1627 5.01267 17.8601 4.8992 17.255 4.67228L12.9209 3.04697C12.7528 2.98395 12.6688 2.95244 12.5823 2.93995C12.5057 2.92887 12.4278 2.92887 12.3511 2.93995C12.2647 2.95244 12.1807 2.98395 12.0126 3.04697L7.67844 4.67228C7.07331 4.8992 6.77075 5.01267 6.54778 5.20917C6.35081 5.38276 6.19907 5.60171 6.1057 5.84709C6 6.12486 6 6.448 6 7.09428V10.9601C6 14.9278 10.3278 17.8135 11.9025 18.7322Z" fill="#B2CCFF"/>
<path id="Icon_2" d="M9.90252 17.7322C10.0815 17.8366 10.171 17.8888 10.2972 17.9159C10.3952 17.9369 10.5382 17.9369 10.6362 17.9159C10.7625 17.8888 10.852 17.8366 11.0309 17.7322C12.6056 16.8135 16.9335 13.9278 16.9335 9.96009V6.09428C16.9335 5.448 16.9335 5.12486 16.8278 4.84709C16.7344 4.60171 16.5827 4.38276 16.3857 4.20917C16.1627 4.01267 15.8601 3.8992 15.255 3.67228L10.9209 2.04697C10.7528 1.98395 10.6688 1.95244 10.5823 1.93995C10.5057 1.92887 10.4278 1.92887 10.3511 1.93995C10.2647 1.95244 10.1807 1.98395 10.0126 2.04697L5.67844 3.67228C5.07331 3.8992 4.77075 4.01267 4.54778 4.20917C4.35081 4.38276 4.19907 4.60171 4.1057 4.84709C4 5.12486 4 5.448 4 6.09428V9.96009C4 13.9278 8.32783 16.8135 9.90252 17.7322Z" stroke="#2970FF" stroke-width="1.5" stroke-linecap="round" stroke-linejoin="round"/>
</g>
</svg>
