<svg width="20" height="20" viewBox="0 0 20 20" fill="none" xmlns="http://www.w3.org/2000/svg">
<g id="Atoms / Icon">
<g id="Icon">
<path d="M12 13.4C13.3255 13.4 14.4 12.3255 14.4 11C14.4 9.67452 13.3255 8.6 12 8.6C10.6745 8.6 9.6 9.67452 9.6 11C9.6 12.3255 10.6745 13.4 12 13.4Z" fill="#A5F0FC"/>
<path d="M17.3818 13.1818C17.285 13.4012 17.2561 13.6445 17.2989 13.8804C17.3417 14.1164 17.4542 14.3341 17.6218 14.5055L17.6655 14.5491C17.8007 14.6842 17.908 14.8446 17.9812 15.0212C18.0544 15.1978 18.0921 15.387 18.0921 15.5782C18.0921 15.7693 18.0544 15.9586 17.9812 16.1352C17.908 16.3118 17.8007 16.4722 17.6655 16.6073C17.5304 16.7425 17.3699 16.8498 17.1934 16.923C17.0168 16.9962 16.8275 17.0339 16.6364 17.0339C16.4452 17.0339 16.2559 16.9962 16.0794 16.923C15.9028 16.8498 15.7424 16.7425 15.6073 16.6073L15.5636 16.5636C15.3922 16.396 15.1745 16.2835 14.9386 16.2407C14.7027 16.1979 14.4594 16.2268 14.24 16.3236C14.0249 16.4158 13.8414 16.5689 13.7122 16.764C13.583 16.9591 13.5137 17.1878 13.5127 17.4218V17.5455C13.5127 17.9312 13.3595 18.3012 13.0867 18.574C12.8139 18.8468 12.444 19 12.0582 19C11.6724 19 11.3024 18.8468 11.0297 18.574C10.7569 18.3012 10.6036 17.9312 10.6036 17.5455V17.48C10.598 17.2393 10.5201 17.0058 10.38 16.81C10.2399 16.6141 10.0442 16.4649 9.81818 16.3818C9.59882 16.285 9.3555 16.2561 9.11957 16.2989C8.88365 16.3417 8.66595 16.4542 8.49455 16.6218L8.45091 16.6655C8.31582 16.8007 8.1554 16.908 7.97882 16.9812C7.80224 17.0544 7.61297 17.0921 7.42182 17.0921C7.23067 17.0921 7.04139 17.0544 6.86481 16.9812C6.68824 16.908 6.52782 16.8007 6.39273 16.6655C6.25749 16.5304 6.1502 16.3699 6.077 16.1934C6.00381 16.0168 5.96613 15.8275 5.96613 15.6364C5.96613 15.4452 6.00381 15.2559 6.077 15.0794C6.1502 14.9028 6.25749 14.7424 6.39273 14.6073L6.43636 14.5636C6.60403 14.3922 6.7165 14.1745 6.75928 13.9386C6.80205 13.7027 6.77317 13.4594 6.67636 13.24C6.58417 13.0249 6.4311 12.8414 6.23598 12.7122C6.04085 12.583 5.81221 12.5137 5.57818 12.5127H5.45455C5.06878 12.5127 4.69881 12.3595 4.42603 12.0867C4.15325 11.8139 4 11.444 4 11.0582C4 10.6724 4.15325 10.3024 4.42603 10.0297C4.69881 9.75688 5.06878 9.60364 5.45455 9.60364H5.52C5.76072 9.59801 5.99419 9.52009 6.19004 9.38001C6.38589 9.23993 6.53507 9.04417 6.61818 8.81818C6.71499 8.59882 6.74387 8.3555 6.70109 8.11957C6.65832 7.88365 6.54585 7.66595 6.37818 7.49455L6.33455 7.45091C6.19931 7.31582 6.09202 7.1554 6.01882 6.97882C5.94562 6.80224 5.90795 6.61297 5.90795 6.42182C5.90795 6.23067 5.94562 6.04139 6.01882 5.86481C6.09202 5.68824 6.19931 5.52782 6.33455 5.39273C6.46963 5.25749 6.63005 5.1502 6.80663 5.077C6.98321 5.00381 7.17249 4.96613 7.36364 4.96613C7.55479 4.96613 7.74406 5.00381 7.92064 5.077C8.09722 5.1502 8.25764 5.25749 8.39273 5.39273L8.43636 5.43636C8.60777 5.60403 8.82547 5.7165 9.06139 5.75928C9.29731 5.80205 9.54064 5.77317 9.76 5.67636H9.81818C10.0333 5.58417 10.2167 5.4311 10.346 5.23598C10.4752 5.04085 10.5445 4.81221 10.5455 4.57818V4.45455C10.5455 4.06878 10.6987 3.69881 10.9715 3.42603C11.2443 3.15325 11.6142 3 12 3C12.3858 3 12.7557 3.15325 13.0285 3.42603C13.3013 3.69881 13.4545 4.06878 13.4545 4.45455V4.52C13.4555 4.75403 13.5248 4.98267 13.654 5.17779C13.7833 5.37291 13.9667 5.52599 14.1818 5.61818C14.4012 5.71499 14.6445 5.74387 14.8804 5.70109C15.1164 5.65832 15.3341 5.54585 15.5055 5.37818L15.5491 5.33455C15.6842 5.19931 15.8446 5.09202 16.0212 5.01882C16.1978 4.94562 16.387 4.90795 16.5782 4.90795C16.7693 4.90795 16.9586 4.94562 17.1352 5.01882C17.3118 5.09202 17.4722 5.19931 17.6073 5.33455C17.7425 5.46963 17.8498 5.63005 17.923 5.80663C17.9962 5.98321 18.0339 6.17249 18.0339 6.36364C18.0339 6.55479 17.9962 6.74406 17.923 6.92064C17.8498 7.09722 17.7425 7.25764 17.6073 7.39273L17.5636 7.43636C17.396 7.60777 17.2835 7.82547 17.2407 8.06139C17.1979 8.29731 17.2268 8.54064 17.3236 8.76V8.81818C17.4158 9.03329 17.5689 9.21674 17.764 9.34596C17.9591 9.47518 18.1878 9.54452 18.4218 9.54545H18.5455C18.9312 9.54545 19.3012 9.6987 19.574 9.97148C19.8468 10.2443 20 10.6142 20 11C20 11.3858 19.8468 11.7557 19.574 12.0285C19.3012 12.3013 18.9312 12.4545 18.5455 12.4545H18.48C18.246 12.4555 18.0173 12.5248 17.8222 12.654C17.6271 12.7833 17.474 12.9667 17.3818 13.1818Z" fill="#A5F0FC"/>
</g>
<g id="Icon_2">
<path d="M10 12.4C11.3255 12.4 12.4 11.3255 12.4 10C12.4 8.67452 11.3255 7.6 10 7.6C8.67452 7.6 7.6 8.67452 7.6 10C7.6 11.3255 8.67452 12.4 10 12.4Z" stroke="#06AED4" stroke-width="1.5" stroke-linecap="round" stroke-linejoin="round"/>
<path d="M15.3818 12.1818C15.285 12.4012 15.2561 12.6445 15.2989 12.8804C15.3417 13.1164 15.4542 13.3341 15.6218 13.5055L15.6655 13.5491C15.8007 13.6842 15.908 13.8446 15.9812 14.0212C16.0544 14.1978 16.0921 14.387 16.0921 14.5782C16.0921 14.7693 16.0544 14.9586 15.9812 15.1352C15.908 15.3118 15.8007 15.4722 15.6655 15.6073C15.5304 15.7425 15.3699 15.8498 15.1934 15.923C15.0168 15.9962 14.8275 16.0339 14.6364 16.0339C14.4452 16.0339 14.2559 15.9962 14.0794 15.923C13.9028 15.8498 13.7424 15.7425 13.6073 15.6073L13.5636 15.5636C13.3922 15.396 13.1745 15.2835 12.9386 15.2407C12.7027 15.1979 12.4594 15.2268 12.24 15.3236C12.0249 15.4158 11.8414 15.5689 11.7122 15.764C11.583 15.9591 11.5137 16.1878 11.5127 16.4218V16.5455C11.5127 16.9312 11.3595 17.3012 11.0867 17.574C10.8139 17.8468 10.444 18 10.0582 18C9.67241 18 9.30244 17.8468 9.02966 17.574C8.75688 17.3012 8.60364 16.9312 8.60364 16.5455V16.48C8.59801 16.2393 8.52009 16.0058 8.38001 15.81C8.23993 15.6141 8.04417 15.4649 7.81818 15.3818C7.59882 15.285 7.3555 15.2561 7.11957 15.2989C6.88365 15.3417 6.66595 15.4542 6.49455 15.6218L6.45091 15.6655C6.31582 15.8007 6.1554 15.908 5.97882 15.9812C5.80224 16.0544 5.61297 16.0921 5.42182 16.0921C5.23067 16.0921 5.04139 16.0544 4.86481 15.9812C4.68824 15.908 4.52782 15.8007 4.39273 15.6655C4.25749 15.5304 4.1502 15.3699 4.077 15.1934C4.00381 15.0168 3.96613 14.8275 3.96613 14.6364C3.96613 14.4452 4.00381 14.2559 4.077 14.0794C4.1502 13.9028 4.25749 13.7424 4.39273 13.6073L4.43636 13.5636C4.60403 13.3922 4.7165 13.1745 4.75928 12.9386C4.80205 12.7027 4.77317 12.4594 4.67636 12.24C4.58417 12.0249 4.4311 11.8414 4.23597 11.7122C4.04085 11.583 3.81221 11.5137 3.57818 11.5127H3.45455C3.06878 11.5127 2.69881 11.3595 2.42603 11.0867C2.15325 10.8139 2 10.444 2 10.0582C2 9.67241 2.15325 9.30244 2.42603 9.02966C2.69881 8.75688 3.06878 8.60364 3.45455 8.60364H3.52C3.76072 8.59801 3.99419 8.52009 4.19004 8.38001C4.38589 8.23993 4.53507 8.04417 4.61818 7.81818C4.71499 7.59882 4.74387 7.3555 4.70109 7.11957C4.65832 6.88365 4.54585 6.66595 4.37818 6.49455L4.33455 6.45091C4.19931 6.31582 4.09202 6.1554 4.01882 5.97882C3.94562 5.80224 3.90795 5.61297 3.90795 5.42182C3.90795 5.23067 3.94562 5.04139 4.01882 4.86481C4.09202 4.68824 4.19931 4.52782 4.33455 4.39273C4.46963 4.25749 4.63005 4.1502 4.80663 4.077C4.98321 4.00381 5.17249 3.96613 5.36364 3.96613C5.55479 3.96613 5.74406 4.00381 5.92064 4.077C6.09722 4.1502 6.25764 4.25749 6.39273 4.39273L6.43636 4.43636C6.60777 4.60403 6.82547 4.7165 7.06139 4.75928C7.29731 4.80205 7.54064 4.77317 7.76 4.67636H7.81818C8.03329 4.58417 8.21674 4.4311 8.34596 4.23597C8.47518 4.04085 8.54452 3.81221 8.54545 3.57818V3.45455C8.54545 3.06878 8.6987 2.69881 8.97148 2.42603C9.24426 2.15325 9.61423 2 10 2C10.3858 2 10.7557 2.15325 11.0285 2.42603C11.3013 2.69881 11.4545 3.06878 11.4545 3.45455V3.52C11.4555 3.75403 11.5248 3.98267 11.654 4.17779C11.7833 4.37291 11.9667 4.52599 12.1818 4.61818C12.4012 4.71499 12.6445 4.74387 12.8804 4.70109C13.1164 4.65832 13.3341 4.54585 13.5055 4.37818L13.5491 4.33455C13.6842 4.19931 13.8446 4.09202 14.0212 4.01882C14.1978 3.94562 14.387 3.90795 14.5782 3.90795C14.7693 3.90795 14.9586 3.94562 15.1352 4.01882C15.3118 4.09202 15.4722 4.19931 15.6073 4.33455C15.7425 4.46963 15.8498 4.63005 15.923 4.80663C15.9962 4.98321 16.0339 5.17249 16.0339 5.36364C16.0339 5.55479 15.9962 5.74406 15.923 5.92064C15.8498 6.09722 15.7425 6.25764 15.6073 6.39273L15.5636 6.43636C15.396 6.60777 15.2835 6.82547 15.2407 7.06139C15.1979 7.29731 15.2268 7.54064 15.3236 7.76V7.81818C15.4158 8.03329 15.5689 8.21674 15.764 8.34596C15.9591 8.47518 16.1878 8.54452 16.4218 8.54545H16.5455C16.9312 8.54545 17.3012 8.6987 17.574 8.97148C17.8468 9.24426 18 9.61423 18 10C18 10.3858 17.8468 10.7557 17.574 11.0285C17.3012 11.3013 16.9312 11.4545 16.5455 11.4545H16.48C16.246 11.4555 16.0173 11.5248 15.8222 11.654C15.6271 11.7833 15.474 11.9667 15.3818 12.1818Z" stroke="#06AED4" stroke-width="1.5" stroke-linecap="round" stroke-linejoin="round"/>
</g>
</g>
</svg>
