<svg width="21" height="20" viewBox="0 0 21 20" fill="none" xmlns="http://www.w3.org/2000/svg">
<g id="Atoms / Icon">
<path id="Vector" d="M6.5415 1.83325C6.88668 1.83325 7.1665 2.11307 7.1665 2.45825V3.99992L8.6004 3.71314C9.97584 3.43805 11.4016 3.56895 12.7039 4.0899L13.0483 4.22766C14.2357 4.70261 15.5426 4.79131 16.7833 4.48114C17.3091 4.34968 17.7314 4.91959 17.4525 5.38435L16.3871 7.1601C16.1025 7.63439 15.9602 7.87154 15.9265 8.1295C15.9124 8.2371 15.9124 8.34607 15.9265 8.45367C15.9602 8.71163 16.1025 8.94878 16.3871 9.42308L17.6876 11.5906C17.9466 12.0223 17.715 12.5815 17.2266 12.7036L17.1431 12.7245C15.6685 13.0932 14.1152 12.9877 12.7039 12.4232C11.4016 11.9023 9.97584 11.7714 8.6004 12.0465L7.1665 12.3333V19.1249C7.1665 19.4701 6.88668 19.7499 6.5415 19.7499C6.19633 19.7499 5.9165 19.4701 5.9165 19.1249V2.45825C5.9165 2.11307 6.19633 1.83325 6.5415 1.83325Z" fill="#D9D6FE"/>
<path id="Vector_2" d="M4.6665 18.3334V11.6667M4.6665 11.6667V3.33341M4.6665 11.6667L6.7254 11.255C8.10084 10.9799 9.52659 11.1108 10.8289 11.6317C12.2402 12.1962 13.7935 12.3017 15.2681 11.933L15.3516 11.9121C15.84 11.79 16.0716 11.2308 15.8126 10.7991L14.5121 8.63157C14.2275 8.15727 14.0852 7.92012 14.0515 7.66217C14.0374 7.55457 14.0374 7.44559 14.0515 7.33799C14.0852 7.08004 14.2275 6.84289 14.5121 6.36859L15.5775 4.59284C15.8564 4.12808 15.4341 3.55818 14.9083 3.68964C13.6676 3.9998 12.3607 3.91111 11.1733 3.43615L10.8289 3.29839C9.52659 2.77745 8.10084 2.64655 6.7254 2.92164L4.6665 3.33341M4.6665 3.33341V1.66675" stroke="#7A5AF8" stroke-width="1.5" stroke-linecap="round"/>
</g>
</svg>
