<svg width="20" height="20" viewBox="0 0 20 20" fill="none" xmlns="http://www.w3.org/2000/svg">
<g id="Icon Leading">
<path id="Accent" opacity="0.1" fill-rule="evenodd" clip-rule="evenodd" d="M4.30138 2.5H15.699C16.1382 2.49999 16.5172 2.49998 16.8294 2.52548C17.1588 2.55239 17.4865 2.61182 17.8018 2.77249C18.2722 3.01217 18.6547 3.39462 18.8944 3.86503C19.055 4.18034 19.1144 4.50802 19.1414 4.83748C19.1669 5.14962 19.1668 5.52858 19.1668 5.96786V7.08334C19.1668 7.54357 18.7937 7.91667 18.3335 7.91667C17.1829 7.91667 16.2502 8.84941 16.2502 10C16.2502 11.1506 17.1829 12.0833 18.3335 12.0833C18.7937 12.0833 19.1668 12.4564 19.1668 12.9167V14.0321C19.1668 14.4714 19.1669 14.8504 19.1414 15.1625C19.1144 15.492 19.055 15.8197 18.8943 16.135C18.6547 16.6054 18.2722 16.9878 17.8018 17.2275C17.4865 17.3882 17.1588 17.4476 16.8294 17.4745C16.5172 17.5 16.1383 17.5 15.699 17.5H4.30136C3.86208 17.5 3.48311 17.5 3.17098 17.4745C2.84152 17.4476 2.51384 17.3882 2.19852 17.2275C1.72812 16.9878 1.34567 16.6054 1.10598 16.135C0.945321 15.8197 0.885891 15.492 0.858973 15.1625C0.833472 14.8504 0.833483 14.4714 0.833497 14.0322V12.9167C0.833497 12.4564 1.20659 12.0833 1.66683 12.0833C2.81743 12.0833 3.75017 11.1506 3.75017 10C3.75017 8.84941 2.81743 7.91667 1.66683 7.91667C1.20659 7.91667 0.833497 7.54357 0.833497 7.08334V5.96785C0.833483 5.52858 0.833472 5.14961 0.858973 4.83748C0.885891 4.50802 0.945321 4.18034 1.10598 3.86503C1.34567 3.39462 1.72812 3.01217 2.19852 2.77249C2.51384 2.61182 2.84152 2.55239 3.17098 2.52548C3.4831 2.49998 3.86211 2.49999 4.30138 2.5ZM9.16683 5.83333C9.16683 5.3731 8.79374 5 8.3335 5C7.87326 5 7.50016 5.3731 7.50016 5.83333V6.66667C7.50016 7.1269 7.87326 7.5 8.3335 7.5C8.79374 7.5 9.16683 7.1269 9.16683 6.66667V5.83333ZM8.3335 8.75C8.79374 8.75 9.16683 9.1231 9.16683 9.58333V10.4167C9.16683 10.8769 8.79374 11.25 8.3335 11.25C7.87326 11.25 7.50016 10.8769 7.50016 10.4167V9.58333C7.50016 9.1231 7.87326 8.75 8.3335 8.75ZM9.16683 13.3333C9.16683 12.8731 8.79374 12.5 8.3335 12.5C7.87326 12.5 7.50016 12.8731 7.50016 13.3333V14.1667C7.50016 14.6269 7.87326 15 8.3335 15C8.79374 15 9.16683 14.6269 9.16683 14.1667V13.3333Z" fill="#D92D20"/>
<path id="Icon" d="M2.53915 3.44012L2.53911 3.44014C2.20995 3.60785 1.94091 3.87688 1.77314 4.20612L2.53915 3.44012ZM2.53915 3.44012C2.91802 3.24705 3.24491 3.2478 4.06019 3.24967C4.14537 3.24987 4.23588 3.25007 4.33235 3.25007H15.6672C15.7638 3.25007 15.8544 3.24987 15.9396 3.24967C16.7547 3.2478 17.0815 3.24705 17.4604 3.44012L17.4605 3.44015C17.7896 3.60785 18.0587 3.87684 18.2264 4.20604L18.2264 4.20615M2.53915 3.44012L18.2264 4.20615M1.77311 15.7938L1.77314 15.7938C1.94088 16.123 2.20986 16.392 2.53909 16.5598L2.53914 16.5598C2.91804 16.7529 3.24487 16.7521 4.06001 16.7502C4.14524 16.75 4.23582 16.7498 4.33235 16.7498H15.6672C15.7638 16.7498 15.8544 16.75 15.9397 16.7502C16.7547 16.7521 17.0815 16.7529 17.4604 16.5598L17.4605 16.5598C17.7897 16.392 18.0587 16.123 18.2264 15.7939L18.2264 15.7938C18.4195 15.4149 18.4187 15.0881 18.4169 14.2731C18.4167 14.1878 18.4165 14.0972 18.4165 14.0006V12.9167C18.4165 12.9166 18.4165 12.9166 18.4165 12.9166C18.4164 12.8945 18.4077 12.8733 18.392 12.8577L18.9224 12.3274L18.392 12.8577C18.3764 12.8421 18.3552 12.8333 18.3331 12.8333L1.77311 15.7938ZM1.77311 15.7938C1.58006 15.4149 1.58081 15.0881 1.58268 14.2729C1.58287 14.1877 1.58308 14.0971 1.58308 14.0006V12.9167C1.58308 12.9166 1.58308 12.9166 1.58308 12.9166C1.5831 12.8945 1.59189 12.8733 1.60751 12.8577C1.62313 12.8421 1.64431 12.8333 1.6664 12.8333L1.77311 15.7938ZM18.2264 4.20615C18.4195 4.585 18.4187 4.91186 18.4169 5.72706C18.4167 5.81228 18.4165 5.90283 18.4165 5.99934V7.08325C18.4165 7.08327 18.4165 7.0833 18.4165 7.08333C18.4164 7.10542 18.4077 7.1266 18.392 7.14222C18.3764 7.15784 18.3552 7.16663 18.3331 7.16665L18.2264 4.20615ZM18.2498 7.01238L17.6727 7.14908C16.3253 7.46822 15.3332 8.61527 15.3332 9.99997C15.3332 11.3846 16.3253 12.5317 17.6727 12.8509L18.2498 12.9876V13.5807V14.0006C18.2498 14.4756 18.239 14.8182 18.22 15.0618C18.2106 15.1833 18.1983 15.2916 18.1816 15.3854C18.1677 15.4635 18.1409 15.5925 18.0769 15.718M18.2498 7.01238L17.3846 16.4103C17.6825 16.2586 17.9251 16.0159 18.0769 15.718M18.2498 7.01238V6.41927M18.2498 7.01238V6.41927M18.0769 15.718L17.4097 15.378L18.077 15.7179C18.077 15.718 18.0769 15.718 18.0769 15.718ZM18.2498 6.41927V5.99935C18.2498 5.52439 18.239 5.18183 18.22 4.93814C18.2106 4.81672 18.1983 4.70837 18.1816 4.61454C18.1677 4.53643 18.1409 4.40749 18.077 4.28203L18.2498 6.41927ZM1.74972 12.9876L2.32686 12.8509C3.67429 12.5317 4.66635 11.3847 4.66635 9.99997C4.66635 8.61535 3.67429 7.46826 2.32684 7.14907L1.74972 7.01236V6.41927V5.99935C1.74972 5.52438 1.76057 5.18181 1.77951 4.93811C1.78895 4.81669 1.80125 4.70834 1.81797 4.6145C1.83189 4.53644 1.85866 4.40747 1.92261 4.28197L1.74972 12.9876ZM1.74972 12.9876V13.5807M1.74972 12.9876V13.5807M1.74972 13.5807V14.0006C1.74972 14.4756 1.76057 14.8181 1.77953 15.0618C1.78897 15.1833 1.80126 15.2916 1.81798 15.3854C1.8319 15.4635 1.85867 15.5925 1.92262 15.718L1.74972 13.5807ZM1.58268 5.72712C1.58287 5.81232 1.58308 5.90285 1.58308 5.99934V7.08325C1.58308 7.08328 1.58308 7.0833 1.58308 7.08333C1.5831 7.10542 1.59189 7.1266 1.60751 7.14222C1.62313 7.15784 1.64432 7.16663 1.6664 7.16665L1.58268 5.72712ZM1.58268 5.72712C1.58081 4.91192 1.58006 4.58505 1.77313 4.20614L1.58268 5.72712ZM4.33235 3.41672H15.6672C16.1422 3.41672 16.4848 3.42757 16.7285 3.44652C16.8499 3.45597 16.9582 3.46826 17.052 3.48498C17.1301 3.4989 17.2591 3.52568 17.3846 3.58962L4.33235 3.41672ZM4.33235 3.41672C3.85739 3.41672 3.51483 3.42757 3.27114 3.44652C3.14972 3.45596 3.04138 3.46825 2.94755 3.48498C2.86941 3.4989 2.74045 3.52568 2.61498 3.5896L4.33235 3.41672ZM16.7284 16.5534C16.4847 16.5724 16.1422 16.5832 15.6672 16.5832H4.33235C3.85738 16.5832 3.5148 16.5724 3.27111 16.5534C3.14969 16.544 3.04134 16.5317 2.9475 16.515C2.8694 16.501 2.74033 16.4743 2.61477 16.4102L2.95538 15.7422L2.61502 16.4104L16.7284 16.5534ZM16.7284 16.5534C16.8499 16.544 16.9582 16.5317 17.052 16.515M16.7284 16.5534L17.052 16.515M17.052 16.515C17.1301 16.501 17.2591 16.4743 17.3845 16.4104L17.052 16.515ZM4.49971 9.99996C4.49971 8.42528 3.24114 7.16669 1.66648 7.16665V12.8333C3.24114 12.8332 4.49971 11.5746 4.49971 9.99996ZM15.4998 9.99996C15.4998 11.5746 16.7584 12.8332 18.3331 12.8333V7.16665C16.7584 7.16669 15.4998 8.42528 15.4998 9.99996ZM2.61496 3.58961C2.317 3.74142 2.07455 3.98385 1.92271 4.28177L2.61496 3.58961ZM8.27404 5.77445C8.28967 5.75882 8.31086 5.75004 8.33296 5.75004C8.35506 5.75004 8.37625 5.75882 8.39188 5.77445C8.40751 5.79008 8.41629 5.81127 8.41629 5.83337V6.66669C8.41629 6.68879 8.40751 6.70998 8.39188 6.72561C8.37625 6.74123 8.35506 6.75001 8.33296 6.75001C8.31086 6.75001 8.28967 6.74123 8.27404 6.72561C8.25842 6.70998 8.24964 6.68879 8.24964 6.66669V5.83337C8.24964 5.81127 8.25842 5.79008 8.27404 5.77445ZM8.27404 9.5244C8.28967 9.50877 8.31086 9.5 8.33296 9.5C8.35506 9.5 8.37625 9.50877 8.39188 9.5244C8.40751 9.54003 8.41629 9.56122 8.41629 9.58332V10.4166C8.41629 10.4387 8.40751 10.4599 8.39188 10.4756L8.92221 11.0059L8.39188 10.4756C8.37625 10.4912 8.35506 10.5 8.33296 10.5C8.31086 10.5 8.28967 10.4912 8.27404 10.4756C8.25842 10.4599 8.24964 10.4387 8.24964 10.4166V9.58332C8.24964 9.56122 8.25842 9.54003 8.27404 9.5244ZM8.27404 13.2744C8.28967 13.2587 8.31086 13.25 8.33296 13.25C8.35506 13.25 8.37625 13.2587 8.39188 13.2744C8.40751 13.29 8.41629 13.3112 8.41629 13.3333V14.1666C8.41629 14.1887 8.40751 14.2099 8.39188 14.2255C8.37626 14.2411 8.35506 14.2499 8.33296 14.2499C8.31086 14.2499 8.28967 14.2411 8.27404 14.2255C8.25842 14.2099 8.24964 14.1887 8.24964 14.1666V13.3333C8.24964 13.3112 8.25842 13.29 8.27404 13.2744Z" fill="black" stroke="#D92D20" stroke-width="1.5"/>
</g>
</svg>
