<svg width="133" height="32" viewBox="0 0 133 32" fill="none" xmlns="http://www.w3.org/2000/svg">
<path d="M48.3381 25.0709C47.0374 25.0709 45.8717 24.8603 44.8412 24.4391C43.8108 24.0179 42.983 23.3945 42.3579 22.5689C41.7498 21.7434 41.4288 20.7493 41.395 19.5868H46.0069C46.0744 20.2439 46.3025 20.7493 46.691 21.1031C47.0796 21.4401 47.5864 21.6086 48.2114 21.6086C48.8534 21.6086 49.3602 21.4654 49.7318 21.1789C50.1035 20.8757 50.2893 20.4629 50.2893 19.9406C50.2893 19.5025 50.1373 19.1403 49.8332 18.8539C49.546 18.5675 49.1828 18.3316 48.7436 18.1462C48.3212 17.9609 47.7131 17.7503 46.9191 17.5144C45.7704 17.1606 44.8328 16.8068 44.1064 16.453C43.38 16.0992 42.7549 15.5769 42.2312 14.8861C41.7075 14.1953 41.4457 13.2939 41.4457 12.1819C41.4457 10.5308 42.0454 9.24192 43.2448 8.31526C44.4442 7.37176 46.0069 6.90001 47.9327 6.90001C49.8923 6.90001 51.4718 7.37176 52.6712 8.31526C53.8707 9.24192 54.5126 10.5392 54.5971 12.2072H49.9092C49.8754 11.6344 49.6642 11.1879 49.2757 10.8678C48.8872 10.5308 48.3888 10.3623 47.7807 10.3623C47.257 10.3623 46.8346 10.5055 46.5137 10.792C46.1927 11.0615 46.0322 11.4575 46.0322 11.9798C46.0322 12.5526 46.3025 12.9991 46.8431 13.3192C47.3837 13.6393 48.2283 13.9847 49.3771 14.3554C50.5258 14.7429 51.4549 15.1136 52.1644 15.4674C52.8909 15.8212 53.5159 16.3351 54.0396 17.009C54.5633 17.6829 54.8251 18.5506 54.8251 19.6121C54.8251 20.623 54.5633 21.5412 54.0396 22.3668C53.5328 23.1923 52.7895 23.8494 51.8097 24.338C50.8299 24.8266 49.6727 25.0709 48.3381 25.0709Z" fill="#1570EF"/>
<path d="M63.9281 25.0962C62.5428 25.0962 61.2927 24.8013 60.1778 24.2116C59.0797 23.6219 58.2097 22.7795 57.5678 21.6844C56.9427 20.5893 56.6302 19.3088 56.6302 17.843C56.6302 16.394 56.9512 15.122 57.5931 14.0268C58.235 12.9149 59.1135 12.064 60.2285 11.4743C61.3434 10.8846 62.5935 10.5898 63.9787 10.5898C65.364 10.5898 66.6141 10.8846 67.729 11.4743C68.844 12.064 69.7224 12.9149 70.3644 14.0268C71.0063 15.122 71.3273 16.394 71.3273 17.843C71.3273 19.2919 70.9979 20.5724 70.339 21.6844C69.6971 22.7795 68.8102 23.6219 67.6784 24.2116C66.5634 24.8013 65.3133 25.0962 63.9281 25.0962ZM63.9281 21.3559C64.7558 21.3559 65.4569 21.0526 66.0313 20.446C66.6225 19.8395 66.9182 18.9718 66.9182 17.843C66.9182 16.7141 66.631 15.8465 66.0566 15.2399C65.4991 14.6334 64.8065 14.3301 63.9787 14.3301C63.1341 14.3301 62.433 14.6334 61.8755 15.2399C61.3181 15.8296 61.0393 16.6973 61.0393 17.843C61.0393 18.9718 61.3096 19.8395 61.8502 20.446C62.4077 21.0526 63.1003 21.3559 63.9281 21.3559Z" fill="#1570EF"/>
<path d="M72.7645 17.843C72.7645 16.3772 73.0602 15.0967 73.6514 14.0016C74.2596 12.9064 75.0958 12.064 76.1601 11.4743C77.2412 10.8846 78.4744 10.5898 79.8597 10.5898C81.6335 10.5898 83.1116 11.0531 84.2942 11.9798C85.4936 12.9064 86.2791 14.2122 86.6508 15.897H82.0389C81.6504 14.8187 80.8986 14.2796 79.7837 14.2796C78.9897 14.2796 78.3562 14.5913 77.8832 15.2146C77.4102 15.8212 77.1737 16.6973 77.1737 17.843C77.1737 18.9887 77.4102 19.8732 77.8832 20.4966C78.3562 21.1031 78.9897 21.4064 79.7837 21.4064C80.8986 21.4064 81.6504 20.8673 82.0389 19.789H86.6508C86.2791 21.4401 85.4936 22.7374 84.2942 23.6809C83.0947 24.6244 81.6166 25.0962 79.8597 25.0962C78.4744 25.0962 77.2412 24.8013 76.1601 24.2116C75.0958 23.6219 74.2596 22.7795 73.6514 21.6844C73.0602 20.5893 72.7645 19.3088 72.7645 17.843Z" fill="#1570EF"/>
<path d="M96.8492 21.2295V24.894H94.6447C93.0736 24.894 91.8489 24.5149 90.9704 23.7567C90.092 22.9817 89.6527 21.7265 89.6527 19.9911V14.3807H87.9296V10.792H89.6527V7.35491H93.9859V10.792H96.8239V14.3807H93.9859V20.0417C93.9859 20.4629 94.0872 20.7662 94.2899 20.9515C94.4926 21.1368 94.8305 21.2295 95.3035 21.2295H96.8492Z" fill="#1570EF"/>
<path d="M103.596 13.1423C104.103 12.3673 104.736 11.7607 105.496 11.3227C106.257 10.8678 107.101 10.6403 108.03 10.6403V15.2146H106.839C105.758 15.2146 104.947 15.4505 104.407 15.9223C103.866 16.3772 103.596 17.1859 103.596 18.3484V24.894H99.2629V10.792H103.596V13.1423Z" fill="#1570EF"/>
<path d="M112.281 9.32616C111.521 9.32616 110.896 9.10713 110.406 8.66908C109.933 8.21417 109.696 7.65818 109.696 7.0011C109.696 6.32716 109.933 5.77117 110.406 5.33311C110.896 4.87821 111.521 4.65076 112.281 4.65076C113.024 4.65076 113.632 4.87821 114.105 5.33311C114.595 5.77117 114.84 6.32716 114.84 7.0011C114.84 7.65818 114.595 8.21417 114.105 8.66908C113.632 9.10713 113.024 9.32616 112.281 9.32616ZM114.435 10.792V24.894H110.102V10.792H114.435Z" fill="#1570EF"/>
<path d="M121.908 12.7885C122.33 12.1314 122.913 11.6007 123.656 11.1963C124.4 10.792 125.27 10.5898 126.266 10.5898C127.432 10.5898 128.488 10.8846 129.434 11.4743C130.38 12.064 131.123 12.9064 131.664 14.0016C132.221 15.0967 132.5 16.3688 132.5 17.8177C132.5 19.2667 132.221 20.5471 131.664 21.6591C131.123 22.7543 130.38 23.6051 129.434 24.2116C128.488 24.8013 127.432 25.0962 126.266 25.0962C125.287 25.0962 124.417 24.894 123.656 24.4896C122.913 24.0853 122.33 23.563 121.908 22.9227V31.6165H117.575V10.792H121.908V12.7885ZM128.091 17.8177C128.091 16.7394 127.787 15.897 127.179 15.2905C126.587 14.6671 125.853 14.3554 124.974 14.3554C124.113 14.3554 123.378 14.6671 122.77 15.2905C122.178 15.9138 121.883 16.7647 121.883 17.843C121.883 18.9213 122.178 19.7721 122.77 20.3955C123.378 21.0189 124.113 21.3306 124.974 21.3306C125.836 21.3306 126.57 21.0189 127.179 20.3955C127.787 19.7553 128.091 18.896 128.091 17.8177Z" fill="#1570EF"/>
<path fill-rule="evenodd" clip-rule="evenodd" d="M32.3072 16C32.3072 24.7752 25.1869 31.8889 16.4036 31.8889H6.40706C5.90515 31.8889 5.49828 31.4824 5.49828 30.9809C5.49828 30.4795 5.90515 30.073 6.40706 30.073H7.36127C7.61223 30.073 7.81566 29.8697 7.81566 29.619C7.81566 29.475 7.75371 29.336 7.64377 29.2634C3.33933 26.4201 0.5 21.5413 0.5 16C0.5 7.22478 7.62029 0.111084 16.4036 0.111084C25.1869 0.111084 32.3072 7.22478 32.3072 16ZM24.1427 11.2828C22.6225 8.54111 18.7893 5.96652 13.8833 7.26882C9.53004 8.42439 7.36978 12.6846 7.36979 14.7439C7.36981 17.2745 10.9401 18.1003 15.0169 17.7576C19.5002 17.3807 21.6048 16.2874 25.0597 13.6143C20.5357 16.0519 17.8575 16.6619 14.0176 16.401C11.9334 16.2594 9.02041 15.5401 9.73054 12.3312C10.1636 10.3743 12.3929 8.28095 15.3852 7.73958C20.1254 6.88201 23.2917 10.2391 24.1427 11.2828ZM25.2529 14.1323C25.9048 16.5233 25.2105 19.5098 23.2921 21.8274C20.678 24.9855 16.5506 25.7212 13.1952 24.5611C16.6553 24.2373 18.9345 23.1004 20.9808 21.3605C20.7276 21.5467 20.4649 21.7244 20.1931 21.8927C16.4268 24.2242 11.4026 24.1736 8.73934 21.0764C11.2747 21.7382 13.3071 21.9285 15.3829 21.483C11.9312 21.6915 8.8159 20.2468 7.31583 17.6603C9.24138 19.073 13.6337 20.0829 18.1504 18.7217C21.1409 17.8205 23.6063 16.183 25.2031 14.2451L25.1977 14.2642C25.2145 14.2326 25.231 14.2009 25.2473 14.1692L25.2529 14.1323Z" fill="url(#paint0_linear_10507_11205)"/>
<defs>
<linearGradient id="paint0_linear_10507_11205" x1="5.11205" y1="0.111085" x2="36.0803" y2="5.15276" gradientUnits="userSpaceOnUse">
<stop stop-color="#1879FF"/>
<stop offset="1" stop-color="#0658CC"/>
</linearGradient>
</defs>
</svg>
