<svg width="102" height="24" viewBox="0 0 102 24" fill="none" xmlns="http://www.w3.org/2000/svg">
<path fill-rule="evenodd" clip-rule="evenodd" d="M10.7502 15.8579H8.6905L7.14594 9.79198C7.07263 9.51295 6.91697 9.26627 6.688 9.15001C6.11658 8.85784 5.4869 8.62531 4.79999 8.50804V8.2745H8.11807C8.57601 8.2745 8.91947 8.62531 8.97671 9.03274L9.77811 13.4083L11.8368 8.2745H13.8393L10.7502 15.8579ZM14.9842 15.8579H13.039L14.6408 8.2745H16.586L14.9842 15.8579ZM19.1027 10.3753C19.1599 9.96689 19.5034 9.73335 19.9041 9.73335C20.5338 9.67471 21.2197 9.79199 21.7921 10.0832L22.1356 8.45042C21.5631 8.21688 20.9335 8.09961 20.362 8.09961C18.474 8.09961 17.1002 9.15002 17.1002 10.6078C17.1002 11.7169 18.0733 12.2992 18.7602 12.65C19.5034 12.9998 19.7896 13.2334 19.7324 13.5832C19.7324 14.1079 19.1599 14.3414 18.5885 14.3414C17.9016 14.3414 17.2147 14.1665 16.586 13.8743L16.2426 15.5081C16.9295 15.7992 17.6726 15.9165 18.3595 15.9165C20.4765 15.9741 21.7921 14.9247 21.7921 13.3496C21.7921 11.3661 19.1027 11.2498 19.1027 10.3753ZM28.6 15.8579L27.0554 8.2745H25.3964C25.0529 8.2745 24.7095 8.50804 24.595 8.85784L21.7349 15.8579H23.7374L24.137 14.7498H26.5975L26.8265 15.8579H28.6ZM25.6826 10.3167L26.254 13.1747H24.6522L25.6826 10.3167Z" fill="#172B85"/>
<path d="M55.9819 11.9542C56.5132 11.9658 57.0475 11.9308 57.5766 11.9724C58.1125 12.0724 58.2416 12.8836 57.7655 13.1493C57.4407 13.3243 57.0548 13.2145 56.7027 13.2454H55.9819V11.9542ZM57.8838 10.4928C58.0018 10.9095 57.6002 11.2835 57.1989 11.2262H55.9819C55.9905 10.8333 55.9652 10.4068 55.9943 10.0346C56.4818 10.0484 56.9739 10.0066 57.4586 10.0564C57.6668 10.1088 57.8411 10.28 57.8838 10.4928ZM60.8127 4.31448C60.8353 5.11012 60.816 5.94781 60.8225 6.75959C60.821 10.06 60.8256 13.3603 60.8199 16.6609C60.7985 17.8978 59.7023 18.9726 58.474 18.9972C57.2444 19.0022 56.0147 18.998 54.785 18.9994V14.0099C56.1248 14.003 57.4653 14.0239 58.8046 13.9994C59.4259 13.9604 60.1064 13.5505 60.1353 12.8668C60.2085 12.1801 59.5611 11.7051 58.9465 11.6301C58.7102 11.624 58.7171 11.5613 58.9465 11.5339C59.5327 11.4072 59.9931 10.8004 59.8206 10.1928C59.6736 9.55368 58.9672 9.30631 58.3796 9.30754C57.1816 9.2994 55.9834 9.30641 54.7853 9.30404C54.793 8.37256 54.7692 7.44008 54.7982 6.50928C54.8931 5.2947 56.0169 4.29307 57.2279 4.3148C58.423 4.31462 59.6179 4.31462 60.8127 4.31457V4.31448Z" fill="url(#paint0_linear_1831_25176)"/>
<path d="M41.2465 6.6353C41.2771 5.40035 42.378 4.33439 43.6048 4.31635C44.8297 4.31257 46.0549 4.3158 47.2799 4.31471C47.2765 8.44657 47.2865 12.5789 47.2749 16.7105C47.2277 17.9305 46.1388 18.9761 44.9254 18.9977C43.6981 19.0022 42.4707 18.9983 41.2433 18.9996V13.8418C42.4355 14.1235 43.6856 14.2434 44.9019 14.0566C45.6288 13.9396 46.4243 13.5826 46.6704 12.8283C46.8515 12.1832 46.7495 11.5042 46.7765 10.842V9.30427H44.6717C44.6623 10.3213 44.6911 11.3401 44.6565 12.3559C44.5998 12.9803 43.9814 13.377 43.3925 13.3558C42.6622 13.3636 41.215 12.8266 41.215 12.8266C41.2114 10.9211 41.2362 8.53468 41.2465 6.63548V6.6353Z" fill="url(#paint1_linear_1831_25176)"/>
<path d="M48.0648 9.92476C47.954 9.94826 48.0425 9.54738 48.0142 9.3953C48.0218 8.43377 47.9984 7.47119 48.0271 6.51034C48.1217 5.29063 49.2542 4.2865 50.4701 4.31505H54.0511C54.0477 8.44691 54.0577 12.5792 54.0461 16.7109C53.9988 17.9308 52.9099 18.9764 51.6964 18.998C50.4691 19.0027 49.2416 18.9988 48.0142 18.9999V13.349C48.8525 14.0368 49.9918 14.1438 51.0361 14.1457C51.8235 14.1454 52.6062 14.024 53.3708 13.8424V12.8072C52.5091 13.2366 51.4962 13.5094 50.5411 13.2627C49.8748 13.0968 49.3911 12.4529 49.4019 11.7653C49.3247 11.0502 49.7438 10.2952 50.4465 10.0827C51.319 9.80951 52.2699 10.0184 53.0877 10.3735C53.2629 10.4653 53.4408 10.5791 53.3707 10.2862V9.47245C52.0029 9.14703 50.5473 9.02729 49.1732 9.3813C48.7754 9.4935 48.3879 9.66367 48.0648 9.92485V9.92476Z" fill="url(#paint2_linear_1831_25176)"/>
<path fill-rule="evenodd" clip-rule="evenodd" d="M85.179 16.8297C83.9949 17.8278 82.459 18.4303 80.7807 18.4303C77.0358 18.4303 74 15.4306 74 11.7303C74 8.02997 77.0358 5.03027 80.7807 5.03027C82.459 5.03027 83.9949 5.63277 85.179 6.63081C86.363 5.63277 87.8989 5.03027 89.5773 5.03027C93.3221 5.03027 96.358 8.02997 96.358 11.7303C96.358 15.4306 93.3221 18.4303 89.5773 18.4303C87.8989 18.4303 86.363 17.8278 85.179 16.8297Z" fill="#ED0006"/>
<path fill-rule="evenodd" clip-rule="evenodd" d="M85.179 16.8297C86.6369 15.6008 87.5614 13.7722 87.5614 11.7303C87.5614 9.68832 86.6369 7.85972 85.179 6.63081C86.363 5.63277 87.8989 5.03027 89.5772 5.03027C93.3221 5.03027 96.3579 8.02997 96.3579 11.7303C96.3579 15.4306 93.3221 18.4303 89.5772 18.4303C87.8989 18.4303 86.363 17.8278 85.179 16.8297Z" fill="#F9A000"/>
<path fill-rule="evenodd" clip-rule="evenodd" d="M85.179 16.8297C86.6369 15.6008 87.5614 13.7722 87.5614 11.7303C87.5614 9.68835 86.6369 7.85976 85.179 6.63086C83.7211 7.85976 82.7966 9.68835 82.7966 11.7303C82.7966 13.7722 83.7211 15.6008 85.179 16.8297Z" fill="#FF5E00"/>
<defs>
<linearGradient id="paint0_linear_1831_25176" x1="54.7438" y1="11.343" x2="60.7844" y2="11.343" gradientUnits="userSpaceOnUse">
<stop stop-color="#58B03A"/>
<stop offset="1" stop-color="#55B330"/>
</linearGradient>
<linearGradient id="paint1_linear_1831_25176" x1="41.1149" y1="11.7978" x2="47.1809" y2="11.7978" gradientUnits="userSpaceOnUse">
<stop stop-color="#0F6EB6"/>
<stop offset="1" stop-color="#006DBA"/>
</linearGradient>
<linearGradient id="paint2_linear_1831_25176" x1="48.0053" y1="11.4858" x2="54.05" y2="11.4858" gradientUnits="userSpaceOnUse">
<stop stop-color="#DE0D3D"/>
<stop offset="1" stop-color="#E30138"/>
</linearGradient>
</defs>
</svg>
